<?xml version="1.0" encoding="utf-8" standalone="no"?>
<!DOCTYPE svg PUBLIC "-//W3C//DTD SVG 1.1//EN"
  "http://www.w3.org/Graphics/SVG/1.1/DTD/svg11.dtd">
<!-- Created with matplotlib (http://matplotlib.org/) -->
<svg height="407pt" version="1.1" viewBox="0 0 494 407" width="494pt" xmlns="http://www.w3.org/2000/svg" xmlns:xlink="http://www.w3.org/1999/xlink">
 <defs>
  <style type="text/css">
*{stroke-linecap:butt;stroke-linejoin:round;}
  </style>
 </defs>
 <g id="figure_1">
  <g id="patch_1">
   <path d="
M0 407.712
L494.469 407.712
L494.469 0
L0 0
z
" style="fill:#ffffff;"/>
  </g>
  <g id="axes_1">
   <g id="patch_2">
    <path d="
M35.5563 352.8
L481.956 352.8
L481.956 7.2
L35.5563 7.2
z
" style="fill:#ffffff;"/>
   </g>
   <g id="line2d_1">
    <path clip-path="url(#p96d9120af0)" d="
M35.5563 349.412
L53.1141 349.412
L53.1141 349.111
L72.2212 349.111
L72.2212 348.809
L73.5083 348.809
L73.5083 348.508
L76.2696 348.508
L76.2696 348.207
L78.7482 348.207
L78.7482 347.906
L80.9966 347.906
L80.9966 347.605
L81.3014 347.605
L81.3014 347.304
L84.1557 347.304
L84.1557 347.002
L84.9504 347.002
L84.9504 346.701
L92.1166 346.701
L92.1166 346.4
L93.9816 346.4
L93.9816 346.099
L98.0989 346.099
L98.0989 345.798
L101.748 345.798
L101.748 345.496
L102.768 345.496
L102.768 345.195
L109.489 345.195
L109.489 344.894
L113.835 344.894
L113.835 344.593
L120.061 344.593
L120.061 344.292
L121.336 344.292
L121.336 343.991
L122.011 343.991
L122.011 343.689
L122.466 343.689
L122.466 343.388
L123.054 343.388
L123.054 343.087
L129.28 343.087
L129.28 342.786
L129.525 342.786
L129.525 342.485
L130.555 342.485
L130.555 342.184
L131.219 342.184
L131.23 341.581
L131.661 341.581
L131.661 341.28
L132.268 341.28
L132.268 340.979
L135.908 340.979
L135.908 340.678
L137.394 340.678
L137.445 340.075
L138.152 340.075
L138.152 339.774
L138.719 339.774
L138.719 339.473
L139.395 339.473
L139.395 339.172
L140.88 339.172
L140.88 338.871
L141.487 338.871
L141.487 338.569
L142.185 338.569
L142.185 338.268
L142.329 338.268
L142.329 337.967
L142.537 337.967
L142.537 337.666
L144.305 337.666
L144.305 337.365
L144.847 337.365
L144.847 337.064
L145.127 337.064
L145.127 336.762
L145.608 336.762
L145.608 336.461
L146.558 336.461
L146.613 335.859
L147.035 335.859
L147.035 335.558
L148.158 335.558
L148.158 335.256
L148.272 335.256
L148.272 334.955
L148.527 334.955
L148.527 334.654
L149.044 334.654
L149.044 334.353
L149.417 334.353
L149.417 334.052
L149.652 334.052
L149.652 333.751
L151.404 333.751
L151.404 333.449
L151.548 333.449
L151.548 333.148
L153.291 333.148
L153.291 332.847
L153.524 332.847
L153.524 332.546
L154.778 332.546
L154.827 331.944
L155.643 331.944
L155.643 331.642
L156.402 331.642
L156.502 331.04
L156.917 331.04
L156.917 330.739
L157.377 330.739
L157.377 330.438
L157.593 330.438
L157.593 330.136
L159.569 330.136
L159.569 329.835
L159.713 329.835
L159.757 329.233
L161.689 329.233
L161.689 328.932
L162.628 328.932
L162.628 328.631
L162.992 328.631
L162.992 328.329
L163.892 328.329
L163.902 327.727
L164.578 327.727
L164.578 327.426
L165.542 327.426
L165.542 327.125
L165.983 327.125
L165.983 326.824
L166.265 326.824
L166.265 326.522
L166.507 326.522
L166.507 326.221
L167.242 326.221
L167.257 325.619
L167.85 325.619
L167.933 325.016
L168.763 325.016
L168.763 324.715
L170.118 324.715
L170.118 324.414
L171.393 324.414
L171.489 323.812
L172.069 323.812
L172.069 323.511
L172.491 323.511
L172.491 323.209
L172.976 323.209
L172.976 322.908
L173.766 322.908
L173.766 322.607
L174.227 322.607
L174.227 322.306
L174.441 322.306
L174.441 322.005
L174.835 322.005
L174.835 321.704
L175.932 321.704
L175.932 321.402
L177.154 321.402
L177.154 320.499
L177.582 320.499
L177.582 320.198
L177.766 320.198
L177.766 319.896
L177.911 319.896
L177.911 319.595
L178.19 319.595
L178.19 319.294
L178.474 319.294
L178.474 318.993
L179.887 318.993
L179.961 318.391
L181.19 318.391
L181.19 318.089
L181.718 318.089
L181.718 317.788
L181.829 317.788
L181.829 317.487
L182.325 317.487
L182.325 317.186
L182.772 317.186
L182.772 316.282
L183.316 316.282
L183.316 315.981
L183.74 315.981
L183.849 314.776
L184.091 314.776
L184.091 314.475
L184.698 314.475
L184.751 313.873
L184.896 313.873
L184.896 313.572
L185.965 313.572
L185.965 313.271
L186.872 313.271
L186.872 312.969
L187.402 312.969
L187.451 312.367
L188.107 312.367
L188.175 311.765
L188.251 311.765
L188.338 311.162
L189.824 311.162
L189.824 310.861
L190.097 310.861
L190.097 309.958
L190.227 309.958
L190.227 309.656
L190.725 309.656
L190.725 309.355
L191.53 309.355
L191.53 309.054
L192.242 309.054
L192.242 308.753
L192.387 308.753
L192.387 308.452
L193.13 308.452
L193.13 307.548
L193.952 307.548
L193.952 306.946
L194.08 306.946
L194.08 306.645
L194.362 306.645
L194.362 306.344
L194.615 306.344
L194.615 306.042
L194.759 306.042
L194.759 305.741
L195.662 305.741
L195.665 305.139
L196.735 305.139
L196.735 304.838
L198.038 304.838
L198.038 304.536
L198.215 304.536
L198.215 304.235
L199.569 304.235
L199.569 303.633
L200.588 303.633
L200.647 302.729
L202.721 302.729
L202.721 302.428
L205.51 302.428
L205.51 301.525
L206.895 301.525
L206.895 300.922
L207.53 300.922
L207.53 300.621
L209.928 300.621
L209.928 300.019
L210.297 300.019
L210.297 299.718
L210.749 299.718
L210.749 299.416
L211.348 299.416
L211.348 299.115
L211.6 299.115
L211.6 298.212
L215.335 298.212
L215.335 297.007
L215.733 297.007
L215.733 296.706
L216.157 296.706
L216.157 296.405
L216.367 296.405
L216.367 296.104
L216.664 296.104
L216.664 295.802
L217.356 295.802
L217.444 295.2
L218.042 295.2
L218.042 294.899
L219.357 294.899
L219.357 294.598
L219.754 294.598
L219.754 292.489
L220.231 292.489
L220.231 292.188
L220.575 292.188
L220.575 291.887
L221.468 291.887
L221.468 291.586
L221.723 291.586
L221.774 290.984
L222.307 290.984
L222.307 290.381
L222.852 290.381
L222.852 290.08
L223.522 290.08
L223.522 289.779
L223.692 289.779
L223.692 289.478
L225.983 289.478
L225.983 289.176
L226.193 289.176
L226.193 288.875
L226.416 288.875
L226.416 288.574
L226.637 288.574
L226.725 287.972
L226.92 287.972
L226.92 287.671
L227.27 287.671
L227.27 287.369
L227.547 287.369
L227.547 287.068
L227.924 287.068
L227.985 286.466
L228.397 286.466
L228.397 285.864
L228.536 285.864
L228.536 285.562
L228.816 285.562
L228.816 285.261
L229.1 285.261
L229.108 284.358
L229.698 284.358
L229.698 284.056
L229.97 284.056
L229.97 283.755
L230.127 283.755
L230.127 283.454
L230.368 283.454
L230.368 283.153
L230.686 283.153
L230.686 282.852
L232.133 282.852
L232.133 281.045
L232.458 281.045
L232.458 280.744
L232.677 280.744
L232.677 280.442
L233.164 280.442
L233.164 279.84
L233.518 279.84
L233.518 279.539
L234.241 279.539
L234.241 279.238
L234.389 279.238
L234.389 278.936
L234.507 278.936
L234.507 278.635
L234.866 278.635
L234.866 278.334
L235.043 278.334
L235.043 278.033
L235.413 278.033
L235.413 277.732
L235.718 277.732
L235.771 277.129
L236.103 277.129
L236.168 276.527
L236.358 276.527
L236.358 276.226
L236.551 276.226
L236.551 274.72
L237.058 274.72
L237.058 274.419
L237.187 274.419
L237.187 274.118
L237.373 274.118
L237.373 273.515
L238.572 273.515
L238.572 273.214
L239.083 273.214
L239.181 272.311
L239.312 272.311
L239.366 271.407
L239.428 271.407
L239.428 271.106
L239.703 271.106
L239.703 270.805
L239.819 270.805
L239.819 270.504
L240.49 270.504
L240.49 270.202
L241.737 270.202
L241.737 269.901
L241.959 269.901
L241.959 268.696
L242.298 268.696
L242.298 268.395
L242.629 268.395
L242.629 268.094
L242.948 268.094
L242.99 267.191
L243.449 267.191
L243.523 265.986
L243.916 265.986
L243.926 265.384
L244.067 265.384
L244.133 264.48
L244.333 264.48
L244.333 264.179
L244.512 264.179
L244.546 263.576
L244.795 263.576
L244.851 262.974
L244.93 262.974
L244.93 262.372
L245.163 262.372
L245.195 261.769
L245.418 261.769
L245.418 261.468
L245.813 261.468
L245.813 260.866
L246.007 260.866
L246.027 259.962
L246.142 259.962
L246.24 259.36
L246.533 259.36
L246.533 259.059
L246.677 259.059
L246.677 258.758
L247.093 258.758
L247.093 258.456
L247.314 258.456
L247.314 258.155
L247.643 258.155
L247.705 257.553
L247.923 257.553
L247.923 257.252
L248.207 257.252
L248.207 256.951
L248.38 256.951
L248.398 256.348
L248.5 256.348
L248.5 256.047
L248.93 256.047
L248.93 254.541
L249.078 254.541
L249.179 253.336
L249.211 253.336
L249.211 253.035
L249.494 253.035
L249.494 252.734
L250.075 252.734
L250.075 252.433
L250.198 252.433
L250.198 252.132
L250.316 252.132
L250.365 251.228
L250.602 251.228
L250.602 250.927
L251.141 250.927
L251.192 250.325
L251.404 250.325
L251.489 249.421
L251.565 249.421
L251.565 249.12
L251.692 249.12
L251.709 248.518
L251.972 248.518
L251.972 248.216
L252.255 248.216
L252.333 247.012
L252.508 247.012
L252.554 245.807
L252.852 245.807
L252.852 245.506
L253.126 245.506
L253.2 244.904
L253.349 244.904
L253.393 243.398
L253.614 243.398
L253.678 242.494
L254.17 242.494
L254.219 241.892
L254.338 241.892
L254.338 241.289
L254.45 241.289
L254.45 240.988
L254.563 240.988
L254.563 240.687
L254.697 240.687
L254.802 239.482
L254.867 239.482
L254.915 238.579
L255.021 238.579
L255.107 237.976
L255.17 237.976
L255.17 237.675
L255.288 237.675
L255.358 236.772
L255.605 236.772
L255.666 235.868
L255.868 235.868
L255.934 234.965
L256.164 234.965
L256.189 234.061
L256.419 234.061
L256.419 233.76
L256.594 233.76
L256.699 233.158
L256.723 233.158
L256.723 232.856
L256.982 232.856
L257.004 232.254
L257.184 232.254
L257.287 231.652
L257.531 231.652
L257.531 231.351
L257.663 231.351
L257.663 231.049
L257.853 231.049
L257.962 230.447
L258.092 230.447
L258.158 229.845
L258.756 229.845
L258.756 157.261
L259.027 157.261
L259.027 156.96
L259.154 156.96
L259.252 156.358
L259.361 156.358
L259.392 155.755
L259.578 155.755
L259.578 155.153
L259.819 155.153
L259.858 154.249
L260.141 154.249
L260.141 153.647
L260.341 153.647
L260.372 153.045
L260.598 153.045
L260.653 152.141
L260.936 152.141
L261.012 151.539
L261.463 151.539
L261.562 150.936
L261.648 150.936
L261.648 150.635
L261.789 150.635
L261.807 150.033
L261.992 150.033
L262.055 149.431
L262.39 149.431
L262.39 149.129
L262.524 149.129
L262.565 148.226
L262.695 148.226
L262.695 147.925
L263.145 147.925
L263.175 146.72
L263.273 146.72
L263.342 146.118
L263.398 146.118
L263.5 145.515
L263.652 145.515
L263.75 144.913
L263.763 144.913
L263.852 144.009
L263.905 144.009
L263.905 143.708
L264.164 143.708
L264.204 143.106
L264.294 143.106
L264.389 142.504
L264.551 142.504
L264.551 142.202
L264.889 142.202
L264.987 141.6
L265.144 141.6
L265.242 140.696
L265.297 140.696
L265.297 140.395
L265.549 140.395
L265.654 139.793
L265.728 139.793
L265.728 138.588
L265.922 138.588
L265.922 138.287
L266.104 138.287
L266.104 137.986
L266.272 137.986
L266.344 137.082
L266.42 137.082
L266.514 136.48
L266.614 136.48
L266.614 135.878
L266.988 135.878
L266.988 135.576
L267.539 135.576
L267.539 135.275
L267.668 135.275
L267.668 134.673
L267.788 134.673
L267.819 134.071
L268.019 134.071
L268.102 133.468
L268.225 133.468
L268.225 133.167
L268.507 133.167
L268.582 132.565
L268.702 132.565
L268.702 132.264
L268.853 132.264
L268.853 131.962
L268.973 131.962
L268.973 131.661
L269.092 131.661
L269.092 131.059
L269.404 131.059
L269.47 130.456
L269.684 130.456
L269.768 129.854
L269.939 129.854
L269.967 129.252
L270.146 129.252
L270.194 128.348
L270.777 128.348
L270.838 127.445
L271.135 127.445
L271.135 126.842
L271.341 126.842
L271.341 126.24
L271.461 126.24
L271.461 125.939
L271.646 125.939
L271.646 125.336
L271.818 125.336
L271.905 124.433
L272.052 124.433
L272.155 123.831
L272.403 123.831
L272.403 123.529
L272.521 123.529
L272.521 123.228
L272.727 123.228
L272.823 122.626
L272.97 122.626
L273.038 122.024
L273.119 122.024
L273.217 120.518
L273.326 120.518
L273.326 120.216
L273.51 120.216
L273.521 119.614
L273.758 119.614
L273.801 118.711
L273.99 118.711
L274.085 117.807
L274.169 117.807
L274.169 117.205
L274.5 117.205
L274.5 116.602
L274.713 116.602
L274.784 116
L274.955 116
L275.047 115.398
L275.233 115.398
L275.295 114.494
L275.375 114.494
L275.406 113.892
L275.554 113.892
L275.641 109.976
L275.994 109.976
L275.994 109.675
L276.392 109.675
L276.424 108.772
L276.529 108.772
L276.619 107.868
L276.902 107.868
L276.902 107.567
L277.17 107.567
L277.269 106.965
L277.443 106.965
L277.493 105.76
L277.64 105.76
L277.733 105.158
L277.944 105.158
L277.944 104.856
L278.139 104.856
L278.19 103.953
L278.394 103.953
L278.471 103.351
L278.604 103.351
L278.604 103.049
L278.754 103.049
L278.754 102.748
L279.375 102.748
L279.432 102.146
L279.492 102.146
L279.492 101.845
L279.625 101.845
L279.625 101.544
L279.896 101.544
L279.972 100.038
L280.259 100.038
L280.308 99.4353
L280.649 99.4353
L280.649 99.1341
L280.961 99.1341
L280.961 98.8329
L281.092 98.8329
L281.153 98.2306
L281.325 98.2306
L281.325 97.9294
L281.583 97.9294
L281.672 97.3271
L281.742 97.3271
L281.742 97.0259
L281.912 97.0259
L281.951 95.52
L282.112 95.52
L282.112 95.2188
L282.258 95.2188
L282.258 94.9176
L282.377 94.9176
L282.461 94.0141
L282.525 94.0141
L282.575 93.4118
L282.7 93.4118
L282.7 93.1106
L282.984 93.1106
L282.984 92.8094
L283.124 92.8094
L283.222 91.9059
L283.295 91.9059
L283.295 91.6047
L283.451 91.6047
L283.453 91.0024
L283.594 91.0024
L283.594 90.7012
L283.816 90.7012
L283.816 90.4
L283.931 90.4
L283.994 89.7976
L284.162 89.7976
L284.162 89.4965
L284.293 89.4965
L284.36 88.2918
L284.911 88.2918
L284.911 87.9906
L285.156 87.9906
L285.191 87.0871
L285.38 87.0871
L285.478 85.5812
L285.693 85.5812
L285.693 85.28
L286.345 85.28
L286.369 84.6776
L286.623 84.6776
L286.623 84.3765
L287.594 84.3765
L287.594 84.0753
L287.898 84.0753
L287.933 83.1718
L288.11 83.1718
L288.212 81.6659
L288.413 81.6659
L288.443 80.4612
L288.531 80.4612
L288.531 80.16
L288.833 80.16
L288.833 79.8588
L289.172 79.8588
L289.172 79.5576
L289.541 79.5576
L289.541 79.2565
L289.848 79.2565
L289.848 78.9553
L290.43 78.9553
L290.43 78.6541
L290.882 78.6541
L290.974 78.0518
L291.327 78.0518
L291.327 77.7506
L291.582 77.7506
L291.582 77.1482
L291.84 77.1482
L291.919 75.9435
L292.078 75.9435
L292.092 75.04
L292.351 75.04
L292.351 73.2329
L292.515 73.2329
L292.602 72.3294
L292.647 72.3294
L292.647 72.0282
L292.901 72.0282
L292.901 71.7271
L293.045 71.7271
L293.113 70.8235
L293.193 70.8235
L293.193 70.5224
L293.327 70.5224
L293.397 69.92
L293.562 69.92
L293.562 69.6188
L293.869 69.6188
L293.869 69.3176
L294.023 69.3176
L294.044 68.4141
L294.291 68.4141
L294.291 67.8118
L294.407 67.8118
L294.407 67.5106
L295.021 67.5106
L295.063 66.9082
L295.221 66.9082
L295.276 66.3059
L295.531 66.3059
L295.531 66.0047
L295.681 66.0047
L295.712 65.4024
L296.155 65.4024
L296.155 65.1012
L296.324 65.1012
L296.374 64.1976
L296.463 64.1976
L296.463 63.8965
L296.708 63.8965
L296.708 63.5953
L296.839 63.5953
L296.839 63.2941
L297.599 63.2941
L297.641 62.6918
L297.759 62.6918
L297.759 61.4871
L298.022 61.4871
L298.118 60.8847
L298.262 60.8847
L298.262 60.5835
L298.63 60.5835
L298.63 60.2824
L298.773 60.2824
L298.874 59.68
L299.323 59.68
L299.323 59.3788
L299.497 59.3788
L299.497 59.0776
L299.733 59.0776
L299.833 58.1741
L300.105 58.1741
L300.211 57.5718
L300.238 57.5718
L300.238 57.2706
L300.484 57.2706
L300.484 56.9694
L300.792 56.9694
L300.792 56.6682
L300.962 56.6682
L300.962 56.3671
L301.224 56.3671
L301.224 56.0659
L301.447 56.0659
L301.541 55.1624
L301.643 55.1624
L301.702 54.56
L302.177 54.56
L302.198 52.1506
L302.432 52.1506
L302.453 51.5482
L302.576 51.5482
L302.576 51.2471
L303.166 51.2471
L303.166 50.9459
L303.402 50.9459
L303.506 50.3435
L303.518 50.3435
L303.619 49.44
L303.744 49.44
L303.744 49.1388
L304.019 49.1388
L304.126 47.3318
L304.552 47.3318
L304.552 47.0306
L304.922 47.0306
L304.922 46.7294
L305.231 46.7294
L305.245 46.1271
L305.658 46.1271
L305.723 45.5247
L305.799 45.5247
L305.855 44.9224
L306.006 44.9224
L306.006 44.6212
L306.614 44.6212
L306.614 44.32
L306.959 44.32
L306.959 44.0188
L307.214 44.0188
L307.214 43.7176
L307.472 43.7176
L307.472 43.4165
L307.765 43.4165
L307.765 43.1153
L308.405 43.1153
L308.405 42.8141
L309.069 42.8141
L309.149 41.6094
L309.252 41.6094
L309.252 41.3082
L309.677 41.3082
L309.677 41.0071
L310.021 41.0071
L310.021 40.7059
L310.166 40.7059
L310.253 40.1035
L310.428 40.1035
L310.428 39.8024
L310.618 39.8024
L310.618 39.5012
L311.74 39.5012
L311.74 39.2
L312.142 39.2
L312.226 38.5976
L312.827 38.5976
L312.827 38.2965
L313.445 38.2965
L313.511 37.6941
L314.043 37.6941
L314.043 37.3929
L314.187 37.3929
L314.187 37.0918
L314.556 37.0918
L314.556 36.7906
L315.189 36.7906
L315.189 36.4894
L315.767 36.4894
L315.767 36.1882
L315.995 36.1882
L315.995 35.8871
L316.163 35.8871
L316.163 35.5859
L316.53 35.5859
L316.53 35.2847
L316.675 35.2847
L316.675 34.9835
L317.268 34.9835
L317.268 34.6824
L317.466 34.6824
L317.466 34.3812
L318.65 34.3812
L318.65 34.08
L318.975 34.08
L318.975 32.2729
L319.682 32.2729
L319.682 31.9718
L319.953 31.9718
L320.016 31.3694
L320.433 31.3694
L320.433 31.0682
L320.914 31.0682
L320.914 29.2612
L321.938 29.2612
L321.978 28.6588
L322.503 28.6588
L322.503 28.3576
L322.689 28.3576
L322.689 28.0565
L322.936 28.0565
L322.997 27.4541
L324.297 27.4541
L324.382 26.8518
L325.194 26.8518
L325.194 26.5506
L327.415 26.5506
L327.45 25.3459
L329.107 25.3459
L329.107 25.0447
L329.858 25.0447
L329.858 24.7435
L331.952 24.7435
L332.05 24.1412
L334.406 24.1412
L334.406 23.84
L334.619 23.84
L334.619 23.5388
L337.002 23.5388
L337.002 23.2376
L340.577 23.2376
L340.577 22.9365
L341.18 22.9365
L341.18 22.0329
L341.328 22.0329
L341.328 21.7318
L345.202 21.7318
L345.202 21.4306
L346.089 21.4306
L346.089 21.1294
L352.231 21.1294
L352.231 20.8282
L362.339 20.8282
L362.339 20.5271
L368.511 20.5271
L368.511 20.2259
L369.262 20.2259
L369.262 19.9247
L374.023 19.9247
L374.023 19.6235
L481.956 19.6235
L481.956 19.6235" style="fill:none;stroke:#000000;stroke-linecap:square;stroke-width:3.0;"/>
   </g>
   <g id="line2d_2"/>
   <g id="line2d_3">
    <path clip-path="url(#p96d9120af0)" d="
M35.5563 288.95
L135.766 288.95
L135.766 288.352
L136.355 288.352
L136.355 287.753
L137.179 287.753
L137.179 287.154
L137.601 287.154
L137.694 285.359
L137.856 285.359
L137.856 284.76
L138.925 284.76
L138.925 284.161
L139.377 284.161
L139.377 283.563
L139.491 283.563
L139.491 282.964
L140.962 282.964
L141.073 281.767
L141.344 281.767
L141.344 281.168
L141.483 281.168
L141.542 279.971
L141.798 279.971
L141.798 279.372
L142.653 279.372
L142.653 278.774
L143.111 278.774
L143.111 278.175
L144.82 278.175
L144.82 277.576
L145.675 277.576
L145.748 276.379
L145.826 276.379
L145.826 275.781
L146.214 275.781
L146.214 275.182
L146.546 275.182
L146.615 273.386
L147.084 273.386
L147.084 272.787
L147.786 272.787
L147.786 272.189
L148.07 272.189
L148.07 271.59
L148.603 271.59
L148.603 270.991
L148.848 270.991
L148.875 269.794
L149.483 269.794
L149.483 269.196
L149.906 269.196
L149.998 267.4
L150.16 267.4
L150.16 266.801
L150.447 266.801
L150.447 266.202
L150.638 266.202
L150.638 265.604
L150.913 265.604
L150.925 264.407
L151.229 264.407
L151.314 262.012
L151.497 262.012
L151.497 261.413
L151.795 261.413
L151.807 260.216
L151.924 260.216
L151.964 259.019
L152.067 259.019
L152.067 258.42
L152.295 258.42
L152.365 256.624
L152.485 256.624
L152.534 255.427
L152.698 255.427
L152.698 254.829
L152.865 254.829
L152.935 253.033
L153.266 253.033
L153.377 251.237
L153.536 251.237
L153.573 250.039
L153.648 250.039
L153.693 248.842
L153.787 248.842
L153.846 247.645
L154.106 247.645
L154.106 247.046
L154.352 247.046
L154.352 246.448
L154.624 246.448
L154.624 245.849
L154.922 245.849
L154.922 245.25
L155.194 245.25
L155.194 244.652
L155.337 244.652
L155.415 243.455
L155.624 243.455
L155.624 242.856
L156.388 242.856
L156.388 242.257
L156.506 242.257
L156.506 241.659
L156.623 241.659
L156.675 240.461
L156.759 240.461
L156.759 239.863
L156.957 239.863
L156.957 239.264
L157.226 239.264
L157.244 238.067
L157.397 238.067
L157.397 237.468
L157.549 237.468
L157.627 234.475
L157.674 234.475
L157.674 233.877
L158.127 233.877
L158.127 233.278
L158.244 233.278
L158.244 232.679
L158.448 232.679
L158.448 232.081
L158.798 232.081
L158.798 231.482
L158.962 231.482
L159.017 230.285
L159.135 230.285
L159.135 229.686
L159.385 229.686
L159.478 227.292
L159.614 227.292
L159.639 226.094
L159.886 226.094
L159.99 224.897
L160.708 224.897
L160.708 224.298
L161.274 224.298
L161.274 223.7
L161.65 223.7
L161.65 223.101
L161.937 223.101
L161.937 222.503
L162.745 222.503
L162.856 220.707
L162.936 220.707
L162.936 220.108
L163.127 220.108
L163.164 218.911
L163.266 218.911
L163.325 217.714
L163.71 217.714
L163.71 217.115
L164.894 217.115
L164.894 216.516
L168.867 216.516
L168.867 215.918
L172.512 215.918
L172.512 215.319
L172.979 215.319
L172.979 214.72
L173.31 214.72
L173.38 212.925
L173.86 212.925
L173.86 212.326
L174.551 212.326
L174.551 211.727
L175.182 211.727
L175.273 210.53
L175.367 210.53
L175.367 209.931
L175.639 209.931
L175.724 207.537
L175.788 207.537
L175.788 206.938
L175.95 206.938
L175.95 206.34
L176.072 206.34
L176.072 205.741
L176.595 205.741
L176.595 205.142
L177.018 205.142
L177.111 201.551
L177.137 201.551
L177.137 200.952
L177.272 200.952
L177.272 200.353
L177.402 200.353
L177.485 199.156
L177.56 199.156
L177.652 196.762
L177.689 196.762
L177.689 196.163
L177.814 196.163
L177.907 194.367
L178 194.367
L178 193.768
L178.162 193.768
L178.162 193.17
L178.341 193.17
L178.341 192.571
L178.453 192.571
L178.52 191.374
L178.572 191.374
L178.572 190.775
L178.689 190.775
L178.689 190.177
L178.875 190.177
L178.968 185.986
L179.035 185.986
L179.13 184.19
L179.167 184.19
L179.231 182.395
L179.437 182.395
L179.462 180.599
L179.577 180.599
L179.636 179.401
L179.797 179.401
L179.797 178.803
L180.199 178.803
L180.266 177.605
L180.378 177.605
L180.489 176.408
L180.76 176.408
L180.832 174.612
L180.899 174.612
L180.958 172.816
L181.031 172.816
L181.031 172.218
L181.205 172.218
L181.302 170.422
L181.379 170.422
L181.441 169.225
L181.5 169.225
L181.5 168.626
L181.649 168.626
L181.649 168.027
L181.788 168.027
L181.848 166.83
L182.236 166.83
L182.347 165.034
L182.414 165.034
L182.414 164.436
L182.527 164.436
L182.618 163.238
L182.685 163.238
L182.757 162.041
L182.816 162.041
L182.883 160.245
L183.069 160.245
L183.069 159.647
L183.417 159.647
L183.417 159.048
L184.385 159.048
L184.452 157.851
L185.178 157.851
L185.178 157.252
L186.5 157.252
L186.5 156.654
L187.042 156.654
L187.042 156.055
L187.389 156.055
L187.389 155.456
L188.358 155.456
L188.425 154.259
L189.319 154.259
L189.319 153.66
L189.786 153.66
L189.786 153.062
L190.118 153.062
L190.187 151.266
L190.982 151.266
L190.982 150.667
L191.358 150.667
L191.449 149.47
L191.781 149.47
L191.85 147.674
L192.175 147.674
L192.225 146.477
L192.446 146.477
L192.446 145.878
L192.692 145.878
L192.692 145.28
L193.021 145.28
L193.093 142.885
L193.837 142.885
L193.837 142.286
L194.109 142.286
L194.21 141.089
L194.264 141.089
L194.264 140.491
L194.497 140.491
L194.497 139.892
L195.08 139.892
L195.08 139.293
L195.352 139.293
L195.379 138.096
L195.496 138.096
L195.496 137.497
L195.873 137.497
L195.873 136.899
L196.16 136.899
L196.27 135.702
L197.042 135.702
L197.115 134.504
L197.159 134.504
L197.159 133.906
L197.403 133.906
L197.403 133.307
L197.933 133.307
L197.933 132.708
L198.285 132.708
L198.285 132.11
L198.402 132.11
L198.402 131.511
L199.175 131.511
L199.175 130.912
L219.622 130.912
L219.622 130.314
L224.321 130.314
L224.321 129.715
L225.372 129.715
L225.372 129.117
L225.942 129.117
L225.942 128.518
L230.634 128.518
L230.634 127.919
L246.387 127.919
L246.387 127.321
L263.194 127.321
L263.194 126.722
L264.857 126.722
L264.857 126.123
L266.1 126.123
L266.1 125.525
L278.035 125.525
L278.035 124.926
L279.448 124.926
L279.448 124.328
L279.87 124.328
L279.963 122.532
L280.124 122.532
L280.124 121.933
L281.194 121.933
L281.194 121.334
L281.76 121.334
L281.76 120.736
L283.231 120.736
L283.342 119.539
L283.612 119.539
L283.612 118.94
L283.751 118.94
L283.811 117.743
L285.38 117.743
L285.38 117.144
L287.461 117.144
L287.461 116.545
L288.874 116.545
L288.874 115.947
L289.296 115.947
L289.389 113.552
L289.551 113.552
L289.551 112.954
L290.62 112.954
L290.62 112.355
L291.186 112.355
L291.186 111.756
L291.708 111.756
L291.708 111.158
L292.657 111.158
L292.768 109.961
L293.038 109.961
L293.121 108.763
L293.178 108.763
L293.237 107.566
L293.543 107.566
L293.636 105.77
L293.797 105.77
L293.797 105.171
L294.806 105.171
L294.867 103.974
L295.432 103.974
L295.432 103.376
L296.903 103.376
L297.015 102.178
L297.285 102.178
L297.285 101.58
L297.424 101.58
L297.484 100.382
L297.713 100.382
L297.713 99.7838
L298.18 99.7838
L298.18 99.1852
L298.511 99.1852
L298.581 97.3893
L298.779 97.3893
L298.779 96.7907
L299.053 96.7907
L299.053 96.1921
L299.424 96.1921
L299.424 95.5934
L299.609 95.5934
L299.609 94.9948
L299.752 94.9948
L299.752 94.3962
L300.568 94.3962
L300.568 93.7975
L300.788 93.7975
L300.84 92.6003
L301.022 92.6003
L301.022 92.0017
L301.444 92.0017
L301.537 90.2058
L301.699 90.2058
L301.699 89.6072
L302.201 89.6072
L302.201 89.0085
L302.603 89.0085
L302.623 87.2126
L302.716 87.2126
L302.768 86.0154
L302.878 86.0154
L302.942 84.2195
L303.025 84.2195
L303.104 83.0222
L303.334 83.0222
L303.334 82.4236
L303.571 82.4236
L303.571 81.825
L303.773 81.825
L303.773 81.2264
L303.89 81.2264
L303.972 78.2332
L304.189 78.2332
L304.189 77.6346
L304.355 77.6346
L304.355 77.036
L304.513 77.036
L304.513 76.4373
L304.656 76.4373
L304.663 75.2401
L304.777 75.2401
L304.87 72.2469
L304.916 72.2469
L304.993 70.451
L305.031 70.451
L305.057 69.2538
L305.143 69.2538
L305.186 68.0565
L305.325 68.0565
L305.385 66.8593
L305.722 66.8593
L305.722 66.2607
L305.959 66.2607
L305.984 65.0634
L306.095 65.0634
L306.101 63.8661
L306.228 63.8661
L306.231 62.6689
L306.365 62.6689
L306.365 62.0703
L306.504 62.0703
L306.564 60.873
L306.666 60.873
L306.666 60.2744
L306.954 60.2744
L307.044 59.0771
L307.316 59.0771
L307.316 58.4785
L307.995 58.4785
L307.995 57.8799
L308.133 57.8799
L308.138 56.6826
L308.249 56.6826
L308.282 55.4853
L308.519 55.4853
L308.519 54.8867
L308.658 54.8867
L308.718 53.6895
L308.895 53.6895
L308.895 53.0908
L309.079 53.0908
L309.164 51.8936
L309.281 51.8936
L309.366 50.6963
L310.055 50.6963
L310.055 50.0977
L310.249 50.0977
L310.287 48.9004
L310.366 48.9004
L310.366 48.3018
L310.926 48.3018
L310.926 47.7032
L311.139 47.7032
L311.139 47.1046
L312.105 47.1046
L312.105 46.5059
L314.259 46.5059
L314.259 45.9073
L371.588 45.9073
L371.588 45.3087
L376.979 45.3087
L376.979 44.71
L378.064 44.71
L378.064 44.1114
L481.956 44.1114
L481.956 44.1114" style="fill:none;stroke:#00bfbf;stroke-linecap:square;stroke-width:3.0;"/>
   </g>
   <g id="line2d_4"/>
   <g id="line2d_5">
    <path clip-path="url(#p96d9120af0)" d="
M35.5563 82.8492
L160.204 82.8492
L160.204 81.2434
L160.577 81.2434
L160.577 79.6376
L161.547 79.6376
L161.547 78.0318
L174.503 78.0318
L174.503 76.426
L174.875 76.426
L174.875 74.8202
L175.846 74.8202
L175.846 73.2144
L308.143 73.2144
L308.143 71.6086
L308.716 71.6086
L308.716 70.0028
L309.112 70.0028
L309.112 68.397
L309.593 68.397
L309.593 66.7912
L310.292 66.7912
L310.292 65.1854
L310.639 65.1854
L310.639 63.5796
L311.47 63.5796
L311.47 61.9738
L313.33 61.9738
L313.33 60.368
L481.956 60.368" style="fill:none;stroke:#bf00bf;stroke-linecap:square;stroke-width:3.0;"/>
   </g>
   <g id="line2d_6"/>
   <g id="line2d_7">
    <path clip-path="url(#p96d9120af0)" d="
M35.6009 10.5882
L35.5563 10.5882
L481.956 10.5882
L495.469 10.5882" style="fill:none;stroke:#ff0000;stroke-linecap:square;stroke-width:3.0;"/>
   </g>
   <g id="line2d_8">
    <path clip-path="url(#p96d9120af0)" d="
M258.756 352.8
L258.756 7.2" style="fill:none;stroke:#000000;stroke-linecap:square;"/>
   </g>
   <g id="line2d_9">
    <path clip-path="url(#p96d9120af0)" d="
M35.5563 180
L481.956 180" style="fill:none;stroke:#000000;stroke-dasharray:1.000000,3.000000;stroke-dashoffset:0.0;stroke-width:2;"/>
   </g>
   <g id="matplotlib.axis_1">
    <g id="xtick_1">
     <g id="line2d_10">
      <path clip-path="url(#p96d9120af0)" d="
M35.5563 352.8
L35.5563 7.2" style="fill:none;stroke:#000000;stroke-dasharray:1.000000,3.000000;stroke-dashoffset:0.0;stroke-width:0.5;"/>
     </g>
     <g id="line2d_11">
      <defs>
       <path d="
M0 0
L0 -4" id="m93b0483c22" style="stroke:#000000;stroke-width:0.5;"/>
      </defs>
      <g>
       <use style="stroke:#000000;stroke-width:0.5;" x="35.55625" xlink:href="#m93b0483c22" y="352.8"/>
      </g>
     </g>
     <g id="line2d_12">
      <defs>
       <path d="
M0 0
L0 4" id="m741efc42ff" style="stroke:#000000;stroke-width:0.5;"/>
      </defs>
      <g>
       <use style="stroke:#000000;stroke-width:0.5;" x="35.55625" xlink:href="#m741efc42ff" y="7.2"/>
      </g>
     </g>
     <g id="text_1">
      <!-- -4 -->
      <defs>
       <path d="
M4.89062 31.3906
L31.2031 31.3906
L31.2031 23.3906
L4.89062 23.3906
z
" id="BitstreamVeraSans-Roman-2d"/>
       <path d="
M37.7969 64.3125
L12.8906 25.3906
L37.7969 25.3906
z

M35.2031 72.9062
L47.6094 72.9062
L47.6094 25.3906
L58.0156 25.3906
L58.0156 17.1875
L47.6094 17.1875
L47.6094 0
L37.7969 0
L37.7969 17.1875
L4.89062 17.1875
L4.89062 26.7031
z
" id="BitstreamVeraSans-Roman-34"/>
      </defs>
      <g transform="translate(26.6359375 371.996875)scale(0.2 -0.2)">
       <use xlink:href="#BitstreamVeraSans-Roman-2d"/>
       <use x="36.083984375" xlink:href="#BitstreamVeraSans-Roman-34"/>
      </g>
     </g>
    </g>
    <g id="xtick_2">
     <g id="line2d_13">
      <path clip-path="url(#p96d9120af0)" d="
M91.3562 352.8
L91.3562 7.2" style="fill:none;stroke:#000000;stroke-dasharray:1.000000,3.000000;stroke-dashoffset:0.0;stroke-width:0.5;"/>
     </g>
     <g id="line2d_14">
      <g>
       <use style="stroke:#000000;stroke-width:0.5;" x="91.35625" xlink:href="#m93b0483c22" y="352.8"/>
      </g>
     </g>
     <g id="line2d_15">
      <g>
       <use style="stroke:#000000;stroke-width:0.5;" x="91.35625" xlink:href="#m741efc42ff" y="7.2"/>
      </g>
     </g>
     <g id="text_2">
      <!-- -3 -->
      <defs>
       <path d="
M40.5781 39.3125
Q47.6562 37.7969 51.625 33
Q55.6094 28.2188 55.6094 21.1875
Q55.6094 10.4062 48.1875 4.48438
Q40.7656 -1.42188 27.0938 -1.42188
Q22.5156 -1.42188 17.6562 -0.515625
Q12.7969 0.390625 7.625 2.20312
L7.625 11.7188
Q11.7188 9.32812 16.5938 8.10938
Q21.4844 6.89062 26.8125 6.89062
Q36.0781 6.89062 40.9375 10.5469
Q45.7969 14.2031 45.7969 21.1875
Q45.7969 27.6406 41.2812 31.2656
Q36.7656 34.9062 28.7188 34.9062
L20.2188 34.9062
L20.2188 43.0156
L29.1094 43.0156
Q36.375 43.0156 40.2344 45.9219
Q44.0938 48.8281 44.0938 54.2969
Q44.0938 59.9062 40.1094 62.9062
Q36.1406 65.9219 28.7188 65.9219
Q24.6562 65.9219 20.0156 65.0312
Q15.375 64.1562 9.8125 62.3125
L9.8125 71.0938
Q15.4375 72.6562 20.3438 73.4375
Q25.25 74.2188 29.5938 74.2188
Q40.8281 74.2188 47.3594 69.1094
Q53.9062 64.0156 53.9062 55.3281
Q53.9062 49.2656 50.4375 45.0938
Q46.9688 40.9219 40.5781 39.3125" id="BitstreamVeraSans-Roman-33"/>
      </defs>
      <g transform="translate(82.6765625 371.996875)scale(0.2 -0.2)">
       <use xlink:href="#BitstreamVeraSans-Roman-2d"/>
       <use x="36.083984375" xlink:href="#BitstreamVeraSans-Roman-33"/>
      </g>
     </g>
    </g>
    <g id="xtick_3">
     <g id="line2d_16">
      <path clip-path="url(#p96d9120af0)" d="
M147.156 352.8
L147.156 7.2" style="fill:none;stroke:#000000;stroke-dasharray:1.000000,3.000000;stroke-dashoffset:0.0;stroke-width:0.5;"/>
     </g>
     <g id="line2d_17">
      <g>
       <use style="stroke:#000000;stroke-width:0.5;" x="147.15625" xlink:href="#m93b0483c22" y="352.8"/>
      </g>
     </g>
     <g id="line2d_18">
      <g>
       <use style="stroke:#000000;stroke-width:0.5;" x="147.15625" xlink:href="#m741efc42ff" y="7.2"/>
      </g>
     </g>
     <g id="text_3">
      <!-- -2 -->
      <defs>
       <path d="
M19.1875 8.29688
L53.6094 8.29688
L53.6094 0
L7.32812 0
L7.32812 8.29688
Q12.9375 14.1094 22.625 23.8906
Q32.3281 33.6875 34.8125 36.5312
Q39.5469 41.8438 41.4219 45.5312
Q43.3125 49.2188 43.3125 52.7812
Q43.3125 58.5938 39.2344 62.25
Q35.1562 65.9219 28.6094 65.9219
Q23.9688 65.9219 18.8125 64.3125
Q13.6719 62.7031 7.8125 59.4219
L7.8125 69.3906
Q13.7656 71.7812 18.9375 73
Q24.125 74.2188 28.4219 74.2188
Q39.75 74.2188 46.4844 68.5469
Q53.2188 62.8906 53.2188 53.4219
Q53.2188 48.9219 51.5312 44.8906
Q49.8594 40.875 45.4062 35.4062
Q44.1875 33.9844 37.6406 27.2188
Q31.1094 20.4531 19.1875 8.29688" id="BitstreamVeraSans-Roman-32"/>
      </defs>
      <g transform="translate(138.6765625 371.996875)scale(0.2 -0.2)">
       <use xlink:href="#BitstreamVeraSans-Roman-2d"/>
       <use x="36.083984375" xlink:href="#BitstreamVeraSans-Roman-32"/>
      </g>
     </g>
    </g>
    <g id="xtick_4">
     <g id="line2d_19">
      <path clip-path="url(#p96d9120af0)" d="
M202.956 352.8
L202.956 7.2" style="fill:none;stroke:#000000;stroke-dasharray:1.000000,3.000000;stroke-dashoffset:0.0;stroke-width:0.5;"/>
     </g>
     <g id="line2d_20">
      <g>
       <use style="stroke:#000000;stroke-width:0.5;" x="202.95625" xlink:href="#m93b0483c22" y="352.8"/>
      </g>
     </g>
     <g id="line2d_21">
      <g>
       <use style="stroke:#000000;stroke-width:0.5;" x="202.95625" xlink:href="#m741efc42ff" y="7.2"/>
      </g>
     </g>
     <g id="text_4">
      <!-- -1 -->
      <defs>
       <path d="
M12.4062 8.29688
L28.5156 8.29688
L28.5156 63.9219
L10.9844 60.4062
L10.9844 69.3906
L28.4219 72.9062
L38.2812 72.9062
L38.2812 8.29688
L54.3906 8.29688
L54.3906 0
L12.4062 0
z
" id="BitstreamVeraSans-Roman-31"/>
      </defs>
      <g transform="translate(194.3984375 371.996875)scale(0.2 -0.2)">
       <use xlink:href="#BitstreamVeraSans-Roman-2d"/>
       <use x="36.083984375" xlink:href="#BitstreamVeraSans-Roman-31"/>
      </g>
     </g>
    </g>
    <g id="xtick_5">
     <g id="line2d_22">
      <path clip-path="url(#p96d9120af0)" d="
M258.756 352.8
L258.756 7.2" style="fill:none;stroke:#000000;stroke-dasharray:1.000000,3.000000;stroke-dashoffset:0.0;stroke-width:0.5;"/>
     </g>
     <g id="line2d_23">
      <g>
       <use style="stroke:#000000;stroke-width:0.5;" x="258.75625" xlink:href="#m93b0483c22" y="352.8"/>
      </g>
     </g>
     <g id="line2d_24">
      <g>
       <use style="stroke:#000000;stroke-width:0.5;" x="258.75625" xlink:href="#m741efc42ff" y="7.2"/>
      </g>
     </g>
     <g id="text_5">
      <!-- 0 -->
      <defs>
       <path d="
M31.7812 66.4062
Q24.1719 66.4062 20.3281 58.9062
Q16.5 51.4219 16.5 36.375
Q16.5 21.3906 20.3281 13.8906
Q24.1719 6.39062 31.7812 6.39062
Q39.4531 6.39062 43.2812 13.8906
Q47.125 21.3906 47.125 36.375
Q47.125 51.4219 43.2812 58.9062
Q39.4531 66.4062 31.7812 66.4062
M31.7812 74.2188
Q44.0469 74.2188 50.5156 64.5156
Q56.9844 54.8281 56.9844 36.375
Q56.9844 17.9688 50.5156 8.26562
Q44.0469 -1.42188 31.7812 -1.42188
Q19.5312 -1.42188 13.0625 8.26562
Q6.59375 17.9688 6.59375 36.375
Q6.59375 54.8281 13.0625 64.5156
Q19.5312 74.2188 31.7812 74.2188" id="BitstreamVeraSans-Roman-30"/>
      </defs>
      <g transform="translate(253.7171875 371.996875)scale(0.2 -0.2)">
       <use xlink:href="#BitstreamVeraSans-Roman-30"/>
      </g>
     </g>
    </g>
    <g id="xtick_6">
     <g id="line2d_25">
      <path clip-path="url(#p96d9120af0)" d="
M314.556 352.8
L314.556 7.2" style="fill:none;stroke:#000000;stroke-dasharray:1.000000,3.000000;stroke-dashoffset:0.0;stroke-width:0.5;"/>
     </g>
     <g id="line2d_26">
      <g>
       <use style="stroke:#000000;stroke-width:0.5;" x="314.55625" xlink:href="#m93b0483c22" y="352.8"/>
      </g>
     </g>
     <g id="line2d_27">
      <g>
       <use style="stroke:#000000;stroke-width:0.5;" x="314.55625" xlink:href="#m741efc42ff" y="7.2"/>
      </g>
     </g>
     <g id="text_6">
      <!-- 1 -->
      <g transform="translate(310.215625 371.996875)scale(0.2 -0.2)">
       <use xlink:href="#BitstreamVeraSans-Roman-31"/>
      </g>
     </g>
    </g>
    <g id="xtick_7">
     <g id="line2d_28">
      <path clip-path="url(#p96d9120af0)" d="
M370.356 352.8
L370.356 7.2" style="fill:none;stroke:#000000;stroke-dasharray:1.000000,3.000000;stroke-dashoffset:0.0;stroke-width:0.5;"/>
     </g>
     <g id="line2d_29">
      <g>
       <use style="stroke:#000000;stroke-width:0.5;" x="370.35625" xlink:href="#m93b0483c22" y="352.8"/>
      </g>
     </g>
     <g id="line2d_30">
      <g>
       <use style="stroke:#000000;stroke-width:0.5;" x="370.35625" xlink:href="#m741efc42ff" y="7.2"/>
      </g>
     </g>
     <g id="text_7">
      <!-- 2 -->
      <g transform="translate(365.728125 371.996875)scale(0.2 -0.2)">
       <use xlink:href="#BitstreamVeraSans-Roman-32"/>
      </g>
     </g>
    </g>
    <g id="xtick_8">
     <g id="line2d_31">
      <path clip-path="url(#p96d9120af0)" d="
M426.156 352.8
L426.156 7.2" style="fill:none;stroke:#000000;stroke-dasharray:1.000000,3.000000;stroke-dashoffset:0.0;stroke-width:0.5;"/>
     </g>
     <g id="line2d_32">
      <g>
       <use style="stroke:#000000;stroke-width:0.5;" x="426.15625" xlink:href="#m93b0483c22" y="352.8"/>
      </g>
     </g>
     <g id="line2d_33">
      <g>
       <use style="stroke:#000000;stroke-width:0.5;" x="426.15625" xlink:href="#m741efc42ff" y="7.2"/>
      </g>
     </g>
     <g id="text_8">
      <!-- 3 -->
      <g transform="translate(421.3578125 371.996875)scale(0.2 -0.2)">
       <use xlink:href="#BitstreamVeraSans-Roman-33"/>
      </g>
     </g>
    </g>
    <g id="xtick_9">
     <g id="line2d_34">
      <path clip-path="url(#p96d9120af0)" d="
M481.956 352.8
L481.956 7.2" style="fill:none;stroke:#000000;stroke-dasharray:1.000000,3.000000;stroke-dashoffset:0.0;stroke-width:0.5;"/>
     </g>
     <g id="line2d_35">
      <g>
       <use style="stroke:#000000;stroke-width:0.5;" x="481.95625" xlink:href="#m93b0483c22" y="352.8"/>
      </g>
     </g>
     <g id="line2d_36">
      <g>
       <use style="stroke:#000000;stroke-width:0.5;" x="481.95625" xlink:href="#m741efc42ff" y="7.2"/>
      </g>
     </g>
     <g id="text_9">
      <!-- 4 -->
      <g transform="translate(476.64375 371.996875)scale(0.2 -0.2)">
       <use xlink:href="#BitstreamVeraSans-Roman-34"/>
      </g>
     </g>
    </g>
    <g id="xtick_10">
     <g id="line2d_37">
      <defs>
       <path d="
M0 0
L0 -2" id="m177f7580d0" style="stroke:#000000;stroke-width:0.5;"/>
      </defs>
      <g>
       <use style="stroke:#000000;stroke-width:0.5;" x="40.9638287258" xlink:href="#m177f7580d0" y="352.8"/>
      </g>
     </g>
     <g id="line2d_38">
      <defs>
       <path d="
M0 0
L0 2" id="m5284c7e2a0" style="stroke:#000000;stroke-width:0.5;"/>
      </defs>
      <g>
       <use style="stroke:#000000;stroke-width:0.5;" x="40.9638287258" xlink:href="#m5284c7e2a0" y="7.2"/>
      </g>
     </g>
    </g>
    <g id="xtick_11">
     <g id="line2d_39">
      <g>
       <use style="stroke:#000000;stroke-width:0.5;" x="47.9354102286" xlink:href="#m177f7580d0" y="352.8"/>
      </g>
     </g>
     <g id="line2d_40">
      <g>
       <use style="stroke:#000000;stroke-width:0.5;" x="47.9354102286" xlink:href="#m5284c7e2a0" y="7.2"/>
      </g>
     </g>
    </g>
    <g id="xtick_12">
     <g id="line2d_41">
      <g>
       <use style="stroke:#000000;stroke-width:0.5;" x="57.7613024839" xlink:href="#m177f7580d0" y="352.8"/>
      </g>
     </g>
     <g id="line2d_42">
      <g>
       <use style="stroke:#000000;stroke-width:0.5;" x="57.7613024839" xlink:href="#m5284c7e2a0" y="7.2"/>
      </g>
     </g>
    </g>
    <g id="xtick_13">
     <g id="line2d_43">
      <g>
       <use style="stroke:#000000;stroke-width:0.5;" x="74.5587762419" xlink:href="#m177f7580d0" y="352.8"/>
      </g>
     </g>
     <g id="line2d_44">
      <g>
       <use style="stroke:#000000;stroke-width:0.5;" x="74.5587762419" xlink:href="#m5284c7e2a0" y="7.2"/>
      </g>
     </g>
    </g>
    <g id="xtick_14">
     <g id="line2d_45">
      <g>
       <use style="stroke:#000000;stroke-width:0.5;" x="96.7638287258" xlink:href="#m177f7580d0" y="352.8"/>
      </g>
     </g>
     <g id="line2d_46">
      <g>
       <use style="stroke:#000000;stroke-width:0.5;" x="96.7638287258" xlink:href="#m5284c7e2a0" y="7.2"/>
      </g>
     </g>
    </g>
    <g id="xtick_15">
     <g id="line2d_47">
      <g>
       <use style="stroke:#000000;stroke-width:0.5;" x="103.735410229" xlink:href="#m177f7580d0" y="352.8"/>
      </g>
     </g>
     <g id="line2d_48">
      <g>
       <use style="stroke:#000000;stroke-width:0.5;" x="103.735410229" xlink:href="#m5284c7e2a0" y="7.2"/>
      </g>
     </g>
    </g>
    <g id="xtick_16">
     <g id="line2d_49">
      <g>
       <use style="stroke:#000000;stroke-width:0.5;" x="113.561302484" xlink:href="#m177f7580d0" y="352.8"/>
      </g>
     </g>
     <g id="line2d_50">
      <g>
       <use style="stroke:#000000;stroke-width:0.5;" x="113.561302484" xlink:href="#m5284c7e2a0" y="7.2"/>
      </g>
     </g>
    </g>
    <g id="xtick_17">
     <g id="line2d_51">
      <g>
       <use style="stroke:#000000;stroke-width:0.5;" x="130.358776242" xlink:href="#m177f7580d0" y="352.8"/>
      </g>
     </g>
     <g id="line2d_52">
      <g>
       <use style="stroke:#000000;stroke-width:0.5;" x="130.358776242" xlink:href="#m5284c7e2a0" y="7.2"/>
      </g>
     </g>
    </g>
    <g id="xtick_18">
     <g id="line2d_53">
      <g>
       <use style="stroke:#000000;stroke-width:0.5;" x="152.563828726" xlink:href="#m177f7580d0" y="352.8"/>
      </g>
     </g>
     <g id="line2d_54">
      <g>
       <use style="stroke:#000000;stroke-width:0.5;" x="152.563828726" xlink:href="#m5284c7e2a0" y="7.2"/>
      </g>
     </g>
    </g>
    <g id="xtick_19">
     <g id="line2d_55">
      <g>
       <use style="stroke:#000000;stroke-width:0.5;" x="159.535410229" xlink:href="#m177f7580d0" y="352.8"/>
      </g>
     </g>
     <g id="line2d_56">
      <g>
       <use style="stroke:#000000;stroke-width:0.5;" x="159.535410229" xlink:href="#m5284c7e2a0" y="7.2"/>
      </g>
     </g>
    </g>
    <g id="xtick_20">
     <g id="line2d_57">
      <g>
       <use style="stroke:#000000;stroke-width:0.5;" x="169.361302484" xlink:href="#m177f7580d0" y="352.8"/>
      </g>
     </g>
     <g id="line2d_58">
      <g>
       <use style="stroke:#000000;stroke-width:0.5;" x="169.361302484" xlink:href="#m5284c7e2a0" y="7.2"/>
      </g>
     </g>
    </g>
    <g id="xtick_21">
     <g id="line2d_59">
      <g>
       <use style="stroke:#000000;stroke-width:0.5;" x="186.158776242" xlink:href="#m177f7580d0" y="352.8"/>
      </g>
     </g>
     <g id="line2d_60">
      <g>
       <use style="stroke:#000000;stroke-width:0.5;" x="186.158776242" xlink:href="#m5284c7e2a0" y="7.2"/>
      </g>
     </g>
    </g>
    <g id="xtick_22">
     <g id="line2d_61">
      <g>
       <use style="stroke:#000000;stroke-width:0.5;" x="208.363828726" xlink:href="#m177f7580d0" y="352.8"/>
      </g>
     </g>
     <g id="line2d_62">
      <g>
       <use style="stroke:#000000;stroke-width:0.5;" x="208.363828726" xlink:href="#m5284c7e2a0" y="7.2"/>
      </g>
     </g>
    </g>
    <g id="xtick_23">
     <g id="line2d_63">
      <g>
       <use style="stroke:#000000;stroke-width:0.5;" x="215.335410229" xlink:href="#m177f7580d0" y="352.8"/>
      </g>
     </g>
     <g id="line2d_64">
      <g>
       <use style="stroke:#000000;stroke-width:0.5;" x="215.335410229" xlink:href="#m5284c7e2a0" y="7.2"/>
      </g>
     </g>
    </g>
    <g id="xtick_24">
     <g id="line2d_65">
      <g>
       <use style="stroke:#000000;stroke-width:0.5;" x="225.161302484" xlink:href="#m177f7580d0" y="352.8"/>
      </g>
     </g>
     <g id="line2d_66">
      <g>
       <use style="stroke:#000000;stroke-width:0.5;" x="225.161302484" xlink:href="#m5284c7e2a0" y="7.2"/>
      </g>
     </g>
    </g>
    <g id="xtick_25">
     <g id="line2d_67">
      <g>
       <use style="stroke:#000000;stroke-width:0.5;" x="241.958776242" xlink:href="#m177f7580d0" y="352.8"/>
      </g>
     </g>
     <g id="line2d_68">
      <g>
       <use style="stroke:#000000;stroke-width:0.5;" x="241.958776242" xlink:href="#m5284c7e2a0" y="7.2"/>
      </g>
     </g>
    </g>
    <g id="xtick_26">
     <g id="line2d_69">
      <g>
       <use style="stroke:#000000;stroke-width:0.5;" x="275.553723758" xlink:href="#m177f7580d0" y="352.8"/>
      </g>
     </g>
     <g id="line2d_70">
      <g>
       <use style="stroke:#000000;stroke-width:0.5;" x="275.553723758" xlink:href="#m5284c7e2a0" y="7.2"/>
      </g>
     </g>
    </g>
    <g id="xtick_27">
     <g id="line2d_71">
      <g>
       <use style="stroke:#000000;stroke-width:0.5;" x="292.351197516" xlink:href="#m177f7580d0" y="352.8"/>
      </g>
     </g>
     <g id="line2d_72">
      <g>
       <use style="stroke:#000000;stroke-width:0.5;" x="292.351197516" xlink:href="#m5284c7e2a0" y="7.2"/>
      </g>
     </g>
    </g>
    <g id="xtick_28">
     <g id="line2d_73">
      <g>
       <use style="stroke:#000000;stroke-width:0.5;" x="302.177089771" xlink:href="#m177f7580d0" y="352.8"/>
      </g>
     </g>
     <g id="line2d_74">
      <g>
       <use style="stroke:#000000;stroke-width:0.5;" x="302.177089771" xlink:href="#m5284c7e2a0" y="7.2"/>
      </g>
     </g>
    </g>
    <g id="xtick_29">
     <g id="line2d_75">
      <g>
       <use style="stroke:#000000;stroke-width:0.5;" x="309.148671274" xlink:href="#m177f7580d0" y="352.8"/>
      </g>
     </g>
     <g id="line2d_76">
      <g>
       <use style="stroke:#000000;stroke-width:0.5;" x="309.148671274" xlink:href="#m5284c7e2a0" y="7.2"/>
      </g>
     </g>
    </g>
    <g id="xtick_30">
     <g id="line2d_77">
      <g>
       <use style="stroke:#000000;stroke-width:0.5;" x="331.353723758" xlink:href="#m177f7580d0" y="352.8"/>
      </g>
     </g>
     <g id="line2d_78">
      <g>
       <use style="stroke:#000000;stroke-width:0.5;" x="331.353723758" xlink:href="#m5284c7e2a0" y="7.2"/>
      </g>
     </g>
    </g>
    <g id="xtick_31">
     <g id="line2d_79">
      <g>
       <use style="stroke:#000000;stroke-width:0.5;" x="348.151197516" xlink:href="#m177f7580d0" y="352.8"/>
      </g>
     </g>
     <g id="line2d_80">
      <g>
       <use style="stroke:#000000;stroke-width:0.5;" x="348.151197516" xlink:href="#m5284c7e2a0" y="7.2"/>
      </g>
     </g>
    </g>
    <g id="xtick_32">
     <g id="line2d_81">
      <g>
       <use style="stroke:#000000;stroke-width:0.5;" x="357.977089771" xlink:href="#m177f7580d0" y="352.8"/>
      </g>
     </g>
     <g id="line2d_82">
      <g>
       <use style="stroke:#000000;stroke-width:0.5;" x="357.977089771" xlink:href="#m5284c7e2a0" y="7.2"/>
      </g>
     </g>
    </g>
    <g id="xtick_33">
     <g id="line2d_83">
      <g>
       <use style="stroke:#000000;stroke-width:0.5;" x="364.948671274" xlink:href="#m177f7580d0" y="352.8"/>
      </g>
     </g>
     <g id="line2d_84">
      <g>
       <use style="stroke:#000000;stroke-width:0.5;" x="364.948671274" xlink:href="#m5284c7e2a0" y="7.2"/>
      </g>
     </g>
    </g>
    <g id="xtick_34">
     <g id="line2d_85">
      <g>
       <use style="stroke:#000000;stroke-width:0.5;" x="387.153723758" xlink:href="#m177f7580d0" y="352.8"/>
      </g>
     </g>
     <g id="line2d_86">
      <g>
       <use style="stroke:#000000;stroke-width:0.5;" x="387.153723758" xlink:href="#m5284c7e2a0" y="7.2"/>
      </g>
     </g>
    </g>
    <g id="xtick_35">
     <g id="line2d_87">
      <g>
       <use style="stroke:#000000;stroke-width:0.5;" x="403.951197516" xlink:href="#m177f7580d0" y="352.8"/>
      </g>
     </g>
     <g id="line2d_88">
      <g>
       <use style="stroke:#000000;stroke-width:0.5;" x="403.951197516" xlink:href="#m5284c7e2a0" y="7.2"/>
      </g>
     </g>
    </g>
    <g id="xtick_36">
     <g id="line2d_89">
      <g>
       <use style="stroke:#000000;stroke-width:0.5;" x="413.777089771" xlink:href="#m177f7580d0" y="352.8"/>
      </g>
     </g>
     <g id="line2d_90">
      <g>
       <use style="stroke:#000000;stroke-width:0.5;" x="413.777089771" xlink:href="#m5284c7e2a0" y="7.2"/>
      </g>
     </g>
    </g>
    <g id="xtick_37">
     <g id="line2d_91">
      <g>
       <use style="stroke:#000000;stroke-width:0.5;" x="420.748671274" xlink:href="#m177f7580d0" y="352.8"/>
      </g>
     </g>
     <g id="line2d_92">
      <g>
       <use style="stroke:#000000;stroke-width:0.5;" x="420.748671274" xlink:href="#m5284c7e2a0" y="7.2"/>
      </g>
     </g>
    </g>
    <g id="xtick_38">
     <g id="line2d_93">
      <g>
       <use style="stroke:#000000;stroke-width:0.5;" x="442.953723758" xlink:href="#m177f7580d0" y="352.8"/>
      </g>
     </g>
     <g id="line2d_94">
      <g>
       <use style="stroke:#000000;stroke-width:0.5;" x="442.953723758" xlink:href="#m5284c7e2a0" y="7.2"/>
      </g>
     </g>
    </g>
    <g id="xtick_39">
     <g id="line2d_95">
      <g>
       <use style="stroke:#000000;stroke-width:0.5;" x="459.751197516" xlink:href="#m177f7580d0" y="352.8"/>
      </g>
     </g>
     <g id="line2d_96">
      <g>
       <use style="stroke:#000000;stroke-width:0.5;" x="459.751197516" xlink:href="#m5284c7e2a0" y="7.2"/>
      </g>
     </g>
    </g>
    <g id="xtick_40">
     <g id="line2d_97">
      <g>
       <use style="stroke:#000000;stroke-width:0.5;" x="469.577089771" xlink:href="#m177f7580d0" y="352.8"/>
      </g>
     </g>
     <g id="line2d_98">
      <g>
       <use style="stroke:#000000;stroke-width:0.5;" x="469.577089771" xlink:href="#m5284c7e2a0" y="7.2"/>
      </g>
     </g>
    </g>
    <g id="xtick_41">
     <g id="line2d_99">
      <g>
       <use style="stroke:#000000;stroke-width:0.5;" x="476.548671274" xlink:href="#m177f7580d0" y="352.8"/>
      </g>
     </g>
     <g id="line2d_100">
      <g>
       <use style="stroke:#000000;stroke-width:0.5;" x="476.548671274" xlink:href="#m5284c7e2a0" y="7.2"/>
      </g>
     </g>
    </g>
    <g id="text_10">
     <!-- log10 of FEvals ratio -->
     <defs>
      <path id="BitstreamVeraSans-Roman-20"/>
      <path d="
M41.1094 46.2969
Q39.5938 47.1719 37.8125 47.5781
Q36.0312 48 33.8906 48
Q26.2656 48 22.1875 43.0469
Q18.1094 38.0938 18.1094 28.8125
L18.1094 0
L9.07812 0
L9.07812 54.6875
L18.1094 54.6875
L18.1094 46.1875
Q20.9531 51.1719 25.4844 53.5781
Q30.0312 56 36.5312 56
Q37.4531 56 38.5781 55.875
Q39.7031 55.7656 41.0625 55.5156
z
" id="BitstreamVeraSans-Roman-72"/>
      <path d="
M30.6094 48.3906
Q23.3906 48.3906 19.1875 42.75
Q14.9844 37.1094 14.9844 27.2969
Q14.9844 17.4844 19.1562 11.8438
Q23.3438 6.20312 30.6094 6.20312
Q37.7969 6.20312 41.9844 11.8594
Q46.1875 17.5312 46.1875 27.2969
Q46.1875 37.0156 41.9844 42.7031
Q37.7969 48.3906 30.6094 48.3906
M30.6094 56
Q42.3281 56 49.0156 48.375
Q55.7188 40.7656 55.7188 27.2969
Q55.7188 13.875 49.0156 6.21875
Q42.3281 -1.42188 30.6094 -1.42188
Q18.8438 -1.42188 12.1719 6.21875
Q5.51562 13.875 5.51562 27.2969
Q5.51562 40.7656 12.1719 48.375
Q18.8438 56 30.6094 56" id="BitstreamVeraSans-Roman-6f"/>
      <path d="
M18.3125 70.2188
L18.3125 54.6875
L36.8125 54.6875
L36.8125 47.7031
L18.3125 47.7031
L18.3125 18.0156
Q18.3125 11.3281 20.1406 9.42188
Q21.9688 7.51562 27.5938 7.51562
L36.8125 7.51562
L36.8125 0
L27.5938 0
Q17.1875 0 13.2344 3.875
Q9.28125 7.76562 9.28125 18.0156
L9.28125 47.7031
L2.6875 47.7031
L2.6875 54.6875
L9.28125 54.6875
L9.28125 70.2188
z
" id="BitstreamVeraSans-Roman-74"/>
      <path d="
M9.42188 75.9844
L18.4062 75.9844
L18.4062 0
L9.42188 0
z
" id="BitstreamVeraSans-Roman-6c"/>
      <path d="
M9.8125 72.9062
L51.7031 72.9062
L51.7031 64.5938
L19.6719 64.5938
L19.6719 43.1094
L48.5781 43.1094
L48.5781 34.8125
L19.6719 34.8125
L19.6719 0
L9.8125 0
z
" id="BitstreamVeraSans-Roman-46"/>
      <path d="
M9.8125 72.9062
L55.9062 72.9062
L55.9062 64.5938
L19.6719 64.5938
L19.6719 43.0156
L54.3906 43.0156
L54.3906 34.7188
L19.6719 34.7188
L19.6719 8.29688
L56.7812 8.29688
L56.7812 0
L9.8125 0
z
" id="BitstreamVeraSans-Roman-45"/>
      <path d="
M9.42188 54.6875
L18.4062 54.6875
L18.4062 0
L9.42188 0
z

M9.42188 75.9844
L18.4062 75.9844
L18.4062 64.5938
L9.42188 64.5938
z
" id="BitstreamVeraSans-Roman-69"/>
      <path d="
M2.98438 54.6875
L12.5 54.6875
L29.5938 8.79688
L46.6875 54.6875
L56.2031 54.6875
L35.6875 0
L23.4844 0
z
" id="BitstreamVeraSans-Roman-76"/>
      <path d="
M45.4062 27.9844
Q45.4062 37.75 41.375 43.1094
Q37.3594 48.4844 30.0781 48.4844
Q22.8594 48.4844 18.8281 43.1094
Q14.7969 37.75 14.7969 27.9844
Q14.7969 18.2656 18.8281 12.8906
Q22.8594 7.51562 30.0781 7.51562
Q37.3594 7.51562 41.375 12.8906
Q45.4062 18.2656 45.4062 27.9844
M54.3906 6.78125
Q54.3906 -7.17188 48.1875 -13.9844
Q42 -20.7969 29.2031 -20.7969
Q24.4688 -20.7969 20.2656 -20.0938
Q16.0625 -19.3906 12.1094 -17.9219
L12.1094 -9.1875
Q16.0625 -11.3281 19.9219 -12.3438
Q23.7812 -13.375 27.7812 -13.375
Q36.625 -13.375 41.0156 -8.76562
Q45.4062 -4.15625 45.4062 5.17188
L45.4062 9.625
Q42.625 4.78125 38.2812 2.39062
Q33.9375 0 27.875 0
Q17.8281 0 11.6719 7.65625
Q5.51562 15.3281 5.51562 27.9844
Q5.51562 40.6719 11.6719 48.3281
Q17.8281 56 27.875 56
Q33.9375 56 38.2812 53.6094
Q42.625 51.2188 45.4062 46.3906
L45.4062 54.6875
L54.3906 54.6875
z
" id="BitstreamVeraSans-Roman-67"/>
      <path d="
M37.1094 75.9844
L37.1094 68.5
L28.5156 68.5
Q23.6875 68.5 21.7969 66.5469
Q19.9219 64.5938 19.9219 59.5156
L19.9219 54.6875
L34.7188 54.6875
L34.7188 47.7031
L19.9219 47.7031
L19.9219 0
L10.8906 0
L10.8906 47.7031
L2.29688 47.7031
L2.29688 54.6875
L10.8906 54.6875
L10.8906 58.5
Q10.8906 67.625 15.1406 71.7969
Q19.3906 75.9844 28.6094 75.9844
z
" id="BitstreamVeraSans-Roman-66"/>
      <path d="
M34.2812 27.4844
Q23.3906 27.4844 19.1875 25
Q14.9844 22.5156 14.9844 16.5
Q14.9844 11.7188 18.1406 8.90625
Q21.2969 6.10938 26.7031 6.10938
Q34.1875 6.10938 38.7031 11.4062
Q43.2188 16.7031 43.2188 25.4844
L43.2188 27.4844
z

M52.2031 31.2031
L52.2031 0
L43.2188 0
L43.2188 8.29688
Q40.1406 3.32812 35.5469 0.953125
Q30.9531 -1.42188 24.3125 -1.42188
Q15.9219 -1.42188 10.9531 3.29688
Q6 8.01562 6 15.9219
Q6 25.1406 12.1719 29.8281
Q18.3594 34.5156 30.6094 34.5156
L43.2188 34.5156
L43.2188 35.4062
Q43.2188 41.6094 39.1406 45
Q35.0625 48.3906 27.6875 48.3906
Q23 48.3906 18.5469 47.2656
Q14.1094 46.1406 10.0156 43.8906
L10.0156 52.2031
Q14.9375 54.1094 19.5781 55.0469
Q24.2188 56 28.6094 56
Q40.4844 56 46.3438 49.8438
Q52.2031 43.7031 52.2031 31.2031" id="BitstreamVeraSans-Roman-61"/>
      <path d="
M44.2812 53.0781
L44.2812 44.5781
Q40.4844 46.5312 36.375 47.5
Q32.2812 48.4844 27.875 48.4844
Q21.1875 48.4844 17.8438 46.4375
Q14.5 44.3906 14.5 40.2812
Q14.5 37.1562 16.8906 35.375
Q19.2812 33.5938 26.5156 31.9844
L29.5938 31.2969
Q39.1562 29.25 43.1875 25.5156
Q47.2188 21.7812 47.2188 15.0938
Q47.2188 7.46875 41.1875 3.01562
Q35.1562 -1.42188 24.6094 -1.42188
Q20.2188 -1.42188 15.4531 -0.5625
Q10.6875 0.296875 5.42188 2
L5.42188 11.2812
Q10.4062 8.6875 15.2344 7.39062
Q20.0625 6.10938 24.8125 6.10938
Q31.1562 6.10938 34.5625 8.28125
Q37.9844 10.4531 37.9844 14.4062
Q37.9844 18.0625 35.5156 20.0156
Q33.0625 21.9688 24.7031 23.7812
L21.5781 24.5156
Q13.2344 26.2656 9.51562 29.9062
Q5.8125 33.5469 5.8125 39.8906
Q5.8125 47.6094 11.2812 51.7969
Q16.75 56 26.8125 56
Q31.7812 56 36.1719 55.2656
Q40.5781 54.5469 44.2812 53.0781" id="BitstreamVeraSans-Roman-73"/>
     </defs>
     <g transform="translate(156.9984375 396.353125)scale(0.2 -0.2)">
      <use xlink:href="#BitstreamVeraSans-Roman-6c"/>
      <use x="27.783203125" xlink:href="#BitstreamVeraSans-Roman-6f"/>
      <use x="88.96484375" xlink:href="#BitstreamVeraSans-Roman-67"/>
      <use x="152.44140625" xlink:href="#BitstreamVeraSans-Roman-31"/>
      <use x="216.064453125" xlink:href="#BitstreamVeraSans-Roman-30"/>
      <use x="279.6875" xlink:href="#BitstreamVeraSans-Roman-20"/>
      <use x="311.474609375" xlink:href="#BitstreamVeraSans-Roman-6f"/>
      <use x="372.65625" xlink:href="#BitstreamVeraSans-Roman-66"/>
      <use x="407.861328125" xlink:href="#BitstreamVeraSans-Roman-20"/>
      <use x="439.6484375" xlink:href="#BitstreamVeraSans-Roman-46"/>
      <use x="497.16796875" xlink:href="#BitstreamVeraSans-Roman-45"/>
      <use x="560.3515625" xlink:href="#BitstreamVeraSans-Roman-76"/>
      <use x="619.53125" xlink:href="#BitstreamVeraSans-Roman-61"/>
      <use x="680.810546875" xlink:href="#BitstreamVeraSans-Roman-6c"/>
      <use x="708.59375" xlink:href="#BitstreamVeraSans-Roman-73"/>
      <use x="760.693359375" xlink:href="#BitstreamVeraSans-Roman-20"/>
      <use x="792.48046875" xlink:href="#BitstreamVeraSans-Roman-72"/>
      <use x="833.59375" xlink:href="#BitstreamVeraSans-Roman-61"/>
      <use x="894.873046875" xlink:href="#BitstreamVeraSans-Roman-74"/>
      <use x="934.08203125" xlink:href="#BitstreamVeraSans-Roman-69"/>
      <use x="961.865234375" xlink:href="#BitstreamVeraSans-Roman-6f"/>
     </g>
    </g>
   </g>
   <g id="matplotlib.axis_2">
    <g id="ytick_1">
     <g id="line2d_101">
      <path clip-path="url(#p96d9120af0)" d="
M35.5563 349.412
L481.956 349.412" style="fill:none;stroke:#000000;stroke-dasharray:1.000000,3.000000;stroke-dashoffset:0.0;stroke-width:0.5;"/>
     </g>
     <g id="line2d_102">
      <defs>
       <path d="
M0 0
L4 0" id="m728421d6d4" style="stroke:#000000;stroke-width:0.5;"/>
      </defs>
      <g>
       <use style="stroke:#000000;stroke-width:0.5;" x="35.55625" xlink:href="#m728421d6d4" y="349.411764706"/>
      </g>
     </g>
     <g id="line2d_103">
      <defs>
       <path d="
M0 0
L-4 0" id="mcb0005524f" style="stroke:#000000;stroke-width:0.5;"/>
      </defs>
      <g>
       <use style="stroke:#000000;stroke-width:0.5;" x="481.95625" xlink:href="#mcb0005524f" y="349.411764706"/>
      </g>
     </g>
    </g>
    <g id="ytick_2">
     <g id="line2d_104">
      <path clip-path="url(#p96d9120af0)" d="
M35.5563 264.706
L481.956 264.706" style="fill:none;stroke:#000000;stroke-dasharray:1.000000,3.000000;stroke-dashoffset:0.0;stroke-width:0.5;"/>
     </g>
     <g id="line2d_105">
      <g>
       <use style="stroke:#000000;stroke-width:0.5;" x="35.55625" xlink:href="#m728421d6d4" y="264.705882353"/>
      </g>
     </g>
     <g id="line2d_106">
      <g>
       <use style="stroke:#000000;stroke-width:0.5;" x="481.95625" xlink:href="#mcb0005524f" y="264.705882353"/>
      </g>
     </g>
    </g>
    <g id="ytick_3">
     <g id="line2d_107">
      <path clip-path="url(#p96d9120af0)" d="
M35.5563 180
L481.956 180" style="fill:none;stroke:#000000;stroke-dasharray:1.000000,3.000000;stroke-dashoffset:0.0;stroke-width:0.5;"/>
     </g>
     <g id="line2d_108">
      <g>
       <use style="stroke:#000000;stroke-width:0.5;" x="35.55625" xlink:href="#m728421d6d4" y="180.0"/>
      </g>
     </g>
     <g id="line2d_109">
      <g>
       <use style="stroke:#000000;stroke-width:0.5;" x="481.95625" xlink:href="#mcb0005524f" y="180.0"/>
      </g>
     </g>
    </g>
    <g id="ytick_4">
     <g id="line2d_110">
      <path clip-path="url(#p96d9120af0)" d="
M35.5563 95.2941
L481.956 95.2941" style="fill:none;stroke:#000000;stroke-dasharray:1.000000,3.000000;stroke-dashoffset:0.0;stroke-width:0.5;"/>
     </g>
     <g id="line2d_111">
      <g>
       <use style="stroke:#000000;stroke-width:0.5;" x="35.55625" xlink:href="#m728421d6d4" y="95.2941176471"/>
      </g>
     </g>
     <g id="line2d_112">
      <g>
       <use style="stroke:#000000;stroke-width:0.5;" x="481.95625" xlink:href="#mcb0005524f" y="95.2941176471"/>
      </g>
     </g>
    </g>
    <g id="ytick_5">
     <g id="line2d_113">
      <path clip-path="url(#p96d9120af0)" d="
M35.5563 10.5882
L481.956 10.5882" style="fill:none;stroke:#000000;stroke-dasharray:1.000000,3.000000;stroke-dashoffset:0.0;stroke-width:0.5;"/>
     </g>
     <g id="line2d_114">
      <g>
       <use style="stroke:#000000;stroke-width:0.5;" x="35.55625" xlink:href="#m728421d6d4" y="10.5882352941"/>
      </g>
     </g>
     <g id="line2d_115">
      <g>
       <use style="stroke:#000000;stroke-width:0.5;" x="481.95625" xlink:href="#mcb0005524f" y="10.5882352941"/>
      </g>
     </g>
    </g>
    <g id="text_11">
     <!-- proportion of trials -->
     <defs>
      <path d="
M54.8906 33.0156
L54.8906 0
L45.9062 0
L45.9062 32.7188
Q45.9062 40.4844 42.875 44.3281
Q39.8438 48.1875 33.7969 48.1875
Q26.5156 48.1875 22.3125 43.5469
Q18.1094 38.9219 18.1094 30.9062
L18.1094 0
L9.07812 0
L9.07812 54.6875
L18.1094 54.6875
L18.1094 46.1875
Q21.3438 51.125 25.7031 53.5625
Q30.0781 56 35.7969 56
Q45.2188 56 50.0469 50.1719
Q54.8906 44.3438 54.8906 33.0156" id="BitstreamVeraSans-Roman-6e"/>
      <path d="
M18.1094 8.20312
L18.1094 -20.7969
L9.07812 -20.7969
L9.07812 54.6875
L18.1094 54.6875
L18.1094 46.3906
Q20.9531 51.2656 25.2656 53.625
Q29.5938 56 35.5938 56
Q45.5625 56 51.7812 48.0938
Q58.0156 40.1875 58.0156 27.2969
Q58.0156 14.4062 51.7812 6.48438
Q45.5625 -1.42188 35.5938 -1.42188
Q29.5938 -1.42188 25.2656 0.953125
Q20.9531 3.32812 18.1094 8.20312
M48.6875 27.2969
Q48.6875 37.2031 44.6094 42.8438
Q40.5312 48.4844 33.4062 48.4844
Q26.2656 48.4844 22.1875 42.8438
Q18.1094 37.2031 18.1094 27.2969
Q18.1094 17.3906 22.1875 11.75
Q26.2656 6.10938 33.4062 6.10938
Q40.5312 6.10938 44.6094 11.75
Q48.6875 17.3906 48.6875 27.2969" id="BitstreamVeraSans-Roman-70"/>
     </defs>
     <g transform="translate(22.396875 272.51875)rotate(-90.0)scale(0.2 -0.2)">
      <use xlink:href="#BitstreamVeraSans-Roman-70"/>
      <use x="63.4765625" xlink:href="#BitstreamVeraSans-Roman-72"/>
      <use x="102.33984375" xlink:href="#BitstreamVeraSans-Roman-6f"/>
      <use x="163.521484375" xlink:href="#BitstreamVeraSans-Roman-70"/>
      <use x="226.998046875" xlink:href="#BitstreamVeraSans-Roman-6f"/>
      <use x="288.1796875" xlink:href="#BitstreamVeraSans-Roman-72"/>
      <use x="329.29296875" xlink:href="#BitstreamVeraSans-Roman-74"/>
      <use x="368.501953125" xlink:href="#BitstreamVeraSans-Roman-69"/>
      <use x="396.28515625" xlink:href="#BitstreamVeraSans-Roman-6f"/>
      <use x="457.466796875" xlink:href="#BitstreamVeraSans-Roman-6e"/>
      <use x="520.845703125" xlink:href="#BitstreamVeraSans-Roman-20"/>
      <use x="552.6328125" xlink:href="#BitstreamVeraSans-Roman-6f"/>
      <use x="613.814453125" xlink:href="#BitstreamVeraSans-Roman-66"/>
      <use x="649.01953125" xlink:href="#BitstreamVeraSans-Roman-20"/>
      <use x="680.806640625" xlink:href="#BitstreamVeraSans-Roman-74"/>
      <use x="720.015625" xlink:href="#BitstreamVeraSans-Roman-72"/>
      <use x="761.12890625" xlink:href="#BitstreamVeraSans-Roman-69"/>
      <use x="788.912109375" xlink:href="#BitstreamVeraSans-Roman-61"/>
      <use x="850.19140625" xlink:href="#BitstreamVeraSans-Roman-6c"/>
      <use x="877.974609375" xlink:href="#BitstreamVeraSans-Roman-73"/>
     </g>
    </g>
   </g>
   <g id="patch_3">
    <path d="
M35.5563 7.2
L481.956 7.2" style="fill:none;stroke:#000000;"/>
   </g>
   <g id="patch_4">
    <path d="
M481.956 352.8
L481.956 7.2" style="fill:none;stroke:#000000;"/>
   </g>
   <g id="patch_5">
    <path d="
M35.5563 352.8
L481.956 352.8" style="fill:none;stroke:#000000;"/>
   </g>
   <g id="patch_6">
    <path d="
M35.5563 352.8
L35.5563 7.2" style="fill:none;stroke:#000000;"/>
   </g>
   <g id="text_12">
    <!-- f15-f19,5-D -->
    <defs>
     <path d="
M19.6719 64.7969
L19.6719 8.10938
L31.5938 8.10938
Q46.6875 8.10938 53.6875 14.9375
Q60.6875 21.7812 60.6875 36.5312
Q60.6875 51.1719 53.6875 57.9844
Q46.6875 64.7969 31.5938 64.7969
z

M9.8125 72.9062
L30.0781 72.9062
Q51.2656 72.9062 61.1719 64.0938
Q71.0938 55.2812 71.0938 36.5312
Q71.0938 17.6719 61.125 8.82812
Q51.1719 0 30.0781 0
L9.8125 0
z
" id="BitstreamVeraSans-Roman-44"/>
     <path d="
M11.7188 12.4062
L22.0156 12.4062
L22.0156 4
L14.0156 -11.625
L7.71875 -11.625
L11.7188 4
z
" id="BitstreamVeraSans-Roman-2c"/>
     <path d="
M10.9844 1.51562
L10.9844 10.5
Q14.7031 8.73438 18.5 7.8125
Q22.3125 6.89062 25.9844 6.89062
Q35.75 6.89062 40.8906 13.4531
Q46.0469 20.0156 46.7812 33.4062
Q43.9531 29.2031 39.5938 26.9531
Q35.25 24.7031 29.9844 24.7031
Q19.0469 24.7031 12.6719 31.3125
Q6.29688 37.9375 6.29688 49.4219
Q6.29688 60.6406 12.9375 67.4219
Q19.5781 74.2188 30.6094 74.2188
Q43.2656 74.2188 49.9219 64.5156
Q56.5938 54.8281 56.5938 36.375
Q56.5938 19.1406 48.4062 8.85938
Q40.2344 -1.42188 26.4219 -1.42188
Q22.7031 -1.42188 18.8906 -0.6875
Q15.0938 0.046875 10.9844 1.51562
M30.6094 32.4219
Q37.25 32.4219 41.125 36.9531
Q45.0156 41.5 45.0156 49.4219
Q45.0156 57.2812 41.125 61.8438
Q37.25 66.4062 30.6094 66.4062
Q23.9688 66.4062 20.0938 61.8438
Q16.2188 57.2812 16.2188 49.4219
Q16.2188 41.5 20.0938 36.9531
Q23.9688 32.4219 30.6094 32.4219" id="BitstreamVeraSans-Roman-39"/>
     <path d="
M10.7969 72.9062
L49.5156 72.9062
L49.5156 64.5938
L19.8281 64.5938
L19.8281 46.7344
Q21.9688 47.4688 24.1094 47.8281
Q26.2656 48.1875 28.4219 48.1875
Q40.625 48.1875 47.75 41.5
Q54.8906 34.8125 54.8906 23.3906
Q54.8906 11.625 47.5625 5.09375
Q40.2344 -1.42188 26.9062 -1.42188
Q22.3125 -1.42188 17.5469 -0.640625
Q12.7969 0.140625 7.71875 1.70312
L7.71875 11.625
Q12.1094 9.23438 16.7969 8.0625
Q21.4844 6.89062 26.7031 6.89062
Q35.1562 6.89062 40.0781 11.3281
Q45.0156 15.7656 45.0156 23.3906
Q45.0156 31 40.0781 35.4375
Q35.1562 39.8906 26.7031 39.8906
Q22.75 39.8906 18.8125 39.0156
Q14.8906 38.1406 10.7969 36.2812
z
" id="BitstreamVeraSans-Roman-35"/>
    </defs>
    <g transform="translate(360.775125 345.888)scale(0.2 -0.2)">
     <use xlink:href="#BitstreamVeraSans-Roman-66"/>
     <use x="35.205078125" xlink:href="#BitstreamVeraSans-Roman-31"/>
     <use x="98.828125" xlink:href="#BitstreamVeraSans-Roman-35"/>
     <use x="162.451171875" xlink:href="#BitstreamVeraSans-Roman-2d"/>
     <use x="198.53515625" xlink:href="#BitstreamVeraSans-Roman-66"/>
     <use x="233.740234375" xlink:href="#BitstreamVeraSans-Roman-31"/>
     <use x="297.36328125" xlink:href="#BitstreamVeraSans-Roman-39"/>
     <use x="360.986328125" xlink:href="#BitstreamVeraSans-Roman-2c"/>
     <use x="392.7734375" xlink:href="#BitstreamVeraSans-Roman-35"/>
     <use x="456.396484375" xlink:href="#BitstreamVeraSans-Roman-2d"/>
     <use x="492.48046875" xlink:href="#BitstreamVeraSans-Roman-44"/>
    </g>
   </g>
   <g id="text_13">
    <!-- 0.0.0 -->
    <defs>
     <path d="
M10.6875 12.4062
L21 12.4062
L21 0
L10.6875 0
z
" id="BitstreamVeraSans-Roman-2e"/>
    </defs>
    <g style="fill:#808080;" transform="translate(246.69609375 347.2643125)scale(0.1 -0.1)">
     <use xlink:href="#BitstreamVeraSans-Roman-30"/>
     <use x="63.623046875" xlink:href="#BitstreamVeraSans-Roman-2e"/>
     <use x="95.41015625" xlink:href="#BitstreamVeraSans-Roman-30"/>
     <use x="159.033203125" xlink:href="#BitstreamVeraSans-Roman-2e"/>
     <use x="190.8203125" xlink:href="#BitstreamVeraSans-Roman-30"/>
    </g>
   </g>
   <g id="legend_1">
    <g id="patch_7">
     <path d="
M336.062 342.8
L471.956 342.8
L471.956 219.375
L336.062 219.375
L336.062 342.8
z
" style="fill:#ffffff;opacity:0.2;stroke:#000000;"/>
    </g>
    <g id="line2d_116">
     <path d="
M350.062 235.572
L378.062 235.572" style="fill:none;stroke:#000000;stroke-linecap:square;stroke-width:3.0;"/>
    </g>
    <g id="line2d_117"/>
    <g id="text_14">
     <!-- 1: 5/5 -->
     <defs>
      <path d="
M11.7188 12.4062
L22.0156 12.4062
L22.0156 0
L11.7188 0
z

M11.7188 51.7031
L22.0156 51.7031
L22.0156 39.3125
L11.7188 39.3125
z
" id="BitstreamVeraSans-Roman-3a"/>
      <path d="
M25.3906 72.9062
L33.6875 72.9062
L8.29688 -9.28125
L0 -9.28125
z
" id="BitstreamVeraSans-Roman-2f"/>
     </defs>
     <g transform="translate(400.0625 242.571875)scale(0.2 -0.2)">
      <use xlink:href="#BitstreamVeraSans-Roman-31"/>
      <use x="63.623046875" xlink:href="#BitstreamVeraSans-Roman-3a"/>
      <use x="97.314453125" xlink:href="#BitstreamVeraSans-Roman-20"/>
      <use x="129.1015625" xlink:href="#BitstreamVeraSans-Roman-35"/>
      <use x="192.724609375" xlink:href="#BitstreamVeraSans-Roman-2f"/>
      <use x="226.416015625" xlink:href="#BitstreamVeraSans-Roman-35"/>
     </g>
    </g>
    <g id="line2d_118">
     <path d="
M350.062 264.928
L378.062 264.928" style="fill:none;stroke:#00bfbf;stroke-linecap:square;stroke-width:3.0;"/>
    </g>
    <g id="line2d_119"/>
    <g id="text_15">
     <!-- -1: 4/3 -->
     <g transform="translate(400.0625 271.928125)scale(0.2 -0.2)">
      <use xlink:href="#BitstreamVeraSans-Roman-2d"/>
      <use x="36.083984375" xlink:href="#BitstreamVeraSans-Roman-31"/>
      <use x="99.70703125" xlink:href="#BitstreamVeraSans-Roman-3a"/>
      <use x="133.3984375" xlink:href="#BitstreamVeraSans-Roman-20"/>
      <use x="165.185546875" xlink:href="#BitstreamVeraSans-Roman-34"/>
      <use x="228.80859375" xlink:href="#BitstreamVeraSans-Roman-2f"/>
      <use x="262.5" xlink:href="#BitstreamVeraSans-Roman-33"/>
     </g>
    </g>
    <g id="line2d_120">
     <path d="
M350.062 294.284
L378.062 294.284" style="fill:none;stroke:#bf00bf;stroke-linecap:square;stroke-width:3.0;"/>
    </g>
    <g id="line2d_121"/>
    <g id="text_16">
     <!-- -4: 3/2 -->
     <g transform="translate(400.0625 301.284375)scale(0.2 -0.2)">
      <use xlink:href="#BitstreamVeraSans-Roman-2d"/>
      <use x="36.083984375" xlink:href="#BitstreamVeraSans-Roman-34"/>
      <use x="99.70703125" xlink:href="#BitstreamVeraSans-Roman-3a"/>
      <use x="133.3984375" xlink:href="#BitstreamVeraSans-Roman-20"/>
      <use x="165.185546875" xlink:href="#BitstreamVeraSans-Roman-33"/>
      <use x="228.80859375" xlink:href="#BitstreamVeraSans-Roman-2f"/>
      <use x="262.5" xlink:href="#BitstreamVeraSans-Roman-32"/>
     </g>
    </g>
    <g id="line2d_122">
     <path d="
M350.062 323.641
L378.062 323.641" style="fill:none;stroke:#ff0000;stroke-linecap:square;stroke-width:3.0;"/>
    </g>
    <g id="line2d_123"/>
    <g id="text_17">
     <!-- -8: 2/0 -->
     <defs>
      <path d="
M31.7812 34.625
Q24.75 34.625 20.7188 30.8594
Q16.7031 27.0938 16.7031 20.5156
Q16.7031 13.9219 20.7188 10.1562
Q24.75 6.39062 31.7812 6.39062
Q38.8125 6.39062 42.8594 10.1719
Q46.9219 13.9688 46.9219 20.5156
Q46.9219 27.0938 42.8906 30.8594
Q38.875 34.625 31.7812 34.625
M21.9219 38.8125
Q15.5781 40.375 12.0312 44.7188
Q8.5 49.0781 8.5 55.3281
Q8.5 64.0625 14.7188 69.1406
Q20.9531 74.2188 31.7812 74.2188
Q42.6719 74.2188 48.875 69.1406
Q55.0781 64.0625 55.0781 55.3281
Q55.0781 49.0781 51.5312 44.7188
Q48 40.375 41.7031 38.8125
Q48.8281 37.1562 52.7969 32.3125
Q56.7812 27.4844 56.7812 20.5156
Q56.7812 9.90625 50.3125 4.23438
Q43.8438 -1.42188 31.7812 -1.42188
Q19.7344 -1.42188 13.25 4.23438
Q6.78125 9.90625 6.78125 20.5156
Q6.78125 27.4844 10.7812 32.3125
Q14.7969 37.1562 21.9219 38.8125
M18.3125 54.3906
Q18.3125 48.7344 21.8438 45.5625
Q25.3906 42.3906 31.7812 42.3906
Q38.1406 42.3906 41.7188 45.5625
Q45.3125 48.7344 45.3125 54.3906
Q45.3125 60.0625 41.7188 63.2344
Q38.1406 66.4062 31.7812 66.4062
Q25.3906 66.4062 21.8438 63.2344
Q18.3125 60.0625 18.3125 54.3906" id="BitstreamVeraSans-Roman-38"/>
     </defs>
     <g transform="translate(400.0625 330.640625)scale(0.2 -0.2)">
      <use xlink:href="#BitstreamVeraSans-Roman-2d"/>
      <use x="36.083984375" xlink:href="#BitstreamVeraSans-Roman-38"/>
      <use x="99.70703125" xlink:href="#BitstreamVeraSans-Roman-3a"/>
      <use x="133.3984375" xlink:href="#BitstreamVeraSans-Roman-20"/>
      <use x="165.185546875" xlink:href="#BitstreamVeraSans-Roman-32"/>
      <use x="228.80859375" xlink:href="#BitstreamVeraSans-Roman-2f"/>
      <use x="262.5" xlink:href="#BitstreamVeraSans-Roman-30"/>
     </g>
    </g>
   </g>
  </g>
 </g>
 <defs>
  <clipPath id="p96d9120af0">
   <rect height="345.6" width="446.4" x="35.55625" y="7.2"/>
  </clipPath>
 </defs>
</svg>
