<?xml version="1.0" encoding="utf-8" standalone="no"?>
<!DOCTYPE svg PUBLIC "-//W3C//DTD SVG 1.1//EN"
  "http://www.w3.org/Graphics/SVG/1.1/DTD/svg11.dtd">
<!-- Created with matplotlib (http://matplotlib.org/) -->
<svg height="407pt" version="1.1" viewBox="0 0 494 407" width="494pt" xmlns="http://www.w3.org/2000/svg" xmlns:xlink="http://www.w3.org/1999/xlink">
 <defs>
  <style type="text/css">
*{stroke-linecap:butt;stroke-linejoin:round;}
  </style>
 </defs>
 <g id="figure_1">
  <g id="patch_1">
   <path d="
M0 407.712
L494.469 407.712
L494.469 0
L0 0
z
" style="fill:#ffffff;"/>
  </g>
  <g id="axes_1">
   <g id="patch_2">
    <path d="
M35.5563 352.8
L481.956 352.8
L481.956 7.2
L35.5563 7.2
z
" style="fill:#ffffff;"/>
   </g>
   <g id="line2d_1">
    <path clip-path="url(#p96d9120af0)" d="
M35.5563 349.412
L43.4625 349.412
L43.4625 349.035
L60.0996 349.035
L60.0996 348.659
L67.3512 348.659
L67.3512 348.282
L74.6282 348.282
L74.6282 347.906
L79.1573 347.906
L79.1573 347.529
L80.3435 347.529
L80.3435 347.153
L81.3343 347.153
L81.3343 346.776
L85.3193 346.776
L85.3193 346.4
L85.5244 346.4
L85.5244 346.024
L86.74 346.024
L86.74 345.647
L87.3817 345.647
L87.3817 345.271
L89.9713 345.271
L89.9713 344.894
L91.0604 344.894
L91.0604 344.518
L91.7625 344.518
L91.7625 344.141
L93.249 344.141
L93.249 343.765
L94.3701 343.765
L94.3701 343.388
L94.6602 343.388
L94.6602 343.012
L95.2852 343.012
L95.2852 342.635
L96.4268 342.635
L96.4268 342.259
L98.1205 342.259
L98.1205 341.882
L98.9757 341.882
L98.9757 341.506
L99.438 341.506
L99.438 341.129
L100.501 341.129
L100.501 340.753
L101.622 340.753
L101.622 340.376
L101.862 340.376
L101.862 340
L102.537 340
L102.537 339.624
L102.766 339.624
L102.766 339.247
L103.034 339.247
L103.034 338.871
L103.622 338.871
L103.678 338.118
L105.372 338.118
L105.372 337.741
L106.207 337.741
L106.207 337.365
L108.278 337.365
L108.278 336.988
L110.378 336.988
L110.378 336.612
L110.873 336.612
L110.873 336.235
L111.509 336.235
L111.509 335.859
L112.307 335.859
L112.307 335.482
L112.5 335.482
L112.5 335.106
L113.428 335.106
L113.459 334.353
L113.716 334.353
L113.716 333.976
L114.343 333.976
L114.343 333.6
L115.484 333.6
L115.53 332.847
L115.673 332.847
L115.673 332.471
L116.485 332.471
L116.485 332.094
L116.69 332.094
L116.69 331.718
L117.178 331.718
L117.178 331.341
L117.8 331.341
L117.8 330.965
L120.967 330.965
L120.967 330.588
L121.968 330.588
L121.968 330.212
L122.226 330.212
L122.226 329.835
L122.679 329.835
L122.679 329.459
L122.925 329.459
L122.928 328.706
L123.621 328.706
L123.621 328.329
L124.263 328.329
L124.263 327.953
L124.612 327.953
L124.612 327.576
L125.034 327.576
L125.034 327.2
L125.253 327.2
L125.265 326.447
L126.852 326.447
L126.852 326.071
L127.336 326.071
L127.336 325.694
L127.843 325.694
L127.843 325.318
L128.597 325.318
L128.597 324.941
L128.802 324.941
L128.802 324.565
L129.238 324.565
L129.238 324.188
L129.444 324.188
L129.444 323.812
L130.141 323.812
L130.141 323.435
L131.541 323.435
L131.541 323.059
L131.828 323.059
L131.828 322.682
L132.033 322.682
L132.033 322.306
L132.285 322.306
L132.285 321.929
L132.532 321.929
L132.587 321.176
L132.773 321.176
L132.773 320.8
L133.028 320.8
L133.028 320.424
L133.708 320.424
L133.708 320.047
L134.199 320.047
L134.199 319.671
L134.338 319.671
L134.338 319.294
L134.624 319.294
L134.731 318.541
L134.98 318.541
L135.04 317.788
L135.682 317.788
L135.765 317.035
L136.517 317.035
L136.517 316.659
L136.722 316.659
L136.722 316.282
L137.459 316.282
L137.569 315.529
L138.271 315.529
L138.271 315.153
L139.647 315.153
L139.647 314.776
L140.638 314.776
L140.638 314.4
L141.544 314.4
L141.544 314.024
L142.253 314.024
L142.258 313.271
L142.895 313.271
L142.96 312.141
L144.091 312.141
L144.091 311.765
L144.623 311.765
L144.623 311.388
L144.828 311.388
L144.828 311.012
L145.14 311.012
L145.14 310.635
L145.485 310.635
L145.546 309.882
L145.781 309.882
L145.781 309.506
L146.311 309.506
L146.311 309.129
L146.953 309.129
L146.953 308.753
L147.616 308.753
L147.616 308.376
L148.371 308.376
L148.371 308
L148.966 308
L148.966 307.624
L149.543 307.624
L149.543 307.247
L150.173 307.247
L150.173 306.871
L150.364 306.871
L150.364 306.494
L151.066 306.494
L151.066 306.118
L153.054 306.118
L153.134 304.988
L153.655 304.988
L153.655 304.612
L154.231 304.612
L154.297 303.859
L155.012 303.859
L155.012 303.482
L156.887 303.482
L156.887 303.106
L158.279 303.106
L158.279 302.729
L161.078 302.729
L161.166 301.976
L161.576 301.976
L161.576 301.6
L161.719 301.6
L161.719 301.224
L162.337 301.224
L162.337 300.847
L164.309 300.847
L164.372 300.094
L165.246 300.094
L165.246 299.718
L165.888 299.718
L165.888 299.341
L168.477 299.341
L168.477 298.965
L168.998 298.965
L168.998 298.588
L169.682 298.588
L169.682 298.212
L173.166 298.212
L173.166 297.835
L175.538 297.835
L175.538 295.953
L177.104 295.953
L177.104 295.576
L181.272 295.576
L181.272 295.2
L187.756 295.2
L187.756 294.824
L192.336 294.824
L192.336 294.447
L195.205 294.447
L195.214 293.694
L202.457 293.694
L202.465 292.941
L205.51 292.941
L205.51 291.059
L208.364 291.059
L208.364 287.294
L211.6 287.294
L211.6 285.412
L214.263 285.412
L214.271 284.659
L214.541 284.659
L214.541 284.282
L215.335 284.282
L215.335 280.518
L218.921 280.518
L218.921 280.141
L222.307 280.141
L222.307 279.765
L222.695 279.765
L222.695 279.388
L225.161 279.388
L225.161 274.871
L228.397 274.871
L228.397 274.494
L228.785 274.494
L228.785 273.741
L231.033 273.741
L231.033 273.365
L231.338 273.365
L231.338 272.612
L231.675 272.612
L231.675 272.235
L232.133 272.235
L232.133 271.482
L233.648 271.482
L233.648 270.729
L234.265 270.729
L234.265 270.353
L234.544 270.353
L234.552 269.6
L238.953 269.6
L238.953 269.224
L241.959 269.224
L241.959 266.588
L243.208 266.588
L243.208 266.212
L244.512 266.212
L244.512 265.835
L246.573 265.835
L246.573 265.459
L246.893 265.459
L246.893 265.082
L247.059 265.082
L247.059 264.706
L247.366 264.706
L247.366 263.953
L248.871 263.953
L248.871 263.576
L250.602 263.576
L250.602 263.2
L252.666 263.2
L252.666 262.824
L253.13 262.824
L253.13 262.447
L253.52 262.447
L253.52 262.071
L254.072 262.071
L254.072 261.694
L254.338 261.694
L254.338 260.941
L255.09 260.941
L255.123 260.188
L255.52 260.188
L255.52 259.435
L255.902 259.435
L255.902 259.059
L256.602 259.059
L256.602 258.682
L257.287 258.682
L257.287 258.306
L257.801 258.306
L257.801 257.929
L258.756 257.929
L258.756 247.012
L259.063 247.012
L259.063 246.635
L261.31 246.635
L261.31 245.882
L261.611 245.882
L261.664 244
L262.492 244
L262.492 243.247
L263.619 243.247
L263.619 242.494
L264.164 242.494
L264.164 240.235
L264.847 240.235
L264.847 239.482
L266.474 239.482
L266.474 237.976
L267.4 237.976
L267.4 237.224
L267.966 237.224
L267.966 236.847
L268.582 236.847
L268.627 234.965
L269.306 234.965
L269.355 234.212
L269.709 234.212
L269.709 233.459
L271.135 233.459
L271.135 231.953
L272.318 231.953
L272.318 231.2
L273.445 231.2
L273.445 229.694
L273.68 229.694
L273.68 229.318
L275.554 229.318
L275.554 227.435
L276.358 227.435
L276.358 227.059
L276.864 227.059
L276.864 226.682
L276.982 226.682
L276.982 226.306
L277.479 226.306
L277.479 225.929
L277.875 225.929
L277.875 225.553
L278.394 225.553
L278.408 223.671
L279.211 223.671
L279.211 223.294
L279.535 223.294
L279.626 222.541
L279.718 222.541
L279.722 221.412
L280.049 221.412
L280.049 221.035
L280.843 221.035
L280.843 220.659
L280.961 220.659
L280.961 218.776
L281.229 218.776
L281.229 218.4
L281.758 218.4
L281.758 218.024
L282.359 218.024
L282.359 217.647
L282.832 217.647
L282.9 216.894
L282.954 216.894
L282.992 216.141
L283.271 216.141
L283.271 214.635
L283.975 214.635
L283.975 214.259
L284.594 214.259
L284.594 213.882
L284.739 213.882
L284.739 213.506
L285.439 213.506
L285.439 213.129
L285.707 213.129
L285.752 212
L286.28 212
L286.28 211.624
L286.669 211.624
L286.743 209.741
L287.401 209.741
L287.401 209.365
L287.79 209.365
L287.79 208.988
L287.914 208.988
L287.914 208.612
L288.24 208.612
L288.316 207.859
L288.705 207.859
L288.807 207.106
L289.115 207.106
L289.115 206.729
L289.316 206.729
L289.361 205.976
L289.458 205.976
L289.458 205.6
L289.751 205.6
L289.847 204.847
L290.095 204.847
L290.143 204.094
L290.208 204.094
L290.276 203.341
L290.558 203.341
L290.558 202.965
L290.728 202.965
L290.728 202.588
L290.872 202.588
L290.981 200.706
L291.101 200.706
L291.151 199.953
L291.387 199.953
L291.417 199.2
L291.541 199.2
L291.541 198.824
L291.788 198.824
L291.788 198.447
L291.944 198.447
L292.004 197.694
L292.072 197.694
L292.072 197.318
L292.212 197.318
L292.212 196.941
L292.437 196.941
L292.437 196.565
L292.68 196.565
L292.783 195.812
L292.852 195.812
L292.929 195.059
L292.987 195.059
L292.994 194.306
L293.111 194.306
L293.111 193.929
L293.275 193.929
L293.333 192.8
L293.469 192.8
L293.469 192.424
L293.764 192.424
L293.774 191.671
L293.924 191.671
L293.924 191.294
L294.088 191.294
L294.168 190.165
L294.248 190.165
L294.35 189.412
L294.623 189.412
L294.623 189.035
L294.751 189.035
L294.813 188.282
L294.907 188.282
L294.981 187.529
L295.159 187.529
L295.206 186.4
L295.39 186.4
L295.39 186.024
L295.585 186.024
L295.671 185.271
L295.822 185.271
L295.929 184.518
L295.934 184.518
L295.934 184.141
L296.058 184.141
L296.134 183.388
L296.218 183.388
L296.316 182.635
L296.37 182.635
L296.469 181.882
L296.516 181.882
L296.516 181.129
L296.638 181.129
L296.732 179.624
L296.824 179.624
L296.849 178.871
L296.979 178.871
L297.083 177.741
L297.154 177.741
L297.201 176.235
L297.759 176.235
L297.759 173.224
L297.964 173.224
L297.991 172.094
L298.612 172.094
L298.68 170.965
L298.782 170.965
L298.782 170.588
L298.933 170.588
L298.933 169.835
L299.144 169.835
L299.238 169.082
L299.349 169.082
L299.349 168.706
L299.464 168.706
L299.573 167.953
L299.627 167.953
L299.685 167.2
L299.926 167.2
L299.938 166.447
L300.068 166.447
L300.124 164.941
L300.189 164.941
L300.189 164.565
L300.819 164.565
L300.909 163.812
L301.08 163.812
L301.08 163.435
L301.198 163.435
L301.309 162.682
L301.323 162.682
L301.324 161.929
L301.67 161.929
L301.747 160.8
L301.844 160.8
L301.844 160.424
L302.146 160.424
L302.154 159.671
L302.271 159.671
L302.372 158.918
L302.505 158.918
L302.585 157.035
L302.71 157.035
L302.812 155.529
L302.992 155.529
L302.992 155.153
L303.164 155.153
L303.269 154.4
L303.423 154.4
L303.5 153.271
L303.626 153.271
L303.626 152.894
L303.909 152.894
L303.909 152.518
L304.057 152.518
L304.057 152.141
L304.202 152.141
L304.202 151.765
L304.384 151.765
L304.466 150.635
L304.499 150.635
L304.541 149.506
L304.69 149.506
L304.78 148.753
L304.809 148.753
L304.915 147.247
L305.17 147.247
L305.225 146.118
L305.282 146.118
L305.359 144.612
L305.508 144.612
L305.589 143.482
L305.647 143.482
L305.683 142.353
L305.776 142.353
L305.838 141.6
L305.913 141.6
L305.98 138.965
L306.187 138.965
L306.187 138.588
L306.437 138.588
L306.499 137.459
L306.694 137.459
L306.746 136.329
L306.829 136.329
L306.918 135.576
L307.11 135.576
L307.177 134.071
L307.241 134.071
L307.278 132.941
L307.376 132.941
L307.404 131.812
L307.532 131.812
L307.576 131.059
L307.647 131.059
L307.705 129.929
L307.772 129.929
L307.817 129.176
L307.95 129.176
L307.957 128.424
L308.121 128.424
L308.171 127.294
L308.232 127.294
L308.281 126.165
L308.382 126.165
L308.442 125.035
L308.591 125.035
L308.655 123.153
L308.704 123.153
L308.706 122.4
L308.865 122.4
L308.865 122.024
L309.093 122.024
L309.132 121.271
L309.263 121.271
L309.263 120.894
L309.506 120.894
L309.585 119.765
L309.823 119.765
L309.934 117.506
L310.007 117.506
L310.028 116.376
L310.218 116.376
L310.316 115.624
L310.337 115.624
L310.349 114.494
L310.468 114.494
L310.574 112.988
L310.636 112.988
L310.727 111.482
L310.772 111.482
L310.782 110.729
L310.883 110.729
L310.965 109.976
L310.995 109.976
L311.037 108.847
L311.162 108.847
L311.162 108.471
L311.305 108.471
L311.415 106.588
L311.417 106.588
L311.507 104.706
L311.598 104.706
L311.701 103.953
L312.003 103.953
L312.003 100.188
L312.117 100.188
L312.222 98.6824
L312.472 98.6824
L312.581 97.5529
L312.654 97.5529
L312.679 96.8
L312.8 96.8
L312.878 96.0471
L312.922 96.0471
L313.028 94.9176
L313.082 94.9176
L313.19 93.4118
L313.288 93.4118
L313.375 91.9059
L313.522 91.9059
L313.616 90.7765
L313.643 90.7765
L313.715 90.0235
L314.045 90.0235
L314.089 89.2706
L314.249 89.2706
L314.313 87.3882
L314.363 87.3882
L314.363 87.0118
L314.556 87.0118
L314.636 82.8706
L314.694 82.8706
L314.779 81.7412
L315.034 81.7412
L315.034 81.3647
L315.167 81.3647
L315.265 79.8588
L315.28 79.8588
L315.28 79.4824
L315.462 79.4824
L315.564 77.9765
L315.687 77.9765
L315.787 76.4706
L315.899 76.4706
L316.002 74.9647
L316.048 74.9647
L316.048 74.5882
L316.162 74.5882
L316.266 73.4588
L316.412 73.4588
L316.43 72.3294
L316.696 72.3294
L316.696 71.9529
L316.858 71.9529
L316.964 65.9294
L317.202 65.9294
L317.293 64.8
L317.511 64.8
L317.606 63.6706
L317.645 63.6706
L317.645 63.2941
L317.985 63.2941
L318.065 62.5412
L318.145 62.5412
L318.145 62.1647
L318.345 62.1647
L318.454 61.4118
L318.613 61.4118
L318.613 60.6588
L318.757 60.6588
L318.757 60.2824
L319.067 60.2824
L319.127 59.5294
L319.639 59.5294
L319.639 59.1529
L319.787 59.1529
L319.891 58.4
L319.948 58.4
L320.024 57.6471
L320.591 57.6471
L320.591 57.2706
L320.859 57.2706
L320.952 56.1412
L320.988 56.1412
L320.988 55.7647
L321.536 55.7647
L321.536 55.3882
L321.834 55.3882
L321.858 54.6353
L322.038 54.6353
L322.075 53.8824
L322.735 53.8824
L322.817 53.1294
L322.956 53.1294
L322.971 52.3765
L323.209 52.3765
L323.209 52
L323.48 52
L323.48 51.6235
L323.764 51.6235
L323.764 51.2471
L323.997 51.2471
L323.997 50.8706
L324.14 50.8706
L324.203 49.7412
L324.646 49.7412
L324.726 48.9882
L324.819 48.9882
L324.929 48.2353
L325.073 48.2353
L325.073 47.8588
L325.607 47.8588
L325.607 47.4824
L326.366 47.4824
L326.375 46.7294
L326.598 46.7294
L326.598 46.3529
L327.026 46.3529
L327.026 45.9765
L327.256 45.9765
L327.296 45.2235
L327.377 45.2235
L327.377 44.8471
L327.538 44.8471
L327.538 44.4706
L327.705 44.4706
L327.705 44.0941
L328.198 44.0941
L328.198 43.7176
L328.41 43.7176
L328.41 43.3412
L328.621 43.3412
L328.621 42.9647
L328.877 42.9647
L328.877 42.5882
L329.253 42.5882
L329.253 42.2118
L329.46 42.2118
L329.503 41.4588
L330.111 41.4588
L330.111 39.5765
L330.24 39.5765
L330.24 39.2
L331.625 39.2
L331.625 38.8235
L332.578 38.8235
L332.578 38.4471
L333.629 38.4471
L333.629 38.0706
L334.29 38.0706
L334.29 37.6941
L334.408 37.6941
L334.408 37.3176
L334.882 37.3176
L334.882 36.9412
L335.542 36.9412
L335.542 36.5647
L335.793 36.5647
L335.793 36.1882
L336.221 36.1882
L336.221 35.8118
L338.614 35.8118
L338.614 35.4353
L342.304 35.4353
L342.304 35.0588
L342.964 35.0588
L342.964 34.6824
L343.643 34.6824
L343.643 34.3059
L346.472 34.3059
L346.472 33.9294
L347.133 33.9294
L347.133 33.5529
L347.811 33.5529
L347.811 33.1765
L378.314 33.1765
L378.322 32.4235
L381.678 32.4235
L381.687 31.6706
L388.236 31.6706
L388.244 30.9176
L388.625 30.9176
L388.634 30.1647
L390.196 30.1647
L390.204 29.4118
L391.708 29.4118
L391.716 28.6588
L392.907 28.6588
L392.915 27.9059
L393.164 27.9059
L393.164 27.5294
L394.168 27.5294
L394.177 26.7765
L396.77 26.7765
L396.778 26.0235
L398.365 26.0235
L398.365 25.6471
L399.416 25.6471
L399.416 25.2706
L400.195 25.2706
L400.195 24.8941
L401.58 24.8941
L401.58 24.5176
L404.461 24.5176
L404.469 23.7647
L408.785 23.7647
L408.794 23.0118
L412.26 23.0118
L412.26 22.6353
L412.92 22.6353
L412.92 22.2588
L413.599 22.2588
L413.599 21.8824
L481.956 21.8824
L481.956 21.8824" style="fill:none;stroke:#000000;stroke-linecap:square;stroke-width:3.0;"/>
   </g>
   <g id="line2d_2"/>
   <g id="line2d_3">
    <path clip-path="url(#p96d9120af0)" d="
M35.5563 226.203
L124.261 226.203
L124.261 224.15
L124.558 224.15
L124.558 222.096
L124.79 222.096
L124.79 220.043
L126.791 220.043
L126.791 217.989
L127.036 217.989
L127.036 215.936
L155.354 215.936
L155.354 213.882
L155.652 213.882
L155.652 211.829
L155.883 211.829
L155.883 209.775
L157.884 209.775
L157.884 207.722
L158.13 207.722
L158.13 205.668
L159.146 205.668
L159.146 203.615
L159.443 203.615
L159.443 201.561
L159.675 201.561
L159.675 199.508
L161.676 199.508
L161.676 197.455
L161.921 197.455
L161.921 195.401
L188.474 195.401
L188.474 193.348
L219.568 193.348
L219.568 191.294
L223.359 191.294
L223.359 189.241
L318.43 189.241
L318.43 187.187
L318.727 187.187
L318.727 185.134
L318.959 185.134
L318.959 183.08
L320.96 183.08
L320.96 181.027
L321.206 181.027
L321.206 178.973
L324.035 178.973
L324.035 176.92
L324.332 176.92
L324.332 174.866
L324.563 174.866
L324.563 172.813
L326.565 172.813
L326.565 170.759
L326.81 170.759
L326.81 168.706
L382.643 168.706
L382.643 166.652
L388.248 166.652
L388.248 164.599
L481.956 164.599" style="fill:none;stroke:#00bfbf;stroke-linecap:square;stroke-width:3.0;"/>
   </g>
   <g id="line2d_4"/>
   <g id="line2d_5">
    <path clip-path="url(#p96d9120af0)" d="
M35.5563 226.203
L143.558 226.203
L143.558 224.15
L143.965 224.15
L143.965 222.096
L144.192 222.096
L144.192 220.043
L144.248 220.043
L144.248 217.989
L145.073 217.989
L145.073 215.936
L174.626 215.936
L174.626 213.882
L175.033 213.882
L175.033 211.829
L175.261 211.829
L175.261 209.775
L175.317 209.775
L175.317 207.722
L176.142 207.722
L176.142 205.668
L178.419 205.668
L178.419 203.615
L178.826 203.615
L178.826 201.561
L179.053 201.561
L179.053 199.508
L179.109 199.508
L179.109 197.455
L179.934 197.455
L179.934 195.401
L190.289 195.401
L190.289 193.348
L221.357 193.348
L221.357 191.294
L225.15 191.294
L225.15 189.241
L320.903 189.241
L320.903 187.187
L321.31 187.187
L321.31 185.134
L321.537 185.134
L321.537 183.08
L321.593 183.08
L321.593 181.027
L322.418 181.027
L322.418 178.973
L324.107 178.973
L324.107 176.92
L324.514 176.92
L324.514 174.866
L324.741 174.866
L324.741 172.813
L324.797 172.813
L324.797 170.759
L325.622 170.759
L325.622 168.706
L367.633 168.706
L367.633 166.652
L370.837 166.652
L370.837 164.599
L481.956 164.599" style="fill:none;stroke:#bf00bf;stroke-linecap:square;stroke-width:3.0;"/>
   </g>
   <g id="line2d_6"/>
   <g id="line2d_7">
    <path clip-path="url(#p96d9120af0)" d="
M35.5563 226.203
L156.073 226.203
L156.073 224.15
L156.241 224.15
L156.241 222.096
L156.497 222.096
L156.497 220.043
L157.354 220.043
L157.354 217.989
L157.609 217.989
L157.609 215.936
L187.116 215.936
L187.116 213.882
L187.285 213.882
L187.285 211.829
L187.541 211.829
L187.541 209.775
L188.397 209.775
L188.397 207.722
L188.652 207.722
L188.652 205.668
L190.906 205.668
L190.906 203.615
L191.075 203.615
L191.075 201.561
L191.331 201.561
L191.331 199.508
L192.187 199.508
L192.187 197.455
L192.442 197.455
L192.442 195.401
L192.495 195.401
L192.495 193.348
L223.538 193.348
L223.538 191.294
L227.328 191.294
L227.328 189.241
L318.882 189.241
L318.882 187.187
L319.05 187.187
L319.05 185.134
L319.306 185.134
L319.306 183.08
L320.163 183.08
L320.163 181.027
L320.418 181.027
L320.418 178.973
L321.952 178.973
L321.952 176.92
L322.12 176.92
L322.12 174.866
L322.376 174.866
L322.376 172.813
L323.233 172.813
L323.233 170.759
L323.488 170.759
L323.488 168.706
L355.304 168.706
L355.304 166.652
L358.374 166.652
L358.374 164.599
L481.956 164.599" style="fill:none;stroke:#ff0000;stroke-linecap:square;stroke-width:3.0;"/>
   </g>
   <g id="line2d_8"/>
   <g id="line2d_9">
    <path clip-path="url(#p96d9120af0)" d="
M258.756 352.8
L258.756 7.2" style="fill:none;stroke:#000000;stroke-linecap:square;"/>
   </g>
   <g id="line2d_10">
    <path clip-path="url(#p96d9120af0)" d="
M35.5563 180
L481.956 180" style="fill:none;stroke:#000000;stroke-dasharray:1.000000,3.000000;stroke-dashoffset:0.0;stroke-width:2;"/>
   </g>
   <g id="matplotlib.axis_1">
    <g id="xtick_1">
     <g id="line2d_11">
      <path clip-path="url(#p96d9120af0)" d="
M35.5563 352.8
L35.5563 7.2" style="fill:none;stroke:#000000;stroke-dasharray:1.000000,3.000000;stroke-dashoffset:0.0;stroke-width:0.5;"/>
     </g>
     <g id="line2d_12">
      <defs>
       <path d="
M0 0
L0 -4" id="m93b0483c22" style="stroke:#000000;stroke-width:0.5;"/>
      </defs>
      <g>
       <use style="stroke:#000000;stroke-width:0.5;" x="35.55625" xlink:href="#m93b0483c22" y="352.8"/>
      </g>
     </g>
     <g id="line2d_13">
      <defs>
       <path d="
M0 0
L0 4" id="m741efc42ff" style="stroke:#000000;stroke-width:0.5;"/>
      </defs>
      <g>
       <use style="stroke:#000000;stroke-width:0.5;" x="35.55625" xlink:href="#m741efc42ff" y="7.2"/>
      </g>
     </g>
     <g id="text_1">
      <!-- -4 -->
      <defs>
       <path d="
M4.89062 31.3906
L31.2031 31.3906
L31.2031 23.3906
L4.89062 23.3906
z
" id="BitstreamVeraSans-Roman-2d"/>
       <path d="
M37.7969 64.3125
L12.8906 25.3906
L37.7969 25.3906
z

M35.2031 72.9062
L47.6094 72.9062
L47.6094 25.3906
L58.0156 25.3906
L58.0156 17.1875
L47.6094 17.1875
L47.6094 0
L37.7969 0
L37.7969 17.1875
L4.89062 17.1875
L4.89062 26.7031
z
" id="BitstreamVeraSans-Roman-34"/>
      </defs>
      <g transform="translate(26.6359375 371.996875)scale(0.2 -0.2)">
       <use xlink:href="#BitstreamVeraSans-Roman-2d"/>
       <use x="36.083984375" xlink:href="#BitstreamVeraSans-Roman-34"/>
      </g>
     </g>
    </g>
    <g id="xtick_2">
     <g id="line2d_14">
      <path clip-path="url(#p96d9120af0)" d="
M91.3562 352.8
L91.3562 7.2" style="fill:none;stroke:#000000;stroke-dasharray:1.000000,3.000000;stroke-dashoffset:0.0;stroke-width:0.5;"/>
     </g>
     <g id="line2d_15">
      <g>
       <use style="stroke:#000000;stroke-width:0.5;" x="91.35625" xlink:href="#m93b0483c22" y="352.8"/>
      </g>
     </g>
     <g id="line2d_16">
      <g>
       <use style="stroke:#000000;stroke-width:0.5;" x="91.35625" xlink:href="#m741efc42ff" y="7.2"/>
      </g>
     </g>
     <g id="text_2">
      <!-- -3 -->
      <defs>
       <path d="
M40.5781 39.3125
Q47.6562 37.7969 51.625 33
Q55.6094 28.2188 55.6094 21.1875
Q55.6094 10.4062 48.1875 4.48438
Q40.7656 -1.42188 27.0938 -1.42188
Q22.5156 -1.42188 17.6562 -0.515625
Q12.7969 0.390625 7.625 2.20312
L7.625 11.7188
Q11.7188 9.32812 16.5938 8.10938
Q21.4844 6.89062 26.8125 6.89062
Q36.0781 6.89062 40.9375 10.5469
Q45.7969 14.2031 45.7969 21.1875
Q45.7969 27.6406 41.2812 31.2656
Q36.7656 34.9062 28.7188 34.9062
L20.2188 34.9062
L20.2188 43.0156
L29.1094 43.0156
Q36.375 43.0156 40.2344 45.9219
Q44.0938 48.8281 44.0938 54.2969
Q44.0938 59.9062 40.1094 62.9062
Q36.1406 65.9219 28.7188 65.9219
Q24.6562 65.9219 20.0156 65.0312
Q15.375 64.1562 9.8125 62.3125
L9.8125 71.0938
Q15.4375 72.6562 20.3438 73.4375
Q25.25 74.2188 29.5938 74.2188
Q40.8281 74.2188 47.3594 69.1094
Q53.9062 64.0156 53.9062 55.3281
Q53.9062 49.2656 50.4375 45.0938
Q46.9688 40.9219 40.5781 39.3125" id="BitstreamVeraSans-Roman-33"/>
      </defs>
      <g transform="translate(82.6765625 371.996875)scale(0.2 -0.2)">
       <use xlink:href="#BitstreamVeraSans-Roman-2d"/>
       <use x="36.083984375" xlink:href="#BitstreamVeraSans-Roman-33"/>
      </g>
     </g>
    </g>
    <g id="xtick_3">
     <g id="line2d_17">
      <path clip-path="url(#p96d9120af0)" d="
M147.156 352.8
L147.156 7.2" style="fill:none;stroke:#000000;stroke-dasharray:1.000000,3.000000;stroke-dashoffset:0.0;stroke-width:0.5;"/>
     </g>
     <g id="line2d_18">
      <g>
       <use style="stroke:#000000;stroke-width:0.5;" x="147.15625" xlink:href="#m93b0483c22" y="352.8"/>
      </g>
     </g>
     <g id="line2d_19">
      <g>
       <use style="stroke:#000000;stroke-width:0.5;" x="147.15625" xlink:href="#m741efc42ff" y="7.2"/>
      </g>
     </g>
     <g id="text_3">
      <!-- -2 -->
      <defs>
       <path d="
M19.1875 8.29688
L53.6094 8.29688
L53.6094 0
L7.32812 0
L7.32812 8.29688
Q12.9375 14.1094 22.625 23.8906
Q32.3281 33.6875 34.8125 36.5312
Q39.5469 41.8438 41.4219 45.5312
Q43.3125 49.2188 43.3125 52.7812
Q43.3125 58.5938 39.2344 62.25
Q35.1562 65.9219 28.6094 65.9219
Q23.9688 65.9219 18.8125 64.3125
Q13.6719 62.7031 7.8125 59.4219
L7.8125 69.3906
Q13.7656 71.7812 18.9375 73
Q24.125 74.2188 28.4219 74.2188
Q39.75 74.2188 46.4844 68.5469
Q53.2188 62.8906 53.2188 53.4219
Q53.2188 48.9219 51.5312 44.8906
Q49.8594 40.875 45.4062 35.4062
Q44.1875 33.9844 37.6406 27.2188
Q31.1094 20.4531 19.1875 8.29688" id="BitstreamVeraSans-Roman-32"/>
      </defs>
      <g transform="translate(138.6765625 371.996875)scale(0.2 -0.2)">
       <use xlink:href="#BitstreamVeraSans-Roman-2d"/>
       <use x="36.083984375" xlink:href="#BitstreamVeraSans-Roman-32"/>
      </g>
     </g>
    </g>
    <g id="xtick_4">
     <g id="line2d_20">
      <path clip-path="url(#p96d9120af0)" d="
M202.956 352.8
L202.956 7.2" style="fill:none;stroke:#000000;stroke-dasharray:1.000000,3.000000;stroke-dashoffset:0.0;stroke-width:0.5;"/>
     </g>
     <g id="line2d_21">
      <g>
       <use style="stroke:#000000;stroke-width:0.5;" x="202.95625" xlink:href="#m93b0483c22" y="352.8"/>
      </g>
     </g>
     <g id="line2d_22">
      <g>
       <use style="stroke:#000000;stroke-width:0.5;" x="202.95625" xlink:href="#m741efc42ff" y="7.2"/>
      </g>
     </g>
     <g id="text_4">
      <!-- -1 -->
      <defs>
       <path d="
M12.4062 8.29688
L28.5156 8.29688
L28.5156 63.9219
L10.9844 60.4062
L10.9844 69.3906
L28.4219 72.9062
L38.2812 72.9062
L38.2812 8.29688
L54.3906 8.29688
L54.3906 0
L12.4062 0
z
" id="BitstreamVeraSans-Roman-31"/>
      </defs>
      <g transform="translate(194.3984375 371.996875)scale(0.2 -0.2)">
       <use xlink:href="#BitstreamVeraSans-Roman-2d"/>
       <use x="36.083984375" xlink:href="#BitstreamVeraSans-Roman-31"/>
      </g>
     </g>
    </g>
    <g id="xtick_5">
     <g id="line2d_23">
      <path clip-path="url(#p96d9120af0)" d="
M258.756 352.8
L258.756 7.2" style="fill:none;stroke:#000000;stroke-dasharray:1.000000,3.000000;stroke-dashoffset:0.0;stroke-width:0.5;"/>
     </g>
     <g id="line2d_24">
      <g>
       <use style="stroke:#000000;stroke-width:0.5;" x="258.75625" xlink:href="#m93b0483c22" y="352.8"/>
      </g>
     </g>
     <g id="line2d_25">
      <g>
       <use style="stroke:#000000;stroke-width:0.5;" x="258.75625" xlink:href="#m741efc42ff" y="7.2"/>
      </g>
     </g>
     <g id="text_5">
      <!-- 0 -->
      <defs>
       <path d="
M31.7812 66.4062
Q24.1719 66.4062 20.3281 58.9062
Q16.5 51.4219 16.5 36.375
Q16.5 21.3906 20.3281 13.8906
Q24.1719 6.39062 31.7812 6.39062
Q39.4531 6.39062 43.2812 13.8906
Q47.125 21.3906 47.125 36.375
Q47.125 51.4219 43.2812 58.9062
Q39.4531 66.4062 31.7812 66.4062
M31.7812 74.2188
Q44.0469 74.2188 50.5156 64.5156
Q56.9844 54.8281 56.9844 36.375
Q56.9844 17.9688 50.5156 8.26562
Q44.0469 -1.42188 31.7812 -1.42188
Q19.5312 -1.42188 13.0625 8.26562
Q6.59375 17.9688 6.59375 36.375
Q6.59375 54.8281 13.0625 64.5156
Q19.5312 74.2188 31.7812 74.2188" id="BitstreamVeraSans-Roman-30"/>
      </defs>
      <g transform="translate(253.7171875 371.996875)scale(0.2 -0.2)">
       <use xlink:href="#BitstreamVeraSans-Roman-30"/>
      </g>
     </g>
    </g>
    <g id="xtick_6">
     <g id="line2d_26">
      <path clip-path="url(#p96d9120af0)" d="
M314.556 352.8
L314.556 7.2" style="fill:none;stroke:#000000;stroke-dasharray:1.000000,3.000000;stroke-dashoffset:0.0;stroke-width:0.5;"/>
     </g>
     <g id="line2d_27">
      <g>
       <use style="stroke:#000000;stroke-width:0.5;" x="314.55625" xlink:href="#m93b0483c22" y="352.8"/>
      </g>
     </g>
     <g id="line2d_28">
      <g>
       <use style="stroke:#000000;stroke-width:0.5;" x="314.55625" xlink:href="#m741efc42ff" y="7.2"/>
      </g>
     </g>
     <g id="text_6">
      <!-- 1 -->
      <g transform="translate(310.215625 371.996875)scale(0.2 -0.2)">
       <use xlink:href="#BitstreamVeraSans-Roman-31"/>
      </g>
     </g>
    </g>
    <g id="xtick_7">
     <g id="line2d_29">
      <path clip-path="url(#p96d9120af0)" d="
M370.356 352.8
L370.356 7.2" style="fill:none;stroke:#000000;stroke-dasharray:1.000000,3.000000;stroke-dashoffset:0.0;stroke-width:0.5;"/>
     </g>
     <g id="line2d_30">
      <g>
       <use style="stroke:#000000;stroke-width:0.5;" x="370.35625" xlink:href="#m93b0483c22" y="352.8"/>
      </g>
     </g>
     <g id="line2d_31">
      <g>
       <use style="stroke:#000000;stroke-width:0.5;" x="370.35625" xlink:href="#m741efc42ff" y="7.2"/>
      </g>
     </g>
     <g id="text_7">
      <!-- 2 -->
      <g transform="translate(365.728125 371.996875)scale(0.2 -0.2)">
       <use xlink:href="#BitstreamVeraSans-Roman-32"/>
      </g>
     </g>
    </g>
    <g id="xtick_8">
     <g id="line2d_32">
      <path clip-path="url(#p96d9120af0)" d="
M426.156 352.8
L426.156 7.2" style="fill:none;stroke:#000000;stroke-dasharray:1.000000,3.000000;stroke-dashoffset:0.0;stroke-width:0.5;"/>
     </g>
     <g id="line2d_33">
      <g>
       <use style="stroke:#000000;stroke-width:0.5;" x="426.15625" xlink:href="#m93b0483c22" y="352.8"/>
      </g>
     </g>
     <g id="line2d_34">
      <g>
       <use style="stroke:#000000;stroke-width:0.5;" x="426.15625" xlink:href="#m741efc42ff" y="7.2"/>
      </g>
     </g>
     <g id="text_8">
      <!-- 3 -->
      <g transform="translate(421.3578125 371.996875)scale(0.2 -0.2)">
       <use xlink:href="#BitstreamVeraSans-Roman-33"/>
      </g>
     </g>
    </g>
    <g id="xtick_9">
     <g id="line2d_35">
      <path clip-path="url(#p96d9120af0)" d="
M481.956 352.8
L481.956 7.2" style="fill:none;stroke:#000000;stroke-dasharray:1.000000,3.000000;stroke-dashoffset:0.0;stroke-width:0.5;"/>
     </g>
     <g id="line2d_36">
      <g>
       <use style="stroke:#000000;stroke-width:0.5;" x="481.95625" xlink:href="#m93b0483c22" y="352.8"/>
      </g>
     </g>
     <g id="line2d_37">
      <g>
       <use style="stroke:#000000;stroke-width:0.5;" x="481.95625" xlink:href="#m741efc42ff" y="7.2"/>
      </g>
     </g>
     <g id="text_9">
      <!-- 4 -->
      <g transform="translate(476.64375 371.996875)scale(0.2 -0.2)">
       <use xlink:href="#BitstreamVeraSans-Roman-34"/>
      </g>
     </g>
    </g>
    <g id="xtick_10">
     <g id="line2d_38">
      <defs>
       <path d="
M0 0
L0 -2" id="m177f7580d0" style="stroke:#000000;stroke-width:0.5;"/>
      </defs>
      <g>
       <use style="stroke:#000000;stroke-width:0.5;" x="40.9638287258" xlink:href="#m177f7580d0" y="352.8"/>
      </g>
     </g>
     <g id="line2d_39">
      <defs>
       <path d="
M0 0
L0 2" id="m5284c7e2a0" style="stroke:#000000;stroke-width:0.5;"/>
      </defs>
      <g>
       <use style="stroke:#000000;stroke-width:0.5;" x="40.9638287258" xlink:href="#m5284c7e2a0" y="7.2"/>
      </g>
     </g>
    </g>
    <g id="xtick_11">
     <g id="line2d_40">
      <g>
       <use style="stroke:#000000;stroke-width:0.5;" x="47.9354102286" xlink:href="#m177f7580d0" y="352.8"/>
      </g>
     </g>
     <g id="line2d_41">
      <g>
       <use style="stroke:#000000;stroke-width:0.5;" x="47.9354102286" xlink:href="#m5284c7e2a0" y="7.2"/>
      </g>
     </g>
    </g>
    <g id="xtick_12">
     <g id="line2d_42">
      <g>
       <use style="stroke:#000000;stroke-width:0.5;" x="57.7613024839" xlink:href="#m177f7580d0" y="352.8"/>
      </g>
     </g>
     <g id="line2d_43">
      <g>
       <use style="stroke:#000000;stroke-width:0.5;" x="57.7613024839" xlink:href="#m5284c7e2a0" y="7.2"/>
      </g>
     </g>
    </g>
    <g id="xtick_13">
     <g id="line2d_44">
      <g>
       <use style="stroke:#000000;stroke-width:0.5;" x="74.5587762419" xlink:href="#m177f7580d0" y="352.8"/>
      </g>
     </g>
     <g id="line2d_45">
      <g>
       <use style="stroke:#000000;stroke-width:0.5;" x="74.5587762419" xlink:href="#m5284c7e2a0" y="7.2"/>
      </g>
     </g>
    </g>
    <g id="xtick_14">
     <g id="line2d_46">
      <g>
       <use style="stroke:#000000;stroke-width:0.5;" x="96.7638287258" xlink:href="#m177f7580d0" y="352.8"/>
      </g>
     </g>
     <g id="line2d_47">
      <g>
       <use style="stroke:#000000;stroke-width:0.5;" x="96.7638287258" xlink:href="#m5284c7e2a0" y="7.2"/>
      </g>
     </g>
    </g>
    <g id="xtick_15">
     <g id="line2d_48">
      <g>
       <use style="stroke:#000000;stroke-width:0.5;" x="103.735410229" xlink:href="#m177f7580d0" y="352.8"/>
      </g>
     </g>
     <g id="line2d_49">
      <g>
       <use style="stroke:#000000;stroke-width:0.5;" x="103.735410229" xlink:href="#m5284c7e2a0" y="7.2"/>
      </g>
     </g>
    </g>
    <g id="xtick_16">
     <g id="line2d_50">
      <g>
       <use style="stroke:#000000;stroke-width:0.5;" x="113.561302484" xlink:href="#m177f7580d0" y="352.8"/>
      </g>
     </g>
     <g id="line2d_51">
      <g>
       <use style="stroke:#000000;stroke-width:0.5;" x="113.561302484" xlink:href="#m5284c7e2a0" y="7.2"/>
      </g>
     </g>
    </g>
    <g id="xtick_17">
     <g id="line2d_52">
      <g>
       <use style="stroke:#000000;stroke-width:0.5;" x="130.358776242" xlink:href="#m177f7580d0" y="352.8"/>
      </g>
     </g>
     <g id="line2d_53">
      <g>
       <use style="stroke:#000000;stroke-width:0.5;" x="130.358776242" xlink:href="#m5284c7e2a0" y="7.2"/>
      </g>
     </g>
    </g>
    <g id="xtick_18">
     <g id="line2d_54">
      <g>
       <use style="stroke:#000000;stroke-width:0.5;" x="152.563828726" xlink:href="#m177f7580d0" y="352.8"/>
      </g>
     </g>
     <g id="line2d_55">
      <g>
       <use style="stroke:#000000;stroke-width:0.5;" x="152.563828726" xlink:href="#m5284c7e2a0" y="7.2"/>
      </g>
     </g>
    </g>
    <g id="xtick_19">
     <g id="line2d_56">
      <g>
       <use style="stroke:#000000;stroke-width:0.5;" x="159.535410229" xlink:href="#m177f7580d0" y="352.8"/>
      </g>
     </g>
     <g id="line2d_57">
      <g>
       <use style="stroke:#000000;stroke-width:0.5;" x="159.535410229" xlink:href="#m5284c7e2a0" y="7.2"/>
      </g>
     </g>
    </g>
    <g id="xtick_20">
     <g id="line2d_58">
      <g>
       <use style="stroke:#000000;stroke-width:0.5;" x="169.361302484" xlink:href="#m177f7580d0" y="352.8"/>
      </g>
     </g>
     <g id="line2d_59">
      <g>
       <use style="stroke:#000000;stroke-width:0.5;" x="169.361302484" xlink:href="#m5284c7e2a0" y="7.2"/>
      </g>
     </g>
    </g>
    <g id="xtick_21">
     <g id="line2d_60">
      <g>
       <use style="stroke:#000000;stroke-width:0.5;" x="186.158776242" xlink:href="#m177f7580d0" y="352.8"/>
      </g>
     </g>
     <g id="line2d_61">
      <g>
       <use style="stroke:#000000;stroke-width:0.5;" x="186.158776242" xlink:href="#m5284c7e2a0" y="7.2"/>
      </g>
     </g>
    </g>
    <g id="xtick_22">
     <g id="line2d_62">
      <g>
       <use style="stroke:#000000;stroke-width:0.5;" x="208.363828726" xlink:href="#m177f7580d0" y="352.8"/>
      </g>
     </g>
     <g id="line2d_63">
      <g>
       <use style="stroke:#000000;stroke-width:0.5;" x="208.363828726" xlink:href="#m5284c7e2a0" y="7.2"/>
      </g>
     </g>
    </g>
    <g id="xtick_23">
     <g id="line2d_64">
      <g>
       <use style="stroke:#000000;stroke-width:0.5;" x="215.335410229" xlink:href="#m177f7580d0" y="352.8"/>
      </g>
     </g>
     <g id="line2d_65">
      <g>
       <use style="stroke:#000000;stroke-width:0.5;" x="215.335410229" xlink:href="#m5284c7e2a0" y="7.2"/>
      </g>
     </g>
    </g>
    <g id="xtick_24">
     <g id="line2d_66">
      <g>
       <use style="stroke:#000000;stroke-width:0.5;" x="225.161302484" xlink:href="#m177f7580d0" y="352.8"/>
      </g>
     </g>
     <g id="line2d_67">
      <g>
       <use style="stroke:#000000;stroke-width:0.5;" x="225.161302484" xlink:href="#m5284c7e2a0" y="7.2"/>
      </g>
     </g>
    </g>
    <g id="xtick_25">
     <g id="line2d_68">
      <g>
       <use style="stroke:#000000;stroke-width:0.5;" x="241.958776242" xlink:href="#m177f7580d0" y="352.8"/>
      </g>
     </g>
     <g id="line2d_69">
      <g>
       <use style="stroke:#000000;stroke-width:0.5;" x="241.958776242" xlink:href="#m5284c7e2a0" y="7.2"/>
      </g>
     </g>
    </g>
    <g id="xtick_26">
     <g id="line2d_70">
      <g>
       <use style="stroke:#000000;stroke-width:0.5;" x="275.553723758" xlink:href="#m177f7580d0" y="352.8"/>
      </g>
     </g>
     <g id="line2d_71">
      <g>
       <use style="stroke:#000000;stroke-width:0.5;" x="275.553723758" xlink:href="#m5284c7e2a0" y="7.2"/>
      </g>
     </g>
    </g>
    <g id="xtick_27">
     <g id="line2d_72">
      <g>
       <use style="stroke:#000000;stroke-width:0.5;" x="292.351197516" xlink:href="#m177f7580d0" y="352.8"/>
      </g>
     </g>
     <g id="line2d_73">
      <g>
       <use style="stroke:#000000;stroke-width:0.5;" x="292.351197516" xlink:href="#m5284c7e2a0" y="7.2"/>
      </g>
     </g>
    </g>
    <g id="xtick_28">
     <g id="line2d_74">
      <g>
       <use style="stroke:#000000;stroke-width:0.5;" x="302.177089771" xlink:href="#m177f7580d0" y="352.8"/>
      </g>
     </g>
     <g id="line2d_75">
      <g>
       <use style="stroke:#000000;stroke-width:0.5;" x="302.177089771" xlink:href="#m5284c7e2a0" y="7.2"/>
      </g>
     </g>
    </g>
    <g id="xtick_29">
     <g id="line2d_76">
      <g>
       <use style="stroke:#000000;stroke-width:0.5;" x="309.148671274" xlink:href="#m177f7580d0" y="352.8"/>
      </g>
     </g>
     <g id="line2d_77">
      <g>
       <use style="stroke:#000000;stroke-width:0.5;" x="309.148671274" xlink:href="#m5284c7e2a0" y="7.2"/>
      </g>
     </g>
    </g>
    <g id="xtick_30">
     <g id="line2d_78">
      <g>
       <use style="stroke:#000000;stroke-width:0.5;" x="331.353723758" xlink:href="#m177f7580d0" y="352.8"/>
      </g>
     </g>
     <g id="line2d_79">
      <g>
       <use style="stroke:#000000;stroke-width:0.5;" x="331.353723758" xlink:href="#m5284c7e2a0" y="7.2"/>
      </g>
     </g>
    </g>
    <g id="xtick_31">
     <g id="line2d_80">
      <g>
       <use style="stroke:#000000;stroke-width:0.5;" x="348.151197516" xlink:href="#m177f7580d0" y="352.8"/>
      </g>
     </g>
     <g id="line2d_81">
      <g>
       <use style="stroke:#000000;stroke-width:0.5;" x="348.151197516" xlink:href="#m5284c7e2a0" y="7.2"/>
      </g>
     </g>
    </g>
    <g id="xtick_32">
     <g id="line2d_82">
      <g>
       <use style="stroke:#000000;stroke-width:0.5;" x="357.977089771" xlink:href="#m177f7580d0" y="352.8"/>
      </g>
     </g>
     <g id="line2d_83">
      <g>
       <use style="stroke:#000000;stroke-width:0.5;" x="357.977089771" xlink:href="#m5284c7e2a0" y="7.2"/>
      </g>
     </g>
    </g>
    <g id="xtick_33">
     <g id="line2d_84">
      <g>
       <use style="stroke:#000000;stroke-width:0.5;" x="364.948671274" xlink:href="#m177f7580d0" y="352.8"/>
      </g>
     </g>
     <g id="line2d_85">
      <g>
       <use style="stroke:#000000;stroke-width:0.5;" x="364.948671274" xlink:href="#m5284c7e2a0" y="7.2"/>
      </g>
     </g>
    </g>
    <g id="xtick_34">
     <g id="line2d_86">
      <g>
       <use style="stroke:#000000;stroke-width:0.5;" x="387.153723758" xlink:href="#m177f7580d0" y="352.8"/>
      </g>
     </g>
     <g id="line2d_87">
      <g>
       <use style="stroke:#000000;stroke-width:0.5;" x="387.153723758" xlink:href="#m5284c7e2a0" y="7.2"/>
      </g>
     </g>
    </g>
    <g id="xtick_35">
     <g id="line2d_88">
      <g>
       <use style="stroke:#000000;stroke-width:0.5;" x="403.951197516" xlink:href="#m177f7580d0" y="352.8"/>
      </g>
     </g>
     <g id="line2d_89">
      <g>
       <use style="stroke:#000000;stroke-width:0.5;" x="403.951197516" xlink:href="#m5284c7e2a0" y="7.2"/>
      </g>
     </g>
    </g>
    <g id="xtick_36">
     <g id="line2d_90">
      <g>
       <use style="stroke:#000000;stroke-width:0.5;" x="413.777089771" xlink:href="#m177f7580d0" y="352.8"/>
      </g>
     </g>
     <g id="line2d_91">
      <g>
       <use style="stroke:#000000;stroke-width:0.5;" x="413.777089771" xlink:href="#m5284c7e2a0" y="7.2"/>
      </g>
     </g>
    </g>
    <g id="xtick_37">
     <g id="line2d_92">
      <g>
       <use style="stroke:#000000;stroke-width:0.5;" x="420.748671274" xlink:href="#m177f7580d0" y="352.8"/>
      </g>
     </g>
     <g id="line2d_93">
      <g>
       <use style="stroke:#000000;stroke-width:0.5;" x="420.748671274" xlink:href="#m5284c7e2a0" y="7.2"/>
      </g>
     </g>
    </g>
    <g id="xtick_38">
     <g id="line2d_94">
      <g>
       <use style="stroke:#000000;stroke-width:0.5;" x="442.953723758" xlink:href="#m177f7580d0" y="352.8"/>
      </g>
     </g>
     <g id="line2d_95">
      <g>
       <use style="stroke:#000000;stroke-width:0.5;" x="442.953723758" xlink:href="#m5284c7e2a0" y="7.2"/>
      </g>
     </g>
    </g>
    <g id="xtick_39">
     <g id="line2d_96">
      <g>
       <use style="stroke:#000000;stroke-width:0.5;" x="459.751197516" xlink:href="#m177f7580d0" y="352.8"/>
      </g>
     </g>
     <g id="line2d_97">
      <g>
       <use style="stroke:#000000;stroke-width:0.5;" x="459.751197516" xlink:href="#m5284c7e2a0" y="7.2"/>
      </g>
     </g>
    </g>
    <g id="xtick_40">
     <g id="line2d_98">
      <g>
       <use style="stroke:#000000;stroke-width:0.5;" x="469.577089771" xlink:href="#m177f7580d0" y="352.8"/>
      </g>
     </g>
     <g id="line2d_99">
      <g>
       <use style="stroke:#000000;stroke-width:0.5;" x="469.577089771" xlink:href="#m5284c7e2a0" y="7.2"/>
      </g>
     </g>
    </g>
    <g id="xtick_41">
     <g id="line2d_100">
      <g>
       <use style="stroke:#000000;stroke-width:0.5;" x="476.548671274" xlink:href="#m177f7580d0" y="352.8"/>
      </g>
     </g>
     <g id="line2d_101">
      <g>
       <use style="stroke:#000000;stroke-width:0.5;" x="476.548671274" xlink:href="#m5284c7e2a0" y="7.2"/>
      </g>
     </g>
    </g>
    <g id="text_10">
     <!-- log10 of FEvals ratio -->
     <defs>
      <path id="BitstreamVeraSans-Roman-20"/>
      <path d="
M41.1094 46.2969
Q39.5938 47.1719 37.8125 47.5781
Q36.0312 48 33.8906 48
Q26.2656 48 22.1875 43.0469
Q18.1094 38.0938 18.1094 28.8125
L18.1094 0
L9.07812 0
L9.07812 54.6875
L18.1094 54.6875
L18.1094 46.1875
Q20.9531 51.1719 25.4844 53.5781
Q30.0312 56 36.5312 56
Q37.4531 56 38.5781 55.875
Q39.7031 55.7656 41.0625 55.5156
z
" id="BitstreamVeraSans-Roman-72"/>
      <path d="
M30.6094 48.3906
Q23.3906 48.3906 19.1875 42.75
Q14.9844 37.1094 14.9844 27.2969
Q14.9844 17.4844 19.1562 11.8438
Q23.3438 6.20312 30.6094 6.20312
Q37.7969 6.20312 41.9844 11.8594
Q46.1875 17.5312 46.1875 27.2969
Q46.1875 37.0156 41.9844 42.7031
Q37.7969 48.3906 30.6094 48.3906
M30.6094 56
Q42.3281 56 49.0156 48.375
Q55.7188 40.7656 55.7188 27.2969
Q55.7188 13.875 49.0156 6.21875
Q42.3281 -1.42188 30.6094 -1.42188
Q18.8438 -1.42188 12.1719 6.21875
Q5.51562 13.875 5.51562 27.2969
Q5.51562 40.7656 12.1719 48.375
Q18.8438 56 30.6094 56" id="BitstreamVeraSans-Roman-6f"/>
      <path d="
M18.3125 70.2188
L18.3125 54.6875
L36.8125 54.6875
L36.8125 47.7031
L18.3125 47.7031
L18.3125 18.0156
Q18.3125 11.3281 20.1406 9.42188
Q21.9688 7.51562 27.5938 7.51562
L36.8125 7.51562
L36.8125 0
L27.5938 0
Q17.1875 0 13.2344 3.875
Q9.28125 7.76562 9.28125 18.0156
L9.28125 47.7031
L2.6875 47.7031
L2.6875 54.6875
L9.28125 54.6875
L9.28125 70.2188
z
" id="BitstreamVeraSans-Roman-74"/>
      <path d="
M9.42188 75.9844
L18.4062 75.9844
L18.4062 0
L9.42188 0
z
" id="BitstreamVeraSans-Roman-6c"/>
      <path d="
M9.8125 72.9062
L51.7031 72.9062
L51.7031 64.5938
L19.6719 64.5938
L19.6719 43.1094
L48.5781 43.1094
L48.5781 34.8125
L19.6719 34.8125
L19.6719 0
L9.8125 0
z
" id="BitstreamVeraSans-Roman-46"/>
      <path d="
M9.8125 72.9062
L55.9062 72.9062
L55.9062 64.5938
L19.6719 64.5938
L19.6719 43.0156
L54.3906 43.0156
L54.3906 34.7188
L19.6719 34.7188
L19.6719 8.29688
L56.7812 8.29688
L56.7812 0
L9.8125 0
z
" id="BitstreamVeraSans-Roman-45"/>
      <path d="
M9.42188 54.6875
L18.4062 54.6875
L18.4062 0
L9.42188 0
z

M9.42188 75.9844
L18.4062 75.9844
L18.4062 64.5938
L9.42188 64.5938
z
" id="BitstreamVeraSans-Roman-69"/>
      <path d="
M2.98438 54.6875
L12.5 54.6875
L29.5938 8.79688
L46.6875 54.6875
L56.2031 54.6875
L35.6875 0
L23.4844 0
z
" id="BitstreamVeraSans-Roman-76"/>
      <path d="
M45.4062 27.9844
Q45.4062 37.75 41.375 43.1094
Q37.3594 48.4844 30.0781 48.4844
Q22.8594 48.4844 18.8281 43.1094
Q14.7969 37.75 14.7969 27.9844
Q14.7969 18.2656 18.8281 12.8906
Q22.8594 7.51562 30.0781 7.51562
Q37.3594 7.51562 41.375 12.8906
Q45.4062 18.2656 45.4062 27.9844
M54.3906 6.78125
Q54.3906 -7.17188 48.1875 -13.9844
Q42 -20.7969 29.2031 -20.7969
Q24.4688 -20.7969 20.2656 -20.0938
Q16.0625 -19.3906 12.1094 -17.9219
L12.1094 -9.1875
Q16.0625 -11.3281 19.9219 -12.3438
Q23.7812 -13.375 27.7812 -13.375
Q36.625 -13.375 41.0156 -8.76562
Q45.4062 -4.15625 45.4062 5.17188
L45.4062 9.625
Q42.625 4.78125 38.2812 2.39062
Q33.9375 0 27.875 0
Q17.8281 0 11.6719 7.65625
Q5.51562 15.3281 5.51562 27.9844
Q5.51562 40.6719 11.6719 48.3281
Q17.8281 56 27.875 56
Q33.9375 56 38.2812 53.6094
Q42.625 51.2188 45.4062 46.3906
L45.4062 54.6875
L54.3906 54.6875
z
" id="BitstreamVeraSans-Roman-67"/>
      <path d="
M37.1094 75.9844
L37.1094 68.5
L28.5156 68.5
Q23.6875 68.5 21.7969 66.5469
Q19.9219 64.5938 19.9219 59.5156
L19.9219 54.6875
L34.7188 54.6875
L34.7188 47.7031
L19.9219 47.7031
L19.9219 0
L10.8906 0
L10.8906 47.7031
L2.29688 47.7031
L2.29688 54.6875
L10.8906 54.6875
L10.8906 58.5
Q10.8906 67.625 15.1406 71.7969
Q19.3906 75.9844 28.6094 75.9844
z
" id="BitstreamVeraSans-Roman-66"/>
      <path d="
M34.2812 27.4844
Q23.3906 27.4844 19.1875 25
Q14.9844 22.5156 14.9844 16.5
Q14.9844 11.7188 18.1406 8.90625
Q21.2969 6.10938 26.7031 6.10938
Q34.1875 6.10938 38.7031 11.4062
Q43.2188 16.7031 43.2188 25.4844
L43.2188 27.4844
z

M52.2031 31.2031
L52.2031 0
L43.2188 0
L43.2188 8.29688
Q40.1406 3.32812 35.5469 0.953125
Q30.9531 -1.42188 24.3125 -1.42188
Q15.9219 -1.42188 10.9531 3.29688
Q6 8.01562 6 15.9219
Q6 25.1406 12.1719 29.8281
Q18.3594 34.5156 30.6094 34.5156
L43.2188 34.5156
L43.2188 35.4062
Q43.2188 41.6094 39.1406 45
Q35.0625 48.3906 27.6875 48.3906
Q23 48.3906 18.5469 47.2656
Q14.1094 46.1406 10.0156 43.8906
L10.0156 52.2031
Q14.9375 54.1094 19.5781 55.0469
Q24.2188 56 28.6094 56
Q40.4844 56 46.3438 49.8438
Q52.2031 43.7031 52.2031 31.2031" id="BitstreamVeraSans-Roman-61"/>
      <path d="
M44.2812 53.0781
L44.2812 44.5781
Q40.4844 46.5312 36.375 47.5
Q32.2812 48.4844 27.875 48.4844
Q21.1875 48.4844 17.8438 46.4375
Q14.5 44.3906 14.5 40.2812
Q14.5 37.1562 16.8906 35.375
Q19.2812 33.5938 26.5156 31.9844
L29.5938 31.2969
Q39.1562 29.25 43.1875 25.5156
Q47.2188 21.7812 47.2188 15.0938
Q47.2188 7.46875 41.1875 3.01562
Q35.1562 -1.42188 24.6094 -1.42188
Q20.2188 -1.42188 15.4531 -0.5625
Q10.6875 0.296875 5.42188 2
L5.42188 11.2812
Q10.4062 8.6875 15.2344 7.39062
Q20.0625 6.10938 24.8125 6.10938
Q31.1562 6.10938 34.5625 8.28125
Q37.9844 10.4531 37.9844 14.4062
Q37.9844 18.0625 35.5156 20.0156
Q33.0625 21.9688 24.7031 23.7812
L21.5781 24.5156
Q13.2344 26.2656 9.51562 29.9062
Q5.8125 33.5469 5.8125 39.8906
Q5.8125 47.6094 11.2812 51.7969
Q16.75 56 26.8125 56
Q31.7812 56 36.1719 55.2656
Q40.5781 54.5469 44.2812 53.0781" id="BitstreamVeraSans-Roman-73"/>
     </defs>
     <g transform="translate(156.9984375 396.353125)scale(0.2 -0.2)">
      <use xlink:href="#BitstreamVeraSans-Roman-6c"/>
      <use x="27.783203125" xlink:href="#BitstreamVeraSans-Roman-6f"/>
      <use x="88.96484375" xlink:href="#BitstreamVeraSans-Roman-67"/>
      <use x="152.44140625" xlink:href="#BitstreamVeraSans-Roman-31"/>
      <use x="216.064453125" xlink:href="#BitstreamVeraSans-Roman-30"/>
      <use x="279.6875" xlink:href="#BitstreamVeraSans-Roman-20"/>
      <use x="311.474609375" xlink:href="#BitstreamVeraSans-Roman-6f"/>
      <use x="372.65625" xlink:href="#BitstreamVeraSans-Roman-66"/>
      <use x="407.861328125" xlink:href="#BitstreamVeraSans-Roman-20"/>
      <use x="439.6484375" xlink:href="#BitstreamVeraSans-Roman-46"/>
      <use x="497.16796875" xlink:href="#BitstreamVeraSans-Roman-45"/>
      <use x="560.3515625" xlink:href="#BitstreamVeraSans-Roman-76"/>
      <use x="619.53125" xlink:href="#BitstreamVeraSans-Roman-61"/>
      <use x="680.810546875" xlink:href="#BitstreamVeraSans-Roman-6c"/>
      <use x="708.59375" xlink:href="#BitstreamVeraSans-Roman-73"/>
      <use x="760.693359375" xlink:href="#BitstreamVeraSans-Roman-20"/>
      <use x="792.48046875" xlink:href="#BitstreamVeraSans-Roman-72"/>
      <use x="833.59375" xlink:href="#BitstreamVeraSans-Roman-61"/>
      <use x="894.873046875" xlink:href="#BitstreamVeraSans-Roman-74"/>
      <use x="934.08203125" xlink:href="#BitstreamVeraSans-Roman-69"/>
      <use x="961.865234375" xlink:href="#BitstreamVeraSans-Roman-6f"/>
     </g>
    </g>
   </g>
   <g id="matplotlib.axis_2">
    <g id="ytick_1">
     <g id="line2d_102">
      <path clip-path="url(#p96d9120af0)" d="
M35.5563 349.412
L481.956 349.412" style="fill:none;stroke:#000000;stroke-dasharray:1.000000,3.000000;stroke-dashoffset:0.0;stroke-width:0.5;"/>
     </g>
     <g id="line2d_103">
      <defs>
       <path d="
M0 0
L4 0" id="m728421d6d4" style="stroke:#000000;stroke-width:0.5;"/>
      </defs>
      <g>
       <use style="stroke:#000000;stroke-width:0.5;" x="35.55625" xlink:href="#m728421d6d4" y="349.411764706"/>
      </g>
     </g>
     <g id="line2d_104">
      <defs>
       <path d="
M0 0
L-4 0" id="mcb0005524f" style="stroke:#000000;stroke-width:0.5;"/>
      </defs>
      <g>
       <use style="stroke:#000000;stroke-width:0.5;" x="481.95625" xlink:href="#mcb0005524f" y="349.411764706"/>
      </g>
     </g>
    </g>
    <g id="ytick_2">
     <g id="line2d_105">
      <path clip-path="url(#p96d9120af0)" d="
M35.5563 264.706
L481.956 264.706" style="fill:none;stroke:#000000;stroke-dasharray:1.000000,3.000000;stroke-dashoffset:0.0;stroke-width:0.5;"/>
     </g>
     <g id="line2d_106">
      <g>
       <use style="stroke:#000000;stroke-width:0.5;" x="35.55625" xlink:href="#m728421d6d4" y="264.705882353"/>
      </g>
     </g>
     <g id="line2d_107">
      <g>
       <use style="stroke:#000000;stroke-width:0.5;" x="481.95625" xlink:href="#mcb0005524f" y="264.705882353"/>
      </g>
     </g>
    </g>
    <g id="ytick_3">
     <g id="line2d_108">
      <path clip-path="url(#p96d9120af0)" d="
M35.5563 180
L481.956 180" style="fill:none;stroke:#000000;stroke-dasharray:1.000000,3.000000;stroke-dashoffset:0.0;stroke-width:0.5;"/>
     </g>
     <g id="line2d_109">
      <g>
       <use style="stroke:#000000;stroke-width:0.5;" x="35.55625" xlink:href="#m728421d6d4" y="180.0"/>
      </g>
     </g>
     <g id="line2d_110">
      <g>
       <use style="stroke:#000000;stroke-width:0.5;" x="481.95625" xlink:href="#mcb0005524f" y="180.0"/>
      </g>
     </g>
    </g>
    <g id="ytick_4">
     <g id="line2d_111">
      <path clip-path="url(#p96d9120af0)" d="
M35.5563 95.2941
L481.956 95.2941" style="fill:none;stroke:#000000;stroke-dasharray:1.000000,3.000000;stroke-dashoffset:0.0;stroke-width:0.5;"/>
     </g>
     <g id="line2d_112">
      <g>
       <use style="stroke:#000000;stroke-width:0.5;" x="35.55625" xlink:href="#m728421d6d4" y="95.2941176471"/>
      </g>
     </g>
     <g id="line2d_113">
      <g>
       <use style="stroke:#000000;stroke-width:0.5;" x="481.95625" xlink:href="#mcb0005524f" y="95.2941176471"/>
      </g>
     </g>
    </g>
    <g id="ytick_5">
     <g id="line2d_114">
      <path clip-path="url(#p96d9120af0)" d="
M35.5563 10.5882
L481.956 10.5882" style="fill:none;stroke:#000000;stroke-dasharray:1.000000,3.000000;stroke-dashoffset:0.0;stroke-width:0.5;"/>
     </g>
     <g id="line2d_115">
      <g>
       <use style="stroke:#000000;stroke-width:0.5;" x="35.55625" xlink:href="#m728421d6d4" y="10.5882352941"/>
      </g>
     </g>
     <g id="line2d_116">
      <g>
       <use style="stroke:#000000;stroke-width:0.5;" x="481.95625" xlink:href="#mcb0005524f" y="10.5882352941"/>
      </g>
     </g>
    </g>
    <g id="text_11">
     <!-- proportion of trials -->
     <defs>
      <path d="
M54.8906 33.0156
L54.8906 0
L45.9062 0
L45.9062 32.7188
Q45.9062 40.4844 42.875 44.3281
Q39.8438 48.1875 33.7969 48.1875
Q26.5156 48.1875 22.3125 43.5469
Q18.1094 38.9219 18.1094 30.9062
L18.1094 0
L9.07812 0
L9.07812 54.6875
L18.1094 54.6875
L18.1094 46.1875
Q21.3438 51.125 25.7031 53.5625
Q30.0781 56 35.7969 56
Q45.2188 56 50.0469 50.1719
Q54.8906 44.3438 54.8906 33.0156" id="BitstreamVeraSans-Roman-6e"/>
      <path d="
M18.1094 8.20312
L18.1094 -20.7969
L9.07812 -20.7969
L9.07812 54.6875
L18.1094 54.6875
L18.1094 46.3906
Q20.9531 51.2656 25.2656 53.625
Q29.5938 56 35.5938 56
Q45.5625 56 51.7812 48.0938
Q58.0156 40.1875 58.0156 27.2969
Q58.0156 14.4062 51.7812 6.48438
Q45.5625 -1.42188 35.5938 -1.42188
Q29.5938 -1.42188 25.2656 0.953125
Q20.9531 3.32812 18.1094 8.20312
M48.6875 27.2969
Q48.6875 37.2031 44.6094 42.8438
Q40.5312 48.4844 33.4062 48.4844
Q26.2656 48.4844 22.1875 42.8438
Q18.1094 37.2031 18.1094 27.2969
Q18.1094 17.3906 22.1875 11.75
Q26.2656 6.10938 33.4062 6.10938
Q40.5312 6.10938 44.6094 11.75
Q48.6875 17.3906 48.6875 27.2969" id="BitstreamVeraSans-Roman-70"/>
     </defs>
     <g transform="translate(22.396875 272.51875)rotate(-90.0)scale(0.2 -0.2)">
      <use xlink:href="#BitstreamVeraSans-Roman-70"/>
      <use x="63.4765625" xlink:href="#BitstreamVeraSans-Roman-72"/>
      <use x="102.33984375" xlink:href="#BitstreamVeraSans-Roman-6f"/>
      <use x="163.521484375" xlink:href="#BitstreamVeraSans-Roman-70"/>
      <use x="226.998046875" xlink:href="#BitstreamVeraSans-Roman-6f"/>
      <use x="288.1796875" xlink:href="#BitstreamVeraSans-Roman-72"/>
      <use x="329.29296875" xlink:href="#BitstreamVeraSans-Roman-74"/>
      <use x="368.501953125" xlink:href="#BitstreamVeraSans-Roman-69"/>
      <use x="396.28515625" xlink:href="#BitstreamVeraSans-Roman-6f"/>
      <use x="457.466796875" xlink:href="#BitstreamVeraSans-Roman-6e"/>
      <use x="520.845703125" xlink:href="#BitstreamVeraSans-Roman-20"/>
      <use x="552.6328125" xlink:href="#BitstreamVeraSans-Roman-6f"/>
      <use x="613.814453125" xlink:href="#BitstreamVeraSans-Roman-66"/>
      <use x="649.01953125" xlink:href="#BitstreamVeraSans-Roman-20"/>
      <use x="680.806640625" xlink:href="#BitstreamVeraSans-Roman-74"/>
      <use x="720.015625" xlink:href="#BitstreamVeraSans-Roman-72"/>
      <use x="761.12890625" xlink:href="#BitstreamVeraSans-Roman-69"/>
      <use x="788.912109375" xlink:href="#BitstreamVeraSans-Roman-61"/>
      <use x="850.19140625" xlink:href="#BitstreamVeraSans-Roman-6c"/>
      <use x="877.974609375" xlink:href="#BitstreamVeraSans-Roman-73"/>
     </g>
    </g>
   </g>
   <g id="patch_3">
    <path d="
M35.5563 7.2
L481.956 7.2" style="fill:none;stroke:#000000;"/>
   </g>
   <g id="patch_4">
    <path d="
M481.956 352.8
L481.956 7.2" style="fill:none;stroke:#000000;"/>
   </g>
   <g id="patch_5">
    <path d="
M35.5563 352.8
L481.956 352.8" style="fill:none;stroke:#000000;"/>
   </g>
   <g id="patch_6">
    <path d="
M35.5563 352.8
L35.5563 7.2" style="fill:none;stroke:#000000;"/>
   </g>
   <g id="text_12">
    <!-- f20-f24,20-D -->
    <defs>
     <path d="
M11.7188 12.4062
L22.0156 12.4062
L22.0156 4
L14.0156 -11.625
L7.71875 -11.625
L11.7188 4
z
" id="BitstreamVeraSans-Roman-2c"/>
     <path d="
M19.6719 64.7969
L19.6719 8.10938
L31.5938 8.10938
Q46.6875 8.10938 53.6875 14.9375
Q60.6875 21.7812 60.6875 36.5312
Q60.6875 51.1719 53.6875 57.9844
Q46.6875 64.7969 31.5938 64.7969
z

M9.8125 72.9062
L30.0781 72.9062
Q51.2656 72.9062 61.1719 64.0938
Q71.0938 55.2812 71.0938 36.5312
Q71.0938 17.6719 61.125 8.82812
Q51.1719 0 30.0781 0
L9.8125 0
z
" id="BitstreamVeraSans-Roman-44"/>
    </defs>
    <g transform="translate(348.050125 345.888)scale(0.2 -0.2)">
     <use xlink:href="#BitstreamVeraSans-Roman-66"/>
     <use x="35.205078125" xlink:href="#BitstreamVeraSans-Roman-32"/>
     <use x="98.828125" xlink:href="#BitstreamVeraSans-Roman-30"/>
     <use x="162.451171875" xlink:href="#BitstreamVeraSans-Roman-2d"/>
     <use x="198.53515625" xlink:href="#BitstreamVeraSans-Roman-66"/>
     <use x="233.740234375" xlink:href="#BitstreamVeraSans-Roman-32"/>
     <use x="297.36328125" xlink:href="#BitstreamVeraSans-Roman-34"/>
     <use x="360.986328125" xlink:href="#BitstreamVeraSans-Roman-2c"/>
     <use x="392.7734375" xlink:href="#BitstreamVeraSans-Roman-32"/>
     <use x="456.396484375" xlink:href="#BitstreamVeraSans-Roman-30"/>
     <use x="520.01953125" xlink:href="#BitstreamVeraSans-Roman-2d"/>
     <use x="556.103515625" xlink:href="#BitstreamVeraSans-Roman-44"/>
    </g>
   </g>
   <g id="text_13">
    <!-- 0.0.0 -->
    <defs>
     <path d="
M10.6875 12.4062
L21 12.4062
L21 0
L10.6875 0
z
" id="BitstreamVeraSans-Roman-2e"/>
    </defs>
    <g style="fill:#808080;" transform="translate(246.69609375 347.2643125)scale(0.1 -0.1)">
     <use xlink:href="#BitstreamVeraSans-Roman-30"/>
     <use x="63.623046875" xlink:href="#BitstreamVeraSans-Roman-2e"/>
     <use x="95.41015625" xlink:href="#BitstreamVeraSans-Roman-30"/>
     <use x="159.033203125" xlink:href="#BitstreamVeraSans-Roman-2e"/>
     <use x="190.8203125" xlink:href="#BitstreamVeraSans-Roman-30"/>
    </g>
   </g>
   <g id="legend_1">
    <g id="patch_7">
     <path d="
M45.5563 140.625
L180.775 140.625
L180.775 17.2
L45.5563 17.2
L45.5563 140.625
z
" style="fill:#ffffff;opacity:0.2;stroke:#000000;"/>
    </g>
    <g id="line2d_117">
     <path d="
M59.5563 33.3969
L87.5563 33.3969" style="fill:none;stroke:#000000;stroke-linecap:square;stroke-width:3.0;"/>
    </g>
    <g id="line2d_118"/>
    <g id="text_14">
     <!-- 1: 4/4 -->
     <defs>
      <path d="
M11.7188 12.4062
L22.0156 12.4062
L22.0156 0
L11.7188 0
z

M11.7188 51.7031
L22.0156 51.7031
L22.0156 39.3125
L11.7188 39.3125
z
" id="BitstreamVeraSans-Roman-3a"/>
      <path d="
M25.3906 72.9062
L33.6875 72.9062
L8.29688 -9.28125
L0 -9.28125
z
" id="BitstreamVeraSans-Roman-2f"/>
     </defs>
     <g transform="translate(109.55625 40.396875)scale(0.2 -0.2)">
      <use xlink:href="#BitstreamVeraSans-Roman-31"/>
      <use x="63.623046875" xlink:href="#BitstreamVeraSans-Roman-3a"/>
      <use x="97.314453125" xlink:href="#BitstreamVeraSans-Roman-20"/>
      <use x="129.1015625" xlink:href="#BitstreamVeraSans-Roman-34"/>
      <use x="192.724609375" xlink:href="#BitstreamVeraSans-Roman-2f"/>
      <use x="226.416015625" xlink:href="#BitstreamVeraSans-Roman-34"/>
     </g>
    </g>
    <g id="line2d_119">
     <path d="
M59.5563 62.7531
L87.5563 62.7531" style="fill:none;stroke:#00bfbf;stroke-linecap:square;stroke-width:3.0;"/>
    </g>
    <g id="line2d_120"/>
    <g id="text_15">
     <!-- -1: 1/2 -->
     <g transform="translate(109.55625 69.753125)scale(0.2 -0.2)">
      <use xlink:href="#BitstreamVeraSans-Roman-2d"/>
      <use x="36.083984375" xlink:href="#BitstreamVeraSans-Roman-31"/>
      <use x="99.70703125" xlink:href="#BitstreamVeraSans-Roman-3a"/>
      <use x="133.3984375" xlink:href="#BitstreamVeraSans-Roman-20"/>
      <use x="165.185546875" xlink:href="#BitstreamVeraSans-Roman-31"/>
      <use x="228.80859375" xlink:href="#BitstreamVeraSans-Roman-2f"/>
      <use x="262.5" xlink:href="#BitstreamVeraSans-Roman-32"/>
     </g>
    </g>
    <g id="line2d_121">
     <path d="
M59.5563 92.1094
L87.5563 92.1094" style="fill:none;stroke:#bf00bf;stroke-linecap:square;stroke-width:3.0;"/>
    </g>
    <g id="line2d_122"/>
    <g id="text_16">
     <!-- -4: 1/2 -->
     <g transform="translate(109.55625 99.109375)scale(0.2 -0.2)">
      <use xlink:href="#BitstreamVeraSans-Roman-2d"/>
      <use x="36.083984375" xlink:href="#BitstreamVeraSans-Roman-34"/>
      <use x="99.70703125" xlink:href="#BitstreamVeraSans-Roman-3a"/>
      <use x="133.3984375" xlink:href="#BitstreamVeraSans-Roman-20"/>
      <use x="165.185546875" xlink:href="#BitstreamVeraSans-Roman-31"/>
      <use x="228.80859375" xlink:href="#BitstreamVeraSans-Roman-2f"/>
      <use x="262.5" xlink:href="#BitstreamVeraSans-Roman-32"/>
     </g>
    </g>
    <g id="line2d_123">
     <path d="
M59.5563 121.466
L87.5563 121.466" style="fill:none;stroke:#ff0000;stroke-linecap:square;stroke-width:3.0;"/>
    </g>
    <g id="line2d_124"/>
    <g id="text_17">
     <!-- -8: 1/2 -->
     <defs>
      <path d="
M31.7812 34.625
Q24.75 34.625 20.7188 30.8594
Q16.7031 27.0938 16.7031 20.5156
Q16.7031 13.9219 20.7188 10.1562
Q24.75 6.39062 31.7812 6.39062
Q38.8125 6.39062 42.8594 10.1719
Q46.9219 13.9688 46.9219 20.5156
Q46.9219 27.0938 42.8906 30.8594
Q38.875 34.625 31.7812 34.625
M21.9219 38.8125
Q15.5781 40.375 12.0312 44.7188
Q8.5 49.0781 8.5 55.3281
Q8.5 64.0625 14.7188 69.1406
Q20.9531 74.2188 31.7812 74.2188
Q42.6719 74.2188 48.875 69.1406
Q55.0781 64.0625 55.0781 55.3281
Q55.0781 49.0781 51.5312 44.7188
Q48 40.375 41.7031 38.8125
Q48.8281 37.1562 52.7969 32.3125
Q56.7812 27.4844 56.7812 20.5156
Q56.7812 9.90625 50.3125 4.23438
Q43.8438 -1.42188 31.7812 -1.42188
Q19.7344 -1.42188 13.25 4.23438
Q6.78125 9.90625 6.78125 20.5156
Q6.78125 27.4844 10.7812 32.3125
Q14.7969 37.1562 21.9219 38.8125
M18.3125 54.3906
Q18.3125 48.7344 21.8438 45.5625
Q25.3906 42.3906 31.7812 42.3906
Q38.1406 42.3906 41.7188 45.5625
Q45.3125 48.7344 45.3125 54.3906
Q45.3125 60.0625 41.7188 63.2344
Q38.1406 66.4062 31.7812 66.4062
Q25.3906 66.4062 21.8438 63.2344
Q18.3125 60.0625 18.3125 54.3906" id="BitstreamVeraSans-Roman-38"/>
     </defs>
     <g transform="translate(109.55625 128.465625)scale(0.2 -0.2)">
      <use xlink:href="#BitstreamVeraSans-Roman-2d"/>
      <use x="36.083984375" xlink:href="#BitstreamVeraSans-Roman-38"/>
      <use x="99.70703125" xlink:href="#BitstreamVeraSans-Roman-3a"/>
      <use x="133.3984375" xlink:href="#BitstreamVeraSans-Roman-20"/>
      <use x="165.185546875" xlink:href="#BitstreamVeraSans-Roman-31"/>
      <use x="228.80859375" xlink:href="#BitstreamVeraSans-Roman-2f"/>
      <use x="262.5" xlink:href="#BitstreamVeraSans-Roman-32"/>
     </g>
    </g>
   </g>
  </g>
 </g>
 <defs>
  <clipPath id="p96d9120af0">
   <rect height="345.6" width="446.4" x="35.55625" y="7.2"/>
  </clipPath>
 </defs>
</svg>
