<?xml version="1.0" encoding="utf-8" standalone="no"?>
<!DOCTYPE svg PUBLIC "-//W3C//DTD SVG 1.1//EN"
  "http://www.w3.org/Graphics/SVG/1.1/DTD/svg11.dtd">
<!-- Created with matplotlib (http://matplotlib.org/) -->
<svg height="407pt" version="1.1" viewBox="0 0 493 407" width="493pt" xmlns="http://www.w3.org/2000/svg" xmlns:xlink="http://www.w3.org/1999/xlink">
 <defs>
  <style type="text/css">
*{stroke-linecap:butt;stroke-linejoin:round;}
  </style>
 </defs>
 <g id="figure_1">
  <g id="patch_1">
   <path d="
M0 407.712
L493.784 407.712
L493.784 0
L0 0
z
" style="fill:#ffffff;"/>
  </g>
  <g id="axes_1">
   <g id="patch_2">
    <path d="
M35.5563 352.8
L481.956 352.8
L481.956 7.2
L35.5563 7.2
z
" style="fill:#ffffff;"/>
   </g>
   <g id="line2d_1">
    <path clip-path="url(#p96d9120af0)" d="
M35.5563 349.412
L218.547 349.412
L218.547 348.91
L220.998 348.91
L220.998 348.408
L223.125 348.408
L223.125 347.906
L224.143 347.906
L224.143 347.404
L226.595 347.404
L226.595 346.902
L228.228 346.902
L228.228 346.4
L228.595 346.4
L228.595 345.898
L228.721 345.898
L228.81 344.894
L229.712 344.894
L229.712 344.392
L230.68 344.392
L230.68 343.89
L231.047 343.89
L231.157 342.886
L231.243 342.886
L231.243 342.384
L231.683 342.384
L231.683 341.882
L231.857 341.882
L231.857 341.38
L232.164 341.38
L232.164 340.878
L232.547 340.878
L232.547 340.376
L232.806 340.376
L232.806 339.875
L233.173 339.875
L233.173 339.373
L233.695 339.373
L233.77 338.369
L234.29 338.369
L234.29 337.867
L234.407 337.867
L234.407 337.365
L235.014 337.365
L235.014 336.863
L235.295 336.863
L235.295 336.361
L235.821 336.361
L235.821 335.859
L236.222 335.859
L236.222 335.357
L236.754 335.357
L236.754 334.855
L237.28 334.855
L237.28 334.353
L237.454 334.353
L237.466 333.349
L237.585 333.349
L237.585 332.847
L237.747 332.847
L237.747 332.345
L238.144 332.345
L238.144 331.843
L238.348 331.843
L238.348 331.341
L238.492 331.341
L238.492 330.839
L238.858 330.839
L238.858 330.337
L239.592 330.337
L239.592 329.835
L239.873 329.835
L239.976 328.329
L240.839 328.329
L240.839 327.827
L241.011 327.827
L241.011 327.325
L241.206 327.325
L241.206 326.824
L241.365 326.824
L241.365 326.322
L241.506 326.322
L241.539 325.318
L241.731 325.318
L241.731 324.816
L241.866 324.816
L241.905 323.812
L242.229 323.812
L242.324 322.306
L242.428 322.306
L242.428 321.804
L242.595 321.804
L242.595 321.302
L242.849 321.302
L242.849 320.8
L243.023 320.8
L243.023 320.298
L243.182 320.298
L243.182 319.796
L243.712 319.796
L243.712 319.294
L243.853 319.294
L243.853 318.792
L244.033 318.792
L244.033 318.29
L244.379 318.29
L244.45 317.286
L244.553 317.286
L244.553 316.784
L245.243 316.784
L245.278 315.78
L245.559 315.78
L245.559 315.278
L245.97 315.278
L245.97 314.776
L246.38 314.776
L246.38 314.275
L246.608 314.275
L246.704 313.271
L246.906 313.271
L246.906 312.769
L247.08 312.769
L247.086 311.765
L247.267 311.765
L247.267 311.263
L247.463 311.263
L247.463 310.761
L247.625 310.761
L247.716 309.255
L247.77 309.255
L247.77 308.753
L247.906 308.753
L247.906 308.251
L248.025 308.251
L248.025 307.749
L248.151 307.749
L248.151 307.247
L248.325 307.247
L248.432 305.741
L248.606 305.741
L248.606 305.239
L248.75 305.239
L248.75 304.737
L249.015 304.737
L249.015 304.235
L249.296 304.235
L249.296 303.733
L250.136 303.733
L250.136 303.231
L250.281 303.231
L250.281 302.729
L250.548 302.729
L250.548 302.227
L250.693 302.227
L250.693 301.725
L250.959 301.725
L251.06 300.722
L251.548 300.722
L251.548 300.22
L251.915 300.22
L251.915 299.718
L252.11 299.718
L252.177 298.714
L252.3 298.714
L252.3 298.212
L252.477 298.212
L252.483 297.208
L252.682 297.208
L252.682 296.706
L252.808 296.706
L252.808 296.204
L253.009 296.204
L253.032 295.2
L253.183 295.2
L253.183 294.698
L253.313 294.698
L253.411 293.694
L253.594 293.694
L253.594 293.192
L253.707 293.192
L253.707 292.69
L253.873 292.69
L253.971 291.686
L254.053 291.686
L254.053 291.184
L254.334 291.184
L254.334 290.682
L254.563 290.682
L254.563 290.18
L255.125 290.18
L255.125 289.678
L255.537 289.678
L255.537 289.176
L256.233 289.176
L256.234 288.173
L256.385 288.173
L256.423 287.169
L256.522 287.169
L256.522 286.667
L256.752 286.667
L256.768 285.663
L257.09 285.663
L257.134 284.659
L257.398 284.659
L257.479 283.655
L257.652 283.655
L257.76 282.651
L257.765 282.651
L257.869 281.647
L258.251 281.647
L258.334 280.643
L258.528 280.643
L258.615 278.635
L258.882 278.635
L258.974 276.627
L259.106 276.627
L259.177 275.624
L259.28 275.624
L259.28 275.122
L259.4 275.122
L259.4 274.62
L259.782 274.62
L259.782 274.118
L259.97 274.118
L259.97 273.616
L260.412 273.616
L260.412 273.114
L260.98 273.114
L260.98 272.612
L261.1 272.612
L261.1 272.11
L261.223 272.11
L261.223 271.608
L261.927 271.608
L261.927 271.106
L262.309 271.106
L262.337 270.102
L262.939 270.102
L262.939 269.6
L263.106 269.6
L263.192 268.094
L263.452 268.094
L263.554 267.09
L263.57 267.09
L263.57 266.588
L263.754 266.588
L263.835 265.584
L264.096 265.584
L264.184 264.58
L264.234 264.58
L264.27 263.576
L264.465 263.576
L264.465 263.075
L264.96 263.075
L265.008 262.071
L266.581 262.071
L266.581 261.569
L266.786 261.569
L266.786 261.067
L267.107 261.067
L267.107 260.565
L267.281 260.565
L267.281 260.063
L267.971 260.063
L268.03 259.059
L268.412 259.059
L268.434 258.055
L268.792 258.055
L268.792 257.553
L269.042 257.553
L269.133 256.549
L269.29 256.549
L269.29 256.047
L269.659 256.047
L269.659 255.545
L269.833 255.545
L269.852 254.541
L269.998 254.541
L269.998 254.039
L270.523 254.039
L270.523 253.537
L271.139 253.537
L271.139 253.035
L271.664 253.035
L271.664 252.533
L271.839 252.533
L271.839 252.031
L272.528 252.031
L272.528 251.529
L273.009 251.529
L273.009 251.027
L273.424 251.027
L273.424 250.525
L274.127 250.525
L274.127 250.024
L274.279 250.024
L274.279 249.522
L274.509 249.522
L274.509 249.02
L274.841 249.02
L274.841 248.518
L275.139 248.518
L275.139 248.016
L275.561 248.016
L275.561 247.514
L276.435 247.514
L276.435 247.012
L277.291 247.012
L277.291 246.51
L277.566 246.51
L277.566 246.008
L277.853 246.008
L277.853 245.506
L278.987 245.506
L278.987 245.004
L279.117 245.004
L279.117 244.502
L279.499 244.502
L279.499 244
L279.842 244
L279.842 243.498
L280.129 243.498
L280.129 242.996
L280.404 242.996
L280.404 242.494
L280.993 242.494
L280.993 241.992
L281.848 241.992
L281.848 241.49
L282.128 241.49
L282.128 240.988
L282.41 240.988
L282.51 239.984
L283.14 239.984
L283.14 239.482
L284.679 239.482
L284.679 238.98
L285.062 238.98
L285.062 238.478
L285.692 238.478
L285.692 237.976
L286.685 237.976
L286.685 237.475
L287.067 237.475
L287.067 236.973
L287.698 236.973
L287.698 236.471
L296.505 236.471
L296.505 235.969
L296.852 235.969
L296.852 235.467
L297.159 235.467
L297.159 234.965
L297.621 234.965
L297.621 234.463
L297.969 234.463
L298.018 233.459
L298.276 233.459
L298.276 232.957
L298.525 232.957
L298.632 231.451
L298.836 231.451
L298.935 229.945
L298.979 229.945
L298.981 228.941
L299.134 228.941
L299.242 227.435
L299.287 227.435
L299.393 225.929
L299.491 225.929
L299.491 225.427
L299.635 225.427
L299.641 224.424
L300.024 224.424
L300.101 223.42
L300.145 223.42
L300.213 222.416
L300.349 222.416
L300.415 221.412
L300.494 221.412
L300.593 219.906
L300.608 219.906
L300.652 218.902
L300.818 218.902
L300.856 217.898
L300.99 217.898
L301.034 216.392
L301.239 216.392
L301.33 215.388
L301.383 215.388
L301.476 214.384
L301.521 214.384
L301.532 213.38
L301.71 213.38
L301.725 212.376
L301.87 212.376
L301.935 211.373
L302.296 211.373
L302.34 210.369
L302.498 210.369
L302.586 208.361
L302.676 208.361
L302.747 206.353
L302.832 206.353
L302.933 203.843
L302.945 203.843
L302.995 202.839
L303.07 202.839
L303.18 201.333
L303.241 201.333
L303.342 199.827
L303.487 199.827
L303.529 198.824
L303.649 198.824
L303.649 198.322
L303.763 198.322
L303.763 197.82
L303.877 197.82
L303.877 197.318
L304.099 197.318
L304.184 196.314
L304.218 196.314
L304.218 195.812
L304.345 195.812
L304.345 195.31
L304.508 195.31
L304.606 193.804
L304.689 193.804
L304.689 193.302
L304.852 193.302
L304.879 191.796
L304.988 191.796
L305.042 189.788
L305.145 189.788
L305.234 188.784
L305.397 188.784
L305.475 187.78
L305.549 187.78
L305.549 187.278
L305.721 187.278
L305.805 185.773
L305.846 185.773
L305.931 183.765
L306.094 183.765
L306.156 182.761
L306.238 182.761
L306.294 180.753
L306.418 180.753
L306.496 179.749
L306.54 179.749
L306.62 178.745
L306.675 178.745
L306.772 176.737
L306.816 176.737
L306.921 174.729
L307.02 174.729
L307.123 172.722
L307.145 172.722
L307.238 170.212
L307.272 170.212
L307.371 168.706
L307.439 168.706
L307.516 167.2
L307.618 167.2
L307.621 166.196
L307.842 166.196
L307.926 165.192
L308.003 165.192
L308.057 164.188
L308.128 164.188
L308.128 163.686
L308.307 163.686
L308.405 162.18
L308.531 162.18
L308.531 161.678
L308.658 161.678
L308.712 160.675
L309.516 160.675
L309.57 159.671
L309.844 159.671
L309.844 159.169
L310.023 159.169
L310.09 157.663
L310.253 157.663
L310.253 157.161
L310.377 157.161
L310.459 155.655
L310.723 155.655
L310.787 153.647
L310.892 153.647
L310.946 152.643
L311.016 152.643
L311.121 150.635
L311.179 150.635
L311.226 149.631
L311.367 149.631
L311.476 147.624
L311.53 147.624
L311.635 146.62
L311.712 146.62
L311.766 145.114
L311.89 145.114
L311.967 143.608
L312.064 143.608
L312.17 141.6
L312.236 141.6
L312.317 140.596
L312.37 140.596
L312.402 139.09
L312.743 139.09
L312.78 137.584
L312.858 137.584
L312.858 137.082
L313.125 137.082
L313.125 136.58
L313.266 136.58
L313.266 136.078
L313.612 136.078
L313.612 135.576
L314.086 135.576
L314.086 135.075
L314.288 135.075
L314.288 134.573
L314.432 134.573
L314.466 133.569
L314.634 133.569
L314.691 132.565
L314.812 132.565
L314.812 132.063
L315.037 132.063
L315.037 131.561
L315.261 131.561
L315.315 130.557
L316.187 130.557
L316.241 129.553
L316.538 129.553
L316.644 128.047
L316.698 128.047
L316.698 127.545
L317.635 127.545
L317.67 126.541
L317.981 126.541
L317.981 126.039
L318.562 126.039
L318.616 125.035
L318.907 125.035
L319.018 123.529
L319.258 123.529
L319.364 122.525
L322.048 122.525
L322.048 122.024
L322.994 122.024
L322.994 121.522
L323.479 121.522
L323.479 121.02
L324.425 121.02
L324.425 120.518
L325.298 120.518
L325.298 120.016
L327.253 120.016
L327.253 119.514
L327.841 119.514
L327.841 119.012
L328.199 119.012
L328.199 118.51
L328.445 118.51
L328.445 118.008
L328.646 118.008
L328.646 117.506
L328.849 117.506
L328.849 117.004
L329.39 117.004
L329.39 116.502
L329.592 116.502
L329.676 115.498
L329.794 115.498
L329.794 114.996
L330.081 114.996
L330.081 113.992
L330.289 113.992
L330.289 112.988
L330.499 112.988
L330.499 112.486
L331.027 112.486
L331.107 110.98
L331.235 110.98
L331.235 109.976
L331.444 109.976
L331.444 109.475
L332.219 109.475
L332.219 108.973
L333.65 108.973
L333.65 108.471
L334.148 108.471
L334.204 107.467
L334.881 107.467
L334.881 106.965
L335.149 106.965
L335.149 106.463
L336.073 106.463
L336.073 105.961
L336.274 105.961
L336.274 105.459
L336.477 105.459
L336.523 104.455
L337.001 104.455
L337.001 103.953
L337.424 103.953
L337.469 102.949
L337.709 102.949
L337.709 101.945
L337.917 101.945
L337.946 100.439
L338.127 100.439
L338.127 99.9373
L338.526 99.9373
L338.616 98.9333
L338.817 98.9333
L338.817 98.4314
L339.02 98.4314
L339.02 97.9294
L339.957 97.9294
L339.957 97.4275
L340.252 97.4275
L340.252 96.4235
L340.42 96.4235
L340.46 94.9176
L340.67 94.9176
L340.67 94.4157
L340.925 94.4157
L340.925 93.9137
L341.832 93.9137
L341.832 93.4118
L343.731 93.4118
L343.731 92.9098
L343.877 92.9098
L343.877 92.4078
L344.151 92.4078
L344.151 91.9059
L344.375 91.9059
L344.375 91.4039
L344.629 91.4039
L344.629 90.902
L344.798 90.902
L344.798 90.4
L344.923 90.4
L344.923 89.898
L345.124 89.898
L345.124 89.3961
L345.303 89.3961
L345.327 88.3922
L346.229 88.3922
L346.229 87.8902
L346.559 87.8902
L346.607 86.3843
L346.694 86.3843
L346.768 84.3765
L346.977 84.3765
L346.977 83.8745
L347.172 83.8745
L347.172 83.3725
L348.256 83.3725
L348.256 82.8706
L348.741 82.8706
L348.741 82.3686
L349.686 82.3686
L349.761 81.3647
L350.003 81.3647
L350.081 80.3608
L350.508 80.3608
L350.508 79.8588
L350.682 79.8588
L350.682 79.3569
L350.986 79.3569
L350.986 78.8549
L351.195 78.8549
L351.195 78.3529
L351.396 78.3529
L351.408 77.349
L351.599 77.349
L351.7 76.3451
L351.901 76.3451
L351.901 75.8431
L352.104 75.8431
L352.104 75.3412
L352.417 75.3412
L352.417 74.8392
L352.769 74.8392
L352.831 73.3333
L353.001 73.3333
L353.039 71.8275
L353.12 71.8275
L353.12 71.3255
L353.249 71.3255
L353.336 69.8196
L353.46 69.8196
L353.544 67.8118
L353.754 67.8118
L353.754 67.3098
L354.14 67.3098
L354.14 66.8078
L354.459 66.8078
L354.55 65.8039
L354.652 65.8039
L354.652 65.302
L354.853 65.302
L354.853 64.8
L355.056 64.8
L355.056 64.298
L355.571 64.298
L355.571 63.7961
L355.786 63.7961
L355.89 62.7922
L356.19 62.7922
L356.288 61.2863
L356.497 61.2863
L356.497 60.2824
L356.706 60.2824
L356.706 59.7804
L356.954 59.7804
L356.954 59.2784
L357.148 59.2784
L357.217 58.2745
L357.317 58.2745
L357.382 57.2706
L357.459 57.2706
L357.459 56.7686
L357.584 56.7686
L357.584 56.2667
L357.786 56.2667
L357.786 55.7647
L358.324 55.7647
L358.324 55.2627
L358.579 55.2627
L358.579 54.7608
L359.018 54.7608
L359.018 53.7569
L359.227 53.7569
L359.273 52.251
L359.344 52.251
L359.436 51.2471
L359.516 51.2471
L359.516 50.7451
L359.664 50.7451
L359.751 49.2392
L359.778 49.2392
L359.778 48.7373
L359.92 48.7373
L359.92 48.2353
L360.256 48.2353
L360.256 47.7333
L360.411 47.7333
L360.411 47.2314
L360.536 47.2314
L360.536 46.7294
L360.738 46.7294
L360.738 46.2275
L360.855 46.2275
L360.94 45.2235
L360.991 45.2235
L361.057 44.2196
L361.152 44.2196
L361.259 42.7137
L361.361 42.7137
L361.361 41.7098
L361.57 41.7098
L361.57 41.2078
L361.696 41.2078
L361.696 40.7059
L362.173 40.7059
L362.183 39.2
L362.352 39.2
L362.384 37.1922
L362.492 37.1922
L362.59 35.1843
L362.7 35.1843
L362.73 33.6784
L362.909 33.6784
L362.909 33.1765
L363.126 33.1765
L363.208 31.6706
L363.544 31.6706
L363.544 31.1686
L363.746 31.1686
L363.819 29.6627
L363.948 29.6627
L364.027 28.1569
L364.237 28.1569
L364.237 27.6549
L365.18 27.6549
L365.275 26.149
L365.389 26.149
L365.46 24.6431
L365.598 24.6431
L365.598 24.1412
L365.938 24.1412
L365.938 23.6392
L366.295 23.6392
L366.295 23.1373
L366.614 23.1373
L366.614 22.6353
L366.9 22.6353
L366.9 22.1333
L367.594 22.1333
L367.594 21.6314
L367.942 21.6314
L367.942 21.1294
L368.072 21.1294
L368.092 20.1255
L368.294 20.1255
L368.294 19.6235
L368.496 19.6235
L368.496 19.1216
L368.615 19.1216
L368.615 18.6196
L368.934 18.6196
L368.934 18.1176
L369.092 18.1176
L369.092 17.6157
L369.303 17.6157
L369.411 16.6118
L369.728 16.6118
L369.728 15.6078
L369.937 15.6078
L369.937 14.6039
L370.146 14.6039
L370.146 14.102
L370.261 14.102
L370.261 13.6
L370.739 13.6
L370.739 13.098
L371.623 13.098
L371.623 12.5961
L372.1 12.5961
L372.1 12.0941
L373.851 12.0941
L373.851 11.5922
L376.17 11.5922
L376.17 11.0902
L376.648 11.0902
L376.648 10.5882
L481.956 10.5882
L481.956 10.5882" style="fill:none;stroke:#000000;stroke-linecap:square;stroke-width:3.0;"/>
   </g>
   <g id="line2d_2"/>
   <g id="line2d_3">
    <path clip-path="url(#p96d9120af0)" d="
M35.5563 349.412
L218.595 349.412
L218.595 348.91
L222.941 348.91
L222.941 348.408
L224.687 348.408
L224.73 347.404
L226.366 347.404
L226.366 346.902
L227.488 346.902
L227.488 346.4
L227.83 346.4
L227.83 345.898
L228.005 345.898
L228.005 345.396
L229.033 345.396
L229.033 344.894
L230.412 344.894
L230.412 344.392
L230.822 344.392
L230.822 343.89
L231.51 343.89
L231.51 342.886
L232.351 342.886
L232.458 341.882
L232.507 341.882
L232.507 341.38
L233.58 341.38
L233.58 340.878
L233.922 340.878
L233.922 340.376
L234.141 340.376
L234.141 339.875
L234.81 339.875
L234.81 339.373
L235.776 339.373
L235.776 338.871
L236.184 338.871
L236.184 338.369
L236.334 338.369
L236.334 337.867
L236.504 337.867
L236.504 337.365
L236.712 337.365
L236.712 336.863
L236.898 336.863
L236.898 336.361
L237.24 336.361
L237.24 335.859
L237.601 335.859
L237.601 334.855
L238.598 334.855
L238.598 334.353
L239.156 334.353
L239.156 333.851
L239.823 333.851
L239.823 333.349
L240.501 333.349
L240.53 332.345
L240.68 332.345
L240.68 331.843
L240.92 331.843
L240.946 330.337
L241.917 330.337
L241.917 329.835
L242.079 329.835
L242.079 329.333
L242.232 329.333
L242.32 327.827
L242.47 327.827
L242.47 327.325
L242.581 327.325
L242.581 326.824
L242.787 326.824
L242.804 325.82
L243.703 325.82
L243.703 325.318
L243.955 325.318
L244.045 324.314
L244.083 324.314
L244.106 323.31
L244.719 323.31
L244.719 322.808
L244.848 322.808
L244.848 322.306
L245.077 322.306
L245.077 321.804
L245.228 321.804
L245.228 321.302
L245.419 321.302
L245.419 320.8
L245.569 320.8
L245.569 320.298
L246.122 320.298
L246.122 319.796
L246.454 319.796
L246.454 319.294
L246.605 319.294
L246.637 317.788
L247.134 317.788
L247.134 317.286
L247.725 317.286
L247.725 316.282
L248.001 316.282
L248.001 315.78
L248.152 315.78
L248.171 314.776
L248.273 314.776
L248.324 313.773
L248.395 313.773
L248.429 312.769
L248.722 312.769
L248.722 312.267
L248.923 312.267
L248.923 311.765
L249.065 311.765
L249.099 310.259
L249.249 310.259
L249.249 309.255
L249.395 309.255
L249.395 308.753
L249.736 308.753
L249.749 307.749
L250.03 307.749
L250.096 306.745
L250.219 306.745
L250.246 305.741
L250.427 305.741
L250.427 305.239
L250.559 305.239
L250.559 304.737
L250.793 304.737
L250.854 303.231
L251.152 303.231
L251.152 302.729
L251.489 302.729
L251.494 301.725
L251.643 301.725
L251.681 300.722
L251.855 300.722
L251.855 300.22
L252.022 300.22
L252.022 299.718
L252.319 299.718
L252.406 298.714
L252.49 298.714
L252.59 297.71
L252.927 297.71
L252.977 296.706
L253.24 296.706
L253.318 295.702
L253.416 295.702
L253.416 294.698
L253.612 294.698
L253.612 294.196
L253.954 294.196
L253.954 293.694
L254.077 293.694
L254.095 292.69
L254.225 292.69
L254.301 291.686
L254.413 291.686
L254.452 290.682
L254.605 290.682
L254.605 290.18
L254.773 290.18
L254.773 289.678
L255.174 289.678
L255.174 288.675
L255.347 288.675
L255.347 288.173
L255.689 288.173
L255.702 286.667
L255.885 286.667
L255.901 285.663
L256.171 285.663
L256.171 285.161
L256.536 285.161
L256.563 284.157
L256.699 284.157
L256.752 283.153
L256.885 283.153
L256.885 282.651
L256.998 282.651
L256.998 281.647
L257.521 281.647
L257.521 281.145
L257.633 281.145
L257.633 280.141
L257.995 280.141
L257.995 279.639
L258.199 279.639
L258.294 278.133
L258.448 278.133
L258.541 277.129
L258.619 277.129
L258.643 275.624
L258.984 275.624
L258.984 275.122
L259.32 275.122
L259.369 273.114
L259.662 273.114
L259.668 272.11
L259.818 272.11
L259.822 271.106
L259.972 271.106
L259.972 270.604
L260.177 270.604
L260.203 269.6
L260.366 269.6
L260.376 268.596
L260.905 268.596
L260.905 268.094
L261.299 268.094
L261.299 267.592
L261.567 267.592
L261.641 266.588
L262.201 266.588
L262.245 265.584
L262.651 265.584
L262.664 264.078
L262.836 264.078
L262.836 263.576
L263.342 263.576
L263.342 262.573
L263.661 262.573
L263.661 262.071
L263.985 262.071
L263.985 261.569
L264.139 261.569
L264.223 260.565
L264.339 260.565
L264.339 260.063
L264.572 260.063
L264.572 259.561
L265.321 259.561
L265.321 258.557
L265.743 258.557
L265.743 258.055
L265.897 258.055
L265.897 257.553
L266.271 257.553
L266.317 256.549
L266.425 256.549
L266.425 256.047
L267.008 256.047
L267.008 255.545
L267.567 255.545
L267.567 255.043
L267.721 255.043
L267.721 254.541
L267.867 254.541
L267.867 254.039
L268.203 254.039
L268.203 253.537
L268.356 253.537
L268.382 252.533
L268.532 252.533
L268.545 251.529
L269.455 251.529
L269.455 251.027
L269.938 251.027
L269.938 250.525
L270.092 250.525
L270.092 250.024
L270.523 250.024
L270.523 249.522
L270.829 249.522
L270.829 249.02
L270.98 249.02
L270.98 248.518
L272.699 248.518
L272.699 248.016
L273.233 248.016
L273.233 247.514
L273.387 247.514
L273.387 247.012
L273.911 247.012
L273.911 246.51
L274.065 246.51
L274.065 246.008
L274.457 246.008
L274.457 245.506
L274.985 245.506
L274.985 245.004
L275.147 245.004
L275.147 244.502
L275.89 244.502
L275.89 244
L276.043 244
L276.043 243.498
L276.281 243.498
L276.281 242.996
L276.905 242.996
L276.917 241.992
L277.433 241.992
L277.433 241.49
L278.652 241.49
L278.729 240.486
L279.364 240.486
L279.364 239.984
L281.1 239.984
L281.1 239.482
L281.947 239.482
L281.947 238.98
L282.625 238.98
L282.625 238.478
L284.395 238.478
L284.395 237.976
L284.604 237.976
L284.604 237.475
L285.073 237.475
L285.073 236.973
L287.051 236.973
L287.051 236.471
L304.124 236.471
L304.124 235.969
L304.988 235.969
L304.988 235.467
L305.127 235.467
L305.127 234.965
L305.378 234.965
L305.401 233.961
L305.713 233.961
L305.713 233.459
L306.275 233.459
L306.292 231.953
L306.403 231.953
L306.403 231.451
L306.578 231.451
L306.578 230.949
L306.717 230.949
L306.717 230.447
L306.967 230.447
L306.991 229.443
L307.865 229.443
L307.944 227.435
L307.992 227.435
L307.992 226.933
L308.521 226.933
L308.521 226.431
L309.199 226.431
L309.199 225.929
L309.534 225.929
L309.534 225.427
L310.11 225.427
L310.118 224.424
L310.458 224.424
L310.458 223.922
L310.789 223.922
L310.789 223.42
L311.707 223.42
L311.707 222.918
L312.047 222.918
L312.047 222.416
L313.709 222.416
L313.709 221.914
L314.165 221.914
L314.165 221.412
L314.574 221.412
L314.574 220.91
L314.713 220.91
L314.713 220.408
L314.963 220.408
L315.03 218.902
L315.147 218.902
L315.169 217.898
L315.415 217.898
L315.443 216.392
L315.861 216.392
L315.877 214.886
L315.988 214.886
L315.988 214.384
L316.204 214.384
L316.28 213.38
L316.317 213.38
L316.419 211.373
L316.444 211.373
L316.489 210.369
L316.669 210.369
L316.736 208.863
L317.068 208.863
L317.15 207.859
L317.207 207.859
L317.207 207.357
L317.353 207.357
L317.458 206.353
L317.481 206.353
L317.583 203.341
L317.694 203.341
L317.766 201.835
L317.985 201.835
L318.014 200.831
L318.106 200.831
L318.154 199.827
L318.355 199.827
L318.428 197.318
L318.483 197.318
L318.562 195.812
L318.64 195.812
L318.657 194.306
L318.767 194.306
L318.784 193.302
L319.236 193.302
L319.318 190.792
L319.37 190.792
L319.429 189.788
L319.509 189.788
L319.584 188.784
L319.703 188.784
L319.812 186.776
L320.024 186.776
L320.074 185.271
L320.159 185.271
L320.159 184.769
L320.309 184.769
L320.309 184.267
L320.449 184.267
L320.499 182.761
L320.588 182.761
L320.674 180.251
L320.784 180.251
L320.886 178.243
L320.938 178.243
L320.97 177.239
L321.077 177.239
L321.11 176.235
L321.279 176.235
L321.351 174.729
L321.409 174.729
L321.409 174.227
L321.547 174.227
L321.564 173.224
L321.736 173.224
L321.752 171.216
L321.863 171.216
L321.955 170.212
L321.974 170.212
L321.992 169.208
L322.113 169.208
L322.198 168.204
L322.225 168.204
L322.326 165.694
L322.353 165.694
L322.388 164.188
L322.483 164.188
L322.538 163.184
L322.82 163.184
L322.902 161.176
L322.959 161.176
L322.996 159.671
L323.144 159.671
L323.246 157.663
L323.262 157.663
L323.278 155.655
L323.389 155.655
L323.484 154.149
L323.581 154.149
L323.581 153.647
L323.826 153.647
L323.894 152.643
L323.965 152.643
L323.981 151.639
L324.107 151.639
L324.216 148.125
L324.234 148.125
L324.271 146.62
L324.471 146.62
L324.499 145.616
L324.659 145.616
L324.732 144.612
L324.839 144.612
L324.93 143.608
L325.113 143.608
L325.188 141.098
L325.241 141.098
L325.241 140.596
L325.507 140.596
L325.578 139.592
L325.775 139.592
L325.813 138.588
L325.918 138.588
L325.918 138.086
L326.068 138.086
L326.068 137.584
L326.185 137.584
L326.185 137.082
L326.352 137.082
L326.438 135.075
L326.782 135.075
L326.782 134.573
L327.03 134.573
L327.104 133.067
L327.227 133.067
L327.227 132.565
L327.359 132.565
L327.444 131.561
L327.512 131.561
L327.512 131.059
L327.949 131.059
L328.037 129.553
L328.173 129.553
L328.173 129.051
L328.289 129.051
L328.326 128.047
L328.956 128.047
L328.956 127.545
L329.296 127.545
L329.296 127.043
L329.528 127.043
L329.528 126.541
L330.607 126.541
L330.607 126.039
L331.097 126.039
L331.097 125.537
L332.133 125.537
L332.133 125.035
L332.978 125.035
L333.015 124.031
L333.985 124.031
L333.985 123.529
L375.166 123.529
L375.166 123.027
L377.675 123.027
L377.675 122.525
L377.91 122.525
L377.91 122.024
L378.234 122.024
L378.234 121.522
L378.53 121.522
L378.53 121.02
L378.762 121.02
L378.762 120.518
L378.884 120.518
L378.884 120.016
L379.396 120.016
L379.396 119.514
L380.006 119.514
L380.006 119.012
L380.551 119.012
L380.551 118.51
L380.983 118.51
L380.983 118.008
L381.223 118.008
L381.223 117.506
L381.458 117.506
L381.538 116
L381.681 116
L381.681 115.498
L383.042 115.498
L383.072 113.992
L383.295 113.992
L383.295 113.49
L383.486 113.49
L383.486 112.988
L383.619 112.988
L383.619 112.486
L383.915 112.486
L383.915 111.984
L384.147 111.984
L384.189 110.98
L384.269 110.98
L384.324 109.976
L384.425 109.976
L384.425 109.475
L384.566 109.475
L384.566 108.973
L384.749 108.973
L384.781 107.969
L385.045 107.969
L385.045 107.467
L385.277 107.467
L385.277 106.965
L385.391 106.965
L385.399 105.961
L385.581 105.961
L385.608 104.957
L385.816 104.957
L385.911 103.451
L385.994 103.451
L385.994 102.949
L386.14 102.949
L386.23 101.945
L386.295 101.945
L386.368 100.941
L386.437 100.941
L386.521 99.9373
L386.554 99.9373
L386.608 98.9333
L386.668 98.9333
L386.668 98.4314
L386.79 98.4314
L386.85 96.4235
L386.919 96.4235
L386.923 95.4196
L387.068 95.4196
L387.082 93.9137
L387.204 93.9137
L387.31 92.4078
L387.392 92.4078
L387.498 91.4039
L387.634 91.4039
L387.738 89.3961
L387.913 89.3961
L387.973 87.3882
L388.041 87.3882
L388.116 85.3804
L388.162 85.3804
L388.162 84.8784
L388.283 84.8784
L388.365 82.8706
L388.426 82.8706
L388.426 82.3686
L388.546 82.3686
L388.612 80.3608
L388.676 80.3608
L388.676 79.8588
L388.796 79.8588
L388.889 78.3529
L388.924 78.3529
L388.972 77.349
L389.039 77.349
L389.13 76.3451
L389.164 76.3451
L389.221 74.8392
L389.303 74.8392
L389.406 72.3294
L389.44 72.3294
L389.543 70.3216
L389.556 70.3216
L389.659 68.8157
L389.778 68.8157
L389.858 66.8078
L389.891 66.8078
L389.891 66.3059
L390.012 66.3059
L390.087 65.302
L390.141 65.302
L390.141 64.8
L390.381 64.8
L390.448 63.2941
L390.525 63.2941
L390.623 61.7882
L390.691 61.7882
L390.697 60.2824
L390.858 60.2824
L390.948 58.2745
L391.055 58.2745
L391.135 56.7686
L391.29 56.7686
L391.394 54.7608
L391.425 54.7608
L391.425 54.2588
L391.614 54.2588
L391.68 52.251
L391.9 52.251
L391.98 49.2392
L392.112 49.2392
L392.208 46.7294
L392.224 46.7294
L392.33 44.7216
L392.352 44.7216
L392.441 43.7176
L392.587 43.7176
L392.666 42.2118
L392.74 42.2118
L392.843 40.7059
L393.028 40.7059
L393.028 40.2039
L393.386 40.2039
L393.483 38.698
L393.732 38.698
L393.732 38.1961
L393.903 38.1961
L393.903 37.6941
L394.138 37.6941
L394.17 36.6902
L394.363 36.6902
L394.462 35.1843
L394.604 35.1843
L394.669 34.1804
L394.758 34.1804
L394.839 33.1765
L394.904 33.1765
L394.99 30.1647
L395.112 30.1647
L395.112 29.6627
L395.248 29.6627
L395.248 29.1608
L395.484 29.1608
L395.536 28.1569
L395.624 28.1569
L395.624 27.6549
L395.772 27.6549
L395.808 26.651
L396.096 26.651
L396.104 25.6471
L396.234 25.6471
L396.336 24.6431
L396.392 24.6431
L396.488 22.6353
L396.624 22.6353
L396.624 22.1333
L396.745 22.1333
L396.745 21.6314
L396.97 21.6314
L396.97 21.1294
L397.211 21.1294
L397.258 20.1255
L397.451 20.1255
L397.451 19.6235
L397.58 19.6235
L397.686 18.6196
L397.762 18.6196
L397.868 17.1137
L398.557 17.1137
L398.557 16.6118
L398.797 16.6118
L398.845 15.6078
L399.032 15.6078
L399.111 13.6
L399.27 13.6
L399.32 12.5961
L399.395 12.5961
L399.399 11.5922
L400.615 11.5922
L400.615 11.0902
L400.903 11.0902
L400.903 10.5882
L481.956 10.5882
L481.956 10.5882" style="fill:none;stroke:#00bfbf;stroke-linecap:square;stroke-width:3.0;"/>
   </g>
   <g id="line2d_4"/>
   <g id="line2d_5">
    <path clip-path="url(#p96d9120af0)" d="
M35.5563 349.412
L218.595 349.412
L218.595 348.91
L221.215 348.91
L221.215 348.408
L224.687 348.408
L224.73 347.404
L226.366 347.404
L226.366 346.902
L227.307 346.902
L227.307 346.4
L227.488 346.4
L227.488 345.898
L227.83 345.898
L227.83 345.396
L228.005 345.396
L228.005 344.894
L229.694 344.894
L229.694 344.392
L230.626 344.392
L230.626 343.89
L230.822 343.89
L230.822 343.388
L231.51 343.388
L231.51 342.384
L232.458 342.384
L232.507 341.38
L233.58 341.38
L233.58 340.878
L233.922 340.878
L233.922 340.376
L234.141 340.376
L234.141 339.875
L234.81 339.875
L234.81 339.373
L235.776 339.373
L235.786 338.369
L236.184 338.369
L236.184 337.867
L236.334 337.867
L236.334 337.365
L236.712 337.365
L236.712 336.863
L236.898 336.863
L236.898 336.361
L237.24 336.361
L237.24 335.859
L237.43 335.859
L237.43 335.357
L237.601 335.357
L237.601 334.353
L238.598 334.353
L238.598 333.851
L238.804 333.851
L238.804 333.349
L238.955 333.349
L238.955 332.847
L239.104 332.847
L239.104 332.345
L240.125 332.345
L240.125 331.843
L240.501 331.843
L240.501 331.341
L240.92 331.341
L240.946 329.835
L241.917 329.835
L241.917 329.333
L242.232 329.333
L242.32 327.827
L242.47 327.827
L242.47 327.325
L242.581 327.325
L242.581 326.824
L242.787 326.824
L242.804 325.82
L243.122 325.82
L243.122 325.318
L243.703 325.318
L243.703 324.816
L243.955 324.816
L244.045 323.812
L244.083 323.812
L244.106 322.808
L244.719 322.808
L244.719 322.306
L244.88 322.306
L244.88 321.804
L245.077 321.804
L245.077 321.302
L245.228 321.302
L245.228 320.8
L245.408 320.8
L245.419 319.796
L245.569 319.796
L245.569 319.294
L245.909 319.294
L245.909 318.792
L246.122 318.792
L246.217 317.788
L246.454 317.788
L246.454 317.286
L246.637 317.286
L246.704 316.282
L247.283 316.282
L247.339 315.278
L247.434 315.278
L247.434 314.776
L247.725 314.776
L247.725 313.773
L248.273 313.773
L248.324 312.769
L248.395 312.769
L248.395 312.267
L248.722 312.267
L248.722 311.765
L248.923 311.765
L248.923 311.263
L249.075 311.263
L249.099 309.757
L249.249 309.757
L249.249 308.753
L249.395 308.753
L249.395 308.251
L249.535 308.251
L249.535 307.749
L249.736 307.749
L249.749 306.745
L250.03 306.745
L250.096 305.741
L250.219 305.741
L250.246 304.737
L250.427 304.737
L250.427 304.235
L250.559 304.235
L250.559 303.733
L250.793 303.733
L250.854 302.729
L251.152 302.729
L251.152 302.227
L251.494 302.227
L251.601 301.224
L251.643 301.224
L251.681 300.22
L251.855 300.22
L251.855 299.718
L252.022 299.718
L252.022 299.216
L252.37 299.216
L252.406 298.212
L252.49 298.212
L252.59 297.208
L252.927 297.208
L252.977 296.204
L253.048 296.204
L253.048 295.702
L253.24 295.702
L253.318 294.698
L253.358 294.698
L253.416 293.192
L253.612 293.192
L253.612 292.69
L253.887 292.69
L253.954 291.686
L254.225 291.686
L254.301 290.682
L254.413 290.682
L254.452 289.678
L255.026 289.678
L255.026 289.176
L255.174 289.176
L255.183 287.671
L255.347 287.671
L255.347 287.169
L255.689 287.169
L255.702 285.663
L255.818 285.663
L255.885 284.659
L256.171 284.659
L256.171 284.157
L256.34 284.157
L256.34 283.655
L256.563 283.655
L256.563 283.153
L256.699 283.153
L256.699 282.651
L256.885 282.651
L256.885 282.149
L256.998 282.149
L256.998 281.145
L257.521 281.145
L257.554 280.141
L257.633 280.141
L257.714 278.635
L257.864 278.635
L257.864 278.133
L257.995 278.133
L257.995 277.631
L258.199 277.631
L258.199 277.129
L258.448 277.129
L258.541 276.125
L258.619 276.125
L258.643 274.62
L258.984 274.62
L258.984 274.118
L259.32 274.118
L259.369 272.11
L259.662 272.11
L259.662 271.608
L259.822 271.608
L259.822 271.106
L259.972 271.106
L259.972 270.604
L260.177 270.604
L260.203 269.6
L260.366 269.6
L260.376 268.596
L260.849 268.596
L260.905 267.592
L261.299 267.592
L261.299 267.09
L261.527 267.09
L261.527 266.588
L261.641 266.588
L261.641 266.086
L262.031 266.086
L262.031 265.584
L262.201 265.584
L262.201 265.082
L262.651 265.082
L262.664 263.576
L262.836 263.576
L262.836 263.075
L263.342 263.075
L263.342 262.071
L263.505 262.071
L263.505 261.569
L263.661 261.569
L263.661 261.067
L263.789 261.067
L263.789 260.565
L264.139 260.565
L264.139 260.063
L264.317 260.063
L264.339 259.059
L264.572 259.059
L264.572 258.557
L265.321 258.557
L265.321 257.553
L265.613 257.553
L265.613 257.051
L265.897 257.051
L265.897 256.549
L266.249 256.549
L266.317 255.545
L266.425 255.545
L266.425 255.043
L267.008 255.043
L267.008 254.541
L267.721 254.541
L267.721 254.039
L267.867 254.039
L267.867 253.537
L267.984 253.537
L267.984 253.035
L268.356 253.035
L268.382 252.031
L268.532 252.031
L268.545 251.027
L269.455 251.027
L269.455 250.525
L270.092 250.525
L270.092 250.024
L270.523 250.024
L270.523 249.522
L270.829 249.522
L270.829 249.02
L270.98 249.02
L270.98 248.518
L271.279 248.518
L271.279 248.016
L271.957 248.016
L271.957 247.514
L272.699 247.514
L272.699 247.012
L273.387 247.012
L273.387 246.51
L273.936 246.51
L273.936 246.008
L274.065 246.008
L274.065 245.506
L274.457 245.506
L274.457 245.004
L274.985 245.004
L274.985 244.502
L275.147 244.502
L275.147 244
L276.043 244
L276.043 243.498
L276.281 243.498
L276.281 242.996
L276.905 242.996
L276.917 241.992
L277.433 241.992
L277.433 241.49
L278.652 241.49
L278.729 240.486
L279.364 240.486
L279.364 239.984
L281.1 239.984
L281.1 239.482
L281.947 239.482
L281.947 238.98
L282.625 238.98
L282.625 238.478
L284.395 238.478
L284.395 237.976
L284.604 237.976
L284.604 237.475
L285.073 237.475
L285.073 236.973
L287.051 236.973
L287.051 236.471
L323.171 236.471
L323.171 235.969
L323.548 235.969
L323.548 235.467
L323.802 235.467
L323.831 234.463
L324.179 234.463
L324.208 233.459
L324.299 233.459
L324.299 232.957
L324.676 232.957
L324.676 232.455
L325.108 232.455
L325.197 231.451
L325.485 231.451
L325.574 230.447
L325.805 230.447
L325.805 229.945
L326.132 229.945
L326.182 228.439
L326.509 228.439
L326.531 227.435
L326.695 227.435
L326.695 226.933
L327.072 226.933
L327.072 226.431
L327.217 226.431
L327.217 225.929
L327.595 225.929
L327.595 225.427
L327.855 225.427
L327.855 224.925
L328.088 224.925
L328.088 224.424
L328.232 224.424
L328.232 223.922
L328.465 223.922
L328.465 223.42
L330.164 223.42
L330.164 222.918
L330.276 222.918
L330.276 222.416
L330.541 222.416
L330.541 221.914
L330.653 221.914
L330.653 221.412
L332.528 221.412
L332.528 220.91
L333.159 220.91
L333.188 219.906
L333.547 219.906
L333.656 218.902
L334.177 218.902
L334.206 217.396
L334.391 217.396
L334.465 215.89
L334.554 215.89
L334.554 215.388
L334.674 215.388
L334.674 214.886
L334.818 214.886
L334.847 213.882
L335.021 213.882
L335.099 211.373
L335.162 211.373
L335.162 210.871
L335.314 210.871
L335.314 210.369
L335.484 210.369
L335.572 207.357
L335.73 207.357
L335.759 206.353
L335.886 206.353
L335.886 205.851
L336.052 205.851
L336.124 204.847
L336.18 204.847
L336.227 203.341
L336.328 203.341
L336.416 201.333
L336.507 201.333
L336.608 198.322
L336.82 198.322
L336.82 197.82
L337.013 197.82
L337.07 195.31
L337.125 195.31
L337.212 193.302
L337.239 193.302
L337.268 192.298
L337.351 192.298
L337.445 189.788
L337.593 189.788
L337.68 188.784
L337.711 188.784
L337.736 187.278
L337.823 187.278
L337.914 184.769
L338.06 184.769
L338.082 183.765
L338.23 183.765
L338.339 181.757
L338.437 181.757
L338.545 178.745
L338.558 178.745
L338.634 177.239
L338.807 177.239
L338.871 175.231
L339.026 175.231
L339.104 173.224
L339.146 173.224
L339.242 172.22
L339.308 172.22
L339.41 170.714
L339.521 170.714
L339.617 168.204
L339.633 168.204
L339.705 167.2
L339.783 167.2
L339.836 166.196
L339.924 166.196
L340.016 164.69
L340.132 164.69
L340.221 163.686
L340.25 163.686
L340.313 162.682
L340.395 162.682
L340.395 162.18
L340.532 162.18
L340.64 159.671
L340.651 159.671
L340.718 157.663
L340.803 157.663
L340.881 156.157
L341.026 156.157
L341.055 155.153
L341.18 155.153
L341.217 153.145
L341.291 153.145
L341.383 151.137
L341.422 151.137
L341.527 148.125
L341.616 148.125
L341.726 146.62
L341.945 146.62
L341.945 146.118
L342.092 146.118
L342.092 145.616
L342.204 145.616
L342.224 144.612
L342.332 144.612
L342.42 143.106
L342.494 143.106
L342.597 140.094
L342.816 140.094
L342.879 139.09
L342.99 139.09
L343.028 138.086
L343.114 138.086
L343.191 137.082
L343.355 137.082
L343.378 136.078
L343.518 136.078
L343.601 134.573
L343.636 134.573
L343.712 133.569
L343.919 133.569
L343.919 133.067
L344.081 133.067
L344.081 132.565
L344.274 132.565
L344.274 132.063
L344.441 132.063
L344.507 131.059
L344.604 131.059
L344.672 130.055
L344.784 130.055
L344.891 129.051
L345.003 129.051
L345.079 128.047
L345.241 128.047
L345.312 127.043
L345.474 127.043
L345.474 126.541
L346.583 126.541
L346.583 126.039
L346.695 126.039
L346.695 125.537
L347.388 125.537
L347.388 125.035
L347.499 125.035
L347.55 124.031
L347.662 124.031
L347.662 123.529
L389.076 123.529
L389.138 122.525
L389.433 122.525
L389.537 121.02
L389.729 121.02
L389.729 120.518
L389.881 120.518
L389.881 120.016
L390.2 120.016
L390.244 119.012
L390.881 119.012
L390.942 118.008
L391.029 118.008
L391.029 117.506
L391.171 117.506
L391.281 116
L391.341 116
L391.341 115.498
L391.533 115.498
L391.533 114.996
L391.679 114.996
L391.74 113.49
L391.852 113.49
L391.913 111.984
L392.004 111.984
L392.079 109.976
L392.139 109.976
L392.208 108.973
L392.252 108.973
L392.332 106.965
L392.429 106.965
L392.504 104.957
L392.656 104.957
L392.656 104.455
L392.803 104.455
L392.846 102.949
L392.975 102.949
L393.019 101.443
L393.631 101.443
L393.712 100.439
L393.773 100.439
L393.855 98.4314
L393.946 98.4314
L393.946 97.9294
L394.078 97.9294
L394.15 96.9255
L394.194 96.9255
L394.296 94.4157
L394.338 94.4157
L394.447 93.4118
L394.511 93.4118
L394.598 92.4078
L394.633 92.4078
L394.738 89.898
L394.764 89.898
L394.764 89.3961
L394.876 89.3961
L394.961 87.3882
L395.01 87.3882
L395.104 83.3725
L395.164 83.3725
L395.267 81.8667
L395.35 81.8667
L395.444 78.3529
L395.471 78.3529
L395.508 77.349
L395.663 77.349
L395.75 75.3412
L395.811 75.3412
L395.889 72.8314
L396.003 72.8314
L396.1 71.8275
L396.134 71.8275
L396.229 69.3176
L396.371 69.3176
L396.474 67.8118
L396.5 67.8118
L396.561 66.3059
L396.626 66.3059
L396.656 65.302
L396.753 65.302
L396.798 64.298
L396.905 64.298
L396.991 62.7922
L397.022 62.7922
L397.109 60.7843
L397.147 60.7843
L397.224 59.2784
L397.267 59.2784
L397.378 57.7725
L397.409 57.7725
L397.502 53.7569
L397.535 53.7569
L397.63 52.7529
L397.675 52.7529
L397.765 51.2471
L397.797 51.2471
L397.902 46.7294
L397.925 46.7294
L397.925 46.2275
L398.053 46.2275
L398.146 43.2157
L398.182 43.2157
L398.264 39.2
L398.325 39.2
L398.425 37.6941
L398.517 37.6941
L398.608 34.6824
L398.668 34.6824
L398.765 33.1765
L398.932 33.1765
L399.031 31.1686
L399.117 31.1686
L399.117 30.6667
L399.297 30.6667
L399.394 29.1608
L399.453 29.1608
L399.536 27.1529
L399.816 27.1529
L399.854 26.149
L399.959 26.149
L399.959 25.6471
L400.219 25.6471
L400.273 24.1412
L400.375 24.1412
L400.437 23.1373
L400.606 23.1373
L400.696 21.6314
L400.762 21.6314
L400.862 19.1216
L400.923 19.1216
L400.923 18.6196
L401.061 18.6196
L401.061 18.1176
L401.217 18.1176
L401.322 15.6078
L401.514 15.6078
L401.514 15.1059
L401.666 15.1059
L401.666 14.6039
L401.985 14.6039
L402.029 13.6
L402.814 13.6
L402.814 13.098
L402.956 13.098
L402.956 12.5961
L403.693 12.5961
L403.693 12.0941
L404.059 12.0941
L404.059 11.5922
L404.215 11.5922
L404.277 10.5882
L481.956 10.5882
L481.956 10.5882" style="fill:none;stroke:#bf00bf;stroke-linecap:square;stroke-width:3.0;"/>
   </g>
   <g id="line2d_6"/>
   <g id="line2d_7">
    <path clip-path="url(#p96d9120af0)" d="
M35.5563 349.412
L218.595 349.412
L218.595 348.91
L221.215 348.91
L221.215 348.408
L224.687 348.408
L224.73 347.404
L226.366 347.404
L226.366 346.902
L227.307 346.902
L227.307 346.4
L227.488 346.4
L227.488 345.898
L227.83 345.898
L227.83 345.396
L228.005 345.396
L228.005 344.894
L229.694 344.894
L229.694 344.392
L230.626 344.392
L230.626 343.89
L230.822 343.89
L230.822 343.388
L231.51 343.388
L231.51 342.384
L232.458 342.384
L232.507 341.38
L233.58 341.38
L233.58 340.878
L233.922 340.878
L233.922 340.376
L234.141 340.376
L234.141 339.875
L234.81 339.875
L234.81 339.373
L235.776 339.373
L235.786 338.369
L236.184 338.369
L236.184 337.867
L236.334 337.867
L236.334 337.365
L236.712 337.365
L236.712 336.863
L236.898 336.863
L236.898 336.361
L237.24 336.361
L237.24 335.859
L237.43 335.859
L237.43 335.357
L237.601 335.357
L237.601 334.353
L238.598 334.353
L238.598 333.851
L238.804 333.851
L238.804 333.349
L238.955 333.349
L238.955 332.847
L239.104 332.847
L239.104 332.345
L240.125 332.345
L240.125 331.843
L240.501 331.843
L240.501 331.341
L240.92 331.341
L240.946 329.835
L241.917 329.835
L241.917 329.333
L242.232 329.333
L242.32 327.827
L242.47 327.827
L242.47 327.325
L242.581 327.325
L242.581 326.824
L242.787 326.824
L242.804 325.82
L243.122 325.82
L243.122 325.318
L243.703 325.318
L243.703 324.816
L243.955 324.816
L244.045 323.812
L244.083 323.812
L244.106 322.808
L244.719 322.808
L244.719 322.306
L244.88 322.306
L244.88 321.804
L245.077 321.804
L245.077 321.302
L245.228 321.302
L245.228 320.8
L245.408 320.8
L245.419 319.796
L245.569 319.796
L245.569 319.294
L245.909 319.294
L245.909 318.792
L246.122 318.792
L246.217 317.788
L246.454 317.788
L246.454 317.286
L246.637 317.286
L246.704 316.282
L247.283 316.282
L247.339 315.278
L247.434 315.278
L247.434 314.776
L247.725 314.776
L247.725 313.773
L248.273 313.773
L248.324 312.769
L248.395 312.769
L248.395 312.267
L248.722 312.267
L248.722 311.765
L248.923 311.765
L248.923 311.263
L249.075 311.263
L249.099 309.757
L249.249 309.757
L249.249 308.753
L249.395 308.753
L249.395 308.251
L249.535 308.251
L249.535 307.749
L249.736 307.749
L249.749 306.745
L250.03 306.745
L250.096 305.741
L250.219 305.741
L250.246 304.737
L250.427 304.737
L250.427 304.235
L250.559 304.235
L250.559 303.733
L250.793 303.733
L250.854 302.729
L251.152 302.729
L251.152 302.227
L251.494 302.227
L251.601 301.224
L251.643 301.224
L251.681 300.22
L251.855 300.22
L251.855 299.718
L252.022 299.718
L252.022 299.216
L252.37 299.216
L252.406 298.212
L252.49 298.212
L252.59 297.208
L252.927 297.208
L252.977 296.204
L253.048 296.204
L253.048 295.702
L253.24 295.702
L253.318 294.698
L253.358 294.698
L253.416 293.192
L253.612 293.192
L253.612 292.69
L253.887 292.69
L253.954 291.686
L254.225 291.686
L254.301 290.682
L254.413 290.682
L254.452 289.678
L255.026 289.678
L255.026 289.176
L255.174 289.176
L255.183 287.671
L255.347 287.671
L255.347 287.169
L255.689 287.169
L255.702 285.663
L255.818 285.663
L255.885 284.659
L256.171 284.659
L256.171 284.157
L256.34 284.157
L256.34 283.655
L256.563 283.655
L256.563 283.153
L256.699 283.153
L256.699 282.651
L256.885 282.651
L256.885 282.149
L256.998 282.149
L256.998 281.145
L257.521 281.145
L257.554 280.141
L257.633 280.141
L257.714 278.635
L257.864 278.635
L257.864 278.133
L257.995 278.133
L257.995 277.631
L258.199 277.631
L258.199 277.129
L258.448 277.129
L258.541 276.125
L258.619 276.125
L258.643 274.62
L258.984 274.62
L258.984 274.118
L259.32 274.118
L259.369 272.11
L259.662 272.11
L259.662 271.608
L259.822 271.608
L259.822 271.106
L259.972 271.106
L259.972 270.604
L260.177 270.604
L260.203 269.6
L260.366 269.6
L260.376 268.596
L260.849 268.596
L260.905 267.592
L261.299 267.592
L261.299 267.09
L261.527 267.09
L261.527 266.588
L261.641 266.588
L261.641 266.086
L262.031 266.086
L262.031 265.584
L262.201 265.584
L262.201 265.082
L262.651 265.082
L262.664 263.576
L262.836 263.576
L262.836 263.075
L263.342 263.075
L263.342 262.071
L263.505 262.071
L263.505 261.569
L263.661 261.569
L263.661 261.067
L263.789 261.067
L263.789 260.565
L264.139 260.565
L264.139 260.063
L264.317 260.063
L264.339 259.059
L264.572 259.059
L264.572 258.557
L265.321 258.557
L265.321 257.553
L265.613 257.553
L265.613 257.051
L265.897 257.051
L265.897 256.549
L266.249 256.549
L266.317 255.545
L266.425 255.545
L266.425 255.043
L267.008 255.043
L267.008 254.541
L267.721 254.541
L267.721 254.039
L267.867 254.039
L267.867 253.537
L267.984 253.537
L267.984 253.035
L268.356 253.035
L268.382 252.031
L268.532 252.031
L268.545 251.027
L269.455 251.027
L269.455 250.525
L270.092 250.525
L270.092 250.024
L270.523 250.024
L270.523 249.522
L270.829 249.522
L270.829 249.02
L270.98 249.02
L270.98 248.518
L271.279 248.518
L271.279 248.016
L271.957 248.016
L271.957 247.514
L272.699 247.514
L272.699 247.012
L273.387 247.012
L273.387 246.51
L273.936 246.51
L273.936 246.008
L274.065 246.008
L274.065 245.506
L274.457 245.506
L274.457 245.004
L274.985 245.004
L274.985 244.502
L275.147 244.502
L275.147 244
L276.043 244
L276.043 243.498
L276.281 243.498
L276.281 242.996
L276.905 242.996
L276.917 241.992
L277.433 241.992
L277.433 241.49
L278.652 241.49
L278.729 240.486
L279.364 240.486
L279.364 239.984
L281.1 239.984
L281.1 239.482
L281.947 239.482
L281.947 238.98
L282.625 238.98
L282.625 238.478
L284.395 238.478
L284.395 237.976
L284.604 237.976
L284.604 237.475
L285.073 237.475
L285.073 236.973
L287.051 236.973
L287.051 236.471
L337.022 236.471
L337.123 235.467
L338.445 235.467
L338.547 234.463
L338.562 234.463
L338.654 233.459
L338.754 233.459
L338.772 232.455
L339.004 232.455
L339.09 231.451
L339.508 231.451
L339.508 230.949
L339.722 230.949
L339.722 230.447
L339.985 230.447
L340.078 229.443
L340.177 229.443
L340.195 228.439
L340.427 228.439
L340.514 227.435
L340.684 227.435
L340.684 226.933
L340.873 226.933
L340.975 224.925
L341.145 224.925
L341.145 224.424
L342.107 224.424
L342.107 223.922
L342.272 223.922
L342.337 222.416
L342.398 222.416
L342.398 221.914
L343.695 221.914
L343.695 221.412
L348.141 221.412
L348.243 220.408
L348.337 220.408
L348.439 219.404
L349.357 219.404
L349.458 218.4
L349.486 218.4
L349.588 217.396
L349.681 217.396
L349.774 216.392
L349.873 216.392
L349.97 214.384
L350.069 214.384
L350.123 212.376
L350.187 212.376
L350.21 211.373
L350.319 211.373
L350.414 209.867
L350.516 209.867
L350.516 209.365
L350.628 209.365
L350.628 208.863
L350.824 208.863
L350.897 207.357
L350.989 207.357
L351.089 205.349
L351.107 205.349
L351.119 204.345
L351.219 204.345
L351.237 203.341
L351.339 203.341
L351.425 202.337
L351.469 202.337
L351.555 200.329
L351.622 200.329
L351.718 198.322
L351.803 198.322
L351.843 196.314
L351.954 196.314
L352.057 192.8
L352.068 192.8
L352.165 190.29
L352.187 190.29
L352.291 187.78
L352.372 187.78
L352.396 186.776
L352.483 186.776
L352.572 185.773
L352.786 185.773
L352.786 185.271
L352.901 185.271
L352.901 184.769
L353.019 184.769
L353.115 182.761
L353.149 182.761
L353.252 179.247
L353.264 179.247
L353.338 176.235
L353.379 176.235
L353.44 174.729
L353.502 174.729
L353.601 172.22
L353.748 172.22
L353.81 171.216
L353.903 171.216
L354.006 168.706
L354.019 168.706
L354.076 166.196
L354.154 166.196
L354.252 164.188
L354.266 164.188
L354.368 162.18
L354.522 162.18
L354.624 160.675
L354.729 160.675
L354.822 158.667
L354.921 158.667
L354.97 157.161
L355.171 157.161
L355.258 155.153
L355.336 155.153
L355.424 152.643
L355.473 152.643
L355.566 151.137
L355.592 151.137
L355.685 148.627
L355.784 148.627
L355.889 147.122
L355.932 147.122
L356.034 146.118
L356.062 146.118
L356.162 143.608
L356.223 143.608
L356.273 142.102
L356.504 142.102
L356.591 140.596
L356.752 140.596
L356.851 138.588
L357.009 138.588
L357.106 136.58
L357.142 136.58
L357.223 135.075
L357.298 135.075
L357.316 134.071
L357.52 134.071
L357.548 133.067
L357.635 133.067
L357.714 132.063
L357.904 132.063
L358.006 130.557
L358.052 130.557
L358.052 130.055
L358.184 130.055
L358.266 129.051
L358.374 129.051
L358.476 127.043
L359.228 127.043
L359.302 126.039
L359.417 126.039
L359.519 124.533
L359.772 124.533
L359.772 124.031
L360.816 124.031
L360.816 123.529
L392.734 123.529
L392.734 123.027
L393.132 123.027
L393.132 122.525
L393.274 122.525
L393.274 122.024
L393.402 122.024
L393.426 121.02
L393.534 121.02
L393.632 120.016
L393.672 120.016
L393.742 119.012
L393.942 119.012
L394.03 117.506
L394.074 117.506
L394.169 116.502
L394.282 116.502
L394.365 113.992
L394.432 113.992
L394.531 112.486
L394.631 112.486
L394.709 110.98
L394.85 110.98
L394.905 109.976
L394.984 109.976
L395.071 107.467
L395.123 107.467
L395.208 105.961
L395.244 105.961
L395.263 104.957
L395.383 104.957
L395.453 102.447
L395.529 102.447
L395.529 101.945
L395.653 101.945
L395.747 99.4353
L395.784 99.4353
L395.855 97.9294
L395.907 97.9294
L395.993 95.9216
L396.021 95.9216
L396.063 94.9176
L396.142 94.9176
L396.142 94.4157
L396.306 94.4157
L396.378 92.9098
L396.42 92.9098
L396.49 91.9059
L396.56 91.9059
L396.647 88.8941
L396.671 88.8941
L396.782 85.8824
L396.836 85.8824
L396.916 83.8745
L396.952 83.8745
L396.988 82.8706
L397.068 82.8706
L397.068 82.3686
L397.308 82.3686
L397.415 80.3608
L397.444 80.3608
L397.555 77.349
L397.565 77.349
L397.659 75.3412
L397.689 75.3412
L397.777 71.3255
L397.805 71.3255
L397.877 69.8196
L397.976 69.8196
L398.077 67.8118
L398.108 67.8118
L398.108 67.3098
L398.253 67.3098
L398.316 64.8
L398.369 64.8
L398.418 63.2941
L398.489 63.2941
L398.594 60.7843
L398.644 60.7843
L398.743 58.2745
L398.85 58.2745
L398.939 55.7647
L398.966 55.7647
L399.021 53.7569
L399.089 53.7569
L399.19 51.2471
L399.205 51.2471
L399.216 49.7412
L399.323 49.7412
L399.419 47.2314
L399.458 47.2314
L399.53 45.7255
L399.579 45.7255
L399.579 45.2235
L399.69 45.2235
L399.75 42.7137
L399.818 42.7137
L399.89 41.2078
L399.946 41.2078
L399.982 39.2
L400.088 39.2
L400.153 34.6824
L400.212 34.6824
L400.32 32.1725
L400.358 32.1725
L400.428 29.1608
L400.491 29.1608
L400.491 28.1569
L400.698 28.1569
L400.704 26.651
L400.824 26.651
L400.911 25.1451
L400.989 25.1451
L401.051 23.1373
L401.125 23.1373
L401.217 20.6275
L401.266 20.6275
L401.321 18.1176
L401.471 18.1176
L401.488 16.1098
L401.587 16.1098
L401.587 15.1059
L401.809 15.1059
L401.809 14.6039
L401.929 14.6039
L401.929 14.102
L402.079 14.102
L402.094 12.5961
L402.2 12.5961
L402.2 11.5922
L402.365 11.5922
L402.365 10.5882
L481.956 10.5882
L481.956 10.5882" style="fill:none;stroke:#ff0000;stroke-linecap:square;stroke-width:3.0;"/>
   </g>
   <g id="line2d_8"/>
   <g id="line2d_9">
    <path clip-path="url(#p96d9120af0)" d="
M258.756 352.8
L258.756 7.2" style="fill:none;stroke:#000000;stroke-linecap:square;"/>
   </g>
   <g id="line2d_10">
    <path clip-path="url(#p96d9120af0)" d="
M35.5563 180
L481.956 180" style="fill:none;stroke:#000000;stroke-dasharray:1.000000,3.000000;stroke-dashoffset:0.0;stroke-width:2;"/>
   </g>
   <g id="matplotlib.axis_1">
    <g id="xtick_1">
     <g id="line2d_11">
      <path clip-path="url(#p96d9120af0)" d="
M35.5563 352.8
L35.5563 7.2" style="fill:none;stroke:#000000;stroke-dasharray:1.000000,3.000000;stroke-dashoffset:0.0;stroke-width:0.5;"/>
     </g>
     <g id="line2d_12">
      <defs>
       <path d="
M0 0
L0 -4" id="m93b0483c22" style="stroke:#000000;stroke-width:0.5;"/>
      </defs>
      <g>
       <use style="stroke:#000000;stroke-width:0.5;" x="35.55625" xlink:href="#m93b0483c22" y="352.8"/>
      </g>
     </g>
     <g id="line2d_13">
      <defs>
       <path d="
M0 0
L0 4" id="m741efc42ff" style="stroke:#000000;stroke-width:0.5;"/>
      </defs>
      <g>
       <use style="stroke:#000000;stroke-width:0.5;" x="35.55625" xlink:href="#m741efc42ff" y="7.2"/>
      </g>
     </g>
     <g id="text_1">
      <!-- -2 -->
      <defs>
       <path d="
M19.1875 8.29688
L53.6094 8.29688
L53.6094 0
L7.32812 0
L7.32812 8.29688
Q12.9375 14.1094 22.625 23.8906
Q32.3281 33.6875 34.8125 36.5312
Q39.5469 41.8438 41.4219 45.5312
Q43.3125 49.2188 43.3125 52.7812
Q43.3125 58.5938 39.2344 62.25
Q35.1562 65.9219 28.6094 65.9219
Q23.9688 65.9219 18.8125 64.3125
Q13.6719 62.7031 7.8125 59.4219
L7.8125 69.3906
Q13.7656 71.7812 18.9375 73
Q24.125 74.2188 28.4219 74.2188
Q39.75 74.2188 46.4844 68.5469
Q53.2188 62.8906 53.2188 53.4219
Q53.2188 48.9219 51.5312 44.8906
Q49.8594 40.875 45.4062 35.4062
Q44.1875 33.9844 37.6406 27.2188
Q31.1094 20.4531 19.1875 8.29688" id="BitstreamVeraSans-Roman-32"/>
       <path d="
M4.89062 31.3906
L31.2031 31.3906
L31.2031 23.3906
L4.89062 23.3906
z
" id="BitstreamVeraSans-Roman-2d"/>
      </defs>
      <g transform="translate(27.0765625 371.996875)scale(0.2 -0.2)">
       <use xlink:href="#BitstreamVeraSans-Roman-2d"/>
       <use x="36.083984375" xlink:href="#BitstreamVeraSans-Roman-32"/>
      </g>
     </g>
    </g>
    <g id="xtick_2">
     <g id="line2d_14">
      <path clip-path="url(#p96d9120af0)" d="
M147.156 352.8
L147.156 7.2" style="fill:none;stroke:#000000;stroke-dasharray:1.000000,3.000000;stroke-dashoffset:0.0;stroke-width:0.5;"/>
     </g>
     <g id="line2d_15">
      <g>
       <use style="stroke:#000000;stroke-width:0.5;" x="147.15625" xlink:href="#m93b0483c22" y="352.8"/>
      </g>
     </g>
     <g id="line2d_16">
      <g>
       <use style="stroke:#000000;stroke-width:0.5;" x="147.15625" xlink:href="#m741efc42ff" y="7.2"/>
      </g>
     </g>
     <g id="text_2">
      <!-- -1 -->
      <defs>
       <path d="
M12.4062 8.29688
L28.5156 8.29688
L28.5156 63.9219
L10.9844 60.4062
L10.9844 69.3906
L28.4219 72.9062
L38.2812 72.9062
L38.2812 8.29688
L54.3906 8.29688
L54.3906 0
L12.4062 0
z
" id="BitstreamVeraSans-Roman-31"/>
      </defs>
      <g transform="translate(138.5984375 371.996875)scale(0.2 -0.2)">
       <use xlink:href="#BitstreamVeraSans-Roman-2d"/>
       <use x="36.083984375" xlink:href="#BitstreamVeraSans-Roman-31"/>
      </g>
     </g>
    </g>
    <g id="xtick_3">
     <g id="line2d_17">
      <path clip-path="url(#p96d9120af0)" d="
M258.756 352.8
L258.756 7.2" style="fill:none;stroke:#000000;stroke-dasharray:1.000000,3.000000;stroke-dashoffset:0.0;stroke-width:0.5;"/>
     </g>
     <g id="line2d_18">
      <g>
       <use style="stroke:#000000;stroke-width:0.5;" x="258.75625" xlink:href="#m93b0483c22" y="352.8"/>
      </g>
     </g>
     <g id="line2d_19">
      <g>
       <use style="stroke:#000000;stroke-width:0.5;" x="258.75625" xlink:href="#m741efc42ff" y="7.2"/>
      </g>
     </g>
     <g id="text_3">
      <!-- 0 -->
      <defs>
       <path d="
M31.7812 66.4062
Q24.1719 66.4062 20.3281 58.9062
Q16.5 51.4219 16.5 36.375
Q16.5 21.3906 20.3281 13.8906
Q24.1719 6.39062 31.7812 6.39062
Q39.4531 6.39062 43.2812 13.8906
Q47.125 21.3906 47.125 36.375
Q47.125 51.4219 43.2812 58.9062
Q39.4531 66.4062 31.7812 66.4062
M31.7812 74.2188
Q44.0469 74.2188 50.5156 64.5156
Q56.9844 54.8281 56.9844 36.375
Q56.9844 17.9688 50.5156 8.26562
Q44.0469 -1.42188 31.7812 -1.42188
Q19.5312 -1.42188 13.0625 8.26562
Q6.59375 17.9688 6.59375 36.375
Q6.59375 54.8281 13.0625 64.5156
Q19.5312 74.2188 31.7812 74.2188" id="BitstreamVeraSans-Roman-30"/>
      </defs>
      <g transform="translate(253.7171875 371.996875)scale(0.2 -0.2)">
       <use xlink:href="#BitstreamVeraSans-Roman-30"/>
      </g>
     </g>
    </g>
    <g id="xtick_4">
     <g id="line2d_20">
      <path clip-path="url(#p96d9120af0)" d="
M370.356 352.8
L370.356 7.2" style="fill:none;stroke:#000000;stroke-dasharray:1.000000,3.000000;stroke-dashoffset:0.0;stroke-width:0.5;"/>
     </g>
     <g id="line2d_21">
      <g>
       <use style="stroke:#000000;stroke-width:0.5;" x="370.35625" xlink:href="#m93b0483c22" y="352.8"/>
      </g>
     </g>
     <g id="line2d_22">
      <g>
       <use style="stroke:#000000;stroke-width:0.5;" x="370.35625" xlink:href="#m741efc42ff" y="7.2"/>
      </g>
     </g>
     <g id="text_4">
      <!-- 1 -->
      <g transform="translate(366.015625 371.996875)scale(0.2 -0.2)">
       <use xlink:href="#BitstreamVeraSans-Roman-31"/>
      </g>
     </g>
    </g>
    <g id="xtick_5">
     <g id="line2d_23">
      <path clip-path="url(#p96d9120af0)" d="
M481.956 352.8
L481.956 7.2" style="fill:none;stroke:#000000;stroke-dasharray:1.000000,3.000000;stroke-dashoffset:0.0;stroke-width:0.5;"/>
     </g>
     <g id="line2d_24">
      <g>
       <use style="stroke:#000000;stroke-width:0.5;" x="481.95625" xlink:href="#m93b0483c22" y="352.8"/>
      </g>
     </g>
     <g id="line2d_25">
      <g>
       <use style="stroke:#000000;stroke-width:0.5;" x="481.95625" xlink:href="#m741efc42ff" y="7.2"/>
      </g>
     </g>
     <g id="text_5">
      <!-- 2 -->
      <g transform="translate(477.328125 371.996875)scale(0.2 -0.2)">
       <use xlink:href="#BitstreamVeraSans-Roman-32"/>
      </g>
     </g>
    </g>
    <g id="xtick_6">
     <g id="line2d_26">
      <defs>
       <path d="
M0 0
L0 -2" id="m177f7580d0" style="stroke:#000000;stroke-width:0.5;"/>
      </defs>
      <g>
       <use style="stroke:#000000;stroke-width:0.5;" x="40.6627859466" xlink:href="#m177f7580d0" y="352.8"/>
      </g>
     </g>
     <g id="line2d_27">
      <defs>
       <path d="
M0 0
L0 2" id="m5284c7e2a0" style="stroke:#000000;stroke-width:0.5;"/>
      </defs>
      <g>
       <use style="stroke:#000000;stroke-width:0.5;" x="40.6627859466" xlink:href="#m5284c7e2a0" y="7.2"/>
      </g>
     </g>
    </g>
    <g id="xtick_7">
     <g id="line2d_28">
      <g>
       <use style="stroke:#000000;stroke-width:0.5;" x="46.3714074517" xlink:href="#m177f7580d0" y="352.8"/>
      </g>
     </g>
     <g id="line2d_29">
      <g>
       <use style="stroke:#000000;stroke-width:0.5;" x="46.3714074517" xlink:href="#m5284c7e2a0" y="7.2"/>
      </g>
     </g>
    </g>
    <g id="xtick_8">
     <g id="line2d_30">
      <g>
       <use style="stroke:#000000;stroke-width:0.5;" x="52.8433087344" xlink:href="#m177f7580d0" y="352.8"/>
      </g>
     </g>
     <g id="line2d_31">
      <g>
       <use style="stroke:#000000;stroke-width:0.5;" x="52.8433087344" xlink:href="#m5284c7e2a0" y="7.2"/>
      </g>
     </g>
    </g>
    <g id="xtick_9">
     <g id="line2d_32">
      <g>
       <use style="stroke:#000000;stroke-width:0.5;" x="60.3145704572" xlink:href="#m177f7580d0" y="352.8"/>
      </g>
     </g>
     <g id="line2d_33">
      <g>
       <use style="stroke:#000000;stroke-width:0.5;" x="60.3145704572" xlink:href="#m5284c7e2a0" y="7.2"/>
      </g>
     </g>
    </g>
    <g id="xtick_10">
     <g id="line2d_34">
      <g>
       <use style="stroke:#000000;stroke-width:0.5;" x="69.1511975161" xlink:href="#m177f7580d0" y="352.8"/>
      </g>
     </g>
     <g id="line2d_35">
      <g>
       <use style="stroke:#000000;stroke-width:0.5;" x="69.1511975161" xlink:href="#m5284c7e2a0" y="7.2"/>
      </g>
     </g>
    </g>
    <g id="xtick_11">
     <g id="line2d_36">
      <g>
       <use style="stroke:#000000;stroke-width:0.5;" x="79.9663549678" xlink:href="#m177f7580d0" y="352.8"/>
      </g>
     </g>
     <g id="line2d_37">
      <g>
       <use style="stroke:#000000;stroke-width:0.5;" x="79.9663549678" xlink:href="#m5284c7e2a0" y="7.2"/>
      </g>
     </g>
    </g>
    <g id="xtick_12">
     <g id="line2d_38">
      <g>
       <use style="stroke:#000000;stroke-width:0.5;" x="93.9095179733" xlink:href="#m177f7580d0" y="352.8"/>
      </g>
     </g>
     <g id="line2d_39">
      <g>
       <use style="stroke:#000000;stroke-width:0.5;" x="93.9095179733" xlink:href="#m5284c7e2a0" y="7.2"/>
      </g>
     </g>
    </g>
    <g id="xtick_13">
     <g id="line2d_40">
      <g>
       <use style="stroke:#000000;stroke-width:0.5;" x="113.561302484" xlink:href="#m177f7580d0" y="352.8"/>
      </g>
     </g>
     <g id="line2d_41">
      <g>
       <use style="stroke:#000000;stroke-width:0.5;" x="113.561302484" xlink:href="#m5284c7e2a0" y="7.2"/>
      </g>
     </g>
    </g>
    <g id="xtick_14">
     <g id="line2d_42">
      <g>
       <use style="stroke:#000000;stroke-width:0.5;" x="152.262785947" xlink:href="#m177f7580d0" y="352.8"/>
      </g>
     </g>
     <g id="line2d_43">
      <g>
       <use style="stroke:#000000;stroke-width:0.5;" x="152.262785947" xlink:href="#m5284c7e2a0" y="7.2"/>
      </g>
     </g>
    </g>
    <g id="xtick_15">
     <g id="line2d_44">
      <g>
       <use style="stroke:#000000;stroke-width:0.5;" x="157.971407452" xlink:href="#m177f7580d0" y="352.8"/>
      </g>
     </g>
     <g id="line2d_45">
      <g>
       <use style="stroke:#000000;stroke-width:0.5;" x="157.971407452" xlink:href="#m5284c7e2a0" y="7.2"/>
      </g>
     </g>
    </g>
    <g id="xtick_16">
     <g id="line2d_46">
      <g>
       <use style="stroke:#000000;stroke-width:0.5;" x="164.443308734" xlink:href="#m177f7580d0" y="352.8"/>
      </g>
     </g>
     <g id="line2d_47">
      <g>
       <use style="stroke:#000000;stroke-width:0.5;" x="164.443308734" xlink:href="#m5284c7e2a0" y="7.2"/>
      </g>
     </g>
    </g>
    <g id="xtick_17">
     <g id="line2d_48">
      <g>
       <use style="stroke:#000000;stroke-width:0.5;" x="171.914570457" xlink:href="#m177f7580d0" y="352.8"/>
      </g>
     </g>
     <g id="line2d_49">
      <g>
       <use style="stroke:#000000;stroke-width:0.5;" x="171.914570457" xlink:href="#m5284c7e2a0" y="7.2"/>
      </g>
     </g>
    </g>
    <g id="xtick_18">
     <g id="line2d_50">
      <g>
       <use style="stroke:#000000;stroke-width:0.5;" x="180.751197516" xlink:href="#m177f7580d0" y="352.8"/>
      </g>
     </g>
     <g id="line2d_51">
      <g>
       <use style="stroke:#000000;stroke-width:0.5;" x="180.751197516" xlink:href="#m5284c7e2a0" y="7.2"/>
      </g>
     </g>
    </g>
    <g id="xtick_19">
     <g id="line2d_52">
      <g>
       <use style="stroke:#000000;stroke-width:0.5;" x="191.566354968" xlink:href="#m177f7580d0" y="352.8"/>
      </g>
     </g>
     <g id="line2d_53">
      <g>
       <use style="stroke:#000000;stroke-width:0.5;" x="191.566354968" xlink:href="#m5284c7e2a0" y="7.2"/>
      </g>
     </g>
    </g>
    <g id="xtick_20">
     <g id="line2d_54">
      <g>
       <use style="stroke:#000000;stroke-width:0.5;" x="205.509517973" xlink:href="#m177f7580d0" y="352.8"/>
      </g>
     </g>
     <g id="line2d_55">
      <g>
       <use style="stroke:#000000;stroke-width:0.5;" x="205.509517973" xlink:href="#m5284c7e2a0" y="7.2"/>
      </g>
     </g>
    </g>
    <g id="xtick_21">
     <g id="line2d_56">
      <g>
       <use style="stroke:#000000;stroke-width:0.5;" x="225.161302484" xlink:href="#m177f7580d0" y="352.8"/>
      </g>
     </g>
     <g id="line2d_57">
      <g>
       <use style="stroke:#000000;stroke-width:0.5;" x="225.161302484" xlink:href="#m5284c7e2a0" y="7.2"/>
      </g>
     </g>
    </g>
    <g id="xtick_22">
     <g id="line2d_58">
      <g>
       <use style="stroke:#000000;stroke-width:0.5;" x="292.351197516" xlink:href="#m177f7580d0" y="352.8"/>
      </g>
     </g>
     <g id="line2d_59">
      <g>
       <use style="stroke:#000000;stroke-width:0.5;" x="292.351197516" xlink:href="#m5284c7e2a0" y="7.2"/>
      </g>
     </g>
    </g>
    <g id="xtick_23">
     <g id="line2d_60">
      <g>
       <use style="stroke:#000000;stroke-width:0.5;" x="312.002982027" xlink:href="#m177f7580d0" y="352.8"/>
      </g>
     </g>
     <g id="line2d_61">
      <g>
       <use style="stroke:#000000;stroke-width:0.5;" x="312.002982027" xlink:href="#m5284c7e2a0" y="7.2"/>
      </g>
     </g>
    </g>
    <g id="xtick_24">
     <g id="line2d_62">
      <g>
       <use style="stroke:#000000;stroke-width:0.5;" x="325.946145032" xlink:href="#m177f7580d0" y="352.8"/>
      </g>
     </g>
     <g id="line2d_63">
      <g>
       <use style="stroke:#000000;stroke-width:0.5;" x="325.946145032" xlink:href="#m5284c7e2a0" y="7.2"/>
      </g>
     </g>
    </g>
    <g id="xtick_25">
     <g id="line2d_64">
      <g>
       <use style="stroke:#000000;stroke-width:0.5;" x="336.761302484" xlink:href="#m177f7580d0" y="352.8"/>
      </g>
     </g>
     <g id="line2d_65">
      <g>
       <use style="stroke:#000000;stroke-width:0.5;" x="336.761302484" xlink:href="#m5284c7e2a0" y="7.2"/>
      </g>
     </g>
    </g>
    <g id="xtick_26">
     <g id="line2d_66">
      <g>
       <use style="stroke:#000000;stroke-width:0.5;" x="345.597929543" xlink:href="#m177f7580d0" y="352.8"/>
      </g>
     </g>
     <g id="line2d_67">
      <g>
       <use style="stroke:#000000;stroke-width:0.5;" x="345.597929543" xlink:href="#m5284c7e2a0" y="7.2"/>
      </g>
     </g>
    </g>
    <g id="xtick_27">
     <g id="line2d_68">
      <g>
       <use style="stroke:#000000;stroke-width:0.5;" x="353.069191266" xlink:href="#m177f7580d0" y="352.8"/>
      </g>
     </g>
     <g id="line2d_69">
      <g>
       <use style="stroke:#000000;stroke-width:0.5;" x="353.069191266" xlink:href="#m5284c7e2a0" y="7.2"/>
      </g>
     </g>
    </g>
    <g id="xtick_28">
     <g id="line2d_70">
      <g>
       <use style="stroke:#000000;stroke-width:0.5;" x="359.541092548" xlink:href="#m177f7580d0" y="352.8"/>
      </g>
     </g>
     <g id="line2d_71">
      <g>
       <use style="stroke:#000000;stroke-width:0.5;" x="359.541092548" xlink:href="#m5284c7e2a0" y="7.2"/>
      </g>
     </g>
    </g>
    <g id="xtick_29">
     <g id="line2d_72">
      <g>
       <use style="stroke:#000000;stroke-width:0.5;" x="365.249714053" xlink:href="#m177f7580d0" y="352.8"/>
      </g>
     </g>
     <g id="line2d_73">
      <g>
       <use style="stroke:#000000;stroke-width:0.5;" x="365.249714053" xlink:href="#m5284c7e2a0" y="7.2"/>
      </g>
     </g>
    </g>
    <g id="xtick_30">
     <g id="line2d_74">
      <g>
       <use style="stroke:#000000;stroke-width:0.5;" x="403.951197516" xlink:href="#m177f7580d0" y="352.8"/>
      </g>
     </g>
     <g id="line2d_75">
      <g>
       <use style="stroke:#000000;stroke-width:0.5;" x="403.951197516" xlink:href="#m5284c7e2a0" y="7.2"/>
      </g>
     </g>
    </g>
    <g id="xtick_31">
     <g id="line2d_76">
      <g>
       <use style="stroke:#000000;stroke-width:0.5;" x="423.602982027" xlink:href="#m177f7580d0" y="352.8"/>
      </g>
     </g>
     <g id="line2d_77">
      <g>
       <use style="stroke:#000000;stroke-width:0.5;" x="423.602982027" xlink:href="#m5284c7e2a0" y="7.2"/>
      </g>
     </g>
    </g>
    <g id="xtick_32">
     <g id="line2d_78">
      <g>
       <use style="stroke:#000000;stroke-width:0.5;" x="437.546145032" xlink:href="#m177f7580d0" y="352.8"/>
      </g>
     </g>
     <g id="line2d_79">
      <g>
       <use style="stroke:#000000;stroke-width:0.5;" x="437.546145032" xlink:href="#m5284c7e2a0" y="7.2"/>
      </g>
     </g>
    </g>
    <g id="xtick_33">
     <g id="line2d_80">
      <g>
       <use style="stroke:#000000;stroke-width:0.5;" x="448.361302484" xlink:href="#m177f7580d0" y="352.8"/>
      </g>
     </g>
     <g id="line2d_81">
      <g>
       <use style="stroke:#000000;stroke-width:0.5;" x="448.361302484" xlink:href="#m5284c7e2a0" y="7.2"/>
      </g>
     </g>
    </g>
    <g id="xtick_34">
     <g id="line2d_82">
      <g>
       <use style="stroke:#000000;stroke-width:0.5;" x="457.197929543" xlink:href="#m177f7580d0" y="352.8"/>
      </g>
     </g>
     <g id="line2d_83">
      <g>
       <use style="stroke:#000000;stroke-width:0.5;" x="457.197929543" xlink:href="#m5284c7e2a0" y="7.2"/>
      </g>
     </g>
    </g>
    <g id="xtick_35">
     <g id="line2d_84">
      <g>
       <use style="stroke:#000000;stroke-width:0.5;" x="464.669191266" xlink:href="#m177f7580d0" y="352.8"/>
      </g>
     </g>
     <g id="line2d_85">
      <g>
       <use style="stroke:#000000;stroke-width:0.5;" x="464.669191266" xlink:href="#m5284c7e2a0" y="7.2"/>
      </g>
     </g>
    </g>
    <g id="xtick_36">
     <g id="line2d_86">
      <g>
       <use style="stroke:#000000;stroke-width:0.5;" x="471.141092548" xlink:href="#m177f7580d0" y="352.8"/>
      </g>
     </g>
     <g id="line2d_87">
      <g>
       <use style="stroke:#000000;stroke-width:0.5;" x="471.141092548" xlink:href="#m5284c7e2a0" y="7.2"/>
      </g>
     </g>
    </g>
    <g id="xtick_37">
     <g id="line2d_88">
      <g>
       <use style="stroke:#000000;stroke-width:0.5;" x="476.849714053" xlink:href="#m177f7580d0" y="352.8"/>
      </g>
     </g>
     <g id="line2d_89">
      <g>
       <use style="stroke:#000000;stroke-width:0.5;" x="476.849714053" xlink:href="#m5284c7e2a0" y="7.2"/>
      </g>
     </g>
    </g>
    <g id="text_6">
     <!-- log10 of FEvals ratio -->
     <defs>
      <path id="BitstreamVeraSans-Roman-20"/>
      <path d="
M41.1094 46.2969
Q39.5938 47.1719 37.8125 47.5781
Q36.0312 48 33.8906 48
Q26.2656 48 22.1875 43.0469
Q18.1094 38.0938 18.1094 28.8125
L18.1094 0
L9.07812 0
L9.07812 54.6875
L18.1094 54.6875
L18.1094 46.1875
Q20.9531 51.1719 25.4844 53.5781
Q30.0312 56 36.5312 56
Q37.4531 56 38.5781 55.875
Q39.7031 55.7656 41.0625 55.5156
z
" id="BitstreamVeraSans-Roman-72"/>
      <path d="
M30.6094 48.3906
Q23.3906 48.3906 19.1875 42.75
Q14.9844 37.1094 14.9844 27.2969
Q14.9844 17.4844 19.1562 11.8438
Q23.3438 6.20312 30.6094 6.20312
Q37.7969 6.20312 41.9844 11.8594
Q46.1875 17.5312 46.1875 27.2969
Q46.1875 37.0156 41.9844 42.7031
Q37.7969 48.3906 30.6094 48.3906
M30.6094 56
Q42.3281 56 49.0156 48.375
Q55.7188 40.7656 55.7188 27.2969
Q55.7188 13.875 49.0156 6.21875
Q42.3281 -1.42188 30.6094 -1.42188
Q18.8438 -1.42188 12.1719 6.21875
Q5.51562 13.875 5.51562 27.2969
Q5.51562 40.7656 12.1719 48.375
Q18.8438 56 30.6094 56" id="BitstreamVeraSans-Roman-6f"/>
      <path d="
M18.3125 70.2188
L18.3125 54.6875
L36.8125 54.6875
L36.8125 47.7031
L18.3125 47.7031
L18.3125 18.0156
Q18.3125 11.3281 20.1406 9.42188
Q21.9688 7.51562 27.5938 7.51562
L36.8125 7.51562
L36.8125 0
L27.5938 0
Q17.1875 0 13.2344 3.875
Q9.28125 7.76562 9.28125 18.0156
L9.28125 47.7031
L2.6875 47.7031
L2.6875 54.6875
L9.28125 54.6875
L9.28125 70.2188
z
" id="BitstreamVeraSans-Roman-74"/>
      <path d="
M9.42188 75.9844
L18.4062 75.9844
L18.4062 0
L9.42188 0
z
" id="BitstreamVeraSans-Roman-6c"/>
      <path d="
M9.8125 72.9062
L51.7031 72.9062
L51.7031 64.5938
L19.6719 64.5938
L19.6719 43.1094
L48.5781 43.1094
L48.5781 34.8125
L19.6719 34.8125
L19.6719 0
L9.8125 0
z
" id="BitstreamVeraSans-Roman-46"/>
      <path d="
M9.8125 72.9062
L55.9062 72.9062
L55.9062 64.5938
L19.6719 64.5938
L19.6719 43.0156
L54.3906 43.0156
L54.3906 34.7188
L19.6719 34.7188
L19.6719 8.29688
L56.7812 8.29688
L56.7812 0
L9.8125 0
z
" id="BitstreamVeraSans-Roman-45"/>
      <path d="
M9.42188 54.6875
L18.4062 54.6875
L18.4062 0
L9.42188 0
z

M9.42188 75.9844
L18.4062 75.9844
L18.4062 64.5938
L9.42188 64.5938
z
" id="BitstreamVeraSans-Roman-69"/>
      <path d="
M2.98438 54.6875
L12.5 54.6875
L29.5938 8.79688
L46.6875 54.6875
L56.2031 54.6875
L35.6875 0
L23.4844 0
z
" id="BitstreamVeraSans-Roman-76"/>
      <path d="
M45.4062 27.9844
Q45.4062 37.75 41.375 43.1094
Q37.3594 48.4844 30.0781 48.4844
Q22.8594 48.4844 18.8281 43.1094
Q14.7969 37.75 14.7969 27.9844
Q14.7969 18.2656 18.8281 12.8906
Q22.8594 7.51562 30.0781 7.51562
Q37.3594 7.51562 41.375 12.8906
Q45.4062 18.2656 45.4062 27.9844
M54.3906 6.78125
Q54.3906 -7.17188 48.1875 -13.9844
Q42 -20.7969 29.2031 -20.7969
Q24.4688 -20.7969 20.2656 -20.0938
Q16.0625 -19.3906 12.1094 -17.9219
L12.1094 -9.1875
Q16.0625 -11.3281 19.9219 -12.3438
Q23.7812 -13.375 27.7812 -13.375
Q36.625 -13.375 41.0156 -8.76562
Q45.4062 -4.15625 45.4062 5.17188
L45.4062 9.625
Q42.625 4.78125 38.2812 2.39062
Q33.9375 0 27.875 0
Q17.8281 0 11.6719 7.65625
Q5.51562 15.3281 5.51562 27.9844
Q5.51562 40.6719 11.6719 48.3281
Q17.8281 56 27.875 56
Q33.9375 56 38.2812 53.6094
Q42.625 51.2188 45.4062 46.3906
L45.4062 54.6875
L54.3906 54.6875
z
" id="BitstreamVeraSans-Roman-67"/>
      <path d="
M37.1094 75.9844
L37.1094 68.5
L28.5156 68.5
Q23.6875 68.5 21.7969 66.5469
Q19.9219 64.5938 19.9219 59.5156
L19.9219 54.6875
L34.7188 54.6875
L34.7188 47.7031
L19.9219 47.7031
L19.9219 0
L10.8906 0
L10.8906 47.7031
L2.29688 47.7031
L2.29688 54.6875
L10.8906 54.6875
L10.8906 58.5
Q10.8906 67.625 15.1406 71.7969
Q19.3906 75.9844 28.6094 75.9844
z
" id="BitstreamVeraSans-Roman-66"/>
      <path d="
M34.2812 27.4844
Q23.3906 27.4844 19.1875 25
Q14.9844 22.5156 14.9844 16.5
Q14.9844 11.7188 18.1406 8.90625
Q21.2969 6.10938 26.7031 6.10938
Q34.1875 6.10938 38.7031 11.4062
Q43.2188 16.7031 43.2188 25.4844
L43.2188 27.4844
z

M52.2031 31.2031
L52.2031 0
L43.2188 0
L43.2188 8.29688
Q40.1406 3.32812 35.5469 0.953125
Q30.9531 -1.42188 24.3125 -1.42188
Q15.9219 -1.42188 10.9531 3.29688
Q6 8.01562 6 15.9219
Q6 25.1406 12.1719 29.8281
Q18.3594 34.5156 30.6094 34.5156
L43.2188 34.5156
L43.2188 35.4062
Q43.2188 41.6094 39.1406 45
Q35.0625 48.3906 27.6875 48.3906
Q23 48.3906 18.5469 47.2656
Q14.1094 46.1406 10.0156 43.8906
L10.0156 52.2031
Q14.9375 54.1094 19.5781 55.0469
Q24.2188 56 28.6094 56
Q40.4844 56 46.3438 49.8438
Q52.2031 43.7031 52.2031 31.2031" id="BitstreamVeraSans-Roman-61"/>
      <path d="
M44.2812 53.0781
L44.2812 44.5781
Q40.4844 46.5312 36.375 47.5
Q32.2812 48.4844 27.875 48.4844
Q21.1875 48.4844 17.8438 46.4375
Q14.5 44.3906 14.5 40.2812
Q14.5 37.1562 16.8906 35.375
Q19.2812 33.5938 26.5156 31.9844
L29.5938 31.2969
Q39.1562 29.25 43.1875 25.5156
Q47.2188 21.7812 47.2188 15.0938
Q47.2188 7.46875 41.1875 3.01562
Q35.1562 -1.42188 24.6094 -1.42188
Q20.2188 -1.42188 15.4531 -0.5625
Q10.6875 0.296875 5.42188 2
L5.42188 11.2812
Q10.4062 8.6875 15.2344 7.39062
Q20.0625 6.10938 24.8125 6.10938
Q31.1562 6.10938 34.5625 8.28125
Q37.9844 10.4531 37.9844 14.4062
Q37.9844 18.0625 35.5156 20.0156
Q33.0625 21.9688 24.7031 23.7812
L21.5781 24.5156
Q13.2344 26.2656 9.51562 29.9062
Q5.8125 33.5469 5.8125 39.8906
Q5.8125 47.6094 11.2812 51.7969
Q16.75 56 26.8125 56
Q31.7812 56 36.1719 55.2656
Q40.5781 54.5469 44.2812 53.0781" id="BitstreamVeraSans-Roman-73"/>
     </defs>
     <g transform="translate(156.9984375 396.353125)scale(0.2 -0.2)">
      <use xlink:href="#BitstreamVeraSans-Roman-6c"/>
      <use x="27.783203125" xlink:href="#BitstreamVeraSans-Roman-6f"/>
      <use x="88.96484375" xlink:href="#BitstreamVeraSans-Roman-67"/>
      <use x="152.44140625" xlink:href="#BitstreamVeraSans-Roman-31"/>
      <use x="216.064453125" xlink:href="#BitstreamVeraSans-Roman-30"/>
      <use x="279.6875" xlink:href="#BitstreamVeraSans-Roman-20"/>
      <use x="311.474609375" xlink:href="#BitstreamVeraSans-Roman-6f"/>
      <use x="372.65625" xlink:href="#BitstreamVeraSans-Roman-66"/>
      <use x="407.861328125" xlink:href="#BitstreamVeraSans-Roman-20"/>
      <use x="439.6484375" xlink:href="#BitstreamVeraSans-Roman-46"/>
      <use x="497.16796875" xlink:href="#BitstreamVeraSans-Roman-45"/>
      <use x="560.3515625" xlink:href="#BitstreamVeraSans-Roman-76"/>
      <use x="619.53125" xlink:href="#BitstreamVeraSans-Roman-61"/>
      <use x="680.810546875" xlink:href="#BitstreamVeraSans-Roman-6c"/>
      <use x="708.59375" xlink:href="#BitstreamVeraSans-Roman-73"/>
      <use x="760.693359375" xlink:href="#BitstreamVeraSans-Roman-20"/>
      <use x="792.48046875" xlink:href="#BitstreamVeraSans-Roman-72"/>
      <use x="833.59375" xlink:href="#BitstreamVeraSans-Roman-61"/>
      <use x="894.873046875" xlink:href="#BitstreamVeraSans-Roman-74"/>
      <use x="934.08203125" xlink:href="#BitstreamVeraSans-Roman-69"/>
      <use x="961.865234375" xlink:href="#BitstreamVeraSans-Roman-6f"/>
     </g>
    </g>
   </g>
   <g id="matplotlib.axis_2">
    <g id="ytick_1">
     <g id="line2d_90">
      <path clip-path="url(#p96d9120af0)" d="
M35.5563 349.412
L481.956 349.412" style="fill:none;stroke:#000000;stroke-dasharray:1.000000,3.000000;stroke-dashoffset:0.0;stroke-width:0.5;"/>
     </g>
     <g id="line2d_91">
      <defs>
       <path d="
M0 0
L4 0" id="m728421d6d4" style="stroke:#000000;stroke-width:0.5;"/>
      </defs>
      <g>
       <use style="stroke:#000000;stroke-width:0.5;" x="35.55625" xlink:href="#m728421d6d4" y="349.411764706"/>
      </g>
     </g>
     <g id="line2d_92">
      <defs>
       <path d="
M0 0
L-4 0" id="mcb0005524f" style="stroke:#000000;stroke-width:0.5;"/>
      </defs>
      <g>
       <use style="stroke:#000000;stroke-width:0.5;" x="481.95625" xlink:href="#mcb0005524f" y="349.411764706"/>
      </g>
     </g>
    </g>
    <g id="ytick_2">
     <g id="line2d_93">
      <path clip-path="url(#p96d9120af0)" d="
M35.5563 264.706
L481.956 264.706" style="fill:none;stroke:#000000;stroke-dasharray:1.000000,3.000000;stroke-dashoffset:0.0;stroke-width:0.5;"/>
     </g>
     <g id="line2d_94">
      <g>
       <use style="stroke:#000000;stroke-width:0.5;" x="35.55625" xlink:href="#m728421d6d4" y="264.705882353"/>
      </g>
     </g>
     <g id="line2d_95">
      <g>
       <use style="stroke:#000000;stroke-width:0.5;" x="481.95625" xlink:href="#mcb0005524f" y="264.705882353"/>
      </g>
     </g>
    </g>
    <g id="ytick_3">
     <g id="line2d_96">
      <path clip-path="url(#p96d9120af0)" d="
M35.5563 180
L481.956 180" style="fill:none;stroke:#000000;stroke-dasharray:1.000000,3.000000;stroke-dashoffset:0.0;stroke-width:0.5;"/>
     </g>
     <g id="line2d_97">
      <g>
       <use style="stroke:#000000;stroke-width:0.5;" x="35.55625" xlink:href="#m728421d6d4" y="180.0"/>
      </g>
     </g>
     <g id="line2d_98">
      <g>
       <use style="stroke:#000000;stroke-width:0.5;" x="481.95625" xlink:href="#mcb0005524f" y="180.0"/>
      </g>
     </g>
    </g>
    <g id="ytick_4">
     <g id="line2d_99">
      <path clip-path="url(#p96d9120af0)" d="
M35.5563 95.2941
L481.956 95.2941" style="fill:none;stroke:#000000;stroke-dasharray:1.000000,3.000000;stroke-dashoffset:0.0;stroke-width:0.5;"/>
     </g>
     <g id="line2d_100">
      <g>
       <use style="stroke:#000000;stroke-width:0.5;" x="35.55625" xlink:href="#m728421d6d4" y="95.2941176471"/>
      </g>
     </g>
     <g id="line2d_101">
      <g>
       <use style="stroke:#000000;stroke-width:0.5;" x="481.95625" xlink:href="#mcb0005524f" y="95.2941176471"/>
      </g>
     </g>
    </g>
    <g id="ytick_5">
     <g id="line2d_102">
      <path clip-path="url(#p96d9120af0)" d="
M35.5563 10.5882
L481.956 10.5882" style="fill:none;stroke:#000000;stroke-dasharray:1.000000,3.000000;stroke-dashoffset:0.0;stroke-width:0.5;"/>
     </g>
     <g id="line2d_103">
      <g>
       <use style="stroke:#000000;stroke-width:0.5;" x="35.55625" xlink:href="#m728421d6d4" y="10.5882352941"/>
      </g>
     </g>
     <g id="line2d_104">
      <g>
       <use style="stroke:#000000;stroke-width:0.5;" x="481.95625" xlink:href="#mcb0005524f" y="10.5882352941"/>
      </g>
     </g>
    </g>
    <g id="text_7">
     <!-- proportion of trials -->
     <defs>
      <path d="
M54.8906 33.0156
L54.8906 0
L45.9062 0
L45.9062 32.7188
Q45.9062 40.4844 42.875 44.3281
Q39.8438 48.1875 33.7969 48.1875
Q26.5156 48.1875 22.3125 43.5469
Q18.1094 38.9219 18.1094 30.9062
L18.1094 0
L9.07812 0
L9.07812 54.6875
L18.1094 54.6875
L18.1094 46.1875
Q21.3438 51.125 25.7031 53.5625
Q30.0781 56 35.7969 56
Q45.2188 56 50.0469 50.1719
Q54.8906 44.3438 54.8906 33.0156" id="BitstreamVeraSans-Roman-6e"/>
      <path d="
M18.1094 8.20312
L18.1094 -20.7969
L9.07812 -20.7969
L9.07812 54.6875
L18.1094 54.6875
L18.1094 46.3906
Q20.9531 51.2656 25.2656 53.625
Q29.5938 56 35.5938 56
Q45.5625 56 51.7812 48.0938
Q58.0156 40.1875 58.0156 27.2969
Q58.0156 14.4062 51.7812 6.48438
Q45.5625 -1.42188 35.5938 -1.42188
Q29.5938 -1.42188 25.2656 0.953125
Q20.9531 3.32812 18.1094 8.20312
M48.6875 27.2969
Q48.6875 37.2031 44.6094 42.8438
Q40.5312 48.4844 33.4062 48.4844
Q26.2656 48.4844 22.1875 42.8438
Q18.1094 37.2031 18.1094 27.2969
Q18.1094 17.3906 22.1875 11.75
Q26.2656 6.10938 33.4062 6.10938
Q40.5312 6.10938 44.6094 11.75
Q48.6875 17.3906 48.6875 27.2969" id="BitstreamVeraSans-Roman-70"/>
     </defs>
     <g transform="translate(22.396875 272.51875)rotate(-90.0)scale(0.2 -0.2)">
      <use xlink:href="#BitstreamVeraSans-Roman-70"/>
      <use x="63.4765625" xlink:href="#BitstreamVeraSans-Roman-72"/>
      <use x="102.33984375" xlink:href="#BitstreamVeraSans-Roman-6f"/>
      <use x="163.521484375" xlink:href="#BitstreamVeraSans-Roman-70"/>
      <use x="226.998046875" xlink:href="#BitstreamVeraSans-Roman-6f"/>
      <use x="288.1796875" xlink:href="#BitstreamVeraSans-Roman-72"/>
      <use x="329.29296875" xlink:href="#BitstreamVeraSans-Roman-74"/>
      <use x="368.501953125" xlink:href="#BitstreamVeraSans-Roman-69"/>
      <use x="396.28515625" xlink:href="#BitstreamVeraSans-Roman-6f"/>
      <use x="457.466796875" xlink:href="#BitstreamVeraSans-Roman-6e"/>
      <use x="520.845703125" xlink:href="#BitstreamVeraSans-Roman-20"/>
      <use x="552.6328125" xlink:href="#BitstreamVeraSans-Roman-6f"/>
      <use x="613.814453125" xlink:href="#BitstreamVeraSans-Roman-66"/>
      <use x="649.01953125" xlink:href="#BitstreamVeraSans-Roman-20"/>
      <use x="680.806640625" xlink:href="#BitstreamVeraSans-Roman-74"/>
      <use x="720.015625" xlink:href="#BitstreamVeraSans-Roman-72"/>
      <use x="761.12890625" xlink:href="#BitstreamVeraSans-Roman-69"/>
      <use x="788.912109375" xlink:href="#BitstreamVeraSans-Roman-61"/>
      <use x="850.19140625" xlink:href="#BitstreamVeraSans-Roman-6c"/>
      <use x="877.974609375" xlink:href="#BitstreamVeraSans-Roman-73"/>
     </g>
    </g>
   </g>
   <g id="patch_3">
    <path d="
M35.5563 7.2
L481.956 7.2" style="fill:none;stroke:#000000;"/>
   </g>
   <g id="patch_4">
    <path d="
M481.956 352.8
L481.956 7.2" style="fill:none;stroke:#000000;"/>
   </g>
   <g id="patch_5">
    <path d="
M35.5563 352.8
L481.956 352.8" style="fill:none;stroke:#000000;"/>
   </g>
   <g id="patch_6">
    <path d="
M35.5563 352.8
L35.5563 7.2" style="fill:none;stroke:#000000;"/>
   </g>
   <g id="text_8">
    <!-- f1-f5,20-D -->
    <defs>
     <path d="
M11.7188 12.4062
L22.0156 12.4062
L22.0156 4
L14.0156 -11.625
L7.71875 -11.625
L11.7188 4
z
" id="BitstreamVeraSans-Roman-2c"/>
     <path d="
M19.6719 64.7969
L19.6719 8.10938
L31.5938 8.10938
Q46.6875 8.10938 53.6875 14.9375
Q60.6875 21.7812 60.6875 36.5312
Q60.6875 51.1719 53.6875 57.9844
Q46.6875 64.7969 31.5938 64.7969
z

M9.8125 72.9062
L30.0781 72.9062
Q51.2656 72.9062 61.1719 64.0938
Q71.0938 55.2812 71.0938 36.5312
Q71.0938 17.6719 61.125 8.82812
Q51.1719 0 30.0781 0
L9.8125 0
z
" id="BitstreamVeraSans-Roman-44"/>
     <path d="
M10.7969 72.9062
L49.5156 72.9062
L49.5156 64.5938
L19.8281 64.5938
L19.8281 46.7344
Q21.9688 47.4688 24.1094 47.8281
Q26.2656 48.1875 28.4219 48.1875
Q40.625 48.1875 47.75 41.5
Q54.8906 34.8125 54.8906 23.3906
Q54.8906 11.625 47.5625 5.09375
Q40.2344 -1.42188 26.9062 -1.42188
Q22.3125 -1.42188 17.5469 -0.640625
Q12.7969 0.140625 7.71875 1.70312
L7.71875 11.625
Q12.1094 9.23438 16.7969 8.0625
Q21.4844 6.89062 26.7031 6.89062
Q35.1562 6.89062 40.0781 11.3281
Q45.0156 15.7656 45.0156 23.3906
Q45.0156 31 40.0781 35.4375
Q35.1562 39.8906 26.7031 39.8906
Q22.75 39.8906 18.8125 39.0156
Q14.8906 38.1406 10.7969 36.2812
z
" id="BitstreamVeraSans-Roman-35"/>
    </defs>
    <g transform="translate(373.500125 345.888)scale(0.2 -0.2)">
     <use xlink:href="#BitstreamVeraSans-Roman-66"/>
     <use x="35.205078125" xlink:href="#BitstreamVeraSans-Roman-31"/>
     <use x="98.828125" xlink:href="#BitstreamVeraSans-Roman-2d"/>
     <use x="134.912109375" xlink:href="#BitstreamVeraSans-Roman-66"/>
     <use x="170.1171875" xlink:href="#BitstreamVeraSans-Roman-35"/>
     <use x="233.740234375" xlink:href="#BitstreamVeraSans-Roman-2c"/>
     <use x="265.52734375" xlink:href="#BitstreamVeraSans-Roman-32"/>
     <use x="329.150390625" xlink:href="#BitstreamVeraSans-Roman-30"/>
     <use x="392.7734375" xlink:href="#BitstreamVeraSans-Roman-2d"/>
     <use x="428.857421875" xlink:href="#BitstreamVeraSans-Roman-44"/>
    </g>
   </g>
   <g id="text_9">
    <!-- 0.0.0 -->
    <defs>
     <path d="
M10.6875 12.4062
L21 12.4062
L21 0
L10.6875 0
z
" id="BitstreamVeraSans-Roman-2e"/>
    </defs>
    <g style="fill:#808080;" transform="translate(246.69609375 347.2643125)scale(0.1 -0.1)">
     <use xlink:href="#BitstreamVeraSans-Roman-30"/>
     <use x="63.623046875" xlink:href="#BitstreamVeraSans-Roman-2e"/>
     <use x="95.41015625" xlink:href="#BitstreamVeraSans-Roman-30"/>
     <use x="159.033203125" xlink:href="#BitstreamVeraSans-Roman-2e"/>
     <use x="190.8203125" xlink:href="#BitstreamVeraSans-Roman-30"/>
    </g>
   </g>
   <g id="legend_1">
    <g id="patch_7">
     <path d="
M45.5563 140.625
L181.175 140.625
L181.175 17.2
L45.5563 17.2
L45.5563 140.625
z
" style="fill:#ffffff;opacity:0.2;stroke:#000000;"/>
    </g>
    <g id="line2d_105">
     <path d="
M59.5563 33.3969
L87.5563 33.3969" style="fill:none;stroke:#000000;stroke-linecap:square;stroke-width:3.0;"/>
    </g>
    <g id="line2d_106"/>
    <g id="text_10">
     <!-- 1: 3/3 -->
     <defs>
      <path d="
M40.5781 39.3125
Q47.6562 37.7969 51.625 33
Q55.6094 28.2188 55.6094 21.1875
Q55.6094 10.4062 48.1875 4.48438
Q40.7656 -1.42188 27.0938 -1.42188
Q22.5156 -1.42188 17.6562 -0.515625
Q12.7969 0.390625 7.625 2.20312
L7.625 11.7188
Q11.7188 9.32812 16.5938 8.10938
Q21.4844 6.89062 26.8125 6.89062
Q36.0781 6.89062 40.9375 10.5469
Q45.7969 14.2031 45.7969 21.1875
Q45.7969 27.6406 41.2812 31.2656
Q36.7656 34.9062 28.7188 34.9062
L20.2188 34.9062
L20.2188 43.0156
L29.1094 43.0156
Q36.375 43.0156 40.2344 45.9219
Q44.0938 48.8281 44.0938 54.2969
Q44.0938 59.9062 40.1094 62.9062
Q36.1406 65.9219 28.7188 65.9219
Q24.6562 65.9219 20.0156 65.0312
Q15.375 64.1562 9.8125 62.3125
L9.8125 71.0938
Q15.4375 72.6562 20.3438 73.4375
Q25.25 74.2188 29.5938 74.2188
Q40.8281 74.2188 47.3594 69.1094
Q53.9062 64.0156 53.9062 55.3281
Q53.9062 49.2656 50.4375 45.0938
Q46.9688 40.9219 40.5781 39.3125" id="BitstreamVeraSans-Roman-33"/>
      <path d="
M11.7188 12.4062
L22.0156 12.4062
L22.0156 0
L11.7188 0
z

M11.7188 51.7031
L22.0156 51.7031
L22.0156 39.3125
L11.7188 39.3125
z
" id="BitstreamVeraSans-Roman-3a"/>
      <path d="
M25.3906 72.9062
L33.6875 72.9062
L8.29688 -9.28125
L0 -9.28125
z
" id="BitstreamVeraSans-Roman-2f"/>
     </defs>
     <g transform="translate(109.55625 40.396875)scale(0.2 -0.2)">
      <use xlink:href="#BitstreamVeraSans-Roman-31"/>
      <use x="63.623046875" xlink:href="#BitstreamVeraSans-Roman-3a"/>
      <use x="97.314453125" xlink:href="#BitstreamVeraSans-Roman-20"/>
      <use x="129.1015625" xlink:href="#BitstreamVeraSans-Roman-33"/>
      <use x="192.724609375" xlink:href="#BitstreamVeraSans-Roman-2f"/>
      <use x="226.416015625" xlink:href="#BitstreamVeraSans-Roman-33"/>
     </g>
    </g>
    <g id="line2d_107">
     <path d="
M59.5563 62.7531
L87.5563 62.7531" style="fill:none;stroke:#00bfbf;stroke-linecap:square;stroke-width:3.0;"/>
    </g>
    <g id="line2d_108"/>
    <g id="text_11">
     <!-- -1: 3/3 -->
     <g transform="translate(109.55625 69.753125)scale(0.2 -0.2)">
      <use xlink:href="#BitstreamVeraSans-Roman-2d"/>
      <use x="36.083984375" xlink:href="#BitstreamVeraSans-Roman-31"/>
      <use x="99.70703125" xlink:href="#BitstreamVeraSans-Roman-3a"/>
      <use x="133.3984375" xlink:href="#BitstreamVeraSans-Roman-20"/>
      <use x="165.185546875" xlink:href="#BitstreamVeraSans-Roman-33"/>
      <use x="228.80859375" xlink:href="#BitstreamVeraSans-Roman-2f"/>
      <use x="262.5" xlink:href="#BitstreamVeraSans-Roman-33"/>
     </g>
    </g>
    <g id="line2d_109">
     <path d="
M59.5563 92.1094
L87.5563 92.1094" style="fill:none;stroke:#bf00bf;stroke-linecap:square;stroke-width:3.0;"/>
    </g>
    <g id="line2d_110"/>
    <g id="text_12">
     <!-- -4: 3/3 -->
     <defs>
      <path d="
M37.7969 64.3125
L12.8906 25.3906
L37.7969 25.3906
z

M35.2031 72.9062
L47.6094 72.9062
L47.6094 25.3906
L58.0156 25.3906
L58.0156 17.1875
L47.6094 17.1875
L47.6094 0
L37.7969 0
L37.7969 17.1875
L4.89062 17.1875
L4.89062 26.7031
z
" id="BitstreamVeraSans-Roman-34"/>
     </defs>
     <g transform="translate(109.55625 99.109375)scale(0.2 -0.2)">
      <use xlink:href="#BitstreamVeraSans-Roman-2d"/>
      <use x="36.083984375" xlink:href="#BitstreamVeraSans-Roman-34"/>
      <use x="99.70703125" xlink:href="#BitstreamVeraSans-Roman-3a"/>
      <use x="133.3984375" xlink:href="#BitstreamVeraSans-Roman-20"/>
      <use x="165.185546875" xlink:href="#BitstreamVeraSans-Roman-33"/>
      <use x="228.80859375" xlink:href="#BitstreamVeraSans-Roman-2f"/>
      <use x="262.5" xlink:href="#BitstreamVeraSans-Roman-33"/>
     </g>
    </g>
    <g id="line2d_111">
     <path d="
M59.5563 121.466
L87.5563 121.466" style="fill:none;stroke:#ff0000;stroke-linecap:square;stroke-width:3.0;"/>
    </g>
    <g id="line2d_112"/>
    <g id="text_13">
     <!-- -8: 3/3 -->
     <defs>
      <path d="
M31.7812 34.625
Q24.75 34.625 20.7188 30.8594
Q16.7031 27.0938 16.7031 20.5156
Q16.7031 13.9219 20.7188 10.1562
Q24.75 6.39062 31.7812 6.39062
Q38.8125 6.39062 42.8594 10.1719
Q46.9219 13.9688 46.9219 20.5156
Q46.9219 27.0938 42.8906 30.8594
Q38.875 34.625 31.7812 34.625
M21.9219 38.8125
Q15.5781 40.375 12.0312 44.7188
Q8.5 49.0781 8.5 55.3281
Q8.5 64.0625 14.7188 69.1406
Q20.9531 74.2188 31.7812 74.2188
Q42.6719 74.2188 48.875 69.1406
Q55.0781 64.0625 55.0781 55.3281
Q55.0781 49.0781 51.5312 44.7188
Q48 40.375 41.7031 38.8125
Q48.8281 37.1562 52.7969 32.3125
Q56.7812 27.4844 56.7812 20.5156
Q56.7812 9.90625 50.3125 4.23438
Q43.8438 -1.42188 31.7812 -1.42188
Q19.7344 -1.42188 13.25 4.23438
Q6.78125 9.90625 6.78125 20.5156
Q6.78125 27.4844 10.7812 32.3125
Q14.7969 37.1562 21.9219 38.8125
M18.3125 54.3906
Q18.3125 48.7344 21.8438 45.5625
Q25.3906 42.3906 31.7812 42.3906
Q38.1406 42.3906 41.7188 45.5625
Q45.3125 48.7344 45.3125 54.3906
Q45.3125 60.0625 41.7188 63.2344
Q38.1406 66.4062 31.7812 66.4062
Q25.3906 66.4062 21.8438 63.2344
Q18.3125 60.0625 18.3125 54.3906" id="BitstreamVeraSans-Roman-38"/>
     </defs>
     <g transform="translate(109.55625 128.465625)scale(0.2 -0.2)">
      <use xlink:href="#BitstreamVeraSans-Roman-2d"/>
      <use x="36.083984375" xlink:href="#BitstreamVeraSans-Roman-38"/>
      <use x="99.70703125" xlink:href="#BitstreamVeraSans-Roman-3a"/>
      <use x="133.3984375" xlink:href="#BitstreamVeraSans-Roman-20"/>
      <use x="165.185546875" xlink:href="#BitstreamVeraSans-Roman-33"/>
      <use x="228.80859375" xlink:href="#BitstreamVeraSans-Roman-2f"/>
      <use x="262.5" xlink:href="#BitstreamVeraSans-Roman-33"/>
     </g>
    </g>
   </g>
  </g>
 </g>
 <defs>
  <clipPath id="p96d9120af0">
   <rect height="345.6" width="446.4" x="35.55625" y="7.2"/>
  </clipPath>
 </defs>
</svg>
