<?xml version="1.0" encoding="utf-8" standalone="no"?>
<!DOCTYPE svg PUBLIC "-//W3C//DTD SVG 1.1//EN"
  "http://www.w3.org/Graphics/SVG/1.1/DTD/svg11.dtd">
<!-- Created with matplotlib (http://matplotlib.org/) -->
<svg height="407pt" version="1.1" viewBox="0 0 494 407" width="494pt" xmlns="http://www.w3.org/2000/svg" xmlns:xlink="http://www.w3.org/1999/xlink">
 <defs>
  <style type="text/css">
*{stroke-linecap:butt;stroke-linejoin:round;}
  </style>
 </defs>
 <g id="figure_1">
  <g id="patch_1">
   <path d="
M0 407.712
L494.469 407.712
L494.469 0
L0 0
z
" style="fill:#ffffff;"/>
  </g>
  <g id="axes_1">
   <g id="patch_2">
    <path d="
M35.5563 352.8
L481.956 352.8
L481.956 7.2
L35.5563 7.2
z
" style="fill:#ffffff;"/>
   </g>
   <g id="line2d_1">
    <path clip-path="url(#p96d9120af0)" d="
M35.5563 345.489
L86.7623 345.489
L86.7623 345.188
L94.6009 345.188
L94.6009 344.886
L103.303 344.886
L103.303 344.584
L105.557 344.584
L105.557 344.283
L107.048 344.283
L107.048 343.981
L107.36 343.981
L107.36 343.679
L108.323 343.679
L108.323 343.378
L114.809 343.378
L114.809 343.076
L116.123 343.076
L116.123 342.774
L118.447 342.774
L118.447 342.472
L119.758 342.472
L119.758 342.171
L121.409 342.171
L121.409 341.869
L123.429 341.869
L123.429 341.567
L124.024 341.567
L124.024 341.266
L125.886 341.266
L125.886 340.964
L126.919 340.964
L126.919 340.662
L127.149 340.662
L127.149 340.36
L127.281 340.36
L127.281 340.059
L127.393 340.059
L127.393 339.757
L127.686 339.757
L127.686 339.455
L129.403 339.455
L129.403 339.154
L129.564 339.154
L129.564 338.852
L130.444 338.852
L130.474 338.248
L132.584 338.248
L132.584 337.947
L132.911 337.947
L132.911 337.645
L133.498 337.645
L133.603 337.042
L134.281 337.042
L134.281 336.74
L134.895 336.74
L134.967 336.136
L135.039 336.136
L135.039 335.835
L135.502 335.835
L135.502 335.533
L135.655 335.533
L135.655 335.231
L136.611 335.231
L136.621 334.326
L138.064 334.326
L138.109 333.723
L138.266 333.723
L138.266 333.421
L138.595 333.421
L138.595 333.119
L139.97 333.119
L139.97 332.818
L140.183 332.818
L140.183 332.516
L140.52 332.516
L140.52 332.214
L141.695 332.214
L141.73 331.611
L142.007 331.611
L142.007 331.309
L142.271 331.309
L142.305 330.706
L142.671 330.706
L142.671 330.404
L142.97 330.404
L142.983 329.8
L143.481 329.8
L143.481 329.499
L143.597 329.499
L143.669 328.594
L143.741 328.594
L143.741 328.292
L144.204 328.292
L144.204 327.99
L144.559 327.99
L144.559 327.688
L145.237 327.688
L145.237 327.387
L145.512 327.387
L145.512 327.085
L145.85 327.085
L145.923 326.482
L145.995 326.482
L145.995 326.18
L146.171 326.18
L146.171 325.878
L146.458 325.878
L146.483 325.275
L146.811 325.275
L146.811 324.973
L147.275 324.973
L147.297 324.37
L147.447 324.37
L147.447 324.068
L147.679 324.068
L147.679 323.766
L147.87 323.766
L147.971 323.163
L147.991 323.163
L147.991 322.861
L148.283 322.861
L148.283 322.559
L148.954 322.559
L149.065 321.956
L149.247 321.956
L149.247 321.654
L149.456 321.654
L149.551 321.051
L150.73 321.051
L150.765 320.146
L151.042 320.146
L151.127 318.939
L152.005 318.939
L152.035 318.335
L152.87 318.335
L152.87 318.034
L153.182 318.034
L153.197 317.43
L153.509 317.43
L153.509 317.128
L153.933 317.128
L153.933 316.827
L154.145 316.827
L154.215 316.223
L154.472 316.223
L154.472 315.922
L154.721 315.922
L154.721 315.62
L155.126 315.62
L155.126 315.318
L155.44 315.318
L155.44 315.016
L155.733 315.016
L155.803 314.413
L155.941 314.413
L155.941 314.111
L156.253 314.111
L156.253 313.81
L156.417 313.81
L156.489 312.905
L156.561 312.905
L156.561 312.603
L156.896 312.603
L156.896 312.301
L157.024 312.301
L157.024 311.999
L157.209 311.999
L157.216 311.396
L158.172 311.396
L158.172 311.094
L158.392 311.094
L158.491 310.491
L158.521 310.491
L158.521 310.189
L158.76 310.189
L158.76 309.887
L158.987 309.887
L158.987 309.586
L159.438 309.586
L159.438 309.284
L159.631 309.284
L159.631 308.982
L160.051 308.982
L160.124 308.077
L160.196 308.077
L160.196 307.775
L160.469 307.775
L160.469 307.474
L160.631 307.474
L160.659 306.87
L160.781 306.87
L160.781 306.569
L160.958 306.569
L160.958 306.267
L161.744 306.267
L161.744 305.965
L161.881 305.965
L161.881 305.663
L162.089 305.663
L162.089 305.362
L162.244 305.362
L162.244 305.06
L162.432 305.06
L162.432 304.758
L162.957 304.758
L163.026 304.155
L163.109 304.155
L163.109 303.853
L163.266 303.853
L163.269 303.25
L163.702 303.25
L163.795 301.741
L163.867 301.741
L163.867 301.439
L164.232 301.439
L164.33 300.534
L164.39 300.534
L164.462 299.931
L164.658 299.931
L164.658 299.629
L164.925 299.629
L164.925 299.327
L165.577 299.327
L165.577 299.026
L165.921 299.026
L165.921 298.724
L166.117 298.724
L166.117 298.422
L166.283 298.422
L166.283 298.121
L166.598 298.121
L166.598 297.819
L166.937 297.819
L167.035 296.914
L167.212 296.914
L167.285 296.31
L167.327 296.31
L167.423 295.405
L167.532 295.405
L167.574 294.802
L167.647 294.802
L167.719 294.198
L167.82 294.198
L167.82 293.897
L168.018 293.897
L168.018 293.595
L168.145 293.595
L168.23 292.69
L168.763 292.69
L168.763 292.388
L170.427 292.388
L170.427 292.086
L170.669 292.086
L170.718 291.483
L170.789 291.483
L170.789 291.181
L170.913 291.181
L170.913 290.879
L171.26 290.879
L171.275 289.974
L172.622 289.974
L172.711 289.371
L173.3 289.371
L173.3 289.069
L174.023 289.069
L174.129 288.164
L174.341 288.164
L174.422 287.561
L174.769 287.561
L174.769 287.259
L174.935 287.259
L174.935 286.957
L175.736 286.957
L175.744 286.354
L176.693 286.354
L176.693 286.052
L177.18 286.052
L177.252 284.242
L177.536 284.242
L177.545 283.638
L177.83 283.638
L177.83 283.337
L178.192 283.337
L178.192 283.035
L178.444 283.035
L178.444 282.733
L178.695 282.733
L178.695 282.432
L178.886 282.432
L178.988 281.526
L179.321 281.526
L179.321 281.225
L179.647 281.225
L179.647 280.923
L180.295 280.923
L180.333 279.716
L180.733 279.716
L180.751 279.113
L181.274 279.113
L181.274 278.811
L181.41 278.811
L181.41 278.509
L181.746 278.509
L181.776 277.906
L181.951 277.906
L182.024 277.302
L182.096 277.302
L182.168 276.699
L182.391 276.699
L182.483 275.492
L182.565 275.492
L182.637 274.587
L182.709 274.587
L182.772 273.38
L183.161 273.38
L183.172 272.777
L183.347 272.777
L183.347 272.475
L183.774 272.475
L183.847 271.872
L183.886 271.872
L183.919 271.268
L184.213 271.268
L184.213 270.966
L184.382 270.966
L184.382 270.665
L185.238 270.665
L185.238 270.363
L185.506 270.363
L185.56 269.156
L185.725 269.156
L185.779 268.553
L186.159 268.553
L186.265 267.949
L186.462 267.949
L186.47 267.346
L186.919 267.346
L186.989 266.441
L187.402 266.441
L187.475 265.837
L187.913 265.837
L187.913 265.536
L189.407 265.536
L189.407 265.234
L190.034 265.234
L190.097 264.027
L190.821 264.027
L190.821 262.82
L191.485 262.82
L191.566 261.915
L192.522 261.915
L192.53 261.312
L192.642 261.312
L192.642 261.01
L193.183 261.01
L193.183 260.708
L193.973 260.708
L193.973 260.406
L194.392 260.406
L194.392 260.105
L194.802 260.105
L194.802 259.803
L196.598 259.803
L196.598 259.501
L197.549 259.501
L197.549 258.898
L198.538 258.898
L198.538 258.596
L199.569 258.596
L199.569 257.993
L201.091 257.993
L201.091 257.691
L202.042 257.691
L202.042 257.389
L202.956 257.389
L202.956 256.786
L203.332 256.786
L203.332 256.484
L204.199 256.484
L204.199 255.881
L207.765 255.881
L207.765 255.579
L208.834 255.579
L208.834 255.277
L211.6 255.277
L211.6 254.674
L212.302 254.674
L212.302 254.372
L212.969 254.372
L213.026 253.467
L213.396 253.467
L213.396 252.864
L213.771 252.864
L213.83 252.26
L215.335 252.26
L215.335 251.355
L216.286 251.355
L216.286 250.752
L216.611 250.752
L216.611 250.45
L219.019 250.45
L219.019 250.148
L219.754 250.148
L219.754 249.847
L220.129 249.847
L220.129 249.545
L221.774 249.545
L221.774 249.243
L222.307 249.243
L222.307 248.941
L225.161 248.941
L225.161 248.64
L226.404 248.64
L226.404 248.338
L226.725 248.338
L226.725 248.036
L227.101 248.036
L227.101 247.735
L227.611 247.735
L227.611 247.433
L228.016 247.433
L228.016 247.131
L228.981 247.131
L228.981 246.829
L229.279 246.829
L229.279 246.528
L229.877 246.528
L229.877 246.226
L230.337 246.226
L230.337 245.924
L231.031 245.924
L231.031 245.623
L231.167 245.623
L231.167 245.321
L232.133 245.321
L232.133 244.416
L232.321 244.416
L232.321 244.114
L233.423 244.114
L233.518 243.209
L233.805 243.209
L233.805 242.907
L234.241 242.907
L234.241 242.304
L234.987 242.304
L234.987 242.002
L235.601 242.002
L235.601 241.7
L235.953 241.7
L235.953 241.399
L236.181 241.399
L236.181 241.097
L236.67 241.097
L236.67 240.795
L237.54 240.795
L237.54 240.493
L237.653 240.493
L237.653 240.192
L237.824 240.192
L237.824 239.89
L238.073 239.89
L238.073 239.287
L238.491 239.287
L238.513 238.683
L238.926 238.683
L238.926 238.381
L239.505 238.381
L239.505 238.08
L240.49 238.08
L240.49 237.778
L240.795 237.778
L240.805 237.175
L240.97 237.175
L240.97 236.269
L241.213 236.269
L241.295 235.364
L241.665 235.364
L241.665 235.063
L241.959 235.063
L241.959 234.459
L242.819 234.459
L242.819 234.157
L242.99 234.157
L243.06 233.554
L243.523 233.554
L243.523 233.252
L243.69 233.252
L243.703 232.649
L243.921 232.649
L243.921 232.347
L244.121 232.347
L244.121 231.744
L244.446 231.744
L244.512 231.14
L244.747 231.14
L244.813 229.933
L245.275 229.933
L245.275 229.33
L245.601 229.33
L245.601 229.028
L245.802 229.028
L245.802 228.727
L246.298 228.727
L246.377 227.52
L246.702 227.52
L246.702 227.218
L246.822 227.218
L246.855 226.313
L247.258 226.313
L247.258 225.709
L247.545 225.709
L247.62 225.106
L247.941 225.106
L248.009 224.201
L248.549 224.201
L248.549 223.598
L249.111 223.598
L249.119 222.994
L249.284 222.994
L249.29 222.089
L249.962 222.089
L250.008 220.58
L250.221 220.58
L250.316 219.977
L250.365 219.977
L250.433 219.374
L250.753 219.374
L250.753 218.77
L251.151 218.77
L251.24 217.865
L251.293 217.865
L251.305 217.262
L251.785 217.262
L251.785 216.96
L252.295 216.96
L252.295 216.658
L252.445 216.658
L252.53 215.753
L252.666 215.753
L252.666 215.451
L253.1 215.451
L253.123 214.848
L253.349 214.848
L253.349 214.546
L253.496 214.546
L253.572 213.641
L253.749 213.641
L253.852 212.434
L254.051 212.434
L254.075 211.529
L254.219 211.529
L254.219 211.227
L254.338 211.227
L254.414 210.322
L254.45 210.322
L254.45 210.02
L254.592 210.02
L254.592 209.719
L254.862 209.719
L254.961 208.512
L255.021 208.512
L255.107 207.607
L255.311 207.607
L255.392 207.003
L255.44 207.003
L255.453 206.098
L255.625 206.098
L255.713 205.193
L255.852 205.193
L255.852 204.891
L256.091 204.891
L256.091 204.59
L256.3 204.59
L256.404 203.081
L256.483 203.081
L256.512 202.478
L256.601 202.478
L256.601 202.176
L256.736 202.176
L256.817 201.271
L257.067 201.271
L257.131 200.366
L257.192 200.366
L257.192 200.064
L257.314 200.064
L257.314 199.762
L257.593 199.762
L257.702 199.159
L257.714 199.159
L257.767 198.254
L258.033 198.254
L258.092 196.745
L258.172 196.745
L258.265 195.236
L258.373 195.236
L258.373 194.935
L258.668 194.935
L258.756 191.013
L258.957 191.013
L259.068 189.504
L259.082 189.504
L259.082 189.202
L259.326 189.202
L259.34 188.599
L259.48 188.599
L259.583 187.09
L259.599 187.09
L259.619 186.487
L259.728 186.487
L259.728 186.185
L259.916 186.185
L259.916 185.883
L260.051 185.883
L260.151 185.28
L260.225 185.28
L260.312 184.677
L260.347 184.677
L260.428 183.771
L260.5 183.771
L260.562 183.168
L260.777 183.168
L260.865 181.961
L261.012 181.961
L261.012 181.659
L261.442 181.659
L261.503 179.547
L261.611 179.547
L261.611 179.246
L261.828 179.246
L261.917 177.435
L261.992 177.435
L262.066 176.53
L262.11 176.53
L262.184 175.022
L262.353 175.022
L262.353 174.72
L262.6 174.72
L262.683 173.513
L262.775 173.513
L262.814 172.91
L263.028 172.91
L263.028 172.608
L263.175 172.608
L263.266 171.703
L263.386 171.703
L263.386 171.099
L263.699 171.099
L263.788 170.496
L263.877 170.496
L263.877 170.194
L264.005 170.194
L264.051 169.289
L264.214 169.289
L264.236 168.384
L264.374 168.384
L264.374 168.082
L264.5 168.082
L264.6 166.875
L264.614 166.875
L264.614 166.574
L264.911 166.574
L264.911 166.272
L265.053 166.272
L265.129 165.367
L265.165 165.367
L265.274 164.462
L265.346 164.462
L265.36 163.255
L265.484 163.255
L265.567 161.445
L265.728 161.445
L265.81 160.841
L265.858 160.841
L265.893 159.936
L266.208 159.936
L266.272 158.729
L266.326 158.729
L266.326 158.428
L266.585 158.428
L266.619 157.522
L266.944 157.522
L267.04 156.014
L267.326 156.014
L267.367 154.505
L267.463 154.505
L267.549 152.997
L267.613 152.997
L267.693 152.393
L267.761 152.393
L267.816 150.885
L268.072 150.885
L268.142 150.281
L268.211 150.281
L268.228 149.074
L268.36 149.074
L268.36 148.773
L268.582 148.773
L268.619 147.868
L268.812 147.868
L268.812 147.566
L268.937 147.566
L269.004 146.962
L269.092 146.962
L269.171 146.057
L269.279 146.057
L269.363 144.247
L269.551 144.247
L269.571 143.644
L269.696 143.644
L269.763 143.04
L269.852 143.04
L269.898 141.833
L269.997 141.833
L270.101 140.928
L270.277 140.928
L270.314 140.325
L270.423 140.325
L270.423 140.023
L270.55 140.023
L270.616 138.816
L270.787 138.816
L270.892 137.006
L271.006 137.006
L271.079 136.101
L271.211 136.101
L271.211 135.799
L271.329 135.799
L271.359 135.196
L271.468 135.196
L271.468 134.894
L271.602 134.894
L271.66 133.687
L271.748 133.687
L271.818 133.084
L271.939 133.084
L272.021 132.48
L272.11 132.48
L272.186 131.273
L272.318 131.273
L272.366 130.368
L272.583 130.368
L272.611 129.161
L272.773 129.161
L272.858 127.351
L273 127.351
L273.083 126.748
L273.126 126.748
L273.203 125.541
L273.349 125.541
L273.349 125.239
L273.505 125.239
L273.603 123.429
L273.645 123.429
L273.711 122.825
L273.877 122.825
L273.961 121.92
L274.054 121.92
L274.154 120.11
L274.257 120.11
L274.274 118.903
L274.374 118.903
L274.474 117.696
L274.522 117.696
L274.626 116.489
L274.662 116.489
L274.771 115.283
L274.773 115.283
L274.881 113.774
L275.021 113.774
L275.064 112.869
L275.288 112.869
L275.39 111.059
L275.433 111.059
L275.503 110.153
L275.554 110.153
L275.554 108.645
L275.748 108.645
L275.858 108.041
L275.878 108.041
L275.954 107.136
L276.017 107.136
L276.075 106.231
L276.258 106.231
L276.299 105.628
L276.393 105.628
L276.454 103.516
L276.538 103.516
L276.563 102.912
L276.736 102.912
L276.81 101.706
L276.918 101.706
L276.96 101.102
L277.122 101.102
L277.182 99.5935
L277.349 99.5935
L277.349 98.9901
L277.501 98.9901
L277.537 98.3867
L277.622 98.3867
L277.662 97.4815
L277.798 97.4815
L277.857 96.2747
L277.979 96.2747
L277.979 95.973
L278.183 95.973
L278.283 94.7661
L278.309 94.7661
L278.408 94.1627
L278.52 94.1627
L278.54 93.2576
L278.631 93.2576
L278.727 92.0507
L278.752 92.0507
L278.752 91.749
L278.908 91.749
L278.972 91.1456
L279.035 91.1456
L279.142 89.9387
L279.462 89.9387
L279.535 88.7319
L279.588 88.7319
L279.651 87.2233
L279.711 87.2233
L279.711 86.9216
L279.972 86.9216
L280.076 86.0164
L280.096 86.0164
L280.14 85.1113
L280.259 85.1113
L280.259 84.8096
L280.456 84.8096
L280.456 84.5079
L280.636 84.5079
L280.705 83.9045
L280.759 83.9045
L280.84 82.9993
L280.961 82.9993
L281.036 82.3959
L281.195 82.3959
L281.195 82.0942
L281.331 82.0942
L281.419 80.5856
L281.551 80.5856
L281.587 79.9822
L281.696 79.9822
L281.696 79.6805
L281.863 79.6805
L281.889 78.7753
L282.055 78.7753
L282.055 78.4736
L282.243 78.4736
L282.315 77.5685
L282.525 77.5685
L282.525 77.2668
L283.271 77.2668
L283.271 76.6633
L283.708 76.6633
L283.708 76.0599
L283.885 76.0599
L283.994 75.4565
L284.782 75.4565
L284.782 75.1548
L285.211 75.1548
L285.234 74.5514
L285.38 74.5514
L285.38 73.9479
L285.721 73.9479
L285.721 73.6462
L285.863 73.6462
L285.973 72.7411
L286.03 72.7411
L286.03 72.4394
L286.389 72.4394
L286.389 72.1377
L286.53 72.1377
L286.53 71.8359
L287.021 71.8359
L287.092 70.9308
L287.176 70.9308
L287.263 70.3274
L287.689 70.3274
L287.712 69.724
L288.105 69.724
L288.105 69.4222
L288.447 69.4222
L288.447 69.1205
L288.774 69.1205
L288.847 68.5171
L289.115 68.5171
L289.115 67.9137
L289.572 67.9137
L289.572 67.612
L289.754 67.612
L289.754 67.3103
L289.901 67.3103
L289.901 67.0085
L290.021 67.0085
L290.021 66.7068
L290.339 66.7068
L290.339 66.4051
L290.787 66.4051
L290.787 66.1034
L291.32 66.1034
L291.32 65.5
L291.568 65.5
L291.568 65.1983
L291.841 65.1983
L291.847 64.5948
L292.139 64.5948
L292.139 64.2931
L292.814 64.2931
L292.814 63.9914
L293.076 63.9914
L293.076 63.6897
L293.368 63.6897
L293.368 63.388
L293.491 63.388
L293.491 63.0863
L294.105 63.0863
L294.177 62.4828
L294.231 62.4828
L294.291 61.5777
L294.712 61.5777
L294.712 61.276
L294.898 61.276
L294.959 60.3709
L295.424 60.3709
L295.424 60.0691
L295.738 60.0691
L295.738 59.7674
L296.031 59.7674
L296.127 59.164
L296.157 59.164
L296.157 58.8623
L296.601 58.8623
L296.601 58.5606
L296.937 58.5606
L297.038 57.9572
L297.147 57.9572
L297.147 57.6554
L297.269 57.6554
L297.365 56.7503
L297.646 56.7503
L297.646 56.4486
L297.759 56.4486
L297.805 55.8452
L298.267 55.8452
L298.267 55.5434
L298.594 55.5434
L298.594 55.2417
L298.789 55.2417
L298.819 54.6383
L299.9 54.6383
L299.9 54.3366
L300.068 54.3366
L300.109 53.4315
L300.214 53.4315
L300.214 53.1297
L300.792 53.1297
L300.792 52.828
L300.929 52.828
L300.929 52.5263
L301.065 52.5263
L301.065 52.2246
L301.186 52.2246
L301.256 51.6212
L301.338 51.6212
L301.408 51.0178
L301.686 51.0178
L301.7 50.4143
L301.864 50.4143
L301.864 50.1126
L302.294 50.1126
L302.363 49.5092
L302.477 49.5092
L302.55 48.9058
L302.622 48.9058
L302.622 48.6041
L302.977 48.6041
L303.085 47.6989
L303.121 47.6989
L303.121 47.3972
L303.585 47.3972
L303.585 47.0955
L304 47.0955
L304 46.7938
L304.459 46.7938
L304.489 46.1904
L304.637 46.1904
L304.723 45.2852
L304.956 45.2852
L304.956 44.9835
L305.692 44.9835
L305.692 44.6818
L305.866 44.6818
L305.913 44.0784
L306.178 44.0784
L306.198 43.1732
L306.49 43.1732
L306.599 42.5698
L306.678 42.5698
L306.678 42.2681
L306.926 42.2681
L306.926 41.9664
L307.125 41.9664
L307.125 41.6647
L307.585 41.6647
L307.585 41.3629
L308.354 41.3629
L308.354 41.0612
L308.528 41.0612
L308.638 40.4578
L309.249 40.4578
L309.279 39.8544
L309.67 39.8544
L309.67 39.5527
L310.626 39.5527
L310.626 39.251
L311.016 39.251
L311.016 38.9492
L311.389 38.9492
L311.389 38.6475
L311.716 38.6475
L311.716 38.3458
L313.095 38.3458
L313.095 38.0441
L313.595 38.0441
L313.595 37.7424
L314.198 37.7424
L314.198 37.4407
L314.46 37.4407
L314.46 37.139
L315.415 37.139
L315.415 36.8373
L316.686 36.8373
L316.686 36.5355
L318.975 36.5355
L318.988 35.9321
L321.476 35.9321
L321.476 35.6304
L325.946 35.6304
L325.946 35.3287
L334.741 35.3287
L334.741 34.7253
L340.358 34.7253
L340.358 34.4236
L343.489 34.4236
L343.489 33.8201
L344.213 33.8201
L344.213 33.5184
L349.334 33.5184
L349.334 33.2167
L351.006 33.2167
L351.006 32.915
L352.059 32.915
L352.059 32.6133
L481.956 32.6133
L481.956 32.6133" style="fill:none;stroke:#000000;stroke-linecap:square;stroke-width:3.0;"/>
   </g>
   <g id="line2d_2"/>
   <g id="line2d_3">
    <path clip-path="url(#p96d9120af0)" d="
M35.5563 349.412
L224.004 349.412
L224.004 348.91
L228.334 348.91
L228.334 348.408
L231.238 348.408
L231.27 347.404
L235.119 347.404
L235.196 346.4
L235.601 346.4
L235.601 345.898
L235.927 345.898
L235.927 345.396
L236.551 345.396
L236.551 344.894
L238.073 344.894
L238.073 344.392
L238.504 344.392
L238.504 343.89
L238.988 343.89
L238.988 343.388
L239.45 343.388
L239.45 342.886
L240.257 342.886
L240.257 342.384
L240.802 342.384
L240.882 341.38
L241.697 341.38
L241.697 340.878
L242.084 340.878
L242.084 340.376
L242.353 340.376
L242.462 338.871
L243.161 338.871
L243.161 338.369
L243.302 338.369
L243.318 336.863
L243.773 336.863
L243.785 335.859
L244.005 335.859
L244.005 335.357
L244.747 335.357
L244.747 334.855
L245.307 334.855
L245.307 334.353
L246.027 334.353
L246.027 333.851
L246.221 333.851
L246.311 332.847
L246.419 332.847
L246.419 332.345
L246.91 332.345
L246.91 331.843
L247.119 331.843
L247.119 331.341
L247.743 331.341
L247.839 330.337
L248.068 330.337
L248.068 329.835
L248.93 329.835
L248.93 329.333
L249.078 329.333
L249.078 328.831
L249.265 328.831
L249.366 327.325
L250.179 327.325
L250.179 326.824
L250.568 326.824
L250.568 325.82
L251.039 325.82
L251.135 324.816
L251.24 324.816
L251.271 323.812
L251.523 323.812
L251.523 323.31
L251.917 323.31
L251.981 322.306
L252.725 322.306
L252.725 321.804
L252.888 321.804
L252.888 321.302
L253.199 321.302
L253.199 320.8
L253.349 320.8
L253.349 320.298
L253.685 320.298
L253.685 319.796
L253.989 319.796
L254.007 318.792
L254.143 318.792
L254.143 318.29
L254.417 318.29
L254.417 317.286
L254.631 317.286
L254.631 316.784
L254.871 316.784
L254.888 315.278
L255.105 315.278
L255.12 314.275
L255.225 314.275
L255.225 313.271
L255.465 313.271
L255.538 312.267
L255.696 312.267
L255.785 311.263
L255.849 311.263
L255.939 308.753
L256.153 308.753
L256.153 308.251
L256.32 308.251
L256.32 307.749
L256.552 307.749
L256.632 306.745
L257.068 306.745
L257.068 306.243
L257.334 306.243
L257.371 304.737
L257.534 304.737
L257.534 304.235
L257.842 304.235
L257.842 303.733
L258.074 303.733
L258.131 302.227
L258.286 302.227
L258.369 299.718
L258.494 299.718
L258.494 299.216
L258.756 299.216
L258.756 298.212
L258.954 298.212
L258.988 296.204
L259.201 296.204
L259.277 295.2
L259.762 295.2
L259.777 294.196
L260.29 294.196
L260.386 293.192
L260.481 293.192
L260.488 291.686
L260.995 291.686
L260.995 290.682
L261.138 290.682
L261.223 289.678
L261.289 289.678
L261.289 289.176
L261.403 289.176
L261.465 288.173
L261.545 288.173
L261.545 287.671
L261.697 287.671
L261.697 287.169
L261.831 287.169
L261.913 285.161
L261.969 285.161
L261.969 284.659
L262.104 284.659
L262.104 284.157
L262.326 284.157
L262.326 283.655
L262.642 283.655
L262.714 282.149
L262.805 282.149
L262.827 280.643
L262.998 280.643
L262.998 280.141
L263.237 280.141
L263.278 278.635
L263.385 278.635
L263.435 277.631
L263.654 277.631
L263.707 276.627
L263.883 276.627
L263.883 276.125
L264.035 276.125
L264.112 274.118
L264.321 274.118
L264.377 272.612
L264.516 272.612
L264.6 271.106
L264.663 271.106
L264.748 270.102
L264.811 270.102
L264.859 269.098
L264.99 269.098
L264.99 268.596
L265.181 268.596
L265.218 267.592
L265.532 267.592
L265.616 265.082
L265.737 265.082
L265.737 264.58
L266.062 264.58
L266.117 262.573
L266.208 262.573
L266.284 260.565
L266.653 260.565
L266.729 259.059
L266.822 259.059
L266.91 256.549
L266.999 256.549
L267.059 255.545
L267.162 255.545
L267.163 254.541
L267.327 254.541
L267.375 253.537
L267.461 253.537
L267.461 253.035
L267.756 253.035
L267.801 251.529
L267.932 251.529
L267.932 251.027
L268.085 251.027
L268.085 250.525
L268.268 250.525
L268.32 249.522
L268.449 249.522
L268.5 248.016
L268.582 248.016
L268.636 247.012
L268.939 247.012
L268.939 246.51
L269.059 246.51
L269.156 245.506
L269.177 245.506
L269.257 244
L269.325 244
L269.325 243.498
L269.603 243.498
L269.679 241.992
L269.768 241.992
L269.795 240.988
L269.881 240.988
L269.946 239.482
L270.109 239.482
L270.153 238.478
L270.412 238.478
L270.522 235.969
L270.624 235.969
L270.625 234.965
L270.738 234.965
L270.821 231.953
L270.904 231.953
L270.909 230.949
L271.05 230.949
L271.135 229.945
L271.214 229.945
L271.291 228.439
L271.343 228.439
L271.403 225.929
L271.492 225.929
L271.523 224.925
L271.668 224.925
L271.668 224.424
L271.86 224.424
L271.86 223.922
L272.006 223.922
L272.069 222.416
L272.154 222.416
L272.154 221.914
L272.272 221.914
L272.355 220.408
L272.445 220.408
L272.496 219.404
L272.648 219.404
L272.734 217.898
L272.783 217.898
L272.877 215.89
L272.92 215.89
L272.951 214.886
L273.146 214.886
L273.231 213.882
L273.287 213.882
L273.357 211.373
L273.529 211.373
L273.58 209.365
L273.758 209.365
L273.861 207.859
L273.938 207.859
L273.99 206.855
L274.094 206.855
L274.169 204.847
L274.261 204.847
L274.346 203.341
L274.462 203.341
L274.462 202.839
L274.598 202.839
L274.639 201.333
L274.734 201.333
L274.803 200.329
L274.871 200.329
L274.97 198.824
L275.027 198.824
L275.053 197.82
L275.208 197.82
L275.304 195.812
L275.357 195.812
L275.357 195.31
L275.595 195.31
L275.595 194.808
L275.73 194.808
L275.778 193.302
L275.866 193.302
L275.893 191.796
L276.014 191.796
L276.096 190.792
L276.273 190.792
L276.376 188.282
L276.404 188.282
L276.512 184.769
L276.531 184.769
L276.624 183.263
L276.652 183.263
L276.652 182.761
L276.87 182.761
L276.894 181.255
L277.007 181.255
L277.012 180.251
L277.122 180.251
L277.163 178.243
L277.273 178.243
L277.304 176.737
L277.441 176.737
L277.551 175.231
L277.578 175.231
L277.644 173.224
L277.699 173.224
L277.805 171.216
L277.824 171.216
L277.824 170.714
L277.952 170.714
L278.05 169.71
L278.071 169.71
L278.078 168.204
L278.197 168.204
L278.197 167.702
L278.385 167.702
L278.492 166.196
L278.572 166.196
L278.61 165.192
L278.691 165.192
L278.777 163.184
L278.833 163.184
L278.913 162.18
L278.967 162.18
L278.967 161.678
L279.125 161.678
L279.22 160.675
L279.247 160.675
L279.355 158.165
L279.368 158.165
L279.455 156.659
L279.523 156.659
L279.551 155.655
L279.82 155.655
L279.877 153.145
L279.956 153.145
L280.064 150.133
L280.092 150.133
L280.191 148.627
L280.232 148.627
L280.294 146.62
L280.36 146.62
L280.431 145.114
L280.486 145.114
L280.593 143.106
L280.598 143.106
L280.598 142.604
L280.794 142.604
L280.794 142.102
L280.938 142.102
L281.04 139.592
L281.068 139.592
L281.14 138.086
L281.338 138.086
L281.438 136.58
L281.465 136.58
L281.478 135.576
L281.587 135.576
L281.643 134.071
L281.853 134.071
L281.853 133.569
L282.051 133.569
L282.115 131.561
L282.235 131.561
L282.267 130.557
L282.385 130.557
L282.385 130.055
L282.579 130.055
L282.669 129.051
L282.72 129.051
L282.808 126.039
L282.879 126.039
L282.938 124.031
L283.013 124.031
L283.059 122.525
L283.142 122.525
L283.199 121.522
L283.31 121.522
L283.417 119.012
L283.429 119.012
L283.429 118.51
L283.557 118.51
L283.557 118.008
L283.67 118.008
L283.67 117.004
L283.784 117.004
L283.891 115.498
L283.93 115.498
L283.93 114.996
L284.051 114.996
L284.162 113.992
L284.191 113.992
L284.208 112.486
L284.318 112.486
L284.404 110.98
L284.465 110.98
L284.567 108.471
L284.853 108.471
L284.96 106.965
L285.027 106.965
L285.027 106.463
L285.274 106.463
L285.38 104.455
L285.523 104.455
L285.556 101.945
L285.714 101.945
L285.792 100.439
L285.85 100.439
L285.958 99.4353
L285.971 99.4353
L286.063 97.9294
L286.082 97.9294
L286.131 95.9216
L286.223 95.9216
L286.223 93.9137
L286.377 93.9137
L286.405 92.4078
L286.499 92.4078
L286.499 91.9059
L286.859 91.9059
L286.878 90.902
L287.001 90.902
L287.075 89.3961
L287.135 89.3961
L287.234 87.3882
L287.278 87.3882
L287.356 85.8824
L287.475 85.8824
L287.529 84.8784
L287.67 84.8784
L287.67 83.8745
L287.827 83.8745
L287.827 82.8706
L287.967 82.8706
L288.046 81.3647
L288.201 81.3647
L288.263 79.8588
L288.428 79.8588
L288.529 76.8471
L288.65 76.8471
L288.684 74.8392
L288.825 74.8392
L288.931 72.8314
L289.034 72.8314
L289.034 72.3294
L289.148 72.3294
L289.148 71.8275
L289.275 71.8275
L289.28 70.8235
L289.39 70.8235
L289.39 70.3216
L289.61 70.3216
L289.65 68.3137
L289.726 68.3137
L289.831 65.8039
L289.916 65.8039
L289.916 65.302
L290.032 65.302
L290.107 62.2902
L290.378 62.2902
L290.482 60.7843
L290.754 60.7843
L290.864 59.7804
L290.934 59.7804
L290.934 59.2784
L291.135 59.2784
L291.216 57.2706
L291.261 57.2706
L291.261 56.7686
L291.382 56.7686
L291.443 55.7647
L291.53 55.7647
L291.575 53.2549
L291.841 53.2549
L291.931 51.749
L292.046 51.749
L292.091 50.2431
L292.163 50.2431
L292.163 49.2392
L292.287 49.2392
L292.318 48.2353
L292.592 48.2353
L292.685 47.2314
L292.968 47.2314
L293.066 45.7255
L293.113 45.7255
L293.113 45.2235
L293.436 45.2235
L293.469 43.7176
L293.549 43.7176
L293.647 42.2118
L293.767 42.2118
L293.767 41.7098
L294.128 41.7098
L294.128 40.7059
L294.354 40.7059
L294.4 39.702
L294.6 39.702
L294.6 39.2
L294.774 39.2
L294.871 37.6941
L295.018 37.6941
L295.018 36.6902
L295.153 36.6902
L295.153 36.1882
L295.575 36.1882
L295.666 35.1843
L295.869 35.1843
L295.951 33.6784
L295.985 33.6784
L296.023 32.6745
L296.159 32.6745
L296.256 31.6706
L296.333 31.6706
L296.333 31.1686
L296.622 31.1686
L296.622 30.6667
L297.052 30.6667
L297.126 29.1608
L297.307 29.1608
L297.408 28.1569
L297.454 28.1569
L297.515 27.1529
L297.616 27.1529
L297.725 26.149
L297.978 26.149
L297.978 25.6471
L298.254 25.6471
L298.254 24.6431
L298.521 24.6431
L298.521 24.1412
L298.73 24.1412
L298.73 23.6392
L298.877 23.6392
L298.877 23.1373
L299.105 23.1373
L299.105 22.6353
L299.412 22.6353
L299.412 22.1333
L299.563 22.1333
L299.639 20.6275
L299.834 20.6275
L299.858 19.6235
L300.068 19.6235
L300.068 19.1216
L300.491 19.1216
L300.491 18.6196
L300.629 18.6196
L300.69 17.6157
L300.961 17.6157
L300.986 16.6118
L301.243 16.6118
L301.243 16.1098
L301.454 16.1098
L301.454 15.6078
L301.757 15.6078
L301.757 15.1059
L302.075 15.1059
L302.113 14.102
L302.346 14.102
L302.346 13.6
L302.923 13.6
L302.923 13.098
L303.142 13.098
L303.142 12.5961
L303.498 12.5961
L303.498 12.0941
L305.031 12.0941
L305.031 11.5922
L306.159 11.5922
L306.159 11.0902
L307.544 11.0902
L307.544 10.5882
L481.956 10.5882
L481.956 10.5882" style="fill:none;stroke:#00bfbf;stroke-linecap:square;stroke-width:3.0;"/>
   </g>
   <g id="line2d_4"/>
   <g id="line2d_5">
    <path clip-path="url(#p96d9120af0)" d="
M35.5563 349.412
L224.004 349.412
L224.004 348.91
L228.334 348.91
L228.334 348.408
L231.238 348.408
L231.27 347.404
L235.119 347.404
L235.196 346.4
L235.601 346.4
L235.601 345.898
L235.927 345.898
L235.927 345.396
L236.551 345.396
L236.551 344.894
L238.073 344.894
L238.073 344.392
L238.504 344.392
L238.504 343.89
L238.988 343.89
L238.988 343.388
L239.45 343.388
L239.45 342.886
L240.257 342.886
L240.257 342.384
L240.802 342.384
L240.882 341.38
L241.697 341.38
L241.697 340.878
L242.084 340.878
L242.084 340.376
L242.353 340.376
L242.462 338.871
L243.161 338.871
L243.161 338.369
L243.302 338.369
L243.318 336.863
L243.773 336.863
L243.785 335.859
L244.005 335.859
L244.005 335.357
L244.747 335.357
L244.747 334.855
L245.307 334.855
L245.307 334.353
L246.027 334.353
L246.027 333.851
L246.221 333.851
L246.311 332.847
L246.419 332.847
L246.419 332.345
L246.91 332.345
L246.91 331.843
L247.119 331.843
L247.119 331.341
L247.743 331.341
L247.839 330.337
L248.068 330.337
L248.068 329.835
L248.93 329.835
L248.93 329.333
L249.078 329.333
L249.078 328.831
L249.265 328.831
L249.366 327.325
L250.179 327.325
L250.179 326.824
L250.568 326.824
L250.568 325.82
L251.039 325.82
L251.135 324.816
L251.24 324.816
L251.271 323.812
L251.523 323.812
L251.523 323.31
L251.917 323.31
L251.981 322.306
L252.725 322.306
L252.725 321.804
L252.888 321.804
L252.888 321.302
L253.199 321.302
L253.199 320.8
L253.349 320.8
L253.349 320.298
L253.685 320.298
L253.685 319.796
L253.989 319.796
L254.007 318.792
L254.143 318.792
L254.143 318.29
L254.417 318.29
L254.417 317.286
L254.631 317.286
L254.631 316.784
L254.871 316.784
L254.888 315.278
L255.105 315.278
L255.12 314.275
L255.225 314.275
L255.225 313.271
L255.465 313.271
L255.538 312.267
L255.696 312.267
L255.785 311.263
L255.849 311.263
L255.939 308.753
L256.153 308.753
L256.153 308.251
L256.32 308.251
L256.32 307.749
L256.552 307.749
L256.632 306.745
L257.068 306.745
L257.068 306.243
L257.334 306.243
L257.371 304.737
L257.534 304.737
L257.534 304.235
L257.842 304.235
L257.842 303.733
L258.074 303.733
L258.101 302.729
L258.286 302.729
L258.369 300.22
L258.494 300.22
L258.494 299.718
L258.756 299.718
L258.756 298.714
L258.954 298.714
L258.988 297.208
L259.201 297.208
L259.201 296.706
L259.762 296.706
L259.777 295.702
L260.386 295.702
L260.488 294.196
L260.995 294.196
L260.995 293.192
L261.223 293.192
L261.289 292.188
L261.403 292.188
L261.465 291.184
L261.545 291.184
L261.545 290.682
L261.697 290.682
L261.697 290.18
L261.908 290.18
L261.913 289.176
L262.104 289.176
L262.104 288.675
L262.326 288.675
L262.326 288.173
L262.714 288.173
L262.822 286.667
L262.827 286.667
L262.827 286.165
L263.435 286.165
L263.435 285.663
L263.707 285.663
L263.707 285.161
L264.045 285.161
L264.112 283.655
L264.35 283.655
L264.35 283.153
L264.516 283.153
L264.6 282.149
L264.748 282.149
L264.748 281.647
L264.99 281.647
L264.99 281.145
L265.181 281.145
L265.181 280.643
L265.532 280.643
L265.532 280.141
L266.062 280.141
L266.082 279.137
L266.208 279.137
L266.208 278.133
L266.653 278.133
L266.678 277.129
L266.91 277.129
L266.91 276.627
L267.059 276.627
L267.162 275.624
L267.461 275.624
L267.461 275.122
L267.932 275.122
L267.932 274.62
L268.085 274.62
L268.085 274.118
L268.32 274.118
L268.32 273.616
L268.449 273.616
L268.449 273.114
L268.582 273.114
L268.582 272.612
L269.215 272.612
L269.325 271.106
L269.603 271.106
L269.607 270.102
L269.881 270.102
L269.881 269.6
L270.109 269.6
L270.109 269.098
L270.412 269.098
L270.522 267.09
L270.745 267.09
L270.821 265.082
L270.904 265.082
L270.904 264.58
L271.135 264.58
L271.135 264.078
L271.291 264.078
L271.291 263.576
L271.403 263.576
L271.403 263.075
L271.523 263.075
L271.523 262.573
L271.668 262.573
L271.668 262.071
L272.069 262.071
L272.069 261.569
L272.272 261.569
L272.318 260.565
L272.951 260.565
L272.951 260.063
L273.231 260.063
L273.315 258.055
L273.55 258.055
L273.55 257.553
L273.758 257.553
L273.758 257.051
L273.938 257.051
L273.99 256.047
L274.169 256.047
L274.169 255.043
L274.43 255.043
L274.43 254.541
L274.578 254.541
L274.639 253.537
L274.766 253.537
L274.871 252.031
L274.97 252.031
L275.027 250.525
L275.1 250.525
L275.175 249.02
L275.291 249.02
L275.357 247.514
L275.479 247.514
L275.51 246.008
L275.626 246.008
L275.715 245.004
L275.814 245.004
L275.919 244
L276.019 244
L276.109 242.494
L276.224 242.494
L276.289 240.988
L276.339 240.988
L276.404 239.482
L276.497 239.482
L276.518 238.478
L276.698 238.478
L276.761 237.475
L276.822 237.475
L276.885 235.969
L277.002 235.969
L277.065 234.965
L277.25 234.965
L277.285 232.957
L277.589 232.957
L277.699 231.451
L277.824 231.451
L277.824 230.949
L277.964 230.949
L278.018 229.945
L278.077 229.945
L278.108 228.941
L278.412 228.941
L278.444 227.435
L278.699 227.435
L278.732 225.929
L279.109 225.929
L279.109 225.427
L279.351 225.427
L279.413 224.424
L280.232 224.424
L280.24 223.42
L280.473 223.42
L280.473 222.918
L280.62 222.918
L280.62 222.416
L280.808 222.416
L280.808 221.914
L281.143 221.914
L281.143 221.412
L281.349 221.412
L281.349 220.91
L281.553 220.91
L281.553 220.408
L281.669 220.408
L281.669 219.906
L282.152 219.906
L282.237 218.902
L282.332 218.902
L282.395 217.396
L282.573 217.396
L282.669 216.392
L282.879 216.392
L282.918 214.886
L283.057 214.886
L283.113 213.882
L283.293 213.882
L283.317 212.878
L283.433 212.878
L283.433 212.376
L283.742 212.376
L283.742 211.875
L283.916 211.875
L283.916 211.373
L284.061 211.373
L284.162 209.365
L284.465 209.365
L284.465 208.863
L284.683 208.863
L284.742 207.859
L284.853 207.859
L284.853 207.357
L285.057 207.357
L285.057 206.855
L285.38 206.855
L285.38 205.851
L285.506 205.851
L285.523 204.847
L285.635 204.847
L285.635 204.345
L285.783 204.345
L285.85 202.839
L285.971 202.839
L285.971 202.337
L286.082 202.337
L286.082 201.835
L286.305 201.835
L286.405 200.831
L286.478 200.831
L286.511 199.325
L286.626 199.325
L286.715 198.322
L286.814 198.322
L286.831 197.318
L286.947 197.318
L286.947 196.816
L287.095 196.816
L287.148 195.812
L287.283 195.812
L287.354 193.804
L287.494 193.804
L287.558 192.298
L287.617 192.298
L287.674 190.792
L287.785 190.792
L287.823 189.788
L287.965 189.788
L288.027 188.282
L288.081 188.282
L288.157 186.275
L288.201 186.275
L288.307 184.267
L288.337 184.267
L288.4 182.761
L288.455 182.761
L288.555 180.753
L288.626 180.753
L288.717 179.247
L288.806 179.247
L288.904 176.235
L288.924 176.235
L288.924 175.733
L289.045 175.733
L289.095 174.729
L289.16 174.729
L289.223 173.725
L289.298 173.725
L289.393 171.718
L289.415 171.718
L289.496 170.714
L289.559 170.714
L289.643 169.71
L289.724 169.71
L289.823 167.702
L289.872 167.702
L289.916 165.192
L290.06 165.192
L290.141 162.682
L290.216 162.682
L290.216 162.18
L290.394 162.18
L290.458 160.173
L290.536 160.173
L290.605 158.667
L290.665 158.667
L290.747 157.663
L290.785 157.663
L290.804 156.157
L290.906 156.157
L290.92 155.153
L291.039 155.153
L291.127 154.149
L291.217 154.149
L291.233 152.643
L291.333 152.643
L291.443 151.137
L291.488 151.137
L291.583 148.627
L291.646 148.627
L291.653 147.122
L291.807 147.122
L291.907 145.616
L292.136 145.616
L292.234 143.608
L292.316 143.608
L292.381 142.102
L292.488 142.102
L292.585 140.596
L292.701 140.596
L292.701 140.094
L292.903 140.094
L292.993 139.09
L293.183 139.09
L293.277 138.086
L293.313 138.086
L293.363 137.082
L293.427 137.082
L293.427 136.58
L293.726 136.58
L293.726 136.078
L293.95 136.078
L294.046 134.573
L294.325 134.573
L294.325 134.071
L294.727 134.071
L294.773 133.067
L295.093 133.067
L295.093 132.565
L295.543 132.565
L295.543 132.063
L295.774 132.063
L295.807 131.059
L296.187 131.059
L296.268 129.553
L296.344 129.553
L296.45 128.047
L296.478 128.047
L296.478 127.545
L296.604 127.545
L296.612 126.541
L296.822 126.541
L296.876 125.537
L296.938 125.537
L297.015 123.529
L297.086 123.529
L297.144 122.525
L297.24 122.525
L297.348 121.522
L297.362 121.522
L297.464 119.514
L297.548 119.514
L297.627 117.004
L297.688 117.004
L297.777 115.498
L297.802 115.498
L297.891 113.992
L297.947 113.992
L298.028 111.984
L298.066 111.984
L298.162 110.478
L298.19 110.478
L298.292 108.471
L298.348 108.471
L298.428 107.467
L298.533 107.467
L298.603 106.463
L298.714 106.463
L298.794 104.957
L298.829 104.957
L298.829 104.455
L299.018 104.455
L299.103 102.949
L299.367 102.949
L299.438 100.941
L299.537 100.941
L299.537 100.439
L299.661 100.439
L299.689 99.4353
L299.836 99.4353
L299.904 97.9294
L300.046 97.9294
L300.087 96.9255
L300.2 96.9255
L300.297 95.4196
L300.451 95.4196
L300.538 94.4157
L300.585 94.4157
L300.647 93.4118
L300.771 93.4118
L300.851 91.9059
L300.899 91.9059
L300.956 89.898
L301.017 89.898
L301.102 87.8902
L301.182 87.8902
L301.277 84.8784
L301.33 84.8784
L301.33 84.3765
L301.468 84.3765
L301.54 82.8706
L301.66 82.8706
L301.74 80.8627
L301.825 80.8627
L301.908 78.8549
L301.967 78.8549
L302.024 77.851
L302.079 77.851
L302.142 76.3451
L302.251 76.3451
L302.345 73.3333
L302.383 73.3333
L302.461 70.8235
L302.516 70.8235
L302.615 68.3137
L302.638 68.3137
L302.746 64.8
L302.809 64.8
L302.897 63.2941
L303 63.2941
L303.1 59.2784
L303.118 59.2784
L303.206 57.2706
L303.241 57.2706
L303.321 54.2588
L303.363 54.2588
L303.467 50.2431
L303.496 50.2431
L303.559 48.7373
L303.621 48.7373
L303.722 46.2275
L303.745 46.2275
L303.848 42.7137
L303.905 42.7137
L303.999 39.702
L304.029 39.702
L304.108 38.1961
L304.153 38.1961
L304.226 35.1843
L304.283 35.1843
L304.283 34.6824
L304.418 34.6824
L304.509 32.6745
L304.538 32.6745
L304.601 30.1647
L304.724 30.1647
L304.804 28.1569
L304.909 28.1569
L304.995 26.651
L305.17 26.651
L305.205 25.1451
L305.3 25.1451
L305.359 24.1412
L305.527 24.1412
L305.584 23.1373
L305.744 23.1373
L305.807 22.1333
L305.93 22.1333
L306.01 21.1294
L306.115 21.1294
L306.185 20.1255
L306.28 20.1255
L306.376 19.1216
L306.411 19.1216
L306.411 18.6196
L307.486 18.6196
L307.486 18.1176
L307.806 18.1176
L307.806 17.6157
L308.449 17.6157
L308.477 16.6118
L308.875 16.6118
L308.875 16.1098
L309.085 16.1098
L309.085 15.6078
L309.239 15.6078
L309.239 15.1059
L309.625 15.1059
L309.687 14.102
L309.811 14.102
L309.89 13.098
L309.995 13.098
L310.065 12.0941
L310.257 12.0941
L310.291 11.0902
L311.366 11.0902
L311.366 10.5882
L481.956 10.5882
L481.956 10.5882" style="fill:none;stroke:#bf00bf;stroke-linecap:square;stroke-width:3.0;"/>
   </g>
   <g id="line2d_6"/>
   <g id="line2d_7">
    <path clip-path="url(#p96d9120af0)" d="
M35.5563 349.412
L224.004 349.412
L224.004 348.91
L228.334 348.91
L228.334 348.408
L231.238 348.408
L231.27 347.404
L235.119 347.404
L235.196 346.4
L235.601 346.4
L235.601 345.898
L235.927 345.898
L235.927 345.396
L236.551 345.396
L236.551 344.894
L238.073 344.894
L238.073 344.392
L238.504 344.392
L238.504 343.89
L238.988 343.89
L238.988 343.388
L239.45 343.388
L239.45 342.886
L240.257 342.886
L240.257 342.384
L240.802 342.384
L240.882 341.38
L241.697 341.38
L241.697 340.878
L242.084 340.878
L242.084 340.376
L242.353 340.376
L242.462 338.871
L243.161 338.871
L243.161 338.369
L243.302 338.369
L243.318 336.863
L243.773 336.863
L243.785 335.859
L244.005 335.859
L244.005 335.357
L244.747 335.357
L244.747 334.855
L245.307 334.855
L245.307 334.353
L246.027 334.353
L246.027 333.851
L246.221 333.851
L246.311 332.847
L246.419 332.847
L246.419 332.345
L246.91 332.345
L246.91 331.843
L247.119 331.843
L247.119 331.341
L247.743 331.341
L247.839 330.337
L248.068 330.337
L248.068 329.835
L248.93 329.835
L248.93 329.333
L249.078 329.333
L249.078 328.831
L249.265 328.831
L249.366 327.325
L250.179 327.325
L250.179 326.824
L250.568 326.824
L250.568 325.82
L251.039 325.82
L251.135 324.816
L251.24 324.816
L251.271 323.812
L251.523 323.812
L251.523 323.31
L251.917 323.31
L251.981 322.306
L252.725 322.306
L252.725 321.804
L252.888 321.804
L252.888 321.302
L253.199 321.302
L253.199 320.8
L253.349 320.8
L253.349 320.298
L253.685 320.298
L253.685 319.796
L253.989 319.796
L254.007 318.792
L254.143 318.792
L254.143 318.29
L254.417 318.29
L254.417 317.286
L254.631 317.286
L254.631 316.784
L254.871 316.784
L254.888 315.278
L255.105 315.278
L255.12 314.275
L255.225 314.275
L255.225 313.271
L255.465 313.271
L255.538 312.267
L255.696 312.267
L255.785 311.263
L255.849 311.263
L255.939 308.753
L256.153 308.753
L256.153 308.251
L256.32 308.251
L256.32 307.749
L256.552 307.749
L256.632 306.745
L257.068 306.745
L257.068 306.243
L257.334 306.243
L257.371 304.737
L257.534 304.737
L257.534 304.235
L257.842 304.235
L257.842 303.733
L258.074 303.733
L258.101 302.729
L258.286 302.729
L258.369 300.22
L258.494 300.22
L258.494 299.718
L258.756 299.718
L258.756 298.714
L258.954 298.714
L258.988 297.208
L259.201 297.208
L259.201 296.706
L259.762 296.706
L259.777 295.702
L260.386 295.702
L260.488 294.196
L260.995 294.196
L260.995 293.192
L261.223 293.192
L261.289 292.188
L261.403 292.188
L261.465 291.184
L261.545 291.184
L261.545 290.682
L261.697 290.682
L261.697 290.18
L261.908 290.18
L261.913 289.176
L262.104 289.176
L262.104 288.675
L262.326 288.675
L262.326 288.173
L262.714 288.173
L262.822 286.667
L262.827 286.667
L262.827 286.165
L263.435 286.165
L263.435 285.663
L263.707 285.663
L263.707 285.161
L264.045 285.161
L264.112 283.655
L264.35 283.655
L264.35 283.153
L264.516 283.153
L264.6 282.149
L264.748 282.149
L264.748 281.647
L264.99 281.647
L264.99 281.145
L265.181 281.145
L265.181 280.643
L265.532 280.643
L265.532 280.141
L266.062 280.141
L266.082 279.137
L266.208 279.137
L266.208 278.133
L266.653 278.133
L266.678 277.129
L266.91 277.129
L266.91 276.627
L267.059 276.627
L267.162 275.624
L267.461 275.624
L267.461 275.122
L267.932 275.122
L267.932 274.62
L268.085 274.62
L268.085 274.118
L268.32 274.118
L268.32 273.616
L268.449 273.616
L268.449 273.114
L268.582 273.114
L268.582 272.612
L269.215 272.612
L269.325 271.106
L269.603 271.106
L269.607 270.102
L269.881 270.102
L269.881 269.6
L270.109 269.6
L270.109 269.098
L270.412 269.098
L270.522 267.09
L270.745 267.09
L270.821 265.082
L270.904 265.082
L270.904 264.58
L271.135 264.58
L271.135 264.078
L271.291 264.078
L271.291 263.576
L271.403 263.576
L271.403 263.075
L271.523 263.075
L271.523 262.573
L271.668 262.573
L271.668 262.071
L272.069 262.071
L272.069 261.569
L272.272 261.569
L272.318 260.565
L272.951 260.565
L272.951 260.063
L273.231 260.063
L273.315 258.055
L273.55 258.055
L273.55 257.553
L273.758 257.553
L273.758 257.051
L273.938 257.051
L273.99 256.047
L274.169 256.047
L274.169 255.043
L274.639 255.043
L274.639 254.541
L274.871 254.541
L274.97 253.537
L275.027 253.537
L275.027 253.035
L275.357 253.035
L275.357 252.533
L276.282 252.533
L276.282 252.031
L276.404 252.031
L276.497 251.027
L276.885 251.027
L276.885 250.525
L277.273 250.525
L277.285 249.522
L277.824 249.522
L277.824 249.02
L278.077 249.02
L278.077 248.518
L278.444 248.518
L278.444 248.016
L278.705 248.016
L278.705 247.514
L279.351 247.514
L279.351 247.012
L280.232 247.012
L280.24 246.008
L281.164 246.008
L281.271 245.004
L281.403 245.004
L281.403 244.502
L281.717 244.502
L281.717 244
L281.842 244
L281.842 243.498
L282.215 243.498
L282.249 242.494
L282.4 242.494
L282.424 241.49
L282.669 241.49
L282.713 239.482
L282.856 239.482
L282.963 237.976
L283.057 237.976
L283.094 236.471
L283.197 236.471
L283.197 235.969
L283.329 235.969
L283.409 234.463
L283.534 234.463
L283.643 232.455
L283.768 232.455
L283.768 231.953
L283.907 231.953
L283.941 230.949
L284.092 230.949
L284.175 228.439
L284.326 228.439
L284.404 225.929
L284.438 225.929
L284.545 224.424
L284.632 224.424
L284.677 222.416
L284.853 222.416
L284.853 221.914
L284.991 221.914
L285.088 220.91
L285.116 220.91
L285.116 220.408
L285.272 220.408
L285.38 217.898
L285.489 217.898
L285.523 215.388
L285.674 215.388
L285.698 214.384
L285.85 214.384
L285.85 213.882
L285.98 213.882
L286.082 211.875
L286.405 211.875
L286.405 211.373
L286.67 211.373
L286.67 210.871
L286.854 210.871
L286.867 209.867
L287.319 209.867
L287.319 209.365
L288.201 209.365
L288.201 208.863
L288.496 208.863
L288.496 208.361
L289.916 208.361
L289.916 207.859
L290.274 207.859
L290.381 206.855
L290.513 206.855
L290.513 206.353
L290.828 206.353
L290.828 205.851
L290.953 205.851
L290.953 205.349
L291.326 205.349
L291.36 203.843
L291.443 203.843
L291.535 201.835
L291.599 201.835
L291.599 201.333
L291.817 201.333
L291.913 199.325
L292.038 199.325
L292.038 198.824
L292.412 198.824
L292.507 197.318
L292.596 197.318
L292.704 195.31
L292.902 195.31
L292.909 193.804
L293.297 193.804
L293.404 192.8
L293.536 192.8
L293.62 191.294
L293.727 191.294
L293.789 189.788
L293.851 189.788
L293.858 188.784
L293.976 188.784
L293.976 188.282
L294.173 188.282
L294.173 187.78
L294.298 187.78
L294.383 186.275
L294.534 186.275
L294.558 185.271
L294.671 185.271
L294.705 184.267
L294.84 184.267
L294.88 181.757
L295.162 181.757
L295.168 180.251
L295.53 180.251
L295.53 179.749
L295.712 179.749
L295.819 177.741
L295.852 177.741
L295.951 176.737
L296.036 176.737
L296.049 175.733
L296.21 175.733
L296.317 174.227
L296.39 174.227
L296.449 173.224
L296.741 173.224
L296.848 170.714
L296.888 170.714
L296.98 168.706
L297.033 168.706
L297.14 167.702
L297.254 167.702
L297.295 164.188
L297.419 164.188
L297.471 162.682
L297.586 162.682
L297.616 161.678
L297.711 161.678
L297.792 159.169
L297.826 159.169
L297.826 158.667
L297.944 158.667
L298.001 157.161
L298.085 157.161
L298.141 154.651
L298.228 154.651
L298.294 151.639
L298.359 151.639
L298.442 150.635
L298.538 150.635
L298.645 147.122
L298.674 147.122
L298.777 146.118
L298.799 146.118
L298.799 145.616
L298.973 145.616
L299.083 144.11
L299.091 144.11
L299.172 142.102
L299.206 142.102
L299.265 140.094
L299.357 140.094
L299.462 137.584
L299.529 137.584
L299.623 136.078
L299.654 136.078
L299.669 134.071
L299.775 134.071
L299.799 133.067
L299.914 133.067
L299.914 132.565
L300.027 132.565
L300.087 130.055
L300.212 130.055
L300.271 128.549
L300.336 128.549
L300.353 127.545
L300.477 127.545
L300.55 124.533
L300.689 124.533
L300.771 123.027
L300.85 123.027
L300.955 121.522
L300.968 121.522
L301.046 120.016
L301.207 120.016
L301.283 118.008
L301.336 118.008
L301.431 115.498
L301.542 115.498
L301.64 114.494
L301.661 114.494
L301.661 113.992
L301.789 113.992
L301.847 111.984
L301.905 111.984
L301.995 110.478
L302.018 110.478
L302.018 109.976
L302.16 109.976
L302.263 107.969
L302.344 107.969
L302.375 106.463
L302.469 106.463
L302.55 105.459
L302.583 105.459
L302.673 104.455
L302.695 104.455
L302.787 103.451
L302.94 103.451
L302.946 102.447
L303.052 102.447
L303.147 100.941
L303.21 100.941
L303.303 98.9333
L303.448 98.9333
L303.509 97.9294
L303.562 97.9294
L303.609 96.9255
L303.699 96.9255
L303.738 95.4196
L303.852 95.4196
L303.852 94.9176
L304.042 94.9176
L304.105 93.4118
L304.156 93.4118
L304.256 91.4039
L304.305 91.4039
L304.408 89.898
L304.42 89.898
L304.528 88.3922
L304.534 88.3922
L304.571 86.8863
L304.646 86.8863
L304.746 83.3725
L304.779 83.3725
L304.88 80.3608
L304.892 80.3608
L304.892 79.8588
L305.024 79.8588
L305.107 77.851
L305.166 77.851
L305.268 74.3373
L305.292 74.3373
L305.349 71.8275
L305.405 71.8275
L305.474 68.8157
L305.534 68.8157
L305.645 65.8039
L305.705 65.8039
L305.806 62.7922
L305.819 62.7922
L305.926 60.7843
L305.935 60.7843
L306.003 57.7725
L306.053 57.7725
L306.155 54.2588
L306.178 54.2588
L306.248 51.749
L306.297 51.749
L306.4 47.7333
L306.431 47.7333
L306.542 45.2235
L306.573 45.2235
L306.676 42.7137
L306.742 42.7137
L306.789 39.2
L306.861 39.2
L306.942 37.1922
L307.037 37.1922
L307.138 34.6824
L307.165 34.6824
L307.25 32.1725
L307.288 32.1725
L307.353 31.1686
L307.44 31.1686
L307.551 27.6549
L307.613 27.6549
L307.716 24.1412
L307.796 24.1412
L307.902 22.1333
L308.111 22.1333
L308.145 21.1294
L308.26 21.1294
L308.293 20.1255
L308.393 20.1255
L308.489 19.1216
L308.505 19.1216
L308.523 18.1176
L308.631 18.1176
L308.734 15.6078
L308.755 15.6078
L308.849 13.6
L309.412 13.6
L309.445 12.5961
L309.523 12.5961
L309.557 11.5922
L309.774 11.5922
L309.808 10.5882
L481.956 10.5882
L481.956 10.5882" style="fill:none;stroke:#ff0000;stroke-linecap:square;stroke-width:3.0;"/>
   </g>
   <g id="line2d_8"/>
   <g id="line2d_9">
    <path clip-path="url(#p96d9120af0)" d="
M258.756 352.8
L258.756 7.2" style="fill:none;stroke:#000000;stroke-linecap:square;"/>
   </g>
   <g id="line2d_10">
    <path clip-path="url(#p96d9120af0)" d="
M35.5563 180
L481.956 180" style="fill:none;stroke:#000000;stroke-dasharray:1.000000,3.000000;stroke-dashoffset:0.0;stroke-width:2;"/>
   </g>
   <g id="matplotlib.axis_1">
    <g id="xtick_1">
     <g id="line2d_11">
      <path clip-path="url(#p96d9120af0)" d="
M35.5563 352.8
L35.5563 7.2" style="fill:none;stroke:#000000;stroke-dasharray:1.000000,3.000000;stroke-dashoffset:0.0;stroke-width:0.5;"/>
     </g>
     <g id="line2d_12">
      <defs>
       <path d="
M0 0
L0 -4" id="m93b0483c22" style="stroke:#000000;stroke-width:0.5;"/>
      </defs>
      <g>
       <use style="stroke:#000000;stroke-width:0.5;" x="35.55625" xlink:href="#m93b0483c22" y="352.8"/>
      </g>
     </g>
     <g id="line2d_13">
      <defs>
       <path d="
M0 0
L0 4" id="m741efc42ff" style="stroke:#000000;stroke-width:0.5;"/>
      </defs>
      <g>
       <use style="stroke:#000000;stroke-width:0.5;" x="35.55625" xlink:href="#m741efc42ff" y="7.2"/>
      </g>
     </g>
     <g id="text_1">
      <!-- -4 -->
      <defs>
       <path d="
M4.89062 31.3906
L31.2031 31.3906
L31.2031 23.3906
L4.89062 23.3906
z
" id="BitstreamVeraSans-Roman-2d"/>
       <path d="
M37.7969 64.3125
L12.8906 25.3906
L37.7969 25.3906
z

M35.2031 72.9062
L47.6094 72.9062
L47.6094 25.3906
L58.0156 25.3906
L58.0156 17.1875
L47.6094 17.1875
L47.6094 0
L37.7969 0
L37.7969 17.1875
L4.89062 17.1875
L4.89062 26.7031
z
" id="BitstreamVeraSans-Roman-34"/>
      </defs>
      <g transform="translate(26.6359375 371.996875)scale(0.2 -0.2)">
       <use xlink:href="#BitstreamVeraSans-Roman-2d"/>
       <use x="36.083984375" xlink:href="#BitstreamVeraSans-Roman-34"/>
      </g>
     </g>
    </g>
    <g id="xtick_2">
     <g id="line2d_14">
      <path clip-path="url(#p96d9120af0)" d="
M91.3562 352.8
L91.3562 7.2" style="fill:none;stroke:#000000;stroke-dasharray:1.000000,3.000000;stroke-dashoffset:0.0;stroke-width:0.5;"/>
     </g>
     <g id="line2d_15">
      <g>
       <use style="stroke:#000000;stroke-width:0.5;" x="91.35625" xlink:href="#m93b0483c22" y="352.8"/>
      </g>
     </g>
     <g id="line2d_16">
      <g>
       <use style="stroke:#000000;stroke-width:0.5;" x="91.35625" xlink:href="#m741efc42ff" y="7.2"/>
      </g>
     </g>
     <g id="text_2">
      <!-- -3 -->
      <defs>
       <path d="
M40.5781 39.3125
Q47.6562 37.7969 51.625 33
Q55.6094 28.2188 55.6094 21.1875
Q55.6094 10.4062 48.1875 4.48438
Q40.7656 -1.42188 27.0938 -1.42188
Q22.5156 -1.42188 17.6562 -0.515625
Q12.7969 0.390625 7.625 2.20312
L7.625 11.7188
Q11.7188 9.32812 16.5938 8.10938
Q21.4844 6.89062 26.8125 6.89062
Q36.0781 6.89062 40.9375 10.5469
Q45.7969 14.2031 45.7969 21.1875
Q45.7969 27.6406 41.2812 31.2656
Q36.7656 34.9062 28.7188 34.9062
L20.2188 34.9062
L20.2188 43.0156
L29.1094 43.0156
Q36.375 43.0156 40.2344 45.9219
Q44.0938 48.8281 44.0938 54.2969
Q44.0938 59.9062 40.1094 62.9062
Q36.1406 65.9219 28.7188 65.9219
Q24.6562 65.9219 20.0156 65.0312
Q15.375 64.1562 9.8125 62.3125
L9.8125 71.0938
Q15.4375 72.6562 20.3438 73.4375
Q25.25 74.2188 29.5938 74.2188
Q40.8281 74.2188 47.3594 69.1094
Q53.9062 64.0156 53.9062 55.3281
Q53.9062 49.2656 50.4375 45.0938
Q46.9688 40.9219 40.5781 39.3125" id="BitstreamVeraSans-Roman-33"/>
      </defs>
      <g transform="translate(82.6765625 371.996875)scale(0.2 -0.2)">
       <use xlink:href="#BitstreamVeraSans-Roman-2d"/>
       <use x="36.083984375" xlink:href="#BitstreamVeraSans-Roman-33"/>
      </g>
     </g>
    </g>
    <g id="xtick_3">
     <g id="line2d_17">
      <path clip-path="url(#p96d9120af0)" d="
M147.156 352.8
L147.156 7.2" style="fill:none;stroke:#000000;stroke-dasharray:1.000000,3.000000;stroke-dashoffset:0.0;stroke-width:0.5;"/>
     </g>
     <g id="line2d_18">
      <g>
       <use style="stroke:#000000;stroke-width:0.5;" x="147.15625" xlink:href="#m93b0483c22" y="352.8"/>
      </g>
     </g>
     <g id="line2d_19">
      <g>
       <use style="stroke:#000000;stroke-width:0.5;" x="147.15625" xlink:href="#m741efc42ff" y="7.2"/>
      </g>
     </g>
     <g id="text_3">
      <!-- -2 -->
      <defs>
       <path d="
M19.1875 8.29688
L53.6094 8.29688
L53.6094 0
L7.32812 0
L7.32812 8.29688
Q12.9375 14.1094 22.625 23.8906
Q32.3281 33.6875 34.8125 36.5312
Q39.5469 41.8438 41.4219 45.5312
Q43.3125 49.2188 43.3125 52.7812
Q43.3125 58.5938 39.2344 62.25
Q35.1562 65.9219 28.6094 65.9219
Q23.9688 65.9219 18.8125 64.3125
Q13.6719 62.7031 7.8125 59.4219
L7.8125 69.3906
Q13.7656 71.7812 18.9375 73
Q24.125 74.2188 28.4219 74.2188
Q39.75 74.2188 46.4844 68.5469
Q53.2188 62.8906 53.2188 53.4219
Q53.2188 48.9219 51.5312 44.8906
Q49.8594 40.875 45.4062 35.4062
Q44.1875 33.9844 37.6406 27.2188
Q31.1094 20.4531 19.1875 8.29688" id="BitstreamVeraSans-Roman-32"/>
      </defs>
      <g transform="translate(138.6765625 371.996875)scale(0.2 -0.2)">
       <use xlink:href="#BitstreamVeraSans-Roman-2d"/>
       <use x="36.083984375" xlink:href="#BitstreamVeraSans-Roman-32"/>
      </g>
     </g>
    </g>
    <g id="xtick_4">
     <g id="line2d_20">
      <path clip-path="url(#p96d9120af0)" d="
M202.956 352.8
L202.956 7.2" style="fill:none;stroke:#000000;stroke-dasharray:1.000000,3.000000;stroke-dashoffset:0.0;stroke-width:0.5;"/>
     </g>
     <g id="line2d_21">
      <g>
       <use style="stroke:#000000;stroke-width:0.5;" x="202.95625" xlink:href="#m93b0483c22" y="352.8"/>
      </g>
     </g>
     <g id="line2d_22">
      <g>
       <use style="stroke:#000000;stroke-width:0.5;" x="202.95625" xlink:href="#m741efc42ff" y="7.2"/>
      </g>
     </g>
     <g id="text_4">
      <!-- -1 -->
      <defs>
       <path d="
M12.4062 8.29688
L28.5156 8.29688
L28.5156 63.9219
L10.9844 60.4062
L10.9844 69.3906
L28.4219 72.9062
L38.2812 72.9062
L38.2812 8.29688
L54.3906 8.29688
L54.3906 0
L12.4062 0
z
" id="BitstreamVeraSans-Roman-31"/>
      </defs>
      <g transform="translate(194.3984375 371.996875)scale(0.2 -0.2)">
       <use xlink:href="#BitstreamVeraSans-Roman-2d"/>
       <use x="36.083984375" xlink:href="#BitstreamVeraSans-Roman-31"/>
      </g>
     </g>
    </g>
    <g id="xtick_5">
     <g id="line2d_23">
      <path clip-path="url(#p96d9120af0)" d="
M258.756 352.8
L258.756 7.2" style="fill:none;stroke:#000000;stroke-dasharray:1.000000,3.000000;stroke-dashoffset:0.0;stroke-width:0.5;"/>
     </g>
     <g id="line2d_24">
      <g>
       <use style="stroke:#000000;stroke-width:0.5;" x="258.75625" xlink:href="#m93b0483c22" y="352.8"/>
      </g>
     </g>
     <g id="line2d_25">
      <g>
       <use style="stroke:#000000;stroke-width:0.5;" x="258.75625" xlink:href="#m741efc42ff" y="7.2"/>
      </g>
     </g>
     <g id="text_5">
      <!-- 0 -->
      <defs>
       <path d="
M31.7812 66.4062
Q24.1719 66.4062 20.3281 58.9062
Q16.5 51.4219 16.5 36.375
Q16.5 21.3906 20.3281 13.8906
Q24.1719 6.39062 31.7812 6.39062
Q39.4531 6.39062 43.2812 13.8906
Q47.125 21.3906 47.125 36.375
Q47.125 51.4219 43.2812 58.9062
Q39.4531 66.4062 31.7812 66.4062
M31.7812 74.2188
Q44.0469 74.2188 50.5156 64.5156
Q56.9844 54.8281 56.9844 36.375
Q56.9844 17.9688 50.5156 8.26562
Q44.0469 -1.42188 31.7812 -1.42188
Q19.5312 -1.42188 13.0625 8.26562
Q6.59375 17.9688 6.59375 36.375
Q6.59375 54.8281 13.0625 64.5156
Q19.5312 74.2188 31.7812 74.2188" id="BitstreamVeraSans-Roman-30"/>
      </defs>
      <g transform="translate(253.7171875 371.996875)scale(0.2 -0.2)">
       <use xlink:href="#BitstreamVeraSans-Roman-30"/>
      </g>
     </g>
    </g>
    <g id="xtick_6">
     <g id="line2d_26">
      <path clip-path="url(#p96d9120af0)" d="
M314.556 352.8
L314.556 7.2" style="fill:none;stroke:#000000;stroke-dasharray:1.000000,3.000000;stroke-dashoffset:0.0;stroke-width:0.5;"/>
     </g>
     <g id="line2d_27">
      <g>
       <use style="stroke:#000000;stroke-width:0.5;" x="314.55625" xlink:href="#m93b0483c22" y="352.8"/>
      </g>
     </g>
     <g id="line2d_28">
      <g>
       <use style="stroke:#000000;stroke-width:0.5;" x="314.55625" xlink:href="#m741efc42ff" y="7.2"/>
      </g>
     </g>
     <g id="text_6">
      <!-- 1 -->
      <g transform="translate(310.215625 371.996875)scale(0.2 -0.2)">
       <use xlink:href="#BitstreamVeraSans-Roman-31"/>
      </g>
     </g>
    </g>
    <g id="xtick_7">
     <g id="line2d_29">
      <path clip-path="url(#p96d9120af0)" d="
M370.356 352.8
L370.356 7.2" style="fill:none;stroke:#000000;stroke-dasharray:1.000000,3.000000;stroke-dashoffset:0.0;stroke-width:0.5;"/>
     </g>
     <g id="line2d_30">
      <g>
       <use style="stroke:#000000;stroke-width:0.5;" x="370.35625" xlink:href="#m93b0483c22" y="352.8"/>
      </g>
     </g>
     <g id="line2d_31">
      <g>
       <use style="stroke:#000000;stroke-width:0.5;" x="370.35625" xlink:href="#m741efc42ff" y="7.2"/>
      </g>
     </g>
     <g id="text_7">
      <!-- 2 -->
      <g transform="translate(365.728125 371.996875)scale(0.2 -0.2)">
       <use xlink:href="#BitstreamVeraSans-Roman-32"/>
      </g>
     </g>
    </g>
    <g id="xtick_8">
     <g id="line2d_32">
      <path clip-path="url(#p96d9120af0)" d="
M426.156 352.8
L426.156 7.2" style="fill:none;stroke:#000000;stroke-dasharray:1.000000,3.000000;stroke-dashoffset:0.0;stroke-width:0.5;"/>
     </g>
     <g id="line2d_33">
      <g>
       <use style="stroke:#000000;stroke-width:0.5;" x="426.15625" xlink:href="#m93b0483c22" y="352.8"/>
      </g>
     </g>
     <g id="line2d_34">
      <g>
       <use style="stroke:#000000;stroke-width:0.5;" x="426.15625" xlink:href="#m741efc42ff" y="7.2"/>
      </g>
     </g>
     <g id="text_8">
      <!-- 3 -->
      <g transform="translate(421.3578125 371.996875)scale(0.2 -0.2)">
       <use xlink:href="#BitstreamVeraSans-Roman-33"/>
      </g>
     </g>
    </g>
    <g id="xtick_9">
     <g id="line2d_35">
      <path clip-path="url(#p96d9120af0)" d="
M481.956 352.8
L481.956 7.2" style="fill:none;stroke:#000000;stroke-dasharray:1.000000,3.000000;stroke-dashoffset:0.0;stroke-width:0.5;"/>
     </g>
     <g id="line2d_36">
      <g>
       <use style="stroke:#000000;stroke-width:0.5;" x="481.95625" xlink:href="#m93b0483c22" y="352.8"/>
      </g>
     </g>
     <g id="line2d_37">
      <g>
       <use style="stroke:#000000;stroke-width:0.5;" x="481.95625" xlink:href="#m741efc42ff" y="7.2"/>
      </g>
     </g>
     <g id="text_9">
      <!-- 4 -->
      <g transform="translate(476.64375 371.996875)scale(0.2 -0.2)">
       <use xlink:href="#BitstreamVeraSans-Roman-34"/>
      </g>
     </g>
    </g>
    <g id="xtick_10">
     <g id="line2d_38">
      <defs>
       <path d="
M0 0
L0 -2" id="m177f7580d0" style="stroke:#000000;stroke-width:0.5;"/>
      </defs>
      <g>
       <use style="stroke:#000000;stroke-width:0.5;" x="40.9638287258" xlink:href="#m177f7580d0" y="352.8"/>
      </g>
     </g>
     <g id="line2d_39">
      <defs>
       <path d="
M0 0
L0 2" id="m5284c7e2a0" style="stroke:#000000;stroke-width:0.5;"/>
      </defs>
      <g>
       <use style="stroke:#000000;stroke-width:0.5;" x="40.9638287258" xlink:href="#m5284c7e2a0" y="7.2"/>
      </g>
     </g>
    </g>
    <g id="xtick_11">
     <g id="line2d_40">
      <g>
       <use style="stroke:#000000;stroke-width:0.5;" x="47.9354102286" xlink:href="#m177f7580d0" y="352.8"/>
      </g>
     </g>
     <g id="line2d_41">
      <g>
       <use style="stroke:#000000;stroke-width:0.5;" x="47.9354102286" xlink:href="#m5284c7e2a0" y="7.2"/>
      </g>
     </g>
    </g>
    <g id="xtick_12">
     <g id="line2d_42">
      <g>
       <use style="stroke:#000000;stroke-width:0.5;" x="57.7613024839" xlink:href="#m177f7580d0" y="352.8"/>
      </g>
     </g>
     <g id="line2d_43">
      <g>
       <use style="stroke:#000000;stroke-width:0.5;" x="57.7613024839" xlink:href="#m5284c7e2a0" y="7.2"/>
      </g>
     </g>
    </g>
    <g id="xtick_13">
     <g id="line2d_44">
      <g>
       <use style="stroke:#000000;stroke-width:0.5;" x="74.5587762419" xlink:href="#m177f7580d0" y="352.8"/>
      </g>
     </g>
     <g id="line2d_45">
      <g>
       <use style="stroke:#000000;stroke-width:0.5;" x="74.5587762419" xlink:href="#m5284c7e2a0" y="7.2"/>
      </g>
     </g>
    </g>
    <g id="xtick_14">
     <g id="line2d_46">
      <g>
       <use style="stroke:#000000;stroke-width:0.5;" x="96.7638287258" xlink:href="#m177f7580d0" y="352.8"/>
      </g>
     </g>
     <g id="line2d_47">
      <g>
       <use style="stroke:#000000;stroke-width:0.5;" x="96.7638287258" xlink:href="#m5284c7e2a0" y="7.2"/>
      </g>
     </g>
    </g>
    <g id="xtick_15">
     <g id="line2d_48">
      <g>
       <use style="stroke:#000000;stroke-width:0.5;" x="103.735410229" xlink:href="#m177f7580d0" y="352.8"/>
      </g>
     </g>
     <g id="line2d_49">
      <g>
       <use style="stroke:#000000;stroke-width:0.5;" x="103.735410229" xlink:href="#m5284c7e2a0" y="7.2"/>
      </g>
     </g>
    </g>
    <g id="xtick_16">
     <g id="line2d_50">
      <g>
       <use style="stroke:#000000;stroke-width:0.5;" x="113.561302484" xlink:href="#m177f7580d0" y="352.8"/>
      </g>
     </g>
     <g id="line2d_51">
      <g>
       <use style="stroke:#000000;stroke-width:0.5;" x="113.561302484" xlink:href="#m5284c7e2a0" y="7.2"/>
      </g>
     </g>
    </g>
    <g id="xtick_17">
     <g id="line2d_52">
      <g>
       <use style="stroke:#000000;stroke-width:0.5;" x="130.358776242" xlink:href="#m177f7580d0" y="352.8"/>
      </g>
     </g>
     <g id="line2d_53">
      <g>
       <use style="stroke:#000000;stroke-width:0.5;" x="130.358776242" xlink:href="#m5284c7e2a0" y="7.2"/>
      </g>
     </g>
    </g>
    <g id="xtick_18">
     <g id="line2d_54">
      <g>
       <use style="stroke:#000000;stroke-width:0.5;" x="152.563828726" xlink:href="#m177f7580d0" y="352.8"/>
      </g>
     </g>
     <g id="line2d_55">
      <g>
       <use style="stroke:#000000;stroke-width:0.5;" x="152.563828726" xlink:href="#m5284c7e2a0" y="7.2"/>
      </g>
     </g>
    </g>
    <g id="xtick_19">
     <g id="line2d_56">
      <g>
       <use style="stroke:#000000;stroke-width:0.5;" x="159.535410229" xlink:href="#m177f7580d0" y="352.8"/>
      </g>
     </g>
     <g id="line2d_57">
      <g>
       <use style="stroke:#000000;stroke-width:0.5;" x="159.535410229" xlink:href="#m5284c7e2a0" y="7.2"/>
      </g>
     </g>
    </g>
    <g id="xtick_20">
     <g id="line2d_58">
      <g>
       <use style="stroke:#000000;stroke-width:0.5;" x="169.361302484" xlink:href="#m177f7580d0" y="352.8"/>
      </g>
     </g>
     <g id="line2d_59">
      <g>
       <use style="stroke:#000000;stroke-width:0.5;" x="169.361302484" xlink:href="#m5284c7e2a0" y="7.2"/>
      </g>
     </g>
    </g>
    <g id="xtick_21">
     <g id="line2d_60">
      <g>
       <use style="stroke:#000000;stroke-width:0.5;" x="186.158776242" xlink:href="#m177f7580d0" y="352.8"/>
      </g>
     </g>
     <g id="line2d_61">
      <g>
       <use style="stroke:#000000;stroke-width:0.5;" x="186.158776242" xlink:href="#m5284c7e2a0" y="7.2"/>
      </g>
     </g>
    </g>
    <g id="xtick_22">
     <g id="line2d_62">
      <g>
       <use style="stroke:#000000;stroke-width:0.5;" x="208.363828726" xlink:href="#m177f7580d0" y="352.8"/>
      </g>
     </g>
     <g id="line2d_63">
      <g>
       <use style="stroke:#000000;stroke-width:0.5;" x="208.363828726" xlink:href="#m5284c7e2a0" y="7.2"/>
      </g>
     </g>
    </g>
    <g id="xtick_23">
     <g id="line2d_64">
      <g>
       <use style="stroke:#000000;stroke-width:0.5;" x="215.335410229" xlink:href="#m177f7580d0" y="352.8"/>
      </g>
     </g>
     <g id="line2d_65">
      <g>
       <use style="stroke:#000000;stroke-width:0.5;" x="215.335410229" xlink:href="#m5284c7e2a0" y="7.2"/>
      </g>
     </g>
    </g>
    <g id="xtick_24">
     <g id="line2d_66">
      <g>
       <use style="stroke:#000000;stroke-width:0.5;" x="225.161302484" xlink:href="#m177f7580d0" y="352.8"/>
      </g>
     </g>
     <g id="line2d_67">
      <g>
       <use style="stroke:#000000;stroke-width:0.5;" x="225.161302484" xlink:href="#m5284c7e2a0" y="7.2"/>
      </g>
     </g>
    </g>
    <g id="xtick_25">
     <g id="line2d_68">
      <g>
       <use style="stroke:#000000;stroke-width:0.5;" x="241.958776242" xlink:href="#m177f7580d0" y="352.8"/>
      </g>
     </g>
     <g id="line2d_69">
      <g>
       <use style="stroke:#000000;stroke-width:0.5;" x="241.958776242" xlink:href="#m5284c7e2a0" y="7.2"/>
      </g>
     </g>
    </g>
    <g id="xtick_26">
     <g id="line2d_70">
      <g>
       <use style="stroke:#000000;stroke-width:0.5;" x="275.553723758" xlink:href="#m177f7580d0" y="352.8"/>
      </g>
     </g>
     <g id="line2d_71">
      <g>
       <use style="stroke:#000000;stroke-width:0.5;" x="275.553723758" xlink:href="#m5284c7e2a0" y="7.2"/>
      </g>
     </g>
    </g>
    <g id="xtick_27">
     <g id="line2d_72">
      <g>
       <use style="stroke:#000000;stroke-width:0.5;" x="292.351197516" xlink:href="#m177f7580d0" y="352.8"/>
      </g>
     </g>
     <g id="line2d_73">
      <g>
       <use style="stroke:#000000;stroke-width:0.5;" x="292.351197516" xlink:href="#m5284c7e2a0" y="7.2"/>
      </g>
     </g>
    </g>
    <g id="xtick_28">
     <g id="line2d_74">
      <g>
       <use style="stroke:#000000;stroke-width:0.5;" x="302.177089771" xlink:href="#m177f7580d0" y="352.8"/>
      </g>
     </g>
     <g id="line2d_75">
      <g>
       <use style="stroke:#000000;stroke-width:0.5;" x="302.177089771" xlink:href="#m5284c7e2a0" y="7.2"/>
      </g>
     </g>
    </g>
    <g id="xtick_29">
     <g id="line2d_76">
      <g>
       <use style="stroke:#000000;stroke-width:0.5;" x="309.148671274" xlink:href="#m177f7580d0" y="352.8"/>
      </g>
     </g>
     <g id="line2d_77">
      <g>
       <use style="stroke:#000000;stroke-width:0.5;" x="309.148671274" xlink:href="#m5284c7e2a0" y="7.2"/>
      </g>
     </g>
    </g>
    <g id="xtick_30">
     <g id="line2d_78">
      <g>
       <use style="stroke:#000000;stroke-width:0.5;" x="331.353723758" xlink:href="#m177f7580d0" y="352.8"/>
      </g>
     </g>
     <g id="line2d_79">
      <g>
       <use style="stroke:#000000;stroke-width:0.5;" x="331.353723758" xlink:href="#m5284c7e2a0" y="7.2"/>
      </g>
     </g>
    </g>
    <g id="xtick_31">
     <g id="line2d_80">
      <g>
       <use style="stroke:#000000;stroke-width:0.5;" x="348.151197516" xlink:href="#m177f7580d0" y="352.8"/>
      </g>
     </g>
     <g id="line2d_81">
      <g>
       <use style="stroke:#000000;stroke-width:0.5;" x="348.151197516" xlink:href="#m5284c7e2a0" y="7.2"/>
      </g>
     </g>
    </g>
    <g id="xtick_32">
     <g id="line2d_82">
      <g>
       <use style="stroke:#000000;stroke-width:0.5;" x="357.977089771" xlink:href="#m177f7580d0" y="352.8"/>
      </g>
     </g>
     <g id="line2d_83">
      <g>
       <use style="stroke:#000000;stroke-width:0.5;" x="357.977089771" xlink:href="#m5284c7e2a0" y="7.2"/>
      </g>
     </g>
    </g>
    <g id="xtick_33">
     <g id="line2d_84">
      <g>
       <use style="stroke:#000000;stroke-width:0.5;" x="364.948671274" xlink:href="#m177f7580d0" y="352.8"/>
      </g>
     </g>
     <g id="line2d_85">
      <g>
       <use style="stroke:#000000;stroke-width:0.5;" x="364.948671274" xlink:href="#m5284c7e2a0" y="7.2"/>
      </g>
     </g>
    </g>
    <g id="xtick_34">
     <g id="line2d_86">
      <g>
       <use style="stroke:#000000;stroke-width:0.5;" x="387.153723758" xlink:href="#m177f7580d0" y="352.8"/>
      </g>
     </g>
     <g id="line2d_87">
      <g>
       <use style="stroke:#000000;stroke-width:0.5;" x="387.153723758" xlink:href="#m5284c7e2a0" y="7.2"/>
      </g>
     </g>
    </g>
    <g id="xtick_35">
     <g id="line2d_88">
      <g>
       <use style="stroke:#000000;stroke-width:0.5;" x="403.951197516" xlink:href="#m177f7580d0" y="352.8"/>
      </g>
     </g>
     <g id="line2d_89">
      <g>
       <use style="stroke:#000000;stroke-width:0.5;" x="403.951197516" xlink:href="#m5284c7e2a0" y="7.2"/>
      </g>
     </g>
    </g>
    <g id="xtick_36">
     <g id="line2d_90">
      <g>
       <use style="stroke:#000000;stroke-width:0.5;" x="413.777089771" xlink:href="#m177f7580d0" y="352.8"/>
      </g>
     </g>
     <g id="line2d_91">
      <g>
       <use style="stroke:#000000;stroke-width:0.5;" x="413.777089771" xlink:href="#m5284c7e2a0" y="7.2"/>
      </g>
     </g>
    </g>
    <g id="xtick_37">
     <g id="line2d_92">
      <g>
       <use style="stroke:#000000;stroke-width:0.5;" x="420.748671274" xlink:href="#m177f7580d0" y="352.8"/>
      </g>
     </g>
     <g id="line2d_93">
      <g>
       <use style="stroke:#000000;stroke-width:0.5;" x="420.748671274" xlink:href="#m5284c7e2a0" y="7.2"/>
      </g>
     </g>
    </g>
    <g id="xtick_38">
     <g id="line2d_94">
      <g>
       <use style="stroke:#000000;stroke-width:0.5;" x="442.953723758" xlink:href="#m177f7580d0" y="352.8"/>
      </g>
     </g>
     <g id="line2d_95">
      <g>
       <use style="stroke:#000000;stroke-width:0.5;" x="442.953723758" xlink:href="#m5284c7e2a0" y="7.2"/>
      </g>
     </g>
    </g>
    <g id="xtick_39">
     <g id="line2d_96">
      <g>
       <use style="stroke:#000000;stroke-width:0.5;" x="459.751197516" xlink:href="#m177f7580d0" y="352.8"/>
      </g>
     </g>
     <g id="line2d_97">
      <g>
       <use style="stroke:#000000;stroke-width:0.5;" x="459.751197516" xlink:href="#m5284c7e2a0" y="7.2"/>
      </g>
     </g>
    </g>
    <g id="xtick_40">
     <g id="line2d_98">
      <g>
       <use style="stroke:#000000;stroke-width:0.5;" x="469.577089771" xlink:href="#m177f7580d0" y="352.8"/>
      </g>
     </g>
     <g id="line2d_99">
      <g>
       <use style="stroke:#000000;stroke-width:0.5;" x="469.577089771" xlink:href="#m5284c7e2a0" y="7.2"/>
      </g>
     </g>
    </g>
    <g id="xtick_41">
     <g id="line2d_100">
      <g>
       <use style="stroke:#000000;stroke-width:0.5;" x="476.548671274" xlink:href="#m177f7580d0" y="352.8"/>
      </g>
     </g>
     <g id="line2d_101">
      <g>
       <use style="stroke:#000000;stroke-width:0.5;" x="476.548671274" xlink:href="#m5284c7e2a0" y="7.2"/>
      </g>
     </g>
    </g>
    <g id="text_10">
     <!-- log10 of FEvals ratio -->
     <defs>
      <path id="BitstreamVeraSans-Roman-20"/>
      <path d="
M41.1094 46.2969
Q39.5938 47.1719 37.8125 47.5781
Q36.0312 48 33.8906 48
Q26.2656 48 22.1875 43.0469
Q18.1094 38.0938 18.1094 28.8125
L18.1094 0
L9.07812 0
L9.07812 54.6875
L18.1094 54.6875
L18.1094 46.1875
Q20.9531 51.1719 25.4844 53.5781
Q30.0312 56 36.5312 56
Q37.4531 56 38.5781 55.875
Q39.7031 55.7656 41.0625 55.5156
z
" id="BitstreamVeraSans-Roman-72"/>
      <path d="
M30.6094 48.3906
Q23.3906 48.3906 19.1875 42.75
Q14.9844 37.1094 14.9844 27.2969
Q14.9844 17.4844 19.1562 11.8438
Q23.3438 6.20312 30.6094 6.20312
Q37.7969 6.20312 41.9844 11.8594
Q46.1875 17.5312 46.1875 27.2969
Q46.1875 37.0156 41.9844 42.7031
Q37.7969 48.3906 30.6094 48.3906
M30.6094 56
Q42.3281 56 49.0156 48.375
Q55.7188 40.7656 55.7188 27.2969
Q55.7188 13.875 49.0156 6.21875
Q42.3281 -1.42188 30.6094 -1.42188
Q18.8438 -1.42188 12.1719 6.21875
Q5.51562 13.875 5.51562 27.2969
Q5.51562 40.7656 12.1719 48.375
Q18.8438 56 30.6094 56" id="BitstreamVeraSans-Roman-6f"/>
      <path d="
M18.3125 70.2188
L18.3125 54.6875
L36.8125 54.6875
L36.8125 47.7031
L18.3125 47.7031
L18.3125 18.0156
Q18.3125 11.3281 20.1406 9.42188
Q21.9688 7.51562 27.5938 7.51562
L36.8125 7.51562
L36.8125 0
L27.5938 0
Q17.1875 0 13.2344 3.875
Q9.28125 7.76562 9.28125 18.0156
L9.28125 47.7031
L2.6875 47.7031
L2.6875 54.6875
L9.28125 54.6875
L9.28125 70.2188
z
" id="BitstreamVeraSans-Roman-74"/>
      <path d="
M9.42188 75.9844
L18.4062 75.9844
L18.4062 0
L9.42188 0
z
" id="BitstreamVeraSans-Roman-6c"/>
      <path d="
M9.8125 72.9062
L51.7031 72.9062
L51.7031 64.5938
L19.6719 64.5938
L19.6719 43.1094
L48.5781 43.1094
L48.5781 34.8125
L19.6719 34.8125
L19.6719 0
L9.8125 0
z
" id="BitstreamVeraSans-Roman-46"/>
      <path d="
M9.8125 72.9062
L55.9062 72.9062
L55.9062 64.5938
L19.6719 64.5938
L19.6719 43.0156
L54.3906 43.0156
L54.3906 34.7188
L19.6719 34.7188
L19.6719 8.29688
L56.7812 8.29688
L56.7812 0
L9.8125 0
z
" id="BitstreamVeraSans-Roman-45"/>
      <path d="
M9.42188 54.6875
L18.4062 54.6875
L18.4062 0
L9.42188 0
z

M9.42188 75.9844
L18.4062 75.9844
L18.4062 64.5938
L9.42188 64.5938
z
" id="BitstreamVeraSans-Roman-69"/>
      <path d="
M2.98438 54.6875
L12.5 54.6875
L29.5938 8.79688
L46.6875 54.6875
L56.2031 54.6875
L35.6875 0
L23.4844 0
z
" id="BitstreamVeraSans-Roman-76"/>
      <path d="
M45.4062 27.9844
Q45.4062 37.75 41.375 43.1094
Q37.3594 48.4844 30.0781 48.4844
Q22.8594 48.4844 18.8281 43.1094
Q14.7969 37.75 14.7969 27.9844
Q14.7969 18.2656 18.8281 12.8906
Q22.8594 7.51562 30.0781 7.51562
Q37.3594 7.51562 41.375 12.8906
Q45.4062 18.2656 45.4062 27.9844
M54.3906 6.78125
Q54.3906 -7.17188 48.1875 -13.9844
Q42 -20.7969 29.2031 -20.7969
Q24.4688 -20.7969 20.2656 -20.0938
Q16.0625 -19.3906 12.1094 -17.9219
L12.1094 -9.1875
Q16.0625 -11.3281 19.9219 -12.3438
Q23.7812 -13.375 27.7812 -13.375
Q36.625 -13.375 41.0156 -8.76562
Q45.4062 -4.15625 45.4062 5.17188
L45.4062 9.625
Q42.625 4.78125 38.2812 2.39062
Q33.9375 0 27.875 0
Q17.8281 0 11.6719 7.65625
Q5.51562 15.3281 5.51562 27.9844
Q5.51562 40.6719 11.6719 48.3281
Q17.8281 56 27.875 56
Q33.9375 56 38.2812 53.6094
Q42.625 51.2188 45.4062 46.3906
L45.4062 54.6875
L54.3906 54.6875
z
" id="BitstreamVeraSans-Roman-67"/>
      <path d="
M37.1094 75.9844
L37.1094 68.5
L28.5156 68.5
Q23.6875 68.5 21.7969 66.5469
Q19.9219 64.5938 19.9219 59.5156
L19.9219 54.6875
L34.7188 54.6875
L34.7188 47.7031
L19.9219 47.7031
L19.9219 0
L10.8906 0
L10.8906 47.7031
L2.29688 47.7031
L2.29688 54.6875
L10.8906 54.6875
L10.8906 58.5
Q10.8906 67.625 15.1406 71.7969
Q19.3906 75.9844 28.6094 75.9844
z
" id="BitstreamVeraSans-Roman-66"/>
      <path d="
M34.2812 27.4844
Q23.3906 27.4844 19.1875 25
Q14.9844 22.5156 14.9844 16.5
Q14.9844 11.7188 18.1406 8.90625
Q21.2969 6.10938 26.7031 6.10938
Q34.1875 6.10938 38.7031 11.4062
Q43.2188 16.7031 43.2188 25.4844
L43.2188 27.4844
z

M52.2031 31.2031
L52.2031 0
L43.2188 0
L43.2188 8.29688
Q40.1406 3.32812 35.5469 0.953125
Q30.9531 -1.42188 24.3125 -1.42188
Q15.9219 -1.42188 10.9531 3.29688
Q6 8.01562 6 15.9219
Q6 25.1406 12.1719 29.8281
Q18.3594 34.5156 30.6094 34.5156
L43.2188 34.5156
L43.2188 35.4062
Q43.2188 41.6094 39.1406 45
Q35.0625 48.3906 27.6875 48.3906
Q23 48.3906 18.5469 47.2656
Q14.1094 46.1406 10.0156 43.8906
L10.0156 52.2031
Q14.9375 54.1094 19.5781 55.0469
Q24.2188 56 28.6094 56
Q40.4844 56 46.3438 49.8438
Q52.2031 43.7031 52.2031 31.2031" id="BitstreamVeraSans-Roman-61"/>
      <path d="
M44.2812 53.0781
L44.2812 44.5781
Q40.4844 46.5312 36.375 47.5
Q32.2812 48.4844 27.875 48.4844
Q21.1875 48.4844 17.8438 46.4375
Q14.5 44.3906 14.5 40.2812
Q14.5 37.1562 16.8906 35.375
Q19.2812 33.5938 26.5156 31.9844
L29.5938 31.2969
Q39.1562 29.25 43.1875 25.5156
Q47.2188 21.7812 47.2188 15.0938
Q47.2188 7.46875 41.1875 3.01562
Q35.1562 -1.42188 24.6094 -1.42188
Q20.2188 -1.42188 15.4531 -0.5625
Q10.6875 0.296875 5.42188 2
L5.42188 11.2812
Q10.4062 8.6875 15.2344 7.39062
Q20.0625 6.10938 24.8125 6.10938
Q31.1562 6.10938 34.5625 8.28125
Q37.9844 10.4531 37.9844 14.4062
Q37.9844 18.0625 35.5156 20.0156
Q33.0625 21.9688 24.7031 23.7812
L21.5781 24.5156
Q13.2344 26.2656 9.51562 29.9062
Q5.8125 33.5469 5.8125 39.8906
Q5.8125 47.6094 11.2812 51.7969
Q16.75 56 26.8125 56
Q31.7812 56 36.1719 55.2656
Q40.5781 54.5469 44.2812 53.0781" id="BitstreamVeraSans-Roman-73"/>
     </defs>
     <g transform="translate(156.9984375 396.353125)scale(0.2 -0.2)">
      <use xlink:href="#BitstreamVeraSans-Roman-6c"/>
      <use x="27.783203125" xlink:href="#BitstreamVeraSans-Roman-6f"/>
      <use x="88.96484375" xlink:href="#BitstreamVeraSans-Roman-67"/>
      <use x="152.44140625" xlink:href="#BitstreamVeraSans-Roman-31"/>
      <use x="216.064453125" xlink:href="#BitstreamVeraSans-Roman-30"/>
      <use x="279.6875" xlink:href="#BitstreamVeraSans-Roman-20"/>
      <use x="311.474609375" xlink:href="#BitstreamVeraSans-Roman-6f"/>
      <use x="372.65625" xlink:href="#BitstreamVeraSans-Roman-66"/>
      <use x="407.861328125" xlink:href="#BitstreamVeraSans-Roman-20"/>
      <use x="439.6484375" xlink:href="#BitstreamVeraSans-Roman-46"/>
      <use x="497.16796875" xlink:href="#BitstreamVeraSans-Roman-45"/>
      <use x="560.3515625" xlink:href="#BitstreamVeraSans-Roman-76"/>
      <use x="619.53125" xlink:href="#BitstreamVeraSans-Roman-61"/>
      <use x="680.810546875" xlink:href="#BitstreamVeraSans-Roman-6c"/>
      <use x="708.59375" xlink:href="#BitstreamVeraSans-Roman-73"/>
      <use x="760.693359375" xlink:href="#BitstreamVeraSans-Roman-20"/>
      <use x="792.48046875" xlink:href="#BitstreamVeraSans-Roman-72"/>
      <use x="833.59375" xlink:href="#BitstreamVeraSans-Roman-61"/>
      <use x="894.873046875" xlink:href="#BitstreamVeraSans-Roman-74"/>
      <use x="934.08203125" xlink:href="#BitstreamVeraSans-Roman-69"/>
      <use x="961.865234375" xlink:href="#BitstreamVeraSans-Roman-6f"/>
     </g>
    </g>
   </g>
   <g id="matplotlib.axis_2">
    <g id="ytick_1">
     <g id="line2d_102">
      <path clip-path="url(#p96d9120af0)" d="
M35.5563 349.412
L481.956 349.412" style="fill:none;stroke:#000000;stroke-dasharray:1.000000,3.000000;stroke-dashoffset:0.0;stroke-width:0.5;"/>
     </g>
     <g id="line2d_103">
      <defs>
       <path d="
M0 0
L4 0" id="m728421d6d4" style="stroke:#000000;stroke-width:0.5;"/>
      </defs>
      <g>
       <use style="stroke:#000000;stroke-width:0.5;" x="35.55625" xlink:href="#m728421d6d4" y="349.411764706"/>
      </g>
     </g>
     <g id="line2d_104">
      <defs>
       <path d="
M0 0
L-4 0" id="mcb0005524f" style="stroke:#000000;stroke-width:0.5;"/>
      </defs>
      <g>
       <use style="stroke:#000000;stroke-width:0.5;" x="481.95625" xlink:href="#mcb0005524f" y="349.411764706"/>
      </g>
     </g>
    </g>
    <g id="ytick_2">
     <g id="line2d_105">
      <path clip-path="url(#p96d9120af0)" d="
M35.5563 264.706
L481.956 264.706" style="fill:none;stroke:#000000;stroke-dasharray:1.000000,3.000000;stroke-dashoffset:0.0;stroke-width:0.5;"/>
     </g>
     <g id="line2d_106">
      <g>
       <use style="stroke:#000000;stroke-width:0.5;" x="35.55625" xlink:href="#m728421d6d4" y="264.705882353"/>
      </g>
     </g>
     <g id="line2d_107">
      <g>
       <use style="stroke:#000000;stroke-width:0.5;" x="481.95625" xlink:href="#mcb0005524f" y="264.705882353"/>
      </g>
     </g>
    </g>
    <g id="ytick_3">
     <g id="line2d_108">
      <path clip-path="url(#p96d9120af0)" d="
M35.5563 180
L481.956 180" style="fill:none;stroke:#000000;stroke-dasharray:1.000000,3.000000;stroke-dashoffset:0.0;stroke-width:0.5;"/>
     </g>
     <g id="line2d_109">
      <g>
       <use style="stroke:#000000;stroke-width:0.5;" x="35.55625" xlink:href="#m728421d6d4" y="180.0"/>
      </g>
     </g>
     <g id="line2d_110">
      <g>
       <use style="stroke:#000000;stroke-width:0.5;" x="481.95625" xlink:href="#mcb0005524f" y="180.0"/>
      </g>
     </g>
    </g>
    <g id="ytick_4">
     <g id="line2d_111">
      <path clip-path="url(#p96d9120af0)" d="
M35.5563 95.2941
L481.956 95.2941" style="fill:none;stroke:#000000;stroke-dasharray:1.000000,3.000000;stroke-dashoffset:0.0;stroke-width:0.5;"/>
     </g>
     <g id="line2d_112">
      <g>
       <use style="stroke:#000000;stroke-width:0.5;" x="35.55625" xlink:href="#m728421d6d4" y="95.2941176471"/>
      </g>
     </g>
     <g id="line2d_113">
      <g>
       <use style="stroke:#000000;stroke-width:0.5;" x="481.95625" xlink:href="#mcb0005524f" y="95.2941176471"/>
      </g>
     </g>
    </g>
    <g id="ytick_5">
     <g id="line2d_114">
      <path clip-path="url(#p96d9120af0)" d="
M35.5563 10.5882
L481.956 10.5882" style="fill:none;stroke:#000000;stroke-dasharray:1.000000,3.000000;stroke-dashoffset:0.0;stroke-width:0.5;"/>
     </g>
     <g id="line2d_115">
      <g>
       <use style="stroke:#000000;stroke-width:0.5;" x="35.55625" xlink:href="#m728421d6d4" y="10.5882352941"/>
      </g>
     </g>
     <g id="line2d_116">
      <g>
       <use style="stroke:#000000;stroke-width:0.5;" x="481.95625" xlink:href="#mcb0005524f" y="10.5882352941"/>
      </g>
     </g>
    </g>
    <g id="text_11">
     <!-- proportion of trials -->
     <defs>
      <path d="
M54.8906 33.0156
L54.8906 0
L45.9062 0
L45.9062 32.7188
Q45.9062 40.4844 42.875 44.3281
Q39.8438 48.1875 33.7969 48.1875
Q26.5156 48.1875 22.3125 43.5469
Q18.1094 38.9219 18.1094 30.9062
L18.1094 0
L9.07812 0
L9.07812 54.6875
L18.1094 54.6875
L18.1094 46.1875
Q21.3438 51.125 25.7031 53.5625
Q30.0781 56 35.7969 56
Q45.2188 56 50.0469 50.1719
Q54.8906 44.3438 54.8906 33.0156" id="BitstreamVeraSans-Roman-6e"/>
      <path d="
M18.1094 8.20312
L18.1094 -20.7969
L9.07812 -20.7969
L9.07812 54.6875
L18.1094 54.6875
L18.1094 46.3906
Q20.9531 51.2656 25.2656 53.625
Q29.5938 56 35.5938 56
Q45.5625 56 51.7812 48.0938
Q58.0156 40.1875 58.0156 27.2969
Q58.0156 14.4062 51.7812 6.48438
Q45.5625 -1.42188 35.5938 -1.42188
Q29.5938 -1.42188 25.2656 0.953125
Q20.9531 3.32812 18.1094 8.20312
M48.6875 27.2969
Q48.6875 37.2031 44.6094 42.8438
Q40.5312 48.4844 33.4062 48.4844
Q26.2656 48.4844 22.1875 42.8438
Q18.1094 37.2031 18.1094 27.2969
Q18.1094 17.3906 22.1875 11.75
Q26.2656 6.10938 33.4062 6.10938
Q40.5312 6.10938 44.6094 11.75
Q48.6875 17.3906 48.6875 27.2969" id="BitstreamVeraSans-Roman-70"/>
     </defs>
     <g transform="translate(22.396875 272.51875)rotate(-90.0)scale(0.2 -0.2)">
      <use xlink:href="#BitstreamVeraSans-Roman-70"/>
      <use x="63.4765625" xlink:href="#BitstreamVeraSans-Roman-72"/>
      <use x="102.33984375" xlink:href="#BitstreamVeraSans-Roman-6f"/>
      <use x="163.521484375" xlink:href="#BitstreamVeraSans-Roman-70"/>
      <use x="226.998046875" xlink:href="#BitstreamVeraSans-Roman-6f"/>
      <use x="288.1796875" xlink:href="#BitstreamVeraSans-Roman-72"/>
      <use x="329.29296875" xlink:href="#BitstreamVeraSans-Roman-74"/>
      <use x="368.501953125" xlink:href="#BitstreamVeraSans-Roman-69"/>
      <use x="396.28515625" xlink:href="#BitstreamVeraSans-Roman-6f"/>
      <use x="457.466796875" xlink:href="#BitstreamVeraSans-Roman-6e"/>
      <use x="520.845703125" xlink:href="#BitstreamVeraSans-Roman-20"/>
      <use x="552.6328125" xlink:href="#BitstreamVeraSans-Roman-6f"/>
      <use x="613.814453125" xlink:href="#BitstreamVeraSans-Roman-66"/>
      <use x="649.01953125" xlink:href="#BitstreamVeraSans-Roman-20"/>
      <use x="680.806640625" xlink:href="#BitstreamVeraSans-Roman-74"/>
      <use x="720.015625" xlink:href="#BitstreamVeraSans-Roman-72"/>
      <use x="761.12890625" xlink:href="#BitstreamVeraSans-Roman-69"/>
      <use x="788.912109375" xlink:href="#BitstreamVeraSans-Roman-61"/>
      <use x="850.19140625" xlink:href="#BitstreamVeraSans-Roman-6c"/>
      <use x="877.974609375" xlink:href="#BitstreamVeraSans-Roman-73"/>
     </g>
    </g>
   </g>
   <g id="patch_3">
    <path d="
M35.5563 7.2
L481.956 7.2" style="fill:none;stroke:#000000;"/>
   </g>
   <g id="patch_4">
    <path d="
M481.956 352.8
L481.956 7.2" style="fill:none;stroke:#000000;"/>
   </g>
   <g id="patch_5">
    <path d="
M35.5563 352.8
L481.956 352.8" style="fill:none;stroke:#000000;"/>
   </g>
   <g id="patch_6">
    <path d="
M35.5563 352.8
L35.5563 7.2" style="fill:none;stroke:#000000;"/>
   </g>
   <g id="text_12">
    <!-- f1-f5,5-D -->
    <defs>
     <path d="
M11.7188 12.4062
L22.0156 12.4062
L22.0156 4
L14.0156 -11.625
L7.71875 -11.625
L11.7188 4
z
" id="BitstreamVeraSans-Roman-2c"/>
     <path d="
M19.6719 64.7969
L19.6719 8.10938
L31.5938 8.10938
Q46.6875 8.10938 53.6875 14.9375
Q60.6875 21.7812 60.6875 36.5312
Q60.6875 51.1719 53.6875 57.9844
Q46.6875 64.7969 31.5938 64.7969
z

M9.8125 72.9062
L30.0781 72.9062
Q51.2656 72.9062 61.1719 64.0938
Q71.0938 55.2812 71.0938 36.5312
Q71.0938 17.6719 61.125 8.82812
Q51.1719 0 30.0781 0
L9.8125 0
z
" id="BitstreamVeraSans-Roman-44"/>
     <path d="
M10.7969 72.9062
L49.5156 72.9062
L49.5156 64.5938
L19.8281 64.5938
L19.8281 46.7344
Q21.9688 47.4688 24.1094 47.8281
Q26.2656 48.1875 28.4219 48.1875
Q40.625 48.1875 47.75 41.5
Q54.8906 34.8125 54.8906 23.3906
Q54.8906 11.625 47.5625 5.09375
Q40.2344 -1.42188 26.9062 -1.42188
Q22.3125 -1.42188 17.5469 -0.640625
Q12.7969 0.140625 7.71875 1.70312
L7.71875 11.625
Q12.1094 9.23438 16.7969 8.0625
Q21.4844 6.89062 26.7031 6.89062
Q35.1562 6.89062 40.0781 11.3281
Q45.0156 15.7656 45.0156 23.3906
Q45.0156 31 40.0781 35.4375
Q35.1562 39.8906 26.7031 39.8906
Q22.75 39.8906 18.8125 39.0156
Q14.8906 38.1406 10.7969 36.2812
z
" id="BitstreamVeraSans-Roman-35"/>
    </defs>
    <g transform="translate(386.225125 345.888)scale(0.2 -0.2)">
     <use xlink:href="#BitstreamVeraSans-Roman-66"/>
     <use x="35.205078125" xlink:href="#BitstreamVeraSans-Roman-31"/>
     <use x="98.828125" xlink:href="#BitstreamVeraSans-Roman-2d"/>
     <use x="134.912109375" xlink:href="#BitstreamVeraSans-Roman-66"/>
     <use x="170.1171875" xlink:href="#BitstreamVeraSans-Roman-35"/>
     <use x="233.740234375" xlink:href="#BitstreamVeraSans-Roman-2c"/>
     <use x="265.52734375" xlink:href="#BitstreamVeraSans-Roman-35"/>
     <use x="329.150390625" xlink:href="#BitstreamVeraSans-Roman-2d"/>
     <use x="365.234375" xlink:href="#BitstreamVeraSans-Roman-44"/>
    </g>
   </g>
   <g id="text_13">
    <!-- 0.0.0 -->
    <defs>
     <path d="
M10.6875 12.4062
L21 12.4062
L21 0
L10.6875 0
z
" id="BitstreamVeraSans-Roman-2e"/>
    </defs>
    <g style="fill:#808080;" transform="translate(246.69609375 347.2643125)scale(0.1 -0.1)">
     <use xlink:href="#BitstreamVeraSans-Roman-30"/>
     <use x="63.623046875" xlink:href="#BitstreamVeraSans-Roman-2e"/>
     <use x="95.41015625" xlink:href="#BitstreamVeraSans-Roman-30"/>
     <use x="159.033203125" xlink:href="#BitstreamVeraSans-Roman-2e"/>
     <use x="190.8203125" xlink:href="#BitstreamVeraSans-Roman-30"/>
    </g>
   </g>
   <g id="legend_1">
    <g id="patch_7">
     <path d="
M45.5563 140.625
L181.175 140.625
L181.175 17.2
L45.5563 17.2
L45.5563 140.625
z
" style="fill:#ffffff;opacity:0.2;stroke:#000000;"/>
    </g>
    <g id="line2d_117">
     <path d="
M59.5563 33.3969
L87.5563 33.3969" style="fill:none;stroke:#000000;stroke-linecap:square;stroke-width:3.0;"/>
    </g>
    <g id="line2d_118"/>
    <g id="text_14">
     <!-- 1: 5/5 -->
     <defs>
      <path d="
M11.7188 12.4062
L22.0156 12.4062
L22.0156 0
L11.7188 0
z

M11.7188 51.7031
L22.0156 51.7031
L22.0156 39.3125
L11.7188 39.3125
z
" id="BitstreamVeraSans-Roman-3a"/>
      <path d="
M25.3906 72.9062
L33.6875 72.9062
L8.29688 -9.28125
L0 -9.28125
z
" id="BitstreamVeraSans-Roman-2f"/>
     </defs>
     <g transform="translate(109.55625 40.396875)scale(0.2 -0.2)">
      <use xlink:href="#BitstreamVeraSans-Roman-31"/>
      <use x="63.623046875" xlink:href="#BitstreamVeraSans-Roman-3a"/>
      <use x="97.314453125" xlink:href="#BitstreamVeraSans-Roman-20"/>
      <use x="129.1015625" xlink:href="#BitstreamVeraSans-Roman-35"/>
      <use x="192.724609375" xlink:href="#BitstreamVeraSans-Roman-2f"/>
      <use x="226.416015625" xlink:href="#BitstreamVeraSans-Roman-35"/>
     </g>
    </g>
    <g id="line2d_119">
     <path d="
M59.5563 62.7531
L87.5563 62.7531" style="fill:none;stroke:#00bfbf;stroke-linecap:square;stroke-width:3.0;"/>
    </g>
    <g id="line2d_120"/>
    <g id="text_15">
     <!-- -1: 3/3 -->
     <g transform="translate(109.55625 69.753125)scale(0.2 -0.2)">
      <use xlink:href="#BitstreamVeraSans-Roman-2d"/>
      <use x="36.083984375" xlink:href="#BitstreamVeraSans-Roman-31"/>
      <use x="99.70703125" xlink:href="#BitstreamVeraSans-Roman-3a"/>
      <use x="133.3984375" xlink:href="#BitstreamVeraSans-Roman-20"/>
      <use x="165.185546875" xlink:href="#BitstreamVeraSans-Roman-33"/>
      <use x="228.80859375" xlink:href="#BitstreamVeraSans-Roman-2f"/>
      <use x="262.5" xlink:href="#BitstreamVeraSans-Roman-33"/>
     </g>
    </g>
    <g id="line2d_121">
     <path d="
M59.5563 92.1094
L87.5563 92.1094" style="fill:none;stroke:#bf00bf;stroke-linecap:square;stroke-width:3.0;"/>
    </g>
    <g id="line2d_122"/>
    <g id="text_16">
     <!-- -4: 3/3 -->
     <g transform="translate(109.55625 99.109375)scale(0.2 -0.2)">
      <use xlink:href="#BitstreamVeraSans-Roman-2d"/>
      <use x="36.083984375" xlink:href="#BitstreamVeraSans-Roman-34"/>
      <use x="99.70703125" xlink:href="#BitstreamVeraSans-Roman-3a"/>
      <use x="133.3984375" xlink:href="#BitstreamVeraSans-Roman-20"/>
      <use x="165.185546875" xlink:href="#BitstreamVeraSans-Roman-33"/>
      <use x="228.80859375" xlink:href="#BitstreamVeraSans-Roman-2f"/>
      <use x="262.5" xlink:href="#BitstreamVeraSans-Roman-33"/>
     </g>
    </g>
    <g id="line2d_123">
     <path d="
M59.5563 121.466
L87.5563 121.466" style="fill:none;stroke:#ff0000;stroke-linecap:square;stroke-width:3.0;"/>
    </g>
    <g id="line2d_124"/>
    <g id="text_17">
     <!-- -8: 3/3 -->
     <defs>
      <path d="
M31.7812 34.625
Q24.75 34.625 20.7188 30.8594
Q16.7031 27.0938 16.7031 20.5156
Q16.7031 13.9219 20.7188 10.1562
Q24.75 6.39062 31.7812 6.39062
Q38.8125 6.39062 42.8594 10.1719
Q46.9219 13.9688 46.9219 20.5156
Q46.9219 27.0938 42.8906 30.8594
Q38.875 34.625 31.7812 34.625
M21.9219 38.8125
Q15.5781 40.375 12.0312 44.7188
Q8.5 49.0781 8.5 55.3281
Q8.5 64.0625 14.7188 69.1406
Q20.9531 74.2188 31.7812 74.2188
Q42.6719 74.2188 48.875 69.1406
Q55.0781 64.0625 55.0781 55.3281
Q55.0781 49.0781 51.5312 44.7188
Q48 40.375 41.7031 38.8125
Q48.8281 37.1562 52.7969 32.3125
Q56.7812 27.4844 56.7812 20.5156
Q56.7812 9.90625 50.3125 4.23438
Q43.8438 -1.42188 31.7812 -1.42188
Q19.7344 -1.42188 13.25 4.23438
Q6.78125 9.90625 6.78125 20.5156
Q6.78125 27.4844 10.7812 32.3125
Q14.7969 37.1562 21.9219 38.8125
M18.3125 54.3906
Q18.3125 48.7344 21.8438 45.5625
Q25.3906 42.3906 31.7812 42.3906
Q38.1406 42.3906 41.7188 45.5625
Q45.3125 48.7344 45.3125 54.3906
Q45.3125 60.0625 41.7188 63.2344
Q38.1406 66.4062 31.7812 66.4062
Q25.3906 66.4062 21.8438 63.2344
Q18.3125 60.0625 18.3125 54.3906" id="BitstreamVeraSans-Roman-38"/>
     </defs>
     <g transform="translate(109.55625 128.465625)scale(0.2 -0.2)">
      <use xlink:href="#BitstreamVeraSans-Roman-2d"/>
      <use x="36.083984375" xlink:href="#BitstreamVeraSans-Roman-38"/>
      <use x="99.70703125" xlink:href="#BitstreamVeraSans-Roman-3a"/>
      <use x="133.3984375" xlink:href="#BitstreamVeraSans-Roman-20"/>
      <use x="165.185546875" xlink:href="#BitstreamVeraSans-Roman-33"/>
      <use x="228.80859375" xlink:href="#BitstreamVeraSans-Roman-2f"/>
      <use x="262.5" xlink:href="#BitstreamVeraSans-Roman-33"/>
     </g>
    </g>
   </g>
  </g>
 </g>
 <defs>
  <clipPath id="p96d9120af0">
   <rect height="345.6" width="446.4" x="35.55625" y="7.2"/>
  </clipPath>
 </defs>
</svg>
