<?xml version="1.0" encoding="utf-8" standalone="no"?>
<!DOCTYPE svg PUBLIC "-//W3C//DTD SVG 1.1//EN"
  "http://www.w3.org/Graphics/SVG/1.1/DTD/svg11.dtd">
<!-- Created with matplotlib (http://matplotlib.org/) -->
<svg height="407pt" version="1.1" viewBox="0 0 493 407" width="493pt" xmlns="http://www.w3.org/2000/svg" xmlns:xlink="http://www.w3.org/1999/xlink">
 <defs>
  <style type="text/css">
*{stroke-linecap:butt;stroke-linejoin:round;}
  </style>
 </defs>
 <g id="figure_1">
  <g id="patch_1">
   <path d="
M0 407.712
L493.784 407.712
L493.784 0
L0 0
z
" style="fill:#ffffff;"/>
  </g>
  <g id="axes_1">
   <g id="patch_2">
    <path d="
M35.5563 352.8
L481.956 352.8
L481.956 7.2
L35.5563 7.2
z
" style="fill:#ffffff;"/>
   </g>
   <g id="line2d_1">
    <path clip-path="url(#p96d9120af0)" d="
M35.5563 344.416
L90.1206 344.416
L90.128 343.507
L90.3318 343.507
L90.4098 342.599
L91.0573 342.599
L91.0619 341.691
L91.2952 341.691
L91.2952 341.236
L91.637 341.236
L91.637 340.782
L92.0577 340.782
L92.0577 340.328
L92.247 340.328
L92.3012 339.42
L92.4689 339.42
L92.4689 338.965
L92.8499 338.965
L92.8499 338.511
L93.0689 338.511
L93.0689 338.057
L93.2369 338.057
L93.2369 337.603
L93.4974 337.603
L93.4974 337.149
L93.7061 337.149
L93.7998 336.24
L94.1889 336.24
L94.2125 335.332
L94.649 335.332
L94.6827 334.424
L94.9194 334.424
L94.9194 333.969
L95.3748 333.969
L95.3748 333.515
L95.5153 333.515
L95.5541 332.607
L97.0317 332.607
L97.0317 332.153
L99.6845 332.153
L99.6845 331.698
L103.462 331.698
L103.462 331.244
L126 331.244
L126.007 330.336
L127.516 330.336
L127.516 329.882
L128.126 329.882
L128.181 328.973
L129.116 328.973
L129.116 328.519
L129.377 328.519
L129.377 328.065
L129.586 328.065
L129.679 327.157
L130.068 327.157
L130.068 326.702
L130.528 326.702
L130.562 325.794
L130.781 325.794
L130.781 325.34
L131.434 325.34
L131.434 324.886
L132.911 324.886
L132.911 324.431
L135.564 324.431
L135.564 323.977
L147.167 323.977
L147.245 323.069
L147.892 323.069
L147.897 322.161
L148.13 322.161
L148.13 321.706
L148.893 321.706
L148.893 321.252
L149.304 321.252
L149.304 320.798
L149.685 320.798
L149.685 320.344
L149.904 320.344
L149.904 319.89
L151.048 319.89
L151.048 319.435
L151.754 319.435
L151.754 318.981
L152.21 318.981
L152.21 318.527
L152.35 318.527
L152.35 318.073
L156.936 318.073
L157.01 316.256
L158.453 316.256
L158.518 315.348
L159.063 315.348
L159.129 313.985
L159.183 313.985
L159.183 313.531
L160.053 313.531
L160.118 312.623
L160.297 312.623
L160.379 311.26
L160.522 311.26
L160.616 309.897
L160.681 309.897
L160.681 309.443
L161.005 309.443
L161.07 308.535
L161.465 308.535
L161.564 306.718
L162.37 306.718
L162.436 305.81
L163.847 305.81
L163.913 304.901
L166.5 304.901
L166.566 303.993
L168.581 303.993
L168.581 303.539
L169.956 303.539
L169.956 303.085
L170.589 303.085
L170.589 302.63
L172.554 302.63
L172.554 302.176
L187.616 302.176
L187.616 301.722
L212.079 301.722
L212.079 301.268
L217.593 301.268
L217.593 300.814
L231.731 300.814
L231.731 300.36
L235.452 300.36
L235.452 299.905
L237.244 299.905
L237.244 299.451
L238.203 299.451
L238.203 298.997
L240.454 298.997
L240.454 298.543
L240.643 298.543
L240.724 297.634
L240.966 297.634
L240.966 297.18
L241.674 297.18
L241.674 296.726
L243.384 296.726
L243.384 296.272
L245.967 296.272
L245.967 295.818
L246.157 295.818
L246.157 295.364
L247.02 295.364
L247.02 294.909
L251.775 294.909
L251.775 294.455
L252.534 294.455
L252.534 294.001
L255.14 294.001
L255.14 293.093
L255.458 293.093
L255.458 292.638
L256.215 292.638
L256.215 292.184
L257.855 292.184
L257.855 291.73
L259.791 291.73
L259.791 291.276
L260.376 291.276
L260.376 290.822
L261.326 290.822
L261.326 290.367
L261.576 290.367
L261.576 289.913
L261.729 289.913
L261.729 289.459
L263.036 289.459
L263.036 289.005
L264.097 289.005
L264.097 288.551
L265.048 288.551
L265.048 288.097
L266.339 288.097
L266.339 287.642
L266.577 287.642
L266.577 287.188
L266.757 287.188
L266.767 286.28
L267.332 286.28
L267.332 285.826
L267.73 285.826
L267.73 285.371
L269.099 285.371
L269.099 284.917
L269.258 284.917
L269.288 284.009
L269.987 284.009
L270.049 283.1
L270.239 283.1
L270.239 282.646
L271.11 282.646
L271.11 282.192
L271.427 282.192
L271.427 281.738
L271.612 281.738
L271.612 281.284
L271.758 281.284
L271.853 280.375
L271.948 280.375
L271.948 279.921
L272.845 279.921
L272.845 279.467
L273.144 279.467
L273.144 279.013
L274.771 279.013
L274.792 277.65
L275.11 277.65
L275.149 276.742
L275.5 276.742
L275.5 276.288
L275.665 276.288
L275.665 275.833
L276.616 275.833
L276.624 274.925
L277.126 274.925
L277.126 274.471
L278.325 274.471
L278.325 274.017
L278.514 274.017
L278.514 273.108
L278.831 273.108
L278.831 272.654
L279.443 272.654
L279.443 272.2
L280.15 272.2
L280.15 271.746
L280.339 271.746
L280.339 271.292
L282.339 271.292
L282.339 270.837
L283.165 270.837
L283.165 270.383
L283.515 270.383
L283.515 269.475
L283.704 269.475
L283.704 268.566
L283.832 268.566
L283.832 268.112
L284.022 268.112
L284.022 267.658
L284.86 267.658
L284.86 267.204
L285.811 267.204
L285.811 266.75
L286.716 266.75
L286.716 266.296
L287.381 266.296
L287.381 265.841
L287.52 265.841
L287.52 265.387
L288.166 265.387
L288.276 264.479
L288.355 264.479
L288.355 264.025
L289.053 264.025
L289.053 263.57
L290.081 263.57
L290.081 262.662
L290.399 262.662
L290.399 262.208
L291.103 262.208
L291.103 261.754
L292.463 261.754
L292.463 261.299
L293.455 261.299
L293.455 260.845
L293.79 260.845
L293.79 260.391
L294.733 260.391
L294.733 259.937
L294.984 259.937
L294.984 259.483
L295.162 259.483
L295.162 259.029
L295.381 259.029
L295.381 258.574
L295.911 258.574
L295.977 257.212
L296.104 257.212
L296.11 256.303
L296.294 256.303
L296.294 255.849
L296.927 255.849
L296.927 255.395
L297.234 255.395
L297.234 254.941
L297.594 254.941
L297.644 254.032
L297.736 254.032
L297.736 253.578
L297.903 253.578
L297.903 253.124
L298.632 253.124
L298.636 252.216
L298.853 252.216
L298.921 251.307
L299.276 251.307
L299.276 250.399
L299.582 250.399
L299.594 249.491
L299.755 249.491
L299.755 249.036
L300.257 249.036
L300.257 248.582
L300.562 248.582
L300.562 248.128
L300.706 248.128
L300.706 247.674
L301.208 247.674
L301.291 246.765
L302.415 246.765
L302.415 246.311
L302.671 246.311
L302.671 245.857
L302.917 245.857
L302.917 245.403
L303.108 245.403
L303.108 244.949
L303.927 244.949
L303.927 244.495
L306.035 244.495
L306.035 244.04
L307.028 244.04
L307.028 243.586
L308.705 243.586
L308.705 243.132
L308.954 243.132
L308.954 242.678
L309.4 242.678
L309.4 241.769
L309.683 241.769
L309.718 240.861
L310.393 240.861
L310.393 239.953
L310.71 239.953
L310.806 239.044
L311.308 239.044
L311.308 238.59
L311.866 238.59
L311.866 238.136
L312.319 238.136
L312.426 236.773
L312.637 236.773
L312.637 236.319
L313.048 236.319
L313.048 235.411
L313.365 235.411
L313.365 234.957
L314.051 234.957
L314.051 234.502
L314.171 234.502
L314.171 233.594
L314.4 233.594
L314.489 232.686
L314.673 232.686
L314.673 231.777
L314.813 231.777
L314.813 231.323
L314.991 231.323
L315.044 230.415
L316.921 230.415
L316.97 229.506
L317.427 229.506
L317.427 229.052
L317.617 229.052
L317.699 228.144
L317.871 228.144
L317.871 227.69
L318.535 227.69
L318.573 226.781
L318.822 226.781
L318.822 226.327
L319.325 226.327
L319.325 225.873
L319.581 225.873
L319.581 225.419
L321.99 225.419
L321.99 224.965
L322.294 224.965
L322.294 224.51
L322.982 224.51
L322.982 224.056
L323.536 224.056
L323.536 223.602
L323.718 223.602
L323.726 222.694
L323.994 222.694
L323.994 222.239
L324.908 222.239
L324.908 221.785
L325.637 221.785
L325.637 221.331
L326.239 221.331
L326.239 220.877
L326.761 220.877
L326.761 220.423
L327.19 220.423
L327.295 219.06
L327.485 219.06
L327.485 218.606
L327.972 218.606
L327.972 218.152
L328.899 218.152
L328.899 217.698
L330.103 217.698
L330.103 217.243
L331.337 217.243
L331.337 216.335
L331.655 216.335
L331.655 215.881
L333.189 215.881
L333.189 215.427
L333.862 215.427
L333.862 214.972
L335.988 214.972
L335.988 214.518
L337.29 214.518
L337.29 214.064
L339.298 214.064
L339.298 213.61
L340.655 213.61
L340.655 212.701
L340.973 212.701
L340.973 212.247
L343.057 212.247
L343.057 211.793
L343.313 211.793
L343.313 211.339
L343.926 211.339
L343.926 210.885
L344.305 210.885
L344.305 210.431
L345.306 210.431
L345.306 209.976
L346.231 209.976
L346.231 209.522
L346.96 209.522
L346.96 209.068
L348.084 209.068
L348.084 208.614
L348.586 208.614
L348.586 208.16
L349.422 208.16
L349.422 207.705
L350.414 207.705
L350.414 207.251
L352.34 207.251
L352.34 206.797
L353.069 206.797
L353.069 206.343
L353.181 206.343
L353.245 205.434
L354.173 205.434
L354.193 204.526
L354.695 204.526
L354.695 204.072
L356.099 204.072
L356.099 203.618
L356.828 203.618
L356.828 203.164
L357.952 203.164
L357.952 202.709
L358.454 202.709
L358.454 202.255
L365.25 202.255
L365.25 201.801
L371.359 201.801
L371.359 201.347
L374.568 201.347
L374.568 200.893
L375.118 200.893
L375.118 200.438
L376.29 200.438
L376.297 199.53
L377.388 199.53
L377.396 198.622
L377.806 198.622
L377.806 198.167
L377.99 198.167
L377.998 197.259
L378.416 197.259
L378.47 196.351
L378.717 196.351
L378.724 195.442
L378.905 195.442
L378.905 194.988
L379.406 194.988
L379.515 193.626
L379.569 193.626
L379.666 192.717
L379.753 192.717
L379.76 191.809
L379.875 191.809
L379.969 190.9
L380.117 190.9
L380.171 189.992
L380.233 189.992
L380.332 188.63
L380.358 188.63
L380.358 188.175
L380.505 188.175
L380.505 187.721
L380.677 187.721
L380.765 186.813
L380.818 186.813
L380.898 184.996
L380.974 184.996
L381.068 184.088
L381.107 184.088
L381.107 183.633
L381.269 183.633
L381.367 182.725
L381.457 182.725
L381.457 182.271
L381.576 182.271
L381.67 181.363
L381.723 181.363
L381.833 180.454
L381.841 180.454
L381.95 178.183
L382.059 178.183
L382.152 176.367
L382.303 176.367
L382.396 175.458
L382.451 175.458
L382.552 173.641
L382.785 173.641
L382.869 172.279
L383.13 172.279
L383.201 171.37
L383.245 171.37
L383.339 170.008
L383.424 170.008
L383.441 168.645
L383.661 168.645
L383.702 167.737
L383.821 167.737
L383.91 166.829
L384.004 166.829
L384.004 166.374
L384.151 166.374
L384.151 165.92
L384.271 165.92
L384.325 163.649
L384.393 163.649
L384.503 161.833
L384.853 161.833
L384.901 160.47
L385.187 160.47
L385.261 159.562
L385.361 159.562
L385.368 158.653
L385.521 158.653
L385.628 157.745
L385.73 157.745
L385.824 156.382
L385.854 156.382
L385.854 155.928
L386.012 155.928
L386.012 155.474
L386.14 155.474
L386.213 154.111
L386.622 154.111
L386.707 151.84
L386.877 151.84
L386.952 150.024
L387.236 150.024
L387.236 149.569
L387.487 149.569
L387.585 147.299
L387.612 147.299
L387.663 145.936
L387.808 145.936
L387.886 144.573
L388.081 144.573
L388.175 143.665
L388.266 143.665
L388.32 141.394
L388.447 141.394
L388.548 139.123
L388.564 139.123
L388.653 137.761
L388.738 137.761
L388.772 136.852
L388.946 136.852
L389.057 134.127
L389.112 134.127
L389.112 133.673
L389.256 133.673
L389.317 131.402
L389.429 131.402
L389.539 129.585
L389.722 129.585
L389.827 127.314
L389.889 127.314
L389.945 125.043
L390.047 125.043
L390.103 124.135
L390.208 124.135
L390.308 122.772
L390.322 122.772
L390.326 121.864
L390.475 121.864
L390.545 120.047
L390.61 120.047
L390.713 117.776
L390.762 117.776
L390.84 116.414
L390.999 116.414
L391.094 115.505
L391.313 115.505
L391.406 114.597
L391.433 114.597
L391.511 110.509
L391.573 110.509
L391.65 109.147
L391.689 109.147
L391.728 107.33
L391.887 107.33
L391.887 106.876
L392.158 106.876
L392.268 104.151
L392.272 104.151
L392.38 102.334
L392.396 102.334
L392.488 99.6089
L392.614 99.6089
L392.628 98.7005
L392.753 98.7005
L392.851 96.8838
L392.899 96.8838
L392.992 95.9754
L393.051 95.9754
L393.159 95.067
L393.163 95.067
L393.231 94.1587
L393.28 94.1587
L393.376 93.2503
L393.479 93.2503
L393.57 91.4335
L393.618 91.4335
L393.717 89.6168
L393.759 89.6168
L393.842 87.8
L393.884 87.8
L393.951 86.8917
L394.023 86.8917
L394.059 85.9833
L394.169 85.9833
L394.242 84.6207
L394.337 84.6207
L394.387 83.7123
L394.479 83.7123
L394.536 82.3498
L394.643 82.3498
L394.643 81.8956
L394.769 81.8956
L394.792 80.9872
L394.89 80.9872
L394.986 79.1705
L395.064 79.1705
L395.064 78.7163
L395.271 78.7163
L395.35 75.9912
L395.386 75.9912
L395.49 74.6286
L395.531 74.6286
L395.532 73.7202
L395.704 73.7202
L395.805 71.9035
L395.943 71.9035
L396.05 68.7242
L396.054 68.7242
L396.093 67.8158
L396.235 67.8158
L396.324 65.9991
L396.476 65.9991
L396.548 64.1823
L396.616 64.1823
L396.712 61.9114
L396.834 61.9114
L396.834 61.4572
L396.998 61.4572
L397.05 60.5488
L397.123 60.5488
L397.123 60.0946
L397.341 60.0946
L397.409 59.1862
L397.461 59.1862
L397.504 58.2779
L397.687 58.2779
L397.796 56.4611
L397.842 56.4611
L397.937 55.5528
L398.009 55.5528
L398.061 54.6444
L398.394 54.6444
L398.394 54.1902
L398.849 54.1902
L398.866 53.2818
L398.989 53.2818
L398.989 52.8276
L399.153 52.8276
L399.205 51.9193
L399.573 51.9193
L399.573 51.4651
L399.86 51.4651
L399.912 50.5567
L400.029 50.5567
L400.029 50.1025
L400.169 50.1025
L400.169 49.6483
L400.315 49.6483
L400.367 48.7399
L400.456 48.7399
L400.508 47.8316
L400.715 47.8316
L400.715 47.3774
L400.938 47.3774
L400.938 46.9232
L401.705 46.9232
L401.705 46.469
L402.879 46.469
L402.879 46.0148
L403.892 46.0148
L403.892 45.5606
L404.563 45.5606
L404.635 44.6523
L404.78 44.6523
L404.78 44.1981
L405.883 44.1981
L405.883 43.7439
L406.936 43.7439
L406.936 43.2897
L408.115 43.2897
L408.115 42.8355
L408.402 42.8355
L408.454 41.9271
L428.034 41.9271
L428.034 41.473
L428.258 41.473
L428.258 41.0188
L429.025 41.0188
L429.025 40.5646
L430.199 40.5646
L430.199 40.1104
L431.211 40.1104
L431.211 39.6562
L431.882 39.6562
L431.955 38.7478
L432.1 38.7478
L432.1 38.2936
L433.203 38.2936
L433.203 37.8395
L434.255 37.8395
L434.255 37.3853
L435.435 37.3853
L435.435 36.9311
L435.721 36.9311
L435.774 36.0227
L481.956 36.0227
L481.956 36.0227" style="fill:none;stroke:#000000;stroke-linecap:square;stroke-width:3.0;"/>
   </g>
   <g id="line2d_2"/>
   <g id="line2d_3">
    <path clip-path="url(#p96d9120af0)" d="
M35.5563 232.893
L74.2203 232.893
L74.2203 232.382
L75.3432 232.382
L75.3467 231.36
L75.762 231.36
L75.762 230.849
L76.8301 230.849
L76.8301 230.338
L78.0667 230.338
L78.0667 229.827
L78.1889 229.827
L78.1889 229.316
L79.3118 229.316
L79.3153 228.294
L79.7306 228.294
L79.7306 227.783
L80.7987 227.783
L80.7987 227.272
L80.9615 227.272
L80.9615 226.761
L81.976 226.761
L82.0353 225.739
L83.099 225.739
L83.1024 224.717
L83.5177 224.717
L83.5177 224.205
L84.5858 224.205
L84.5858 223.694
L84.9301 223.694
L84.9301 223.183
L85.8225 223.183
L85.8225 222.672
L88.7172 222.672
L88.7172 222.161
L102.978 222.161
L102.978 221.65
L103.321 221.65
L103.321 221.139
L104.625 221.139
L104.625 220.628
L104.968 220.628
L104.968 220.117
L116.435 220.117
L116.435 219.606
L117.558 219.606
L117.562 218.584
L117.977 218.584
L117.977 218.073
L119.045 218.073
L119.045 217.562
L120.282 217.562
L120.282 217.051
L123.176 217.051
L123.176 216.54
L131.666 216.54
L131.726 215.518
L132.513 215.518
L132.513 215.007
L132.885 215.007
L132.885 214.496
L133.018 214.496
L133.018 213.985
L133.248 213.985
L133.313 212.962
L133.372 212.962
L133.372 212.451
L133.593 212.451
L133.593 211.94
L133.71 211.94
L133.71 211.429
L134.16 211.429
L134.16 210.918
L134.531 210.918
L134.587 209.896
L134.665 209.896
L134.757 208.874
L134.895 208.874
L134.895 208.363
L135.24 208.363
L135.24 207.852
L135.357 207.852
L135.401 206.83
L136.158 206.83
L136.158 206.319
L136.404 206.319
L136.404 205.808
L137.048 205.808
L137.048 205.297
L138.367 205.297
L138.367 204.786
L138.556 204.786
L138.556 204.275
L140.014 204.275
L140.014 203.764
L140.126 203.764
L140.126 203.253
L142.343 203.253
L142.343 202.742
L143.913 202.742
L143.913 202.231
L173.669 202.231
L173.669 201.719
L174.293 201.719
L174.293 201.208
L175.316 201.208
L175.316 200.697
L175.94 200.697
L175.94 200.186
L176.802 200.186
L176.802 199.675
L178.372 199.675
L178.372 199.164
L190.886 199.164
L190.886 198.653
L192.009 198.653
L192.013 197.631
L192.39 197.631
L192.428 196.609
L193.496 196.609
L193.517 195.076
L193.932 195.076
L193.932 194.565
L194.733 194.565
L194.733 194.054
L195 194.054
L195 193.543
L196.237 193.543
L196.237 193.032
L196.417 193.032
L196.417 192.521
L197.54 192.521
L197.628 190.987
L197.958 190.987
L197.958 190.476
L199.027 190.476
L199.132 189.454
L200.263 189.454
L200.263 188.943
L203.158 188.943
L203.158 188.432
L251.253 188.432
L251.253 187.921
L252.757 187.921
L252.824 186.899
L254.328 186.899
L254.328 186.388
L256.784 186.388
L256.784 185.877
L258.354 185.877
L258.354 185.366
L361.76 185.366
L361.76 184.855
L362.282 184.855
L362.282 184.344
L364.343 184.344
L364.343 183.833
L366.45 183.833
L366.55 182.3
L366.761 182.3
L366.838 181.278
L366.972 181.278
L367.071 179.744
L367.283 179.744
L367.36 178.722
L367.654 178.722
L367.744 177.7
L368.013 177.7
L368.013 177.189
L368.535 177.189
L368.535 176.678
L369.033 176.678
L369.132 175.145
L369.344 175.145
L369.421 174.123
L369.478 174.123
L369.478 173.612
L369.632 173.612
L369.677 172.59
L370 172.59
L370 172.079
L370.199 172.079
L370.199 171.568
L370.388 171.568
L370.388 171.057
L370.516 171.057
L370.596 170.035
L370.869 170.035
L370.91 169.013
L371.037 169.013
L371.037 168.501
L371.278 168.501
L371.278 167.99
L371.402 167.99
L371.402 167.479
L371.714 167.479
L371.799 166.457
L371.985 166.457
L372.061 164.924
L372.236 164.924
L372.344 163.391
L372.413 163.391
L372.507 160.836
L372.533 160.836
L372.533 160.325
L372.654 160.325
L372.745 158.792
L372.822 158.792
L372.822 158.281
L372.971 158.281
L372.971 157.769
L373.098 157.769
L373.098 157.258
L373.356 157.258
L373.356 156.747
L373.86 156.747
L373.906 155.214
L373.997 155.214
L374.055 154.192
L374.297 154.192
L374.392 152.659
L374.422 152.659
L374.422 152.148
L374.568 152.148
L374.633 151.126
L374.71 151.126
L374.71 150.615
L375.042 150.615
L375.042 150.104
L375.372 150.104
L375.462 149.082
L375.559 149.082
L375.661 146.526
L375.87 146.526
L375.947 144.482
L376.092 144.482
L376.191 142.949
L376.282 142.949
L376.372 141.927
L376.403 141.927
L376.5 139.883
L376.68 139.883
L376.779 138.35
L376.991 138.35
L377.068 137.328
L377.122 137.328
L377.171 136.306
L377.262 136.306
L377.35 135.283
L377.52 135.283
L377.608 133.75
L377.655 133.75
L377.698 132.728
L377.879 132.728
L377.969 131.706
L378.243 131.706
L378.26 130.684
L378.388 130.684
L378.388 130.173
L378.587 130.173
L378.587 129.662
L378.745 129.662
L378.844 127.618
L379.055 127.618
L379.15 125.574
L379.249 125.574
L379.339 124.04
L379.497 124.04
L379.587 123.018
L379.625 123.018
L379.732 121.485
L379.802 121.485
L379.907 119.441
L380.015 119.441
L380.12 117.397
L380.157 117.397
L380.157 116.886
L380.308 116.886
L380.387 115.864
L380.541 115.864
L380.618 114.842
L380.746 114.842
L380.823 113.82
L380.919 113.82
L380.919 113.308
L381.094 113.308
L381.094 112.797
L381.228 112.797
L381.295 111.775
L381.356 111.775
L381.356 111.264
L381.507 111.264
L381.507 110.753
L381.627 110.753
L381.627 110.242
L381.773 110.242
L381.773 109.731
L381.944 109.731
L381.972 108.709
L382.21 108.709
L382.31 106.665
L382.464 106.665
L382.521 105.643
L382.598 105.643
L382.683 104.621
L382.76 104.621
L382.81 103.599
L382.959 103.599
L382.997 102.577
L383.45 102.577
L383.45 102.065
L383.572 102.065
L383.67 100.532
L383.773 100.532
L383.798 99.5102
L384.009 99.5102
L384.009 98.9992
L384.28 98.9992
L384.28 98.4882
L384.56 98.4882
L384.56 97.9771
L384.705 97.9771
L384.804 96.444
L384.997 96.444
L385.093 94.9108
L385.232 94.9108
L385.331 92.3556
L385.437 92.3556
L385.542 91.3335
L385.619 91.3335
L385.65 90.3114
L386.148 90.3114
L386.148 89.8004
L386.268 89.8004
L386.276 88.7783
L386.638 88.7783
L386.638 88.2672
L386.794 88.2672
L386.794 87.7562
L387.038 87.7562
L387.038 87.2451
L387.474 87.2451
L387.474 86.7341
L387.733 86.7341
L387.745 85.712
L387.932 85.712
L387.932 85.201
L388.14 85.201
L388.24 83.6678
L388.259 83.6678
L388.259 83.1568
L388.429 83.1568
L388.528 81.1126
L388.643 81.1126
L388.643 80.6015
L388.771 80.6015
L388.772 79.5795
L389.116 79.5795
L389.17 78.5574
L389.297 78.5574
L389.297 78.0463
L389.532 78.0463
L389.532 77.5353
L389.703 77.5353
L389.703 77.0242
L389.969 77.0242
L390.059 76.0021
L390.123 76.0021
L390.123 75.4911
L390.24 75.4911
L390.24 74.98
L390.496 74.98
L390.496 74.469
L390.767 74.469
L390.767 73.9579
L391.168 73.9579
L391.25 72.4248
L391.367 72.4248
L391.367 71.9138
L391.61 71.9138
L391.665 70.8917
L392.078 70.8917
L392.137 69.8696
L392.206 69.8696
L392.206 69.3585
L392.733 69.3585
L392.733 68.8475
L392.968 68.8475
L392.968 68.3364
L393.405 68.3364
L393.405 67.8254
L393.676 67.8254
L393.676 67.3143
L393.97 67.3143
L393.97 66.8033
L395.046 66.8033
L395.046 66.2923
L396.287 66.2923
L396.287 65.7812
L396.63 65.7812
L396.63 65.2702
L396.865 65.2702
L396.865 64.7591
L417.117 64.7591
L417.177 63.737
L417.964 63.737
L417.964 63.226
L418.336 63.226
L418.336 62.7149
L418.469 62.7149
L418.469 62.2039
L418.699 62.2039
L418.699 61.6928
L419.044 61.6928
L419.044 61.1818
L419.161 61.1818
L419.161 60.6707
L420.208 60.6707
L420.208 60.1597
L420.852 60.1597
L420.852 59.6487
L423.818 59.6487
L423.818 59.1376
L424.975 59.1376
L425.035 58.1155
L425.822 58.1155
L425.822 57.6045
L426.194 57.6045
L426.194 57.0934
L426.327 57.0934
L426.327 56.5824
L426.557 56.5824
L426.557 56.0713
L426.902 56.0713
L426.902 55.5603
L427.019 55.5603
L427.019 55.0492
L428.066 55.0492
L428.066 54.5382
L428.71 54.5382
L428.71 54.0271
L431.676 54.0271
L431.676 53.5161
L450.49 53.5161
L450.49 53.0051
L452.061 53.0051
L452.061 52.494
L459.12 52.494
L459.12 51.983
L459.744 51.983
L459.744 51.4719
L466.978 51.4719
L466.978 50.9609
L467.602 50.9609
L467.602 50.4498
L481.956 50.4498
L481.956 50.4498" style="fill:none;stroke:#00bfbf;stroke-linecap:square;stroke-width:3.0;"/>
   </g>
   <g id="line2d_4"/>
   <g id="line2d_5">
    <path clip-path="url(#p96d9120af0)" d="
M35.5563 304.744
L139.138 304.744
L139.138 303.654
L141.225 303.654
L141.225 302.565
L287.277 302.565
L287.277 301.475
L291.013 301.475
L291.013 300.386
L292.196 300.386
L292.196 299.296
L292.686 299.296
L292.686 298.207
L294.112 298.207
L294.144 296.028
L294.9 296.028
L294.9 294.939
L295.129 294.939
L295.129 293.849
L295.355 293.849
L295.355 292.76
L295.58 292.76
L295.59 290.581
L295.932 290.581
L295.932 289.491
L296.737 289.491
L296.762 287.312
L297.079 287.312
L297.079 286.223
L297.605 286.223
L297.605 285.133
L297.723 285.133
L297.723 284.044
L297.848 284.044
L297.848 282.954
L298.074 282.954
L298.074 281.865
L298.425 281.865
L298.425 280.775
L299.063 280.775
L299.091 278.597
L299.336 278.597
L299.336 277.507
L299.521 277.507
L299.521 276.418
L299.819 276.418
L299.819 275.328
L300.047 275.328
L300.047 274.239
L300.498 274.239
L300.508 272.06
L300.764 272.06
L300.814 268.791
L300.979 268.791
L300.979 267.702
L301.3 267.702
L301.3 266.612
L301.655 266.612
L301.735 263.344
L301.81 263.344
L301.81 262.255
L301.964 262.255
L301.964 261.165
L302.222 261.165
L302.222 260.076
L302.414 260.076
L302.488 256.807
L302.537 256.807
L302.641 254.628
L302.978 254.628
L302.978 253.539
L303.207 253.539
L303.207 251.36
L303.344 251.36
L303.344 250.27
L303.467 250.27
L303.572 247.002
L303.597 247.002
L303.668 243.734
L303.946 243.734
L303.946 242.644
L304.255 242.644
L304.255 241.555
L304.54 241.555
L304.557 239.376
L304.702 239.376
L304.702 238.286
L304.815 238.286
L304.84 236.107
L304.93 236.107
L304.941 233.929
L305.26 233.929
L305.26 232.839
L305.381 232.839
L305.391 230.66
L305.697 230.66
L305.801 228.481
L305.926 228.481
L305.926 227.392
L306.171 227.392
L306.272 223.034
L306.376 223.034
L306.386 220.855
L306.503 220.855
L306.563 217.587
L306.787 217.587
L306.787 216.497
L307.203 216.497
L307.297 214.318
L307.414 214.318
L307.524 212.139
L307.534 212.139
L307.558 209.96
L307.671 209.96
L307.671 208.871
L307.946 208.871
L307.946 207.781
L308.125 207.781
L308.227 204.513
L308.427 204.513
L308.519 202.334
L308.655 202.334
L308.655 201.245
L308.876 201.245
L308.876 200.155
L309.106 200.155
L309.138 196.887
L309.222 196.887
L309.222 195.797
L309.378 195.797
L309.404 193.618
L310.041 193.618
L310.133 191.439
L310.16 191.439
L310.263 189.26
L310.288 189.26
L310.388 184.903
L310.523 184.903
L310.523 183.813
L310.839 183.813
L310.849 181.634
L311.033 181.634
L311.101 178.366
L311.249 178.366
L311.319 175.097
L311.769 175.097
L311.779 172.918
L311.952 172.918
L312.021 169.65
L312.096 169.65
L312.196 167.471
L312.706 167.471
L312.706 166.382
L312.863 166.382
L312.952 163.113
L312.982 163.113
L313.008 160.934
L313.654 160.934
L313.685 158.755
L313.912 158.755
L314.003 156.577
L314.088 156.577
L314.164 154.398
L314.41 154.398
L314.41 153.308
L314.595 153.308
L314.639 150.04
L314.826 150.04
L314.92 147.861
L315.09 147.861
L315.149 144.592
L315.526 144.592
L315.609 141.324
L315.761 141.324
L315.761 140.235
L316.247 140.235
L316.272 138.056
L316.559 138.056
L316.559 136.966
L316.733 136.966
L316.781 133.698
L317.219 133.698
L317.233 131.519
L317.489 131.519
L317.489 130.429
L317.742 130.429
L317.742 129.34
L317.935 129.34
L317.975 127.161
L318.204 127.161
L318.204 126.071
L318.445 126.071
L318.466 123.893
L318.654 123.893
L318.664 121.714
L318.846 121.714
L318.846 120.624
L319.356 120.624
L319.396 118.445
L319.812 118.445
L319.837 116.266
L320.797 116.266
L320.81 114.087
L321.319 114.087
L321.319 112.998
L321.5 112.998
L321.5 111.908
L322.411 111.908
L322.411 110.819
L322.717 110.819
L322.717 109.73
L323.226 109.73
L323.226 108.64
L324.374 108.64
L324.374 107.551
L326.281 107.551
L326.281 106.461
L332.632 106.461
L332.632 105.372
L335.325 105.372
L335.325 104.282
L336.368 104.282
L336.368 103.193
L338.041 103.193
L338.041 102.103
L339.061 102.103
L339.061 101.014
L339.499 101.014
L339.499 99.9243
L340.255 99.9243
L340.255 98.8349
L340.484 98.8349
L340.484 97.7454
L340.734 97.7454
L340.734 96.6559
L340.935 96.6559
L340.945 94.477
L342.092 94.477
L342.192 91.2086
L342.948 91.2086
L342.948 90.1192
L343.077 90.1192
L343.176 87.9402
L343.627 87.9402
L343.637 85.7613
L343.78 85.7613
L343.78 84.6718
L344.691 84.6718
L344.784 82.4929
L344.809 82.4929
L344.809 81.4034
L345.77 81.4034
L345.77 80.314
L346.473 80.314
L346.473 79.2245
L346.654 79.2245
L346.654 78.135
L347.384 78.135
L347.384 77.0456
L348.561 77.0456
L348.561 75.9561
L349.347 75.9561
L349.347 74.8667
L351.254 74.8667
L351.254 73.7772
L356.579 73.7772
L356.579 72.6877
L356.747 72.6877
L356.747 71.5983
L358.665 71.5983
L358.665 70.5088
L360.483 70.5088
L360.483 69.4193
L362.156 69.4193
L362.156 68.3299
L363.614 68.3299
L363.614 67.2404
L364.37 67.2404
L364.37 66.1509
L364.599 66.1509
L364.599 65.0615
L365.05 65.0615
L365.06 62.8825
L366.207 62.8825
L366.232 60.7036
L367.193 60.7036
L367.193 59.6141
L367.895 59.6141
L367.895 58.5247
L368.806 58.5247
L368.806 57.4352
L370.77 57.4352
L370.77 56.3458
L372.676 56.3458
L372.676 55.2563
L481.956 55.2563
L481.956 55.2563" style="fill:none;stroke:#bf00bf;stroke-linecap:square;stroke-width:3.0;"/>
   </g>
   <g id="line2d_6"/>
   <g id="line2d_7">
    <path clip-path="url(#p96d9120af0)" d="
M40.0203 349.412
L35.5563 349.412
L481.956 349.412
L494.784 349.412" style="fill:none;stroke:#ff0000;stroke-linecap:square;stroke-width:3.0;"/>
   </g>
   <g id="line2d_8">
    <path clip-path="url(#p96d9120af0)" d="
M258.756 352.8
L258.756 7.2" style="fill:none;stroke:#000000;stroke-linecap:square;"/>
   </g>
   <g id="line2d_9">
    <path clip-path="url(#p96d9120af0)" d="
M35.5563 180
L481.956 180" style="fill:none;stroke:#000000;stroke-dasharray:1.000000,3.000000;stroke-dashoffset:0.0;stroke-width:2;"/>
   </g>
   <g id="matplotlib.axis_1">
    <g id="xtick_1">
     <g id="line2d_10">
      <path clip-path="url(#p96d9120af0)" d="
M35.5563 352.8
L35.5563 7.2" style="fill:none;stroke:#000000;stroke-dasharray:1.000000,3.000000;stroke-dashoffset:0.0;stroke-width:0.5;"/>
     </g>
     <g id="line2d_11">
      <defs>
       <path d="
M0 0
L0 -4" id="m93b0483c22" style="stroke:#000000;stroke-width:0.5;"/>
      </defs>
      <g>
       <use style="stroke:#000000;stroke-width:0.5;" x="35.55625" xlink:href="#m93b0483c22" y="352.8"/>
      </g>
     </g>
     <g id="line2d_12">
      <defs>
       <path d="
M0 0
L0 4" id="m741efc42ff" style="stroke:#000000;stroke-width:0.5;"/>
      </defs>
      <g>
       <use style="stroke:#000000;stroke-width:0.5;" x="35.55625" xlink:href="#m741efc42ff" y="7.2"/>
      </g>
     </g>
     <g id="text_1">
      <!-- -2 -->
      <defs>
       <path d="
M19.1875 8.29688
L53.6094 8.29688
L53.6094 0
L7.32812 0
L7.32812 8.29688
Q12.9375 14.1094 22.625 23.8906
Q32.3281 33.6875 34.8125 36.5312
Q39.5469 41.8438 41.4219 45.5312
Q43.3125 49.2188 43.3125 52.7812
Q43.3125 58.5938 39.2344 62.25
Q35.1562 65.9219 28.6094 65.9219
Q23.9688 65.9219 18.8125 64.3125
Q13.6719 62.7031 7.8125 59.4219
L7.8125 69.3906
Q13.7656 71.7812 18.9375 73
Q24.125 74.2188 28.4219 74.2188
Q39.75 74.2188 46.4844 68.5469
Q53.2188 62.8906 53.2188 53.4219
Q53.2188 48.9219 51.5312 44.8906
Q49.8594 40.875 45.4062 35.4062
Q44.1875 33.9844 37.6406 27.2188
Q31.1094 20.4531 19.1875 8.29688" id="BitstreamVeraSans-Roman-32"/>
       <path d="
M4.89062 31.3906
L31.2031 31.3906
L31.2031 23.3906
L4.89062 23.3906
z
" id="BitstreamVeraSans-Roman-2d"/>
      </defs>
      <g transform="translate(27.0765625 371.996875)scale(0.2 -0.2)">
       <use xlink:href="#BitstreamVeraSans-Roman-2d"/>
       <use x="36.083984375" xlink:href="#BitstreamVeraSans-Roman-32"/>
      </g>
     </g>
    </g>
    <g id="xtick_2">
     <g id="line2d_13">
      <path clip-path="url(#p96d9120af0)" d="
M147.156 352.8
L147.156 7.2" style="fill:none;stroke:#000000;stroke-dasharray:1.000000,3.000000;stroke-dashoffset:0.0;stroke-width:0.5;"/>
     </g>
     <g id="line2d_14">
      <g>
       <use style="stroke:#000000;stroke-width:0.5;" x="147.15625" xlink:href="#m93b0483c22" y="352.8"/>
      </g>
     </g>
     <g id="line2d_15">
      <g>
       <use style="stroke:#000000;stroke-width:0.5;" x="147.15625" xlink:href="#m741efc42ff" y="7.2"/>
      </g>
     </g>
     <g id="text_2">
      <!-- -1 -->
      <defs>
       <path d="
M12.4062 8.29688
L28.5156 8.29688
L28.5156 63.9219
L10.9844 60.4062
L10.9844 69.3906
L28.4219 72.9062
L38.2812 72.9062
L38.2812 8.29688
L54.3906 8.29688
L54.3906 0
L12.4062 0
z
" id="BitstreamVeraSans-Roman-31"/>
      </defs>
      <g transform="translate(138.5984375 371.996875)scale(0.2 -0.2)">
       <use xlink:href="#BitstreamVeraSans-Roman-2d"/>
       <use x="36.083984375" xlink:href="#BitstreamVeraSans-Roman-31"/>
      </g>
     </g>
    </g>
    <g id="xtick_3">
     <g id="line2d_16">
      <path clip-path="url(#p96d9120af0)" d="
M258.756 352.8
L258.756 7.2" style="fill:none;stroke:#000000;stroke-dasharray:1.000000,3.000000;stroke-dashoffset:0.0;stroke-width:0.5;"/>
     </g>
     <g id="line2d_17">
      <g>
       <use style="stroke:#000000;stroke-width:0.5;" x="258.75625" xlink:href="#m93b0483c22" y="352.8"/>
      </g>
     </g>
     <g id="line2d_18">
      <g>
       <use style="stroke:#000000;stroke-width:0.5;" x="258.75625" xlink:href="#m741efc42ff" y="7.2"/>
      </g>
     </g>
     <g id="text_3">
      <!-- 0 -->
      <defs>
       <path d="
M31.7812 66.4062
Q24.1719 66.4062 20.3281 58.9062
Q16.5 51.4219 16.5 36.375
Q16.5 21.3906 20.3281 13.8906
Q24.1719 6.39062 31.7812 6.39062
Q39.4531 6.39062 43.2812 13.8906
Q47.125 21.3906 47.125 36.375
Q47.125 51.4219 43.2812 58.9062
Q39.4531 66.4062 31.7812 66.4062
M31.7812 74.2188
Q44.0469 74.2188 50.5156 64.5156
Q56.9844 54.8281 56.9844 36.375
Q56.9844 17.9688 50.5156 8.26562
Q44.0469 -1.42188 31.7812 -1.42188
Q19.5312 -1.42188 13.0625 8.26562
Q6.59375 17.9688 6.59375 36.375
Q6.59375 54.8281 13.0625 64.5156
Q19.5312 74.2188 31.7812 74.2188" id="BitstreamVeraSans-Roman-30"/>
      </defs>
      <g transform="translate(253.7171875 371.996875)scale(0.2 -0.2)">
       <use xlink:href="#BitstreamVeraSans-Roman-30"/>
      </g>
     </g>
    </g>
    <g id="xtick_4">
     <g id="line2d_19">
      <path clip-path="url(#p96d9120af0)" d="
M370.356 352.8
L370.356 7.2" style="fill:none;stroke:#000000;stroke-dasharray:1.000000,3.000000;stroke-dashoffset:0.0;stroke-width:0.5;"/>
     </g>
     <g id="line2d_20">
      <g>
       <use style="stroke:#000000;stroke-width:0.5;" x="370.35625" xlink:href="#m93b0483c22" y="352.8"/>
      </g>
     </g>
     <g id="line2d_21">
      <g>
       <use style="stroke:#000000;stroke-width:0.5;" x="370.35625" xlink:href="#m741efc42ff" y="7.2"/>
      </g>
     </g>
     <g id="text_4">
      <!-- 1 -->
      <g transform="translate(366.015625 371.996875)scale(0.2 -0.2)">
       <use xlink:href="#BitstreamVeraSans-Roman-31"/>
      </g>
     </g>
    </g>
    <g id="xtick_5">
     <g id="line2d_22">
      <path clip-path="url(#p96d9120af0)" d="
M481.956 352.8
L481.956 7.2" style="fill:none;stroke:#000000;stroke-dasharray:1.000000,3.000000;stroke-dashoffset:0.0;stroke-width:0.5;"/>
     </g>
     <g id="line2d_23">
      <g>
       <use style="stroke:#000000;stroke-width:0.5;" x="481.95625" xlink:href="#m93b0483c22" y="352.8"/>
      </g>
     </g>
     <g id="line2d_24">
      <g>
       <use style="stroke:#000000;stroke-width:0.5;" x="481.95625" xlink:href="#m741efc42ff" y="7.2"/>
      </g>
     </g>
     <g id="text_5">
      <!-- 2 -->
      <g transform="translate(477.328125 371.996875)scale(0.2 -0.2)">
       <use xlink:href="#BitstreamVeraSans-Roman-32"/>
      </g>
     </g>
    </g>
    <g id="xtick_6">
     <g id="line2d_25">
      <defs>
       <path d="
M0 0
L0 -2" id="m177f7580d0" style="stroke:#000000;stroke-width:0.5;"/>
      </defs>
      <g>
       <use style="stroke:#000000;stroke-width:0.5;" x="40.6627859466" xlink:href="#m177f7580d0" y="352.8"/>
      </g>
     </g>
     <g id="line2d_26">
      <defs>
       <path d="
M0 0
L0 2" id="m5284c7e2a0" style="stroke:#000000;stroke-width:0.5;"/>
      </defs>
      <g>
       <use style="stroke:#000000;stroke-width:0.5;" x="40.6627859466" xlink:href="#m5284c7e2a0" y="7.2"/>
      </g>
     </g>
    </g>
    <g id="xtick_7">
     <g id="line2d_27">
      <g>
       <use style="stroke:#000000;stroke-width:0.5;" x="46.3714074517" xlink:href="#m177f7580d0" y="352.8"/>
      </g>
     </g>
     <g id="line2d_28">
      <g>
       <use style="stroke:#000000;stroke-width:0.5;" x="46.3714074517" xlink:href="#m5284c7e2a0" y="7.2"/>
      </g>
     </g>
    </g>
    <g id="xtick_8">
     <g id="line2d_29">
      <g>
       <use style="stroke:#000000;stroke-width:0.5;" x="52.8433087344" xlink:href="#m177f7580d0" y="352.8"/>
      </g>
     </g>
     <g id="line2d_30">
      <g>
       <use style="stroke:#000000;stroke-width:0.5;" x="52.8433087344" xlink:href="#m5284c7e2a0" y="7.2"/>
      </g>
     </g>
    </g>
    <g id="xtick_9">
     <g id="line2d_31">
      <g>
       <use style="stroke:#000000;stroke-width:0.5;" x="60.3145704572" xlink:href="#m177f7580d0" y="352.8"/>
      </g>
     </g>
     <g id="line2d_32">
      <g>
       <use style="stroke:#000000;stroke-width:0.5;" x="60.3145704572" xlink:href="#m5284c7e2a0" y="7.2"/>
      </g>
     </g>
    </g>
    <g id="xtick_10">
     <g id="line2d_33">
      <g>
       <use style="stroke:#000000;stroke-width:0.5;" x="69.1511975161" xlink:href="#m177f7580d0" y="352.8"/>
      </g>
     </g>
     <g id="line2d_34">
      <g>
       <use style="stroke:#000000;stroke-width:0.5;" x="69.1511975161" xlink:href="#m5284c7e2a0" y="7.2"/>
      </g>
     </g>
    </g>
    <g id="xtick_11">
     <g id="line2d_35">
      <g>
       <use style="stroke:#000000;stroke-width:0.5;" x="79.9663549678" xlink:href="#m177f7580d0" y="352.8"/>
      </g>
     </g>
     <g id="line2d_36">
      <g>
       <use style="stroke:#000000;stroke-width:0.5;" x="79.9663549678" xlink:href="#m5284c7e2a0" y="7.2"/>
      </g>
     </g>
    </g>
    <g id="xtick_12">
     <g id="line2d_37">
      <g>
       <use style="stroke:#000000;stroke-width:0.5;" x="93.9095179733" xlink:href="#m177f7580d0" y="352.8"/>
      </g>
     </g>
     <g id="line2d_38">
      <g>
       <use style="stroke:#000000;stroke-width:0.5;" x="93.9095179733" xlink:href="#m5284c7e2a0" y="7.2"/>
      </g>
     </g>
    </g>
    <g id="xtick_13">
     <g id="line2d_39">
      <g>
       <use style="stroke:#000000;stroke-width:0.5;" x="113.561302484" xlink:href="#m177f7580d0" y="352.8"/>
      </g>
     </g>
     <g id="line2d_40">
      <g>
       <use style="stroke:#000000;stroke-width:0.5;" x="113.561302484" xlink:href="#m5284c7e2a0" y="7.2"/>
      </g>
     </g>
    </g>
    <g id="xtick_14">
     <g id="line2d_41">
      <g>
       <use style="stroke:#000000;stroke-width:0.5;" x="152.262785947" xlink:href="#m177f7580d0" y="352.8"/>
      </g>
     </g>
     <g id="line2d_42">
      <g>
       <use style="stroke:#000000;stroke-width:0.5;" x="152.262785947" xlink:href="#m5284c7e2a0" y="7.2"/>
      </g>
     </g>
    </g>
    <g id="xtick_15">
     <g id="line2d_43">
      <g>
       <use style="stroke:#000000;stroke-width:0.5;" x="157.971407452" xlink:href="#m177f7580d0" y="352.8"/>
      </g>
     </g>
     <g id="line2d_44">
      <g>
       <use style="stroke:#000000;stroke-width:0.5;" x="157.971407452" xlink:href="#m5284c7e2a0" y="7.2"/>
      </g>
     </g>
    </g>
    <g id="xtick_16">
     <g id="line2d_45">
      <g>
       <use style="stroke:#000000;stroke-width:0.5;" x="164.443308734" xlink:href="#m177f7580d0" y="352.8"/>
      </g>
     </g>
     <g id="line2d_46">
      <g>
       <use style="stroke:#000000;stroke-width:0.5;" x="164.443308734" xlink:href="#m5284c7e2a0" y="7.2"/>
      </g>
     </g>
    </g>
    <g id="xtick_17">
     <g id="line2d_47">
      <g>
       <use style="stroke:#000000;stroke-width:0.5;" x="171.914570457" xlink:href="#m177f7580d0" y="352.8"/>
      </g>
     </g>
     <g id="line2d_48">
      <g>
       <use style="stroke:#000000;stroke-width:0.5;" x="171.914570457" xlink:href="#m5284c7e2a0" y="7.2"/>
      </g>
     </g>
    </g>
    <g id="xtick_18">
     <g id="line2d_49">
      <g>
       <use style="stroke:#000000;stroke-width:0.5;" x="180.751197516" xlink:href="#m177f7580d0" y="352.8"/>
      </g>
     </g>
     <g id="line2d_50">
      <g>
       <use style="stroke:#000000;stroke-width:0.5;" x="180.751197516" xlink:href="#m5284c7e2a0" y="7.2"/>
      </g>
     </g>
    </g>
    <g id="xtick_19">
     <g id="line2d_51">
      <g>
       <use style="stroke:#000000;stroke-width:0.5;" x="191.566354968" xlink:href="#m177f7580d0" y="352.8"/>
      </g>
     </g>
     <g id="line2d_52">
      <g>
       <use style="stroke:#000000;stroke-width:0.5;" x="191.566354968" xlink:href="#m5284c7e2a0" y="7.2"/>
      </g>
     </g>
    </g>
    <g id="xtick_20">
     <g id="line2d_53">
      <g>
       <use style="stroke:#000000;stroke-width:0.5;" x="205.509517973" xlink:href="#m177f7580d0" y="352.8"/>
      </g>
     </g>
     <g id="line2d_54">
      <g>
       <use style="stroke:#000000;stroke-width:0.5;" x="205.509517973" xlink:href="#m5284c7e2a0" y="7.2"/>
      </g>
     </g>
    </g>
    <g id="xtick_21">
     <g id="line2d_55">
      <g>
       <use style="stroke:#000000;stroke-width:0.5;" x="225.161302484" xlink:href="#m177f7580d0" y="352.8"/>
      </g>
     </g>
     <g id="line2d_56">
      <g>
       <use style="stroke:#000000;stroke-width:0.5;" x="225.161302484" xlink:href="#m5284c7e2a0" y="7.2"/>
      </g>
     </g>
    </g>
    <g id="xtick_22">
     <g id="line2d_57">
      <g>
       <use style="stroke:#000000;stroke-width:0.5;" x="292.351197516" xlink:href="#m177f7580d0" y="352.8"/>
      </g>
     </g>
     <g id="line2d_58">
      <g>
       <use style="stroke:#000000;stroke-width:0.5;" x="292.351197516" xlink:href="#m5284c7e2a0" y="7.2"/>
      </g>
     </g>
    </g>
    <g id="xtick_23">
     <g id="line2d_59">
      <g>
       <use style="stroke:#000000;stroke-width:0.5;" x="312.002982027" xlink:href="#m177f7580d0" y="352.8"/>
      </g>
     </g>
     <g id="line2d_60">
      <g>
       <use style="stroke:#000000;stroke-width:0.5;" x="312.002982027" xlink:href="#m5284c7e2a0" y="7.2"/>
      </g>
     </g>
    </g>
    <g id="xtick_24">
     <g id="line2d_61">
      <g>
       <use style="stroke:#000000;stroke-width:0.5;" x="325.946145032" xlink:href="#m177f7580d0" y="352.8"/>
      </g>
     </g>
     <g id="line2d_62">
      <g>
       <use style="stroke:#000000;stroke-width:0.5;" x="325.946145032" xlink:href="#m5284c7e2a0" y="7.2"/>
      </g>
     </g>
    </g>
    <g id="xtick_25">
     <g id="line2d_63">
      <g>
       <use style="stroke:#000000;stroke-width:0.5;" x="336.761302484" xlink:href="#m177f7580d0" y="352.8"/>
      </g>
     </g>
     <g id="line2d_64">
      <g>
       <use style="stroke:#000000;stroke-width:0.5;" x="336.761302484" xlink:href="#m5284c7e2a0" y="7.2"/>
      </g>
     </g>
    </g>
    <g id="xtick_26">
     <g id="line2d_65">
      <g>
       <use style="stroke:#000000;stroke-width:0.5;" x="345.597929543" xlink:href="#m177f7580d0" y="352.8"/>
      </g>
     </g>
     <g id="line2d_66">
      <g>
       <use style="stroke:#000000;stroke-width:0.5;" x="345.597929543" xlink:href="#m5284c7e2a0" y="7.2"/>
      </g>
     </g>
    </g>
    <g id="xtick_27">
     <g id="line2d_67">
      <g>
       <use style="stroke:#000000;stroke-width:0.5;" x="353.069191266" xlink:href="#m177f7580d0" y="352.8"/>
      </g>
     </g>
     <g id="line2d_68">
      <g>
       <use style="stroke:#000000;stroke-width:0.5;" x="353.069191266" xlink:href="#m5284c7e2a0" y="7.2"/>
      </g>
     </g>
    </g>
    <g id="xtick_28">
     <g id="line2d_69">
      <g>
       <use style="stroke:#000000;stroke-width:0.5;" x="359.541092548" xlink:href="#m177f7580d0" y="352.8"/>
      </g>
     </g>
     <g id="line2d_70">
      <g>
       <use style="stroke:#000000;stroke-width:0.5;" x="359.541092548" xlink:href="#m5284c7e2a0" y="7.2"/>
      </g>
     </g>
    </g>
    <g id="xtick_29">
     <g id="line2d_71">
      <g>
       <use style="stroke:#000000;stroke-width:0.5;" x="365.249714053" xlink:href="#m177f7580d0" y="352.8"/>
      </g>
     </g>
     <g id="line2d_72">
      <g>
       <use style="stroke:#000000;stroke-width:0.5;" x="365.249714053" xlink:href="#m5284c7e2a0" y="7.2"/>
      </g>
     </g>
    </g>
    <g id="xtick_30">
     <g id="line2d_73">
      <g>
       <use style="stroke:#000000;stroke-width:0.5;" x="403.951197516" xlink:href="#m177f7580d0" y="352.8"/>
      </g>
     </g>
     <g id="line2d_74">
      <g>
       <use style="stroke:#000000;stroke-width:0.5;" x="403.951197516" xlink:href="#m5284c7e2a0" y="7.2"/>
      </g>
     </g>
    </g>
    <g id="xtick_31">
     <g id="line2d_75">
      <g>
       <use style="stroke:#000000;stroke-width:0.5;" x="423.602982027" xlink:href="#m177f7580d0" y="352.8"/>
      </g>
     </g>
     <g id="line2d_76">
      <g>
       <use style="stroke:#000000;stroke-width:0.5;" x="423.602982027" xlink:href="#m5284c7e2a0" y="7.2"/>
      </g>
     </g>
    </g>
    <g id="xtick_32">
     <g id="line2d_77">
      <g>
       <use style="stroke:#000000;stroke-width:0.5;" x="437.546145032" xlink:href="#m177f7580d0" y="352.8"/>
      </g>
     </g>
     <g id="line2d_78">
      <g>
       <use style="stroke:#000000;stroke-width:0.5;" x="437.546145032" xlink:href="#m5284c7e2a0" y="7.2"/>
      </g>
     </g>
    </g>
    <g id="xtick_33">
     <g id="line2d_79">
      <g>
       <use style="stroke:#000000;stroke-width:0.5;" x="448.361302484" xlink:href="#m177f7580d0" y="352.8"/>
      </g>
     </g>
     <g id="line2d_80">
      <g>
       <use style="stroke:#000000;stroke-width:0.5;" x="448.361302484" xlink:href="#m5284c7e2a0" y="7.2"/>
      </g>
     </g>
    </g>
    <g id="xtick_34">
     <g id="line2d_81">
      <g>
       <use style="stroke:#000000;stroke-width:0.5;" x="457.197929543" xlink:href="#m177f7580d0" y="352.8"/>
      </g>
     </g>
     <g id="line2d_82">
      <g>
       <use style="stroke:#000000;stroke-width:0.5;" x="457.197929543" xlink:href="#m5284c7e2a0" y="7.2"/>
      </g>
     </g>
    </g>
    <g id="xtick_35">
     <g id="line2d_83">
      <g>
       <use style="stroke:#000000;stroke-width:0.5;" x="464.669191266" xlink:href="#m177f7580d0" y="352.8"/>
      </g>
     </g>
     <g id="line2d_84">
      <g>
       <use style="stroke:#000000;stroke-width:0.5;" x="464.669191266" xlink:href="#m5284c7e2a0" y="7.2"/>
      </g>
     </g>
    </g>
    <g id="xtick_36">
     <g id="line2d_85">
      <g>
       <use style="stroke:#000000;stroke-width:0.5;" x="471.141092548" xlink:href="#m177f7580d0" y="352.8"/>
      </g>
     </g>
     <g id="line2d_86">
      <g>
       <use style="stroke:#000000;stroke-width:0.5;" x="471.141092548" xlink:href="#m5284c7e2a0" y="7.2"/>
      </g>
     </g>
    </g>
    <g id="xtick_37">
     <g id="line2d_87">
      <g>
       <use style="stroke:#000000;stroke-width:0.5;" x="476.849714053" xlink:href="#m177f7580d0" y="352.8"/>
      </g>
     </g>
     <g id="line2d_88">
      <g>
       <use style="stroke:#000000;stroke-width:0.5;" x="476.849714053" xlink:href="#m5284c7e2a0" y="7.2"/>
      </g>
     </g>
    </g>
    <g id="text_6">
     <!-- log10 of FEvals ratio -->
     <defs>
      <path id="BitstreamVeraSans-Roman-20"/>
      <path d="
M41.1094 46.2969
Q39.5938 47.1719 37.8125 47.5781
Q36.0312 48 33.8906 48
Q26.2656 48 22.1875 43.0469
Q18.1094 38.0938 18.1094 28.8125
L18.1094 0
L9.07812 0
L9.07812 54.6875
L18.1094 54.6875
L18.1094 46.1875
Q20.9531 51.1719 25.4844 53.5781
Q30.0312 56 36.5312 56
Q37.4531 56 38.5781 55.875
Q39.7031 55.7656 41.0625 55.5156
z
" id="BitstreamVeraSans-Roman-72"/>
      <path d="
M30.6094 48.3906
Q23.3906 48.3906 19.1875 42.75
Q14.9844 37.1094 14.9844 27.2969
Q14.9844 17.4844 19.1562 11.8438
Q23.3438 6.20312 30.6094 6.20312
Q37.7969 6.20312 41.9844 11.8594
Q46.1875 17.5312 46.1875 27.2969
Q46.1875 37.0156 41.9844 42.7031
Q37.7969 48.3906 30.6094 48.3906
M30.6094 56
Q42.3281 56 49.0156 48.375
Q55.7188 40.7656 55.7188 27.2969
Q55.7188 13.875 49.0156 6.21875
Q42.3281 -1.42188 30.6094 -1.42188
Q18.8438 -1.42188 12.1719 6.21875
Q5.51562 13.875 5.51562 27.2969
Q5.51562 40.7656 12.1719 48.375
Q18.8438 56 30.6094 56" id="BitstreamVeraSans-Roman-6f"/>
      <path d="
M18.3125 70.2188
L18.3125 54.6875
L36.8125 54.6875
L36.8125 47.7031
L18.3125 47.7031
L18.3125 18.0156
Q18.3125 11.3281 20.1406 9.42188
Q21.9688 7.51562 27.5938 7.51562
L36.8125 7.51562
L36.8125 0
L27.5938 0
Q17.1875 0 13.2344 3.875
Q9.28125 7.76562 9.28125 18.0156
L9.28125 47.7031
L2.6875 47.7031
L2.6875 54.6875
L9.28125 54.6875
L9.28125 70.2188
z
" id="BitstreamVeraSans-Roman-74"/>
      <path d="
M9.42188 75.9844
L18.4062 75.9844
L18.4062 0
L9.42188 0
z
" id="BitstreamVeraSans-Roman-6c"/>
      <path d="
M9.8125 72.9062
L51.7031 72.9062
L51.7031 64.5938
L19.6719 64.5938
L19.6719 43.1094
L48.5781 43.1094
L48.5781 34.8125
L19.6719 34.8125
L19.6719 0
L9.8125 0
z
" id="BitstreamVeraSans-Roman-46"/>
      <path d="
M9.8125 72.9062
L55.9062 72.9062
L55.9062 64.5938
L19.6719 64.5938
L19.6719 43.0156
L54.3906 43.0156
L54.3906 34.7188
L19.6719 34.7188
L19.6719 8.29688
L56.7812 8.29688
L56.7812 0
L9.8125 0
z
" id="BitstreamVeraSans-Roman-45"/>
      <path d="
M9.42188 54.6875
L18.4062 54.6875
L18.4062 0
L9.42188 0
z

M9.42188 75.9844
L18.4062 75.9844
L18.4062 64.5938
L9.42188 64.5938
z
" id="BitstreamVeraSans-Roman-69"/>
      <path d="
M2.98438 54.6875
L12.5 54.6875
L29.5938 8.79688
L46.6875 54.6875
L56.2031 54.6875
L35.6875 0
L23.4844 0
z
" id="BitstreamVeraSans-Roman-76"/>
      <path d="
M45.4062 27.9844
Q45.4062 37.75 41.375 43.1094
Q37.3594 48.4844 30.0781 48.4844
Q22.8594 48.4844 18.8281 43.1094
Q14.7969 37.75 14.7969 27.9844
Q14.7969 18.2656 18.8281 12.8906
Q22.8594 7.51562 30.0781 7.51562
Q37.3594 7.51562 41.375 12.8906
Q45.4062 18.2656 45.4062 27.9844
M54.3906 6.78125
Q54.3906 -7.17188 48.1875 -13.9844
Q42 -20.7969 29.2031 -20.7969
Q24.4688 -20.7969 20.2656 -20.0938
Q16.0625 -19.3906 12.1094 -17.9219
L12.1094 -9.1875
Q16.0625 -11.3281 19.9219 -12.3438
Q23.7812 -13.375 27.7812 -13.375
Q36.625 -13.375 41.0156 -8.76562
Q45.4062 -4.15625 45.4062 5.17188
L45.4062 9.625
Q42.625 4.78125 38.2812 2.39062
Q33.9375 0 27.875 0
Q17.8281 0 11.6719 7.65625
Q5.51562 15.3281 5.51562 27.9844
Q5.51562 40.6719 11.6719 48.3281
Q17.8281 56 27.875 56
Q33.9375 56 38.2812 53.6094
Q42.625 51.2188 45.4062 46.3906
L45.4062 54.6875
L54.3906 54.6875
z
" id="BitstreamVeraSans-Roman-67"/>
      <path d="
M37.1094 75.9844
L37.1094 68.5
L28.5156 68.5
Q23.6875 68.5 21.7969 66.5469
Q19.9219 64.5938 19.9219 59.5156
L19.9219 54.6875
L34.7188 54.6875
L34.7188 47.7031
L19.9219 47.7031
L19.9219 0
L10.8906 0
L10.8906 47.7031
L2.29688 47.7031
L2.29688 54.6875
L10.8906 54.6875
L10.8906 58.5
Q10.8906 67.625 15.1406 71.7969
Q19.3906 75.9844 28.6094 75.9844
z
" id="BitstreamVeraSans-Roman-66"/>
      <path d="
M34.2812 27.4844
Q23.3906 27.4844 19.1875 25
Q14.9844 22.5156 14.9844 16.5
Q14.9844 11.7188 18.1406 8.90625
Q21.2969 6.10938 26.7031 6.10938
Q34.1875 6.10938 38.7031 11.4062
Q43.2188 16.7031 43.2188 25.4844
L43.2188 27.4844
z

M52.2031 31.2031
L52.2031 0
L43.2188 0
L43.2188 8.29688
Q40.1406 3.32812 35.5469 0.953125
Q30.9531 -1.42188 24.3125 -1.42188
Q15.9219 -1.42188 10.9531 3.29688
Q6 8.01562 6 15.9219
Q6 25.1406 12.1719 29.8281
Q18.3594 34.5156 30.6094 34.5156
L43.2188 34.5156
L43.2188 35.4062
Q43.2188 41.6094 39.1406 45
Q35.0625 48.3906 27.6875 48.3906
Q23 48.3906 18.5469 47.2656
Q14.1094 46.1406 10.0156 43.8906
L10.0156 52.2031
Q14.9375 54.1094 19.5781 55.0469
Q24.2188 56 28.6094 56
Q40.4844 56 46.3438 49.8438
Q52.2031 43.7031 52.2031 31.2031" id="BitstreamVeraSans-Roman-61"/>
      <path d="
M44.2812 53.0781
L44.2812 44.5781
Q40.4844 46.5312 36.375 47.5
Q32.2812 48.4844 27.875 48.4844
Q21.1875 48.4844 17.8438 46.4375
Q14.5 44.3906 14.5 40.2812
Q14.5 37.1562 16.8906 35.375
Q19.2812 33.5938 26.5156 31.9844
L29.5938 31.2969
Q39.1562 29.25 43.1875 25.5156
Q47.2188 21.7812 47.2188 15.0938
Q47.2188 7.46875 41.1875 3.01562
Q35.1562 -1.42188 24.6094 -1.42188
Q20.2188 -1.42188 15.4531 -0.5625
Q10.6875 0.296875 5.42188 2
L5.42188 11.2812
Q10.4062 8.6875 15.2344 7.39062
Q20.0625 6.10938 24.8125 6.10938
Q31.1562 6.10938 34.5625 8.28125
Q37.9844 10.4531 37.9844 14.4062
Q37.9844 18.0625 35.5156 20.0156
Q33.0625 21.9688 24.7031 23.7812
L21.5781 24.5156
Q13.2344 26.2656 9.51562 29.9062
Q5.8125 33.5469 5.8125 39.8906
Q5.8125 47.6094 11.2812 51.7969
Q16.75 56 26.8125 56
Q31.7812 56 36.1719 55.2656
Q40.5781 54.5469 44.2812 53.0781" id="BitstreamVeraSans-Roman-73"/>
     </defs>
     <g transform="translate(156.9984375 396.353125)scale(0.2 -0.2)">
      <use xlink:href="#BitstreamVeraSans-Roman-6c"/>
      <use x="27.783203125" xlink:href="#BitstreamVeraSans-Roman-6f"/>
      <use x="88.96484375" xlink:href="#BitstreamVeraSans-Roman-67"/>
      <use x="152.44140625" xlink:href="#BitstreamVeraSans-Roman-31"/>
      <use x="216.064453125" xlink:href="#BitstreamVeraSans-Roman-30"/>
      <use x="279.6875" xlink:href="#BitstreamVeraSans-Roman-20"/>
      <use x="311.474609375" xlink:href="#BitstreamVeraSans-Roman-6f"/>
      <use x="372.65625" xlink:href="#BitstreamVeraSans-Roman-66"/>
      <use x="407.861328125" xlink:href="#BitstreamVeraSans-Roman-20"/>
      <use x="439.6484375" xlink:href="#BitstreamVeraSans-Roman-46"/>
      <use x="497.16796875" xlink:href="#BitstreamVeraSans-Roman-45"/>
      <use x="560.3515625" xlink:href="#BitstreamVeraSans-Roman-76"/>
      <use x="619.53125" xlink:href="#BitstreamVeraSans-Roman-61"/>
      <use x="680.810546875" xlink:href="#BitstreamVeraSans-Roman-6c"/>
      <use x="708.59375" xlink:href="#BitstreamVeraSans-Roman-73"/>
      <use x="760.693359375" xlink:href="#BitstreamVeraSans-Roman-20"/>
      <use x="792.48046875" xlink:href="#BitstreamVeraSans-Roman-72"/>
      <use x="833.59375" xlink:href="#BitstreamVeraSans-Roman-61"/>
      <use x="894.873046875" xlink:href="#BitstreamVeraSans-Roman-74"/>
      <use x="934.08203125" xlink:href="#BitstreamVeraSans-Roman-69"/>
      <use x="961.865234375" xlink:href="#BitstreamVeraSans-Roman-6f"/>
     </g>
    </g>
   </g>
   <g id="matplotlib.axis_2">
    <g id="ytick_1">
     <g id="line2d_89">
      <path clip-path="url(#p96d9120af0)" d="
M35.5563 349.412
L481.956 349.412" style="fill:none;stroke:#000000;stroke-dasharray:1.000000,3.000000;stroke-dashoffset:0.0;stroke-width:0.5;"/>
     </g>
     <g id="line2d_90">
      <defs>
       <path d="
M0 0
L4 0" id="m728421d6d4" style="stroke:#000000;stroke-width:0.5;"/>
      </defs>
      <g>
       <use style="stroke:#000000;stroke-width:0.5;" x="35.55625" xlink:href="#m728421d6d4" y="349.411764706"/>
      </g>
     </g>
     <g id="line2d_91">
      <defs>
       <path d="
M0 0
L-4 0" id="mcb0005524f" style="stroke:#000000;stroke-width:0.5;"/>
      </defs>
      <g>
       <use style="stroke:#000000;stroke-width:0.5;" x="481.95625" xlink:href="#mcb0005524f" y="349.411764706"/>
      </g>
     </g>
    </g>
    <g id="ytick_2">
     <g id="line2d_92">
      <path clip-path="url(#p96d9120af0)" d="
M35.5563 264.706
L481.956 264.706" style="fill:none;stroke:#000000;stroke-dasharray:1.000000,3.000000;stroke-dashoffset:0.0;stroke-width:0.5;"/>
     </g>
     <g id="line2d_93">
      <g>
       <use style="stroke:#000000;stroke-width:0.5;" x="35.55625" xlink:href="#m728421d6d4" y="264.705882353"/>
      </g>
     </g>
     <g id="line2d_94">
      <g>
       <use style="stroke:#000000;stroke-width:0.5;" x="481.95625" xlink:href="#mcb0005524f" y="264.705882353"/>
      </g>
     </g>
    </g>
    <g id="ytick_3">
     <g id="line2d_95">
      <path clip-path="url(#p96d9120af0)" d="
M35.5563 180
L481.956 180" style="fill:none;stroke:#000000;stroke-dasharray:1.000000,3.000000;stroke-dashoffset:0.0;stroke-width:0.5;"/>
     </g>
     <g id="line2d_96">
      <g>
       <use style="stroke:#000000;stroke-width:0.5;" x="35.55625" xlink:href="#m728421d6d4" y="180.0"/>
      </g>
     </g>
     <g id="line2d_97">
      <g>
       <use style="stroke:#000000;stroke-width:0.5;" x="481.95625" xlink:href="#mcb0005524f" y="180.0"/>
      </g>
     </g>
    </g>
    <g id="ytick_4">
     <g id="line2d_98">
      <path clip-path="url(#p96d9120af0)" d="
M35.5563 95.2941
L481.956 95.2941" style="fill:none;stroke:#000000;stroke-dasharray:1.000000,3.000000;stroke-dashoffset:0.0;stroke-width:0.5;"/>
     </g>
     <g id="line2d_99">
      <g>
       <use style="stroke:#000000;stroke-width:0.5;" x="35.55625" xlink:href="#m728421d6d4" y="95.2941176471"/>
      </g>
     </g>
     <g id="line2d_100">
      <g>
       <use style="stroke:#000000;stroke-width:0.5;" x="481.95625" xlink:href="#mcb0005524f" y="95.2941176471"/>
      </g>
     </g>
    </g>
    <g id="ytick_5">
     <g id="line2d_101">
      <path clip-path="url(#p96d9120af0)" d="
M35.5563 10.5882
L481.956 10.5882" style="fill:none;stroke:#000000;stroke-dasharray:1.000000,3.000000;stroke-dashoffset:0.0;stroke-width:0.5;"/>
     </g>
     <g id="line2d_102">
      <g>
       <use style="stroke:#000000;stroke-width:0.5;" x="35.55625" xlink:href="#m728421d6d4" y="10.5882352941"/>
      </g>
     </g>
     <g id="line2d_103">
      <g>
       <use style="stroke:#000000;stroke-width:0.5;" x="481.95625" xlink:href="#mcb0005524f" y="10.5882352941"/>
      </g>
     </g>
    </g>
    <g id="text_7">
     <!-- proportion of trials -->
     <defs>
      <path d="
M54.8906 33.0156
L54.8906 0
L45.9062 0
L45.9062 32.7188
Q45.9062 40.4844 42.875 44.3281
Q39.8438 48.1875 33.7969 48.1875
Q26.5156 48.1875 22.3125 43.5469
Q18.1094 38.9219 18.1094 30.9062
L18.1094 0
L9.07812 0
L9.07812 54.6875
L18.1094 54.6875
L18.1094 46.1875
Q21.3438 51.125 25.7031 53.5625
Q30.0781 56 35.7969 56
Q45.2188 56 50.0469 50.1719
Q54.8906 44.3438 54.8906 33.0156" id="BitstreamVeraSans-Roman-6e"/>
      <path d="
M18.1094 8.20312
L18.1094 -20.7969
L9.07812 -20.7969
L9.07812 54.6875
L18.1094 54.6875
L18.1094 46.3906
Q20.9531 51.2656 25.2656 53.625
Q29.5938 56 35.5938 56
Q45.5625 56 51.7812 48.0938
Q58.0156 40.1875 58.0156 27.2969
Q58.0156 14.4062 51.7812 6.48438
Q45.5625 -1.42188 35.5938 -1.42188
Q29.5938 -1.42188 25.2656 0.953125
Q20.9531 3.32812 18.1094 8.20312
M48.6875 27.2969
Q48.6875 37.2031 44.6094 42.8438
Q40.5312 48.4844 33.4062 48.4844
Q26.2656 48.4844 22.1875 42.8438
Q18.1094 37.2031 18.1094 27.2969
Q18.1094 17.3906 22.1875 11.75
Q26.2656 6.10938 33.4062 6.10938
Q40.5312 6.10938 44.6094 11.75
Q48.6875 17.3906 48.6875 27.2969" id="BitstreamVeraSans-Roman-70"/>
     </defs>
     <g transform="translate(22.396875 272.51875)rotate(-90.0)scale(0.2 -0.2)">
      <use xlink:href="#BitstreamVeraSans-Roman-70"/>
      <use x="63.4765625" xlink:href="#BitstreamVeraSans-Roman-72"/>
      <use x="102.33984375" xlink:href="#BitstreamVeraSans-Roman-6f"/>
      <use x="163.521484375" xlink:href="#BitstreamVeraSans-Roman-70"/>
      <use x="226.998046875" xlink:href="#BitstreamVeraSans-Roman-6f"/>
      <use x="288.1796875" xlink:href="#BitstreamVeraSans-Roman-72"/>
      <use x="329.29296875" xlink:href="#BitstreamVeraSans-Roman-74"/>
      <use x="368.501953125" xlink:href="#BitstreamVeraSans-Roman-69"/>
      <use x="396.28515625" xlink:href="#BitstreamVeraSans-Roman-6f"/>
      <use x="457.466796875" xlink:href="#BitstreamVeraSans-Roman-6e"/>
      <use x="520.845703125" xlink:href="#BitstreamVeraSans-Roman-20"/>
      <use x="552.6328125" xlink:href="#BitstreamVeraSans-Roman-6f"/>
      <use x="613.814453125" xlink:href="#BitstreamVeraSans-Roman-66"/>
      <use x="649.01953125" xlink:href="#BitstreamVeraSans-Roman-20"/>
      <use x="680.806640625" xlink:href="#BitstreamVeraSans-Roman-74"/>
      <use x="720.015625" xlink:href="#BitstreamVeraSans-Roman-72"/>
      <use x="761.12890625" xlink:href="#BitstreamVeraSans-Roman-69"/>
      <use x="788.912109375" xlink:href="#BitstreamVeraSans-Roman-61"/>
      <use x="850.19140625" xlink:href="#BitstreamVeraSans-Roman-6c"/>
      <use x="877.974609375" xlink:href="#BitstreamVeraSans-Roman-73"/>
     </g>
    </g>
   </g>
   <g id="patch_3">
    <path d="
M35.5563 7.2
L481.956 7.2" style="fill:none;stroke:#000000;"/>
   </g>
   <g id="patch_4">
    <path d="
M481.956 352.8
L481.956 7.2" style="fill:none;stroke:#000000;"/>
   </g>
   <g id="patch_5">
    <path d="
M35.5563 352.8
L481.956 352.8" style="fill:none;stroke:#000000;"/>
   </g>
   <g id="patch_6">
    <path d="
M35.5563 352.8
L35.5563 7.2" style="fill:none;stroke:#000000;"/>
   </g>
   <g id="text_8">
    <!-- f10-f14,20-D -->
    <defs>
     <path d="
M11.7188 12.4062
L22.0156 12.4062
L22.0156 4
L14.0156 -11.625
L7.71875 -11.625
L11.7188 4
z
" id="BitstreamVeraSans-Roman-2c"/>
     <path d="
M19.6719 64.7969
L19.6719 8.10938
L31.5938 8.10938
Q46.6875 8.10938 53.6875 14.9375
Q60.6875 21.7812 60.6875 36.5312
Q60.6875 51.1719 53.6875 57.9844
Q46.6875 64.7969 31.5938 64.7969
z

M9.8125 72.9062
L30.0781 72.9062
Q51.2656 72.9062 61.1719 64.0938
Q71.0938 55.2812 71.0938 36.5312
Q71.0938 17.6719 61.125 8.82812
Q51.1719 0 30.0781 0
L9.8125 0
z
" id="BitstreamVeraSans-Roman-44"/>
     <path d="
M37.7969 64.3125
L12.8906 25.3906
L37.7969 25.3906
z

M35.2031 72.9062
L47.6094 72.9062
L47.6094 25.3906
L58.0156 25.3906
L58.0156 17.1875
L47.6094 17.1875
L47.6094 0
L37.7969 0
L37.7969 17.1875
L4.89062 17.1875
L4.89062 26.7031
z
" id="BitstreamVeraSans-Roman-34"/>
    </defs>
    <g transform="translate(348.050125 345.888)scale(0.2 -0.2)">
     <use xlink:href="#BitstreamVeraSans-Roman-66"/>
     <use x="35.205078125" xlink:href="#BitstreamVeraSans-Roman-31"/>
     <use x="98.828125" xlink:href="#BitstreamVeraSans-Roman-30"/>
     <use x="162.451171875" xlink:href="#BitstreamVeraSans-Roman-2d"/>
     <use x="198.53515625" xlink:href="#BitstreamVeraSans-Roman-66"/>
     <use x="233.740234375" xlink:href="#BitstreamVeraSans-Roman-31"/>
     <use x="297.36328125" xlink:href="#BitstreamVeraSans-Roman-34"/>
     <use x="360.986328125" xlink:href="#BitstreamVeraSans-Roman-2c"/>
     <use x="392.7734375" xlink:href="#BitstreamVeraSans-Roman-32"/>
     <use x="456.396484375" xlink:href="#BitstreamVeraSans-Roman-30"/>
     <use x="520.01953125" xlink:href="#BitstreamVeraSans-Roman-2d"/>
     <use x="556.103515625" xlink:href="#BitstreamVeraSans-Roman-44"/>
    </g>
   </g>
   <g id="text_9">
    <!-- 0.0.0 -->
    <defs>
     <path d="
M10.6875 12.4062
L21 12.4062
L21 0
L10.6875 0
z
" id="BitstreamVeraSans-Roman-2e"/>
    </defs>
    <g style="fill:#808080;" transform="translate(246.69609375 347.2643125)scale(0.1 -0.1)">
     <use xlink:href="#BitstreamVeraSans-Roman-30"/>
     <use x="63.623046875" xlink:href="#BitstreamVeraSans-Roman-2e"/>
     <use x="95.41015625" xlink:href="#BitstreamVeraSans-Roman-30"/>
     <use x="159.033203125" xlink:href="#BitstreamVeraSans-Roman-2e"/>
     <use x="190.8203125" xlink:href="#BitstreamVeraSans-Roman-30"/>
    </g>
   </g>
   <g id="legend_1">
    <g id="patch_7">
     <path d="
M45.5563 140.625
L181.656 140.625
L181.656 17.2
L45.5563 17.2
L45.5563 140.625
z
" style="fill:#ffffff;opacity:0.2;stroke:#000000;"/>
    </g>
    <g id="line2d_104">
     <path d="
M59.5563 33.3969
L87.5563 33.3969" style="fill:none;stroke:#000000;stroke-linecap:square;stroke-width:3.0;"/>
    </g>
    <g id="line2d_105"/>
    <g id="text_10">
     <!-- 1: 4/4 -->
     <defs>
      <path d="
M11.7188 12.4062
L22.0156 12.4062
L22.0156 0
L11.7188 0
z

M11.7188 51.7031
L22.0156 51.7031
L22.0156 39.3125
L11.7188 39.3125
z
" id="BitstreamVeraSans-Roman-3a"/>
      <path d="
M25.3906 72.9062
L33.6875 72.9062
L8.29688 -9.28125
L0 -9.28125
z
" id="BitstreamVeraSans-Roman-2f"/>
     </defs>
     <g transform="translate(109.55625 40.396875)scale(0.2 -0.2)">
      <use xlink:href="#BitstreamVeraSans-Roman-31"/>
      <use x="63.623046875" xlink:href="#BitstreamVeraSans-Roman-3a"/>
      <use x="97.314453125" xlink:href="#BitstreamVeraSans-Roman-20"/>
      <use x="129.1015625" xlink:href="#BitstreamVeraSans-Roman-34"/>
      <use x="192.724609375" xlink:href="#BitstreamVeraSans-Roman-2f"/>
      <use x="226.416015625" xlink:href="#BitstreamVeraSans-Roman-34"/>
     </g>
    </g>
    <g id="line2d_106">
     <path d="
M59.5563 62.7531
L87.5563 62.7531" style="fill:none;stroke:#00bfbf;stroke-linecap:square;stroke-width:3.0;"/>
    </g>
    <g id="line2d_107"/>
    <g id="text_11">
     <!-- -1: 3/4 -->
     <defs>
      <path d="
M40.5781 39.3125
Q47.6562 37.7969 51.625 33
Q55.6094 28.2188 55.6094 21.1875
Q55.6094 10.4062 48.1875 4.48438
Q40.7656 -1.42188 27.0938 -1.42188
Q22.5156 -1.42188 17.6562 -0.515625
Q12.7969 0.390625 7.625 2.20312
L7.625 11.7188
Q11.7188 9.32812 16.5938 8.10938
Q21.4844 6.89062 26.8125 6.89062
Q36.0781 6.89062 40.9375 10.5469
Q45.7969 14.2031 45.7969 21.1875
Q45.7969 27.6406 41.2812 31.2656
Q36.7656 34.9062 28.7188 34.9062
L20.2188 34.9062
L20.2188 43.0156
L29.1094 43.0156
Q36.375 43.0156 40.2344 45.9219
Q44.0938 48.8281 44.0938 54.2969
Q44.0938 59.9062 40.1094 62.9062
Q36.1406 65.9219 28.7188 65.9219
Q24.6562 65.9219 20.0156 65.0312
Q15.375 64.1562 9.8125 62.3125
L9.8125 71.0938
Q15.4375 72.6562 20.3438 73.4375
Q25.25 74.2188 29.5938 74.2188
Q40.8281 74.2188 47.3594 69.1094
Q53.9062 64.0156 53.9062 55.3281
Q53.9062 49.2656 50.4375 45.0938
Q46.9688 40.9219 40.5781 39.3125" id="BitstreamVeraSans-Roman-33"/>
     </defs>
     <g transform="translate(109.55625 69.753125)scale(0.2 -0.2)">
      <use xlink:href="#BitstreamVeraSans-Roman-2d"/>
      <use x="36.083984375" xlink:href="#BitstreamVeraSans-Roman-31"/>
      <use x="99.70703125" xlink:href="#BitstreamVeraSans-Roman-3a"/>
      <use x="133.3984375" xlink:href="#BitstreamVeraSans-Roman-20"/>
      <use x="165.185546875" xlink:href="#BitstreamVeraSans-Roman-33"/>
      <use x="228.80859375" xlink:href="#BitstreamVeraSans-Roman-2f"/>
      <use x="262.5" xlink:href="#BitstreamVeraSans-Roman-34"/>
     </g>
    </g>
    <g id="line2d_108">
     <path d="
M59.5563 92.1094
L87.5563 92.1094" style="fill:none;stroke:#bf00bf;stroke-linecap:square;stroke-width:3.0;"/>
    </g>
    <g id="line2d_109"/>
    <g id="text_12">
     <!-- -4: 3/3 -->
     <g transform="translate(109.55625 99.109375)scale(0.2 -0.2)">
      <use xlink:href="#BitstreamVeraSans-Roman-2d"/>
      <use x="36.083984375" xlink:href="#BitstreamVeraSans-Roman-34"/>
      <use x="99.70703125" xlink:href="#BitstreamVeraSans-Roman-3a"/>
      <use x="133.3984375" xlink:href="#BitstreamVeraSans-Roman-20"/>
      <use x="165.185546875" xlink:href="#BitstreamVeraSans-Roman-33"/>
      <use x="228.80859375" xlink:href="#BitstreamVeraSans-Roman-2f"/>
      <use x="262.5" xlink:href="#BitstreamVeraSans-Roman-33"/>
     </g>
    </g>
    <g id="line2d_110">
     <path d="
M59.5563 121.466
L87.5563 121.466" style="fill:none;stroke:#ff0000;stroke-linecap:square;stroke-width:3.0;"/>
    </g>
    <g id="line2d_111"/>
    <g id="text_13">
     <!-- -8: 0/1 -->
     <defs>
      <path d="
M31.7812 34.625
Q24.75 34.625 20.7188 30.8594
Q16.7031 27.0938 16.7031 20.5156
Q16.7031 13.9219 20.7188 10.1562
Q24.75 6.39062 31.7812 6.39062
Q38.8125 6.39062 42.8594 10.1719
Q46.9219 13.9688 46.9219 20.5156
Q46.9219 27.0938 42.8906 30.8594
Q38.875 34.625 31.7812 34.625
M21.9219 38.8125
Q15.5781 40.375 12.0312 44.7188
Q8.5 49.0781 8.5 55.3281
Q8.5 64.0625 14.7188 69.1406
Q20.9531 74.2188 31.7812 74.2188
Q42.6719 74.2188 48.875 69.1406
Q55.0781 64.0625 55.0781 55.3281
Q55.0781 49.0781 51.5312 44.7188
Q48 40.375 41.7031 38.8125
Q48.8281 37.1562 52.7969 32.3125
Q56.7812 27.4844 56.7812 20.5156
Q56.7812 9.90625 50.3125 4.23438
Q43.8438 -1.42188 31.7812 -1.42188
Q19.7344 -1.42188 13.25 4.23438
Q6.78125 9.90625 6.78125 20.5156
Q6.78125 27.4844 10.7812 32.3125
Q14.7969 37.1562 21.9219 38.8125
M18.3125 54.3906
Q18.3125 48.7344 21.8438 45.5625
Q25.3906 42.3906 31.7812 42.3906
Q38.1406 42.3906 41.7188 45.5625
Q45.3125 48.7344 45.3125 54.3906
Q45.3125 60.0625 41.7188 63.2344
Q38.1406 66.4062 31.7812 66.4062
Q25.3906 66.4062 21.8438 63.2344
Q18.3125 60.0625 18.3125 54.3906" id="BitstreamVeraSans-Roman-38"/>
     </defs>
     <g transform="translate(109.55625 128.465625)scale(0.2 -0.2)">
      <use xlink:href="#BitstreamVeraSans-Roman-2d"/>
      <use x="36.083984375" xlink:href="#BitstreamVeraSans-Roman-38"/>
      <use x="99.70703125" xlink:href="#BitstreamVeraSans-Roman-3a"/>
      <use x="133.3984375" xlink:href="#BitstreamVeraSans-Roman-20"/>
      <use x="165.185546875" xlink:href="#BitstreamVeraSans-Roman-30"/>
      <use x="228.80859375" xlink:href="#BitstreamVeraSans-Roman-2f"/>
      <use x="262.5" xlink:href="#BitstreamVeraSans-Roman-31"/>
     </g>
    </g>
   </g>
  </g>
 </g>
 <defs>
  <clipPath id="p96d9120af0">
   <rect height="345.6" width="446.4" x="35.55625" y="7.2"/>
  </clipPath>
 </defs>
</svg>
