<?xml version="1.0" encoding="utf-8" standalone="no"?>
<!DOCTYPE svg PUBLIC "-//W3C//DTD SVG 1.1//EN"
  "http://www.w3.org/Graphics/SVG/1.1/DTD/svg11.dtd">
<!-- Created with matplotlib (http://matplotlib.org/) -->
<svg height="413pt" version="1.1" viewBox="0 0 518 413" width="518pt" xmlns="http://www.w3.org/2000/svg" xmlns:xlink="http://www.w3.org/1999/xlink">
 <defs>
  <style type="text/css">
*{stroke-linecap:butt;stroke-linejoin:round;}
  </style>
 </defs>
 <g id="figure_1">
  <g id="patch_1">
   <path d="
M0 413.969
L518.522 413.969
L518.522 0
L0 0
z
" style="fill:#ffffff;"/>
  </g>
  <g id="axes_1">
   <g id="patch_2">
    <path d="
M64.9219 359.056
L511.322 359.056
L511.322 13.4563
L64.9219 13.4563
z
" style="fill:#ffffff;"/>
   </g>
   <g id="line2d_1"/>
   <g id="line2d_2"/>
   <g id="line2d_3"/>
   <g id="line2d_4">
    <path clip-path="url(#p4b24e7e61f)" d="
M303.707 359.056
L303.707 354.494
L303.707 354.494
L303.707 354.494
L303.725 354.494
L303.725 349.932
L304.518 349.932
L304.518 345.369
L305.086 345.369
L305.086 340.807
L305.46 340.807
L305.46 336.244
L305.809 336.244
L305.841 327.12
L305.938 327.12
L305.938 322.557
L306.547 322.557
L306.59 308.87
L307.977 308.87
L307.977 304.308
L308.445 304.308
L308.445 299.745
L309.199 299.745
L309.199 295.183
L309.329 295.183
L309.329 290.621
L310.117 290.621
L310.117 286.058
L310.641 286.058
L310.641 281.496
L311.402 281.496
L311.402 276.934
L311.576 276.934
L311.576 272.371
L312.033 272.371
L312.033 267.809
L312.443 267.809
L312.443 263.246
L314.139 263.246
L314.172 254.122
L315.464 254.122
L315.464 249.559
L316.52 249.559
L316.52 244.997
L317.723 244.997
L317.781 235.872
L318.392 235.872
L318.392 231.31
L318.691 231.31
L318.691 226.747
L321.411 226.747
L321.411 222.185
L323.471 222.185
L323.471 217.623
L324.128 217.623
L324.128 213.06
L324.296 213.06
L324.296 208.498
L325.24 208.498
L325.24 203.936
L325.625 203.936
L325.625 199.373
L326.663 199.373
L326.663 194.811
L326.87 194.811
L326.877 185.686
L327.098 185.686
L327.098 181.124
L327.458 181.124
L327.536 171.999
L327.86 171.999
L327.86 167.437
L328.227 167.437
L328.267 158.312
L328.66 158.312
L328.66 153.749
L329.318 153.749
L329.318 149.187
L330.812 149.187
L330.812 144.625
L333.045 144.625
L333.045 140.062
L339.971 140.062
L339.971 135.5
L340.471 135.5
L340.571 126.375
L340.922 126.375
L340.922 121.813
L343.539 121.813
L343.539 117.25
L349.633 117.25
L349.633 112.688
L353.919 112.688
L353.919 108.126
L357.748 108.126
L357.748 103.563
L358.179 103.563
L358.179 99.0009
L358.418 99.0009
L358.418 94.4385
L358.56 94.4385
L358.56 89.8761
L359.299 89.8761
L359.299 85.3138
L360.371 85.3138
L360.371 80.7514
L376.655 80.7514
L376.655 76.189
L387.692 76.189
L387.692 71.6266
L389.906 71.6266
L389.906 67.0643
L389.906 67.0643
L511.322 67.0643
L511.322 67.0643" style="fill:none;stroke:#f5deb3;stroke-linecap:square;"/>
   </g>
   <g id="line2d_5">
    <path clip-path="url(#p4b24e7e61f)" d="
M296.897 359.056
L296.897 354.494
L297.113 354.494
L297.113 349.932
L297.478 349.932
L297.478 345.369
L298.192 345.369
L298.192 340.807
L298.96 340.807
L298.96 336.244
L302.608 336.244
L302.608 331.682
L304.524 331.682
L304.524 327.12
L305.759 327.12
L305.759 322.557
L308.862 322.557
L308.862 317.995
L309.117 317.995
L309.117 313.433
L314.398 313.433
L314.398 308.87
L315.147 308.87
L315.147 304.308
L317.086 304.308
L317.086 299.745
L318.67 299.745
L318.67 295.183
L319.986 295.183
L319.986 290.621
L372.299 290.621
L372.299 286.058
L375.701 286.058
L375.701 281.496
L376.363 281.496
L376.363 276.934
L376.378 276.934
L376.378 272.371
L376.617 272.371
L376.617 267.809
L376.784 267.809
L376.784 263.246
L377.544 263.246
L377.544 258.684
L378.12 258.684
L378.12 254.122
L378.362 254.122
L378.362 249.559
L378.531 249.559
L378.531 244.997
L379.384 244.997
L379.384 240.435
L380.036 240.435
L380.036 235.872
L380.896 235.872
L380.896 231.31
L381.02 231.31
L381.02 226.747
L383.014 226.747
L383.014 222.185
L392.138 222.185
L392.138 217.623
L411.879 217.623
L411.879 213.06
L414.919 213.06
L414.919 208.498
L415.928 208.498
L415.928 203.936
L417.951 203.936
L417.951 199.373
L419.091 199.373
L419.091 194.811
L419.208 194.811
L419.208 190.248
L420.358 190.248
L420.358 185.686
L420.661 185.686
L420.661 181.124
L420.903 181.124
L420.903 176.561
L421.013 176.561
L421.013 171.999
L421.016 171.999
L421.016 167.437
L426.739 167.437
L426.739 162.874
L427.04 162.874
L427.04 158.312
L427.679 158.312
L427.679 153.749
L432.689 153.749
L432.689 149.187
L432.689 149.187
L432.689 149.187
L511.322 149.187" style="fill:none;stroke:#f5deb3;stroke-linecap:square;"/>
   </g>
   <g id="line2d_6"/>
   <g id="line2d_7">
    <path clip-path="url(#p4b24e7e61f)" d="
M302.846 359.056
L302.846 354.494
L302.846 354.494
L302.846 354.494
L302.887 354.494
L302.959 345.369
L303.157 345.369
L303.157 340.807
L303.472 340.807
L303.472 336.244
L303.672 336.244
L303.672 331.682
L303.93 331.682
L303.93 327.12
L304.103 327.12
L304.142 317.995
L304.559 317.995
L304.641 304.308
L304.71 304.308
L304.71 299.745
L306.164 299.745
L306.164 295.183
L312.91 295.183
L312.91 290.621
L313.069 290.621
L313.069 286.058
L313.24 286.058
L313.24 281.496
L313.662 281.496
L313.662 276.934
L313.781 276.934
L313.812 267.809
L314.2 267.809
L314.2 263.246
L314.981 263.246
L314.981 258.684
L315.453 258.684
L315.453 254.122
L316.43 254.122
L316.5 244.997
L317.09 244.997
L317.09 240.435
L317.587 240.435
L317.587 235.872
L317.803 235.872
L317.803 231.31
L319.116 231.31
L319.116 226.747
L319.574 226.747
L319.609 217.623
L320.792 217.623
L320.792 213.06
L321.013 213.06
L321.013 208.498
L321.558 208.498
L321.558 203.936
L322.02 203.936
L322.02 199.373
L323.23 199.373
L323.23 194.811
L323.367 194.811
L323.367 190.248
L323.746 190.248
L323.746 185.686
L325.267 185.686
L325.267 181.124
L325.97 181.124
L325.97 176.561
L326.283 176.561
L326.283 171.999
L327.825 171.999
L327.825 167.437
L328.244 167.437
L328.295 158.312
L329.675 158.312
L329.675 153.749
L330.419 153.749
L330.419 149.187
L338.929 149.187
L338.929 144.625
L346.122 144.625
L346.122 140.062
L351.224 140.062
L351.224 135.5
L354.723 135.5
L354.723 130.938
L363.234 130.938
L363.234 126.375
L363.844 126.375
L363.844 121.813
L364.425 121.813
L364.425 117.25
L365.528 117.25
L365.528 112.688
L366.088 112.688
L366.088 108.126
L366.279 108.126
L366.279 103.563
L377.493 103.563
L377.493 99.0009
L380.712 99.0009
L380.712 94.4385
L381.029 94.4385
L381.029 89.8761
L381.404 89.8761
L381.404 85.3138
L516.133 85.3138
L516.133 80.7514
L519.522 80.7514
L519.522 80.7514" style="fill:none;stroke:#f5deb3;stroke-linecap:square;"/>
   </g>
   <g id="line2d_8"/>
   <g id="line2d_9">
    <path clip-path="url(#p4b24e7e61f)" d="
M301.285 359.056
L301.285 354.494
L301.591 354.494
L301.591 349.932
L301.752 349.932
L301.752 345.369
L301.915 345.369
L301.915 340.807
L302.237 340.807
L302.237 336.244
L302.425 336.244
L302.425 331.682
L302.76 331.682
L302.76 327.12
L302.885 327.12
L302.885 322.557
L303.029 322.557
L303.059 313.433
L303.146 313.433
L303.225 295.183
L303.612 295.183
L303.612 290.621
L306.075 290.621
L306.075 286.058
L309.529 286.058
L309.529 281.496
L309.958 281.496
L310.025 267.809
L310.231 267.809
L310.316 258.684
L310.479 258.684
L310.523 244.997
L310.616 244.997
L310.616 240.435
L310.739 240.435
L310.739 235.872
L311.272 235.872
L311.272 231.31
L311.466 231.31
L311.466 226.747
L311.831 226.747
L311.831 222.185
L311.954 222.185
L311.954 217.623
L312.252 217.623
L312.252 213.06
L313.15 213.06
L313.15 208.498
L313.323 208.498
L313.323 203.936
L314.18 203.936
L314.18 199.373
L315.017 199.373
L315.017 194.811
L315.586 194.811
L315.586 190.248
L315.73 190.248
L315.73 185.686
L316.007 185.686
L316.058 176.561
L316.135 176.561
L316.135 171.999
L316.462 171.999
L316.462 167.437
L316.735 167.437
L316.821 153.749
L317.06 153.749
L317.101 144.625
L317.268 144.625
L317.268 140.062
L317.45 140.062
L317.45 135.5
L317.646 135.5
L317.646 130.938
L321.233 130.938
L321.268 121.813
L324.532 121.813
L324.532 117.25
L324.925 117.25
L324.925 112.688
L328.691 112.688
L328.691 108.126
L330.884 108.126
L330.953 99.0009
L334.445 99.0009
L334.445 94.4385
L335.797 94.4385
L335.797 89.8761
L339.213 89.8761
L339.213 85.3138
L342.003 85.3138
L342.003 80.7514
L346.048 80.7514
L346.048 76.189
L347.574 76.189
L347.574 71.6266
L347.755 71.6266
L347.755 67.0643
L348.312 67.0643
L348.312 62.5019
L348.579 62.5019
L348.579 57.9395
L359.69 57.9395
L359.69 53.3771
L368.696 53.3771
L368.696 48.8148
L380.135 48.8148
L380.135 44.2524
L382.429 44.2524
L382.429 39.69
L383.045 39.69
L383.045 35.1276
L383.391 35.1276
L383.391 30.5653
L384.109 30.5653
L384.109 26.0029
L386.07 26.0029
L386.07 21.4405
L386.701 21.4405
L386.701 16.8781
L386.701 16.8781
L511.322 16.8781
L511.322 16.8781" style="fill:none;stroke:#f5deb3;stroke-linecap:square;"/>
   </g>
   <g id="line2d_10"/>
   <g id="line2d_11">
    <path clip-path="url(#p4b24e7e61f)" d="
M481.933 359.056
L481.933 354.494
L519.522 354.494" style="fill:none;stroke:#f5deb3;stroke-linecap:square;"/>
   </g>
   <g id="line2d_12">
    <path clip-path="url(#p4b24e7e61f)" d="
M375.947 359.056
L375.947 354.494
L375.947 354.494
L375.947 354.494
L511.322 354.494" style="fill:none;stroke:#f5deb3;stroke-linecap:square;"/>
   </g>
   <g id="line2d_13"/>
   <g id="line2d_14"/>
   <g id="line2d_15"/>
   <g id="line2d_16">
    <path clip-path="url(#p4b24e7e61f)" d="
M539.881 359.056" style="fill:none;stroke:#f5deb3;stroke-linecap:square;"/>
   </g>
   <g id="line2d_17">
    <path clip-path="url(#p4b24e7e61f)" d="
M407.148 359.056
L407.148 354.494
L409.734 354.494
L409.734 349.932
L413.813 349.932
L413.813 345.369
L414.002 345.369
L414.002 340.807
L414.55 340.807
L414.55 336.244
L414.598 336.244
L414.598 331.682
L414.758 331.682
L414.758 327.12
L415.37 327.12
L415.37 322.557
L415.743 322.557
L415.743 317.995
L416.12 317.995
L416.12 313.433
L416.581 313.433
L416.581 308.87
L416.76 308.87
L416.76 304.308
L417.372 304.308
L417.372 299.745
L417.403 299.745
L417.403 295.183
L417.459 295.183
L417.459 290.621
L417.72 290.621
L417.72 286.058
L418.061 286.058
L418.061 281.496
L418.588 281.496
L418.588 276.934
L419.462 276.934
L419.462 272.371
L420.428 272.371
L420.428 267.809
L420.464 267.809
L420.464 263.246
L421.77 263.246
L421.77 258.684
L422.91 258.684
L422.91 254.122
L423.271 254.122
L423.271 249.559
L423.531 249.559
L423.531 244.997
L424.083 244.997
L424.083 240.435
L424.995 240.435
L424.995 235.872
L425.1 235.872
L425.1 231.31
L425.161 231.31
L425.161 226.747
L425.309 226.747
L425.309 222.185
L426.026 222.185
L426.026 217.623
L426.245 217.623
L426.245 213.06
L426.408 213.06
L426.408 208.498
L426.524 208.498
L426.524 203.936
L427.967 203.936
L427.967 199.373
L428.22 199.373
L428.22 194.811
L428.263 194.811
L428.263 190.248
L428.564 190.248
L428.564 185.686
L429.059 185.686
L429.059 181.124
L429.11 181.124
L429.11 176.561
L429.392 176.561
L429.392 171.999
L430.172 171.999
L430.172 167.437
L430.324 167.437
L430.324 162.874
L431.128 162.874
L431.128 158.312
L432.567 158.312
L432.567 153.749
L432.961 153.749
L432.961 149.187
L437.904 149.187
L437.904 144.625
L439.053 144.625
L439.053 140.062
L439.203 140.062
L439.203 135.5
L439.209 135.5
L439.209 130.938
L439.436 130.938
L439.436 126.375
L439.565 126.375
L439.565 121.813
L440.624 121.813
L440.624 117.25
L441.056 117.25
L441.056 112.688
L441.331 112.688
L441.331 108.126
L441.632 108.126
L441.632 103.563
L443.052 103.563
L443.052 99.0009
L443.434 99.0009
L443.434 94.4385
L443.616 94.4385
L443.616 89.8761
L443.989 89.8761
L443.989 85.3138
L443.989 85.3138
L443.989 85.3138
L511.322 85.3138" style="fill:none;stroke:#f5deb3;stroke-linecap:square;"/>
   </g>
   <g id="line2d_18">
    <path clip-path="url(#p4b24e7e61f)" d="
M281.398 359.056
L281.398 354.494
L286.781 354.494
L286.781 349.932
L288.115 349.932
L288.115 345.369
L288.937 345.369
L288.937 340.807
L289.22 340.807
L289.22 336.244
L290.841 336.244
L290.841 331.682
L295.409 331.682
L295.409 327.12
L299.436 327.12
L299.436 322.557
L299.645 322.557
L299.645 317.995
L299.692 317.995
L299.692 313.433
L304.057 313.433
L304.057 308.87
L308.149 308.87
L308.149 304.308
L310.661 304.308
L310.661 299.745
L313.415 299.745
L313.415 295.183
L320.183 295.183
L320.183 290.621
L365.464 290.621
L365.464 286.058
L366.151 286.058
L366.151 281.496
L367.477 281.496
L367.477 276.934
L367.726 276.934
L367.726 272.371
L369.116 272.371
L369.116 267.809
L369.318 267.809
L369.318 263.246
L369.519 263.246
L369.519 258.684
L369.931 258.684
L369.931 254.122
L369.982 254.122
L369.982 249.559
L370.434 249.559
L370.434 244.997
L370.861 244.997
L370.861 240.435
L370.97 240.435
L370.97 235.872
L371.097 235.872
L371.097 231.31
L371.143 231.31
L371.143 226.747
L371.45 226.747
L371.45 222.185
L371.509 222.185
L371.509 217.623
L371.828 217.623
L371.828 213.06
L372.048 213.06
L372.048 208.498
L372.071 208.498
L372.071 203.936
L372.876 203.936
L372.876 199.373
L372.903 199.373
L372.903 194.811
L376.676 194.811
L376.676 190.248
L381.138 190.248
L381.138 185.686
L390.957 185.686
L390.957 181.124
L396.965 181.124
L396.965 176.561
L397.46 176.561
L397.46 171.999
L399.47 171.999
L399.47 167.437
L414.036 167.437
L414.036 162.874
L431.327 162.874
L431.327 158.312
L441.268 158.312
L441.268 153.749
L441.268 153.749
L441.268 153.749
L511.322 153.749" style="fill:none;stroke:#f5deb3;stroke-linecap:square;"/>
   </g>
   <g id="line2d_19"/>
   <g id="line2d_20"/>
   <g id="line2d_21"/>
   <g id="line2d_22"/>
   <g id="line2d_23"/>
   <g id="line2d_24">
    <path clip-path="url(#p4b24e7e61f)" d="
M319.419 359.056
L319.419 354.494
L320.597 354.494
L320.597 349.932
L321.399 349.932
L321.399 345.369
L322.002 345.369
L322.002 340.807
L322.532 340.807
L322.532 336.244
L324.352 336.244
L324.352 331.682
L324.921 331.682
L324.921 327.12
L325.271 327.12
L325.327 317.995
L325.985 317.995
L325.985 313.433
L326.705 313.433
L326.705 308.87
L327.734 308.87
L327.78 299.745
L328.266 299.745
L328.279 290.621
L328.923 290.621
L328.923 286.058
L329.813 286.058
L329.868 276.934
L330.063 276.934
L330.078 267.809
L330.987 267.809
L330.987 263.246
L331.252 263.246
L331.252 258.684
L331.795 258.684
L331.901 244.997
L332.205 244.997
L332.205 240.435
L332.979 240.435
L333.063 231.31
L333.122 231.31
L333.122 226.747
L333.49 226.747
L333.49 222.185
L333.66 222.185
L333.66 217.623
L334.906 217.623
L334.906 213.06
L335.399 213.06
L335.399 208.498
L335.743 208.498
L335.743 203.936
L335.908 203.936
L336.019 194.811
L336.353 194.811
L336.353 190.248
L338.023 190.248
L338.036 181.124
L338.536 181.124
L338.536 176.561
L339.337 176.561
L339.337 171.999
L340.187 171.999
L340.24 162.874
L340.651 162.874
L340.651 158.312
L341.092 158.312
L341.092 153.749
L346.469 153.749
L346.469 149.187
L346.693 149.187
L346.693 144.625
L347.245 144.625
L347.245 140.062
L347.5 140.062
L347.511 130.938
L348.098 130.938
L348.098 126.375
L348.279 126.375
L348.279 121.813
L348.78 121.813
L348.78 117.25
L349.44 117.25
L349.468 108.126
L350.374 108.126
L350.374 103.563
L350.511 103.563
L350.536 94.4385
L352.075 94.4385
L352.075 89.8761
L356.036 89.8761
L356.036 85.3138
L364.045 85.3138
L364.045 80.7514
L372.003 80.7514
L372.003 76.189
L372.589 76.189
L372.589 71.6266
L375.14 71.6266
L375.194 62.5019
L375.678 62.5019
L375.678 57.9395
L375.913 57.9395
L375.913 53.3771
L376.233 53.3771
L376.233 48.8148
L376.533 48.8148
L376.544 39.69
L376.882 39.69
L376.882 35.1276
L380.201 35.1276
L380.201 30.5653
L380.403 30.5653
L380.403 26.0029
L381.166 26.0029
L381.166 21.4405
L381.882 21.4405
L381.882 16.8781
L381.882 16.8781
L511.322 16.8781
L511.322 16.8781" style="fill:none;stroke:#f5deb3;stroke-linecap:square;"/>
   </g>
   <g id="line2d_25"/>
   <g id="line2d_26">
    <path clip-path="url(#p4b24e7e61f)" d="
M323.943 359.056
L323.943 354.494
L339.004 354.494
L339.004 349.932
L339.08 349.932
L339.08 345.369
L343.455 345.369
L343.455 340.807
L345.815 340.807
L345.815 336.244
L346.388 336.244
L346.388 331.682
L347.607 331.682
L347.607 327.12
L347.776 327.12
L347.776 322.557
L347.823 322.557
L347.823 317.995
L348.227 317.995
L348.227 313.433
L348.325 313.433
L348.325 308.87
L348.859 308.87
L348.859 304.308
L348.955 304.308
L348.955 299.745
L349.012 299.745
L349.012 295.183
L349.075 295.183
L349.075 290.621
L349.454 290.621
L349.454 286.058
L349.559 286.058
L349.559 281.496
L349.654 281.496
L349.654 276.934
L350.252 276.934
L350.252 272.371
L350.874 272.371
L350.874 267.809
L351.377 267.809
L351.377 263.246
L351.385 263.246
L351.385 258.684
L351.45 258.684
L351.45 254.122
L352.335 254.122
L352.335 249.559
L352.422 249.559
L352.422 244.997
L352.471 244.997
L352.471 240.435
L352.584 240.435
L352.584 235.872
L353.619 235.872
L353.619 231.31
L353.983 231.31
L353.983 226.747
L355.709 226.747
L355.709 222.185
L356.146 222.185
L356.146 217.623
L357.08 217.623
L357.08 213.06
L359.078 213.06
L359.078 208.498
L359.163 208.498
L359.163 203.936
L364.34 203.936
L364.34 199.373
L367.656 199.373
L367.656 194.811
L375.172 194.811
L375.172 190.248
L379.885 190.248
L379.885 185.686
L381.966 185.686
L381.966 181.124
L383.355 181.124
L383.355 176.561
L383.431 176.561
L383.431 171.999
L384.738 171.999
L384.738 167.437
L384.812 167.437
L384.812 162.874
L385.05 162.874
L385.05 158.312
L386.514 158.312
L386.514 153.749
L393.37 153.749
L393.37 149.187
L393.731 149.187
L393.731 144.625
L394.256 144.625
L394.256 140.062
L401.17 140.062
L401.17 135.5
L401.883 135.5
L401.883 130.938
L402.571 130.938
L402.571 126.375
L403.138 126.375
L403.138 121.813
L414.103 121.813
L414.103 117.25
L421.485 117.25
L421.485 112.688
L451.9 112.688
L451.9 108.126
L456.215 108.126
L456.215 103.563
L457.237 103.563
L457.237 99.0009
L459.807 99.0009
L459.807 94.4385
L467.394 94.4385
L467.394 89.8761
L467.394 89.8761
L467.394 89.8761
L511.322 89.8761" style="fill:none;stroke:#f5deb3;stroke-linecap:square;"/>
   </g>
   <g id="line2d_27"/>
   <g id="line2d_28">
    <path clip-path="url(#p4b24e7e61f)" d="
M301.504 359.056
L301.504 354.494
L301.504 354.494
L301.504 354.494
L301.568 354.494
L301.568 349.932
L301.692 349.932
L301.692 345.369
L301.987 345.369
L302.038 336.244
L302.29 336.244
L302.29 331.682
L302.43 331.682
L302.43 327.12
L303.016 327.12
L303.124 317.995
L303.171 317.995
L303.171 313.433
L303.813 313.433
L303.813 308.87
L304.155 308.87
L304.155 304.308
L304.645 304.308
L304.714 290.621
L304.857 290.621
L304.857 286.058
L305.13 286.058
L305.13 281.496
L305.628 281.496
L305.628 276.934
L306.067 276.934
L306.067 272.371
L306.213 272.371
L306.213 267.809
L306.939 267.809
L306.939 263.246
L307.221 263.246
L307.221 258.684
L307.68 258.684
L307.68 254.122
L307.997 254.122
L307.997 249.559
L308.518 249.559
L308.518 244.997
L309.66 244.997
L309.697 235.872
L310.043 235.872
L310.043 231.31
L310.17 231.31
L310.17 226.747
L310.813 226.747
L310.813 222.185
L311.691 222.185
L311.73 213.06
L312.291 213.06
L312.363 194.811
L313.25 194.811
L313.25 190.248
L313.476 190.248
L313.476 185.686
L313.832 185.686
L313.832 181.124
L314.127 181.124
L314.127 176.561
L314.524 176.561
L314.535 167.437
L315.545 167.437
L315.545 162.874
L316.038 162.874
L316.038 158.312
L317.33 158.312
L317.33 153.749
L324.571 153.749
L324.571 149.187
L324.989 149.187
L324.989 144.625
L325.935 144.625
L325.935 140.062
L326.365 140.062
L326.365 135.5
L326.545 135.5
L326.545 130.938
L327.261 130.938
L327.261 126.375
L327.513 126.375
L327.513 121.813
L327.949 121.813
L327.949 117.25
L328.576 117.25
L328.576 112.688
L328.815 112.688
L328.815 108.126
L329.915 108.126
L329.915 103.563
L331.754 103.563
L331.754 99.0009
L331.89 99.0009
L331.89 94.4385
L335.202 94.4385
L335.202 89.8761
L336.067 89.8761
L336.067 85.3138
L339.711 85.3138
L339.711 80.7514
L340.933 80.7514
L340.933 76.189
L345.952 76.189
L345.952 71.6266
L346.767 71.6266
L346.767 67.0643
L347.717 67.0643
L347.792 57.9395
L347.861 57.9395
L347.861 53.3771
L348.254 53.3771
L348.254 48.8148
L348.387 48.8148
L348.387 44.2524
L349.757 44.2524
L349.811 35.1276
L351.696 35.1276
L351.696 30.5653
L352.782 30.5653
L352.782 26.0029
L354.022 26.0029
L354.022 21.4405
L354.924 21.4405
L354.924 16.8781
L354.924 16.8781
L511.322 16.8781
L511.322 16.8781" style="fill:none;stroke:#f5deb3;stroke-linecap:square;"/>
   </g>
   <g id="line2d_29"/>
   <g id="line2d_30"/>
   <g id="line2d_31">
    <path clip-path="url(#p4b24e7e61f)" d="
M105.283 359.056
L105.283 354.494
L108.049 354.494
L108.049 349.932
L112.546 349.932
L112.546 345.369
L128.24 345.369
L128.24 340.807
L134.083 340.807
L134.083 336.244
L137.272 336.244
L137.272 331.682
L137.506 331.682
L137.506 327.12
L137.506 327.12
L137.506 322.557
L139.983 322.557
L139.983 317.995
L146.159 317.995
L146.159 313.433
L147.417 313.433
L147.417 308.87
L148.117 308.87
L148.117 304.308
L149.973 304.308
L149.973 299.745
L165.142 299.745
L165.142 295.183
L169.2 295.183
L169.2 290.621
L216.403 290.621
L216.403 286.058
L216.985 286.058
L216.985 281.496
L217.558 281.496
L217.558 276.934
L218.196 276.934
L218.196 272.371
L219.926 272.371
L219.926 267.809
L221.265 267.809
L221.265 263.246
L221.686 263.246
L221.686 258.684
L222.448 258.684
L222.448 254.122
L222.983 254.122
L222.983 249.559
L223.426 249.559
L223.426 244.997
L224.235 244.997
L224.235 240.435
L226.499 240.435
L226.499 235.872
L226.537 235.872
L226.537 231.31
L226.748 231.31
L226.748 226.747
L227.616 226.747
L227.616 222.185
L228.391 222.185
L228.391 217.623
L229.203 217.623
L229.203 213.06
L229.31 213.06
L229.31 208.498
L229.363 208.498
L229.363 203.936
L229.857 203.936
L229.857 199.373
L230.602 199.373
L230.602 194.811
L231.466 194.811
L231.466 190.248
L232.031 190.248
L232.031 185.686
L232.195 185.686
L232.195 181.124
L385.637 181.124
L385.637 176.561
L385.685 176.561
L385.685 171.999
L408.455 171.999
L408.455 167.437
L409.149 167.437
L409.149 162.874
L434.863 162.874
L434.863 158.312
L450.982 158.312
L450.982 153.749
L454.917 153.749
L454.917 149.187
L456.363 149.187
L456.363 144.625
L456.829 144.625
L456.829 140.062
L457.841 140.062
L457.841 135.5
L457.841 135.5
L457.841 135.5
L511.322 135.5" style="fill:none;stroke:#000000;stroke-linecap:square;"/>
   </g>
   <g id="line2d_32">
    <defs>
     <path d="
M-6.66134e-16 14.1421
L8.48528 0
L-6.66134e-16 -14.1421
L-8.48528 -1.77636e-15
z
" id="m56f85d7cf4" style="stroke:#000000;stroke-linejoin:miter;"/>
    </defs>
    <g clip-path="url(#p4b24e7e61f)">
     <use style="fill:none;stroke:#000000;stroke-linejoin:miter;" x="146.159278072" xlink:href="#m56f85d7cf4" y="317.994956683"/>
     <use style="fill:none;stroke:#000000;stroke-linejoin:miter;" x="216.985291367" xlink:href="#m56f85d7cf4" y="286.05832302"/>
     <use style="fill:none;stroke:#000000;stroke-linejoin:miter;" x="229.203015417" xlink:href="#m56f85d7cf4" y="217.622679455"/>
     <use style="fill:none;stroke:#000000;stroke-linejoin:miter;" x="232.195336068" xlink:href="#m56f85d7cf4" y="185.686045792"/>
     <use style="fill:none;stroke:#000000;stroke-linejoin:miter;" x="408.454905967" xlink:href="#m56f85d7cf4" y="171.998917079"/>
     <use style="fill:none;stroke:#000000;stroke-linejoin:miter;" x="457.840895424" xlink:href="#m56f85d7cf4" y="140.062283416"/>
     <use style="fill:none;stroke:#000000;stroke-linejoin:miter;" x="457.840895424" xlink:href="#m56f85d7cf4" y="135.499907178"/>
     <use style="fill:none;stroke:#000000;stroke-linejoin:miter;" x="475.624726043" xlink:href="#m56f85d7cf4" y="135.499907178"/>
    </g>
   </g>
   <g id="line2d_33"/>
   <g id="line2d_34">
    <path clip-path="url(#p4b24e7e61f)" d="
M134.845 359.056
L134.845 354.494
L149.309 354.494
L149.309 349.932
L152.048 349.932
L152.048 345.369
L155.729 345.369
L155.729 340.807
L155.869 340.807
L155.869 336.244
L160.562 336.244
L160.562 331.682
L167.33 331.682
L167.33 327.12
L174.782 327.12
L174.782 322.557
L175.512 322.557
L175.512 317.995
L176.93 317.995
L176.93 313.433
L177.466 313.433
L177.466 308.87
L178.293 308.87
L178.293 304.308
L178.663 304.308
L178.663 299.745
L190.928 299.745
L190.928 295.183
L197.786 295.183
L197.786 290.621
L310.743 290.621
L310.743 286.058
L310.748 286.058
L310.748 281.496
L311.859 281.496
L311.859 276.934
L312.308 276.934
L312.308 272.371
L312.348 272.371
L312.348 267.809
L313.036 267.809
L313.036 263.246
L313.228 263.246
L313.228 258.684
L313.382 258.684
L313.382 254.122
L313.451 254.122
L313.451 249.559
L313.737 249.559
L313.737 244.997
L314.076 244.997
L314.076 240.435
L314.101 240.435
L314.101 235.872
L314.742 235.872
L314.742 231.31
L315.83 231.31
L315.83 226.747
L317.782 226.747
L317.782 222.185
L327.017 222.185
L327.017 217.623
L327.074 217.623
L327.074 213.06
L327.551 213.06
L327.551 208.498
L327.554 208.498
L327.554 203.936
L327.726 203.936
L327.726 199.373
L328.287 199.373
L328.287 194.811
L328.59 194.811
L328.59 190.248
L328.87 190.248
L328.87 185.686
L329.031 185.686
L329.031 181.124
L329.873 181.124
L329.873 176.561
L330.393 176.561
L330.393 171.999
L330.728 171.999
L330.728 167.437
L330.832 167.437
L330.832 162.874
L336.68 162.874
L336.68 158.312
L356.788 158.312
L356.788 153.749
L391.47 153.749
L391.47 149.187
L391.47 149.187
L391.47 149.187
L511.322 149.187" style="fill:none;stroke:#000000;stroke-linecap:square;"/>
   </g>
   <g id="line2d_35">
    <defs>
     <path d="
M0 7.5
C1.98902 7.5 3.89685 6.70975 5.3033 5.3033
C6.70975 3.89685 7.5 1.98902 7.5 0
C7.5 -1.98902 6.70975 -3.89685 5.3033 -5.3033
C3.89685 -6.70975 1.98902 -7.5 0 -7.5
C-1.98902 -7.5 -3.89685 -6.70975 -5.3033 -5.3033
C-6.70975 -3.89685 -7.5 -1.98902 -7.5 0
C-7.5 1.98902 -6.70975 3.89685 -5.3033 5.3033
C-3.89685 6.70975 -1.98902 7.5 0 7.5
z
" id="m7d63b959ce" style="stroke:#000000;"/>
    </defs>
    <g clip-path="url(#p4b24e7e61f)">
     <use style="fill:none;stroke:#000000;" x="155.868733247" xlink:href="#m7d63b959ce" y="340.806837871"/>
     <use style="fill:none;stroke:#000000;" x="190.927654066" xlink:href="#m7d63b959ce" y="299.745451733"/>
     <use style="fill:none;stroke:#000000;" x="310.742812712" xlink:href="#m7d63b959ce" y="290.620699257"/>
     <use style="fill:none;stroke:#000000;" x="327.07407197" xlink:href="#m7d63b959ce" y="217.622679455"/>
     <use style="fill:none;stroke:#000000;" x="336.680476512" xlink:href="#m7d63b959ce" y="162.874164604"/>
     <use style="fill:none;stroke:#000000;" x="391.469507862" xlink:href="#m7d63b959ce" y="149.187035891"/>
     <use style="fill:none;stroke:#000000;" x="393.484155834" xlink:href="#m7d63b959ce" y="149.187035891"/>
     <use style="fill:none;stroke:#000000;" x="475.624726043" xlink:href="#m7d63b959ce" y="149.187035891"/>
    </g>
   </g>
   <g id="line2d_36"/>
   <g id="line2d_37">
    <path clip-path="url(#p4b24e7e61f)" d="
M195.429 359.056
L195.429 354.494
L197.57 354.494
L197.57 349.932
L197.958 349.932
L197.958 345.369
L199.794 345.369
L199.794 340.807
L201.618 340.807
L201.618 336.244
L202.345 336.244
L202.345 331.682
L203.865 331.682
L203.865 327.12
L204.297 327.12
L204.297 322.557
L204.69 322.557
L204.69 317.995
L205.6 317.995
L205.6 313.433
L206.99 313.433
L206.99 308.87
L207.056 308.87
L207.056 304.308
L209.493 304.308
L209.493 299.745
L211.01 299.745
L211.01 295.183
L211.394 295.183
L211.394 290.621
L236.34 290.621
L236.34 286.058
L240.446 286.058
L240.446 281.496
L242.124 281.496
L242.124 276.934
L383.02 276.934
L383.02 272.371
L385.983 272.371
L385.983 267.809
L387.09 267.809
L387.09 263.246
L441.888 263.246
L441.888 258.684
L451.012 258.684
L451.012 254.122
L452.224 254.122
L452.224 249.559
L460.37 249.559
L460.37 244.997
L465.161 244.997
L465.161 240.435
L467.251 240.435
L467.251 235.872
L470.038 235.872
L470.038 231.31
L472.959 231.31
L472.959 226.747
L472.959 226.747
L472.959 226.747
L511.322 226.747" style="fill:none;stroke:#00bfbf;stroke-linecap:square;"/>
   </g>
   <g id="line2d_38">
    <defs>
     <path d="
M-6.66134e-16 14.1421
L8.48528 0
L-6.66134e-16 -14.1421
L-8.48528 -1.77636e-15
z
" id="m3ed5c48278" style="stroke:#00bfbf;stroke-linejoin:miter;"/>
    </defs>
    <g clip-path="url(#p4b24e7e61f)">
     <use style="fill:none;stroke:#00bfbf;stroke-linejoin:miter;" x="204.689639541" xlink:href="#m3ed5c48278" y="322.557332921"/>
     <use style="fill:none;stroke:#00bfbf;stroke-linejoin:miter;" x="240.446337802" xlink:href="#m3ed5c48278" y="286.05832302"/>
     <use style="fill:none;stroke:#00bfbf;stroke-linejoin:miter;" x="242.124189589" xlink:href="#m3ed5c48278" y="281.495946782"/>
     <use style="fill:none;stroke:#00bfbf;stroke-linejoin:miter;" x="387.090081102" xlink:href="#m3ed5c48278" y="267.808818069"/>
     <use style="fill:none;stroke:#00bfbf;stroke-linejoin:miter;" x="470.038449144" xlink:href="#m3ed5c48278" y="235.872184406"/>
     <use style="fill:none;stroke:#00bfbf;stroke-linejoin:miter;" x="472.959425051" xlink:href="#m3ed5c48278" y="226.747431931"/>
     <use style="fill:none;stroke:#00bfbf;stroke-linejoin:miter;" x="475.624726043" xlink:href="#m3ed5c48278" y="226.747431931"/>
    </g>
   </g>
   <g id="line2d_39"/>
   <g id="line2d_40">
    <path clip-path="url(#p4b24e7e61f)" d="
M287.208 359.056
L287.208 354.494
L290.66 354.494
L290.66 349.932
L290.711 349.932
L290.711 345.369
L290.733 345.369
L290.733 340.807
L290.888 340.807
L290.888 336.244
L290.945 336.244
L290.945 331.682
L291.81 331.682
L291.81 327.12
L292.888 327.12
L292.888 322.557
L293.034 322.557
L293.034 317.995
L293.558 317.995
L293.558 313.433
L293.652 313.433
L293.652 308.87
L294.213 308.87
L294.213 304.308
L294.534 304.308
L294.534 299.745
L294.734 299.745
L294.734 295.183
L295.742 295.183
L295.742 290.621
L337.136 290.621
L337.136 286.058
L337.567 286.058
L337.567 281.496
L337.819 281.496
L337.819 276.934
L337.963 276.934
L337.963 272.371
L337.965 272.371
L337.965 267.809
L338.271 267.809
L338.271 263.246
L339.057 263.246
L339.057 258.684
L339.967 258.684
L339.967 254.122
L342.098 254.122
L342.098 249.559
L358.682 249.559
L358.682 244.997
L358.726 244.997
L358.726 240.435
L359.306 240.435
L359.306 235.872
L359.579 235.872
L359.579 231.31
L359.677 231.31
L359.677 226.747
L359.846 226.747
L359.846 222.185
L360.1 222.185
L360.1 217.623
L360.186 217.623
L360.186 213.06
L360.957 213.06
L360.957 208.498
L361.431 208.498
L361.431 203.936
L363.614 203.936
L363.614 199.373
L381.568 199.373
L381.568 194.811
L382.723 194.811
L382.723 190.248
L389.598 190.248
L389.598 185.686
L390.057 185.686
L390.057 181.124
L390.057 181.124
L390.057 181.124
L511.322 181.124" style="fill:none;stroke:#00bfbf;stroke-linecap:square;"/>
   </g>
   <g id="line2d_41">
    <defs>
     <path d="
M0 7.5
C1.98902 7.5 3.89685 6.70975 5.3033 5.3033
C6.70975 3.89685 7.5 1.98902 7.5 0
C7.5 -1.98902 6.70975 -3.89685 5.3033 -5.3033
C3.89685 -6.70975 1.98902 -7.5 0 -7.5
C-1.98902 -7.5 -3.89685 -6.70975 -5.3033 -5.3033
C-6.70975 -3.89685 -7.5 -1.98902 -7.5 0
C-7.5 1.98902 -6.70975 3.89685 -5.3033 5.3033
C-3.89685 6.70975 -1.98902 7.5 0 7.5
z
" id="mbdc0cc27b6" style="stroke:#00bfbf;"/>
    </defs>
    <g clip-path="url(#p4b24e7e61f)">
     <use style="fill:none;stroke:#00bfbf;" x="295.742168358" xlink:href="#mbdc0cc27b6" y="295.183075495"/>
     <use style="fill:none;stroke:#00bfbf;" x="339.967140499" xlink:href="#mbdc0cc27b6" y="258.684065594"/>
     <use style="fill:none;stroke:#00bfbf;" x="381.567625201" xlink:href="#mbdc0cc27b6" y="199.373174505"/>
     <use style="fill:none;stroke:#00bfbf;" x="390.05662243" xlink:href="#mbdc0cc27b6" y="181.123669554"/>
     <use style="fill:none;stroke:#00bfbf;" x="393.484155834" xlink:href="#mbdc0cc27b6" y="181.123669554"/>
     <use style="fill:none;stroke:#00bfbf;" x="475.624726043" xlink:href="#mbdc0cc27b6" y="181.123669554"/>
    </g>
   </g>
   <g id="line2d_42"/>
   <g id="line2d_43">
    <path clip-path="url(#p4b24e7e61f)" d="
M281.497 359.056
L281.497 354.494
L292.412 354.494
L292.412 349.932
L297.264 349.932
L297.264 345.369
L299.246 345.369
L299.246 340.807
L315.645 340.807
L315.645 336.244
L317.894 336.244
L317.894 331.682
L318.269 331.682
L318.269 327.12
L320.713 327.12
L320.713 322.557
L321.397 322.557
L321.397 317.995
L322.673 317.995
L322.673 313.433
L324.682 313.433
L324.682 308.87
L325.414 308.87
L325.414 304.308
L326.683 304.308
L326.683 299.745
L327.598 299.745
L327.598 295.183
L329.008 295.183
L329.008 290.621
L332.628 290.621
L332.628 286.058
L452.454 286.058
L452.454 281.496
L470.952 281.496
L470.952 276.934
L470.952 276.934
L470.952 276.934
L511.322 276.934" style="fill:none;stroke:#bf00bf;stroke-linecap:square;"/>
   </g>
   <g id="line2d_44">
    <defs>
     <path d="
M-6.66134e-16 14.1421
L8.48528 0
L-6.66134e-16 -14.1421
L-8.48528 -1.77636e-15
z
" id="m2a6c1dc800" style="stroke:#bf00bf;stroke-linejoin:miter;"/>
    </defs>
    <g clip-path="url(#p4b24e7e61f)">
     <use style="fill:none;stroke:#bf00bf;stroke-linejoin:miter;" x="320.712560585" xlink:href="#m2a6c1dc800" y="327.119709158"/>
     <use style="fill:none;stroke:#bf00bf;stroke-linejoin:miter;" x="329.008379126" xlink:href="#m2a6c1dc800" y="295.183075495"/>
     <use style="fill:none;stroke:#bf00bf;stroke-linejoin:miter;" x="332.628490995" xlink:href="#m2a6c1dc800" y="290.620699257"/>
     <use style="fill:none;stroke:#bf00bf;stroke-linejoin:miter;" x="470.952095482" xlink:href="#m2a6c1dc800" y="281.495946782"/>
     <use style="fill:none;stroke:#bf00bf;stroke-linejoin:miter;" x="470.952095482" xlink:href="#m2a6c1dc800" y="276.933570545"/>
     <use style="fill:none;stroke:#bf00bf;stroke-linejoin:miter;" x="475.624726043" xlink:href="#m2a6c1dc800" y="276.933570545"/>
    </g>
   </g>
   <g id="line2d_45"/>
   <g id="line2d_46">
    <path clip-path="url(#p4b24e7e61f)" d="
M353.621 359.056
L353.621 354.494
L356.37 354.494
L356.37 349.932
L357.602 349.932
L357.602 345.369
L358.675 345.369
L358.675 340.807
L359.232 340.807
L359.232 336.244
L359.4 336.244
L359.4 331.682
L359.732 331.682
L359.732 327.12
L359.739 327.12
L359.739 322.557
L360.583 322.557
L360.583 317.995
L360.602 317.995
L360.602 313.433
L361.309 313.433
L361.309 308.87
L361.826 308.87
L361.826 304.308
L362.496 304.308
L362.496 299.745
L363.942 299.745
L363.942 295.183
L364.412 295.183
L364.412 290.621
L365.345 290.621
L365.345 286.058
L365.948 286.058
L365.948 281.496
L389.273 281.496
L389.273 276.934
L389.273 276.934
L389.273 276.934
L511.322 276.934" style="fill:none;stroke:#bf00bf;stroke-linecap:square;"/>
   </g>
   <g id="line2d_47">
    <defs>
     <path d="
M0 7.5
C1.98902 7.5 3.89685 6.70975 5.3033 5.3033
C6.70975 3.89685 7.5 1.98902 7.5 0
C7.5 -1.98902 6.70975 -3.89685 5.3033 -5.3033
C3.89685 -6.70975 1.98902 -7.5 0 -7.5
C-1.98902 -7.5 -3.89685 -6.70975 -5.3033 -5.3033
C-6.70975 -3.89685 -7.5 -1.98902 -7.5 0
C-7.5 1.98902 -6.70975 3.89685 -5.3033 5.3033
C-3.89685 6.70975 -1.98902 7.5 0 7.5
z
" id="mcc0b4a10ca" style="stroke:#bf00bf;"/>
    </defs>
    <g clip-path="url(#p4b24e7e61f)">
     <use style="fill:none;stroke:#bf00bf;" x="362.49641987" xlink:href="#mcc0b4a10ca" y="304.30782797"/>
     <use style="fill:none;stroke:#bf00bf;" x="389.273070728" xlink:href="#mcc0b4a10ca" y="281.495946782"/>
     <use style="fill:none;stroke:#bf00bf;" x="389.273070728" xlink:href="#mcc0b4a10ca" y="276.933570545"/>
     <use style="fill:none;stroke:#bf00bf;" x="393.484155834" xlink:href="#mcc0b4a10ca" y="276.933570545"/>
     <use style="fill:none;stroke:#bf00bf;" x="475.624726043" xlink:href="#mcc0b4a10ca" y="276.933570545"/>
    </g>
   </g>
   <g id="line2d_48"/>
   <g id="line2d_49">
    <path clip-path="url(#p4b24e7e61f)" d="
M306.37 359.056
L306.37 354.494
L452.661 354.494
L452.661 349.932
L452.661 349.932
L452.661 349.932
L511.322 349.932" style="fill:none;stroke:#ff0000;stroke-linecap:square;stroke-width:3.0;"/>
   </g>
   <g id="line2d_50">
    <defs>
     <path d="
M-6.66134e-16 14.1421
L8.48528 0
L-6.66134e-16 -14.1421
L-8.48528 -1.77636e-15
z
" id="m8915881aee" style="stroke:#ff0000;stroke-linejoin:miter;stroke-width:3.0;"/>
    </defs>
    <g clip-path="url(#p4b24e7e61f)">
     <use style="fill:none;stroke:#ff0000;stroke-linejoin:miter;stroke-width:3.0;" x="306.369511468" xlink:href="#m8915881aee" y="359.056342822"/>
     <use style="fill:none;stroke:#ff0000;stroke-linejoin:miter;stroke-width:3.0;" x="306.369511468" xlink:href="#m8915881aee" y="359.056342822"/>
     <use style="fill:none;stroke:#ff0000;stroke-linejoin:miter;stroke-width:3.0;" x="452.660596139" xlink:href="#m8915881aee" y="354.493966584"/>
     <use style="fill:none;stroke:#ff0000;stroke-linejoin:miter;stroke-width:3.0;" x="452.660596139" xlink:href="#m8915881aee" y="349.931590347"/>
     <use style="fill:none;stroke:#ff0000;stroke-linejoin:miter;stroke-width:3.0;" x="475.624726043" xlink:href="#m8915881aee" y="349.931590347"/>
    </g>
   </g>
   <g id="line2d_51"/>
   <g id="line2d_52"/>
   <g id="line2d_53">
    <path clip-path="url(#p4b24e7e61f)" d="
M478.172 359.056
L478.172 13.4563" style="fill:none;stroke:#000000;stroke-linecap:square;"/>
    <defs>
     <path d="
M-10 0
L10 0
M0 10
L0 -10" id="m75ce5bc324" style="stroke:#000000;stroke-width:3.0;"/>
    </defs>
    <g clip-path="url(#p4b24e7e61f)">
     <use style="stroke:#000000;stroke-width:3.0;" x="478.172000048" xlink:href="#m75ce5bc324" y="359.056342822"/>
     <use style="stroke:#000000;stroke-width:3.0;" x="478.172000048" xlink:href="#m75ce5bc324" y="13.4563428218"/>
    </g>
   </g>
   <g id="line2d_54">
    <path clip-path="url(#p4b24e7e61f)" d="
M393.485 359.056
L393.485 13.4563" style="fill:none;stroke:#000000;stroke-linecap:square;"/>
    <defs>
     <path d="
M0 7.5
C1.98902 7.5 3.89685 6.70975 5.3033 5.3033
C6.70975 3.89685 7.5 1.98902 7.5 0
C7.5 -1.98902 6.70975 -3.89685 5.3033 -5.3033
C3.89685 -6.70975 1.98902 -7.5 0 -7.5
C-1.98902 -7.5 -3.89685 -6.70975 -5.3033 -5.3033
C-6.70975 -3.89685 -7.5 -1.98902 -7.5 0
C-7.5 1.98902 -6.70975 3.89685 -5.3033 5.3033
C-3.89685 6.70975 -1.98902 7.5 0 7.5
z
" id="mc33d4e4daf" style="stroke:#000000;stroke-width:3.0;"/>
    </defs>
    <g clip-path="url(#p4b24e7e61f)">
     <use style="fill:none;stroke:#000000;stroke-width:3.0;" x="393.484512564" xlink:href="#mc33d4e4daf" y="359.056342822"/>
     <use style="fill:none;stroke:#000000;stroke-width:3.0;" x="393.484512564" xlink:href="#mc33d4e4daf" y="13.4563428218"/>
    </g>
   </g>
   <g id="matplotlib.axis_1">
    <g id="xtick_1">
     <g id="line2d_55">
      <path clip-path="url(#p4b24e7e61f)" d="
M64.9219 359.056
L64.9219 13.4563" style="fill:none;stroke:#000000;stroke-dasharray:1.000000,3.000000;stroke-dashoffset:0.0;stroke-width:0.5;"/>
     </g>
     <g id="line2d_56">
      <defs>
       <path d="
M0 0
L0 -4" id="m93b0483c22" style="stroke:#000000;stroke-width:0.5;"/>
      </defs>
      <g>
       <use style="stroke:#000000;stroke-width:0.5;" x="64.921875" xlink:href="#m93b0483c22" y="359.056342822"/>
      </g>
     </g>
     <g id="line2d_57">
      <defs>
       <path d="
M0 0
L0 4" id="m741efc42ff" style="stroke:#000000;stroke-width:0.5;"/>
      </defs>
      <g>
       <use style="stroke:#000000;stroke-width:0.5;" x="64.921875" xlink:href="#m741efc42ff" y="13.4563428218"/>
      </g>
     </g>
     <g id="text_1">
      <!-- 0 -->
      <defs>
       <path d="
M31.7812 66.4062
Q24.1719 66.4062 20.3281 58.9062
Q16.5 51.4219 16.5 36.375
Q16.5 21.3906 20.3281 13.8906
Q24.1719 6.39062 31.7812 6.39062
Q39.4531 6.39062 43.2812 13.8906
Q47.125 21.3906 47.125 36.375
Q47.125 51.4219 43.2812 58.9062
Q39.4531 66.4062 31.7812 66.4062
M31.7812 74.2188
Q44.0469 74.2188 50.5156 64.5156
Q56.9844 54.8281 56.9844 36.375
Q56.9844 17.9688 50.5156 8.26562
Q44.0469 -1.42188 31.7812 -1.42188
Q19.5312 -1.42188 13.0625 8.26562
Q6.59375 17.9688 6.59375 36.375
Q6.59375 54.8281 13.0625 64.5156
Q19.5312 74.2188 31.7812 74.2188" id="BitstreamVeraSans-Roman-30"/>
      </defs>
      <g transform="translate(59.8828125 378.253217822)scale(0.2 -0.2)">
       <use xlink:href="#BitstreamVeraSans-Roman-30"/>
      </g>
     </g>
    </g>
    <g id="xtick_2">
     <g id="line2d_58">
      <path clip-path="url(#p4b24e7e61f)" d="
M147.062 359.056
L147.062 13.4563" style="fill:none;stroke:#000000;stroke-dasharray:1.000000,3.000000;stroke-dashoffset:0.0;stroke-width:0.5;"/>
     </g>
     <g id="line2d_59">
      <g>
       <use style="stroke:#000000;stroke-width:0.5;" x="147.062445209" xlink:href="#m93b0483c22" y="359.056342822"/>
      </g>
     </g>
     <g id="line2d_60">
      <g>
       <use style="stroke:#000000;stroke-width:0.5;" x="147.062445209" xlink:href="#m741efc42ff" y="13.4563428218"/>
      </g>
     </g>
     <g id="text_2">
      <!-- 1 -->
      <defs>
       <path d="
M12.4062 8.29688
L28.5156 8.29688
L28.5156 63.9219
L10.9844 60.4062
L10.9844 69.3906
L28.4219 72.9062
L38.2812 72.9062
L38.2812 8.29688
L54.3906 8.29688
L54.3906 0
L12.4062 0
z
" id="BitstreamVeraSans-Roman-31"/>
      </defs>
      <g transform="translate(142.721820209 378.253217822)scale(0.2 -0.2)">
       <use xlink:href="#BitstreamVeraSans-Roman-31"/>
      </g>
     </g>
    </g>
    <g id="xtick_3">
     <g id="line2d_61">
      <path clip-path="url(#p4b24e7e61f)" d="
M229.203 359.056
L229.203 13.4563" style="fill:none;stroke:#000000;stroke-dasharray:1.000000,3.000000;stroke-dashoffset:0.0;stroke-width:0.5;"/>
     </g>
     <g id="line2d_62">
      <g>
       <use style="stroke:#000000;stroke-width:0.5;" x="229.203015417" xlink:href="#m93b0483c22" y="359.056342822"/>
      </g>
     </g>
     <g id="line2d_63">
      <g>
       <use style="stroke:#000000;stroke-width:0.5;" x="229.203015417" xlink:href="#m741efc42ff" y="13.4563428218"/>
      </g>
     </g>
     <g id="text_3">
      <!-- 2 -->
      <defs>
       <path d="
M19.1875 8.29688
L53.6094 8.29688
L53.6094 0
L7.32812 0
L7.32812 8.29688
Q12.9375 14.1094 22.625 23.8906
Q32.3281 33.6875 34.8125 36.5312
Q39.5469 41.8438 41.4219 45.5312
Q43.3125 49.2188 43.3125 52.7812
Q43.3125 58.5938 39.2344 62.25
Q35.1562 65.9219 28.6094 65.9219
Q23.9688 65.9219 18.8125 64.3125
Q13.6719 62.7031 7.8125 59.4219
L7.8125 69.3906
Q13.7656 71.7812 18.9375 73
Q24.125 74.2188 28.4219 74.2188
Q39.75 74.2188 46.4844 68.5469
Q53.2188 62.8906 53.2188 53.4219
Q53.2188 48.9219 51.5312 44.8906
Q49.8594 40.875 45.4062 35.4062
Q44.1875 33.9844 37.6406 27.2188
Q31.1094 20.4531 19.1875 8.29688" id="BitstreamVeraSans-Roman-32"/>
      </defs>
      <g transform="translate(224.574890417 378.253217822)scale(0.2 -0.2)">
       <use xlink:href="#BitstreamVeraSans-Roman-32"/>
      </g>
     </g>
    </g>
    <g id="xtick_4">
     <g id="line2d_64">
      <path clip-path="url(#p4b24e7e61f)" d="
M311.344 359.056
L311.344 13.4563" style="fill:none;stroke:#000000;stroke-dasharray:1.000000,3.000000;stroke-dashoffset:0.0;stroke-width:0.5;"/>
     </g>
     <g id="line2d_65">
      <g>
       <use style="stroke:#000000;stroke-width:0.5;" x="311.343585626" xlink:href="#m93b0483c22" y="359.056342822"/>
      </g>
     </g>
     <g id="line2d_66">
      <g>
       <use style="stroke:#000000;stroke-width:0.5;" x="311.343585626" xlink:href="#m741efc42ff" y="13.4563428218"/>
      </g>
     </g>
     <g id="text_4">
      <!-- 3 -->
      <defs>
       <path d="
M40.5781 39.3125
Q47.6562 37.7969 51.625 33
Q55.6094 28.2188 55.6094 21.1875
Q55.6094 10.4062 48.1875 4.48438
Q40.7656 -1.42188 27.0938 -1.42188
Q22.5156 -1.42188 17.6562 -0.515625
Q12.7969 0.390625 7.625 2.20312
L7.625 11.7188
Q11.7188 9.32812 16.5938 8.10938
Q21.4844 6.89062 26.8125 6.89062
Q36.0781 6.89062 40.9375 10.5469
Q45.7969 14.2031 45.7969 21.1875
Q45.7969 27.6406 41.2812 31.2656
Q36.7656 34.9062 28.7188 34.9062
L20.2188 34.9062
L20.2188 43.0156
L29.1094 43.0156
Q36.375 43.0156 40.2344 45.9219
Q44.0938 48.8281 44.0938 54.2969
Q44.0938 59.9062 40.1094 62.9062
Q36.1406 65.9219 28.7188 65.9219
Q24.6562 65.9219 20.0156 65.0312
Q15.375 64.1562 9.8125 62.3125
L9.8125 71.0938
Q15.4375 72.6562 20.3438 73.4375
Q25.25 74.2188 29.5938 74.2188
Q40.8281 74.2188 47.3594 69.1094
Q53.9062 64.0156 53.9062 55.3281
Q53.9062 49.2656 50.4375 45.0938
Q46.9688 40.9219 40.5781 39.3125" id="BitstreamVeraSans-Roman-33"/>
      </defs>
      <g transform="translate(306.545148126 378.253217822)scale(0.2 -0.2)">
       <use xlink:href="#BitstreamVeraSans-Roman-33"/>
      </g>
     </g>
    </g>
    <g id="xtick_5">
     <g id="line2d_67">
      <path clip-path="url(#p4b24e7e61f)" d="
M393.484 359.056
L393.484 13.4563" style="fill:none;stroke:#000000;stroke-dasharray:1.000000,3.000000;stroke-dashoffset:0.0;stroke-width:0.5;"/>
     </g>
     <g id="line2d_68">
      <g>
       <use style="stroke:#000000;stroke-width:0.5;" x="393.484155834" xlink:href="#m93b0483c22" y="359.056342822"/>
      </g>
     </g>
     <g id="line2d_69">
      <g>
       <use style="stroke:#000000;stroke-width:0.5;" x="393.484155834" xlink:href="#m741efc42ff" y="13.4563428218"/>
      </g>
     </g>
     <g id="text_5">
      <!-- 4 -->
      <defs>
       <path d="
M37.7969 64.3125
L12.8906 25.3906
L37.7969 25.3906
z

M35.2031 72.9062
L47.6094 72.9062
L47.6094 25.3906
L58.0156 25.3906
L58.0156 17.1875
L47.6094 17.1875
L47.6094 0
L37.7969 0
L37.7969 17.1875
L4.89062 17.1875
L4.89062 26.7031
z
" id="BitstreamVeraSans-Roman-34"/>
      </defs>
      <g transform="translate(388.171655834 378.253217822)scale(0.2 -0.2)">
       <use xlink:href="#BitstreamVeraSans-Roman-34"/>
      </g>
     </g>
    </g>
    <g id="xtick_6">
     <g id="line2d_70">
      <path clip-path="url(#p4b24e7e61f)" d="
M475.625 359.056
L475.625 13.4563" style="fill:none;stroke:#000000;stroke-dasharray:1.000000,3.000000;stroke-dashoffset:0.0;stroke-width:0.5;"/>
     </g>
     <g id="line2d_71">
      <g>
       <use style="stroke:#000000;stroke-width:0.5;" x="475.624726043" xlink:href="#m93b0483c22" y="359.056342822"/>
      </g>
     </g>
     <g id="line2d_72">
      <g>
       <use style="stroke:#000000;stroke-width:0.5;" x="475.624726043" xlink:href="#m741efc42ff" y="13.4563428218"/>
      </g>
     </g>
     <g id="text_6">
      <!-- 5 -->
      <defs>
       <path d="
M10.7969 72.9062
L49.5156 72.9062
L49.5156 64.5938
L19.8281 64.5938
L19.8281 46.7344
Q21.9688 47.4688 24.1094 47.8281
Q26.2656 48.1875 28.4219 48.1875
Q40.625 48.1875 47.75 41.5
Q54.8906 34.8125 54.8906 23.3906
Q54.8906 11.625 47.5625 5.09375
Q40.2344 -1.42188 26.9062 -1.42188
Q22.3125 -1.42188 17.5469 -0.640625
Q12.7969 0.140625 7.71875 1.70312
L7.71875 11.625
Q12.1094 9.23438 16.7969 8.0625
Q21.4844 6.89062 26.7031 6.89062
Q35.1562 6.89062 40.0781 11.3281
Q45.0156 15.7656 45.0156 23.3906
Q45.0156 31 40.0781 35.4375
Q35.1562 39.8906 26.7031 39.8906
Q22.75 39.8906 18.8125 39.0156
Q14.8906 38.1406 10.7969 36.2812
z
" id="BitstreamVeraSans-Roman-35"/>
      </defs>
      <g transform="translate(470.907538543 378.253217822)scale(0.2 -0.2)">
       <use xlink:href="#BitstreamVeraSans-Roman-35"/>
      </g>
     </g>
    </g>
    <g id="xtick_7">
     <g id="line2d_73">
      <defs>
       <path d="
M0 0
L0 -2" id="m177f7580d0" style="stroke:#000000;stroke-width:0.5;"/>
      </defs>
      <g>
       <use style="stroke:#000000;stroke-width:0.5;" x="89.6486504937" xlink:href="#m177f7580d0" y="359.056342822"/>
      </g>
     </g>
     <g id="line2d_74">
      <defs>
       <path d="
M0 0
L0 2" id="m5284c7e2a0" style="stroke:#000000;stroke-width:0.5;"/>
      </defs>
      <g>
       <use style="stroke:#000000;stroke-width:0.5;" x="89.6486504937" xlink:href="#m5284c7e2a0" y="13.4563428218"/>
      </g>
     </g>
    </g>
    <g id="xtick_8">
     <g id="line2d_75">
      <g>
       <use style="stroke:#000000;stroke-width:0.5;" x="104.112886921" xlink:href="#m177f7580d0" y="359.056342822"/>
      </g>
     </g>
     <g id="line2d_76">
      <g>
       <use style="stroke:#000000;stroke-width:0.5;" x="104.112886921" xlink:href="#m5284c7e2a0" y="13.4563428218"/>
      </g>
     </g>
    </g>
    <g id="xtick_9">
     <g id="line2d_77">
      <g>
       <use style="stroke:#000000;stroke-width:0.5;" x="114.375425987" xlink:href="#m177f7580d0" y="359.056342822"/>
      </g>
     </g>
     <g id="line2d_78">
      <g>
       <use style="stroke:#000000;stroke-width:0.5;" x="114.375425987" xlink:href="#m5284c7e2a0" y="13.4563428218"/>
      </g>
     </g>
    </g>
    <g id="xtick_10">
     <g id="line2d_79">
      <g>
       <use style="stroke:#000000;stroke-width:0.5;" x="122.335669715" xlink:href="#m177f7580d0" y="359.056342822"/>
      </g>
     </g>
     <g id="line2d_80">
      <g>
       <use style="stroke:#000000;stroke-width:0.5;" x="122.335669715" xlink:href="#m5284c7e2a0" y="13.4563428218"/>
      </g>
     </g>
    </g>
    <g id="xtick_11">
     <g id="line2d_81">
      <g>
       <use style="stroke:#000000;stroke-width:0.5;" x="128.839662415" xlink:href="#m177f7580d0" y="359.056342822"/>
      </g>
     </g>
     <g id="line2d_82">
      <g>
       <use style="stroke:#000000;stroke-width:0.5;" x="128.839662415" xlink:href="#m5284c7e2a0" y="13.4563428218"/>
      </g>
     </g>
    </g>
    <g id="xtick_12">
     <g id="line2d_83">
      <g>
       <use style="stroke:#000000;stroke-width:0.5;" x="134.338709889" xlink:href="#m177f7580d0" y="359.056342822"/>
      </g>
     </g>
     <g id="line2d_84">
      <g>
       <use style="stroke:#000000;stroke-width:0.5;" x="134.338709889" xlink:href="#m5284c7e2a0" y="13.4563428218"/>
      </g>
     </g>
    </g>
    <g id="xtick_13">
     <g id="line2d_85">
      <g>
       <use style="stroke:#000000;stroke-width:0.5;" x="139.102201481" xlink:href="#m177f7580d0" y="359.056342822"/>
      </g>
     </g>
     <g id="line2d_86">
      <g>
       <use style="stroke:#000000;stroke-width:0.5;" x="139.102201481" xlink:href="#m5284c7e2a0" y="13.4563428218"/>
      </g>
     </g>
    </g>
    <g id="xtick_14">
     <g id="line2d_87">
      <g>
       <use style="stroke:#000000;stroke-width:0.5;" x="143.303898843" xlink:href="#m177f7580d0" y="359.056342822"/>
      </g>
     </g>
     <g id="line2d_88">
      <g>
       <use style="stroke:#000000;stroke-width:0.5;" x="143.303898843" xlink:href="#m5284c7e2a0" y="13.4563428218"/>
      </g>
     </g>
    </g>
    <g id="xtick_15">
     <g id="line2d_89">
      <g>
       <use style="stroke:#000000;stroke-width:0.5;" x="171.789220702" xlink:href="#m177f7580d0" y="359.056342822"/>
      </g>
     </g>
     <g id="line2d_90">
      <g>
       <use style="stroke:#000000;stroke-width:0.5;" x="171.789220702" xlink:href="#m5284c7e2a0" y="13.4563428218"/>
      </g>
     </g>
    </g>
    <g id="xtick_16">
     <g id="line2d_91">
      <g>
       <use style="stroke:#000000;stroke-width:0.5;" x="186.25345713" xlink:href="#m177f7580d0" y="359.056342822"/>
      </g>
     </g>
     <g id="line2d_92">
      <g>
       <use style="stroke:#000000;stroke-width:0.5;" x="186.25345713" xlink:href="#m5284c7e2a0" y="13.4563428218"/>
      </g>
     </g>
    </g>
    <g id="xtick_17">
     <g id="line2d_93">
      <g>
       <use style="stroke:#000000;stroke-width:0.5;" x="196.515996196" xlink:href="#m177f7580d0" y="359.056342822"/>
      </g>
     </g>
     <g id="line2d_94">
      <g>
       <use style="stroke:#000000;stroke-width:0.5;" x="196.515996196" xlink:href="#m5284c7e2a0" y="13.4563428218"/>
      </g>
     </g>
    </g>
    <g id="xtick_18">
     <g id="line2d_95">
      <g>
       <use style="stroke:#000000;stroke-width:0.5;" x="204.476239923" xlink:href="#m177f7580d0" y="359.056342822"/>
      </g>
     </g>
     <g id="line2d_96">
      <g>
       <use style="stroke:#000000;stroke-width:0.5;" x="204.476239923" xlink:href="#m5284c7e2a0" y="13.4563428218"/>
      </g>
     </g>
    </g>
    <g id="xtick_19">
     <g id="line2d_97">
      <g>
       <use style="stroke:#000000;stroke-width:0.5;" x="210.980232624" xlink:href="#m177f7580d0" y="359.056342822"/>
      </g>
     </g>
     <g id="line2d_98">
      <g>
       <use style="stroke:#000000;stroke-width:0.5;" x="210.980232624" xlink:href="#m5284c7e2a0" y="13.4563428218"/>
      </g>
     </g>
    </g>
    <g id="xtick_20">
     <g id="line2d_99">
      <g>
       <use style="stroke:#000000;stroke-width:0.5;" x="216.479280097" xlink:href="#m177f7580d0" y="359.056342822"/>
      </g>
     </g>
     <g id="line2d_100">
      <g>
       <use style="stroke:#000000;stroke-width:0.5;" x="216.479280097" xlink:href="#m5284c7e2a0" y="13.4563428218"/>
      </g>
     </g>
    </g>
    <g id="xtick_21">
     <g id="line2d_101">
      <g>
       <use style="stroke:#000000;stroke-width:0.5;" x="221.24277169" xlink:href="#m177f7580d0" y="359.056342822"/>
      </g>
     </g>
     <g id="line2d_102">
      <g>
       <use style="stroke:#000000;stroke-width:0.5;" x="221.24277169" xlink:href="#m5284c7e2a0" y="13.4563428218"/>
      </g>
     </g>
    </g>
    <g id="xtick_22">
     <g id="line2d_103">
      <g>
       <use style="stroke:#000000;stroke-width:0.5;" x="225.444469051" xlink:href="#m177f7580d0" y="359.056342822"/>
      </g>
     </g>
     <g id="line2d_104">
      <g>
       <use style="stroke:#000000;stroke-width:0.5;" x="225.444469051" xlink:href="#m5284c7e2a0" y="13.4563428218"/>
      </g>
     </g>
    </g>
    <g id="xtick_23">
     <g id="line2d_105">
      <g>
       <use style="stroke:#000000;stroke-width:0.5;" x="253.929790911" xlink:href="#m177f7580d0" y="359.056342822"/>
      </g>
     </g>
     <g id="line2d_106">
      <g>
       <use style="stroke:#000000;stroke-width:0.5;" x="253.929790911" xlink:href="#m5284c7e2a0" y="13.4563428218"/>
      </g>
     </g>
    </g>
    <g id="xtick_24">
     <g id="line2d_107">
      <g>
       <use style="stroke:#000000;stroke-width:0.5;" x="268.394027338" xlink:href="#m177f7580d0" y="359.056342822"/>
      </g>
     </g>
     <g id="line2d_108">
      <g>
       <use style="stroke:#000000;stroke-width:0.5;" x="268.394027338" xlink:href="#m5284c7e2a0" y="13.4563428218"/>
      </g>
     </g>
    </g>
    <g id="xtick_25">
     <g id="line2d_109">
      <g>
       <use style="stroke:#000000;stroke-width:0.5;" x="278.656566405" xlink:href="#m177f7580d0" y="359.056342822"/>
      </g>
     </g>
     <g id="line2d_110">
      <g>
       <use style="stroke:#000000;stroke-width:0.5;" x="278.656566405" xlink:href="#m5284c7e2a0" y="13.4563428218"/>
      </g>
     </g>
    </g>
    <g id="xtick_26">
     <g id="line2d_111">
      <g>
       <use style="stroke:#000000;stroke-width:0.5;" x="286.616810132" xlink:href="#m177f7580d0" y="359.056342822"/>
      </g>
     </g>
     <g id="line2d_112">
      <g>
       <use style="stroke:#000000;stroke-width:0.5;" x="286.616810132" xlink:href="#m5284c7e2a0" y="13.4563428218"/>
      </g>
     </g>
    </g>
    <g id="xtick_27">
     <g id="line2d_113">
      <g>
       <use style="stroke:#000000;stroke-width:0.5;" x="293.120802832" xlink:href="#m177f7580d0" y="359.056342822"/>
      </g>
     </g>
     <g id="line2d_114">
      <g>
       <use style="stroke:#000000;stroke-width:0.5;" x="293.120802832" xlink:href="#m5284c7e2a0" y="13.4563428218"/>
      </g>
     </g>
    </g>
    <g id="xtick_28">
     <g id="line2d_115">
      <g>
       <use style="stroke:#000000;stroke-width:0.5;" x="298.619850306" xlink:href="#m177f7580d0" y="359.056342822"/>
      </g>
     </g>
     <g id="line2d_116">
      <g>
       <use style="stroke:#000000;stroke-width:0.5;" x="298.619850306" xlink:href="#m5284c7e2a0" y="13.4563428218"/>
      </g>
     </g>
    </g>
    <g id="xtick_29">
     <g id="line2d_117">
      <g>
       <use style="stroke:#000000;stroke-width:0.5;" x="303.383341898" xlink:href="#m177f7580d0" y="359.056342822"/>
      </g>
     </g>
     <g id="line2d_118">
      <g>
       <use style="stroke:#000000;stroke-width:0.5;" x="303.383341898" xlink:href="#m5284c7e2a0" y="13.4563428218"/>
      </g>
     </g>
    </g>
    <g id="xtick_30">
     <g id="line2d_119">
      <g>
       <use style="stroke:#000000;stroke-width:0.5;" x="307.58503926" xlink:href="#m177f7580d0" y="359.056342822"/>
      </g>
     </g>
     <g id="line2d_120">
      <g>
       <use style="stroke:#000000;stroke-width:0.5;" x="307.58503926" xlink:href="#m5284c7e2a0" y="13.4563428218"/>
      </g>
     </g>
    </g>
    <g id="xtick_31">
     <g id="line2d_121">
      <g>
       <use style="stroke:#000000;stroke-width:0.5;" x="336.070361119" xlink:href="#m177f7580d0" y="359.056342822"/>
      </g>
     </g>
     <g id="line2d_122">
      <g>
       <use style="stroke:#000000;stroke-width:0.5;" x="336.070361119" xlink:href="#m5284c7e2a0" y="13.4563428218"/>
      </g>
     </g>
    </g>
    <g id="xtick_32">
     <g id="line2d_123">
      <g>
       <use style="stroke:#000000;stroke-width:0.5;" x="350.534597547" xlink:href="#m177f7580d0" y="359.056342822"/>
      </g>
     </g>
     <g id="line2d_124">
      <g>
       <use style="stroke:#000000;stroke-width:0.5;" x="350.534597547" xlink:href="#m5284c7e2a0" y="13.4563428218"/>
      </g>
     </g>
    </g>
    <g id="xtick_33">
     <g id="line2d_125">
      <g>
       <use style="stroke:#000000;stroke-width:0.5;" x="360.797136613" xlink:href="#m177f7580d0" y="359.056342822"/>
      </g>
     </g>
     <g id="line2d_126">
      <g>
       <use style="stroke:#000000;stroke-width:0.5;" x="360.797136613" xlink:href="#m5284c7e2a0" y="13.4563428218"/>
      </g>
     </g>
    </g>
    <g id="xtick_34">
     <g id="line2d_127">
      <g>
       <use style="stroke:#000000;stroke-width:0.5;" x="368.75738034" xlink:href="#m177f7580d0" y="359.056342822"/>
      </g>
     </g>
     <g id="line2d_128">
      <g>
       <use style="stroke:#000000;stroke-width:0.5;" x="368.75738034" xlink:href="#m5284c7e2a0" y="13.4563428218"/>
      </g>
     </g>
    </g>
    <g id="xtick_35">
     <g id="line2d_129">
      <g>
       <use style="stroke:#000000;stroke-width:0.5;" x="375.261373041" xlink:href="#m177f7580d0" y="359.056342822"/>
      </g>
     </g>
     <g id="line2d_130">
      <g>
       <use style="stroke:#000000;stroke-width:0.5;" x="375.261373041" xlink:href="#m5284c7e2a0" y="13.4563428218"/>
      </g>
     </g>
    </g>
    <g id="xtick_36">
     <g id="line2d_131">
      <g>
       <use style="stroke:#000000;stroke-width:0.5;" x="380.760420515" xlink:href="#m177f7580d0" y="359.056342822"/>
      </g>
     </g>
     <g id="line2d_132">
      <g>
       <use style="stroke:#000000;stroke-width:0.5;" x="380.760420515" xlink:href="#m5284c7e2a0" y="13.4563428218"/>
      </g>
     </g>
    </g>
    <g id="xtick_37">
     <g id="line2d_133">
      <g>
       <use style="stroke:#000000;stroke-width:0.5;" x="385.523912107" xlink:href="#m177f7580d0" y="359.056342822"/>
      </g>
     </g>
     <g id="line2d_134">
      <g>
       <use style="stroke:#000000;stroke-width:0.5;" x="385.523912107" xlink:href="#m5284c7e2a0" y="13.4563428218"/>
      </g>
     </g>
    </g>
    <g id="xtick_38">
     <g id="line2d_135">
      <g>
       <use style="stroke:#000000;stroke-width:0.5;" x="389.725609468" xlink:href="#m177f7580d0" y="359.056342822"/>
      </g>
     </g>
     <g id="line2d_136">
      <g>
       <use style="stroke:#000000;stroke-width:0.5;" x="389.725609468" xlink:href="#m5284c7e2a0" y="13.4563428218"/>
      </g>
     </g>
    </g>
    <g id="xtick_39">
     <g id="line2d_137">
      <g>
       <use style="stroke:#000000;stroke-width:0.5;" x="418.210931328" xlink:href="#m177f7580d0" y="359.056342822"/>
      </g>
     </g>
     <g id="line2d_138">
      <g>
       <use style="stroke:#000000;stroke-width:0.5;" x="418.210931328" xlink:href="#m5284c7e2a0" y="13.4563428218"/>
      </g>
     </g>
    </g>
    <g id="xtick_40">
     <g id="line2d_139">
      <g>
       <use style="stroke:#000000;stroke-width:0.5;" x="432.675167755" xlink:href="#m177f7580d0" y="359.056342822"/>
      </g>
     </g>
     <g id="line2d_140">
      <g>
       <use style="stroke:#000000;stroke-width:0.5;" x="432.675167755" xlink:href="#m5284c7e2a0" y="13.4563428218"/>
      </g>
     </g>
    </g>
    <g id="xtick_41">
     <g id="line2d_141">
      <g>
       <use style="stroke:#000000;stroke-width:0.5;" x="442.937706822" xlink:href="#m177f7580d0" y="359.056342822"/>
      </g>
     </g>
     <g id="line2d_142">
      <g>
       <use style="stroke:#000000;stroke-width:0.5;" x="442.937706822" xlink:href="#m5284c7e2a0" y="13.4563428218"/>
      </g>
     </g>
    </g>
    <g id="xtick_42">
     <g id="line2d_143">
      <g>
       <use style="stroke:#000000;stroke-width:0.5;" x="450.897950549" xlink:href="#m177f7580d0" y="359.056342822"/>
      </g>
     </g>
     <g id="line2d_144">
      <g>
       <use style="stroke:#000000;stroke-width:0.5;" x="450.897950549" xlink:href="#m5284c7e2a0" y="13.4563428218"/>
      </g>
     </g>
    </g>
    <g id="xtick_43">
     <g id="line2d_145">
      <g>
       <use style="stroke:#000000;stroke-width:0.5;" x="457.401943249" xlink:href="#m177f7580d0" y="359.056342822"/>
      </g>
     </g>
     <g id="line2d_146">
      <g>
       <use style="stroke:#000000;stroke-width:0.5;" x="457.401943249" xlink:href="#m5284c7e2a0" y="13.4563428218"/>
      </g>
     </g>
    </g>
    <g id="xtick_44">
     <g id="line2d_147">
      <g>
       <use style="stroke:#000000;stroke-width:0.5;" x="462.900990723" xlink:href="#m177f7580d0" y="359.056342822"/>
      </g>
     </g>
     <g id="line2d_148">
      <g>
       <use style="stroke:#000000;stroke-width:0.5;" x="462.900990723" xlink:href="#m5284c7e2a0" y="13.4563428218"/>
      </g>
     </g>
    </g>
    <g id="xtick_45">
     <g id="line2d_149">
      <g>
       <use style="stroke:#000000;stroke-width:0.5;" x="467.664482315" xlink:href="#m177f7580d0" y="359.056342822"/>
      </g>
     </g>
     <g id="line2d_150">
      <g>
       <use style="stroke:#000000;stroke-width:0.5;" x="467.664482315" xlink:href="#m5284c7e2a0" y="13.4563428218"/>
      </g>
     </g>
    </g>
    <g id="xtick_46">
     <g id="line2d_151">
      <g>
       <use style="stroke:#000000;stroke-width:0.5;" x="471.866179677" xlink:href="#m177f7580d0" y="359.056342822"/>
      </g>
     </g>
     <g id="line2d_152">
      <g>
       <use style="stroke:#000000;stroke-width:0.5;" x="471.866179677" xlink:href="#m5284c7e2a0" y="13.4563428218"/>
      </g>
     </g>
    </g>
    <g id="xtick_47">
     <g id="line2d_153">
      <g>
       <use style="stroke:#000000;stroke-width:0.5;" x="500.351501536" xlink:href="#m177f7580d0" y="359.056342822"/>
      </g>
     </g>
     <g id="line2d_154">
      <g>
       <use style="stroke:#000000;stroke-width:0.5;" x="500.351501536" xlink:href="#m5284c7e2a0" y="13.4563428218"/>
      </g>
     </g>
    </g>
    <g id="text_7">
     <!-- log10 of FEvals / DIM -->
     <defs>
      <path id="BitstreamVeraSans-Roman-20"/>
      <path d="
M9.8125 72.9062
L24.5156 72.9062
L43.1094 23.2969
L61.8125 72.9062
L76.5156 72.9062
L76.5156 0
L66.8906 0
L66.8906 64.0156
L48.0938 14.0156
L38.1875 14.0156
L19.3906 64.0156
L19.3906 0
L9.8125 0
z
" id="BitstreamVeraSans-Roman-4d"/>
      <path d="
M30.6094 48.3906
Q23.3906 48.3906 19.1875 42.75
Q14.9844 37.1094 14.9844 27.2969
Q14.9844 17.4844 19.1562 11.8438
Q23.3438 6.20312 30.6094 6.20312
Q37.7969 6.20312 41.9844 11.8594
Q46.1875 17.5312 46.1875 27.2969
Q46.1875 37.0156 41.9844 42.7031
Q37.7969 48.3906 30.6094 48.3906
M30.6094 56
Q42.3281 56 49.0156 48.375
Q55.7188 40.7656 55.7188 27.2969
Q55.7188 13.875 49.0156 6.21875
Q42.3281 -1.42188 30.6094 -1.42188
Q18.8438 -1.42188 12.1719 6.21875
Q5.51562 13.875 5.51562 27.2969
Q5.51562 40.7656 12.1719 48.375
Q18.8438 56 30.6094 56" id="BitstreamVeraSans-Roman-6f"/>
      <path d="
M9.42188 75.9844
L18.4062 75.9844
L18.4062 0
L9.42188 0
z
" id="BitstreamVeraSans-Roman-6c"/>
      <path d="
M9.8125 72.9062
L51.7031 72.9062
L51.7031 64.5938
L19.6719 64.5938
L19.6719 43.1094
L48.5781 43.1094
L48.5781 34.8125
L19.6719 34.8125
L19.6719 0
L9.8125 0
z
" id="BitstreamVeraSans-Roman-46"/>
      <path d="
M9.8125 72.9062
L55.9062 72.9062
L55.9062 64.5938
L19.6719 64.5938
L19.6719 43.0156
L54.3906 43.0156
L54.3906 34.7188
L19.6719 34.7188
L19.6719 8.29688
L56.7812 8.29688
L56.7812 0
L9.8125 0
z
" id="BitstreamVeraSans-Roman-45"/>
      <path d="
M19.6719 64.7969
L19.6719 8.10938
L31.5938 8.10938
Q46.6875 8.10938 53.6875 14.9375
Q60.6875 21.7812 60.6875 36.5312
Q60.6875 51.1719 53.6875 57.9844
Q46.6875 64.7969 31.5938 64.7969
z

M9.8125 72.9062
L30.0781 72.9062
Q51.2656 72.9062 61.1719 64.0938
Q71.0938 55.2812 71.0938 36.5312
Q71.0938 17.6719 61.125 8.82812
Q51.1719 0 30.0781 0
L9.8125 0
z
" id="BitstreamVeraSans-Roman-44"/>
      <path d="
M25.3906 72.9062
L33.6875 72.9062
L8.29688 -9.28125
L0 -9.28125
z
" id="BitstreamVeraSans-Roman-2f"/>
      <path d="
M2.98438 54.6875
L12.5 54.6875
L29.5938 8.79688
L46.6875 54.6875
L56.2031 54.6875
L35.6875 0
L23.4844 0
z
" id="BitstreamVeraSans-Roman-76"/>
      <path d="
M45.4062 27.9844
Q45.4062 37.75 41.375 43.1094
Q37.3594 48.4844 30.0781 48.4844
Q22.8594 48.4844 18.8281 43.1094
Q14.7969 37.75 14.7969 27.9844
Q14.7969 18.2656 18.8281 12.8906
Q22.8594 7.51562 30.0781 7.51562
Q37.3594 7.51562 41.375 12.8906
Q45.4062 18.2656 45.4062 27.9844
M54.3906 6.78125
Q54.3906 -7.17188 48.1875 -13.9844
Q42 -20.7969 29.2031 -20.7969
Q24.4688 -20.7969 20.2656 -20.0938
Q16.0625 -19.3906 12.1094 -17.9219
L12.1094 -9.1875
Q16.0625 -11.3281 19.9219 -12.3438
Q23.7812 -13.375 27.7812 -13.375
Q36.625 -13.375 41.0156 -8.76562
Q45.4062 -4.15625 45.4062 5.17188
L45.4062 9.625
Q42.625 4.78125 38.2812 2.39062
Q33.9375 0 27.875 0
Q17.8281 0 11.6719 7.65625
Q5.51562 15.3281 5.51562 27.9844
Q5.51562 40.6719 11.6719 48.3281
Q17.8281 56 27.875 56
Q33.9375 56 38.2812 53.6094
Q42.625 51.2188 45.4062 46.3906
L45.4062 54.6875
L54.3906 54.6875
z
" id="BitstreamVeraSans-Roman-67"/>
      <path d="
M37.1094 75.9844
L37.1094 68.5
L28.5156 68.5
Q23.6875 68.5 21.7969 66.5469
Q19.9219 64.5938 19.9219 59.5156
L19.9219 54.6875
L34.7188 54.6875
L34.7188 47.7031
L19.9219 47.7031
L19.9219 0
L10.8906 0
L10.8906 47.7031
L2.29688 47.7031
L2.29688 54.6875
L10.8906 54.6875
L10.8906 58.5
Q10.8906 67.625 15.1406 71.7969
Q19.3906 75.9844 28.6094 75.9844
z
" id="BitstreamVeraSans-Roman-66"/>
      <path d="
M34.2812 27.4844
Q23.3906 27.4844 19.1875 25
Q14.9844 22.5156 14.9844 16.5
Q14.9844 11.7188 18.1406 8.90625
Q21.2969 6.10938 26.7031 6.10938
Q34.1875 6.10938 38.7031 11.4062
Q43.2188 16.7031 43.2188 25.4844
L43.2188 27.4844
z

M52.2031 31.2031
L52.2031 0
L43.2188 0
L43.2188 8.29688
Q40.1406 3.32812 35.5469 0.953125
Q30.9531 -1.42188 24.3125 -1.42188
Q15.9219 -1.42188 10.9531 3.29688
Q6 8.01562 6 15.9219
Q6 25.1406 12.1719 29.8281
Q18.3594 34.5156 30.6094 34.5156
L43.2188 34.5156
L43.2188 35.4062
Q43.2188 41.6094 39.1406 45
Q35.0625 48.3906 27.6875 48.3906
Q23 48.3906 18.5469 47.2656
Q14.1094 46.1406 10.0156 43.8906
L10.0156 52.2031
Q14.9375 54.1094 19.5781 55.0469
Q24.2188 56 28.6094 56
Q40.4844 56 46.3438 49.8438
Q52.2031 43.7031 52.2031 31.2031" id="BitstreamVeraSans-Roman-61"/>
      <path d="
M44.2812 53.0781
L44.2812 44.5781
Q40.4844 46.5312 36.375 47.5
Q32.2812 48.4844 27.875 48.4844
Q21.1875 48.4844 17.8438 46.4375
Q14.5 44.3906 14.5 40.2812
Q14.5 37.1562 16.8906 35.375
Q19.2812 33.5938 26.5156 31.9844
L29.5938 31.2969
Q39.1562 29.25 43.1875 25.5156
Q47.2188 21.7812 47.2188 15.0938
Q47.2188 7.46875 41.1875 3.01562
Q35.1562 -1.42188 24.6094 -1.42188
Q20.2188 -1.42188 15.4531 -0.5625
Q10.6875 0.296875 5.42188 2
L5.42188 11.2812
Q10.4062 8.6875 15.2344 7.39062
Q20.0625 6.10938 24.8125 6.10938
Q31.1562 6.10938 34.5625 8.28125
Q37.9844 10.4531 37.9844 14.4062
Q37.9844 18.0625 35.5156 20.0156
Q33.0625 21.9688 24.7031 23.7812
L21.5781 24.5156
Q13.2344 26.2656 9.51562 29.9062
Q5.8125 33.5469 5.8125 39.8906
Q5.8125 47.6094 11.2812 51.7969
Q16.75 56 26.8125 56
Q31.7812 56 36.1719 55.2656
Q40.5781 54.5469 44.2812 53.0781" id="BitstreamVeraSans-Roman-73"/>
      <path d="
M9.8125 72.9062
L19.6719 72.9062
L19.6719 0
L9.8125 0
z
" id="BitstreamVeraSans-Roman-49"/>
     </defs>
     <g transform="translate(184.025 402.609467822)scale(0.2 -0.2)">
      <use xlink:href="#BitstreamVeraSans-Roman-6c"/>
      <use x="27.783203125" xlink:href="#BitstreamVeraSans-Roman-6f"/>
      <use x="88.96484375" xlink:href="#BitstreamVeraSans-Roman-67"/>
      <use x="152.44140625" xlink:href="#BitstreamVeraSans-Roman-31"/>
      <use x="216.064453125" xlink:href="#BitstreamVeraSans-Roman-30"/>
      <use x="279.6875" xlink:href="#BitstreamVeraSans-Roman-20"/>
      <use x="311.474609375" xlink:href="#BitstreamVeraSans-Roman-6f"/>
      <use x="372.65625" xlink:href="#BitstreamVeraSans-Roman-66"/>
      <use x="407.861328125" xlink:href="#BitstreamVeraSans-Roman-20"/>
      <use x="439.6484375" xlink:href="#BitstreamVeraSans-Roman-46"/>
      <use x="497.16796875" xlink:href="#BitstreamVeraSans-Roman-45"/>
      <use x="560.3515625" xlink:href="#BitstreamVeraSans-Roman-76"/>
      <use x="619.53125" xlink:href="#BitstreamVeraSans-Roman-61"/>
      <use x="680.810546875" xlink:href="#BitstreamVeraSans-Roman-6c"/>
      <use x="708.59375" xlink:href="#BitstreamVeraSans-Roman-73"/>
      <use x="760.693359375" xlink:href="#BitstreamVeraSans-Roman-20"/>
      <use x="792.48046875" xlink:href="#BitstreamVeraSans-Roman-2f"/>
      <use x="826.171875" xlink:href="#BitstreamVeraSans-Roman-20"/>
      <use x="857.958984375" xlink:href="#BitstreamVeraSans-Roman-44"/>
      <use x="934.9609375" xlink:href="#BitstreamVeraSans-Roman-49"/>
      <use x="964.453125" xlink:href="#BitstreamVeraSans-Roman-4d"/>
     </g>
    </g>
   </g>
   <g id="matplotlib.axis_2">
    <g id="ytick_1">
     <g id="line2d_155">
      <path clip-path="url(#p4b24e7e61f)" d="
M64.9219 359.056
L511.322 359.056" style="fill:none;stroke:#000000;stroke-dasharray:1.000000,3.000000;stroke-dashoffset:0.0;stroke-width:0.5;"/>
     </g>
     <g id="line2d_156">
      <defs>
       <path d="
M0 0
L4 0" id="m728421d6d4" style="stroke:#000000;stroke-width:0.5;"/>
      </defs>
      <g>
       <use style="stroke:#000000;stroke-width:0.5;" x="64.921875" xlink:href="#m728421d6d4" y="359.056342822"/>
      </g>
     </g>
     <g id="line2d_157">
      <defs>
       <path d="
M0 0
L-4 0" id="mcb0005524f" style="stroke:#000000;stroke-width:0.5;"/>
      </defs>
      <g>
       <use style="stroke:#000000;stroke-width:0.5;" x="511.321875" xlink:href="#mcb0005524f" y="359.056342822"/>
      </g>
     </g>
     <g id="text_8">
      <!-- 0.0 -->
      <defs>
       <path d="
M10.6875 12.4062
L21 12.4062
L21 0
L10.6875 0
z
" id="BitstreamVeraSans-Roman-2e"/>
      </defs>
      <g transform="translate(31.7625 364.575092822)scale(0.2 -0.2)">
       <use xlink:href="#BitstreamVeraSans-Roman-30"/>
       <use x="63.623046875" xlink:href="#BitstreamVeraSans-Roman-2e"/>
       <use x="95.41015625" xlink:href="#BitstreamVeraSans-Roman-30"/>
      </g>
     </g>
    </g>
    <g id="ytick_2">
     <g id="line2d_158">
      <path clip-path="url(#p4b24e7e61f)" d="
M64.9219 290.621
L511.322 290.621" style="fill:none;stroke:#000000;stroke-dasharray:1.000000,3.000000;stroke-dashoffset:0.0;stroke-width:0.5;"/>
     </g>
     <g id="line2d_159">
      <g>
       <use style="stroke:#000000;stroke-width:0.5;" x="64.921875" xlink:href="#m728421d6d4" y="290.620699257"/>
      </g>
     </g>
     <g id="line2d_160">
      <g>
       <use style="stroke:#000000;stroke-width:0.5;" x="511.321875" xlink:href="#mcb0005524f" y="290.620699257"/>
      </g>
     </g>
     <g id="text_9">
      <!-- 0.2 -->
      <g transform="translate(32.4375 296.139449257)scale(0.2 -0.2)">
       <use xlink:href="#BitstreamVeraSans-Roman-30"/>
       <use x="63.623046875" xlink:href="#BitstreamVeraSans-Roman-2e"/>
       <use x="95.41015625" xlink:href="#BitstreamVeraSans-Roman-32"/>
      </g>
     </g>
    </g>
    <g id="ytick_3">
     <g id="line2d_161">
      <path clip-path="url(#p4b24e7e61f)" d="
M64.9219 222.185
L511.322 222.185" style="fill:none;stroke:#000000;stroke-dasharray:1.000000,3.000000;stroke-dashoffset:0.0;stroke-width:0.5;"/>
     </g>
     <g id="line2d_162">
      <g>
       <use style="stroke:#000000;stroke-width:0.5;" x="64.921875" xlink:href="#m728421d6d4" y="222.185055693"/>
      </g>
     </g>
     <g id="line2d_163">
      <g>
       <use style="stroke:#000000;stroke-width:0.5;" x="511.321875" xlink:href="#mcb0005524f" y="222.185055693"/>
      </g>
     </g>
     <g id="text_10">
      <!-- 0.4 -->
      <g transform="translate(31.55625 227.703805693)scale(0.2 -0.2)">
       <use xlink:href="#BitstreamVeraSans-Roman-30"/>
       <use x="63.623046875" xlink:href="#BitstreamVeraSans-Roman-2e"/>
       <use x="95.41015625" xlink:href="#BitstreamVeraSans-Roman-34"/>
      </g>
     </g>
    </g>
    <g id="ytick_4">
     <g id="line2d_164">
      <path clip-path="url(#p4b24e7e61f)" d="
M64.9219 153.749
L511.322 153.749" style="fill:none;stroke:#000000;stroke-dasharray:1.000000,3.000000;stroke-dashoffset:0.0;stroke-width:0.5;"/>
     </g>
     <g id="line2d_165">
      <g>
       <use style="stroke:#000000;stroke-width:0.5;" x="64.921875" xlink:href="#m728421d6d4" y="153.749412129"/>
      </g>
     </g>
     <g id="line2d_166">
      <g>
       <use style="stroke:#000000;stroke-width:0.5;" x="511.321875" xlink:href="#mcb0005524f" y="153.749412129"/>
      </g>
     </g>
     <g id="text_11">
      <!-- 0.6 -->
      <defs>
       <path d="
M33.0156 40.375
Q26.375 40.375 22.4844 35.8281
Q18.6094 31.2969 18.6094 23.3906
Q18.6094 15.5312 22.4844 10.9531
Q26.375 6.39062 33.0156 6.39062
Q39.6562 6.39062 43.5312 10.9531
Q47.4062 15.5312 47.4062 23.3906
Q47.4062 31.2969 43.5312 35.8281
Q39.6562 40.375 33.0156 40.375
M52.5938 71.2969
L52.5938 62.3125
Q48.875 64.0625 45.0938 64.9844
Q41.3125 65.9219 37.5938 65.9219
Q27.8281 65.9219 22.6719 59.3281
Q17.5312 52.7344 16.7969 39.4062
Q19.6719 43.6562 24.0156 45.9219
Q28.375 48.1875 33.5938 48.1875
Q44.5781 48.1875 50.9531 41.5156
Q57.3281 34.8594 57.3281 23.3906
Q57.3281 12.1562 50.6875 5.35938
Q44.0469 -1.42188 33.0156 -1.42188
Q20.3594 -1.42188 13.6719 8.26562
Q6.98438 17.9688 6.98438 36.375
Q6.98438 53.6562 15.1875 63.9375
Q23.3906 74.2188 37.2031 74.2188
Q40.9219 74.2188 44.7031 73.4844
Q48.4844 72.75 52.5938 71.2969" id="BitstreamVeraSans-Roman-36"/>
      </defs>
      <g transform="translate(31.69375 159.268162129)scale(0.2 -0.2)">
       <use xlink:href="#BitstreamVeraSans-Roman-30"/>
       <use x="63.623046875" xlink:href="#BitstreamVeraSans-Roman-2e"/>
       <use x="95.41015625" xlink:href="#BitstreamVeraSans-Roman-36"/>
      </g>
     </g>
    </g>
    <g id="ytick_5">
     <g id="line2d_167">
      <path clip-path="url(#p4b24e7e61f)" d="
M64.9219 85.3138
L511.322 85.3138" style="fill:none;stroke:#000000;stroke-dasharray:1.000000,3.000000;stroke-dashoffset:0.0;stroke-width:0.5;"/>
     </g>
     <g id="line2d_168">
      <g>
       <use style="stroke:#000000;stroke-width:0.5;" x="64.921875" xlink:href="#m728421d6d4" y="85.3137685644"/>
      </g>
     </g>
     <g id="line2d_169">
      <g>
       <use style="stroke:#000000;stroke-width:0.5;" x="511.321875" xlink:href="#mcb0005524f" y="85.3137685644"/>
      </g>
     </g>
     <g id="text_12">
      <!-- 0.8 -->
      <defs>
       <path d="
M31.7812 34.625
Q24.75 34.625 20.7188 30.8594
Q16.7031 27.0938 16.7031 20.5156
Q16.7031 13.9219 20.7188 10.1562
Q24.75 6.39062 31.7812 6.39062
Q38.8125 6.39062 42.8594 10.1719
Q46.9219 13.9688 46.9219 20.5156
Q46.9219 27.0938 42.8906 30.8594
Q38.875 34.625 31.7812 34.625
M21.9219 38.8125
Q15.5781 40.375 12.0312 44.7188
Q8.5 49.0781 8.5 55.3281
Q8.5 64.0625 14.7188 69.1406
Q20.9531 74.2188 31.7812 74.2188
Q42.6719 74.2188 48.875 69.1406
Q55.0781 64.0625 55.0781 55.3281
Q55.0781 49.0781 51.5312 44.7188
Q48 40.375 41.7031 38.8125
Q48.8281 37.1562 52.7969 32.3125
Q56.7812 27.4844 56.7812 20.5156
Q56.7812 9.90625 50.3125 4.23438
Q43.8438 -1.42188 31.7812 -1.42188
Q19.7344 -1.42188 13.25 4.23438
Q6.78125 9.90625 6.78125 20.5156
Q6.78125 27.4844 10.7812 32.3125
Q14.7969 37.1562 21.9219 38.8125
M18.3125 54.3906
Q18.3125 48.7344 21.8438 45.5625
Q25.3906 42.3906 31.7812 42.3906
Q38.1406 42.3906 41.7188 45.5625
Q45.3125 48.7344 45.3125 54.3906
Q45.3125 60.0625 41.7188 63.2344
Q38.1406 66.4062 31.7812 66.4062
Q25.3906 66.4062 21.8438 63.2344
Q18.3125 60.0625 18.3125 54.3906" id="BitstreamVeraSans-Roman-38"/>
      </defs>
      <g transform="translate(31.803125 90.8325185644)scale(0.2 -0.2)">
       <use xlink:href="#BitstreamVeraSans-Roman-30"/>
       <use x="63.623046875" xlink:href="#BitstreamVeraSans-Roman-2e"/>
       <use x="95.41015625" xlink:href="#BitstreamVeraSans-Roman-38"/>
      </g>
     </g>
    </g>
    <g id="ytick_6">
     <g id="line2d_170">
      <path clip-path="url(#p4b24e7e61f)" d="
M64.9219 16.8781
L511.322 16.8781" style="fill:none;stroke:#000000;stroke-dasharray:1.000000,3.000000;stroke-dashoffset:0.0;stroke-width:0.5;"/>
     </g>
     <g id="line2d_171">
      <g>
       <use style="stroke:#000000;stroke-width:0.5;" x="64.921875" xlink:href="#m728421d6d4" y="16.878125"/>
      </g>
     </g>
     <g id="line2d_172">
      <g>
       <use style="stroke:#000000;stroke-width:0.5;" x="511.321875" xlink:href="#mcb0005524f" y="16.878125"/>
      </g>
     </g>
     <g id="text_13">
      <!-- 1.0 -->
      <g transform="translate(32.640625 22.396875)scale(0.2 -0.2)">
       <use xlink:href="#BitstreamVeraSans-Roman-31"/>
       <use x="63.623046875" xlink:href="#BitstreamVeraSans-Roman-2e"/>
       <use x="95.41015625" xlink:href="#BitstreamVeraSans-Roman-30"/>
      </g>
     </g>
    </g>
    <g id="text_14">
     <!-- proportion of trials -->
     <defs>
      <path d="
M54.8906 33.0156
L54.8906 0
L45.9062 0
L45.9062 32.7188
Q45.9062 40.4844 42.875 44.3281
Q39.8438 48.1875 33.7969 48.1875
Q26.5156 48.1875 22.3125 43.5469
Q18.1094 38.9219 18.1094 30.9062
L18.1094 0
L9.07812 0
L9.07812 54.6875
L18.1094 54.6875
L18.1094 46.1875
Q21.3438 51.125 25.7031 53.5625
Q30.0781 56 35.7969 56
Q45.2188 56 50.0469 50.1719
Q54.8906 44.3438 54.8906 33.0156" id="BitstreamVeraSans-Roman-6e"/>
      <path d="
M9.42188 54.6875
L18.4062 54.6875
L18.4062 0
L9.42188 0
z

M9.42188 75.9844
L18.4062 75.9844
L18.4062 64.5938
L9.42188 64.5938
z
" id="BitstreamVeraSans-Roman-69"/>
      <path d="
M18.3125 70.2188
L18.3125 54.6875
L36.8125 54.6875
L36.8125 47.7031
L18.3125 47.7031
L18.3125 18.0156
Q18.3125 11.3281 20.1406 9.42188
Q21.9688 7.51562 27.5938 7.51562
L36.8125 7.51562
L36.8125 0
L27.5938 0
Q17.1875 0 13.2344 3.875
Q9.28125 7.76562 9.28125 18.0156
L9.28125 47.7031
L2.6875 47.7031
L2.6875 54.6875
L9.28125 54.6875
L9.28125 70.2188
z
" id="BitstreamVeraSans-Roman-74"/>
      <path d="
M41.1094 46.2969
Q39.5938 47.1719 37.8125 47.5781
Q36.0312 48 33.8906 48
Q26.2656 48 22.1875 43.0469
Q18.1094 38.0938 18.1094 28.8125
L18.1094 0
L9.07812 0
L9.07812 54.6875
L18.1094 54.6875
L18.1094 46.1875
Q20.9531 51.1719 25.4844 53.5781
Q30.0312 56 36.5312 56
Q37.4531 56 38.5781 55.875
Q39.7031 55.7656 41.0625 55.5156
z
" id="BitstreamVeraSans-Roman-72"/>
      <path d="
M18.1094 8.20312
L18.1094 -20.7969
L9.07812 -20.7969
L9.07812 54.6875
L18.1094 54.6875
L18.1094 46.3906
Q20.9531 51.2656 25.2656 53.625
Q29.5938 56 35.5938 56
Q45.5625 56 51.7812 48.0938
Q58.0156 40.1875 58.0156 27.2969
Q58.0156 14.4062 51.7812 6.48438
Q45.5625 -1.42188 35.5938 -1.42188
Q29.5938 -1.42188 25.2656 0.953125
Q20.9531 3.32812 18.1094 8.20312
M48.6875 27.2969
Q48.6875 37.2031 44.6094 42.8438
Q40.5312 48.4844 33.4062 48.4844
Q26.2656 48.4844 22.1875 42.8438
Q18.1094 37.2031 18.1094 27.2969
Q18.1094 17.3906 22.1875 11.75
Q26.2656 6.10938 33.4062 6.10938
Q40.5312 6.10938 44.6094 11.75
Q48.6875 17.3906 48.6875 27.2969" id="BitstreamVeraSans-Roman-70"/>
     </defs>
     <g transform="translate(22.396875 278.775092822)rotate(-90.0)scale(0.2 -0.2)">
      <use xlink:href="#BitstreamVeraSans-Roman-70"/>
      <use x="63.4765625" xlink:href="#BitstreamVeraSans-Roman-72"/>
      <use x="102.33984375" xlink:href="#BitstreamVeraSans-Roman-6f"/>
      <use x="163.521484375" xlink:href="#BitstreamVeraSans-Roman-70"/>
      <use x="226.998046875" xlink:href="#BitstreamVeraSans-Roman-6f"/>
      <use x="288.1796875" xlink:href="#BitstreamVeraSans-Roman-72"/>
      <use x="329.29296875" xlink:href="#BitstreamVeraSans-Roman-74"/>
      <use x="368.501953125" xlink:href="#BitstreamVeraSans-Roman-69"/>
      <use x="396.28515625" xlink:href="#BitstreamVeraSans-Roman-6f"/>
      <use x="457.466796875" xlink:href="#BitstreamVeraSans-Roman-6e"/>
      <use x="520.845703125" xlink:href="#BitstreamVeraSans-Roman-20"/>
      <use x="552.6328125" xlink:href="#BitstreamVeraSans-Roman-6f"/>
      <use x="613.814453125" xlink:href="#BitstreamVeraSans-Roman-66"/>
      <use x="649.01953125" xlink:href="#BitstreamVeraSans-Roman-20"/>
      <use x="680.806640625" xlink:href="#BitstreamVeraSans-Roman-74"/>
      <use x="720.015625" xlink:href="#BitstreamVeraSans-Roman-72"/>
      <use x="761.12890625" xlink:href="#BitstreamVeraSans-Roman-69"/>
      <use x="788.912109375" xlink:href="#BitstreamVeraSans-Roman-61"/>
      <use x="850.19140625" xlink:href="#BitstreamVeraSans-Roman-6c"/>
      <use x="877.974609375" xlink:href="#BitstreamVeraSans-Roman-73"/>
     </g>
    </g>
   </g>
   <g id="patch_3">
    <path d="
M64.9219 13.4563
L511.322 13.4563" style="fill:none;stroke:#000000;"/>
   </g>
   <g id="patch_4">
    <path d="
M511.322 359.056
L511.322 13.4563" style="fill:none;stroke:#000000;"/>
   </g>
   <g id="patch_5">
    <path d="
M64.9219 359.056
L511.322 359.056" style="fill:none;stroke:#000000;"/>
   </g>
   <g id="patch_6">
    <path d="
M64.9219 359.056
L64.9219 13.4563" style="fill:none;stroke:#000000;"/>
   </g>
   <g id="text_15">
    <!-- f10-f14 -->
    <defs>
     <path d="
M4.89062 31.3906
L31.2031 31.3906
L31.2031 23.3906
L4.89062 23.3906
z
" id="BitstreamVeraSans-Roman-2d"/>
    </defs>
    <g transform="translate(252.8140625 35.5652178218)scale(0.2 -0.2)">
     <use xlink:href="#BitstreamVeraSans-Roman-66"/>
     <use x="35.205078125" xlink:href="#BitstreamVeraSans-Roman-31"/>
     <use x="98.828125" xlink:href="#BitstreamVeraSans-Roman-30"/>
     <use x="162.451171875" xlink:href="#BitstreamVeraSans-Roman-2d"/>
     <use x="198.53515625" xlink:href="#BitstreamVeraSans-Roman-66"/>
     <use x="233.740234375" xlink:href="#BitstreamVeraSans-Roman-31"/>
     <use x="297.36328125" xlink:href="#BitstreamVeraSans-Roman-34"/>
    </g>
   </g>
   <g id="text_16">
    <!-- absolute targets -->
    <defs>
     <path d="
M56.2031 29.5938
L56.2031 25.2031
L14.8906 25.2031
Q15.4844 15.9219 20.4844 11.0625
Q25.4844 6.20312 34.4219 6.20312
Q39.5938 6.20312 44.4531 7.46875
Q49.3125 8.73438 54.1094 11.2812
L54.1094 2.78125
Q49.2656 0.734375 44.1875 -0.34375
Q39.1094 -1.42188 33.8906 -1.42188
Q20.7969 -1.42188 13.1562 6.1875
Q5.51562 13.8125 5.51562 26.8125
Q5.51562 40.2344 12.7656 48.1094
Q20.0156 56 32.3281 56
Q43.3594 56 49.7812 48.8906
Q56.2031 41.7969 56.2031 29.5938
M47.2188 32.2344
Q47.125 39.5938 43.0938 43.9844
Q39.0625 48.3906 32.4219 48.3906
Q24.9062 48.3906 20.3906 44.1406
Q15.875 39.8906 15.1875 32.1719
z
" id="BitstreamVeraSans-Roman-65"/>
     <path d="
M8.5 21.5781
L8.5 54.6875
L17.4844 54.6875
L17.4844 21.9219
Q17.4844 14.1562 20.5 10.2656
Q23.5312 6.39062 29.5938 6.39062
Q36.8594 6.39062 41.0781 11.0312
Q45.3125 15.6719 45.3125 23.6875
L45.3125 54.6875
L54.2969 54.6875
L54.2969 0
L45.3125 0
L45.3125 8.40625
Q42.0469 3.42188 37.7188 1
Q33.4062 -1.42188 27.6875 -1.42188
Q18.2656 -1.42188 13.375 4.4375
Q8.5 10.2969 8.5 21.5781" id="BitstreamVeraSans-Roman-75"/>
     <path d="
M48.6875 27.2969
Q48.6875 37.2031 44.6094 42.8438
Q40.5312 48.4844 33.4062 48.4844
Q26.2656 48.4844 22.1875 42.8438
Q18.1094 37.2031 18.1094 27.2969
Q18.1094 17.3906 22.1875 11.75
Q26.2656 6.10938 33.4062 6.10938
Q40.5312 6.10938 44.6094 11.75
Q48.6875 17.3906 48.6875 27.2969
M18.1094 46.3906
Q20.9531 51.2656 25.2656 53.625
Q29.5938 56 35.5938 56
Q45.5625 56 51.7812 48.0938
Q58.0156 40.1875 58.0156 27.2969
Q58.0156 14.4062 51.7812 6.48438
Q45.5625 -1.42188 35.5938 -1.42188
Q29.5938 -1.42188 25.2656 0.953125
Q20.9531 3.32812 18.1094 8.20312
L18.1094 0
L9.07812 0
L9.07812 75.9844
L18.1094 75.9844
z
" id="BitstreamVeraSans-Roman-62"/>
    </defs>
    <g transform="translate(64.921875 359.056342822)scale(0.14 -0.14)">
     <use xlink:href="#BitstreamVeraSans-Roman-61"/>
     <use x="61.279296875" xlink:href="#BitstreamVeraSans-Roman-62"/>
     <use x="124.755859375" xlink:href="#BitstreamVeraSans-Roman-73"/>
     <use x="176.85546875" xlink:href="#BitstreamVeraSans-Roman-6f"/>
     <use x="238.037109375" xlink:href="#BitstreamVeraSans-Roman-6c"/>
     <use x="265.8203125" xlink:href="#BitstreamVeraSans-Roman-75"/>
     <use x="329.19921875" xlink:href="#BitstreamVeraSans-Roman-74"/>
     <use x="368.408203125" xlink:href="#BitstreamVeraSans-Roman-65"/>
     <use x="429.931640625" xlink:href="#BitstreamVeraSans-Roman-20"/>
     <use x="461.71875" xlink:href="#BitstreamVeraSans-Roman-74"/>
     <use x="500.927734375" xlink:href="#BitstreamVeraSans-Roman-61"/>
     <use x="562.20703125" xlink:href="#BitstreamVeraSans-Roman-72"/>
     <use x="601.5703125" xlink:href="#BitstreamVeraSans-Roman-67"/>
     <use x="665.046875" xlink:href="#BitstreamVeraSans-Roman-65"/>
     <use x="726.5703125" xlink:href="#BitstreamVeraSans-Roman-74"/>
     <use x="765.779296875" xlink:href="#BitstreamVeraSans-Roman-73"/>
    </g>
   </g>
   <g id="text_17">
    <!-- 0.0.0 -->
    <g style="fill:#808080;" transform="translate(276.06171875 353.520655322)scale(0.1 -0.1)">
     <use xlink:href="#BitstreamVeraSans-Roman-30"/>
     <use x="63.623046875" xlink:href="#BitstreamVeraSans-Roman-2e"/>
     <use x="95.41015625" xlink:href="#BitstreamVeraSans-Roman-30"/>
     <use x="159.033203125" xlink:href="#BitstreamVeraSans-Roman-2e"/>
     <use x="190.8203125" xlink:href="#BitstreamVeraSans-Roman-30"/>
    </g>
   </g>
   <g id="legend_1">
    <g id="patch_7">
     <path d="
M74.9219 146.881
L164.763 146.881
L164.763 23.4563
L74.9219 23.4563
L74.9219 146.881
z
" style="fill:#ffffff;opacity:0.2;stroke:#000000;"/>
    </g>
    <g id="line2d_173">
     <path d="
M88.9219 39.6532
L116.922 39.6532" style="fill:none;stroke:#000000;stroke-linecap:square;"/>
    </g>
    <g id="line2d_174"/>
    <g id="text_18">
     <!-- 1 -->
     <g transform="translate(138.921875 46.6532178218)scale(0.2 -0.2)">
      <use xlink:href="#BitstreamVeraSans-Roman-31"/>
     </g>
    </g>
    <g id="line2d_175">
     <path d="
M88.9219 69.0095
L116.922 69.0095" style="fill:none;stroke:#00bfbf;stroke-linecap:square;"/>
    </g>
    <g id="line2d_176"/>
    <g id="text_19">
     <!-- -1 -->
     <g transform="translate(138.921875 76.0094678218)scale(0.2 -0.2)">
      <use xlink:href="#BitstreamVeraSans-Roman-2d"/>
      <use x="36.083984375" xlink:href="#BitstreamVeraSans-Roman-31"/>
     </g>
    </g>
    <g id="line2d_177">
     <path d="
M88.9219 98.3657
L116.922 98.3657" style="fill:none;stroke:#bf00bf;stroke-linecap:square;"/>
    </g>
    <g id="line2d_178"/>
    <g id="text_20">
     <!-- -4 -->
     <g transform="translate(138.921875 105.365717822)scale(0.2 -0.2)">
      <use xlink:href="#BitstreamVeraSans-Roman-2d"/>
      <use x="36.083984375" xlink:href="#BitstreamVeraSans-Roman-34"/>
     </g>
    </g>
    <g id="line2d_179">
     <path d="
M88.9219 127.722
L116.922 127.722" style="fill:none;stroke:#ff0000;stroke-linecap:square;stroke-width:3.0;"/>
    </g>
    <g id="line2d_180"/>
    <g id="text_21">
     <!-- -8 -->
     <g transform="translate(138.921875 134.721967822)scale(0.2 -0.2)">
      <use xlink:href="#BitstreamVeraSans-Roman-2d"/>
      <use x="36.083984375" xlink:href="#BitstreamVeraSans-Roman-38"/>
     </g>
    </g>
   </g>
  </g>
 </g>
 <defs>
  <clipPath id="p4b24e7e61f">
   <rect height="345.6" width="446.4" x="64.921875" y="13.4563428218"/>
  </clipPath>
 </defs>
</svg>
