<?xml version="1.0" encoding="utf-8" standalone="no"?>
<!DOCTYPE svg PUBLIC "-//W3C//DTD SVG 1.1//EN"
  "http://www.w3.org/Graphics/SVG/1.1/DTD/svg11.dtd">
<!-- Created with matplotlib (http://matplotlib.org/) -->
<svg height="415pt" version="1.1" viewBox="0 0 580 415" width="580pt" xmlns="http://www.w3.org/2000/svg" xmlns:xlink="http://www.w3.org/1999/xlink">
 <defs>
  <style type="text/css">
*{stroke-linecap:butt;stroke-linejoin:round;}
  </style>
 </defs>
 <g id="figure_1">
  <g id="patch_1">
   <path d="
M0 415.456
L580.907 415.456
L580.907 0
L0 0
z
" style="fill:#ffffff;"/>
  </g>
  <g id="axes_1">
   <g id="patch_2">
    <path d="
M89.5917 359.056
L535.992 359.056
L535.992 13.4563
L89.5917 13.4563
z
" style="fill:#ffffff;"/>
   </g>
   <g id="line2d_1">
    <path d="
M85.295 356.909
L91.7204 356.909
L91.7204 356.641
L106.427 356.641
L106.427 356.373
L107.704 356.373
L107.704 356.104
L111.359 356.104
L111.359 355.836
L113.942 355.836
L113.942 355.433
L115.396 355.433
L115.396 355.031
L120.132 355.031
L120.132 354.897
L120.97 354.897
L120.97 354.762
L122.556 354.762
L122.556 354.628
L123.309 354.628
L123.309 354.494
L123.555 354.494
L123.555 354.36
L124.038 354.36
L124.038 354.226
L124.275 354.226
L124.275 354.091
L125.314 354.091
L125.314 353.957
L126.415 353.957
L126.415 353.689
L126.84 353.689
L126.84 353.42
L127.769 353.42
L127.769 353.286
L128.169 353.286
L128.268 352.75
L128.563 352.75
L128.563 352.347
L130.253 352.347
L130.253 352.213
L130.612 352.213
L130.701 351.944
L131.139 351.944
L131.139 351.81
L131.313 351.81
L131.313 351.676
L132.894 351.676
L132.894 351.408
L133.213 351.408
L133.213 351.273
L134.595 351.273
L134.595 351.139
L134.817 351.139
L134.817 351.005
L135.11 351.005
L135.11 350.871
L135.542 350.871
L135.542 350.603
L135.755 350.603
L135.755 350.334
L135.966 350.334
L135.966 350.2
L136.656 350.2
L136.656 350.066
L136.859 350.066
L136.859 349.932
L137.716 349.932
L137.716 349.663
L138.605 349.663
L138.605 349.529
L138.975 349.529
L139.036 349.126
L139.218 349.126
L139.218 348.992
L139.519 348.992
L139.519 348.858
L140.224 348.858
L140.224 348.724
L140.739 348.724
L140.796 348.456
L140.852 348.456
L140.908 347.785
L141.02 347.785
L141.02 347.65
L141.132 347.65
L141.132 347.516
L141.353 347.516
L141.353 347.382
L141.789 347.382
L141.789 347.114
L142.163 347.114
L142.216 346.443
L142.945 346.443
L142.945 346.174
L143.502 346.174
L143.502 345.906
L144.239 345.906
L144.239 345.503
L144.479 345.503
L144.527 344.832
L144.811 344.832
L144.859 344.43
L145.278 344.43
L145.278 344.162
L145.462 344.162
L145.553 343.893
L145.78 343.893
L145.78 343.491
L146.049 343.491
L146.138 343.222
L146.49 343.222
L146.49 343.088
L146.664 343.088
L146.664 342.954
L147.051 342.954
L147.136 342.685
L147.263 342.685
L147.306 342.283
L147.599 342.283
L147.64 342.015
L147.806 342.015
L147.806 341.88
L147.929 341.88
L147.929 341.746
L148.052 341.746
L148.052 341.612
L148.415 341.612
L148.415 341.209
L148.655 341.209
L148.655 341.075
L148.773 341.075
L148.852 340.807
L148.891 340.807
L148.891 340.673
L149.009 340.673
L149.009 340.404
L149.281 340.404
L149.281 340.136
L149.473 340.136
L149.473 340.002
L149.625 340.002
L149.701 339.331
L149.777 339.331
L149.814 338.928
L149.927 338.928
L149.927 338.794
L150.114 338.794
L150.114 338.66
L150.299 338.66
L150.299 338.526
L150.446 338.526
L150.446 338.391
L150.592 338.391
L150.664 337.721
L150.737 337.721
L150.737 337.452
L150.881 337.452
L150.952 337.05
L151.024 337.05
L151.024 336.915
L151.166 336.915
L151.272 336.647
L151.307 336.647
L151.307 336.513
L151.622 336.513
L151.726 335.842
L151.761 335.842
L151.864 335.439
L151.933 335.439
L152.035 334.634
L152.306 334.634
L152.374 334.232
L152.441 334.232
L152.508 333.829
L152.641 333.829
L152.74 333.292
L152.937 333.292
L152.97 333.024
L153.068 333.024
L153.133 332.621
L153.198 332.621
L153.263 332.219
L153.391 332.219
L153.455 331.816
L153.742 331.816
L153.805 331.548
L153.868 331.548
L153.868 331.414
L154.241 331.414
L154.241 331.28
L154.73 331.28
L154.73 331.145
L155.12 331.145
L155.12 331.011
L155.268 331.011
L155.268 330.877
L155.764 330.877
L155.821 330.474
L155.936 330.474
L155.993 329.938
L156.107 329.938
L156.107 329.669
L156.221 329.669
L156.305 328.998
L156.418 328.998
L156.502 328.596
L156.696 328.596
L156.752 328.193
L156.862 328.193
L156.917 327.656
L157.081 327.656
L157.081 327.254
L157.512 327.254
L157.565 326.986
L157.777 326.986
L157.777 326.851
L157.908 326.851
L157.908 326.717
L158.039 326.717
L158.039 326.583
L158.169 326.583
L158.272 325.644
L158.427 325.644
L158.427 325.107
L158.782 325.107
L158.782 324.973
L158.908 324.973
L158.908 324.704
L159.207 324.704
L159.207 324.033
L160.032 324.033
L160.032 323.899
L160.151 323.899
L160.199 323.228
L160.434 323.228
L160.527 322.423
L160.759 322.423
L160.759 322.155
L161.148 322.155
L161.148 321.752
L161.306 321.752
L161.351 321.484
L161.774 321.484
L161.774 321.35
L162.059 321.35
L162.146 321.081
L162.405 321.081
L162.405 320.813
L162.934 320.813
L162.976 320.545
L163.369 320.545
L163.472 320.276
L163.675 320.276
L163.776 320.008
L163.837 320.008
L163.837 319.874
L164.037 319.874
L164.037 319.739
L164.215 319.739
L164.314 319.203
L164.588 319.203
L164.627 318.8
L164.743 318.8
L164.743 318.666
L165.031 318.666
L165.088 318.263
L165.39 318.263
L165.39 317.995
L165.614 317.995
L165.614 317.861
L165.964 317.861
L165.982 317.458
L166.128 317.458
L166.182 317.056
L166.29 317.056
L166.398 316.653
L166.47 316.653
L166.505 316.385
L166.842 316.385
L166.877 316.116
L166.999 316.116
L167.086 315.848
L167.242 315.848
L167.242 315.714
L167.568 315.714
L167.67 315.177
L167.72 315.177
L167.771 314.372
L167.872 314.372
L167.872 314.238
L168.37 314.238
L168.37 313.835
L168.76 313.835
L168.76 313.701
L168.889 313.701
L168.921 313.433
L169.144 313.433
L169.144 313.298
L169.412 313.298
L169.412 313.03
L169.568 313.03
L169.568 312.627
L169.908 312.627
L169.908 312.493
L170.03 312.493
L170.03 312.359
L170.377 312.359
L170.377 312.091
L171.202 312.091
L171.202 311.957
L171.404 311.957
L171.404 311.688
L171.745 311.688
L171.745 311.554
L171.885 311.554
L171.983 311.017
L172.439 311.017
L172.548 310.48
L172.779 310.48
L172.779 310.212
L173.086 310.212
L173.1 309.81
L173.547 309.81
L173.638 309.139
L173.702 309.139
L173.805 308.602
L174.402 308.602
L174.49 308.199
L174.539 308.199
L174.539 308.065
L174.676 308.065
L174.676 307.26
L174.983 307.26
L174.983 307.126
L175.178 307.126
L175.178 306.589
L175.668 306.589
L175.668 305.784
L175.869 305.784
L175.869 305.65
L176.148 305.65
L176.148 304.71
L176.275 304.71
L176.275 304.576
L176.618 304.576
L176.664 303.637
L177.034 303.637
L177.079 302.563
L177.212 302.563
L177.212 302.429
L177.399 302.429
L177.486 302.027
L177.53 302.027
L177.53 301.624
L177.972 301.624
L177.972 301.222
L178.405 301.222
L178.405 300.685
L178.748 300.685
L178.83 299.88
L179.248 299.88
L179.248 299.477
L179.737 299.477
L179.776 299.075
L180.06 299.075
L180.06 298.672
L180.455 298.672
L180.455 298.001
L180.655 298.001
L180.655 297.867
L180.843 297.867
L180.843 297.733
L181.969 297.733
L181.969 297.464
L182.271 297.464
L182.271 297.33
L182.429 297.33
L182.429 297.196
L182.551 297.196
L182.551 297.062
L182.689 297.062
L182.784 296.391
L183.151 296.391
L183.151 296.122
L183.387 296.122
L183.387 295.854
L183.728 295.854
L183.728 295.72
L184.064 295.72
L184.064 295.451
L184.25 295.451
L184.306 295.049
L184.394 295.049
L184.394 294.512
L185.358 294.512
L185.358 293.975
L185.671 293.975
L185.671 293.841
L185.979 293.841
L185.979 293.439
L186.246 293.439
L186.305 293.036
L186.582 293.036
L186.582 292.231
L186.878 292.231
L186.878 291.828
L187.17 291.828
L187.17 291.426
L187.458 291.426
L187.458 291.292
L187.742 291.292
L187.742 290.755
L188.023 290.755
L188.023 290.621
L188.301 290.621
L188.321 290.084
L188.575 290.084
L188.575 289.145
L188.845 289.145
L188.845 288.474
L189.113 288.474
L189.113 287.803
L189.377 287.803
L189.377 287.266
L189.638 287.266
L189.638 286.729
L189.896 286.729
L189.896 286.327
L190.151 286.327
L190.151 286.193
L190.404 286.193
L190.404 286.058
L190.653 286.058
L190.653 285.924
L190.9 285.924
L190.9 285.253
L191.144 285.253
L191.144 284.716
L191.385 284.716
L191.385 283.911
L191.624 283.911
L191.624 282.972
L191.86 282.972
L191.86 282.838
L192.326 282.838
L192.326 282.435
L192.555 282.435
L192.555 282.033
L192.781 282.033
L192.781 281.899
L193.006 281.899
L193.006 281.228
L193.448 281.228
L193.448 281.093
L193.666 281.093
L193.666 280.691
L193.882 280.691
L193.882 280.02
L194.095 280.02
L194.095 279.886
L194.307 279.886
L194.307 279.752
L194.517 279.752
L194.517 279.483
L194.724 279.483
L194.724 279.215
L195.134 279.215
L195.134 278.678
L195.536 278.678
L195.624 278.41
L195.735 278.41
L195.735 278.275
L195.932 278.275
L195.932 277.605
L196.127 277.605
L196.127 277.202
L196.32 277.202
L196.4 276.799
L196.512 276.799
L196.512 275.726
L196.702 275.726
L196.702 275.323
L197.077 275.323
L197.077 275.189
L197.262 275.189
L197.262 274.921
L197.628 274.921
L197.628 274.25
L197.809 274.25
L197.809 273.847
L197.989 273.847
L197.989 273.176
L198.167 273.176
L198.167 272.908
L198.343 272.908
L198.343 272.774
L198.518 272.774
L198.518 272.64
L198.864 272.64
L198.864 272.237
L199.036 272.237
L199.036 271.969
L199.374 271.969
L199.374 271.7
L199.541 271.7
L199.541 271.566
L199.707 271.566
L199.707 271.298
L199.872 271.298
L199.872 271.029
L200.198 271.029
L200.198 270.895
L200.519 270.895
L200.519 270.224
L200.678 270.224
L200.678 270.09
L200.836 270.09
L200.836 269.419
L200.993 269.419
L200.993 269.285
L201.148 269.285
L201.148 269.151
L201.303 269.151
L201.303 269.017
L201.456 269.017
L201.456 268.748
L201.76 268.748
L201.76 268.346
L201.911 268.346
L201.911 268.211
L202.06 268.211
L202.06 268.077
L202.208 268.077
L202.208 267.675
L202.356 267.675
L202.356 267.406
L202.502 267.406
L202.502 267.272
L202.648 267.272
L202.648 267.004
L202.792 267.004
L202.792 266.333
L202.936 266.333
L202.936 265.93
L203.079 265.93
L203.079 265.528
L203.22 265.528
L203.22 265.393
L203.501 265.393
L203.501 264.991
L203.64 264.991
L203.64 264.723
L204.053 264.723
L204.053 264.454
L204.189 264.454
L204.189 264.186
L204.323 264.186
L204.323 263.649
L204.591 263.649
L204.591 263.515
L204.723 263.515
L204.723 263.381
L204.855 263.381
L204.855 263.112
L204.986 263.112
L204.986 262.71
L205.116 262.71
L205.116 262.441
L205.246 262.441
L205.246 262.173
L205.375 262.173
L205.375 261.368
L205.503 261.368
L205.503 260.831
L205.63 260.831
L205.63 260.563
L205.882 260.563
L205.882 260.429
L206.007 260.429
L206.007 260.16
L206.132 260.16
L206.132 259.758
L206.255 259.758
L206.255 259.623
L206.378 259.623
L206.378 259.355
L206.501 259.355
L206.501 259.087
L206.622 259.087
L206.622 258.818
L206.744 258.818
L206.744 258.55
L206.864 258.55
L206.864 258.147
L206.984 258.147
L206.984 258.013
L207.103 258.013
L207.103 257.611
L207.221 257.611
L207.221 256.94
L207.339 256.94
L207.339 256.537
L207.573 256.537
L207.573 255.866
L207.804 255.866
L207.804 255.598
L207.919 255.598
L207.919 254.927
L208.033 254.927
L208.033 254.793
L208.147 254.793
L208.147 254.39
L208.373 254.39
L208.373 253.853
L208.485 253.853
L208.485 253.451
L208.596 253.451
L208.707 253.048
L208.817 253.048
L208.927 252.377
L209.253 252.377
L209.36 251.706
L209.468 251.706
L209.574 250.499
L209.68 250.499
L209.786 249.694
L209.891 249.694
L209.996 247.681
L210.1 247.681
L210.203 246.741
L210.306 246.741
L210.409 246.339
L210.511 246.339
L210.613 245.668
L210.714 245.668
L210.815 245.265
L210.916 245.265
L211.015 244.594
L211.115 244.594
L211.214 243.923
L211.411 243.923
L211.509 243.387
L211.799 243.387
L211.895 242.045
L212.033 242.045
L212.128 241.508
L212.181 241.508
L212.275 241.24
L212.369 241.24
L212.463 240.837
L212.556 240.837
L212.556 240.166
L212.834 240.166
L212.925 239.495
L213.017 239.495
L213.108 238.958
L213.198 238.958
L213.289 238.422
L213.378 238.422
L213.378 238.288
L213.749 238.288
L213.822 237.751
L213.91 237.751
L213.998 237.08
L214.085 237.08
L214.085 236.543
L214.344 236.543
L214.43 235.47
L214.6 235.47
L214.6 235.201
L214.769 235.201
L214.853 234.799
L215.108 234.799
L215.187 234.396
L215.269 234.396
L215.269 233.994
L215.434 233.994
L215.434 233.591
L215.597 233.591
L215.597 233.188
L215.758 233.188
L215.855 232.652
L215.999 232.652
L215.999 232.383
L216.237 232.383
L216.316 231.712
L216.394 231.712
L216.472 230.773
L216.55 230.773
L216.628 230.236
L216.706 230.236
L216.706 230.102
L217.013 230.102
L217.089 229.834
L217.24 229.834
L217.315 229.163
L217.365 229.163
L217.365 229.029
L217.525 229.029
L217.614 228.76
L217.688 228.76
L217.762 227.821
L217.836 227.821
L217.836 227.418
L218.272 227.418
L218.272 227.284
L218.629 227.284
L218.7 227.016
L218.981 227.016
L218.981 226.882
L219.124 226.882
L219.19 226.613
L219.259 226.613
L219.259 226.479
L219.391 226.479
L219.391 226.345
L219.736 226.345
L219.803 226.076
L219.871 226.076
L219.959 225.808
L220.024 225.808
L220.024 225.674
L220.203 225.674
L220.203 225.406
L220.844 225.406
L220.855 225.137
L221.328 225.137
L221.362 224.6
L221.849 224.6
L221.849 224.466
L221.981 224.466
L222.052 224.198
L222.284 224.198
L222.344 223.661
L222.404 223.661
L222.494 222.856
L222.523 222.856
L222.583 222.588
L222.818 222.588
L222.895 222.319
L222.985 222.319
L223.053 222.051
L223.132 222.051
L223.132 221.917
L223.325 221.917
L223.399 221.38
L223.512 221.38
L223.512 221.246
L223.784 221.246
L223.847 220.843
L224.04 220.843
L224.132 220.441
L224.187 220.441
L224.297 219.77
L224.328 219.77
L224.407 219.099
L224.462 219.099
L224.563 218.428
L224.828 218.428
L224.9 217.623
L224.983 217.623
L224.983 217.22
L225.177 217.22
L225.177 217.086
L225.302 217.086
L225.302 216.818
L225.441 216.818
L225.482 216.147
L225.643 216.147
L225.713 215.744
L225.817 215.744
L225.889 215.341
L225.998 215.341
L225.998 215.207
L226.128 215.207
L226.128 214.939
L226.245 214.939
L226.346 214.671
L226.446 214.671
L226.473 214.268
L226.566 214.268
L226.566 214.134
L226.714 214.134
L226.714 213.865
L226.917 213.865
L227.001 213.597
L227.062 213.597
L227.11 212.926
L227.191 212.926
L227.28 212.121
L227.371 212.121
L227.476 211.316
L227.614 211.316
L227.614 211.047
L227.843 211.047
L227.943 210.242
L227.966 210.242
L228.013 209.84
L228.079 209.84
L228.079 209.706
L228.346 209.706
L228.452 209.169
L228.542 209.169
L228.616 208.766
L228.705 208.766
L228.787 207.424
L228.874 207.424
L228.948 206.888
L228.993 206.888
L229.041 206.619
L229.176 206.619
L229.176 206.351
L229.293 206.351
L229.347 206.083
L229.499 206.083
L229.565 205.546
L229.63 205.546
L229.738 205.277
L229.744 205.277
L229.854 204.07
L229.874 204.07
L229.953 203.533
L229.988 203.533
L230.065 203.265
L230.12 203.265
L230.223 202.862
L230.382 202.862
L230.418 202.191
L230.55 202.191
L230.584 201.923
L230.702 201.923
L230.766 201.252
L230.836 201.252
L230.904 200.715
L231.083 200.715
L231.131 200.447
L231.279 200.447
L231.36 200.044
L231.421 200.044
L231.421 199.91
L231.534 199.91
L231.599 199.105
L231.656 199.105
L231.713 198.434
L231.86 198.434
L231.944 197.763
L231.992 197.763
L232.095 197.092
L232.111 197.092
L232.196 196.421
L232.227 196.421
L232.227 196.287
L232.34 196.287
L232.446 195.213
L232.493 195.213
L232.591 194.542
L232.68 194.542
L232.758 193.603
L232.797 193.603
L232.871 193.066
L232.931 193.066
L233.04 192.395
L233.078 192.395
L233.176 191.724
L233.205 191.724
L233.253 190.785
L233.324 190.785
L233.431 189.846
L233.458 189.846
L233.468 189.443
L233.595 189.443
L233.705 189.041
L233.717 189.041
L233.776 188.236
L233.853 188.236
L233.932 187.162
L233.968 187.162
L234.066 186.894
L234.09 186.894
L234.195 186.223
L234.216 186.223
L234.216 186.089
L234.333 186.089
L234.352 185.82
L234.448 185.82
L234.528 184.747
L234.565 184.747
L234.67 183.673
L234.733 183.673
L234.798 183.136
L234.855 183.136
L234.943 182.6
L234.998 182.6
L235.107 182.331
L235.124 182.331
L235.217 181.526
L235.25 181.526
L235.351 180.184
L235.38 180.184
L235.461 178.977
L235.508 178.977
L235.591 177.366
L235.645 177.366
L235.75 176.83
L235.794 176.83
L235.881 176.159
L235.968 176.159
L236.06 175.622
L236.144 175.622
L236.251 174.683
L236.271 174.683
L236.378 173.743
L236.39 173.743
L236.495 172.938
L236.591 172.938
L236.686 171.865
L236.749 171.865
L236.792 170.657
L236.962 170.657
L237.067 170.12
L237.097 170.12
L237.185 169.315
L237.246 169.315
L237.345 168.376
L237.37 168.376
L237.462 167.302
L237.505 167.302
L237.608 166.9
L237.704 166.9
L237.735 166.363
L237.825 166.363
L237.855 165.558
L237.974 165.558
L238.064 164.887
L238.123 164.887
L238.214 164.082
L238.283 164.082
L238.388 163.143
L238.404 163.143
L238.505 162.606
L238.529 162.606
L238.593 162.069
L238.65 162.069
L238.736 160.996
L238.765 160.996
L238.765 160.861
L238.908 160.861
L239.018 160.056
L239.024 160.056
L239.118 159.385
L239.165 159.385
L239.255 158.849
L239.277 158.849
L239.388 158.043
L239.499 158.043
L239.601 157.104
L239.632 157.104
L239.64 156.702
L239.771 156.702
L239.778 156.165
L239.888 156.165
L239.967 155.628
L240.004 155.628
L240.099 154.689
L240.126 154.689
L240.185 154.018
L240.262 154.018
L240.354 153.078
L240.437 153.078
L240.517 152.542
L240.58 152.542
L240.663 150.797
L240.714 150.797
L240.805 149.724
L240.841 149.724
L240.885 149.053
L240.976 149.053
L241.087 148.516
L241.113 148.516
L241.214 147.308
L241.243 147.308
L241.345 146.235
L241.372 146.235
L241.448 145.161
L241.516 145.161
L241.549 144.625
L241.676 144.625
L241.774 143.82
L241.8 143.82
L241.902 143.149
L241.923 143.149
L242.027 142.746
L242.079 142.746
L242.155 142.075
L242.2 142.075
L242.274 141.673
L242.346 141.673
L242.397 141.136
L242.473 141.136
L242.515 140.599
L242.591 140.599
L242.693 139.928
L242.785 139.928
L242.833 139.391
L242.984 139.391
L243.093 138.855
L243.143 138.855
L243.203 138.184
L243.3 138.184
L243.409 137.11
L243.471 137.11
L243.507 136.842
L243.652 136.842
L243.742 135.634
L243.779 135.634
L243.842 134.963
L243.894 134.963
L243.894 134.829
L244.015 134.829
L244.069 134.426
L244.219 134.426
L244.31 133.353
L244.361 133.353
L244.469 132.95
L244.519 132.95
L244.585 132.279
L244.688 132.279
L244.785 131.877
L244.8 131.877
L244.835 131.608
L244.929 131.608
L244.98 130.535
L245.058 130.535
L245.127 129.864
L245.25 129.864
L245.354 129.193
L245.521 129.193
L245.583 128.522
L245.657 128.522
L245.685 127.583
L245.777 127.583
L245.781 127.18
L245.986 127.18
L246.057 126.375
L246.214 126.375
L246.219 125.838
L246.339 125.838
L246.43 125.436
L246.464 125.436
L246.565 124.899
L246.577 124.899
L246.674 123.02
L246.711 123.02
L246.808 122.35
L246.853 122.35
L246.939 121.679
L247.037 121.679
L247.128 120.739
L247.152 120.739
L247.259 119.666
L247.287 119.666
L247.309 119.129
L247.398 119.129
L247.467 118.592
L247.577 118.592
L247.673 117.116
L247.693 117.116
L247.801 116.445
L247.805 116.445
L247.904 115.774
L247.931 115.774
L248.021 114.701
L248.08 114.701
L248.154 113.627
L248.254 113.627
L248.357 112.822
L248.583 112.822
L248.647 112.285
L248.732 112.285
L248.815 111.883
L248.894 111.883
L248.973 111.212
L249.063 111.212
L249.136 110.541
L249.191 110.541
L249.282 110.273
L249.303 110.273
L249.329 110.004
L249.415 110.004
L249.51 109.333
L249.535 109.333
L249.535 109.199
L249.69 109.199
L249.757 108.662
L249.842 108.662
L249.949 107.857
L250.009 107.857
L250.113 107.589
L250.121 107.589
L250.224 106.515
L250.234 106.515
L250.331 105.979
L250.475 105.979
L250.512 104.771
L250.654 104.771
L250.733 103.563
L250.815 103.563
L250.919 102.49
L250.967 102.49
L251.072 101.55
L251.078 101.55
L251.154 100.88
L251.2 100.88
L251.307 100.343
L251.327 100.343
L251.401 99.0009
L251.47 99.0009
L251.561 96.8539
L251.608 96.8539
L251.642 96.5855
L251.784 96.5855
L251.847 95.6462
L251.926 95.6462
L252.033 94.7069
L252.05 94.7069
L252.145 93.7676
L252.194 93.7676
L252.28 93.2308
L252.357 93.2308
L252.456 91.7548
L252.471 91.7548
L252.526 90.9496
L252.586 90.9496
L252.695 90.0103
L252.748 90.0103
L252.829 88.8026
L252.872 88.8026
L252.956 87.7291
L253.006 87.7291
L253.116 87.0582
L253.187 87.0582
L253.233 86.3873
L253.304 86.3873
L253.414 84.9112
L253.522 84.9112
L253.586 84.1061
L253.638 84.1061
L253.707 83.301
L253.766 83.301
L253.868 82.0933
L253.89 82.0933
L253.967 81.4223
L254.003 81.4223
L254.078 80.8856
L254.149 80.8856
L254.242 79.9463
L254.273 79.9463
L254.358 79.1411
L254.447 79.1411
L254.511 78.6044
L254.564 78.6044
L254.665 77.7993
L254.719 77.7993
L254.814 76.9941
L254.83 76.9941
L254.937 76.5916
L254.949 76.5916
L255.009 75.9206
L255.068 75.9206
L255.177 74.8471
L255.211 74.8471
L255.316 73.3711
L255.348 73.3711
L255.454 71.6266
L255.469 71.6266
L255.568 69.3455
L255.589 69.3455
L255.603 69.0771
L255.765 69.0771
L255.876 67.3326
L255.942 67.3326
L256.044 66.7959
L256.072 66.7959
L256.172 65.5882
L256.197 65.5882
L256.296 63.8438
L256.35 63.8438
L256.45 62.5019
L256.468 62.5019
L256.566 61.4284
L256.599 61.4284
L256.707 60.0865
L256.712 60.0865
L256.789 58.3421
L256.824 58.3421
L256.905 57.1344
L256.939 57.1344
L257.034 56.5976
L257.054 56.5976
L257.153 55.5241
L257.183 55.5241
L257.278 54.1823
L257.301 54.1823
L257.382 53.1088
L257.422 53.1088
L257.486 51.6327
L257.554 51.6327
L257.658 50.9618
L257.673 50.9618
L257.673 50.8276
L257.791 50.8276
L257.881 50.425
L257.902 50.425
L258.01 49.3515
L258.022 49.3515
L258.104 48.8148
L258.227 48.8148
L258.227 48.6806
L258.516 48.6806
L258.519 48.4122
L258.648 48.4122
L258.648 48.278
L258.79 48.278
L258.823 48.0096
L258.991 48.0096
L259.05 47.4729
L259.148 47.4729
L259.246 47.2045
L259.324 47.2045
L259.379 46.9361
L259.552 46.9361
L259.552 46.8019
L259.74 46.8019
L259.817 46.2652
L260.043 46.2652
L260.066 45.8626
L260.193 45.8626
L260.246 45.4601
L260.336 45.4601
L260.34 45.1917
L260.58 45.1917
L260.619 44.7891
L260.749 44.7891
L260.749 44.5208
L260.872 44.5208
L260.978 43.984
L261.104 43.984
L261.165 43.7156
L261.268 43.7156
L261.28 43.4473
L261.519 43.4473
L261.628 42.9105
L261.861 42.9105
L261.861 42.7763
L262.063 42.7763
L262.146 42.3738
L262.244 42.3738
L262.337 41.9712
L262.384 41.9712
L262.449 41.4344
L262.569 41.4344
L262.586 41.0319
L262.785 41.0319
L262.785 40.8977
L262.9 40.8977
L262.971 40.3609
L263.035 40.3609
L263.035 40.0926
L263.172 40.0926
L263.271 39.8242
L263.293 39.8242
L263.293 39.4216
L263.428 39.4216
L263.431 39.0191
L263.591 39.0191
L263.591 38.8849
L263.721 38.8849
L263.736 38.6165
L264.015 38.6165
L264.015 38.2139
L264.221 38.2139
L264.317 37.4088
L264.44 37.4088
L264.44 37.2746
L264.64 37.2746
L264.687 35.9328
L264.868 35.9328
L264.936 35.5302
L264.984 35.5302
L265.087 34.5909
L265.176 34.5909
L265.248 34.1883
L265.311 34.1883
L265.397 33.7858
L265.552 33.7858
L265.633 33.249
L265.719 33.249
L265.77 32.5781
L265.915 32.5781
L265.956 31.6388
L266.05 31.6388
L266.14 31.102
L266.253 31.102
L266.359 30.0285
L266.398 30.0285
L266.398 29.7601
L266.533 29.7601
L266.568 29.3576
L266.662 29.3576
L266.734 28.5524
L266.952 28.5524
L267.026 27.7473
L267.064 27.7473
L267.116 27.3448
L267.26 27.3448
L267.338 26.808
L267.483 26.808
L267.562 26.2713
L267.656 26.2713
L267.76 26.0029
L267.788 26.0029
L267.854 25.4661
L267.941 25.4661
L267.945 25.1978
L268.08 25.1978
L268.166 24.3926
L268.241 24.3926
L268.263 23.9901
L268.421 23.9901
L268.422 23.5875
L268.671 23.5875
L268.746 23.1849
L268.942 23.1849
L269.01 22.9166
L269.062 22.9166
L269.153 22.2456
L269.319 22.2456
L269.383 21.7089
L269.443 21.7089
L269.514 21.3063
L269.685 21.3063
L269.783 20.6354
L270.098 20.6354
L270.146 20.2328
L270.311 20.2328
L270.406 19.5619
L270.578 19.5619
L270.678 19.0251
L270.7 19.0251
L270.7 18.4884
L271.215 18.4884
L271.279 18.0858
L271.526 18.0858
L271.526 17.8174
L272.24 17.8174
L272.24 17.6833
L272.627 17.6833
L272.627 17.5491
L273.742 17.5491
L273.742 17.1465
L277.312 17.1465
L277.312 16.8781
L449.592 16.8781
L449.592 16.8781" style="fill:none;stroke:#f5deb3;stroke-linecap:square;stroke-width:6;"/>
   </g>
   <g id="line2d_2"/>
   <g id="line2d_3">
    <path d="
M449.592 16.8781
L489.192 23.7217" style="fill:none;stroke:#f5deb3;stroke-linecap:square;stroke-width:6;"/>
    <defs>
     <path d="
M-6.10623e-16 7.77817
L7.77817 0
L1.16573e-15 -7.77817
L-7.77817 -1.77636e-15
z
" id="m2c936259e7" style="stroke:#f5deb3;stroke-linejoin:miter;stroke-width:1.5;"/>
    </defs>
    <g>
     <use style="fill:#f5deb3;stroke:#f5deb3;stroke-linejoin:miter;stroke-width:1.5;" x="449.591656697" xlink:href="#m2c936259e7" y="16.878125"/>
     <use style="fill:#f5deb3;stroke:#f5deb3;stroke-linejoin:miter;stroke-width:1.5;" x="489.191656697" xlink:href="#m2c936259e7" y="23.7216893564"/>
    </g>
   </g>
   <g id="line2d_4">
    <defs>
     <path d="
M0 1.5
C0.397805 1.5 0.77937 1.34195 1.06066 1.06066
C1.34195 0.77937 1.5 0.397805 1.5 0
C1.5 -0.397805 1.34195 -0.77937 1.06066 -1.06066
C0.77937 -1.34195 0.397805 -1.5 0 -1.5
C-0.397805 -1.5 -0.77937 -1.34195 -1.06066 -1.06066
C-1.34195 -0.77937 -1.5 -0.397805 -1.5 0
C-1.5 0.397805 -1.34195 0.77937 -1.06066 1.06066
C-0.77937 1.34195 -0.397805 1.5 0 1.5
z
" id="m68ae1779e3" style="stroke:#f5deb3;stroke-width:0.5;"/>
    </defs>
    <g>
     <use style="fill:#f5deb3;stroke:#f5deb3;stroke-width:0.5;" x="277.311762297" xlink:href="#m68ae1779e3" y="16.878125"/>
     <use style="fill:#f5deb3;stroke:#f5deb3;stroke-width:0.5;" x="277.311762297" xlink:href="#m68ae1779e3" y="16.878125"/>
    </g>
   </g>
   <g id="line2d_5">
    <g>
     <use style="fill:#f5deb3;stroke:#f5deb3;stroke-linejoin:miter;stroke-width:1.5;" x="156.417856529" xlink:href="#m2c936259e7" y="328.998334668"/>
     <use style="fill:#f5deb3;stroke:#f5deb3;stroke-linejoin:miter;stroke-width:1.5;" x="227.966238884" xlink:href="#m2c936259e7" y="210.242364953"/>
     <use style="fill:#f5deb3;stroke:#f5deb3;stroke-linejoin:miter;stroke-width:1.5;" x="252.144697195" xlink:href="#m2c936259e7" y="93.901770894"/>
     <use style="fill:#f5deb3;stroke:#f5deb3;stroke-linejoin:miter;stroke-width:1.5;" x="277.311762297" xlink:href="#m2c936259e7" y="16.878125"/>
     <use style="fill:#f5deb3;stroke:#f5deb3;stroke-linejoin:miter;stroke-width:1.5;" x="277.311762297" xlink:href="#m2c936259e7" y="16.878125"/>
     <use style="fill:#f5deb3;stroke:#f5deb3;stroke-linejoin:miter;stroke-width:1.5;" x="449.591656697" xlink:href="#m2c936259e7" y="16.878125"/>
    </g>
   </g>
   <g id="line2d_6">
    <defs>
     <path d="
M0 1.5
C0.397805 1.5 0.77937 1.34195 1.06066 1.06066
C1.34195 0.77937 1.5 0.397805 1.5 0
C1.5 -0.397805 1.34195 -0.77937 1.06066 -1.06066
C0.77937 -1.34195 0.397805 -1.5 0 -1.5
C-0.397805 -1.5 -0.77937 -1.34195 -1.06066 -1.06066
C-1.34195 -0.77937 -1.5 -0.397805 -1.5 0
C-1.5 0.397805 -1.34195 0.77937 -1.06066 1.06066
C-0.77937 1.34195 -0.397805 1.5 0 1.5
z
" id="ma8fc8663ec" style="stroke:#000080;stroke-width:0.5;"/>
    </defs>
    <g>
     <use style="fill:#000080;stroke:#000080;stroke-width:0.5;" x="374.71365802" xlink:href="#ma8fc8663ec" y="293.304449985"/>
     <use style="fill:#000080;stroke:#000080;stroke-width:0.5;" x="374.71365802" xlink:href="#ma8fc8663ec" y="293.304449985"/>
    </g>
   </g>
   <g id="line2d_7">
    <path d="
M87.2384 356.641
L97.5021 356.641
L97.5021 356.507
L99.7375 356.507
L99.7375 356.373
L103.928 356.373
L103.928 356.238
L111.147 356.238
L111.147 356.104
L114.862 356.104
L114.862 355.97
L120.832 355.97
L120.832 355.836
L121.511 355.836
L121.511 355.567
L121.909 355.567
L121.909 355.433
L122.428 355.433
L122.428 355.299
L126.735 355.299
L126.735 355.165
L151.933 355.165
L151.933 355.031
L166.434 355.031
L166.434 354.897
L177.366 354.897
L177.366 354.762
L187.099 354.762
L187.099 354.628
L189.871 354.628
L189.871 354.226
L190.244 354.226
L190.244 354.091
L190.924 354.091
L190.924 353.957
L191.108 353.957
L191.108 353.689
L194.261 353.689
L194.261 353.42
L196.771 353.42
L196.771 353.152
L198.471 353.152
L198.471 353.018
L198.91 353.018
L198.91 352.75
L199.238 352.75
L199.238 352.615
L202.74 352.615
L202.74 352.481
L204.5 352.481
L204.5 352.347
L205.415 352.347
L205.415 352.213
L207.473 352.213
L207.473 351.944
L209.227 351.944
L209.227 351.81
L211.137 351.81
L211.137 351.676
L211.382 351.676
L211.382 351.542
L213.134 351.542
L213.134 351.273
L213.676 351.273
L213.676 351.005
L214.812 351.005
L214.812 350.871
L215.654 350.871
L215.654 350.737
L216.067 350.737
L216.067 350.2
L216.348 350.2
L216.348 350.066
L217.609 350.066
L217.609 349.663
L218.529 349.663
L218.529 349.261
L219.678 349.261
L219.739 348.858
L219.97 348.858
L219.97 348.724
L220.324 348.724
L220.324 348.456
L221.885 348.456
L221.885 348.321
L222.935 348.321
L222.935 348.187
L223.067 348.187
L223.111 347.919
L224.148 347.919
L224.148 347.785
L224.359 347.785
L224.359 347.65
L225.167 347.65
L225.167 347.382
L225.637 347.382
L225.743 347.114
L226.435 347.114
L226.435 346.845
L226.848 346.845
L226.848 346.711
L227.159 346.711
L227.159 346.577
L227.664 346.577
L227.664 346.443
L227.914 346.443
L227.914 346.309
L228.136 346.309
L228.136 346.174
L228.538 346.174
L228.538 346.04
L229.243 346.04
L229.304 345.503
L230.197 345.503
L230.197 345.369
L230.647 345.369
L230.647 345.235
L231.597 345.235
L231.681 344.832
L231.795 344.832
L231.795 344.564
L231.926 344.564
L231.926 344.296
L233.51 344.296
L233.51 344.162
L233.696 344.162
L233.696 344.027
L234.086 344.027
L234.086 343.893
L234.696 343.893
L234.768 343.625
L234.91 343.625
L234.953 343.356
L235.027 343.356
L235.027 343.222
L235.226 343.222
L235.226 342.954
L235.671 342.954
L235.671 342.82
L235.804 342.82
L235.882 342.417
L236.067 342.417
L236.067 342.149
L236.249 342.149
L236.298 341.746
L237.148 341.746
L237.15 341.478
L238.164 341.478
L238.166 341.209
L238.563 341.209
L238.563 341.075
L238.878 341.075
L238.878 340.941
L239.114 340.941
L239.114 340.807
L239.316 340.807
L239.417 340.538
L239.455 340.538
L239.455 340.404
L239.605 340.404
L239.653 340.002
L239.856 340.002
L239.906 339.733
L240.356 339.733
L240.356 339.599
L240.572 339.599
L240.572 339.465
L240.789 339.465
L240.789 339.331
L240.976 339.331
L240.998 338.928
L241.163 338.928
L241.244 338.257
L241.755 338.257
L241.755 337.989
L241.965 337.989
L241.965 337.855
L242.224 337.855
L242.224 337.721
L242.479 337.721
L242.479 337.452
L242.694 337.452
L242.749 337.184
L242.81 337.184
L242.81 337.05
L243.129 337.05
L243.228 336.647
L243.26 336.647
L243.26 336.379
L243.557 336.379
L243.557 336.244
L243.769 336.244
L243.812 335.976
L243.904 335.976
L243.904 335.842
L244.214 335.842
L244.298 335.305
L244.403 335.305
L244.406 335.037
L245.216 335.037
L245.216 334.768
L245.45 334.768
L245.45 334.634
L245.582 334.634
L245.582 334.5
L245.872 334.5
L245.872 334.232
L246.437 334.232
L246.497 333.963
L246.78 333.963
L246.81 333.561
L246.944 333.561
L247.044 333.024
L247.08 333.024
L247.08 332.621
L247.449 332.621
L247.449 332.487
L247.667 332.487
L247.667 332.353
L247.862 332.353
L247.862 332.219
L248.04 332.219
L248.04 332.085
L248.617 332.085
L248.631 331.548
L248.795 331.548
L248.795 331.145
L249.209 331.145
L249.226 330.34
L249.485 330.34
L249.58 329.803
L249.811 329.803
L249.826 329.535
L249.961 329.535
L249.974 329.267
L250.432 329.267
L250.432 329.133
L251.061 329.133
L251.061 328.998
L251.266 328.998
L251.357 328.596
L251.714 328.596
L251.78 327.925
L251.885 327.925
L251.885 327.791
L252.117 327.791
L252.117 327.656
L252.343 327.656
L252.343 327.522
L252.478 327.522
L252.478 327.388
L252.958 327.388
L253.034 327.12
L253.08 327.12
L253.08 326.851
L253.298 326.851
L253.298 326.717
L253.505 326.717
L253.59 326.315
L253.83 326.315
L253.83 326.046
L254.037 326.046
L254.103 325.644
L254.176 325.644
L254.176 325.509
L254.409 325.509
L254.517 325.241
L254.654 325.241
L254.685 324.839
L254.802 324.839
L254.802 324.57
L255.185 324.57
L255.208 324.302
L255.38 324.302
L255.483 323.765
L255.95 323.765
L256.011 323.228
L256.132 323.228
L256.132 323.094
L256.36 323.094
L256.398 322.557
L256.968 322.557
L257.001 322.289
L257.165 322.289
L257.264 321.752
L257.442 321.752
L257.442 321.484
L257.683 321.484
L257.701 321.215
L258.036 321.215
L258.143 320.813
L258.333 320.813
L258.354 320.41
L258.634 320.41
L258.651 320.008
L258.805 320.008
L258.909 319.337
L258.952 319.337
L259.057 318.398
L259.151 318.398
L259.232 318.129
L259.288 318.129
L259.288 317.995
L259.441 317.995
L259.512 317.458
L259.557 317.458
L259.589 316.921
L259.709 316.921
L259.763 316.251
L259.882 316.251
L259.963 315.58
L260.065 315.58
L260.117 314.64
L260.178 314.64
L260.178 314.238
L260.445 314.238
L260.476 313.701
L260.758 313.701
L260.777 313.433
L260.902 313.433
L260.999 312.896
L261.045 312.896
L261.102 312.627
L261.161 312.627
L261.231 312.091
L261.284 312.091
L261.364 311.554
L261.476 311.554
L261.586 310.883
L261.651 310.883
L261.651 310.615
L261.868 310.615
L261.947 310.078
L262.034 310.078
L262.115 309.004
L262.61 309.004
L262.617 308.602
L262.747 308.602
L262.773 308.333
L263.065 308.333
L263.11 308.065
L263.277 308.065
L263.331 307.394
L263.403 307.394
L263.499 306.723
L263.566 306.723
L263.585 306.455
L263.714 306.455
L263.808 305.918
L264.001 305.918
L264.092 305.516
L264.158 305.516
L264.242 304.845
L274.765 304.845
L274.765 304.576
L276.505 304.576
L276.505 304.442
L276.945 304.442
L276.945 304.308
L277.106 304.308
L277.106 304.039
L277.453 304.039
L277.453 303.905
L278.095 303.905
L278.101 303.637
L278.295 303.637
L278.295 303.503
L278.547 303.503
L278.623 303.1
L278.676 303.1
L278.737 302.832
L278.816 302.832
L278.885 302.563
L279.016 302.563
L279.016 302.429
L279.178 302.429
L279.178 302.161
L279.333 302.161
L279.333 301.758
L279.564 301.758
L279.668 301.222
L279.715 301.222
L279.756 300.953
L287.073 300.953
L287.073 300.819
L287.522 300.819
L287.541 300.282
L287.768 300.282
L287.768 300.148
L288.061 300.148
L288.096 299.88
L288.299 299.88
L288.348 299.343
L288.417 299.343
L288.417 299.209
L288.577 299.209
L288.633 298.538
L288.72 298.538
L288.823 297.464
L288.868 297.464
L288.868 297.33
L294.848 297.33
L294.925 296.928
L295.246 296.928
L295.259 296.525
L300.264 296.525
L300.264 296.391
L303.945 296.391
L303.945 296.257
L307.65 296.257
L307.74 295.854
L310.638 295.854
L310.691 295.586
L310.77 295.586
L310.77 295.451
L313.398 295.451
L313.398 295.317
L317.802 295.317
L317.897 294.915
L319.824 294.915
L319.832 294.512
L324.801 294.512
L324.801 294.378
L326.254 294.378
L326.254 294.11
L337.941 294.11
L337.941 293.975
L348.858 293.975
L348.858 293.841
L355.787 293.841
L355.787 293.707
L357.229 293.707
L357.229 293.573
L371.27 293.573
L371.27 293.439
L374.714 293.439
L374.714 293.304
L449.592 293.304
L449.592 293.304" style="fill:none;stroke:#000080;stroke-linecap:square;stroke-width:1.5;"/>
   </g>
   <g id="line2d_8">
    <defs>
     <path d="
M0 6
C1.59122 6 3.11748 5.3678 4.24264 4.24264
C5.3678 3.11748 6 1.59122 6 0
C6 -1.59122 5.3678 -3.11748 4.24264 -4.24264
C3.11748 -5.3678 1.59122 -6 0 -6
C-1.59122 -6 -3.11748 -5.3678 -4.24264 -4.24264
C-5.3678 -3.11748 -6 -1.59122 -6 0
C-6 1.59122 -5.3678 3.11748 -4.24264 4.24264
C-3.11748 5.3678 -1.59122 6 0 6
z
" id="mae466deef1" style="stroke:#000080;stroke-width:1.5;"/>
    </defs>
    <g>
     <use style="fill:none;stroke:#000080;stroke-width:1.5;" x="47.2192071626" xlink:href="#mae466deef1" y="357.446092385"/>
     <use style="fill:none;stroke:#000080;stroke-width:1.5;" x="191.108346182" xlink:href="#mae466deef1" y="353.688841366"/>
     <use style="fill:none;stroke:#000080;stroke-width:1.5;" x="262.114836236" xlink:href="#mae466deef1" y="309.004391744"/>
     <use style="fill:none;stroke:#000080;stroke-width:1.5;" x="326.254183836" xlink:href="#mae466deef1" y="294.377950277"/>
     <use style="fill:none;stroke:#000080;stroke-width:1.5;" x="374.71365802" xlink:href="#mae466deef1" y="293.304449985"/>
     <use style="fill:none;stroke:#000080;stroke-width:1.5;" x="449.591656697" xlink:href="#mae466deef1" y="293.304449985"/>
    </g>
   </g>
   <g id="line2d_9"/>
   <g id="line2d_10">
    <path clip-path="url(#pb56f8cd31d)" d="
M295.306 296.525" style="fill:none;stroke:#000080;stroke-linecap:square;"/>
    <defs>
     <path d="
M-12 12
L12 -12
M-12 -12
L12 12" id="me286a5a777" style="stroke:#000080;stroke-width:3;"/>
    </defs>
    <g clip-path="url(#pb56f8cd31d)">
     <use style="fill:#000080;stroke:#000080;stroke-width:3;" x="295.306165761" xlink:href="#me286a5a777" y="296.524950859"/>
    </g>
   </g>
   <g id="line2d_11">
    <path d="
M449.592 293.304
L489.192 352.213" style="fill:none;stroke:#000080;stroke-linecap:square;stroke-width:1.5;"/>
    <g>
     <use style="fill:none;stroke:#000080;stroke-width:1.5;" x="449.591656697" xlink:href="#mae466deef1" y="293.304449985"/>
     <use style="fill:none;stroke:#000080;stroke-width:1.5;" x="489.191656697" xlink:href="#mae466deef1" y="352.212778465"/>
    </g>
   </g>
   <g id="line2d_12">
    <path d="
M449.592 359.056
L449.592 16.8781" style="fill:none;stroke:#000000;stroke-linecap:square;"/>
   </g>
   <g id="matplotlib.axis_1">
    <g id="xtick_1">
     <g id="line2d_13">
      <path clip-path="url(#pb56f8cd31d)" d="
M89.5917 359.056
L89.5917 13.4563" style="fill:none;stroke:#000000;stroke-dasharray:1.000000,3.000000;stroke-dashoffset:0.0;stroke-width:0.5;"/>
     </g>
     <g id="line2d_14">
      <defs>
       <path d="
M0 0
L0 -4" id="m93b0483c22" style="stroke:#000000;stroke-width:0.5;"/>
      </defs>
      <g>
       <use style="stroke:#000000;stroke-width:0.5;" x="89.5916566969" xlink:href="#m93b0483c22" y="359.056342822"/>
      </g>
     </g>
     <g id="line2d_15">
      <defs>
       <path d="
M0 0
L0 4" id="m741efc42ff" style="stroke:#000000;stroke-width:0.5;"/>
      </defs>
      <g>
       <use style="stroke:#000000;stroke-width:0.5;" x="89.5916566969" xlink:href="#m741efc42ff" y="13.4563428218"/>
      </g>
     </g>
     <g id="text_1">
      <!-- 0 -->
      <defs>
       <path d="
M31.7812 66.4062
Q24.1719 66.4062 20.3281 58.9062
Q16.5 51.4219 16.5 36.375
Q16.5 21.3906 20.3281 13.8906
Q24.1719 6.39062 31.7812 6.39062
Q39.4531 6.39062 43.2812 13.8906
Q47.125 21.3906 47.125 36.375
Q47.125 51.4219 43.2812 58.9062
Q39.4531 66.4062 31.7812 66.4062
M31.7812 74.2188
Q44.0469 74.2188 50.5156 64.5156
Q56.9844 54.8281 56.9844 36.375
Q56.9844 17.9688 50.5156 8.26562
Q44.0469 -1.42188 31.7812 -1.42188
Q19.5312 -1.42188 13.0625 8.26562
Q6.59375 17.9688 6.59375 36.375
Q6.59375 54.8281 13.0625 64.5156
Q19.5312 74.2188 31.7812 74.2188" id="BitstreamVeraSans-Roman-30"/>
      </defs>
      <g transform="translate(84.5525941969 378.253217822)scale(0.2 -0.2)">
       <use xlink:href="#BitstreamVeraSans-Roman-30"/>
      </g>
     </g>
    </g>
    <g id="xtick_2">
     <g id="line2d_16">
      <path clip-path="url(#pb56f8cd31d)" d="
M141.02 359.056
L141.02 13.4563" style="fill:none;stroke:#000000;stroke-dasharray:1.000000,3.000000;stroke-dashoffset:0.0;stroke-width:0.5;"/>
     </g>
     <g id="line2d_17">
      <g>
       <use style="stroke:#000000;stroke-width:0.5;" x="141.020228125" xlink:href="#m93b0483c22" y="359.056342822"/>
      </g>
     </g>
     <g id="line2d_18">
      <g>
       <use style="stroke:#000000;stroke-width:0.5;" x="141.020228125" xlink:href="#m741efc42ff" y="13.4563428218"/>
      </g>
     </g>
     <g id="text_2">
      <!-- 1 -->
      <defs>
       <path d="
M12.4062 8.29688
L28.5156 8.29688
L28.5156 63.9219
L10.9844 60.4062
L10.9844 69.3906
L28.4219 72.9062
L38.2812 72.9062
L38.2812 8.29688
L54.3906 8.29688
L54.3906 0
L12.4062 0
z
" id="BitstreamVeraSans-Roman-31"/>
      </defs>
      <g transform="translate(136.679603125 378.253217822)scale(0.2 -0.2)">
       <use xlink:href="#BitstreamVeraSans-Roman-31"/>
      </g>
     </g>
    </g>
    <g id="xtick_3">
     <g id="line2d_19">
      <path clip-path="url(#pb56f8cd31d)" d="
M192.449 359.056
L192.449 13.4563" style="fill:none;stroke:#000000;stroke-dasharray:1.000000,3.000000;stroke-dashoffset:0.0;stroke-width:0.5;"/>
     </g>
     <g id="line2d_20">
      <g>
       <use style="stroke:#000000;stroke-width:0.5;" x="192.448799554" xlink:href="#m93b0483c22" y="359.056342822"/>
      </g>
     </g>
     <g id="line2d_21">
      <g>
       <use style="stroke:#000000;stroke-width:0.5;" x="192.448799554" xlink:href="#m741efc42ff" y="13.4563428218"/>
      </g>
     </g>
     <g id="text_3">
      <!-- 2 -->
      <defs>
       <path d="
M19.1875 8.29688
L53.6094 8.29688
L53.6094 0
L7.32812 0
L7.32812 8.29688
Q12.9375 14.1094 22.625 23.8906
Q32.3281 33.6875 34.8125 36.5312
Q39.5469 41.8438 41.4219 45.5312
Q43.3125 49.2188 43.3125 52.7812
Q43.3125 58.5938 39.2344 62.25
Q35.1562 65.9219 28.6094 65.9219
Q23.9688 65.9219 18.8125 64.3125
Q13.6719 62.7031 7.8125 59.4219
L7.8125 69.3906
Q13.7656 71.7812 18.9375 73
Q24.125 74.2188 28.4219 74.2188
Q39.75 74.2188 46.4844 68.5469
Q53.2188 62.8906 53.2188 53.4219
Q53.2188 48.9219 51.5312 44.8906
Q49.8594 40.875 45.4062 35.4062
Q44.1875 33.9844 37.6406 27.2188
Q31.1094 20.4531 19.1875 8.29688" id="BitstreamVeraSans-Roman-32"/>
      </defs>
      <g transform="translate(187.820674554 378.253217822)scale(0.2 -0.2)">
       <use xlink:href="#BitstreamVeraSans-Roman-32"/>
      </g>
     </g>
    </g>
    <g id="xtick_4">
     <g id="line2d_22">
      <path clip-path="url(#pb56f8cd31d)" d="
M243.877 359.056
L243.877 13.4563" style="fill:none;stroke:#000000;stroke-dasharray:1.000000,3.000000;stroke-dashoffset:0.0;stroke-width:0.5;"/>
     </g>
     <g id="line2d_23">
      <g>
       <use style="stroke:#000000;stroke-width:0.5;" x="243.877370983" xlink:href="#m93b0483c22" y="359.056342822"/>
      </g>
     </g>
     <g id="line2d_24">
      <g>
       <use style="stroke:#000000;stroke-width:0.5;" x="243.877370983" xlink:href="#m741efc42ff" y="13.4563428218"/>
      </g>
     </g>
     <g id="text_4">
      <!-- 3 -->
      <defs>
       <path d="
M40.5781 39.3125
Q47.6562 37.7969 51.625 33
Q55.6094 28.2188 55.6094 21.1875
Q55.6094 10.4062 48.1875 4.48438
Q40.7656 -1.42188 27.0938 -1.42188
Q22.5156 -1.42188 17.6562 -0.515625
Q12.7969 0.390625 7.625 2.20312
L7.625 11.7188
Q11.7188 9.32812 16.5938 8.10938
Q21.4844 6.89062 26.8125 6.89062
Q36.0781 6.89062 40.9375 10.5469
Q45.7969 14.2031 45.7969 21.1875
Q45.7969 27.6406 41.2812 31.2656
Q36.7656 34.9062 28.7188 34.9062
L20.2188 34.9062
L20.2188 43.0156
L29.1094 43.0156
Q36.375 43.0156 40.2344 45.9219
Q44.0938 48.8281 44.0938 54.2969
Q44.0938 59.9062 40.1094 62.9062
Q36.1406 65.9219 28.7188 65.9219
Q24.6562 65.9219 20.0156 65.0312
Q15.375 64.1562 9.8125 62.3125
L9.8125 71.0938
Q15.4375 72.6562 20.3438 73.4375
Q25.25 74.2188 29.5938 74.2188
Q40.8281 74.2188 47.3594 69.1094
Q53.9062 64.0156 53.9062 55.3281
Q53.9062 49.2656 50.4375 45.0938
Q46.9688 40.9219 40.5781 39.3125" id="BitstreamVeraSans-Roman-33"/>
      </defs>
      <g transform="translate(239.078933483 378.253217822)scale(0.2 -0.2)">
       <use xlink:href="#BitstreamVeraSans-Roman-33"/>
      </g>
     </g>
    </g>
    <g id="xtick_5">
     <g id="line2d_25">
      <path clip-path="url(#pb56f8cd31d)" d="
M295.306 359.056
L295.306 13.4563" style="fill:none;stroke:#000000;stroke-dasharray:1.000000,3.000000;stroke-dashoffset:0.0;stroke-width:0.5;"/>
     </g>
     <g id="line2d_26">
      <g>
       <use style="stroke:#000000;stroke-width:0.5;" x="295.305942411" xlink:href="#m93b0483c22" y="359.056342822"/>
      </g>
     </g>
     <g id="line2d_27">
      <g>
       <use style="stroke:#000000;stroke-width:0.5;" x="295.305942411" xlink:href="#m741efc42ff" y="13.4563428218"/>
      </g>
     </g>
     <g id="text_5">
      <!-- 4 -->
      <defs>
       <path d="
M37.7969 64.3125
L12.8906 25.3906
L37.7969 25.3906
z

M35.2031 72.9062
L47.6094 72.9062
L47.6094 25.3906
L58.0156 25.3906
L58.0156 17.1875
L47.6094 17.1875
L47.6094 0
L37.7969 0
L37.7969 17.1875
L4.89062 17.1875
L4.89062 26.7031
z
" id="BitstreamVeraSans-Roman-34"/>
      </defs>
      <g transform="translate(289.993442411 378.253217822)scale(0.2 -0.2)">
       <use xlink:href="#BitstreamVeraSans-Roman-34"/>
      </g>
     </g>
    </g>
    <g id="xtick_6">
     <g id="line2d_28">
      <path clip-path="url(#pb56f8cd31d)" d="
M346.735 359.056
L346.735 13.4563" style="fill:none;stroke:#000000;stroke-dasharray:1.000000,3.000000;stroke-dashoffset:0.0;stroke-width:0.5;"/>
     </g>
     <g id="line2d_29">
      <g>
       <use style="stroke:#000000;stroke-width:0.5;" x="346.73451384" xlink:href="#m93b0483c22" y="359.056342822"/>
      </g>
     </g>
     <g id="line2d_30">
      <g>
       <use style="stroke:#000000;stroke-width:0.5;" x="346.73451384" xlink:href="#m741efc42ff" y="13.4563428218"/>
      </g>
     </g>
     <g id="text_6">
      <!-- 5 -->
      <defs>
       <path d="
M10.7969 72.9062
L49.5156 72.9062
L49.5156 64.5938
L19.8281 64.5938
L19.8281 46.7344
Q21.9688 47.4688 24.1094 47.8281
Q26.2656 48.1875 28.4219 48.1875
Q40.625 48.1875 47.75 41.5
Q54.8906 34.8125 54.8906 23.3906
Q54.8906 11.625 47.5625 5.09375
Q40.2344 -1.42188 26.9062 -1.42188
Q22.3125 -1.42188 17.5469 -0.640625
Q12.7969 0.140625 7.71875 1.70312
L7.71875 11.625
Q12.1094 9.23438 16.7969 8.0625
Q21.4844 6.89062 26.7031 6.89062
Q35.1562 6.89062 40.0781 11.3281
Q45.0156 15.7656 45.0156 23.3906
Q45.0156 31 40.0781 35.4375
Q35.1562 39.8906 26.7031 39.8906
Q22.75 39.8906 18.8125 39.0156
Q14.8906 38.1406 10.7969 36.2812
z
" id="BitstreamVeraSans-Roman-35"/>
      </defs>
      <g transform="translate(342.01732634 378.253217822)scale(0.2 -0.2)">
       <use xlink:href="#BitstreamVeraSans-Roman-35"/>
      </g>
     </g>
    </g>
    <g id="xtick_7">
     <g id="line2d_31">
      <path clip-path="url(#pb56f8cd31d)" d="
M398.163 359.056
L398.163 13.4563" style="fill:none;stroke:#000000;stroke-dasharray:1.000000,3.000000;stroke-dashoffset:0.0;stroke-width:0.5;"/>
     </g>
     <g id="line2d_32">
      <g>
       <use style="stroke:#000000;stroke-width:0.5;" x="398.163085268" xlink:href="#m93b0483c22" y="359.056342822"/>
      </g>
     </g>
     <g id="line2d_33">
      <g>
       <use style="stroke:#000000;stroke-width:0.5;" x="398.163085268" xlink:href="#m741efc42ff" y="13.4563428218"/>
      </g>
     </g>
     <g id="text_7">
      <!-- 6 -->
      <defs>
       <path d="
M33.0156 40.375
Q26.375 40.375 22.4844 35.8281
Q18.6094 31.2969 18.6094 23.3906
Q18.6094 15.5312 22.4844 10.9531
Q26.375 6.39062 33.0156 6.39062
Q39.6562 6.39062 43.5312 10.9531
Q47.4062 15.5312 47.4062 23.3906
Q47.4062 31.2969 43.5312 35.8281
Q39.6562 40.375 33.0156 40.375
M52.5938 71.2969
L52.5938 62.3125
Q48.875 64.0625 45.0938 64.9844
Q41.3125 65.9219 37.5938 65.9219
Q27.8281 65.9219 22.6719 59.3281
Q17.5312 52.7344 16.7969 39.4062
Q19.6719 43.6562 24.0156 45.9219
Q28.375 48.1875 33.5938 48.1875
Q44.5781 48.1875 50.9531 41.5156
Q57.3281 34.8594 57.3281 23.3906
Q57.3281 12.1562 50.6875 5.35938
Q44.0469 -1.42188 33.0156 -1.42188
Q20.3594 -1.42188 13.6719 8.26562
Q6.98438 17.9688 6.98438 36.375
Q6.98438 53.6562 15.1875 63.9375
Q23.3906 74.2188 37.2031 74.2188
Q40.9219 74.2188 44.7031 73.4844
Q48.4844 72.75 52.5938 71.2969" id="BitstreamVeraSans-Roman-36"/>
      </defs>
      <g transform="translate(393.128710268 378.253217822)scale(0.2 -0.2)">
       <use xlink:href="#BitstreamVeraSans-Roman-36"/>
      </g>
     </g>
    </g>
    <g id="xtick_8">
     <g id="line2d_34">
      <path clip-path="url(#pb56f8cd31d)" d="
M449.592 359.056
L449.592 13.4563" style="fill:none;stroke:#000000;stroke-dasharray:1.000000,3.000000;stroke-dashoffset:0.0;stroke-width:0.5;"/>
     </g>
     <g id="line2d_35">
      <g>
       <use style="stroke:#000000;stroke-width:0.5;" x="449.591656697" xlink:href="#m93b0483c22" y="359.056342822"/>
      </g>
     </g>
     <g id="line2d_36">
      <g>
       <use style="stroke:#000000;stroke-width:0.5;" x="449.591656697" xlink:href="#m741efc42ff" y="13.4563428218"/>
      </g>
     </g>
     <g id="text_8">
      <!-- 7 -->
      <defs>
       <path d="
M8.20312 72.9062
L55.0781 72.9062
L55.0781 68.7031
L28.6094 0
L18.3125 0
L43.2188 64.5938
L8.20312 64.5938
z
" id="BitstreamVeraSans-Roman-37"/>
      </defs>
      <g transform="translate(444.904156697 378.253217822)scale(0.2 -0.2)">
       <use xlink:href="#BitstreamVeraSans-Roman-37"/>
      </g>
     </g>
    </g>
    <g id="xtick_9">
     <g id="line2d_37">
      <path clip-path="url(#pb56f8cd31d)" d="
M501.02 359.056
L501.02 13.4563" style="fill:none;stroke:#000000;stroke-dasharray:1.000000,3.000000;stroke-dashoffset:0.0;stroke-width:0.5;"/>
     </g>
     <g id="line2d_38">
      <g>
       <use style="stroke:#000000;stroke-width:0.5;" x="501.020228125" xlink:href="#m93b0483c22" y="359.056342822"/>
      </g>
     </g>
     <g id="line2d_39">
      <g>
       <use style="stroke:#000000;stroke-width:0.5;" x="501.020228125" xlink:href="#m741efc42ff" y="13.4563428218"/>
      </g>
     </g>
     <g id="text_9">
      <!-- 8 -->
      <defs>
       <path d="
M31.7812 34.625
Q24.75 34.625 20.7188 30.8594
Q16.7031 27.0938 16.7031 20.5156
Q16.7031 13.9219 20.7188 10.1562
Q24.75 6.39062 31.7812 6.39062
Q38.8125 6.39062 42.8594 10.1719
Q46.9219 13.9688 46.9219 20.5156
Q46.9219 27.0938 42.8906 30.8594
Q38.875 34.625 31.7812 34.625
M21.9219 38.8125
Q15.5781 40.375 12.0312 44.7188
Q8.5 49.0781 8.5 55.3281
Q8.5 64.0625 14.7188 69.1406
Q20.9531 74.2188 31.7812 74.2188
Q42.6719 74.2188 48.875 69.1406
Q55.0781 64.0625 55.0781 55.3281
Q55.0781 49.0781 51.5312 44.7188
Q48 40.375 41.7031 38.8125
Q48.8281 37.1562 52.7969 32.3125
Q56.7812 27.4844 56.7812 20.5156
Q56.7812 9.90625 50.3125 4.23438
Q43.8438 -1.42188 31.7812 -1.42188
Q19.7344 -1.42188 13.25 4.23438
Q6.78125 9.90625 6.78125 20.5156
Q6.78125 27.4844 10.7812 32.3125
Q14.7969 37.1562 21.9219 38.8125
M18.3125 54.3906
Q18.3125 48.7344 21.8438 45.5625
Q25.3906 42.3906 31.7812 42.3906
Q38.1406 42.3906 41.7188 45.5625
Q45.3125 48.7344 45.3125 54.3906
Q45.3125 60.0625 41.7188 63.2344
Q38.1406 66.4062 31.7812 66.4062
Q25.3906 66.4062 21.8438 63.2344
Q18.3125 60.0625 18.3125 54.3906" id="BitstreamVeraSans-Roman-38"/>
      </defs>
      <g transform="translate(496.020228125 378.253217822)scale(0.2 -0.2)">
       <use xlink:href="#BitstreamVeraSans-Roman-38"/>
      </g>
     </g>
    </g>
    <g id="xtick_10">
     <g id="line2d_40">
      <defs>
       <path d="
M0 0
L0 -2" id="m177f7580d0" style="stroke:#000000;stroke-width:0.5;"/>
      </defs>
      <g>
       <use style="stroke:#000000;stroke-width:0.5;" x="105.073199331" xlink:href="#m177f7580d0" y="359.056342822"/>
      </g>
     </g>
     <g id="line2d_41">
      <defs>
       <path d="
M0 0
L0 2" id="m5284c7e2a0" style="stroke:#000000;stroke-width:0.5;"/>
      </defs>
      <g>
       <use style="stroke:#000000;stroke-width:0.5;" x="105.073199331" xlink:href="#m5284c7e2a0" y="13.4563428218"/>
      </g>
     </g>
    </g>
    <g id="xtick_11">
     <g id="line2d_42">
      <g>
       <use style="stroke:#000000;stroke-width:0.5;" x="120.554741965" xlink:href="#m177f7580d0" y="359.056342822"/>
      </g>
     </g>
     <g id="line2d_43">
      <g>
       <use style="stroke:#000000;stroke-width:0.5;" x="120.554741965" xlink:href="#m5284c7e2a0" y="13.4563428218"/>
      </g>
     </g>
    </g>
    <g id="xtick_12">
     <g id="line2d_44">
      <g>
       <use style="stroke:#000000;stroke-width:0.5;" x="129.610863859" xlink:href="#m177f7580d0" y="359.056342822"/>
      </g>
     </g>
     <g id="line2d_45">
      <g>
       <use style="stroke:#000000;stroke-width:0.5;" x="129.610863859" xlink:href="#m5284c7e2a0" y="13.4563428218"/>
      </g>
     </g>
    </g>
    <g id="xtick_13">
     <g id="line2d_46">
      <g>
       <use style="stroke:#000000;stroke-width:0.5;" x="136.036284599" xlink:href="#m177f7580d0" y="359.056342822"/>
      </g>
     </g>
     <g id="line2d_47">
      <g>
       <use style="stroke:#000000;stroke-width:0.5;" x="136.036284599" xlink:href="#m5284c7e2a0" y="13.4563428218"/>
      </g>
     </g>
    </g>
    <g id="xtick_14">
     <g id="line2d_48">
      <g>
       <use style="stroke:#000000;stroke-width:0.5;" x="156.50177076" xlink:href="#m177f7580d0" y="359.056342822"/>
      </g>
     </g>
     <g id="line2d_49">
      <g>
       <use style="stroke:#000000;stroke-width:0.5;" x="156.50177076" xlink:href="#m5284c7e2a0" y="13.4563428218"/>
      </g>
     </g>
    </g>
    <g id="xtick_15">
     <g id="line2d_50">
      <g>
       <use style="stroke:#000000;stroke-width:0.5;" x="171.983313394" xlink:href="#m177f7580d0" y="359.056342822"/>
      </g>
     </g>
     <g id="line2d_51">
      <g>
       <use style="stroke:#000000;stroke-width:0.5;" x="171.983313394" xlink:href="#m5284c7e2a0" y="13.4563428218"/>
      </g>
     </g>
    </g>
    <g id="xtick_16">
     <g id="line2d_52">
      <g>
       <use style="stroke:#000000;stroke-width:0.5;" x="181.039435288" xlink:href="#m177f7580d0" y="359.056342822"/>
      </g>
     </g>
     <g id="line2d_53">
      <g>
       <use style="stroke:#000000;stroke-width:0.5;" x="181.039435288" xlink:href="#m5284c7e2a0" y="13.4563428218"/>
      </g>
     </g>
    </g>
    <g id="xtick_17">
     <g id="line2d_54">
      <g>
       <use style="stroke:#000000;stroke-width:0.5;" x="187.464856028" xlink:href="#m177f7580d0" y="359.056342822"/>
      </g>
     </g>
     <g id="line2d_55">
      <g>
       <use style="stroke:#000000;stroke-width:0.5;" x="187.464856028" xlink:href="#m5284c7e2a0" y="13.4563428218"/>
      </g>
     </g>
    </g>
    <g id="xtick_18">
     <g id="line2d_56">
      <g>
       <use style="stroke:#000000;stroke-width:0.5;" x="207.930342188" xlink:href="#m177f7580d0" y="359.056342822"/>
      </g>
     </g>
     <g id="line2d_57">
      <g>
       <use style="stroke:#000000;stroke-width:0.5;" x="207.930342188" xlink:href="#m5284c7e2a0" y="13.4563428218"/>
      </g>
     </g>
    </g>
    <g id="xtick_19">
     <g id="line2d_58">
      <g>
       <use style="stroke:#000000;stroke-width:0.5;" x="223.411884822" xlink:href="#m177f7580d0" y="359.056342822"/>
      </g>
     </g>
     <g id="line2d_59">
      <g>
       <use style="stroke:#000000;stroke-width:0.5;" x="223.411884822" xlink:href="#m5284c7e2a0" y="13.4563428218"/>
      </g>
     </g>
    </g>
    <g id="xtick_20">
     <g id="line2d_60">
      <g>
       <use style="stroke:#000000;stroke-width:0.5;" x="232.468006717" xlink:href="#m177f7580d0" y="359.056342822"/>
      </g>
     </g>
     <g id="line2d_61">
      <g>
       <use style="stroke:#000000;stroke-width:0.5;" x="232.468006717" xlink:href="#m5284c7e2a0" y="13.4563428218"/>
      </g>
     </g>
    </g>
    <g id="xtick_21">
     <g id="line2d_62">
      <g>
       <use style="stroke:#000000;stroke-width:0.5;" x="238.893427456" xlink:href="#m177f7580d0" y="359.056342822"/>
      </g>
     </g>
     <g id="line2d_63">
      <g>
       <use style="stroke:#000000;stroke-width:0.5;" x="238.893427456" xlink:href="#m5284c7e2a0" y="13.4563428218"/>
      </g>
     </g>
    </g>
    <g id="xtick_22">
     <g id="line2d_64">
      <g>
       <use style="stroke:#000000;stroke-width:0.5;" x="259.358913617" xlink:href="#m177f7580d0" y="359.056342822"/>
      </g>
     </g>
     <g id="line2d_65">
      <g>
       <use style="stroke:#000000;stroke-width:0.5;" x="259.358913617" xlink:href="#m5284c7e2a0" y="13.4563428218"/>
      </g>
     </g>
    </g>
    <g id="xtick_23">
     <g id="line2d_66">
      <g>
       <use style="stroke:#000000;stroke-width:0.5;" x="274.840456251" xlink:href="#m177f7580d0" y="359.056342822"/>
      </g>
     </g>
     <g id="line2d_67">
      <g>
       <use style="stroke:#000000;stroke-width:0.5;" x="274.840456251" xlink:href="#m5284c7e2a0" y="13.4563428218"/>
      </g>
     </g>
    </g>
    <g id="xtick_24">
     <g id="line2d_68">
      <g>
       <use style="stroke:#000000;stroke-width:0.5;" x="283.896578145" xlink:href="#m177f7580d0" y="359.056342822"/>
      </g>
     </g>
     <g id="line2d_69">
      <g>
       <use style="stroke:#000000;stroke-width:0.5;" x="283.896578145" xlink:href="#m5284c7e2a0" y="13.4563428218"/>
      </g>
     </g>
    </g>
    <g id="xtick_25">
     <g id="line2d_70">
      <g>
       <use style="stroke:#000000;stroke-width:0.5;" x="290.321998885" xlink:href="#m177f7580d0" y="359.056342822"/>
      </g>
     </g>
     <g id="line2d_71">
      <g>
       <use style="stroke:#000000;stroke-width:0.5;" x="290.321998885" xlink:href="#m5284c7e2a0" y="13.4563428218"/>
      </g>
     </g>
    </g>
    <g id="xtick_26">
     <g id="line2d_72">
      <g>
       <use style="stroke:#000000;stroke-width:0.5;" x="310.787485045" xlink:href="#m177f7580d0" y="359.056342822"/>
      </g>
     </g>
     <g id="line2d_73">
      <g>
       <use style="stroke:#000000;stroke-width:0.5;" x="310.787485045" xlink:href="#m5284c7e2a0" y="13.4563428218"/>
      </g>
     </g>
    </g>
    <g id="xtick_27">
     <g id="line2d_74">
      <g>
       <use style="stroke:#000000;stroke-width:0.5;" x="326.269027679" xlink:href="#m177f7580d0" y="359.056342822"/>
      </g>
     </g>
     <g id="line2d_75">
      <g>
       <use style="stroke:#000000;stroke-width:0.5;" x="326.269027679" xlink:href="#m5284c7e2a0" y="13.4563428218"/>
      </g>
     </g>
    </g>
    <g id="xtick_28">
     <g id="line2d_76">
      <g>
       <use style="stroke:#000000;stroke-width:0.5;" x="335.325149574" xlink:href="#m177f7580d0" y="359.056342822"/>
      </g>
     </g>
     <g id="line2d_77">
      <g>
       <use style="stroke:#000000;stroke-width:0.5;" x="335.325149574" xlink:href="#m5284c7e2a0" y="13.4563428218"/>
      </g>
     </g>
    </g>
    <g id="xtick_29">
     <g id="line2d_78">
      <g>
       <use style="stroke:#000000;stroke-width:0.5;" x="341.750570314" xlink:href="#m177f7580d0" y="359.056342822"/>
      </g>
     </g>
     <g id="line2d_79">
      <g>
       <use style="stroke:#000000;stroke-width:0.5;" x="341.750570314" xlink:href="#m5284c7e2a0" y="13.4563428218"/>
      </g>
     </g>
    </g>
    <g id="xtick_30">
     <g id="line2d_80">
      <g>
       <use style="stroke:#000000;stroke-width:0.5;" x="362.216056474" xlink:href="#m177f7580d0" y="359.056342822"/>
      </g>
     </g>
     <g id="line2d_81">
      <g>
       <use style="stroke:#000000;stroke-width:0.5;" x="362.216056474" xlink:href="#m5284c7e2a0" y="13.4563428218"/>
      </g>
     </g>
    </g>
    <g id="xtick_31">
     <g id="line2d_82">
      <g>
       <use style="stroke:#000000;stroke-width:0.5;" x="377.697599108" xlink:href="#m177f7580d0" y="359.056342822"/>
      </g>
     </g>
     <g id="line2d_83">
      <g>
       <use style="stroke:#000000;stroke-width:0.5;" x="377.697599108" xlink:href="#m5284c7e2a0" y="13.4563428218"/>
      </g>
     </g>
    </g>
    <g id="xtick_32">
     <g id="line2d_84">
      <g>
       <use style="stroke:#000000;stroke-width:0.5;" x="386.753721002" xlink:href="#m177f7580d0" y="359.056342822"/>
      </g>
     </g>
     <g id="line2d_85">
      <g>
       <use style="stroke:#000000;stroke-width:0.5;" x="386.753721002" xlink:href="#m5284c7e2a0" y="13.4563428218"/>
      </g>
     </g>
    </g>
    <g id="xtick_33">
     <g id="line2d_86">
      <g>
       <use style="stroke:#000000;stroke-width:0.5;" x="393.179141742" xlink:href="#m177f7580d0" y="359.056342822"/>
      </g>
     </g>
     <g id="line2d_87">
      <g>
       <use style="stroke:#000000;stroke-width:0.5;" x="393.179141742" xlink:href="#m5284c7e2a0" y="13.4563428218"/>
      </g>
     </g>
    </g>
    <g id="xtick_34">
     <g id="line2d_88">
      <g>
       <use style="stroke:#000000;stroke-width:0.5;" x="413.644627902" xlink:href="#m177f7580d0" y="359.056342822"/>
      </g>
     </g>
     <g id="line2d_89">
      <g>
       <use style="stroke:#000000;stroke-width:0.5;" x="413.644627902" xlink:href="#m5284c7e2a0" y="13.4563428218"/>
      </g>
     </g>
    </g>
    <g id="xtick_35">
     <g id="line2d_90">
      <g>
       <use style="stroke:#000000;stroke-width:0.5;" x="429.126170537" xlink:href="#m177f7580d0" y="359.056342822"/>
      </g>
     </g>
     <g id="line2d_91">
      <g>
       <use style="stroke:#000000;stroke-width:0.5;" x="429.126170537" xlink:href="#m5284c7e2a0" y="13.4563428218"/>
      </g>
     </g>
    </g>
    <g id="xtick_36">
     <g id="line2d_92">
      <g>
       <use style="stroke:#000000;stroke-width:0.5;" x="438.182292431" xlink:href="#m177f7580d0" y="359.056342822"/>
      </g>
     </g>
     <g id="line2d_93">
      <g>
       <use style="stroke:#000000;stroke-width:0.5;" x="438.182292431" xlink:href="#m5284c7e2a0" y="13.4563428218"/>
      </g>
     </g>
    </g>
    <g id="xtick_37">
     <g id="line2d_94">
      <g>
       <use style="stroke:#000000;stroke-width:0.5;" x="444.607713171" xlink:href="#m177f7580d0" y="359.056342822"/>
      </g>
     </g>
     <g id="line2d_95">
      <g>
       <use style="stroke:#000000;stroke-width:0.5;" x="444.607713171" xlink:href="#m5284c7e2a0" y="13.4563428218"/>
      </g>
     </g>
    </g>
    <g id="xtick_38">
     <g id="line2d_96">
      <g>
       <use style="stroke:#000000;stroke-width:0.5;" x="465.073199331" xlink:href="#m177f7580d0" y="359.056342822"/>
      </g>
     </g>
     <g id="line2d_97">
      <g>
       <use style="stroke:#000000;stroke-width:0.5;" x="465.073199331" xlink:href="#m5284c7e2a0" y="13.4563428218"/>
      </g>
     </g>
    </g>
    <g id="xtick_39">
     <g id="line2d_98">
      <g>
       <use style="stroke:#000000;stroke-width:0.5;" x="480.554741965" xlink:href="#m177f7580d0" y="359.056342822"/>
      </g>
     </g>
     <g id="line2d_99">
      <g>
       <use style="stroke:#000000;stroke-width:0.5;" x="480.554741965" xlink:href="#m5284c7e2a0" y="13.4563428218"/>
      </g>
     </g>
    </g>
    <g id="xtick_40">
     <g id="line2d_100">
      <g>
       <use style="stroke:#000000;stroke-width:0.5;" x="489.610863859" xlink:href="#m177f7580d0" y="359.056342822"/>
      </g>
     </g>
     <g id="line2d_101">
      <g>
       <use style="stroke:#000000;stroke-width:0.5;" x="489.610863859" xlink:href="#m5284c7e2a0" y="13.4563428218"/>
      </g>
     </g>
    </g>
    <g id="xtick_41">
     <g id="line2d_102">
      <g>
       <use style="stroke:#000000;stroke-width:0.5;" x="496.036284599" xlink:href="#m177f7580d0" y="359.056342822"/>
      </g>
     </g>
     <g id="line2d_103">
      <g>
       <use style="stroke:#000000;stroke-width:0.5;" x="496.036284599" xlink:href="#m5284c7e2a0" y="13.4563428218"/>
      </g>
     </g>
    </g>
    <g id="xtick_42">
     <g id="line2d_104">
      <g>
       <use style="stroke:#000000;stroke-width:0.5;" x="516.50177076" xlink:href="#m177f7580d0" y="359.056342822"/>
      </g>
     </g>
     <g id="line2d_105">
      <g>
       <use style="stroke:#000000;stroke-width:0.5;" x="516.50177076" xlink:href="#m5284c7e2a0" y="13.4563428218"/>
      </g>
     </g>
    </g>
    <g id="xtick_43">
     <g id="line2d_106">
      <g>
       <use style="stroke:#000000;stroke-width:0.5;" x="531.983313394" xlink:href="#m177f7580d0" y="359.056342822"/>
      </g>
     </g>
     <g id="line2d_107">
      <g>
       <use style="stroke:#000000;stroke-width:0.5;" x="531.983313394" xlink:href="#m5284c7e2a0" y="13.4563428218"/>
      </g>
     </g>
    </g>
    <g id="text_10">
     <!-- log10 of (# f-evals / dimension) -->
     <defs>
      <path id="BitstreamVeraSans-Roman-20"/>
      <path d="
M51.125 44
L36.9219 44
L32.8125 27.6875
L47.125 27.6875
z

M43.7969 71.7812
L38.7188 51.5156
L52.9844 51.5156
L58.1094 71.7812
L65.9219 71.7812
L60.8906 51.5156
L76.125 51.5156
L76.125 44
L58.9844 44
L54.9844 27.6875
L70.5156 27.6875
L70.5156 20.2188
L53.0781 20.2188
L48 0
L40.1875 0
L45.2188 20.2188
L30.9062 20.2188
L25.875 0
L18.0156 0
L23.0938 20.2188
L7.71875 20.2188
L7.71875 27.6875
L24.9062 27.6875
L29 44
L13.2812 44
L13.2812 51.5156
L30.9062 51.5156
L35.8906 71.7812
z
" id="BitstreamVeraSans-Roman-23"/>
      <path d="
M52 44.1875
Q55.375 50.25 60.0625 53.125
Q64.75 56 71.0938 56
Q79.6406 56 84.2812 50.0156
Q88.9219 44.0469 88.9219 33.0156
L88.9219 0
L79.8906 0
L79.8906 32.7188
Q79.8906 40.5781 77.0938 44.375
Q74.3125 48.1875 68.6094 48.1875
Q61.625 48.1875 57.5625 43.5469
Q53.5156 38.9219 53.5156 30.9062
L53.5156 0
L44.4844 0
L44.4844 32.7188
Q44.4844 40.625 41.7031 44.4062
Q38.9219 48.1875 33.1094 48.1875
Q26.2188 48.1875 22.1562 43.5312
Q18.1094 38.875 18.1094 30.9062
L18.1094 0
L9.07812 0
L9.07812 54.6875
L18.1094 54.6875
L18.1094 46.1875
Q21.1875 51.2188 25.4844 53.6094
Q29.7812 56 35.6875 56
Q41.6562 56 45.8281 52.9688
Q50 49.9531 52 44.1875" id="BitstreamVeraSans-Roman-6d"/>
      <path d="
M54.8906 33.0156
L54.8906 0
L45.9062 0
L45.9062 32.7188
Q45.9062 40.4844 42.875 44.3281
Q39.8438 48.1875 33.7969 48.1875
Q26.5156 48.1875 22.3125 43.5469
Q18.1094 38.9219 18.1094 30.9062
L18.1094 0
L9.07812 0
L9.07812 54.6875
L18.1094 54.6875
L18.1094 46.1875
Q21.3438 51.125 25.7031 53.5625
Q30.0781 56 35.7969 56
Q45.2188 56 50.0469 50.1719
Q54.8906 44.3438 54.8906 33.0156" id="BitstreamVeraSans-Roman-6e"/>
      <path d="
M31 75.875
Q24.4688 64.6562 21.2812 53.6562
Q18.1094 42.6719 18.1094 31.3906
Q18.1094 20.125 21.3125 9.0625
Q24.5156 -2 31 -13.1875
L23.1875 -13.1875
Q15.875 -1.70312 12.2344 9.375
Q8.59375 20.4531 8.59375 31.3906
Q8.59375 42.2812 12.2031 53.3125
Q15.8281 64.3594 23.1875 75.875
z
" id="BitstreamVeraSans-Roman-28"/>
      <path d="
M30.6094 48.3906
Q23.3906 48.3906 19.1875 42.75
Q14.9844 37.1094 14.9844 27.2969
Q14.9844 17.4844 19.1562 11.8438
Q23.3438 6.20312 30.6094 6.20312
Q37.7969 6.20312 41.9844 11.8594
Q46.1875 17.5312 46.1875 27.2969
Q46.1875 37.0156 41.9844 42.7031
Q37.7969 48.3906 30.6094 48.3906
M30.6094 56
Q42.3281 56 49.0156 48.375
Q55.7188 40.7656 55.7188 27.2969
Q55.7188 13.875 49.0156 6.21875
Q42.3281 -1.42188 30.6094 -1.42188
Q18.8438 -1.42188 12.1719 6.21875
Q5.51562 13.875 5.51562 27.2969
Q5.51562 40.7656 12.1719 48.375
Q18.8438 56 30.6094 56" id="BitstreamVeraSans-Roman-6f"/>
      <path d="
M9.42188 75.9844
L18.4062 75.9844
L18.4062 0
L9.42188 0
z
" id="BitstreamVeraSans-Roman-6c"/>
      <path d="
M2.98438 54.6875
L12.5 54.6875
L29.5938 8.79688
L46.6875 54.6875
L56.2031 54.6875
L35.6875 0
L23.4844 0
z
" id="BitstreamVeraSans-Roman-76"/>
      <path d="
M9.42188 54.6875
L18.4062 54.6875
L18.4062 0
L9.42188 0
z

M9.42188 75.9844
L18.4062 75.9844
L18.4062 64.5938
L9.42188 64.5938
z
" id="BitstreamVeraSans-Roman-69"/>
      <path d="
M4.89062 31.3906
L31.2031 31.3906
L31.2031 23.3906
L4.89062 23.3906
z
" id="BitstreamVeraSans-Roman-2d"/>
      <path d="
M25.3906 72.9062
L33.6875 72.9062
L8.29688 -9.28125
L0 -9.28125
z
" id="BitstreamVeraSans-Roman-2f"/>
      <path d="
M56.2031 29.5938
L56.2031 25.2031
L14.8906 25.2031
Q15.4844 15.9219 20.4844 11.0625
Q25.4844 6.20312 34.4219 6.20312
Q39.5938 6.20312 44.4531 7.46875
Q49.3125 8.73438 54.1094 11.2812
L54.1094 2.78125
Q49.2656 0.734375 44.1875 -0.34375
Q39.1094 -1.42188 33.8906 -1.42188
Q20.7969 -1.42188 13.1562 6.1875
Q5.51562 13.8125 5.51562 26.8125
Q5.51562 40.2344 12.7656 48.1094
Q20.0156 56 32.3281 56
Q43.3594 56 49.7812 48.8906
Q56.2031 41.7969 56.2031 29.5938
M47.2188 32.2344
Q47.125 39.5938 43.0938 43.9844
Q39.0625 48.3906 32.4219 48.3906
Q24.9062 48.3906 20.3906 44.1406
Q15.875 39.8906 15.1875 32.1719
z
" id="BitstreamVeraSans-Roman-65"/>
      <path d="
M45.4062 46.3906
L45.4062 75.9844
L54.3906 75.9844
L54.3906 0
L45.4062 0
L45.4062 8.20312
Q42.5781 3.32812 38.25 0.953125
Q33.9375 -1.42188 27.875 -1.42188
Q17.9688 -1.42188 11.7344 6.48438
Q5.51562 14.4062 5.51562 27.2969
Q5.51562 40.1875 11.7344 48.0938
Q17.9688 56 27.875 56
Q33.9375 56 38.25 53.625
Q42.5781 51.2656 45.4062 46.3906
M14.7969 27.2969
Q14.7969 17.3906 18.875 11.75
Q22.9531 6.10938 30.0781 6.10938
Q37.2031 6.10938 41.2969 11.75
Q45.4062 17.3906 45.4062 27.2969
Q45.4062 37.2031 41.2969 42.8438
Q37.2031 48.4844 30.0781 48.4844
Q22.9531 48.4844 18.875 42.8438
Q14.7969 37.2031 14.7969 27.2969" id="BitstreamVeraSans-Roman-64"/>
      <path d="
M45.4062 27.9844
Q45.4062 37.75 41.375 43.1094
Q37.3594 48.4844 30.0781 48.4844
Q22.8594 48.4844 18.8281 43.1094
Q14.7969 37.75 14.7969 27.9844
Q14.7969 18.2656 18.8281 12.8906
Q22.8594 7.51562 30.0781 7.51562
Q37.3594 7.51562 41.375 12.8906
Q45.4062 18.2656 45.4062 27.9844
M54.3906 6.78125
Q54.3906 -7.17188 48.1875 -13.9844
Q42 -20.7969 29.2031 -20.7969
Q24.4688 -20.7969 20.2656 -20.0938
Q16.0625 -19.3906 12.1094 -17.9219
L12.1094 -9.1875
Q16.0625 -11.3281 19.9219 -12.3438
Q23.7812 -13.375 27.7812 -13.375
Q36.625 -13.375 41.0156 -8.76562
Q45.4062 -4.15625 45.4062 5.17188
L45.4062 9.625
Q42.625 4.78125 38.2812 2.39062
Q33.9375 0 27.875 0
Q17.8281 0 11.6719 7.65625
Q5.51562 15.3281 5.51562 27.9844
Q5.51562 40.6719 11.6719 48.3281
Q17.8281 56 27.875 56
Q33.9375 56 38.2812 53.6094
Q42.625 51.2188 45.4062 46.3906
L45.4062 54.6875
L54.3906 54.6875
z
" id="BitstreamVeraSans-Roman-67"/>
      <path d="
M37.1094 75.9844
L37.1094 68.5
L28.5156 68.5
Q23.6875 68.5 21.7969 66.5469
Q19.9219 64.5938 19.9219 59.5156
L19.9219 54.6875
L34.7188 54.6875
L34.7188 47.7031
L19.9219 47.7031
L19.9219 0
L10.8906 0
L10.8906 47.7031
L2.29688 47.7031
L2.29688 54.6875
L10.8906 54.6875
L10.8906 58.5
Q10.8906 67.625 15.1406 71.7969
Q19.3906 75.9844 28.6094 75.9844
z
" id="BitstreamVeraSans-Roman-66"/>
      <path d="
M34.2812 27.4844
Q23.3906 27.4844 19.1875 25
Q14.9844 22.5156 14.9844 16.5
Q14.9844 11.7188 18.1406 8.90625
Q21.2969 6.10938 26.7031 6.10938
Q34.1875 6.10938 38.7031 11.4062
Q43.2188 16.7031 43.2188 25.4844
L43.2188 27.4844
z

M52.2031 31.2031
L52.2031 0
L43.2188 0
L43.2188 8.29688
Q40.1406 3.32812 35.5469 0.953125
Q30.9531 -1.42188 24.3125 -1.42188
Q15.9219 -1.42188 10.9531 3.29688
Q6 8.01562 6 15.9219
Q6 25.1406 12.1719 29.8281
Q18.3594 34.5156 30.6094 34.5156
L43.2188 34.5156
L43.2188 35.4062
Q43.2188 41.6094 39.1406 45
Q35.0625 48.3906 27.6875 48.3906
Q23 48.3906 18.5469 47.2656
Q14.1094 46.1406 10.0156 43.8906
L10.0156 52.2031
Q14.9375 54.1094 19.5781 55.0469
Q24.2188 56 28.6094 56
Q40.4844 56 46.3438 49.8438
Q52.2031 43.7031 52.2031 31.2031" id="BitstreamVeraSans-Roman-61"/>
      <path d="
M44.2812 53.0781
L44.2812 44.5781
Q40.4844 46.5312 36.375 47.5
Q32.2812 48.4844 27.875 48.4844
Q21.1875 48.4844 17.8438 46.4375
Q14.5 44.3906 14.5 40.2812
Q14.5 37.1562 16.8906 35.375
Q19.2812 33.5938 26.5156 31.9844
L29.5938 31.2969
Q39.1562 29.25 43.1875 25.5156
Q47.2188 21.7812 47.2188 15.0938
Q47.2188 7.46875 41.1875 3.01562
Q35.1562 -1.42188 24.6094 -1.42188
Q20.2188 -1.42188 15.4531 -0.5625
Q10.6875 0.296875 5.42188 2
L5.42188 11.2812
Q10.4062 8.6875 15.2344 7.39062
Q20.0625 6.10938 24.8125 6.10938
Q31.1562 6.10938 34.5625 8.28125
Q37.9844 10.4531 37.9844 14.4062
Q37.9844 18.0625 35.5156 20.0156
Q33.0625 21.9688 24.7031 23.7812
L21.5781 24.5156
Q13.2344 26.2656 9.51562 29.9062
Q5.8125 33.5469 5.8125 39.8906
Q5.8125 47.6094 11.2812 51.7969
Q16.75 56 26.8125 56
Q31.7812 56 36.1719 55.2656
Q40.5781 54.5469 44.2812 53.0781" id="BitstreamVeraSans-Roman-73"/>
      <path d="
M8.01562 75.875
L15.8281 75.875
Q23.1406 64.3594 26.7812 53.3125
Q30.4219 42.2812 30.4219 31.3906
Q30.4219 20.4531 26.7812 9.375
Q23.1406 -1.70312 15.8281 -13.1875
L8.01562 -13.1875
Q14.5 -2 17.7031 9.0625
Q20.9062 20.125 20.9062 31.3906
Q20.9062 42.6719 17.7031 53.6562
Q14.5 64.6562 8.01562 75.875" id="BitstreamVeraSans-Roman-29"/>
     </defs>
     <g transform="translate(171.708219197 401.089780322)scale(0.18 -0.18)">
      <use xlink:href="#BitstreamVeraSans-Roman-6c"/>
      <use x="27.783203125" xlink:href="#BitstreamVeraSans-Roman-6f"/>
      <use x="88.96484375" xlink:href="#BitstreamVeraSans-Roman-67"/>
      <use x="152.44140625" xlink:href="#BitstreamVeraSans-Roman-31"/>
      <use x="216.064453125" xlink:href="#BitstreamVeraSans-Roman-30"/>
      <use x="279.6875" xlink:href="#BitstreamVeraSans-Roman-20"/>
      <use x="311.474609375" xlink:href="#BitstreamVeraSans-Roman-6f"/>
      <use x="372.65625" xlink:href="#BitstreamVeraSans-Roman-66"/>
      <use x="407.861328125" xlink:href="#BitstreamVeraSans-Roman-20"/>
      <use x="439.6484375" xlink:href="#BitstreamVeraSans-Roman-28"/>
      <use x="478.662109375" xlink:href="#BitstreamVeraSans-Roman-23"/>
      <use x="562.451171875" xlink:href="#BitstreamVeraSans-Roman-20"/>
      <use x="594.23828125" xlink:href="#BitstreamVeraSans-Roman-66"/>
      <use x="623.943359375" xlink:href="#BitstreamVeraSans-Roman-2d"/>
      <use x="660.02734375" xlink:href="#BitstreamVeraSans-Roman-65"/>
      <use x="721.55078125" xlink:href="#BitstreamVeraSans-Roman-76"/>
      <use x="780.73046875" xlink:href="#BitstreamVeraSans-Roman-61"/>
      <use x="842.009765625" xlink:href="#BitstreamVeraSans-Roman-6c"/>
      <use x="869.79296875" xlink:href="#BitstreamVeraSans-Roman-73"/>
      <use x="921.892578125" xlink:href="#BitstreamVeraSans-Roman-20"/>
      <use x="953.6796875" xlink:href="#BitstreamVeraSans-Roman-2f"/>
      <use x="987.37109375" xlink:href="#BitstreamVeraSans-Roman-20"/>
      <use x="1019.15820312" xlink:href="#BitstreamVeraSans-Roman-64"/>
      <use x="1082.63476562" xlink:href="#BitstreamVeraSans-Roman-69"/>
      <use x="1110.41796875" xlink:href="#BitstreamVeraSans-Roman-6d"/>
      <use x="1207.83007812" xlink:href="#BitstreamVeraSans-Roman-65"/>
      <use x="1269.35351562" xlink:href="#BitstreamVeraSans-Roman-6e"/>
      <use x="1332.73242188" xlink:href="#BitstreamVeraSans-Roman-73"/>
      <use x="1384.83203125" xlink:href="#BitstreamVeraSans-Roman-69"/>
      <use x="1412.61523438" xlink:href="#BitstreamVeraSans-Roman-6f"/>
      <use x="1473.796875" xlink:href="#BitstreamVeraSans-Roman-6e"/>
      <use x="1537.17578125" xlink:href="#BitstreamVeraSans-Roman-29"/>
     </g>
    </g>
   </g>
   <g id="matplotlib.axis_2">
    <g id="ytick_1">
     <g id="line2d_108">
      <path clip-path="url(#pb56f8cd31d)" d="
M89.5917 359.056
L535.992 359.056" style="fill:none;stroke:#000000;stroke-dasharray:1.000000,3.000000;stroke-dashoffset:0.0;stroke-width:0.5;"/>
     </g>
     <g id="line2d_109">
      <defs>
       <path d="
M0 0
L4 0" id="m728421d6d4" style="stroke:#000000;stroke-width:0.5;"/>
      </defs>
      <g>
       <use style="stroke:#000000;stroke-width:0.5;" x="89.5916566969" xlink:href="#m728421d6d4" y="359.056342822"/>
      </g>
     </g>
     <g id="line2d_110">
      <defs>
       <path d="
M0 0
L-4 0" id="mcb0005524f" style="stroke:#000000;stroke-width:0.5;"/>
      </defs>
      <g>
       <use style="stroke:#000000;stroke-width:0.5;" x="535.991656697" xlink:href="#mcb0005524f" y="359.056342822"/>
      </g>
     </g>
     <g id="text_11">
      <!-- 0.0 -->
      <defs>
       <path d="
M10.6875 12.4062
L21 12.4062
L21 0
L10.6875 0
z
" id="BitstreamVeraSans-Roman-2e"/>
      </defs>
      <g transform="translate(56.4322816969 364.575092822)scale(0.2 -0.2)">
       <use xlink:href="#BitstreamVeraSans-Roman-30"/>
       <use x="63.623046875" xlink:href="#BitstreamVeraSans-Roman-2e"/>
       <use x="95.41015625" xlink:href="#BitstreamVeraSans-Roman-30"/>
      </g>
     </g>
    </g>
    <g id="ytick_2">
     <g id="line2d_111">
      <path clip-path="url(#pb56f8cd31d)" d="
M89.5917 290.621
L535.992 290.621" style="fill:none;stroke:#000000;stroke-dasharray:1.000000,3.000000;stroke-dashoffset:0.0;stroke-width:0.5;"/>
     </g>
     <g id="line2d_112">
      <g>
       <use style="stroke:#000000;stroke-width:0.5;" x="89.5916566969" xlink:href="#m728421d6d4" y="290.620699257"/>
      </g>
     </g>
     <g id="line2d_113">
      <g>
       <use style="stroke:#000000;stroke-width:0.5;" x="535.991656697" xlink:href="#mcb0005524f" y="290.620699257"/>
      </g>
     </g>
     <g id="text_12">
      <!-- 0.2 -->
      <g transform="translate(57.1072816969 296.139449257)scale(0.2 -0.2)">
       <use xlink:href="#BitstreamVeraSans-Roman-30"/>
       <use x="63.623046875" xlink:href="#BitstreamVeraSans-Roman-2e"/>
       <use x="95.41015625" xlink:href="#BitstreamVeraSans-Roman-32"/>
      </g>
     </g>
    </g>
    <g id="ytick_3">
     <g id="line2d_114">
      <path clip-path="url(#pb56f8cd31d)" d="
M89.5917 222.185
L535.992 222.185" style="fill:none;stroke:#000000;stroke-dasharray:1.000000,3.000000;stroke-dashoffset:0.0;stroke-width:0.5;"/>
     </g>
     <g id="line2d_115">
      <g>
       <use style="stroke:#000000;stroke-width:0.5;" x="89.5916566969" xlink:href="#m728421d6d4" y="222.185055693"/>
      </g>
     </g>
     <g id="line2d_116">
      <g>
       <use style="stroke:#000000;stroke-width:0.5;" x="535.991656697" xlink:href="#mcb0005524f" y="222.185055693"/>
      </g>
     </g>
     <g id="text_13">
      <!-- 0.4 -->
      <g transform="translate(56.2260316969 227.703805693)scale(0.2 -0.2)">
       <use xlink:href="#BitstreamVeraSans-Roman-30"/>
       <use x="63.623046875" xlink:href="#BitstreamVeraSans-Roman-2e"/>
       <use x="95.41015625" xlink:href="#BitstreamVeraSans-Roman-34"/>
      </g>
     </g>
    </g>
    <g id="ytick_4">
     <g id="line2d_117">
      <path clip-path="url(#pb56f8cd31d)" d="
M89.5917 153.749
L535.992 153.749" style="fill:none;stroke:#000000;stroke-dasharray:1.000000,3.000000;stroke-dashoffset:0.0;stroke-width:0.5;"/>
     </g>
     <g id="line2d_118">
      <g>
       <use style="stroke:#000000;stroke-width:0.5;" x="89.5916566969" xlink:href="#m728421d6d4" y="153.749412129"/>
      </g>
     </g>
     <g id="line2d_119">
      <g>
       <use style="stroke:#000000;stroke-width:0.5;" x="535.991656697" xlink:href="#mcb0005524f" y="153.749412129"/>
      </g>
     </g>
     <g id="text_14">
      <!-- 0.6 -->
      <g transform="translate(56.3635316969 159.268162129)scale(0.2 -0.2)">
       <use xlink:href="#BitstreamVeraSans-Roman-30"/>
       <use x="63.623046875" xlink:href="#BitstreamVeraSans-Roman-2e"/>
       <use x="95.41015625" xlink:href="#BitstreamVeraSans-Roman-36"/>
      </g>
     </g>
    </g>
    <g id="ytick_5">
     <g id="line2d_120">
      <path clip-path="url(#pb56f8cd31d)" d="
M89.5917 85.3138
L535.992 85.3138" style="fill:none;stroke:#000000;stroke-dasharray:1.000000,3.000000;stroke-dashoffset:0.0;stroke-width:0.5;"/>
     </g>
     <g id="line2d_121">
      <g>
       <use style="stroke:#000000;stroke-width:0.5;" x="89.5916566969" xlink:href="#m728421d6d4" y="85.3137685644"/>
      </g>
     </g>
     <g id="line2d_122">
      <g>
       <use style="stroke:#000000;stroke-width:0.5;" x="535.991656697" xlink:href="#mcb0005524f" y="85.3137685644"/>
      </g>
     </g>
     <g id="text_15">
      <!-- 0.8 -->
      <g transform="translate(56.4729066969 90.8325185644)scale(0.2 -0.2)">
       <use xlink:href="#BitstreamVeraSans-Roman-30"/>
       <use x="63.623046875" xlink:href="#BitstreamVeraSans-Roman-2e"/>
       <use x="95.41015625" xlink:href="#BitstreamVeraSans-Roman-38"/>
      </g>
     </g>
    </g>
    <g id="ytick_6">
     <g id="line2d_123">
      <path clip-path="url(#pb56f8cd31d)" d="
M89.5917 16.8781
L535.992 16.8781" style="fill:none;stroke:#000000;stroke-dasharray:1.000000,3.000000;stroke-dashoffset:0.0;stroke-width:0.5;"/>
     </g>
     <g id="line2d_124">
      <g>
       <use style="stroke:#000000;stroke-width:0.5;" x="89.5916566969" xlink:href="#m728421d6d4" y="16.878125"/>
      </g>
     </g>
     <g id="line2d_125">
      <g>
       <use style="stroke:#000000;stroke-width:0.5;" x="535.991656697" xlink:href="#mcb0005524f" y="16.878125"/>
      </g>
     </g>
     <g id="text_16">
      <!-- 1.0 -->
      <g transform="translate(57.3104066969 22.396875)scale(0.2 -0.2)">
       <use xlink:href="#BitstreamVeraSans-Roman-31"/>
       <use x="63.623046875" xlink:href="#BitstreamVeraSans-Roman-2e"/>
       <use x="95.41015625" xlink:href="#BitstreamVeraSans-Roman-30"/>
      </g>
     </g>
    </g>
    <g id="text_17">
     <!-- Proportion of function+target pairs -->
     <defs>
      <path d="
M19.6719 64.7969
L19.6719 37.4062
L32.0781 37.4062
Q38.9688 37.4062 42.7188 40.9688
Q46.4844 44.5312 46.4844 51.125
Q46.4844 57.6719 42.7188 61.2344
Q38.9688 64.7969 32.0781 64.7969
z

M9.8125 72.9062
L32.0781 72.9062
Q44.3438 72.9062 50.6094 67.3594
Q56.8906 61.8125 56.8906 51.125
Q56.8906 40.3281 50.6094 34.8125
Q44.3438 29.2969 32.0781 29.2969
L19.6719 29.2969
L19.6719 0
L9.8125 0
z
" id="BitstreamVeraSans-Roman-50"/>
      <path d="
M46 62.7031
L46 35.5
L73.1875 35.5
L73.1875 27.2031
L46 27.2031
L46 0
L37.7969 0
L37.7969 27.2031
L10.5938 27.2031
L10.5938 35.5
L37.7969 35.5
L37.7969 62.7031
z
" id="BitstreamVeraSans-Roman-2b"/>
      <path d="
M18.1094 8.20312
L18.1094 -20.7969
L9.07812 -20.7969
L9.07812 54.6875
L18.1094 54.6875
L18.1094 46.3906
Q20.9531 51.2656 25.2656 53.625
Q29.5938 56 35.5938 56
Q45.5625 56 51.7812 48.0938
Q58.0156 40.1875 58.0156 27.2969
Q58.0156 14.4062 51.7812 6.48438
Q45.5625 -1.42188 35.5938 -1.42188
Q29.5938 -1.42188 25.2656 0.953125
Q20.9531 3.32812 18.1094 8.20312
M48.6875 27.2969
Q48.6875 37.2031 44.6094 42.8438
Q40.5312 48.4844 33.4062 48.4844
Q26.2656 48.4844 22.1875 42.8438
Q18.1094 37.2031 18.1094 27.2969
Q18.1094 17.3906 22.1875 11.75
Q26.2656 6.10938 33.4062 6.10938
Q40.5312 6.10938 44.6094 11.75
Q48.6875 17.3906 48.6875 27.2969" id="BitstreamVeraSans-Roman-70"/>
      <path d="
M18.3125 70.2188
L18.3125 54.6875
L36.8125 54.6875
L36.8125 47.7031
L18.3125 47.7031
L18.3125 18.0156
Q18.3125 11.3281 20.1406 9.42188
Q21.9688 7.51562 27.5938 7.51562
L36.8125 7.51562
L36.8125 0
L27.5938 0
Q17.1875 0 13.2344 3.875
Q9.28125 7.76562 9.28125 18.0156
L9.28125 47.7031
L2.6875 47.7031
L2.6875 54.6875
L9.28125 54.6875
L9.28125 70.2188
z
" id="BitstreamVeraSans-Roman-74"/>
      <path d="
M8.5 21.5781
L8.5 54.6875
L17.4844 54.6875
L17.4844 21.9219
Q17.4844 14.1562 20.5 10.2656
Q23.5312 6.39062 29.5938 6.39062
Q36.8594 6.39062 41.0781 11.0312
Q45.3125 15.6719 45.3125 23.6875
L45.3125 54.6875
L54.2969 54.6875
L54.2969 0
L45.3125 0
L45.3125 8.40625
Q42.0469 3.42188 37.7188 1
Q33.4062 -1.42188 27.6875 -1.42188
Q18.2656 -1.42188 13.375 4.4375
Q8.5 10.2969 8.5 21.5781" id="BitstreamVeraSans-Roman-75"/>
      <path d="
M41.1094 46.2969
Q39.5938 47.1719 37.8125 47.5781
Q36.0312 48 33.8906 48
Q26.2656 48 22.1875 43.0469
Q18.1094 38.0938 18.1094 28.8125
L18.1094 0
L9.07812 0
L9.07812 54.6875
L18.1094 54.6875
L18.1094 46.1875
Q20.9531 51.1719 25.4844 53.5781
Q30.0312 56 36.5312 56
Q37.4531 56 38.5781 55.875
Q39.7031 55.7656 41.0625 55.5156
z
" id="BitstreamVeraSans-Roman-72"/>
      <path d="
M48.7812 52.5938
L48.7812 44.1875
Q44.9688 46.2969 41.1406 47.3438
Q37.3125 48.3906 33.4062 48.3906
Q24.6562 48.3906 19.8125 42.8438
Q14.9844 37.3125 14.9844 27.2969
Q14.9844 17.2812 19.8125 11.7344
Q24.6562 6.20312 33.4062 6.20312
Q37.3125 6.20312 41.1406 7.25
Q44.9688 8.29688 48.7812 10.4062
L48.7812 2.09375
Q45.0156 0.34375 40.9844 -0.53125
Q36.9688 -1.42188 32.4219 -1.42188
Q20.0625 -1.42188 12.7812 6.34375
Q5.51562 14.1094 5.51562 27.2969
Q5.51562 40.6719 12.8594 48.3281
Q20.2188 56 33.0156 56
Q37.1562 56 41.1094 55.1406
Q45.0625 54.2969 48.7812 52.5938" id="BitstreamVeraSans-Roman-63"/>
     </defs>
     <g transform="translate(47.4825941969 343.295092822)rotate(-90.0)scale(0.18 -0.18)">
      <use xlink:href="#BitstreamVeraSans-Roman-50"/>
      <use x="58.552734375" xlink:href="#BitstreamVeraSans-Roman-72"/>
      <use x="97.416015625" xlink:href="#BitstreamVeraSans-Roman-6f"/>
      <use x="158.59765625" xlink:href="#BitstreamVeraSans-Roman-70"/>
      <use x="222.07421875" xlink:href="#BitstreamVeraSans-Roman-6f"/>
      <use x="283.255859375" xlink:href="#BitstreamVeraSans-Roman-72"/>
      <use x="324.369140625" xlink:href="#BitstreamVeraSans-Roman-74"/>
      <use x="363.578125" xlink:href="#BitstreamVeraSans-Roman-69"/>
      <use x="391.361328125" xlink:href="#BitstreamVeraSans-Roman-6f"/>
      <use x="452.54296875" xlink:href="#BitstreamVeraSans-Roman-6e"/>
      <use x="515.921875" xlink:href="#BitstreamVeraSans-Roman-20"/>
      <use x="547.708984375" xlink:href="#BitstreamVeraSans-Roman-6f"/>
      <use x="608.890625" xlink:href="#BitstreamVeraSans-Roman-66"/>
      <use x="644.095703125" xlink:href="#BitstreamVeraSans-Roman-20"/>
      <use x="675.8828125" xlink:href="#BitstreamVeraSans-Roman-66"/>
      <use x="711.087890625" xlink:href="#BitstreamVeraSans-Roman-75"/>
      <use x="774.466796875" xlink:href="#BitstreamVeraSans-Roman-6e"/>
      <use x="837.845703125" xlink:href="#BitstreamVeraSans-Roman-63"/>
      <use x="892.826171875" xlink:href="#BitstreamVeraSans-Roman-74"/>
      <use x="932.03515625" xlink:href="#BitstreamVeraSans-Roman-69"/>
      <use x="959.818359375" xlink:href="#BitstreamVeraSans-Roman-6f"/>
      <use x="1021.0" xlink:href="#BitstreamVeraSans-Roman-6e"/>
      <use x="1084.37890625" xlink:href="#BitstreamVeraSans-Roman-2b"/>
      <use x="1168.16796875" xlink:href="#BitstreamVeraSans-Roman-74"/>
      <use x="1207.37695312" xlink:href="#BitstreamVeraSans-Roman-61"/>
      <use x="1268.65625" xlink:href="#BitstreamVeraSans-Roman-72"/>
      <use x="1308.01953125" xlink:href="#BitstreamVeraSans-Roman-67"/>
      <use x="1371.49609375" xlink:href="#BitstreamVeraSans-Roman-65"/>
      <use x="1433.01953125" xlink:href="#BitstreamVeraSans-Roman-74"/>
      <use x="1472.22851562" xlink:href="#BitstreamVeraSans-Roman-20"/>
      <use x="1504.015625" xlink:href="#BitstreamVeraSans-Roman-70"/>
      <use x="1567.4921875" xlink:href="#BitstreamVeraSans-Roman-61"/>
      <use x="1628.77148438" xlink:href="#BitstreamVeraSans-Roman-69"/>
      <use x="1656.5546875" xlink:href="#BitstreamVeraSans-Roman-72"/>
      <use x="1697.66796875" xlink:href="#BitstreamVeraSans-Roman-73"/>
     </g>
    </g>
   </g>
   <g id="patch_3">
    <path d="
M89.5917 13.4563
L535.992 13.4563" style="fill:none;stroke:#000000;"/>
   </g>
   <g id="patch_4">
    <path d="
M535.992 359.056
L535.992 13.4563" style="fill:none;stroke:#000000;"/>
   </g>
   <g id="patch_5">
    <path d="
M89.5917 359.056
L535.992 359.056" style="fill:none;stroke:#000000;"/>
   </g>
   <g id="patch_6">
    <path d="
M89.5917 359.056
L89.5917 13.4563" style="fill:none;stroke:#000000;"/>
   </g>
   <g id="text_18">
    <!-- A2 Carped -->
    <defs>
     <path d="
M64.4062 67.2812
L64.4062 56.8906
Q59.4219 61.5312 53.7812 63.8125
Q48.1406 66.1094 41.7969 66.1094
Q29.2969 66.1094 22.6562 58.4688
Q16.0156 50.8281 16.0156 36.375
Q16.0156 21.9688 22.6562 14.3281
Q29.2969 6.6875 41.7969 6.6875
Q48.1406 6.6875 53.7812 8.98438
Q59.4219 11.2812 64.4062 15.9219
L64.4062 5.60938
Q59.2344 2.09375 53.4375 0.328125
Q47.6562 -1.42188 41.2188 -1.42188
Q24.6562 -1.42188 15.125 8.70312
Q5.60938 18.8438 5.60938 36.375
Q5.60938 53.9531 15.125 64.0781
Q24.6562 74.2188 41.2188 74.2188
Q47.75 74.2188 53.5312 72.4844
Q59.3281 70.75 64.4062 67.2812" id="BitstreamVeraSans-Roman-43"/>
     <path d="
M34.1875 63.1875
L20.7969 26.9062
L47.6094 26.9062
z

M28.6094 72.9062
L39.7969 72.9062
L67.5781 0
L57.3281 0
L50.6875 18.7031
L17.8281 18.7031
L11.1875 0
L0.78125 0
z
" id="BitstreamVeraSans-Roman-41"/>
    </defs>
    <g transform="translate(496.391656697 356.351840965)scale(0.15 -0.15)">
     <use xlink:href="#BitstreamVeraSans-Roman-41"/>
     <use x="68.408203125" xlink:href="#BitstreamVeraSans-Roman-32"/>
     <use x="132.03125" xlink:href="#BitstreamVeraSans-Roman-20"/>
     <use x="163.818359375" xlink:href="#BitstreamVeraSans-Roman-43"/>
     <use x="233.642578125" xlink:href="#BitstreamVeraSans-Roman-61"/>
     <use x="294.921875" xlink:href="#BitstreamVeraSans-Roman-72"/>
     <use x="336.03515625" xlink:href="#BitstreamVeraSans-Roman-70"/>
     <use x="399.51171875" xlink:href="#BitstreamVeraSans-Roman-65"/>
     <use x="461.03515625" xlink:href="#BitstreamVeraSans-Roman-64"/>
    </g>
   </g>
   <g id="text_19">
    <!-- best 2009 -->
    <defs>
     <path d="
M10.9844 1.51562
L10.9844 10.5
Q14.7031 8.73438 18.5 7.8125
Q22.3125 6.89062 25.9844 6.89062
Q35.75 6.89062 40.8906 13.4531
Q46.0469 20.0156 46.7812 33.4062
Q43.9531 29.2031 39.5938 26.9531
Q35.25 24.7031 29.9844 24.7031
Q19.0469 24.7031 12.6719 31.3125
Q6.29688 37.9375 6.29688 49.4219
Q6.29688 60.6406 12.9375 67.4219
Q19.5781 74.2188 30.6094 74.2188
Q43.2656 74.2188 49.9219 64.5156
Q56.5938 54.8281 56.5938 36.375
Q56.5938 19.1406 48.4062 8.85938
Q40.2344 -1.42188 26.4219 -1.42188
Q22.7031 -1.42188 18.8906 -0.6875
Q15.0938 0.046875 10.9844 1.51562
M30.6094 32.4219
Q37.25 32.4219 41.125 36.9531
Q45.0156 41.5 45.0156 49.4219
Q45.0156 57.2812 41.125 61.8438
Q37.25 66.4062 30.6094 66.4062
Q23.9688 66.4062 20.0938 61.8438
Q16.2188 57.2812 16.2188 49.4219
Q16.2188 41.5 20.0938 36.9531
Q23.9688 32.4219 30.6094 32.4219" id="BitstreamVeraSans-Roman-39"/>
     <path d="
M48.6875 27.2969
Q48.6875 37.2031 44.6094 42.8438
Q40.5312 48.4844 33.4062 48.4844
Q26.2656 48.4844 22.1875 42.8438
Q18.1094 37.2031 18.1094 27.2969
Q18.1094 17.3906 22.1875 11.75
Q26.2656 6.10938 33.4062 6.10938
Q40.5312 6.10938 44.6094 11.75
Q48.6875 17.3906 48.6875 27.2969
M18.1094 46.3906
Q20.9531 51.2656 25.2656 53.625
Q29.5938 56 35.5938 56
Q45.5625 56 51.7812 48.0938
Q58.0156 40.1875 58.0156 27.2969
Q58.0156 14.4062 51.7812 6.48438
Q45.5625 -1.42188 35.5938 -1.42188
Q29.5938 -1.42188 25.2656 0.953125
Q20.9531 3.32812 18.1094 8.20312
L18.1094 0
L9.07812 0
L9.07812 75.9844
L18.1094 75.9844
z
" id="BitstreamVeraSans-Roman-62"/>
    </defs>
    <g transform="translate(496.391656697 27.8607518564)scale(0.15 -0.15)">
     <use xlink:href="#BitstreamVeraSans-Roman-62"/>
     <use x="63.4765625" xlink:href="#BitstreamVeraSans-Roman-65"/>
     <use x="125.0" xlink:href="#BitstreamVeraSans-Roman-73"/>
     <use x="177.099609375" xlink:href="#BitstreamVeraSans-Roman-74"/>
     <use x="216.30859375" xlink:href="#BitstreamVeraSans-Roman-20"/>
     <use x="248.095703125" xlink:href="#BitstreamVeraSans-Roman-32"/>
     <use x="311.71875" xlink:href="#BitstreamVeraSans-Roman-30"/>
     <use x="375.341796875" xlink:href="#BitstreamVeraSans-Roman-30"/>
     <use x="438.96484375" xlink:href="#BitstreamVeraSans-Roman-39"/>
    </g>
   </g>
   <g id="text_20">
    <!-- bbob - f10-f14, 40-D -->
    <defs>
     <path d="
M11.7188 12.4062
L22.0156 12.4062
L22.0156 4
L14.0156 -11.625
L7.71875 -11.625
L11.7188 4
z
" id="BitstreamVeraSans-Roman-2c"/>
     <path d="
M19.6719 64.7969
L19.6719 8.10938
L31.5938 8.10938
Q46.6875 8.10938 53.6875 14.9375
Q60.6875 21.7812 60.6875 36.5312
Q60.6875 51.1719 53.6875 57.9844
Q46.6875 64.7969 31.5938 64.7969
z

M9.8125 72.9062
L30.0781 72.9062
Q51.2656 72.9062 61.1719 64.0938
Q71.0938 55.2812 71.0938 36.5312
Q71.0938 17.6719 61.125 8.82812
Q51.1719 0 30.0781 0
L9.8125 0
z
" id="BitstreamVeraSans-Roman-44"/>
    </defs>
    <g transform="translate(94.0556566969 33.0273396968)scale(0.1666 -0.1666)">
     <use xlink:href="#BitstreamVeraSans-Roman-62"/>
     <use x="63.4765625" xlink:href="#BitstreamVeraSans-Roman-62"/>
     <use x="126.953125" xlink:href="#BitstreamVeraSans-Roman-6f"/>
     <use x="188.134765625" xlink:href="#BitstreamVeraSans-Roman-62"/>
     <use x="251.611328125" xlink:href="#BitstreamVeraSans-Roman-20"/>
     <use x="283.3984375" xlink:href="#BitstreamVeraSans-Roman-2d"/>
     <use x="319.482421875" xlink:href="#BitstreamVeraSans-Roman-20"/>
     <use x="351.26953125" xlink:href="#BitstreamVeraSans-Roman-66"/>
     <use x="386.474609375" xlink:href="#BitstreamVeraSans-Roman-31"/>
     <use x="450.09765625" xlink:href="#BitstreamVeraSans-Roman-30"/>
     <use x="513.720703125" xlink:href="#BitstreamVeraSans-Roman-2d"/>
     <use x="549.8046875" xlink:href="#BitstreamVeraSans-Roman-66"/>
     <use x="585.009765625" xlink:href="#BitstreamVeraSans-Roman-31"/>
     <use x="648.6328125" xlink:href="#BitstreamVeraSans-Roman-34"/>
     <use x="712.255859375" xlink:href="#BitstreamVeraSans-Roman-2c"/>
     <use x="744.04296875" xlink:href="#BitstreamVeraSans-Roman-20"/>
     <use x="775.830078125" xlink:href="#BitstreamVeraSans-Roman-34"/>
     <use x="839.453125" xlink:href="#BitstreamVeraSans-Roman-30"/>
     <use x="903.076171875" xlink:href="#BitstreamVeraSans-Roman-2d"/>
     <use x="939.16015625" xlink:href="#BitstreamVeraSans-Roman-44"/>
    </g>
    <!-- 51 targets in 100..1e-08 -->
    <g transform="translate(94.0556566969 51.6828953218)scale(0.1666 -0.1666)">
     <use xlink:href="#BitstreamVeraSans-Roman-35"/>
     <use x="63.623046875" xlink:href="#BitstreamVeraSans-Roman-31"/>
     <use x="127.24609375" xlink:href="#BitstreamVeraSans-Roman-20"/>
     <use x="159.033203125" xlink:href="#BitstreamVeraSans-Roman-74"/>
     <use x="198.2421875" xlink:href="#BitstreamVeraSans-Roman-61"/>
     <use x="259.521484375" xlink:href="#BitstreamVeraSans-Roman-72"/>
     <use x="298.884765625" xlink:href="#BitstreamVeraSans-Roman-67"/>
     <use x="362.361328125" xlink:href="#BitstreamVeraSans-Roman-65"/>
     <use x="423.884765625" xlink:href="#BitstreamVeraSans-Roman-74"/>
     <use x="463.09375" xlink:href="#BitstreamVeraSans-Roman-73"/>
     <use x="515.193359375" xlink:href="#BitstreamVeraSans-Roman-20"/>
     <use x="546.98046875" xlink:href="#BitstreamVeraSans-Roman-69"/>
     <use x="574.763671875" xlink:href="#BitstreamVeraSans-Roman-6e"/>
     <use x="638.142578125" xlink:href="#BitstreamVeraSans-Roman-20"/>
     <use x="669.9296875" xlink:href="#BitstreamVeraSans-Roman-31"/>
     <use x="733.552734375" xlink:href="#BitstreamVeraSans-Roman-30"/>
     <use x="797.17578125" xlink:href="#BitstreamVeraSans-Roman-30"/>
     <use x="860.798828125" xlink:href="#BitstreamVeraSans-Roman-2e"/>
     <use x="892.5859375" xlink:href="#BitstreamVeraSans-Roman-2e"/>
     <use x="924.373046875" xlink:href="#BitstreamVeraSans-Roman-31"/>
     <use x="987.99609375" xlink:href="#BitstreamVeraSans-Roman-65"/>
     <use x="1049.51953125" xlink:href="#BitstreamVeraSans-Roman-2d"/>
     <use x="1085.60351562" xlink:href="#BitstreamVeraSans-Roman-30"/>
     <use x="1149.2265625" xlink:href="#BitstreamVeraSans-Roman-38"/>
    </g>
    <!-- 15 instances -->
    <g transform="translate(94.0556566969 70.3384509468)scale(0.1666 -0.1666)">
     <use xlink:href="#BitstreamVeraSans-Roman-31"/>
     <use x="63.623046875" xlink:href="#BitstreamVeraSans-Roman-35"/>
     <use x="127.24609375" xlink:href="#BitstreamVeraSans-Roman-20"/>
     <use x="159.033203125" xlink:href="#BitstreamVeraSans-Roman-69"/>
     <use x="186.81640625" xlink:href="#BitstreamVeraSans-Roman-6e"/>
     <use x="250.1953125" xlink:href="#BitstreamVeraSans-Roman-73"/>
     <use x="302.294921875" xlink:href="#BitstreamVeraSans-Roman-74"/>
     <use x="341.50390625" xlink:href="#BitstreamVeraSans-Roman-61"/>
     <use x="402.783203125" xlink:href="#BitstreamVeraSans-Roman-6e"/>
     <use x="466.162109375" xlink:href="#BitstreamVeraSans-Roman-63"/>
     <use x="521.142578125" xlink:href="#BitstreamVeraSans-Roman-65"/>
     <use x="582.666015625" xlink:href="#BitstreamVeraSans-Roman-73"/>
    </g>
   </g>
   <g id="text_21">
    <!-- 0.0.0 -->
    <g style="fill:#808080;" transform="translate(300.731500447 353.520655322)scale(0.1 -0.1)">
     <use xlink:href="#BitstreamVeraSans-Roman-30"/>
     <use x="63.623046875" xlink:href="#BitstreamVeraSans-Roman-2e"/>
     <use x="95.41015625" xlink:href="#BitstreamVeraSans-Roman-30"/>
     <use x="159.033203125" xlink:href="#BitstreamVeraSans-Roman-2e"/>
     <use x="190.8203125" xlink:href="#BitstreamVeraSans-Roman-30"/>
    </g>
   </g>
  </g>
 </g>
 <defs>
  <clipPath id="pb56f8cd31d">
   <rect height="345.6" width="446.4" x="89.5916566969" y="13.4563428218"/>
  </clipPath>
 </defs>
</svg>
