<?xml version="1.0" encoding="utf-8" standalone="no"?>
<!DOCTYPE svg PUBLIC "-//W3C//DTD SVG 1.1//EN"
  "http://www.w3.org/Graphics/SVG/1.1/DTD/svg11.dtd">
<!-- Created with matplotlib (http://matplotlib.org/) -->
<svg height="413pt" version="1.1" viewBox="0 0 518 413" width="518pt" xmlns="http://www.w3.org/2000/svg" xmlns:xlink="http://www.w3.org/1999/xlink">
 <defs>
  <style type="text/css">
*{stroke-linecap:butt;stroke-linejoin:round;}
  </style>
 </defs>
 <g id="figure_1">
  <g id="patch_1">
   <path d="
M0 413.969
L518.522 413.969
L518.522 0
L0 0
z
" style="fill:#ffffff;"/>
  </g>
  <g id="axes_1">
   <g id="patch_2">
    <path d="
M64.9219 359.056
L511.322 359.056
L511.322 13.4563
L64.9219 13.4563
z
" style="fill:#ffffff;"/>
   </g>
   <g id="line2d_1"/>
   <g id="line2d_2">
    <path clip-path="url(#p4b24e7e61f)" d="
M411.638 359.056
L411.638 345.369
L416.118 345.369
L416.118 331.682
L416.118 331.682
L416.118 331.682
L511.322 331.682" style="fill:none;stroke:#f5deb3;stroke-linecap:square;"/>
   </g>
   <g id="line2d_3"/>
   <g id="line2d_4"/>
   <g id="line2d_5"/>
   <g id="line2d_6"/>
   <g id="line2d_7">
    <path clip-path="url(#p4b24e7e61f)" d="
M372.798 359.056
L372.798 354.494
L399.489 354.494
L399.489 349.932
L406.036 349.932
L406.036 345.369
L406.6 345.369
L406.6 340.807
L407.351 340.807
L407.351 336.244
L412.29 336.244
L412.29 331.682
L412.525 331.682
L412.525 327.12
L415.016 327.12
L415.016 322.557
L421.23 322.557
L421.23 317.995
L426.899 317.995
L426.899 313.433
L427.31 313.433
L427.31 308.87
L428.743 308.87
L428.743 304.308
L440.04 304.308
L440.04 299.745
L445.141 299.745
L445.141 295.183
L448.47 295.183
L448.47 290.621
L452.479 290.621
L452.479 286.058
L454.364 286.058
L454.364 281.496
L455.849 281.496
L455.849 276.934
L459.722 276.934
L459.774 267.809
L459.883 267.809
L459.883 263.246
L461.197 263.246
L461.197 258.684
L465.949 258.684
L465.949 254.122
L471.037 254.122
L471.037 249.559
L481.04 249.559
L481.04 244.997
L481.629 244.997
L481.629 240.435
L485.4 240.435
L485.4 235.872
L490.371 235.872
L490.371 231.31
L492.944 231.31
L492.944 226.747
L495.567 226.747
L495.567 222.185
L501.039 222.185
L501.039 217.623
L503.1 217.623
L503.1 213.06
L503.851 213.06
L503.851 208.498
L508.145 208.498
L508.145 203.936
L509.862 203.936
L509.862 199.373
L515.384 199.373
L515.384 194.811
L517.628 194.811
L517.628 190.248
L519.522 190.248
L519.522 190.248" style="fill:none;stroke:#f5deb3;stroke-linecap:square;"/>
   </g>
   <g id="line2d_8">
    <path clip-path="url(#p4b24e7e61f)" d="
M392.394 359.056
L392.394 354.494
L393.928 354.494
L393.928 349.932
L394.399 349.932
L394.399 345.369
L394.595 345.369
L394.595 340.807
L395.158 340.807
L395.158 336.244
L395.175 336.244
L395.175 331.682
L411.16 331.682
L411.16 327.12
L412.116 327.12
L412.116 322.557
L412.794 322.557
L412.794 317.995
L412.875 317.995
L412.875 313.433
L413.356 313.433
L413.356 308.87
L413.813 308.87
L413.813 304.308
L413.82 304.308
L413.82 299.745
L414.221 299.745
L414.221 295.183
L414.239 295.183
L414.239 290.621
L414.566 290.621
L414.566 286.058
L416.236 286.058
L416.236 281.496
L456.396 281.496
L456.396 276.934
L457.005 276.934
L457.005 272.371
L457.005 272.371
L457.005 272.371
L511.322 272.371" style="fill:none;stroke:#f5deb3;stroke-linecap:square;"/>
   </g>
   <g id="line2d_9">
    <path clip-path="url(#p4b24e7e61f)" d="
M263.454 359.056
L263.454 354.494
L305.87 354.494
L305.87 349.932
L306.514 349.932
L306.514 345.369
L307.309 345.369
L307.309 340.807
L310.685 340.807
L310.685 336.244
L315.24 336.244
L315.24 331.682
L315.768 331.682
L315.768 327.12
L315.946 327.12
L315.946 322.557
L316.913 322.557
L316.925 313.433
L317.209 313.433
L317.209 308.87
L317.563 308.87
L317.563 304.308
L325.61 304.308
L325.61 299.745
L331.153 299.745
L331.153 295.183
L332.011 295.183
L332.011 290.621
L333.012 290.621
L333.012 286.058
L333.82 286.058
L333.82 281.496
L335.059 281.496
L335.119 272.371
L340.199 272.371
L340.199 267.809
L341.345 267.809
L341.345 263.246
L342.283 263.246
L342.283 258.684
L342.553 258.684
L342.553 254.122
L342.851 254.122
L342.851 249.559
L342.992 249.559
L343.081 240.435
L343.203 240.435
L343.203 235.872
L343.466 235.872
L343.466 231.31
L344.568 231.31
L344.677 222.185
L344.87 222.185
L344.87 217.623
L345.351 217.623
L345.351 213.06
L346.059 213.06
L346.059 208.498
L347.104 208.498
L347.149 199.373
L347.64 199.373
L347.64 194.811
L348.694 194.811
L348.788 185.686
L352.972 185.686
L352.972 181.124
L359.059 181.124
L359.059 176.561
L359.349 176.561
L359.39 167.437
L360.605 167.437
L360.605 162.874
L364.892 162.874
L364.892 158.312
L366.839 158.312
L366.839 153.749
L367.98 153.749
L367.98 149.187
L370.392 149.187
L370.392 144.625
L370.891 144.625
L370.891 140.062
L371.956 140.062
L371.956 135.5
L372.767 135.5
L372.767 130.938
L372.963 130.938
L372.963 126.375
L378.044 126.375
L378.044 121.813
L379.835 121.813
L379.865 112.688
L380.392 112.688
L380.392 108.126
L380.776 108.126
L380.776 103.563
L380.934 103.563
L380.934 99.0009
L383.235 99.0009
L383.235 94.4385
L385.671 94.4385
L385.671 89.8761
L385.879 89.8761
L385.879 85.3138
L388.95 85.3138
L388.95 80.7514
L391.452 80.7514
L391.452 76.189
L394.37 76.189
L394.37 71.6266
L395.006 71.6266
L395.006 67.0643
L410.431 67.0643
L410.431 62.5019
L417.041 62.5019
L417.041 57.9395
L417.182 57.9395
L417.182 53.3771
L420.514 53.3771
L420.514 48.8148
L429.92 48.8148
L429.92 44.2524
L431.593 44.2524
L431.593 39.69
L436.368 39.69
L436.368 35.1276
L441.672 35.1276
L441.672 30.5653
L443.428 30.5653
L443.525 21.4405
L457.543 21.4405
L457.543 16.8781
L457.543 16.8781
L511.322 16.8781
L511.322 16.8781" style="fill:none;stroke:#f5deb3;stroke-linecap:square;"/>
   </g>
   <g id="line2d_10"/>
   <g id="line2d_11">
    <path clip-path="url(#p4b24e7e61f)" d="
M430.38 359.056
L430.38 354.494
L481.288 354.494
L481.288 349.932
L488.777 349.932
L488.777 345.369
L496.69 345.369
L496.69 340.807
L497.989 340.807
L497.989 336.244
L519.522 336.244" style="fill:none;stroke:#f5deb3;stroke-linecap:square;"/>
   </g>
   <g id="line2d_12"/>
   <g id="line2d_13"/>
   <g id="line2d_14"/>
   <g id="line2d_15"/>
   <g id="line2d_16"/>
   <g id="line2d_17">
    <path clip-path="url(#p4b24e7e61f)" d="
M385.451 359.056
L385.451 354.494
L387.87 354.494
L387.87 349.932
L388.928 349.932
L388.928 345.369
L390.365 345.369
L390.365 340.807
L393.151 340.807
L393.151 336.244
L393.279 336.244
L393.279 331.682
L394.611 331.682
L394.611 327.12
L394.979 327.12
L394.979 322.557
L395.123 322.557
L395.123 317.995
L398.516 317.995
L398.516 313.433
L399.012 313.433
L399.012 308.87
L406.725 308.87
L406.725 304.308
L413.283 304.308
L413.283 299.745
L413.368 299.745
L413.368 295.183
L413.418 295.183
L413.418 290.621
L416.254 290.621
L416.254 286.058
L416.99 286.058
L416.99 281.496
L419.519 281.496
L419.519 276.934
L420.763 276.934
L420.763 272.371
L421.741 272.371
L421.741 267.809
L423.05 267.809
L423.05 263.246
L424.634 263.246
L424.634 258.684
L429.173 258.684
L429.173 254.122
L430.124 254.122
L430.124 249.559
L432.289 249.559
L432.289 244.997
L433.333 244.997
L433.333 240.435
L435.98 240.435
L435.98 235.872
L437.168 235.872
L437.168 231.31
L437.168 231.31
L437.168 231.31
L511.322 231.31" style="fill:none;stroke:#f5deb3;stroke-linecap:square;"/>
   </g>
   <g id="line2d_18"/>
   <g id="line2d_19">
    <path clip-path="url(#p4b24e7e61f)" d="
M402.754 359.056
L402.754 357.536
L402.754 357.536
L402.754 357.536
L402.754 356.015
L402.754 356.015
L402.754 356.015
L402.754 354.494
L436.407 354.494
L436.407 349.932
L446.174 349.932
L446.174 345.369
L449.418 345.369
L449.418 340.807
L457.809 340.807
L457.809 336.244
L463.348 336.244
L463.348 331.682
L464.469 331.682
L464.469 327.12
L465.819 327.12
L465.819 322.557
L468.252 322.557
L468.252 317.995
L470.547 317.995
L470.547 313.433
L470.734 313.433
L470.734 308.87
L472.089 308.87
L472.089 304.308
L475.11 304.308
L475.11 299.745
L485.459 299.745
L485.459 295.183
L486.444 295.183
L486.444 290.621
L487.858 290.621
L487.858 286.058
L490.12 286.058
L490.12 281.496
L500.964 281.496
L500.964 276.934
L501.69 276.934
L501.69 272.371
L509.917 272.371
L509.917 267.809
L510.707 267.809
L510.707 263.246
L513.166 263.246
L513.166 258.684
L517.081 258.684
L517.081 254.122
L519.348 254.122
L519.348 249.559
L519.522 249.559
L519.522 249.559" style="fill:none;stroke:#f5deb3;stroke-linecap:square;"/>
   </g>
   <g id="line2d_20">
    <path clip-path="url(#p4b24e7e61f)" d="
M386.976 359.056
L386.976 354.494
L386.976 354.494
L386.976 354.494
L511.322 354.494" style="fill:none;stroke:#f5deb3;stroke-linecap:square;"/>
   </g>
   <g id="line2d_21"/>
   <g id="line2d_22">
    <path clip-path="url(#p4b24e7e61f)" d="
M402.902 359.056
L402.902 354.494
L424.342 354.494
L424.342 349.932
L446.078 349.932
L446.078 345.369
L456.615 345.369
L456.615 340.807
L472.743 340.807
L472.743 336.244
L472.743 336.244
L472.743 336.244
L511.322 336.244" style="fill:none;stroke:#f5deb3;stroke-linecap:square;"/>
   </g>
   <g id="line2d_23">
    <path clip-path="url(#p4b24e7e61f)" d="
M421.857 359.056
L421.857 354.494
L429.752 354.494
L429.752 349.932
L429.752 349.932
L429.752 349.932
L511.322 349.932" style="fill:none;stroke:#f5deb3;stroke-linecap:square;"/>
   </g>
   <g id="line2d_24">
    <path clip-path="url(#p4b24e7e61f)" d="
M294.67 359.056
L294.67 354.494
L297.816 354.494
L297.816 349.932
L299.739 349.932
L299.739 345.369
L304.425 345.369
L304.425 340.807
L307.454 340.807
L307.454 336.244
L363.554 336.244
L363.554 331.682
L365.36 331.682
L365.36 327.12
L365.779 327.12
L365.779 322.557
L365.927 322.557
L365.927 317.995
L367.341 317.995
L367.341 313.433
L367.654 313.433
L367.745 304.308
L369.217 304.308
L369.217 299.745
L369.559 299.745
L369.641 290.621
L369.826 290.621
L369.826 286.058
L370.168 286.058
L370.168 281.496
L372.626 281.496
L372.626 276.934
L374.858 276.934
L374.858 272.371
L375.41 272.371
L375.41 267.809
L375.618 267.809
L375.618 263.246
L376.436 263.246
L376.436 258.684
L376.612 258.684
L376.612 254.122
L376.85 254.122
L376.939 244.997
L377.359 244.997
L377.359 240.435
L377.479 240.435
L377.479 235.872
L377.946 235.872
L377.946 231.31
L378.332 231.31
L378.332 226.747
L378.445 226.747
L378.445 222.185
L378.708 222.185
L378.708 217.623
L378.974 217.623
L379.012 208.498
L380.517 208.498
L380.536 199.373
L381.06 199.373
L381.06 194.811
L381.794 194.811
L381.794 190.248
L382.903 190.248
L382.903 185.686
L383.193 185.686
L383.193 181.124
L386.198 181.124
L386.198 176.561
L388.093 176.561
L388.093 171.999
L392.786 171.999
L392.786 167.437
L399.092 167.437
L399.092 162.874
L399.257 162.874
L399.257 158.312
L400.04 158.312
L400.04 153.749
L401.991 153.749
L401.991 149.187
L402.969 149.187
L402.969 144.625
L404.704 144.625
L404.704 140.062
L405.712 140.062
L405.712 135.5
L410.346 135.5
L410.346 130.938
L414.748 130.938
L414.748 126.375
L415.535 126.375
L415.535 121.813
L419.39 121.813
L419.39 117.25
L425.186 117.25
L425.186 112.688
L426.119 112.688
L426.119 108.126
L428.074 108.126
L428.115 99.0009
L428.365 99.0009
L428.365 94.4385
L430.705 94.4385
L430.705 89.8761
L431.858 89.8761
L431.858 85.3138
L451.475 85.3138
L451.475 80.7514
L452.263 80.7514
L452.263 76.189
L453.498 76.189
L453.498 71.6266
L457.469 71.6266
L457.469 67.0643
L464.033 67.0643
L464.033 62.5019
L469.158 62.5019
L469.158 57.9395
L469.701 57.9395
L469.701 53.3771
L474.452 53.3771
L474.452 48.8148
L476.707 48.8148
L476.707 44.2524
L484.137 44.2524
L484.137 39.69
L486.916 39.69
L486.916 35.1276
L492.883 35.1276
L492.883 30.5653
L494.441 30.5653
L494.441 26.0029
L498.842 26.0029
L498.842 21.4405
L511.901 21.4405
L511.901 16.8781
L511.901 16.8781" style="fill:none;stroke:#f5deb3;stroke-linecap:square;"/>
   </g>
   <g id="line2d_25">
    <path clip-path="url(#p4b24e7e61f)" d="
M403.425 359.056
L403.425 354.494
L406.416 354.494
L406.416 349.932
L406.598 349.932
L406.598 345.369
L407.871 345.369
L407.871 340.807
L409.507 340.807
L409.507 336.244
L410.145 336.244
L410.145 331.682
L410.417 331.682
L410.417 327.12
L411.183 327.12
L411.183 322.557
L411.219 322.557
L411.219 317.995
L413.24 317.995
L413.24 313.433
L414.338 313.433
L414.338 308.87
L434.869 308.87
L434.869 304.308
L435.497 304.308
L435.497 299.745
L435.993 299.745
L435.993 295.183
L436.419 295.183
L436.419 290.621
L436.521 290.621
L436.521 286.058
L436.772 286.058
L436.772 281.496
L437.129 281.496
L437.129 276.934
L437.164 276.934
L437.164 272.371
L437.241 272.371
L437.241 267.809
L437.242 267.809
L437.242 263.246
L437.271 263.246
L437.271 258.684
L437.281 258.684
L437.281 254.122
L437.343 254.122
L437.343 249.559
L437.502 249.559
L437.502 244.997
L437.527 244.997
L437.527 240.435
L437.648 240.435
L437.648 235.872
L438.005 235.872
L438.005 231.31
L438.166 231.31
L438.166 226.747
L438.199 226.747
L438.199 222.185
L438.29 222.185
L438.29 217.623
L438.345 217.623
L438.345 213.06
L438.628 213.06
L438.628 208.498
L438.74 208.498
L438.74 203.936
L438.948 203.936
L438.948 199.373
L444.803 199.373
L444.803 194.811
L470.2 194.811
L470.2 190.248
L470.2 190.248
L470.2 190.248
L511.322 190.248" style="fill:none;stroke:#f5deb3;stroke-linecap:square;"/>
   </g>
   <g id="line2d_26">
    <path clip-path="url(#p4b24e7e61f)" d="
M350.526 359.056
L350.526 354.494
L353.311 354.494
L353.311 349.932
L360.885 349.932
L360.885 345.369
L362.059 345.369
L362.059 340.807
L363.313 340.807
L363.313 336.244
L364.897 336.244
L364.897 331.682
L367.553 331.682
L367.553 327.12
L374.699 327.12
L374.699 322.557
L378.275 322.557
L378.275 317.995
L387.572 317.995
L387.572 313.433
L389.565 313.433
L389.565 308.87
L399.652 308.87
L399.652 304.308
L405.61 304.308
L405.61 299.745
L406.517 299.745
L406.517 295.183
L412.3 295.183
L412.3 290.621
L417.549 290.621
L417.549 286.058
L419.811 286.058
L419.811 281.496
L422.577 281.496
L422.577 276.934
L424.862 276.934
L424.862 272.371
L425.69 272.371
L425.69 267.809
L425.69 267.809
L425.69 267.809
L511.322 267.809" style="fill:none;stroke:#f5deb3;stroke-linecap:square;"/>
   </g>
   <g id="line2d_27"/>
   <g id="line2d_28">
    <path clip-path="url(#p4b24e7e61f)" d="
M285.438 359.056
L285.438 354.494
L298.371 354.494
L298.371 349.932
L339.734 349.932
L339.734 345.369
L352.097 345.369
L352.097 340.807
L355.642 340.807
L355.642 336.244
L357.738 336.244
L357.738 331.682
L374.639 331.682
L374.639 327.12
L375.391 327.12
L375.391 322.557
L377.214 322.557
L377.214 317.995
L377.983 317.995
L377.983 313.433
L379.006 313.433
L379.006 308.87
L381.085 308.87
L381.085 304.308
L382.082 304.308
L382.082 299.745
L383.113 299.745
L383.113 295.183
L383.723 295.183
L383.723 290.621
L389.377 290.621
L389.377 286.058
L389.593 286.058
L389.593 281.496
L390.143 281.496
L390.223 272.371
L390.538 272.371
L390.538 267.809
L398.092 267.809
L398.092 263.246
L399.966 263.246
L399.966 258.684
L400.809 258.684
L400.809 254.122
L401.466 254.122
L401.466 249.559
L401.988 249.559
L402.08 240.435
L404.159 240.435
L404.159 235.872
L404.315 235.872
L404.315 231.31
L404.836 231.31
L404.836 226.747
L408.014 226.747
L408.014 222.185
L409.385 222.185
L409.385 217.623
L409.553 217.623
L409.553 213.06
L409.77 213.06
L409.77 208.498
L410.519 208.498
L410.519 203.936
L411.564 203.936
L411.564 199.373
L412.849 199.373
L412.852 190.248
L413.137 190.248
L413.137 185.686
L414.233 185.686
L414.233 181.124
L414.648 181.124
L414.648 176.561
L415.311 176.561
L415.311 171.999
L415.761 171.999
L415.761 167.437
L416.38 167.437
L416.38 162.874
L416.74 162.874
L416.74 158.312
L418.414 158.312
L418.414 153.749
L419.986 153.749
L419.986 149.187
L420.161 149.187
L420.161 144.625
L420.735 144.625
L420.735 140.062
L422.15 140.062
L422.15 135.5
L423.048 135.5
L423.048 130.938
L431.064 130.938
L431.064 126.375
L434.167 126.375
L434.167 121.813
L438.719 121.813
L438.719 117.25
L439.113 117.25
L439.113 112.688
L439.49 112.688
L439.49 108.126
L442.272 108.126
L442.272 103.563
L442.806 103.563
L442.806 99.0009
L447.56 99.0009
L447.56 94.4385
L448.779 94.4385
L448.779 89.8761
L453.175 89.8761
L453.175 85.3138
L453.352 85.3138
L453.352 80.7514
L474.841 80.7514
L474.841 76.189
L475.009 76.189
L475.009 71.6266
L475.286 71.6266
L475.286 67.0643
L478.136 67.0643
L478.136 62.5019
L487.119 62.5019
L487.119 57.9395
L514.716 57.9395
L514.716 53.3771
L516.527 53.3771
L516.527 48.8148
L517.748 48.8148
L517.748 44.2524
L519.522 44.2524
L519.522 44.2524" style="fill:none;stroke:#f5deb3;stroke-linecap:square;"/>
   </g>
   <g id="line2d_29"/>
   <g id="line2d_30"/>
   <g id="line2d_31">
    <path clip-path="url(#p4b24e7e61f)" d="
M7.40454 359.056
L7.40454 354.494
L7.40454 354.494
L7.40454 354.494
L7.40454 349.932
L7.40454 349.932
L7.40454 349.932
L7.40454 345.369
L7.40454 345.369
L7.40454 345.369
L7.40454 340.807
L7.40454 340.807
L7.40454 340.807
L7.40454 336.244
L7.40454 336.244
L7.40454 336.244
L7.40454 331.682
L7.40454 331.682
L7.40454 331.682
L7.40454 327.12
L7.40454 327.12
L7.40454 327.12
L7.40454 322.557
L7.40454 322.557
L7.40454 322.557
L7.40454 317.995
L7.40454 317.995
L7.40454 317.995
L7.40454 313.433
L7.40454 313.433
L7.40454 313.433
L7.40454 308.87
L7.40454 308.87
L7.40454 308.87
L7.40454 304.308
L7.40454 304.308
L7.40454 304.308
L7.40454 299.745
L7.40454 299.745
L7.40454 299.745
L7.40454 295.183
L7.40454 295.183
L7.40454 295.183
L7.40454 290.621
L7.40454 290.621
L7.40454 290.621
L7.40454 286.058
L7.40454 286.058
L7.40454 286.058
L7.40454 281.496
L7.40454 281.496
L7.40454 281.496
L7.40454 276.934
L32.1759 276.934
L32.1759 272.371
L46.6662 272.371
L46.6662 267.809
L64.9219 267.809
L64.9219 258.684
L71.4376 258.684
L71.4376 254.122
L76.9466 254.122
L76.9466 249.559
L85.9279 249.559
L85.9279 244.997
L96.209 244.997
L96.209 240.435
L104.184 240.435
L104.184 235.872
L108.657 235.872
L108.657 231.31
L117.871 231.31
L117.871 226.747
L119.459 226.747
L119.459 222.185
L127.743 222.185
L127.743 217.623
L137.403 217.623
L137.403 213.06
L144.999 213.06
L144.999 203.936
L145.752 203.936
L145.752 199.373
L154.317 199.373
L154.317 194.811
L158.199 194.811
L158.199 190.248
L161.221 190.248
L161.221 185.686
L164.89 185.686
L164.89 176.561
L166.174 176.561
L166.174 171.999
L166.592 171.999
L166.592 167.437
L167.005 167.437
L167.005 162.874
L167.817 162.874
L167.817 158.312
L168.217 158.312
L168.217 153.749
L169.388 153.749
L169.388 149.187
L174.4 149.187
L174.4 144.625
L182.971 144.625
L182.971 140.062
L184.514 140.062
L184.514 135.5
L194.732 135.5
L194.732 130.938
L195.108 130.938
L195.108 126.375
L196.932 126.375
L196.932 121.813
L197.636 121.813
L197.636 117.25
L197.983 117.25
L197.983 112.688
L200.159 112.688
L200.159 108.126
L203.566 108.126
L203.566 103.563
L210.032 103.563
L210.032 99.0009
L218.739 99.0009
L218.739 94.4385
L222.407 94.4385
L222.407 89.8761
L222.754 89.8761
L222.754 85.3138
L228.337 85.3138
L228.337 80.7514
L233.164 80.7514
L233.164 76.189
L239.529 76.189
L239.529 71.6266
L240.906 71.6266
L240.906 67.0643
L245.892 67.0643
L245.892 62.5019
L253.585 62.5019
L253.585 57.9395
L398.528 57.9395
L398.528 53.3771
L402.027 53.3771
L402.027 48.8148
L408.126 48.8148
L408.126 44.2524
L413.074 44.2524
L413.074 39.69
L423.375 39.69
L423.375 35.1276
L425.701 35.1276
L425.701 30.5653
L450.211 30.5653
L450.211 26.0029
L462.252 26.0029
L462.252 21.4405
L475.847 21.4405
L475.847 16.8781
L475.847 16.8781
L511.322 16.8781
L511.322 16.8781" style="fill:none;stroke:#000000;stroke-linecap:square;"/>
   </g>
   <g id="line2d_32">
    <defs>
     <path d="
M-6.66134e-16 14.1421
L8.48528 0
L-6.66134e-16 -14.1421
L-8.48528 -1.77636e-15
z
" id="m56f85d7cf4" style="stroke:#000000;stroke-linejoin:miter;"/>
    </defs>
    <g clip-path="url(#p4b24e7e61f)">
     <use style="fill:none;stroke:#000000;stroke-linejoin:miter;" x="32.1759093363" xlink:href="#m56f85d7cf4" y="276.933570545"/>
     <use style="fill:none;stroke:#000000;stroke-linejoin:miter;" x="117.870758729" xlink:href="#m56f85d7cf4" y="231.309808168"/>
     <use style="fill:none;stroke:#000000;stroke-linejoin:miter;" x="166.173916143" xlink:href="#m56f85d7cf4" y="176.561293317"/>
     <use style="fill:none;stroke:#000000;stroke-linejoin:miter;" x="218.738521675" xlink:href="#m56f85d7cf4" y="99.0008972772"/>
     <use style="fill:none;stroke:#000000;stroke-linejoin:miter;" x="245.89171539" xlink:href="#m56f85d7cf4" y="67.0642636139"/>
     <use style="fill:none;stroke:#000000;stroke-linejoin:miter;" x="402.02724692" xlink:href="#m56f85d7cf4" y="53.377134901"/>
     <use style="fill:none;stroke:#000000;stroke-linejoin:miter;" x="475.847081771" xlink:href="#m56f85d7cf4" y="21.4405012376"/>
     <use style="fill:none;stroke:#000000;stroke-linejoin:miter;" x="475.847081771" xlink:href="#m56f85d7cf4" y="16.878125"/>
     <use style="fill:none;stroke:#000000;stroke-linejoin:miter;" x="476.36537088" xlink:href="#m56f85d7cf4" y="16.878125"/>
    </g>
   </g>
   <g id="line2d_33"/>
   <g id="line2d_34">
    <path clip-path="url(#p4b24e7e61f)" d="
M7.40454 359.056
L7.40454 354.494
L7.40454 354.494
L7.40454 354.494
L7.40454 349.932
L7.40454 349.932
L7.40454 349.932
L7.40454 345.369
L7.40454 345.369
L7.40454 345.369
L7.40454 340.807
L7.40454 340.807
L7.40454 340.807
L7.40454 336.244
L7.40454 336.244
L7.40454 336.244
L7.40454 331.682
L7.40454 331.682
L7.40454 331.682
L7.40454 327.12
L7.40454 327.12
L7.40454 327.12
L7.40454 322.557
L7.40454 322.557
L7.40454 322.557
L7.40454 317.995
L7.40454 317.995
L7.40454 317.995
L7.40454 313.433
L7.40454 313.433
L7.40454 313.433
L7.40454 308.87
L7.40454 308.87
L7.40454 308.87
L7.40454 304.308
L7.40454 304.308
L7.40454 304.308
L7.40454 299.745
L7.40454 299.745
L7.40454 299.745
L7.40454 295.183
L7.40454 295.183
L7.40454 295.183
L7.40454 290.621
L7.40454 290.621
L7.40454 290.621
L7.40454 286.058
L7.40454 286.058
L7.40454 286.058
L7.40454 281.496
L7.40454 281.496
L7.40454 281.496
L7.40454 276.934
L32.1759 276.934
L32.1759 263.246
L56.9473 263.246
L56.9473 258.684
L64.9219 258.684
L64.9219 254.122
L71.4376 254.122
L71.4376 249.559
L81.7186 249.559
L81.7186 244.997
L96.209 244.997
L96.209 235.872
L99.0695 235.872
L99.0695 226.747
L108.657 226.747
L108.657 222.185
L122.439 222.185
L122.439 217.623
L128.955 217.623
L128.955 213.06
L140.118 213.06
L140.118 208.498
L150.617 208.498
L150.617 203.936
L152.515 203.936
L152.515 199.373
L156.587 199.373
L156.587 194.811
L160.242 194.811
L160.242 190.248
L161.701 190.248
L161.701 185.686
L163.558 185.686
L163.558 181.124
L164.007 181.124
L164.007 176.561
L168.217 176.561
L168.217 171.999
L169.388 171.999
L169.388 167.437
L175.062 167.437
L175.062 162.874
L179.957 162.874
L179.957 158.312
L182.707 158.312
L182.707 153.749
L188.779 153.749
L188.779 149.187
L189.443 149.187
L189.443 144.625
L190.945 144.625
L190.945 140.062
L194.16 140.062
L194.16 135.5
L195.665 135.5
L195.665 130.938
L204.151 130.938
L204.151 126.375
L204.296 126.375
L204.296 121.813
L205.575 121.813
L205.575 117.25
L211.599 117.25
L211.599 112.688
L223.691 112.688
L223.691 108.126
L234.056 108.126
L234.056 103.563
L248.964 103.563
L248.964 99.0009
L258.065 99.0009
L258.065 94.4385
L259.172 94.4385
L259.172 89.8761
L262.131 89.8761
L262.131 85.3138
L266.193 85.3138
L266.193 80.7514
L271.312 80.7514
L271.312 76.189
L273.192 76.189
L273.192 71.6266
L274.188 71.6266
L274.188 67.0643
L288.418 67.0643
L288.418 62.5019
L289.314 62.5019
L289.314 57.9395
L294.681 57.9395
L294.681 53.3771
L296.873 53.3771
L296.873 48.8148
L303.938 48.8148
L303.938 44.2524
L304.151 44.2524
L304.151 39.69
L307.065 39.69
L307.065 35.1276
L308.986 35.1276
L308.986 30.5653
L312.747 30.5653
L312.747 26.0029
L312.747 26.0029
L511.322 26.0029
L511.322 26.0029" style="fill:none;stroke:#000000;stroke-linecap:square;"/>
   </g>
   <g id="line2d_35">
    <defs>
     <path d="
M0 7.5
C1.98902 7.5 3.89685 6.70975 5.3033 5.3033
C6.70975 3.89685 7.5 1.98902 7.5 0
C7.5 -1.98902 6.70975 -3.89685 5.3033 -5.3033
C3.89685 -6.70975 1.98902 -7.5 0 -7.5
C-1.98902 -7.5 -3.89685 -6.70975 -5.3033 -5.3033
C-6.70975 -3.89685 -7.5 -1.98902 -7.5 0
C-7.5 1.98902 -6.70975 3.89685 -5.3033 5.3033
C-3.89685 6.70975 -1.98902 7.5 0 7.5
z
" id="m7d63b959ce" style="stroke:#000000;"/>
    </defs>
    <g clip-path="url(#p4b24e7e61f)">
     <use style="fill:none;stroke:#000000;" x="71.4375967364" xlink:href="#m7d63b959ce" y="254.121689356"/>
     <use style="fill:none;stroke:#000000;" x="128.954929156" xlink:href="#m7d63b959ce" y="217.622679455"/>
     <use style="fill:none;stroke:#000000;" x="195.664770909" xlink:href="#m7d63b959ce" y="135.499907178"/>
     <use style="fill:none;stroke:#000000;" x="274.188145709" xlink:href="#m7d63b959ce" y="71.6266398515"/>
     <use style="fill:none;stroke:#000000;" x="312.7470482" xlink:href="#m7d63b959ce" y="30.5652537129"/>
     <use style="fill:none;stroke:#000000;" x="312.7470482" xlink:href="#m7d63b959ce" y="26.0028774752"/>
     <use style="fill:none;stroke:#000000;" x="394.076671704" xlink:href="#m7d63b959ce" y="26.0028774752"/>
     <use style="fill:none;stroke:#000000;" x="476.36537088" xlink:href="#m7d63b959ce" y="26.0028774752"/>
    </g>
   </g>
   <g id="line2d_36"/>
   <g id="line2d_37">
    <path clip-path="url(#p4b24e7e61f)" d="
M212.645 359.056
L212.645 354.494
L215.822 354.494
L215.822 349.932
L217.56 349.932
L217.56 345.369
L229.212 345.369
L229.212 340.807
L233.867 340.807
L233.867 336.244
L234.056 336.244
L234.056 331.682
L235.475 331.682
L235.475 327.12
L235.656 327.12
L235.656 322.557
L243.606 322.557
L243.606 317.995
L249.376 317.995
L249.376 313.433
L398.214 313.433
L398.214 308.87
L398.313 308.87
L398.313 304.308
L399.17 304.308
L399.17 299.745
L399.741 299.745
L399.741 295.183
L400.254 295.183
L400.254 290.621
L401.003 290.621
L401.003 286.058
L401.053 286.058
L401.053 281.496
L403.003 281.496
L403.003 276.934
L403.455 276.934
L403.455 272.371
L427.056 272.371
L427.056 267.809
L428.241 267.809
L428.241 263.246
L441.035 263.246
L441.035 258.684
L448.779 258.684
L448.779 254.122
L451.472 254.122
L451.472 249.559
L458.392 249.559
L458.392 244.997
L459.18 244.997
L459.18 240.435
L459.232 240.435
L459.232 235.872
L460.781 235.872
L460.781 231.31
L467.711 231.31
L467.711 226.747
L469.89 226.747
L469.89 222.185
L474.346 222.185
L474.346 217.623
L474.346 217.623
L474.346 217.623
L511.322 217.623" style="fill:none;stroke:#00bfbf;stroke-linecap:square;"/>
   </g>
   <g id="line2d_38">
    <defs>
     <path d="
M-6.66134e-16 14.1421
L8.48528 0
L-6.66134e-16 -14.1421
L-8.48528 -1.77636e-15
z
" id="m3ed5c48278" style="stroke:#00bfbf;stroke-linejoin:miter;"/>
    </defs>
    <g clip-path="url(#p4b24e7e61f)">
     <use style="fill:none;stroke:#00bfbf;stroke-linejoin:miter;" x="229.212223391" xlink:href="#m3ed5c48278" y="345.369214109"/>
     <use style="fill:none;stroke:#00bfbf;stroke-linejoin:miter;" x="243.606346055" xlink:href="#m3ed5c48278" y="322.557332921"/>
     <use style="fill:none;stroke:#00bfbf;stroke-linejoin:miter;" x="249.375819031" xlink:href="#m3ed5c48278" y="317.994956683"/>
     <use style="fill:none;stroke:#00bfbf;stroke-linejoin:miter;" x="403.45512111" xlink:href="#m3ed5c48278" y="276.933570545"/>
     <use style="fill:none;stroke:#00bfbf;stroke-linejoin:miter;" x="459.18019156" xlink:href="#m3ed5c48278" y="244.996936881"/>
     <use style="fill:none;stroke:#00bfbf;stroke-linejoin:miter;" x="474.346333488" xlink:href="#m3ed5c48278" y="217.622679455"/>
     <use style="fill:none;stroke:#00bfbf;stroke-linejoin:miter;" x="476.36537088" xlink:href="#m3ed5c48278" y="217.622679455"/>
    </g>
   </g>
   <g id="line2d_39"/>
   <g id="line2d_40">
    <path clip-path="url(#p4b24e7e61f)" d="
M277.806 359.056
L277.806 354.494
L279.89 354.494
L279.89 349.932
L280.512 349.932
L280.512 345.369
L280.512 345.369
L280.512 340.807
L280.649 340.807
L280.649 336.244
L280.888 336.244
L280.888 331.682
L282.464 331.682
L282.464 327.12
L283.299 327.12
L283.299 322.557
L285.468 322.557
L285.468 317.995
L285.632 317.995
L285.632 313.433
L286.031 313.433
L286.031 308.87
L286.236 308.87
L286.236 304.308
L286.324 304.308
L286.324 299.745
L288.638 299.745
L288.638 295.183
L293.841 295.183
L293.841 290.621
L294.496 290.621
L294.496 286.058
L301.056 286.058
L301.056 281.496
L301.744 281.496
L301.744 276.934
L301.867 276.934
L301.867 272.371
L302.233 272.371
L302.233 267.809
L302.243 267.809
L302.243 263.246
L302.336 263.246
L302.336 258.684
L303.128 258.684
L303.128 254.122
L304.063 254.122
L304.063 249.559
L305.267 249.559
L305.267 244.997
L305.667 244.997
L305.667 240.435
L307.808 240.435
L307.808 235.872
L308.268 235.872
L308.268 231.31
L308.691 231.31
L308.691 226.747
L309.992 226.747
L309.992 222.185
L310.165 222.185
L310.165 217.623
L311.306 217.623
L311.306 213.06
L389.161 213.06
L389.161 208.498
L410 208.498
L410 203.936
L410 203.936
L410 203.936
L511.322 203.936" style="fill:none;stroke:#00bfbf;stroke-linecap:square;"/>
   </g>
   <g id="line2d_41">
    <defs>
     <path d="
M0 7.5
C1.98902 7.5 3.89685 6.70975 5.3033 5.3033
C6.70975 3.89685 7.5 1.98902 7.5 0
C7.5 -1.98902 6.70975 -3.89685 5.3033 -5.3033
C3.89685 -6.70975 1.98902 -7.5 0 -7.5
C-1.98902 -7.5 -3.89685 -6.70975 -5.3033 -5.3033
C-6.70975 -3.89685 -7.5 -1.98902 -7.5 0
C-7.5 1.98902 -6.70975 3.89685 -5.3033 5.3033
C-3.89685 6.70975 -1.98902 7.5 0 7.5
z
" id="mbdc0cc27b6" style="stroke:#00bfbf;"/>
    </defs>
    <g clip-path="url(#p4b24e7e61f)">
     <use style="fill:none;stroke:#00bfbf;" x="285.632104336" xlink:href="#mbdc0cc27b6" y="317.994956683"/>
     <use style="fill:none;stroke:#00bfbf;" x="305.667458796" xlink:href="#mbdc0cc27b6" y="244.996936881"/>
     <use style="fill:none;stroke:#00bfbf;" x="311.305852184" xlink:href="#mbdc0cc27b6" y="217.622679455"/>
     <use style="fill:none;stroke:#00bfbf;" x="409.999785903" xlink:href="#mbdc0cc27b6" y="203.935550743"/>
     <use style="fill:none;stroke:#00bfbf;" x="476.36537088" xlink:href="#mbdc0cc27b6" y="203.935550743"/>
    </g>
   </g>
   <g id="line2d_42"/>
   <g id="line2d_43">
    <path clip-path="url(#p4b24e7e61f)" d="
M257.087 359.056
L257.087 354.494
L448.87 354.494
L448.87 349.932
L469.956 349.932
L469.956 345.369
L469.956 345.369
L469.956 345.369
L511.322 345.369" style="fill:none;stroke:#bf00bf;stroke-linecap:square;"/>
   </g>
   <g id="line2d_44">
    <defs>
     <path d="
M-6.66134e-16 14.1421
L8.48528 0
L-6.66134e-16 -14.1421
L-8.48528 -1.77636e-15
z
" id="m2a6c1dc800" style="stroke:#bf00bf;stroke-linejoin:miter;"/>
    </defs>
    <g clip-path="url(#p4b24e7e61f)">
     <use style="fill:none;stroke:#bf00bf;stroke-linejoin:miter;" x="257.087156874" xlink:href="#m2a6c1dc800" y="359.056342822"/>
     <use style="fill:none;stroke:#bf00bf;stroke-linejoin:miter;" x="257.087156874" xlink:href="#m2a6c1dc800" y="359.056342822"/>
     <use style="fill:none;stroke:#bf00bf;stroke-linejoin:miter;" x="257.087156874" xlink:href="#m2a6c1dc800" y="359.056342822"/>
     <use style="fill:none;stroke:#bf00bf;stroke-linejoin:miter;" x="469.95604562" xlink:href="#m2a6c1dc800" y="349.931590347"/>
     <use style="fill:none;stroke:#bf00bf;stroke-linejoin:miter;" x="469.95604562" xlink:href="#m2a6c1dc800" y="345.369214109"/>
     <use style="fill:none;stroke:#bf00bf;stroke-linejoin:miter;" x="476.36537088" xlink:href="#m2a6c1dc800" y="345.369214109"/>
    </g>
   </g>
   <g id="line2d_45"/>
   <g id="line2d_46">
    <path clip-path="url(#p4b24e7e61f)" d="
M324.62 359.056
L324.62 354.494
L325.17 354.494
L325.17 349.932
L326.601 349.932
L326.601 345.369
L329.918 345.369
L329.918 340.807
L330.764 340.807
L330.764 336.244
L331.348 336.244
L331.348 331.682
L332.056 331.682
L332.056 327.12
L333.087 327.12
L333.087 322.557
L333.599 322.557
L333.599 317.995
L334.824 317.995
L334.824 313.433
L337.567 313.433
L337.567 308.87
L348.995 308.87
L348.995 304.308
L348.995 304.308
L348.995 304.308
L511.322 304.308" style="fill:none;stroke:#bf00bf;stroke-linecap:square;"/>
   </g>
   <g id="line2d_47">
    <defs>
     <path d="
M0 7.5
C1.98902 7.5 3.89685 6.70975 5.3033 5.3033
C6.70975 3.89685 7.5 1.98902 7.5 0
C7.5 -1.98902 6.70975 -3.89685 5.3033 -5.3033
C3.89685 -6.70975 1.98902 -7.5 0 -7.5
C-1.98902 -7.5 -3.89685 -6.70975 -5.3033 -5.3033
C-6.70975 -3.89685 -7.5 -1.98902 -7.5 0
C-7.5 1.98902 -6.70975 3.89685 -5.3033 5.3033
C-3.89685 6.70975 -1.98902 7.5 0 7.5
z
" id="mcc0b4a10ca" style="stroke:#bf00bf;"/>
    </defs>
    <g clip-path="url(#p4b24e7e61f)">
     <use style="fill:none;stroke:#bf00bf;" x="330.763925515" xlink:href="#mcc0b4a10ca" y="340.806837871"/>
     <use style="fill:none;stroke:#bf00bf;" x="334.823918114" xlink:href="#mcc0b4a10ca" y="317.994956683"/>
     <use style="fill:none;stroke:#bf00bf;" x="348.995185213" xlink:href="#mcc0b4a10ca" y="304.30782797"/>
     <use style="fill:none;stroke:#bf00bf;" x="394.076671704" xlink:href="#mcc0b4a10ca" y="304.30782797"/>
     <use style="fill:none;stroke:#bf00bf;" x="476.36537088" xlink:href="#mcc0b4a10ca" y="304.30782797"/>
    </g>
   </g>
   <g id="line2d_48"/>
   <g id="line2d_49"/>
   <g id="line2d_50">
    <path clip-path="url(#p4b24e7e61f)" d="
M341.433 359.056
L341.433 354.494
L342.923 354.494
L342.923 349.932
L344.523 349.932
L344.523 345.369
L353.155 345.369
L353.155 340.807
L353.163 340.807
L353.163 336.244
L354.676 336.244
L354.676 331.682
L354.676 331.682
L354.676 331.682
L511.322 331.682" style="fill:none;stroke:#ff0000;stroke-linecap:square;stroke-width:3.0;"/>
   </g>
   <g id="line2d_51">
    <defs>
     <path d="
M0 7.5
C1.98902 7.5 3.89685 6.70975 5.3033 5.3033
C6.70975 3.89685 7.5 1.98902 7.5 0
C7.5 -1.98902 6.70975 -3.89685 5.3033 -5.3033
C3.89685 -6.70975 1.98902 -7.5 0 -7.5
C-1.98902 -7.5 -3.89685 -6.70975 -5.3033 -5.3033
C-6.70975 -3.89685 -7.5 -1.98902 -7.5 0
C-7.5 1.98902 -6.70975 3.89685 -5.3033 5.3033
C-3.89685 6.70975 -1.98902 7.5 0 7.5
z
" id="m7d9d93f489" style="stroke:#ff0000;stroke-width:3.0;"/>
    </defs>
    <g clip-path="url(#p4b24e7e61f)">
     <use style="fill:none;stroke:#ff0000;stroke-width:3.0;" x="342.922852855" xlink:href="#m7d9d93f489" y="354.493966584"/>
     <use style="fill:none;stroke:#ff0000;stroke-width:3.0;" x="354.676052994" xlink:href="#m7d9d93f489" y="336.244461634"/>
     <use style="fill:none;stroke:#ff0000;stroke-width:3.0;" x="354.676052994" xlink:href="#m7d9d93f489" y="331.682085396"/>
     <use style="fill:none;stroke:#ff0000;stroke-width:3.0;" x="394.076671704" xlink:href="#m7d9d93f489" y="331.682085396"/>
     <use style="fill:none;stroke:#ff0000;stroke-width:3.0;" x="476.36537088" xlink:href="#m7d9d93f489" y="331.682085396"/>
    </g>
   </g>
   <g id="line2d_52"/>
   <g id="line2d_53">
    <path clip-path="url(#p4b24e7e61f)" d="
M489.952 359.056
L489.952 13.4563" style="fill:none;stroke:#000000;stroke-linecap:square;"/>
    <defs>
     <path d="
M-10 0
L10 0
M0 10
L0 -10" id="m75ce5bc324" style="stroke:#000000;stroke-width:3.0;"/>
    </defs>
    <g clip-path="url(#p4b24e7e61f)">
     <use style="stroke:#000000;stroke-width:3.0;" x="489.952117428" xlink:href="#m75ce5bc324" y="359.056342822"/>
     <use style="stroke:#000000;stroke-width:3.0;" x="489.952117428" xlink:href="#m75ce5bc324" y="13.4563428218"/>
    </g>
   </g>
   <g id="line2d_54">
    <path clip-path="url(#p4b24e7e61f)" d="
M418.848 359.056
L418.848 13.4563" style="fill:none;stroke:#000000;stroke-linecap:square;"/>
    <defs>
     <path d="
M0 7.5
C1.98902 7.5 3.89685 6.70975 5.3033 5.3033
C6.70975 3.89685 7.5 1.98902 7.5 0
C7.5 -1.98902 6.70975 -3.89685 5.3033 -5.3033
C3.89685 -6.70975 1.98902 -7.5 0 -7.5
C-1.98902 -7.5 -3.89685 -6.70975 -5.3033 -5.3033
C-6.70975 -3.89685 -7.5 -1.98902 -7.5 0
C-7.5 1.98902 -6.70975 3.89685 -5.3033 5.3033
C-3.89685 6.70975 -1.98902 7.5 0 7.5
z
" id="mc33d4e4daf" style="stroke:#000000;stroke-width:3.0;"/>
    </defs>
    <g clip-path="url(#p4b24e7e61f)">
     <use style="fill:none;stroke:#000000;stroke-width:3.0;" x="418.848395834" xlink:href="#mc33d4e4daf" y="359.056342822"/>
     <use style="fill:none;stroke:#000000;stroke-width:3.0;" x="418.848395834" xlink:href="#mc33d4e4daf" y="13.4563428218"/>
    </g>
   </g>
   <g id="matplotlib.axis_1">
    <g id="xtick_1">
     <g id="line2d_55">
      <path clip-path="url(#p4b24e7e61f)" d="
M64.9219 359.056
L64.9219 13.4563" style="fill:none;stroke:#000000;stroke-dasharray:1.000000,3.000000;stroke-dashoffset:0.0;stroke-width:0.5;"/>
     </g>
     <g id="line2d_56">
      <defs>
       <path d="
M0 0
L0 -4" id="m93b0483c22" style="stroke:#000000;stroke-width:0.5;"/>
      </defs>
      <g>
       <use style="stroke:#000000;stroke-width:0.5;" x="64.921875" xlink:href="#m93b0483c22" y="359.056342822"/>
      </g>
     </g>
     <g id="line2d_57">
      <defs>
       <path d="
M0 0
L0 4" id="m741efc42ff" style="stroke:#000000;stroke-width:0.5;"/>
      </defs>
      <g>
       <use style="stroke:#000000;stroke-width:0.5;" x="64.921875" xlink:href="#m741efc42ff" y="13.4563428218"/>
      </g>
     </g>
     <g id="text_1">
      <!-- 0 -->
      <defs>
       <path d="
M31.7812 66.4062
Q24.1719 66.4062 20.3281 58.9062
Q16.5 51.4219 16.5 36.375
Q16.5 21.3906 20.3281 13.8906
Q24.1719 6.39062 31.7812 6.39062
Q39.4531 6.39062 43.2812 13.8906
Q47.125 21.3906 47.125 36.375
Q47.125 51.4219 43.2812 58.9062
Q39.4531 66.4062 31.7812 66.4062
M31.7812 74.2188
Q44.0469 74.2188 50.5156 64.5156
Q56.9844 54.8281 56.9844 36.375
Q56.9844 17.9688 50.5156 8.26562
Q44.0469 -1.42188 31.7812 -1.42188
Q19.5312 -1.42188 13.0625 8.26562
Q6.59375 17.9688 6.59375 36.375
Q6.59375 54.8281 13.0625 64.5156
Q19.5312 74.2188 31.7812 74.2188" id="BitstreamVeraSans-Roman-30"/>
      </defs>
      <g transform="translate(59.8828125 378.253217822)scale(0.2 -0.2)">
       <use xlink:href="#BitstreamVeraSans-Roman-30"/>
      </g>
     </g>
    </g>
    <g id="xtick_2">
     <g id="line2d_58">
      <path clip-path="url(#p4b24e7e61f)" d="
M147.211 359.056
L147.211 13.4563" style="fill:none;stroke:#000000;stroke-dasharray:1.000000,3.000000;stroke-dashoffset:0.0;stroke-width:0.5;"/>
     </g>
     <g id="line2d_59">
      <g>
       <use style="stroke:#000000;stroke-width:0.5;" x="147.210574176" xlink:href="#m93b0483c22" y="359.056342822"/>
      </g>
     </g>
     <g id="line2d_60">
      <g>
       <use style="stroke:#000000;stroke-width:0.5;" x="147.210574176" xlink:href="#m741efc42ff" y="13.4563428218"/>
      </g>
     </g>
     <g id="text_2">
      <!-- 1 -->
      <defs>
       <path d="
M12.4062 8.29688
L28.5156 8.29688
L28.5156 63.9219
L10.9844 60.4062
L10.9844 69.3906
L28.4219 72.9062
L38.2812 72.9062
L38.2812 8.29688
L54.3906 8.29688
L54.3906 0
L12.4062 0
z
" id="BitstreamVeraSans-Roman-31"/>
      </defs>
      <g transform="translate(142.869949176 378.253217822)scale(0.2 -0.2)">
       <use xlink:href="#BitstreamVeraSans-Roman-31"/>
      </g>
     </g>
    </g>
    <g id="xtick_3">
     <g id="line2d_61">
      <path clip-path="url(#p4b24e7e61f)" d="
M229.499 359.056
L229.499 13.4563" style="fill:none;stroke:#000000;stroke-dasharray:1.000000,3.000000;stroke-dashoffset:0.0;stroke-width:0.5;"/>
     </g>
     <g id="line2d_62">
      <g>
       <use style="stroke:#000000;stroke-width:0.5;" x="229.499273352" xlink:href="#m93b0483c22" y="359.056342822"/>
      </g>
     </g>
     <g id="line2d_63">
      <g>
       <use style="stroke:#000000;stroke-width:0.5;" x="229.499273352" xlink:href="#m741efc42ff" y="13.4563428218"/>
      </g>
     </g>
     <g id="text_3">
      <!-- 2 -->
      <defs>
       <path d="
M19.1875 8.29688
L53.6094 8.29688
L53.6094 0
L7.32812 0
L7.32812 8.29688
Q12.9375 14.1094 22.625 23.8906
Q32.3281 33.6875 34.8125 36.5312
Q39.5469 41.8438 41.4219 45.5312
Q43.3125 49.2188 43.3125 52.7812
Q43.3125 58.5938 39.2344 62.25
Q35.1562 65.9219 28.6094 65.9219
Q23.9688 65.9219 18.8125 64.3125
Q13.6719 62.7031 7.8125 59.4219
L7.8125 69.3906
Q13.7656 71.7812 18.9375 73
Q24.125 74.2188 28.4219 74.2188
Q39.75 74.2188 46.4844 68.5469
Q53.2188 62.8906 53.2188 53.4219
Q53.2188 48.9219 51.5312 44.8906
Q49.8594 40.875 45.4062 35.4062
Q44.1875 33.9844 37.6406 27.2188
Q31.1094 20.4531 19.1875 8.29688" id="BitstreamVeraSans-Roman-32"/>
      </defs>
      <g transform="translate(224.871148352 378.253217822)scale(0.2 -0.2)">
       <use xlink:href="#BitstreamVeraSans-Roman-32"/>
      </g>
     </g>
    </g>
    <g id="xtick_4">
     <g id="line2d_64">
      <path clip-path="url(#p4b24e7e61f)" d="
M311.788 359.056
L311.788 13.4563" style="fill:none;stroke:#000000;stroke-dasharray:1.000000,3.000000;stroke-dashoffset:0.0;stroke-width:0.5;"/>
     </g>
     <g id="line2d_65">
      <g>
       <use style="stroke:#000000;stroke-width:0.5;" x="311.787972528" xlink:href="#m93b0483c22" y="359.056342822"/>
      </g>
     </g>
     <g id="line2d_66">
      <g>
       <use style="stroke:#000000;stroke-width:0.5;" x="311.787972528" xlink:href="#m741efc42ff" y="13.4563428218"/>
      </g>
     </g>
     <g id="text_4">
      <!-- 3 -->
      <defs>
       <path d="
M40.5781 39.3125
Q47.6562 37.7969 51.625 33
Q55.6094 28.2188 55.6094 21.1875
Q55.6094 10.4062 48.1875 4.48438
Q40.7656 -1.42188 27.0938 -1.42188
Q22.5156 -1.42188 17.6562 -0.515625
Q12.7969 0.390625 7.625 2.20312
L7.625 11.7188
Q11.7188 9.32812 16.5938 8.10938
Q21.4844 6.89062 26.8125 6.89062
Q36.0781 6.89062 40.9375 10.5469
Q45.7969 14.2031 45.7969 21.1875
Q45.7969 27.6406 41.2812 31.2656
Q36.7656 34.9062 28.7188 34.9062
L20.2188 34.9062
L20.2188 43.0156
L29.1094 43.0156
Q36.375 43.0156 40.2344 45.9219
Q44.0938 48.8281 44.0938 54.2969
Q44.0938 59.9062 40.1094 62.9062
Q36.1406 65.9219 28.7188 65.9219
Q24.6562 65.9219 20.0156 65.0312
Q15.375 64.1562 9.8125 62.3125
L9.8125 71.0938
Q15.4375 72.6562 20.3438 73.4375
Q25.25 74.2188 29.5938 74.2188
Q40.8281 74.2188 47.3594 69.1094
Q53.9062 64.0156 53.9062 55.3281
Q53.9062 49.2656 50.4375 45.0938
Q46.9688 40.9219 40.5781 39.3125" id="BitstreamVeraSans-Roman-33"/>
      </defs>
      <g transform="translate(306.989535028 378.253217822)scale(0.2 -0.2)">
       <use xlink:href="#BitstreamVeraSans-Roman-33"/>
      </g>
     </g>
    </g>
    <g id="xtick_5">
     <g id="line2d_67">
      <path clip-path="url(#p4b24e7e61f)" d="
M394.077 359.056
L394.077 13.4563" style="fill:none;stroke:#000000;stroke-dasharray:1.000000,3.000000;stroke-dashoffset:0.0;stroke-width:0.5;"/>
     </g>
     <g id="line2d_68">
      <g>
       <use style="stroke:#000000;stroke-width:0.5;" x="394.076671704" xlink:href="#m93b0483c22" y="359.056342822"/>
      </g>
     </g>
     <g id="line2d_69">
      <g>
       <use style="stroke:#000000;stroke-width:0.5;" x="394.076671704" xlink:href="#m741efc42ff" y="13.4563428218"/>
      </g>
     </g>
     <g id="text_5">
      <!-- 4 -->
      <defs>
       <path d="
M37.7969 64.3125
L12.8906 25.3906
L37.7969 25.3906
z

M35.2031 72.9062
L47.6094 72.9062
L47.6094 25.3906
L58.0156 25.3906
L58.0156 17.1875
L47.6094 17.1875
L47.6094 0
L37.7969 0
L37.7969 17.1875
L4.89062 17.1875
L4.89062 26.7031
z
" id="BitstreamVeraSans-Roman-34"/>
      </defs>
      <g transform="translate(388.764171704 378.253217822)scale(0.2 -0.2)">
       <use xlink:href="#BitstreamVeraSans-Roman-34"/>
      </g>
     </g>
    </g>
    <g id="xtick_6">
     <g id="line2d_70">
      <path clip-path="url(#p4b24e7e61f)" d="
M476.365 359.056
L476.365 13.4563" style="fill:none;stroke:#000000;stroke-dasharray:1.000000,3.000000;stroke-dashoffset:0.0;stroke-width:0.5;"/>
     </g>
     <g id="line2d_71">
      <g>
       <use style="stroke:#000000;stroke-width:0.5;" x="476.36537088" xlink:href="#m93b0483c22" y="359.056342822"/>
      </g>
     </g>
     <g id="line2d_72">
      <g>
       <use style="stroke:#000000;stroke-width:0.5;" x="476.36537088" xlink:href="#m741efc42ff" y="13.4563428218"/>
      </g>
     </g>
     <g id="text_6">
      <!-- 5 -->
      <defs>
       <path d="
M10.7969 72.9062
L49.5156 72.9062
L49.5156 64.5938
L19.8281 64.5938
L19.8281 46.7344
Q21.9688 47.4688 24.1094 47.8281
Q26.2656 48.1875 28.4219 48.1875
Q40.625 48.1875 47.75 41.5
Q54.8906 34.8125 54.8906 23.3906
Q54.8906 11.625 47.5625 5.09375
Q40.2344 -1.42188 26.9062 -1.42188
Q22.3125 -1.42188 17.5469 -0.640625
Q12.7969 0.140625 7.71875 1.70312
L7.71875 11.625
Q12.1094 9.23438 16.7969 8.0625
Q21.4844 6.89062 26.7031 6.89062
Q35.1562 6.89062 40.0781 11.3281
Q45.0156 15.7656 45.0156 23.3906
Q45.0156 31 40.0781 35.4375
Q35.1562 39.8906 26.7031 39.8906
Q22.75 39.8906 18.8125 39.0156
Q14.8906 38.1406 10.7969 36.2812
z
" id="BitstreamVeraSans-Roman-35"/>
      </defs>
      <g transform="translate(471.64818338 378.253217822)scale(0.2 -0.2)">
       <use xlink:href="#BitstreamVeraSans-Roman-35"/>
      </g>
     </g>
    </g>
    <g id="xtick_7">
     <g id="line2d_73">
      <defs>
       <path d="
M0 0
L0 -2" id="m177f7580d0" style="stroke:#000000;stroke-width:0.5;"/>
      </defs>
      <g>
       <use style="stroke:#000000;stroke-width:0.5;" x="89.6932417562" xlink:href="#m177f7580d0" y="359.056342822"/>
      </g>
     </g>
     <g id="line2d_74">
      <defs>
       <path d="
M0 0
L0 2" id="m5284c7e2a0" style="stroke:#000000;stroke-width:0.5;"/>
      </defs>
      <g>
       <use style="stroke:#000000;stroke-width:0.5;" x="89.6932417562" xlink:href="#m5284c7e2a0" y="13.4563428218"/>
      </g>
     </g>
    </g>
    <g id="xtick_8">
     <g id="line2d_75">
      <g>
       <use style="stroke:#000000;stroke-width:0.5;" x="104.1835624" xlink:href="#m177f7580d0" y="359.056342822"/>
      </g>
     </g>
     <g id="line2d_76">
      <g>
       <use style="stroke:#000000;stroke-width:0.5;" x="104.1835624" xlink:href="#m5284c7e2a0" y="13.4563428218"/>
      </g>
     </g>
    </g>
    <g id="xtick_9">
     <g id="line2d_77">
      <g>
       <use style="stroke:#000000;stroke-width:0.5;" x="114.464608512" xlink:href="#m177f7580d0" y="359.056342822"/>
      </g>
     </g>
     <g id="line2d_78">
      <g>
       <use style="stroke:#000000;stroke-width:0.5;" x="114.464608512" xlink:href="#m5284c7e2a0" y="13.4563428218"/>
      </g>
     </g>
    </g>
    <g id="xtick_10">
     <g id="line2d_79">
      <g>
       <use style="stroke:#000000;stroke-width:0.5;" x="122.43920742" xlink:href="#m177f7580d0" y="359.056342822"/>
      </g>
     </g>
     <g id="line2d_80">
      <g>
       <use style="stroke:#000000;stroke-width:0.5;" x="122.43920742" xlink:href="#m5284c7e2a0" y="13.4563428218"/>
      </g>
     </g>
    </g>
    <g id="xtick_11">
     <g id="line2d_81">
      <g>
       <use style="stroke:#000000;stroke-width:0.5;" x="128.954929156" xlink:href="#m177f7580d0" y="359.056342822"/>
      </g>
     </g>
     <g id="line2d_82">
      <g>
       <use style="stroke:#000000;stroke-width:0.5;" x="128.954929156" xlink:href="#m5284c7e2a0" y="13.4563428218"/>
      </g>
     </g>
    </g>
    <g id="xtick_12">
     <g id="line2d_83">
      <g>
       <use style="stroke:#000000;stroke-width:0.5;" x="134.463893389" xlink:href="#m177f7580d0" y="359.056342822"/>
      </g>
     </g>
     <g id="line2d_84">
      <g>
       <use style="stroke:#000000;stroke-width:0.5;" x="134.463893389" xlink:href="#m5284c7e2a0" y="13.4563428218"/>
      </g>
     </g>
    </g>
    <g id="xtick_13">
     <g id="line2d_85">
      <g>
       <use style="stroke:#000000;stroke-width:0.5;" x="139.235975269" xlink:href="#m177f7580d0" y="359.056342822"/>
      </g>
     </g>
     <g id="line2d_86">
      <g>
       <use style="stroke:#000000;stroke-width:0.5;" x="139.235975269" xlink:href="#m5284c7e2a0" y="13.4563428218"/>
      </g>
     </g>
    </g>
    <g id="xtick_14">
     <g id="line2d_87">
      <g>
       <use style="stroke:#000000;stroke-width:0.5;" x="143.4452498" xlink:href="#m177f7580d0" y="359.056342822"/>
      </g>
     </g>
     <g id="line2d_88">
      <g>
       <use style="stroke:#000000;stroke-width:0.5;" x="143.4452498" xlink:href="#m5284c7e2a0" y="13.4563428218"/>
      </g>
     </g>
    </g>
    <g id="xtick_15">
     <g id="line2d_89">
      <g>
       <use style="stroke:#000000;stroke-width:0.5;" x="171.981940932" xlink:href="#m177f7580d0" y="359.056342822"/>
      </g>
     </g>
     <g id="line2d_90">
      <g>
       <use style="stroke:#000000;stroke-width:0.5;" x="171.981940932" xlink:href="#m5284c7e2a0" y="13.4563428218"/>
      </g>
     </g>
    </g>
    <g id="xtick_16">
     <g id="line2d_91">
      <g>
       <use style="stroke:#000000;stroke-width:0.5;" x="186.472261576" xlink:href="#m177f7580d0" y="359.056342822"/>
      </g>
     </g>
     <g id="line2d_92">
      <g>
       <use style="stroke:#000000;stroke-width:0.5;" x="186.472261576" xlink:href="#m5284c7e2a0" y="13.4563428218"/>
      </g>
     </g>
    </g>
    <g id="xtick_17">
     <g id="line2d_93">
      <g>
       <use style="stroke:#000000;stroke-width:0.5;" x="196.753307688" xlink:href="#m177f7580d0" y="359.056342822"/>
      </g>
     </g>
     <g id="line2d_94">
      <g>
       <use style="stroke:#000000;stroke-width:0.5;" x="196.753307688" xlink:href="#m5284c7e2a0" y="13.4563428218"/>
      </g>
     </g>
    </g>
    <g id="xtick_18">
     <g id="line2d_95">
      <g>
       <use style="stroke:#000000;stroke-width:0.5;" x="204.727906596" xlink:href="#m177f7580d0" y="359.056342822"/>
      </g>
     </g>
     <g id="line2d_96">
      <g>
       <use style="stroke:#000000;stroke-width:0.5;" x="204.727906596" xlink:href="#m5284c7e2a0" y="13.4563428218"/>
      </g>
     </g>
    </g>
    <g id="xtick_19">
     <g id="line2d_97">
      <g>
       <use style="stroke:#000000;stroke-width:0.5;" x="211.243628332" xlink:href="#m177f7580d0" y="359.056342822"/>
      </g>
     </g>
     <g id="line2d_98">
      <g>
       <use style="stroke:#000000;stroke-width:0.5;" x="211.243628332" xlink:href="#m5284c7e2a0" y="13.4563428218"/>
      </g>
     </g>
    </g>
    <g id="xtick_20">
     <g id="line2d_99">
      <g>
       <use style="stroke:#000000;stroke-width:0.5;" x="216.752592565" xlink:href="#m177f7580d0" y="359.056342822"/>
      </g>
     </g>
     <g id="line2d_100">
      <g>
       <use style="stroke:#000000;stroke-width:0.5;" x="216.752592565" xlink:href="#m5284c7e2a0" y="13.4563428218"/>
      </g>
     </g>
    </g>
    <g id="xtick_21">
     <g id="line2d_101">
      <g>
       <use style="stroke:#000000;stroke-width:0.5;" x="221.524674445" xlink:href="#m177f7580d0" y="359.056342822"/>
      </g>
     </g>
     <g id="line2d_102">
      <g>
       <use style="stroke:#000000;stroke-width:0.5;" x="221.524674445" xlink:href="#m5284c7e2a0" y="13.4563428218"/>
      </g>
     </g>
    </g>
    <g id="xtick_22">
     <g id="line2d_103">
      <g>
       <use style="stroke:#000000;stroke-width:0.5;" x="225.733948976" xlink:href="#m177f7580d0" y="359.056342822"/>
      </g>
     </g>
     <g id="line2d_104">
      <g>
       <use style="stroke:#000000;stroke-width:0.5;" x="225.733948976" xlink:href="#m5284c7e2a0" y="13.4563428218"/>
      </g>
     </g>
    </g>
    <g id="xtick_23">
     <g id="line2d_105">
      <g>
       <use style="stroke:#000000;stroke-width:0.5;" x="254.270640108" xlink:href="#m177f7580d0" y="359.056342822"/>
      </g>
     </g>
     <g id="line2d_106">
      <g>
       <use style="stroke:#000000;stroke-width:0.5;" x="254.270640108" xlink:href="#m5284c7e2a0" y="13.4563428218"/>
      </g>
     </g>
    </g>
    <g id="xtick_24">
     <g id="line2d_107">
      <g>
       <use style="stroke:#000000;stroke-width:0.5;" x="268.760960752" xlink:href="#m177f7580d0" y="359.056342822"/>
      </g>
     </g>
     <g id="line2d_108">
      <g>
       <use style="stroke:#000000;stroke-width:0.5;" x="268.760960752" xlink:href="#m5284c7e2a0" y="13.4563428218"/>
      </g>
     </g>
    </g>
    <g id="xtick_25">
     <g id="line2d_109">
      <g>
       <use style="stroke:#000000;stroke-width:0.5;" x="279.042006865" xlink:href="#m177f7580d0" y="359.056342822"/>
      </g>
     </g>
     <g id="line2d_110">
      <g>
       <use style="stroke:#000000;stroke-width:0.5;" x="279.042006865" xlink:href="#m5284c7e2a0" y="13.4563428218"/>
      </g>
     </g>
    </g>
    <g id="xtick_26">
     <g id="line2d_111">
      <g>
       <use style="stroke:#000000;stroke-width:0.5;" x="287.016605772" xlink:href="#m177f7580d0" y="359.056342822"/>
      </g>
     </g>
     <g id="line2d_112">
      <g>
       <use style="stroke:#000000;stroke-width:0.5;" x="287.016605772" xlink:href="#m5284c7e2a0" y="13.4563428218"/>
      </g>
     </g>
    </g>
    <g id="xtick_27">
     <g id="line2d_113">
      <g>
       <use style="stroke:#000000;stroke-width:0.5;" x="293.532327508" xlink:href="#m177f7580d0" y="359.056342822"/>
      </g>
     </g>
     <g id="line2d_114">
      <g>
       <use style="stroke:#000000;stroke-width:0.5;" x="293.532327508" xlink:href="#m5284c7e2a0" y="13.4563428218"/>
      </g>
     </g>
    </g>
    <g id="xtick_28">
     <g id="line2d_115">
      <g>
       <use style="stroke:#000000;stroke-width:0.5;" x="299.041291741" xlink:href="#m177f7580d0" y="359.056342822"/>
      </g>
     </g>
     <g id="line2d_116">
      <g>
       <use style="stroke:#000000;stroke-width:0.5;" x="299.041291741" xlink:href="#m5284c7e2a0" y="13.4563428218"/>
      </g>
     </g>
    </g>
    <g id="xtick_29">
     <g id="line2d_117">
      <g>
       <use style="stroke:#000000;stroke-width:0.5;" x="303.813373621" xlink:href="#m177f7580d0" y="359.056342822"/>
      </g>
     </g>
     <g id="line2d_118">
      <g>
       <use style="stroke:#000000;stroke-width:0.5;" x="303.813373621" xlink:href="#m5284c7e2a0" y="13.4563428218"/>
      </g>
     </g>
    </g>
    <g id="xtick_30">
     <g id="line2d_119">
      <g>
       <use style="stroke:#000000;stroke-width:0.5;" x="308.022648152" xlink:href="#m177f7580d0" y="359.056342822"/>
      </g>
     </g>
     <g id="line2d_120">
      <g>
       <use style="stroke:#000000;stroke-width:0.5;" x="308.022648152" xlink:href="#m5284c7e2a0" y="13.4563428218"/>
      </g>
     </g>
    </g>
    <g id="xtick_31">
     <g id="line2d_121">
      <g>
       <use style="stroke:#000000;stroke-width:0.5;" x="336.559339284" xlink:href="#m177f7580d0" y="359.056342822"/>
      </g>
     </g>
     <g id="line2d_122">
      <g>
       <use style="stroke:#000000;stroke-width:0.5;" x="336.559339284" xlink:href="#m5284c7e2a0" y="13.4563428218"/>
      </g>
     </g>
    </g>
    <g id="xtick_32">
     <g id="line2d_123">
      <g>
       <use style="stroke:#000000;stroke-width:0.5;" x="351.049659928" xlink:href="#m177f7580d0" y="359.056342822"/>
      </g>
     </g>
     <g id="line2d_124">
      <g>
       <use style="stroke:#000000;stroke-width:0.5;" x="351.049659928" xlink:href="#m5284c7e2a0" y="13.4563428218"/>
      </g>
     </g>
    </g>
    <g id="xtick_33">
     <g id="line2d_125">
      <g>
       <use style="stroke:#000000;stroke-width:0.5;" x="361.330706041" xlink:href="#m177f7580d0" y="359.056342822"/>
      </g>
     </g>
     <g id="line2d_126">
      <g>
       <use style="stroke:#000000;stroke-width:0.5;" x="361.330706041" xlink:href="#m5284c7e2a0" y="13.4563428218"/>
      </g>
     </g>
    </g>
    <g id="xtick_34">
     <g id="line2d_127">
      <g>
       <use style="stroke:#000000;stroke-width:0.5;" x="369.305304948" xlink:href="#m177f7580d0" y="359.056342822"/>
      </g>
     </g>
     <g id="line2d_128">
      <g>
       <use style="stroke:#000000;stroke-width:0.5;" x="369.305304948" xlink:href="#m5284c7e2a0" y="13.4563428218"/>
      </g>
     </g>
    </g>
    <g id="xtick_35">
     <g id="line2d_129">
      <g>
       <use style="stroke:#000000;stroke-width:0.5;" x="375.821026685" xlink:href="#m177f7580d0" y="359.056342822"/>
      </g>
     </g>
     <g id="line2d_130">
      <g>
       <use style="stroke:#000000;stroke-width:0.5;" x="375.821026685" xlink:href="#m5284c7e2a0" y="13.4563428218"/>
      </g>
     </g>
    </g>
    <g id="xtick_36">
     <g id="line2d_131">
      <g>
       <use style="stroke:#000000;stroke-width:0.5;" x="381.329990917" xlink:href="#m177f7580d0" y="359.056342822"/>
      </g>
     </g>
     <g id="line2d_132">
      <g>
       <use style="stroke:#000000;stroke-width:0.5;" x="381.329990917" xlink:href="#m5284c7e2a0" y="13.4563428218"/>
      </g>
     </g>
    </g>
    <g id="xtick_37">
     <g id="line2d_133">
      <g>
       <use style="stroke:#000000;stroke-width:0.5;" x="386.102072797" xlink:href="#m177f7580d0" y="359.056342822"/>
      </g>
     </g>
     <g id="line2d_134">
      <g>
       <use style="stroke:#000000;stroke-width:0.5;" x="386.102072797" xlink:href="#m5284c7e2a0" y="13.4563428218"/>
      </g>
     </g>
    </g>
    <g id="xtick_38">
     <g id="line2d_135">
      <g>
       <use style="stroke:#000000;stroke-width:0.5;" x="390.311347329" xlink:href="#m177f7580d0" y="359.056342822"/>
      </g>
     </g>
     <g id="line2d_136">
      <g>
       <use style="stroke:#000000;stroke-width:0.5;" x="390.311347329" xlink:href="#m5284c7e2a0" y="13.4563428218"/>
      </g>
     </g>
    </g>
    <g id="xtick_39">
     <g id="line2d_137">
      <g>
       <use style="stroke:#000000;stroke-width:0.5;" x="418.848038461" xlink:href="#m177f7580d0" y="359.056342822"/>
      </g>
     </g>
     <g id="line2d_138">
      <g>
       <use style="stroke:#000000;stroke-width:0.5;" x="418.848038461" xlink:href="#m5284c7e2a0" y="13.4563428218"/>
      </g>
     </g>
    </g>
    <g id="xtick_40">
     <g id="line2d_139">
      <g>
       <use style="stroke:#000000;stroke-width:0.5;" x="433.338359104" xlink:href="#m177f7580d0" y="359.056342822"/>
      </g>
     </g>
     <g id="line2d_140">
      <g>
       <use style="stroke:#000000;stroke-width:0.5;" x="433.338359104" xlink:href="#m5284c7e2a0" y="13.4563428218"/>
      </g>
     </g>
    </g>
    <g id="xtick_41">
     <g id="line2d_141">
      <g>
       <use style="stroke:#000000;stroke-width:0.5;" x="443.619405217" xlink:href="#m177f7580d0" y="359.056342822"/>
      </g>
     </g>
     <g id="line2d_142">
      <g>
       <use style="stroke:#000000;stroke-width:0.5;" x="443.619405217" xlink:href="#m5284c7e2a0" y="13.4563428218"/>
      </g>
     </g>
    </g>
    <g id="xtick_42">
     <g id="line2d_143">
      <g>
       <use style="stroke:#000000;stroke-width:0.5;" x="451.594004124" xlink:href="#m177f7580d0" y="359.056342822"/>
      </g>
     </g>
     <g id="line2d_144">
      <g>
       <use style="stroke:#000000;stroke-width:0.5;" x="451.594004124" xlink:href="#m5284c7e2a0" y="13.4563428218"/>
      </g>
     </g>
    </g>
    <g id="xtick_43">
     <g id="line2d_145">
      <g>
       <use style="stroke:#000000;stroke-width:0.5;" x="458.109725861" xlink:href="#m177f7580d0" y="359.056342822"/>
      </g>
     </g>
     <g id="line2d_146">
      <g>
       <use style="stroke:#000000;stroke-width:0.5;" x="458.109725861" xlink:href="#m5284c7e2a0" y="13.4563428218"/>
      </g>
     </g>
    </g>
    <g id="xtick_44">
     <g id="line2d_147">
      <g>
       <use style="stroke:#000000;stroke-width:0.5;" x="463.618690093" xlink:href="#m177f7580d0" y="359.056342822"/>
      </g>
     </g>
     <g id="line2d_148">
      <g>
       <use style="stroke:#000000;stroke-width:0.5;" x="463.618690093" xlink:href="#m5284c7e2a0" y="13.4563428218"/>
      </g>
     </g>
    </g>
    <g id="xtick_45">
     <g id="line2d_149">
      <g>
       <use style="stroke:#000000;stroke-width:0.5;" x="468.390771973" xlink:href="#m177f7580d0" y="359.056342822"/>
      </g>
     </g>
     <g id="line2d_150">
      <g>
       <use style="stroke:#000000;stroke-width:0.5;" x="468.390771973" xlink:href="#m5284c7e2a0" y="13.4563428218"/>
      </g>
     </g>
    </g>
    <g id="xtick_46">
     <g id="line2d_151">
      <g>
       <use style="stroke:#000000;stroke-width:0.5;" x="472.600046505" xlink:href="#m177f7580d0" y="359.056342822"/>
      </g>
     </g>
     <g id="line2d_152">
      <g>
       <use style="stroke:#000000;stroke-width:0.5;" x="472.600046505" xlink:href="#m5284c7e2a0" y="13.4563428218"/>
      </g>
     </g>
    </g>
    <g id="xtick_47">
     <g id="line2d_153">
      <g>
       <use style="stroke:#000000;stroke-width:0.5;" x="501.136737637" xlink:href="#m177f7580d0" y="359.056342822"/>
      </g>
     </g>
     <g id="line2d_154">
      <g>
       <use style="stroke:#000000;stroke-width:0.5;" x="501.136737637" xlink:href="#m5284c7e2a0" y="13.4563428218"/>
      </g>
     </g>
    </g>
    <g id="text_7">
     <!-- log10 of FEvals / DIM -->
     <defs>
      <path id="BitstreamVeraSans-Roman-20"/>
      <path d="
M9.8125 72.9062
L24.5156 72.9062
L43.1094 23.2969
L61.8125 72.9062
L76.5156 72.9062
L76.5156 0
L66.8906 0
L66.8906 64.0156
L48.0938 14.0156
L38.1875 14.0156
L19.3906 64.0156
L19.3906 0
L9.8125 0
z
" id="BitstreamVeraSans-Roman-4d"/>
      <path d="
M30.6094 48.3906
Q23.3906 48.3906 19.1875 42.75
Q14.9844 37.1094 14.9844 27.2969
Q14.9844 17.4844 19.1562 11.8438
Q23.3438 6.20312 30.6094 6.20312
Q37.7969 6.20312 41.9844 11.8594
Q46.1875 17.5312 46.1875 27.2969
Q46.1875 37.0156 41.9844 42.7031
Q37.7969 48.3906 30.6094 48.3906
M30.6094 56
Q42.3281 56 49.0156 48.375
Q55.7188 40.7656 55.7188 27.2969
Q55.7188 13.875 49.0156 6.21875
Q42.3281 -1.42188 30.6094 -1.42188
Q18.8438 -1.42188 12.1719 6.21875
Q5.51562 13.875 5.51562 27.2969
Q5.51562 40.7656 12.1719 48.375
Q18.8438 56 30.6094 56" id="BitstreamVeraSans-Roman-6f"/>
      <path d="
M9.42188 75.9844
L18.4062 75.9844
L18.4062 0
L9.42188 0
z
" id="BitstreamVeraSans-Roman-6c"/>
      <path d="
M9.8125 72.9062
L51.7031 72.9062
L51.7031 64.5938
L19.6719 64.5938
L19.6719 43.1094
L48.5781 43.1094
L48.5781 34.8125
L19.6719 34.8125
L19.6719 0
L9.8125 0
z
" id="BitstreamVeraSans-Roman-46"/>
      <path d="
M9.8125 72.9062
L55.9062 72.9062
L55.9062 64.5938
L19.6719 64.5938
L19.6719 43.0156
L54.3906 43.0156
L54.3906 34.7188
L19.6719 34.7188
L19.6719 8.29688
L56.7812 8.29688
L56.7812 0
L9.8125 0
z
" id="BitstreamVeraSans-Roman-45"/>
      <path d="
M19.6719 64.7969
L19.6719 8.10938
L31.5938 8.10938
Q46.6875 8.10938 53.6875 14.9375
Q60.6875 21.7812 60.6875 36.5312
Q60.6875 51.1719 53.6875 57.9844
Q46.6875 64.7969 31.5938 64.7969
z

M9.8125 72.9062
L30.0781 72.9062
Q51.2656 72.9062 61.1719 64.0938
Q71.0938 55.2812 71.0938 36.5312
Q71.0938 17.6719 61.125 8.82812
Q51.1719 0 30.0781 0
L9.8125 0
z
" id="BitstreamVeraSans-Roman-44"/>
      <path d="
M25.3906 72.9062
L33.6875 72.9062
L8.29688 -9.28125
L0 -9.28125
z
" id="BitstreamVeraSans-Roman-2f"/>
      <path d="
M2.98438 54.6875
L12.5 54.6875
L29.5938 8.79688
L46.6875 54.6875
L56.2031 54.6875
L35.6875 0
L23.4844 0
z
" id="BitstreamVeraSans-Roman-76"/>
      <path d="
M45.4062 27.9844
Q45.4062 37.75 41.375 43.1094
Q37.3594 48.4844 30.0781 48.4844
Q22.8594 48.4844 18.8281 43.1094
Q14.7969 37.75 14.7969 27.9844
Q14.7969 18.2656 18.8281 12.8906
Q22.8594 7.51562 30.0781 7.51562
Q37.3594 7.51562 41.375 12.8906
Q45.4062 18.2656 45.4062 27.9844
M54.3906 6.78125
Q54.3906 -7.17188 48.1875 -13.9844
Q42 -20.7969 29.2031 -20.7969
Q24.4688 -20.7969 20.2656 -20.0938
Q16.0625 -19.3906 12.1094 -17.9219
L12.1094 -9.1875
Q16.0625 -11.3281 19.9219 -12.3438
Q23.7812 -13.375 27.7812 -13.375
Q36.625 -13.375 41.0156 -8.76562
Q45.4062 -4.15625 45.4062 5.17188
L45.4062 9.625
Q42.625 4.78125 38.2812 2.39062
Q33.9375 0 27.875 0
Q17.8281 0 11.6719 7.65625
Q5.51562 15.3281 5.51562 27.9844
Q5.51562 40.6719 11.6719 48.3281
Q17.8281 56 27.875 56
Q33.9375 56 38.2812 53.6094
Q42.625 51.2188 45.4062 46.3906
L45.4062 54.6875
L54.3906 54.6875
z
" id="BitstreamVeraSans-Roman-67"/>
      <path d="
M37.1094 75.9844
L37.1094 68.5
L28.5156 68.5
Q23.6875 68.5 21.7969 66.5469
Q19.9219 64.5938 19.9219 59.5156
L19.9219 54.6875
L34.7188 54.6875
L34.7188 47.7031
L19.9219 47.7031
L19.9219 0
L10.8906 0
L10.8906 47.7031
L2.29688 47.7031
L2.29688 54.6875
L10.8906 54.6875
L10.8906 58.5
Q10.8906 67.625 15.1406 71.7969
Q19.3906 75.9844 28.6094 75.9844
z
" id="BitstreamVeraSans-Roman-66"/>
      <path d="
M34.2812 27.4844
Q23.3906 27.4844 19.1875 25
Q14.9844 22.5156 14.9844 16.5
Q14.9844 11.7188 18.1406 8.90625
Q21.2969 6.10938 26.7031 6.10938
Q34.1875 6.10938 38.7031 11.4062
Q43.2188 16.7031 43.2188 25.4844
L43.2188 27.4844
z

M52.2031 31.2031
L52.2031 0
L43.2188 0
L43.2188 8.29688
Q40.1406 3.32812 35.5469 0.953125
Q30.9531 -1.42188 24.3125 -1.42188
Q15.9219 -1.42188 10.9531 3.29688
Q6 8.01562 6 15.9219
Q6 25.1406 12.1719 29.8281
Q18.3594 34.5156 30.6094 34.5156
L43.2188 34.5156
L43.2188 35.4062
Q43.2188 41.6094 39.1406 45
Q35.0625 48.3906 27.6875 48.3906
Q23 48.3906 18.5469 47.2656
Q14.1094 46.1406 10.0156 43.8906
L10.0156 52.2031
Q14.9375 54.1094 19.5781 55.0469
Q24.2188 56 28.6094 56
Q40.4844 56 46.3438 49.8438
Q52.2031 43.7031 52.2031 31.2031" id="BitstreamVeraSans-Roman-61"/>
      <path d="
M44.2812 53.0781
L44.2812 44.5781
Q40.4844 46.5312 36.375 47.5
Q32.2812 48.4844 27.875 48.4844
Q21.1875 48.4844 17.8438 46.4375
Q14.5 44.3906 14.5 40.2812
Q14.5 37.1562 16.8906 35.375
Q19.2812 33.5938 26.5156 31.9844
L29.5938 31.2969
Q39.1562 29.25 43.1875 25.5156
Q47.2188 21.7812 47.2188 15.0938
Q47.2188 7.46875 41.1875 3.01562
Q35.1562 -1.42188 24.6094 -1.42188
Q20.2188 -1.42188 15.4531 -0.5625
Q10.6875 0.296875 5.42188 2
L5.42188 11.2812
Q10.4062 8.6875 15.2344 7.39062
Q20.0625 6.10938 24.8125 6.10938
Q31.1562 6.10938 34.5625 8.28125
Q37.9844 10.4531 37.9844 14.4062
Q37.9844 18.0625 35.5156 20.0156
Q33.0625 21.9688 24.7031 23.7812
L21.5781 24.5156
Q13.2344 26.2656 9.51562 29.9062
Q5.8125 33.5469 5.8125 39.8906
Q5.8125 47.6094 11.2812 51.7969
Q16.75 56 26.8125 56
Q31.7812 56 36.1719 55.2656
Q40.5781 54.5469 44.2812 53.0781" id="BitstreamVeraSans-Roman-73"/>
      <path d="
M9.8125 72.9062
L19.6719 72.9062
L19.6719 0
L9.8125 0
z
" id="BitstreamVeraSans-Roman-49"/>
     </defs>
     <g transform="translate(184.025 402.609467822)scale(0.2 -0.2)">
      <use xlink:href="#BitstreamVeraSans-Roman-6c"/>
      <use x="27.783203125" xlink:href="#BitstreamVeraSans-Roman-6f"/>
      <use x="88.96484375" xlink:href="#BitstreamVeraSans-Roman-67"/>
      <use x="152.44140625" xlink:href="#BitstreamVeraSans-Roman-31"/>
      <use x="216.064453125" xlink:href="#BitstreamVeraSans-Roman-30"/>
      <use x="279.6875" xlink:href="#BitstreamVeraSans-Roman-20"/>
      <use x="311.474609375" xlink:href="#BitstreamVeraSans-Roman-6f"/>
      <use x="372.65625" xlink:href="#BitstreamVeraSans-Roman-66"/>
      <use x="407.861328125" xlink:href="#BitstreamVeraSans-Roman-20"/>
      <use x="439.6484375" xlink:href="#BitstreamVeraSans-Roman-46"/>
      <use x="497.16796875" xlink:href="#BitstreamVeraSans-Roman-45"/>
      <use x="560.3515625" xlink:href="#BitstreamVeraSans-Roman-76"/>
      <use x="619.53125" xlink:href="#BitstreamVeraSans-Roman-61"/>
      <use x="680.810546875" xlink:href="#BitstreamVeraSans-Roman-6c"/>
      <use x="708.59375" xlink:href="#BitstreamVeraSans-Roman-73"/>
      <use x="760.693359375" xlink:href="#BitstreamVeraSans-Roman-20"/>
      <use x="792.48046875" xlink:href="#BitstreamVeraSans-Roman-2f"/>
      <use x="826.171875" xlink:href="#BitstreamVeraSans-Roman-20"/>
      <use x="857.958984375" xlink:href="#BitstreamVeraSans-Roman-44"/>
      <use x="934.9609375" xlink:href="#BitstreamVeraSans-Roman-49"/>
      <use x="964.453125" xlink:href="#BitstreamVeraSans-Roman-4d"/>
     </g>
    </g>
   </g>
   <g id="matplotlib.axis_2">
    <g id="ytick_1">
     <g id="line2d_155">
      <path clip-path="url(#p4b24e7e61f)" d="
M64.9219 359.056
L511.322 359.056" style="fill:none;stroke:#000000;stroke-dasharray:1.000000,3.000000;stroke-dashoffset:0.0;stroke-width:0.5;"/>
     </g>
     <g id="line2d_156">
      <defs>
       <path d="
M0 0
L4 0" id="m728421d6d4" style="stroke:#000000;stroke-width:0.5;"/>
      </defs>
      <g>
       <use style="stroke:#000000;stroke-width:0.5;" x="64.921875" xlink:href="#m728421d6d4" y="359.056342822"/>
      </g>
     </g>
     <g id="line2d_157">
      <defs>
       <path d="
M0 0
L-4 0" id="mcb0005524f" style="stroke:#000000;stroke-width:0.5;"/>
      </defs>
      <g>
       <use style="stroke:#000000;stroke-width:0.5;" x="511.321875" xlink:href="#mcb0005524f" y="359.056342822"/>
      </g>
     </g>
     <g id="text_8">
      <!-- 0.0 -->
      <defs>
       <path d="
M10.6875 12.4062
L21 12.4062
L21 0
L10.6875 0
z
" id="BitstreamVeraSans-Roman-2e"/>
      </defs>
      <g transform="translate(31.7625 364.575092822)scale(0.2 -0.2)">
       <use xlink:href="#BitstreamVeraSans-Roman-30"/>
       <use x="63.623046875" xlink:href="#BitstreamVeraSans-Roman-2e"/>
       <use x="95.41015625" xlink:href="#BitstreamVeraSans-Roman-30"/>
      </g>
     </g>
    </g>
    <g id="ytick_2">
     <g id="line2d_158">
      <path clip-path="url(#p4b24e7e61f)" d="
M64.9219 290.621
L511.322 290.621" style="fill:none;stroke:#000000;stroke-dasharray:1.000000,3.000000;stroke-dashoffset:0.0;stroke-width:0.5;"/>
     </g>
     <g id="line2d_159">
      <g>
       <use style="stroke:#000000;stroke-width:0.5;" x="64.921875" xlink:href="#m728421d6d4" y="290.620699257"/>
      </g>
     </g>
     <g id="line2d_160">
      <g>
       <use style="stroke:#000000;stroke-width:0.5;" x="511.321875" xlink:href="#mcb0005524f" y="290.620699257"/>
      </g>
     </g>
     <g id="text_9">
      <!-- 0.2 -->
      <g transform="translate(32.4375 296.139449257)scale(0.2 -0.2)">
       <use xlink:href="#BitstreamVeraSans-Roman-30"/>
       <use x="63.623046875" xlink:href="#BitstreamVeraSans-Roman-2e"/>
       <use x="95.41015625" xlink:href="#BitstreamVeraSans-Roman-32"/>
      </g>
     </g>
    </g>
    <g id="ytick_3">
     <g id="line2d_161">
      <path clip-path="url(#p4b24e7e61f)" d="
M64.9219 222.185
L511.322 222.185" style="fill:none;stroke:#000000;stroke-dasharray:1.000000,3.000000;stroke-dashoffset:0.0;stroke-width:0.5;"/>
     </g>
     <g id="line2d_162">
      <g>
       <use style="stroke:#000000;stroke-width:0.5;" x="64.921875" xlink:href="#m728421d6d4" y="222.185055693"/>
      </g>
     </g>
     <g id="line2d_163">
      <g>
       <use style="stroke:#000000;stroke-width:0.5;" x="511.321875" xlink:href="#mcb0005524f" y="222.185055693"/>
      </g>
     </g>
     <g id="text_10">
      <!-- 0.4 -->
      <g transform="translate(31.55625 227.703805693)scale(0.2 -0.2)">
       <use xlink:href="#BitstreamVeraSans-Roman-30"/>
       <use x="63.623046875" xlink:href="#BitstreamVeraSans-Roman-2e"/>
       <use x="95.41015625" xlink:href="#BitstreamVeraSans-Roman-34"/>
      </g>
     </g>
    </g>
    <g id="ytick_4">
     <g id="line2d_164">
      <path clip-path="url(#p4b24e7e61f)" d="
M64.9219 153.749
L511.322 153.749" style="fill:none;stroke:#000000;stroke-dasharray:1.000000,3.000000;stroke-dashoffset:0.0;stroke-width:0.5;"/>
     </g>
     <g id="line2d_165">
      <g>
       <use style="stroke:#000000;stroke-width:0.5;" x="64.921875" xlink:href="#m728421d6d4" y="153.749412129"/>
      </g>
     </g>
     <g id="line2d_166">
      <g>
       <use style="stroke:#000000;stroke-width:0.5;" x="511.321875" xlink:href="#mcb0005524f" y="153.749412129"/>
      </g>
     </g>
     <g id="text_11">
      <!-- 0.6 -->
      <defs>
       <path d="
M33.0156 40.375
Q26.375 40.375 22.4844 35.8281
Q18.6094 31.2969 18.6094 23.3906
Q18.6094 15.5312 22.4844 10.9531
Q26.375 6.39062 33.0156 6.39062
Q39.6562 6.39062 43.5312 10.9531
Q47.4062 15.5312 47.4062 23.3906
Q47.4062 31.2969 43.5312 35.8281
Q39.6562 40.375 33.0156 40.375
M52.5938 71.2969
L52.5938 62.3125
Q48.875 64.0625 45.0938 64.9844
Q41.3125 65.9219 37.5938 65.9219
Q27.8281 65.9219 22.6719 59.3281
Q17.5312 52.7344 16.7969 39.4062
Q19.6719 43.6562 24.0156 45.9219
Q28.375 48.1875 33.5938 48.1875
Q44.5781 48.1875 50.9531 41.5156
Q57.3281 34.8594 57.3281 23.3906
Q57.3281 12.1562 50.6875 5.35938
Q44.0469 -1.42188 33.0156 -1.42188
Q20.3594 -1.42188 13.6719 8.26562
Q6.98438 17.9688 6.98438 36.375
Q6.98438 53.6562 15.1875 63.9375
Q23.3906 74.2188 37.2031 74.2188
Q40.9219 74.2188 44.7031 73.4844
Q48.4844 72.75 52.5938 71.2969" id="BitstreamVeraSans-Roman-36"/>
      </defs>
      <g transform="translate(31.69375 159.268162129)scale(0.2 -0.2)">
       <use xlink:href="#BitstreamVeraSans-Roman-30"/>
       <use x="63.623046875" xlink:href="#BitstreamVeraSans-Roman-2e"/>
       <use x="95.41015625" xlink:href="#BitstreamVeraSans-Roman-36"/>
      </g>
     </g>
    </g>
    <g id="ytick_5">
     <g id="line2d_167">
      <path clip-path="url(#p4b24e7e61f)" d="
M64.9219 85.3138
L511.322 85.3138" style="fill:none;stroke:#000000;stroke-dasharray:1.000000,3.000000;stroke-dashoffset:0.0;stroke-width:0.5;"/>
     </g>
     <g id="line2d_168">
      <g>
       <use style="stroke:#000000;stroke-width:0.5;" x="64.921875" xlink:href="#m728421d6d4" y="85.3137685644"/>
      </g>
     </g>
     <g id="line2d_169">
      <g>
       <use style="stroke:#000000;stroke-width:0.5;" x="511.321875" xlink:href="#mcb0005524f" y="85.3137685644"/>
      </g>
     </g>
     <g id="text_12">
      <!-- 0.8 -->
      <defs>
       <path d="
M31.7812 34.625
Q24.75 34.625 20.7188 30.8594
Q16.7031 27.0938 16.7031 20.5156
Q16.7031 13.9219 20.7188 10.1562
Q24.75 6.39062 31.7812 6.39062
Q38.8125 6.39062 42.8594 10.1719
Q46.9219 13.9688 46.9219 20.5156
Q46.9219 27.0938 42.8906 30.8594
Q38.875 34.625 31.7812 34.625
M21.9219 38.8125
Q15.5781 40.375 12.0312 44.7188
Q8.5 49.0781 8.5 55.3281
Q8.5 64.0625 14.7188 69.1406
Q20.9531 74.2188 31.7812 74.2188
Q42.6719 74.2188 48.875 69.1406
Q55.0781 64.0625 55.0781 55.3281
Q55.0781 49.0781 51.5312 44.7188
Q48 40.375 41.7031 38.8125
Q48.8281 37.1562 52.7969 32.3125
Q56.7812 27.4844 56.7812 20.5156
Q56.7812 9.90625 50.3125 4.23438
Q43.8438 -1.42188 31.7812 -1.42188
Q19.7344 -1.42188 13.25 4.23438
Q6.78125 9.90625 6.78125 20.5156
Q6.78125 27.4844 10.7812 32.3125
Q14.7969 37.1562 21.9219 38.8125
M18.3125 54.3906
Q18.3125 48.7344 21.8438 45.5625
Q25.3906 42.3906 31.7812 42.3906
Q38.1406 42.3906 41.7188 45.5625
Q45.3125 48.7344 45.3125 54.3906
Q45.3125 60.0625 41.7188 63.2344
Q38.1406 66.4062 31.7812 66.4062
Q25.3906 66.4062 21.8438 63.2344
Q18.3125 60.0625 18.3125 54.3906" id="BitstreamVeraSans-Roman-38"/>
      </defs>
      <g transform="translate(31.803125 90.8325185644)scale(0.2 -0.2)">
       <use xlink:href="#BitstreamVeraSans-Roman-30"/>
       <use x="63.623046875" xlink:href="#BitstreamVeraSans-Roman-2e"/>
       <use x="95.41015625" xlink:href="#BitstreamVeraSans-Roman-38"/>
      </g>
     </g>
    </g>
    <g id="ytick_6">
     <g id="line2d_170">
      <path clip-path="url(#p4b24e7e61f)" d="
M64.9219 16.8781
L511.322 16.8781" style="fill:none;stroke:#000000;stroke-dasharray:1.000000,3.000000;stroke-dashoffset:0.0;stroke-width:0.5;"/>
     </g>
     <g id="line2d_171">
      <g>
       <use style="stroke:#000000;stroke-width:0.5;" x="64.921875" xlink:href="#m728421d6d4" y="16.878125"/>
      </g>
     </g>
     <g id="line2d_172">
      <g>
       <use style="stroke:#000000;stroke-width:0.5;" x="511.321875" xlink:href="#mcb0005524f" y="16.878125"/>
      </g>
     </g>
     <g id="text_13">
      <!-- 1.0 -->
      <g transform="translate(32.640625 22.396875)scale(0.2 -0.2)">
       <use xlink:href="#BitstreamVeraSans-Roman-31"/>
       <use x="63.623046875" xlink:href="#BitstreamVeraSans-Roman-2e"/>
       <use x="95.41015625" xlink:href="#BitstreamVeraSans-Roman-30"/>
      </g>
     </g>
    </g>
    <g id="text_14">
     <!-- proportion of trials -->
     <defs>
      <path d="
M54.8906 33.0156
L54.8906 0
L45.9062 0
L45.9062 32.7188
Q45.9062 40.4844 42.875 44.3281
Q39.8438 48.1875 33.7969 48.1875
Q26.5156 48.1875 22.3125 43.5469
Q18.1094 38.9219 18.1094 30.9062
L18.1094 0
L9.07812 0
L9.07812 54.6875
L18.1094 54.6875
L18.1094 46.1875
Q21.3438 51.125 25.7031 53.5625
Q30.0781 56 35.7969 56
Q45.2188 56 50.0469 50.1719
Q54.8906 44.3438 54.8906 33.0156" id="BitstreamVeraSans-Roman-6e"/>
      <path d="
M9.42188 54.6875
L18.4062 54.6875
L18.4062 0
L9.42188 0
z

M9.42188 75.9844
L18.4062 75.9844
L18.4062 64.5938
L9.42188 64.5938
z
" id="BitstreamVeraSans-Roman-69"/>
      <path d="
M18.3125 70.2188
L18.3125 54.6875
L36.8125 54.6875
L36.8125 47.7031
L18.3125 47.7031
L18.3125 18.0156
Q18.3125 11.3281 20.1406 9.42188
Q21.9688 7.51562 27.5938 7.51562
L36.8125 7.51562
L36.8125 0
L27.5938 0
Q17.1875 0 13.2344 3.875
Q9.28125 7.76562 9.28125 18.0156
L9.28125 47.7031
L2.6875 47.7031
L2.6875 54.6875
L9.28125 54.6875
L9.28125 70.2188
z
" id="BitstreamVeraSans-Roman-74"/>
      <path d="
M41.1094 46.2969
Q39.5938 47.1719 37.8125 47.5781
Q36.0312 48 33.8906 48
Q26.2656 48 22.1875 43.0469
Q18.1094 38.0938 18.1094 28.8125
L18.1094 0
L9.07812 0
L9.07812 54.6875
L18.1094 54.6875
L18.1094 46.1875
Q20.9531 51.1719 25.4844 53.5781
Q30.0312 56 36.5312 56
Q37.4531 56 38.5781 55.875
Q39.7031 55.7656 41.0625 55.5156
z
" id="BitstreamVeraSans-Roman-72"/>
      <path d="
M18.1094 8.20312
L18.1094 -20.7969
L9.07812 -20.7969
L9.07812 54.6875
L18.1094 54.6875
L18.1094 46.3906
Q20.9531 51.2656 25.2656 53.625
Q29.5938 56 35.5938 56
Q45.5625 56 51.7812 48.0938
Q58.0156 40.1875 58.0156 27.2969
Q58.0156 14.4062 51.7812 6.48438
Q45.5625 -1.42188 35.5938 -1.42188
Q29.5938 -1.42188 25.2656 0.953125
Q20.9531 3.32812 18.1094 8.20312
M48.6875 27.2969
Q48.6875 37.2031 44.6094 42.8438
Q40.5312 48.4844 33.4062 48.4844
Q26.2656 48.4844 22.1875 42.8438
Q18.1094 37.2031 18.1094 27.2969
Q18.1094 17.3906 22.1875 11.75
Q26.2656 6.10938 33.4062 6.10938
Q40.5312 6.10938 44.6094 11.75
Q48.6875 17.3906 48.6875 27.2969" id="BitstreamVeraSans-Roman-70"/>
     </defs>
     <g transform="translate(22.396875 278.775092822)rotate(-90.0)scale(0.2 -0.2)">
      <use xlink:href="#BitstreamVeraSans-Roman-70"/>
      <use x="63.4765625" xlink:href="#BitstreamVeraSans-Roman-72"/>
      <use x="102.33984375" xlink:href="#BitstreamVeraSans-Roman-6f"/>
      <use x="163.521484375" xlink:href="#BitstreamVeraSans-Roman-70"/>
      <use x="226.998046875" xlink:href="#BitstreamVeraSans-Roman-6f"/>
      <use x="288.1796875" xlink:href="#BitstreamVeraSans-Roman-72"/>
      <use x="329.29296875" xlink:href="#BitstreamVeraSans-Roman-74"/>
      <use x="368.501953125" xlink:href="#BitstreamVeraSans-Roman-69"/>
      <use x="396.28515625" xlink:href="#BitstreamVeraSans-Roman-6f"/>
      <use x="457.466796875" xlink:href="#BitstreamVeraSans-Roman-6e"/>
      <use x="520.845703125" xlink:href="#BitstreamVeraSans-Roman-20"/>
      <use x="552.6328125" xlink:href="#BitstreamVeraSans-Roman-6f"/>
      <use x="613.814453125" xlink:href="#BitstreamVeraSans-Roman-66"/>
      <use x="649.01953125" xlink:href="#BitstreamVeraSans-Roman-20"/>
      <use x="680.806640625" xlink:href="#BitstreamVeraSans-Roman-74"/>
      <use x="720.015625" xlink:href="#BitstreamVeraSans-Roman-72"/>
      <use x="761.12890625" xlink:href="#BitstreamVeraSans-Roman-69"/>
      <use x="788.912109375" xlink:href="#BitstreamVeraSans-Roman-61"/>
      <use x="850.19140625" xlink:href="#BitstreamVeraSans-Roman-6c"/>
      <use x="877.974609375" xlink:href="#BitstreamVeraSans-Roman-73"/>
     </g>
    </g>
   </g>
   <g id="patch_3">
    <path d="
M64.9219 13.4563
L511.322 13.4563" style="fill:none;stroke:#000000;"/>
   </g>
   <g id="patch_4">
    <path d="
M511.322 359.056
L511.322 13.4563" style="fill:none;stroke:#000000;"/>
   </g>
   <g id="patch_5">
    <path d="
M64.9219 359.056
L511.322 359.056" style="fill:none;stroke:#000000;"/>
   </g>
   <g id="patch_6">
    <path d="
M64.9219 359.056
L64.9219 13.4563" style="fill:none;stroke:#000000;"/>
   </g>
   <g id="text_15">
    <!-- f15-f19 -->
    <defs>
     <path d="
M10.9844 1.51562
L10.9844 10.5
Q14.7031 8.73438 18.5 7.8125
Q22.3125 6.89062 25.9844 6.89062
Q35.75 6.89062 40.8906 13.4531
Q46.0469 20.0156 46.7812 33.4062
Q43.9531 29.2031 39.5938 26.9531
Q35.25 24.7031 29.9844 24.7031
Q19.0469 24.7031 12.6719 31.3125
Q6.29688 37.9375 6.29688 49.4219
Q6.29688 60.6406 12.9375 67.4219
Q19.5781 74.2188 30.6094 74.2188
Q43.2656 74.2188 49.9219 64.5156
Q56.5938 54.8281 56.5938 36.375
Q56.5938 19.1406 48.4062 8.85938
Q40.2344 -1.42188 26.4219 -1.42188
Q22.7031 -1.42188 18.8906 -0.6875
Q15.0938 0.046875 10.9844 1.51562
M30.6094 32.4219
Q37.25 32.4219 41.125 36.9531
Q45.0156 41.5 45.0156 49.4219
Q45.0156 57.2812 41.125 61.8438
Q37.25 66.4062 30.6094 66.4062
Q23.9688 66.4062 20.0938 61.8438
Q16.2188 57.2812 16.2188 49.4219
Q16.2188 41.5 20.0938 36.9531
Q23.9688 32.4219 30.6094 32.4219" id="BitstreamVeraSans-Roman-39"/>
     <path d="
M4.89062 31.3906
L31.2031 31.3906
L31.2031 23.3906
L4.89062 23.3906
z
" id="BitstreamVeraSans-Roman-2d"/>
    </defs>
    <g transform="translate(252.95625 35.5652178218)scale(0.2 -0.2)">
     <use xlink:href="#BitstreamVeraSans-Roman-66"/>
     <use x="35.205078125" xlink:href="#BitstreamVeraSans-Roman-31"/>
     <use x="98.828125" xlink:href="#BitstreamVeraSans-Roman-35"/>
     <use x="162.451171875" xlink:href="#BitstreamVeraSans-Roman-2d"/>
     <use x="198.53515625" xlink:href="#BitstreamVeraSans-Roman-66"/>
     <use x="233.740234375" xlink:href="#BitstreamVeraSans-Roman-31"/>
     <use x="297.36328125" xlink:href="#BitstreamVeraSans-Roman-39"/>
    </g>
   </g>
   <g id="text_16">
    <!-- absolute targets -->
    <defs>
     <path d="
M56.2031 29.5938
L56.2031 25.2031
L14.8906 25.2031
Q15.4844 15.9219 20.4844 11.0625
Q25.4844 6.20312 34.4219 6.20312
Q39.5938 6.20312 44.4531 7.46875
Q49.3125 8.73438 54.1094 11.2812
L54.1094 2.78125
Q49.2656 0.734375 44.1875 -0.34375
Q39.1094 -1.42188 33.8906 -1.42188
Q20.7969 -1.42188 13.1562 6.1875
Q5.51562 13.8125 5.51562 26.8125
Q5.51562 40.2344 12.7656 48.1094
Q20.0156 56 32.3281 56
Q43.3594 56 49.7812 48.8906
Q56.2031 41.7969 56.2031 29.5938
M47.2188 32.2344
Q47.125 39.5938 43.0938 43.9844
Q39.0625 48.3906 32.4219 48.3906
Q24.9062 48.3906 20.3906 44.1406
Q15.875 39.8906 15.1875 32.1719
z
" id="BitstreamVeraSans-Roman-65"/>
     <path d="
M8.5 21.5781
L8.5 54.6875
L17.4844 54.6875
L17.4844 21.9219
Q17.4844 14.1562 20.5 10.2656
Q23.5312 6.39062 29.5938 6.39062
Q36.8594 6.39062 41.0781 11.0312
Q45.3125 15.6719 45.3125 23.6875
L45.3125 54.6875
L54.2969 54.6875
L54.2969 0
L45.3125 0
L45.3125 8.40625
Q42.0469 3.42188 37.7188 1
Q33.4062 -1.42188 27.6875 -1.42188
Q18.2656 -1.42188 13.375 4.4375
Q8.5 10.2969 8.5 21.5781" id="BitstreamVeraSans-Roman-75"/>
     <path d="
M48.6875 27.2969
Q48.6875 37.2031 44.6094 42.8438
Q40.5312 48.4844 33.4062 48.4844
Q26.2656 48.4844 22.1875 42.8438
Q18.1094 37.2031 18.1094 27.2969
Q18.1094 17.3906 22.1875 11.75
Q26.2656 6.10938 33.4062 6.10938
Q40.5312 6.10938 44.6094 11.75
Q48.6875 17.3906 48.6875 27.2969
M18.1094 46.3906
Q20.9531 51.2656 25.2656 53.625
Q29.5938 56 35.5938 56
Q45.5625 56 51.7812 48.0938
Q58.0156 40.1875 58.0156 27.2969
Q58.0156 14.4062 51.7812 6.48438
Q45.5625 -1.42188 35.5938 -1.42188
Q29.5938 -1.42188 25.2656 0.953125
Q20.9531 3.32812 18.1094 8.20312
L18.1094 0
L9.07812 0
L9.07812 75.9844
L18.1094 75.9844
z
" id="BitstreamVeraSans-Roman-62"/>
    </defs>
    <g transform="translate(64.921875 359.056342822)scale(0.14 -0.14)">
     <use xlink:href="#BitstreamVeraSans-Roman-61"/>
     <use x="61.279296875" xlink:href="#BitstreamVeraSans-Roman-62"/>
     <use x="124.755859375" xlink:href="#BitstreamVeraSans-Roman-73"/>
     <use x="176.85546875" xlink:href="#BitstreamVeraSans-Roman-6f"/>
     <use x="238.037109375" xlink:href="#BitstreamVeraSans-Roman-6c"/>
     <use x="265.8203125" xlink:href="#BitstreamVeraSans-Roman-75"/>
     <use x="329.19921875" xlink:href="#BitstreamVeraSans-Roman-74"/>
     <use x="368.408203125" xlink:href="#BitstreamVeraSans-Roman-65"/>
     <use x="429.931640625" xlink:href="#BitstreamVeraSans-Roman-20"/>
     <use x="461.71875" xlink:href="#BitstreamVeraSans-Roman-74"/>
     <use x="500.927734375" xlink:href="#BitstreamVeraSans-Roman-61"/>
     <use x="562.20703125" xlink:href="#BitstreamVeraSans-Roman-72"/>
     <use x="601.5703125" xlink:href="#BitstreamVeraSans-Roman-67"/>
     <use x="665.046875" xlink:href="#BitstreamVeraSans-Roman-65"/>
     <use x="726.5703125" xlink:href="#BitstreamVeraSans-Roman-74"/>
     <use x="765.779296875" xlink:href="#BitstreamVeraSans-Roman-73"/>
    </g>
   </g>
   <g id="text_17">
    <!-- 0.0.0 -->
    <g style="fill:#808080;" transform="translate(276.06171875 353.520655322)scale(0.1 -0.1)">
     <use xlink:href="#BitstreamVeraSans-Roman-30"/>
     <use x="63.623046875" xlink:href="#BitstreamVeraSans-Roman-2e"/>
     <use x="95.41015625" xlink:href="#BitstreamVeraSans-Roman-30"/>
     <use x="159.033203125" xlink:href="#BitstreamVeraSans-Roman-2e"/>
     <use x="190.8203125" xlink:href="#BitstreamVeraSans-Roman-30"/>
    </g>
   </g>
   <g id="legend_1">
    <g id="patch_7">
     <path d="
M74.9219 146.881
L164.763 146.881
L164.763 23.4563
L74.9219 23.4563
L74.9219 146.881
z
" style="fill:#ffffff;opacity:0.2;stroke:#000000;"/>
    </g>
    <g id="line2d_173">
     <path d="
M88.9219 39.6532
L116.922 39.6532" style="fill:none;stroke:#000000;stroke-linecap:square;"/>
    </g>
    <g id="line2d_174"/>
    <g id="text_18">
     <!-- 1 -->
     <g transform="translate(138.921875 46.6532178218)scale(0.2 -0.2)">
      <use xlink:href="#BitstreamVeraSans-Roman-31"/>
     </g>
    </g>
    <g id="line2d_175">
     <path d="
M88.9219 69.0095
L116.922 69.0095" style="fill:none;stroke:#00bfbf;stroke-linecap:square;"/>
    </g>
    <g id="line2d_176"/>
    <g id="text_19">
     <!-- -1 -->
     <g transform="translate(138.921875 76.0094678218)scale(0.2 -0.2)">
      <use xlink:href="#BitstreamVeraSans-Roman-2d"/>
      <use x="36.083984375" xlink:href="#BitstreamVeraSans-Roman-31"/>
     </g>
    </g>
    <g id="line2d_177">
     <path d="
M88.9219 98.3657
L116.922 98.3657" style="fill:none;stroke:#bf00bf;stroke-linecap:square;"/>
    </g>
    <g id="line2d_178"/>
    <g id="text_20">
     <!-- -4 -->
     <g transform="translate(138.921875 105.365717822)scale(0.2 -0.2)">
      <use xlink:href="#BitstreamVeraSans-Roman-2d"/>
      <use x="36.083984375" xlink:href="#BitstreamVeraSans-Roman-34"/>
     </g>
    </g>
    <g id="line2d_179">
     <path d="
M88.9219 127.722
L116.922 127.722" style="fill:none;stroke:#ff0000;stroke-linecap:square;stroke-width:3.0;"/>
    </g>
    <g id="line2d_180"/>
    <g id="text_21">
     <!-- -8 -->
     <g transform="translate(138.921875 134.721967822)scale(0.2 -0.2)">
      <use xlink:href="#BitstreamVeraSans-Roman-2d"/>
      <use x="36.083984375" xlink:href="#BitstreamVeraSans-Roman-38"/>
     </g>
    </g>
   </g>
  </g>
 </g>
 <defs>
  <clipPath id="p4b24e7e61f">
   <rect height="345.6" width="446.4" x="64.921875" y="13.4563428218"/>
  </clipPath>
 </defs>
</svg>
