<?xml version="1.0" encoding="utf-8" standalone="no"?>
<!DOCTYPE svg PUBLIC "-//W3C//DTD SVG 1.1//EN"
  "http://www.w3.org/Graphics/SVG/1.1/DTD/svg11.dtd">
<!-- Created with matplotlib (http://matplotlib.org/) -->
<svg height="407pt" version="1.1" viewBox="0 0 460 407" width="460pt" xmlns="http://www.w3.org/2000/svg" xmlns:xlink="http://www.w3.org/1999/xlink">
 <defs>
  <style type="text/css">
*{stroke-linecap:butt;stroke-linejoin:round;}
  </style>
 </defs>
 <g id="figure_1">
  <g id="patch_1">
   <path d="
M0 407.712
L460.8 407.712
L460.8 0
L0 0
z
" style="fill:#ffffff;"/>
  </g>
  <g id="axes_1">
   <g id="patch_2">
    <path d="
M7.2 352.8
L453.6 352.8
L453.6 7.2
L7.2 7.2
z
" style="fill:#ffffff;"/>
   </g>
   <g id="line2d_1">
    <path clip-path="url(#p99b4b0da67)" d="
M-154.405 352.8
M-1 96.1663
L228.328 96.1663
L228.328 90.4634
L236.566 90.4634
L236.566 84.7604
L238.248 84.7604
L238.248 79.0574
L238.287 79.0574
L238.287 73.3545
L239.431 73.3545
L239.431 67.6515
L239.658 67.6515
L239.658 61.9485
L240.912 61.9485
L240.912 56.2455
L241.651 56.2455
L241.651 50.5426
L242.875 50.5426
L242.875 44.8396
L243.928 44.8396
L243.928 39.1366
L245.094 39.1366
L245.094 33.4337
L247.764 33.4337
L247.764 27.7307
L248.373 27.7307
L248.373 22.0277
L250.339 22.0277
L250.339 16.3248
L250.552 16.3248
L250.552 10.6218
L250.552 10.6218
L250.552 10.6218
L453.6 10.6218" style="fill:none;stroke:#ff0000;stroke-linecap:square;stroke-width:3.0;"/>
   </g>
   <g id="line2d_2">
    <path clip-path="url(#p99b4b0da67)" d="
M272.149 352.8
L272.149 347.097
L272.149 347.097
L272.149 341.394
L272.149 341.394
L272.149 335.691
L272.149 335.691
L272.149 329.988
L272.149 329.988
L272.149 324.285
L272.149 324.285
L272.149 318.582
L272.149 318.582
L272.149 312.879
L272.149 312.879
L272.149 307.176
L272.149 307.176
L272.149 301.473
L272.149 301.473
L272.149 295.77
L272.149 295.77
L272.149 290.067
L272.149 290.067
L272.149 284.364
L272.149 284.364
L272.149 278.661
L272.149 278.661
L272.149 272.958
L272.149 272.958
L272.149 267.255
L287.125 267.255
L287.125 261.552
L289.777 261.552
L289.777 255.85
L290.309 255.85
L290.309 250.147
L290.73 250.147
L290.73 244.444
L291.67 244.444
L291.67 238.741
L291.978 238.741
L291.978 233.038
L293.843 233.038
L293.843 227.335
L293.963 227.335
L293.963 221.632
L294.73 221.632
L294.73 215.929
L295.062 215.929
L295.062 210.226
L297.326 210.226
L297.326 204.523
L299.066 204.523
L299.066 198.82
L299.12 198.82
L299.12 193.117
L302.433 193.117
L302.433 187.414
L304.63 187.414
L304.63 181.711
L333.197 181.711
L333.197 176.008
L335.454 176.008
L335.454 170.305
L337.853 170.305
L337.853 164.602
L338.099 164.602
L338.099 158.899
L340.017 158.899
L340.017 153.196
L340.082 153.196
L340.082 147.493
L340.339 147.493
L340.339 141.79
L340.638 141.79
L340.638 136.087
L341.755 136.087
L341.755 130.384
L342.214 130.384
L342.214 124.681
L342.847 124.681
L342.847 118.978
L344.171 118.978
L344.171 113.275
L344.539 113.275
L344.539 107.572
L345.012 107.572
L345.012 101.869
L345.753 101.869
L345.753 96.1663
L351.623 96.1663
L351.623 90.4634
L360.92 90.4634
L360.92 84.7604
L360.991 84.7604
L360.991 79.0574
L361.862 79.0574
L361.862 73.3545
L362.197 73.3545
L362.197 67.6515
L362.577 67.6515
L362.577 61.9485
L362.835 61.9485
L362.835 56.2455
L363.032 56.2455
L363.032 50.5426
L366.292 50.5426
L366.292 44.8396
L366.374 44.8396
L366.374 39.1366
L368.444 39.1366
L368.444 33.4337
L368.711 33.4337
L368.711 27.7307
L368.738 27.7307
L368.738 22.0277
L370.533 22.0277
L370.533 16.3248
L374.813 16.3248
L374.813 10.6218
L374.813 10.6218
L374.813 10.6218
L453.6 10.6218" style="fill:none;stroke:#00bfbf;stroke-linecap:square;"/>
   </g>
   <g id="line2d_3">
    <path clip-path="url(#p99b4b0da67)" d="
M272.149 352.8
L272.149 347.097
L272.149 347.097
L272.149 341.394
L272.149 341.394
L272.149 335.691
L272.149 335.691
L272.149 329.988
L272.149 329.988
L272.149 324.285
L272.149 324.285
L272.149 318.582
L272.149 318.582
L272.149 312.879
L272.149 312.879
L272.149 307.176
L272.149 307.176
L272.149 301.473
L272.149 301.473
L272.149 295.77
L272.149 295.77
L272.149 290.067
L272.149 290.067
L272.149 284.364
L272.149 284.364
L272.149 278.661
L272.149 278.661
L272.149 272.958
L272.149 272.958
L272.149 267.255
L287.125 267.255
L287.125 261.552
L288.065 261.552
L288.065 255.85
L289.657 255.85
L289.657 250.147
L289.698 250.147
L289.698 244.444
L290.042 244.444
L290.042 238.741
L290.166 238.741
L290.166 233.038
L290.775 233.038
L290.775 227.335
L291.258 227.335
L291.258 221.632
L292.388 221.632
L292.388 215.929
L292.399 215.929
L292.399 210.226
L292.486 210.226
L292.486 204.523
L295.084 204.523
L295.084 198.82
L297.008 198.82
L297.008 193.117
L298.475 193.117
L298.475 187.414
L301.923 187.414
L301.923 181.711
L332.603 181.711
L332.603 176.008
L333.197 176.008
L333.197 170.305
L335.454 170.305
L335.454 164.602
L337.853 164.602
L337.853 158.899
L338.099 158.899
L338.099 153.196
L339.263 153.196
L339.263 147.493
L340.017 147.493
L340.017 141.79
L340.638 141.79
L340.638 136.087
L341.755 136.087
L341.755 130.384
L342.214 130.384
L342.214 124.681
L342.847 124.681
L342.847 118.978
L344.171 118.978
L344.171 113.275
L344.539 113.275
L344.539 107.572
L345.012 107.572
L345.012 101.869
L345.753 101.869
L345.753 96.1663
L346.094 96.1663
L346.094 90.4634
L347.76 90.4634
L347.76 84.7604
L349.903 84.7604
L349.903 79.0574
L357.68 79.0574
L357.68 73.3545
L357.84 73.3545
L357.84 67.6515
L358.005 67.6515
L358.005 61.9485
L358.127 61.9485
L358.127 56.2455
L359.696 56.2455
L359.696 50.5426
L362.835 50.5426
L362.835 44.8396
L363.744 44.8396
L363.744 39.1366
L364.97 39.1366
L364.97 33.4337
L366.197 33.4337
L366.197 27.7307
L367.288 27.7307
L367.288 22.0277
L368.535 22.0277
L368.535 16.3248
L372.33 16.3248
L372.33 10.6218
L372.33 10.6218
L372.33 10.6218
L453.6 10.6218" style="fill:none;stroke:#bf00bf;stroke-linecap:square;"/>
   </g>
   <g id="line2d_4">
    <path clip-path="url(#p99b4b0da67)" d="
M272.149 352.8
L272.149 347.097
L272.149 347.097
L272.149 341.394
L272.149 341.394
L272.149 335.691
L272.149 335.691
L272.149 329.988
L272.149 329.988
L272.149 324.285
L272.149 324.285
L272.149 318.582
L272.149 318.582
L272.149 312.879
L272.149 312.879
L272.149 307.176
L272.149 307.176
L272.149 301.473
L272.149 301.473
L272.149 295.77
L272.149 295.77
L272.149 290.067
L272.149 290.067
L272.149 284.364
L272.149 284.364
L272.149 278.661
L272.149 278.661
L272.149 272.958
L272.149 272.958
L272.149 267.255
L277.206 267.255
L277.206 261.552
L279.448 261.552
L279.448 255.85
L281.875 255.85
L281.875 250.147
L282.721 250.147
L282.721 244.444
L282.851 244.444
L282.851 238.741
L283.945 238.741
L283.945 233.038
L284.609 233.038
L284.609 227.335
L285.389 227.335
L285.389 221.632
L286.08 221.632
L286.08 215.929
L286.178 215.929
L286.178 210.226
L286.736 210.226
L286.736 204.523
L287.168 204.523
L287.168 198.82
L287.567 198.82
L287.567 193.117
L288.035 193.117
L288.035 187.414
L291.898 187.414
L291.898 181.711
L325.187 181.711
L325.187 176.008
L331.777 176.008
L331.777 170.305
L332.281 170.305
L332.281 164.602
L333.16 164.602
L333.16 158.899
L333.197 158.899
L333.197 153.196
L334.066 153.196
L334.066 147.493
L334.249 147.493
L334.249 141.79
L334.365 141.79
L334.365 136.087
L335.454 136.087
L335.454 130.384
L336.09 130.384
L336.09 124.681
L337.581 124.681
L337.581 118.978
L337.853 118.978
L337.853 113.275
L337.972 113.275
L337.972 107.572
L339.306 107.572
L339.306 101.869
L340.638 101.869
L340.638 96.1663
L341.15 96.1663
L341.15 90.4634
L343.513 90.4634
L343.513 84.7604
L343.678 84.7604
L343.678 79.0574
L347.007 79.0574
L347.007 73.3545
L347.744 73.3545
L347.744 67.6515
L350.084 67.6515
L350.084 61.9485
L350.834 61.9485
L350.834 56.2455
L351.223 56.2455
L351.223 50.5426
L351.925 50.5426
L351.925 44.8396
L354.843 44.8396
L354.843 39.1366
L357.078 39.1366
L357.078 33.4337
L359.693 33.4337
L359.693 27.7307
L360.928 27.7307
L360.928 22.0277
L360.969 22.0277
L360.969 16.3248
L367.76 16.3248
L367.76 10.6218
L367.76 10.6218
L367.76 10.6218
L453.6 10.6218" style="fill:none;stroke:#000000;stroke-linecap:square;"/>
   </g>
   <g id="line2d_5">
    <path clip-path="url(#p99b4b0da67)" d="
M266.383 352.8
L266.383 347.097
L267.816 347.097
L267.816 341.394
L268.288 341.394
L268.288 335.691
L269.044 335.691
L269.044 329.988
L269.334 329.988
L269.334 324.285
L270.784 324.285
L270.784 318.582
L272.149 318.582
L272.149 312.879
L272.149 312.879
L272.149 307.176
L272.149 307.176
L272.149 301.473
L272.149 301.473
L272.149 295.77
L272.149 295.77
L272.149 290.067
L272.149 290.067
L272.149 284.364
L272.149 284.364
L272.149 278.661
L272.149 278.661
L272.149 272.958
L272.149 272.958
L272.149 267.255
L272.149 267.255
L272.149 261.552
L272.149 261.552
L272.149 255.85
L272.149 255.85
L272.149 250.147
L272.149 250.147
L272.149 244.444
L272.149 244.444
L272.149 238.741
L272.149 238.741
L272.149 233.038
L274.004 233.038
L274.004 227.335
L274.528 227.335
L274.528 221.632
L274.553 221.632
L274.553 215.929
L275.647 215.929
L275.647 210.226
L275.99 210.226
L275.99 204.523
L276.406 204.523
L276.406 198.82
L278.256 198.82
L278.256 193.117
L278.517 193.117
L278.517 187.414
L279.196 187.414
L279.196 181.711
L279.887 181.711
L279.887 176.008
L280.153 176.008
L280.153 170.305
L281.433 170.305
L281.433 164.602
L285.16 164.602
L285.16 158.899
L286.955 158.899
L286.955 153.196
L289.054 153.196
L289.054 147.493
L291.315 147.493
L291.315 141.79
L291.345 141.79
L291.345 136.087
L295.759 136.087
L295.759 130.384
L304.047 130.384
L304.047 124.681
L304.384 124.681
L304.384 118.978
L306.673 118.978
L306.673 113.275
L306.873 113.275
L306.873 107.572
L309.158 107.572
L309.158 101.869
L310.622 101.869
L310.622 96.1663
L311.326 96.1663
L311.326 90.4634
L313.558 90.4634
L313.558 84.7604
L315.215 84.7604
L315.215 79.0574
L315.253 79.0574
L315.253 73.3545
L315.334 73.3545
L315.334 67.6515
L317.782 67.6515
L317.782 61.9485
L318.085 61.9485
L318.085 56.2455
L318.888 56.2455
L318.888 50.5426
L320.464 50.5426
L320.464 44.8396
L321.408 44.8396
L321.408 39.1366
L323.61 39.1366
L323.61 33.4337
L326.783 33.4337
L326.783 27.7307
L328.167 27.7307
L328.167 22.0277
L329.119 22.0277
L329.119 16.3248
L329.53 16.3248
L329.53 10.6218
L329.53 10.6218
L329.53 10.6218
L453.6 10.6218" style="fill:none;stroke:#00bfbf;stroke-linecap:square;"/>
   </g>
   <g id="line2d_6">
    <path clip-path="url(#p99b4b0da67)" d="
M224.213 352.8
L224.213 347.097
L228.42 347.097
L228.42 341.394
L228.491 341.394
L228.491 335.691
L228.911 335.691
L228.911 329.988
L230.618 329.988
L230.618 324.285
L230.621 324.285
L230.621 318.582
L234.552 318.582
L234.552 312.879
L236.061 312.879
L236.061 307.176
L237.577 307.176
L237.577 301.473
L237.967 301.473
L237.967 295.77
L238.438 295.77
L238.438 290.067
L238.812 290.067
L238.812 284.364
L239.061 284.364
L239.061 278.661
L239.371 278.661
L239.371 272.958
L239.431 272.958
L239.431 267.255
L239.658 267.255
L239.658 261.552
L240.184 261.552
L240.184 255.85
L240.373 255.85
L240.373 250.147
L240.912 250.147
L240.912 244.444
L241.651 244.444
L241.651 238.741
L242.902 238.741
L242.902 233.038
L242.988 233.038
L242.988 227.335
L243.928 227.335
L243.928 221.632
L245.135 221.632
L245.135 215.929
L245.647 215.929
L245.647 210.226
L246.045 210.226
L246.045 204.523
L247.384 204.523
L247.384 198.82
L247.967 198.82
L247.967 193.117
L248.506 193.117
L248.506 187.414
L248.631 187.414
L248.631 181.711
L248.767 181.711
L248.767 176.008
L248.776 176.008
L248.776 170.305
L248.78 170.305
L248.78 164.602
L249.162 164.602
L249.162 158.899
L249.388 158.899
L249.388 153.196
L249.764 153.196
L249.764 147.493
L249.766 147.493
L249.766 141.79
L249.895 141.79
L249.895 136.087
L249.957 136.087
L249.957 130.384
L250.02 130.384
L250.02 124.681
L250.248 124.681
L250.248 118.978
L250.37 118.978
L250.37 113.275
L250.404 113.275
L250.404 107.572
L250.537 107.572
L250.537 101.869
L250.637 101.869
L250.637 96.1663
L250.65 96.1663
L250.65 90.4634
L250.719 90.4634
L250.719 84.7604
L250.778 84.7604
L250.778 79.0574
L250.82 79.0574
L250.82 73.3545
L250.831 73.3545
L250.831 67.6515
L250.988 67.6515
L250.988 61.9485
L251.737 61.9485
L251.737 56.2455
L252.395 56.2455
L252.395 50.5426
L254.066 50.5426
L254.066 44.8396
L266.01 44.8396
L266.01 39.1366
L266.176 39.1366
L266.176 33.4337
L266.737 33.4337
L266.737 27.7307
L266.786 27.7307
L266.786 22.0277
L269.015 22.0277
L269.015 16.3248
L271.656 16.3248
L271.656 10.6218
L271.656 10.6218
L271.656 10.6218
L453.6 10.6218" style="fill:none;stroke:#bf00bf;stroke-linecap:square;"/>
   </g>
   <g id="line2d_7">
    <path clip-path="url(#p99b4b0da67)" d="
M-138.591 352.8
M-1 267.255
L1.19242 267.255
L1.19242 261.552
L11.9255 261.552
L11.9255 255.85
L83.9995 255.85
L83.9995 250.147
L125.193 250.147
L125.193 244.444
L182.974 244.444
L182.974 238.741
L199.013 238.741
L199.013 233.038
L207.112 233.038
L207.112 227.335
L228.328 227.335
L228.328 221.632
L230.019 221.632
L230.019 215.929
L230.301 215.929
L230.301 210.226
L232.878 210.226
L232.878 204.523
L236.255 204.523
L236.255 198.82
L236.566 198.82
L236.566 193.117
L237.046 193.117
L237.046 187.414
L237.859 187.414
L237.859 181.711
L237.876 181.711
L237.876 176.008
L237.885 176.008
L237.885 170.305
L238.598 170.305
L238.598 164.602
L239.431 164.602
L239.431 158.899
L239.516 158.899
L239.516 153.196
L239.596 153.196
L239.596 147.493
L239.658 147.493
L239.658 141.79
L240.483 141.79
L240.483 136.087
L240.912 136.087
L240.912 130.384
L240.914 130.384
L240.914 124.681
L241.093 124.681
L241.093 118.978
L241.651 118.978
L241.651 113.275
L242.87 113.275
L242.87 107.572
L242.923 107.572
L242.923 101.869
L243.058 101.869
L243.058 96.1663
L243.109 96.1663
L243.109 90.4634
L243.208 90.4634
L243.208 84.7604
L243.573 84.7604
L243.573 79.0574
L243.882 79.0574
L243.882 73.3545
L243.928 73.3545
L243.928 67.6515
L244.28 67.6515
L244.28 61.9485
L244.621 61.9485
L244.621 56.2455
L245.102 56.2455
L245.102 50.5426
L245.48 50.5426
L245.48 44.8396
L245.574 44.8396
L245.574 39.1366
L248.78 39.1366
L248.78 33.4337
L249.765 33.4337
L249.765 27.7307
L250.339 27.7307
L250.339 22.0277
L251.737 22.0277
L251.737 16.3248
L254.009 16.3248
L254.009 10.6218
L254.009 10.6218
L254.009 10.6218
L453.6 10.6218" style="fill:none;stroke:#000000;stroke-linecap:square;"/>
   </g>
   <g id="line2d_8">
    <path clip-path="url(#p99b4b0da67)" d="
M-154.405 352.8
M-1 176.008
L134.144 176.008
L134.144 170.305
L134.617 170.305
L134.617 164.602
L147.325 164.602
L147.325 158.899
L151.538 158.899
L151.538 153.196
L151.986 153.196
L151.986 147.493
L153.91 147.493
L153.91 141.79
L154.083 141.79
L154.083 136.087
L154.259 136.087
L154.259 130.384
L155.893 130.384
L155.893 124.681
L157.449 124.681
L157.449 118.978
L157.735 118.978
L157.735 113.275
L164.146 113.275
L164.146 107.572
L228.328 107.572
L228.328 101.869
L232.986 101.869
L232.986 96.1663
L232.989 96.1663
L232.989 90.4634
L236.566 90.4634
L236.566 84.7604
L239.431 84.7604
L239.431 79.0574
L239.658 79.0574
L239.658 73.3545
L240.483 73.3545
L240.483 67.6515
L240.912 67.6515
L240.912 61.9485
L241.651 61.9485
L241.651 56.2455
L242.875 56.2455
L242.875 50.5426
L243.928 50.5426
L243.928 44.8396
L245.094 44.8396
L245.094 39.1366
L248.78 39.1366
L248.78 33.4337
L249.765 33.4337
L249.765 27.7307
L250.339 27.7307
L250.339 22.0277
L251.737 22.0277
L251.737 16.3248
L254.009 16.3248
L254.009 10.6218
L254.009 10.6218
L254.009 10.6218
L453.6 10.6218" style="fill:none;stroke:#00bfbf;stroke-linecap:square;"/>
   </g>
   <g id="line2d_9">
    <path clip-path="url(#p99b4b0da67)" d="
M-154.405 352.8
M-1 101.869
L228.328 101.869
L228.328 96.1663
L232.986 96.1663
L232.986 90.4634
L236.566 90.4634
L236.566 84.7604
L238.248 84.7604
L238.248 79.0574
L238.287 79.0574
L238.287 73.3545
L239.431 73.3545
L239.431 67.6515
L239.658 67.6515
L239.658 61.9485
L240.912 61.9485
L240.912 56.2455
L241.651 56.2455
L241.651 50.5426
L242.875 50.5426
L242.875 44.8396
L243.928 44.8396
L243.928 39.1366
L245.094 39.1366
L245.094 33.4337
L247.764 33.4337
L247.764 27.7307
L248.373 27.7307
L248.373 22.0277
L250.339 22.0277
L250.339 16.3248
L250.552 16.3248
L250.552 10.6218
L250.552 10.6218
L250.552 10.6218
L453.6 10.6218" style="fill:none;stroke:#bf00bf;stroke-linecap:square;"/>
   </g>
   <g id="matplotlib.axis_1">
    <g id="xtick_1"/>
    <g id="xtick_2">
     <g id="line2d_10">
      <path clip-path="url(#p99b4b0da67)" d="
M59.6175 352.8
L59.6175 7.2" style="fill:none;stroke:#000000;stroke-dasharray:1.000000,3.000000;stroke-dashoffset:0.0;stroke-width:0.5;"/>
     </g>
     <g id="line2d_11">
      <defs>
       <path d="
M0 0
L0 -4" id="m93b0483c22" style="stroke:#000000;stroke-width:0.5;"/>
      </defs>
      <g>
       <use style="stroke:#000000;stroke-width:0.5;" x="59.6174973142" xlink:href="#m93b0483c22" y="352.8"/>
      </g>
     </g>
     <g id="line2d_12">
      <defs>
       <path d="
M0 0
L0 4" id="m741efc42ff" style="stroke:#000000;stroke-width:0.5;"/>
      </defs>
      <g>
       <use style="stroke:#000000;stroke-width:0.5;" x="59.6174973142" xlink:href="#m741efc42ff" y="7.2"/>
      </g>
     </g>
     <g id="text_1">
      <!-- -6 -->
      <defs>
       <path d="
M33.0156 40.375
Q26.375 40.375 22.4844 35.8281
Q18.6094 31.2969 18.6094 23.3906
Q18.6094 15.5312 22.4844 10.9531
Q26.375 6.39062 33.0156 6.39062
Q39.6562 6.39062 43.5312 10.9531
Q47.4062 15.5312 47.4062 23.3906
Q47.4062 31.2969 43.5312 35.8281
Q39.6562 40.375 33.0156 40.375
M52.5938 71.2969
L52.5938 62.3125
Q48.875 64.0625 45.0938 64.9844
Q41.3125 65.9219 37.5938 65.9219
Q27.8281 65.9219 22.6719 59.3281
Q17.5312 52.7344 16.7969 39.4062
Q19.6719 43.6562 24.0156 45.9219
Q28.375 48.1875 33.5938 48.1875
Q44.5781 48.1875 50.9531 41.5156
Q57.3281 34.8594 57.3281 23.3906
Q57.3281 12.1562 50.6875 5.35938
Q44.0469 -1.42188 33.0156 -1.42188
Q20.3594 -1.42188 13.6719 8.26562
Q6.98438 17.9688 6.98438 36.375
Q6.98438 53.6562 15.1875 63.9375
Q23.3906 74.2188 37.2031 74.2188
Q40.9219 74.2188 44.7031 73.4844
Q48.4844 72.75 52.5938 71.2969" id="BitstreamVeraSans-Roman-36"/>
       <path d="
M4.89062 31.3906
L31.2031 31.3906
L31.2031 23.3906
L4.89062 23.3906
z
" id="BitstreamVeraSans-Roman-2d"/>
      </defs>
      <g transform="translate(50.7659348142 371.996875)scale(0.2 -0.2)">
       <use xlink:href="#BitstreamVeraSans-Roman-2d"/>
       <use x="36.083984375" xlink:href="#BitstreamVeraSans-Roman-36"/>
      </g>
     </g>
    </g>
    <g id="xtick_3">
     <g id="line2d_13">
      <path clip-path="url(#p99b4b0da67)" d="
M112.148 352.8
L112.148 7.2" style="fill:none;stroke:#000000;stroke-dasharray:1.000000,3.000000;stroke-dashoffset:0.0;stroke-width:0.5;"/>
     </g>
     <g id="line2d_14">
      <g>
       <use style="stroke:#000000;stroke-width:0.5;" x="112.148497672" xlink:href="#m93b0483c22" y="352.8"/>
      </g>
     </g>
     <g id="line2d_15">
      <g>
       <use style="stroke:#000000;stroke-width:0.5;" x="112.148497672" xlink:href="#m741efc42ff" y="7.2"/>
      </g>
     </g>
     <g id="text_2">
      <!-- -4 -->
      <defs>
       <path d="
M37.7969 64.3125
L12.8906 25.3906
L37.7969 25.3906
z

M35.2031 72.9062
L47.6094 72.9062
L47.6094 25.3906
L58.0156 25.3906
L58.0156 17.1875
L47.6094 17.1875
L47.6094 0
L37.7969 0
L37.7969 17.1875
L4.89062 17.1875
L4.89062 26.7031
z
" id="BitstreamVeraSans-Roman-34"/>
      </defs>
      <g transform="translate(103.228185172 371.996875)scale(0.2 -0.2)">
       <use xlink:href="#BitstreamVeraSans-Roman-2d"/>
       <use x="36.083984375" xlink:href="#BitstreamVeraSans-Roman-34"/>
      </g>
     </g>
    </g>
    <g id="xtick_4">
     <g id="line2d_16">
      <path clip-path="url(#p99b4b0da67)" d="
M164.679 352.8
L164.679 7.2" style="fill:none;stroke:#000000;stroke-dasharray:1.000000,3.000000;stroke-dashoffset:0.0;stroke-width:0.5;"/>
     </g>
     <g id="line2d_17">
      <g>
       <use style="stroke:#000000;stroke-width:0.5;" x="164.67949803" xlink:href="#m93b0483c22" y="352.8"/>
      </g>
     </g>
     <g id="line2d_18">
      <g>
       <use style="stroke:#000000;stroke-width:0.5;" x="164.67949803" xlink:href="#m741efc42ff" y="7.2"/>
      </g>
     </g>
     <g id="text_3">
      <!-- -2 -->
      <defs>
       <path d="
M19.1875 8.29688
L53.6094 8.29688
L53.6094 0
L7.32812 0
L7.32812 8.29688
Q12.9375 14.1094 22.625 23.8906
Q32.3281 33.6875 34.8125 36.5312
Q39.5469 41.8438 41.4219 45.5312
Q43.3125 49.2188 43.3125 52.7812
Q43.3125 58.5938 39.2344 62.25
Q35.1562 65.9219 28.6094 65.9219
Q23.9688 65.9219 18.8125 64.3125
Q13.6719 62.7031 7.8125 59.4219
L7.8125 69.3906
Q13.7656 71.7812 18.9375 73
Q24.125 74.2188 28.4219 74.2188
Q39.75 74.2188 46.4844 68.5469
Q53.2188 62.8906 53.2188 53.4219
Q53.2188 48.9219 51.5312 44.8906
Q49.8594 40.875 45.4062 35.4062
Q44.1875 33.9844 37.6406 27.2188
Q31.1094 20.4531 19.1875 8.29688" id="BitstreamVeraSans-Roman-32"/>
      </defs>
      <g transform="translate(156.19981053 371.996875)scale(0.2 -0.2)">
       <use xlink:href="#BitstreamVeraSans-Roman-2d"/>
       <use x="36.083984375" xlink:href="#BitstreamVeraSans-Roman-32"/>
      </g>
     </g>
    </g>
    <g id="xtick_5">
     <g id="line2d_19">
      <path clip-path="url(#p99b4b0da67)" d="
M217.21 352.8
L217.21 7.2" style="fill:none;stroke:#000000;stroke-dasharray:1.000000,3.000000;stroke-dashoffset:0.0;stroke-width:0.5;"/>
     </g>
     <g id="line2d_20">
      <g>
       <use style="stroke:#000000;stroke-width:0.5;" x="217.210498389" xlink:href="#m93b0483c22" y="352.8"/>
      </g>
     </g>
     <g id="line2d_21">
      <g>
       <use style="stroke:#000000;stroke-width:0.5;" x="217.210498389" xlink:href="#m741efc42ff" y="7.2"/>
      </g>
     </g>
     <g id="text_4">
      <!-- 0 -->
      <defs>
       <path d="
M31.7812 66.4062
Q24.1719 66.4062 20.3281 58.9062
Q16.5 51.4219 16.5 36.375
Q16.5 21.3906 20.3281 13.8906
Q24.1719 6.39062 31.7812 6.39062
Q39.4531 6.39062 43.2812 13.8906
Q47.125 21.3906 47.125 36.375
Q47.125 51.4219 43.2812 58.9062
Q39.4531 66.4062 31.7812 66.4062
M31.7812 74.2188
Q44.0469 74.2188 50.5156 64.5156
Q56.9844 54.8281 56.9844 36.375
Q56.9844 17.9688 50.5156 8.26562
Q44.0469 -1.42188 31.7812 -1.42188
Q19.5312 -1.42188 13.0625 8.26562
Q6.59375 17.9688 6.59375 36.375
Q6.59375 54.8281 13.0625 64.5156
Q19.5312 74.2188 31.7812 74.2188" id="BitstreamVeraSans-Roman-30"/>
      </defs>
      <g transform="translate(212.171435889 371.996875)scale(0.2 -0.2)">
       <use xlink:href="#BitstreamVeraSans-Roman-30"/>
      </g>
     </g>
    </g>
    <g id="xtick_6">
     <g id="line2d_22">
      <path clip-path="url(#p99b4b0da67)" d="
M269.741 352.8
L269.741 7.2" style="fill:none;stroke:#000000;stroke-dasharray:1.000000,3.000000;stroke-dashoffset:0.0;stroke-width:0.5;"/>
     </g>
     <g id="line2d_23">
      <g>
       <use style="stroke:#000000;stroke-width:0.5;" x="269.741498747" xlink:href="#m93b0483c22" y="352.8"/>
      </g>
     </g>
     <g id="line2d_24">
      <g>
       <use style="stroke:#000000;stroke-width:0.5;" x="269.741498747" xlink:href="#m741efc42ff" y="7.2"/>
      </g>
     </g>
     <g id="text_5">
      <!-- 2 -->
      <g transform="translate(265.113373747 371.996875)scale(0.2 -0.2)">
       <use xlink:href="#BitstreamVeraSans-Roman-32"/>
      </g>
     </g>
    </g>
    <g id="xtick_7">
     <g id="line2d_25">
      <path clip-path="url(#p99b4b0da67)" d="
M322.272 352.8
L322.272 7.2" style="fill:none;stroke:#000000;stroke-dasharray:1.000000,3.000000;stroke-dashoffset:0.0;stroke-width:0.5;"/>
     </g>
     <g id="line2d_26">
      <g>
       <use style="stroke:#000000;stroke-width:0.5;" x="322.272499105" xlink:href="#m93b0483c22" y="352.8"/>
      </g>
     </g>
     <g id="line2d_27">
      <g>
       <use style="stroke:#000000;stroke-width:0.5;" x="322.272499105" xlink:href="#m741efc42ff" y="7.2"/>
      </g>
     </g>
     <g id="text_6">
      <!-- 4 -->
      <g transform="translate(316.959999105 371.996875)scale(0.2 -0.2)">
       <use xlink:href="#BitstreamVeraSans-Roman-34"/>
      </g>
     </g>
    </g>
    <g id="xtick_8">
     <g id="line2d_28">
      <path clip-path="url(#p99b4b0da67)" d="
M374.803 352.8
L374.803 7.2" style="fill:none;stroke:#000000;stroke-dasharray:1.000000,3.000000;stroke-dashoffset:0.0;stroke-width:0.5;"/>
     </g>
     <g id="line2d_29">
      <g>
       <use style="stroke:#000000;stroke-width:0.5;" x="374.803499463" xlink:href="#m93b0483c22" y="352.8"/>
      </g>
     </g>
     <g id="line2d_30">
      <g>
       <use style="stroke:#000000;stroke-width:0.5;" x="374.803499463" xlink:href="#m741efc42ff" y="7.2"/>
      </g>
     </g>
     <g id="text_7">
      <!-- 6 -->
      <g transform="translate(369.769124463 371.996875)scale(0.2 -0.2)">
       <use xlink:href="#BitstreamVeraSans-Roman-36"/>
      </g>
     </g>
    </g>
    <g id="xtick_9">
     <g id="line2d_31">
      <path clip-path="url(#p99b4b0da67)" d="
M427.334 352.8
L427.334 7.2" style="fill:none;stroke:#000000;stroke-dasharray:1.000000,3.000000;stroke-dashoffset:0.0;stroke-width:0.5;"/>
     </g>
     <g id="line2d_32">
      <g>
       <use style="stroke:#000000;stroke-width:0.5;" x="427.334499821" xlink:href="#m93b0483c22" y="352.8"/>
      </g>
     </g>
     <g id="line2d_33">
      <g>
       <use style="stroke:#000000;stroke-width:0.5;" x="427.334499821" xlink:href="#m741efc42ff" y="7.2"/>
      </g>
     </g>
     <g id="text_8">
      <!-- 8 -->
      <defs>
       <path d="
M31.7812 34.625
Q24.75 34.625 20.7188 30.8594
Q16.7031 27.0938 16.7031 20.5156
Q16.7031 13.9219 20.7188 10.1562
Q24.75 6.39062 31.7812 6.39062
Q38.8125 6.39062 42.8594 10.1719
Q46.9219 13.9688 46.9219 20.5156
Q46.9219 27.0938 42.8906 30.8594
Q38.875 34.625 31.7812 34.625
M21.9219 38.8125
Q15.5781 40.375 12.0312 44.7188
Q8.5 49.0781 8.5 55.3281
Q8.5 64.0625 14.7188 69.1406
Q20.9531 74.2188 31.7812 74.2188
Q42.6719 74.2188 48.875 69.1406
Q55.0781 64.0625 55.0781 55.3281
Q55.0781 49.0781 51.5312 44.7188
Q48 40.375 41.7031 38.8125
Q48.8281 37.1562 52.7969 32.3125
Q56.7812 27.4844 56.7812 20.5156
Q56.7812 9.90625 50.3125 4.23438
Q43.8438 -1.42188 31.7812 -1.42188
Q19.7344 -1.42188 13.25 4.23438
Q6.78125 9.90625 6.78125 20.5156
Q6.78125 27.4844 10.7812 32.3125
Q14.7969 37.1562 21.9219 38.8125
M18.3125 54.3906
Q18.3125 48.7344 21.8438 45.5625
Q25.3906 42.3906 31.7812 42.3906
Q38.1406 42.3906 41.7188 45.5625
Q45.3125 48.7344 45.3125 54.3906
Q45.3125 60.0625 41.7188 63.2344
Q38.1406 66.4062 31.7812 66.4062
Q25.3906 66.4062 21.8438 63.2344
Q18.3125 60.0625 18.3125 54.3906" id="BitstreamVeraSans-Roman-38"/>
      </defs>
      <g transform="translate(422.334499821 371.996875)scale(0.2 -0.2)">
       <use xlink:href="#BitstreamVeraSans-Roman-38"/>
      </g>
     </g>
    </g>
    <g id="xtick_10"/>
    <g id="xtick_11">
     <g id="line2d_34">
      <defs>
       <path d="
M0 0
L0 -2" id="m177f7580d0" style="stroke:#000000;stroke-width:0.5;"/>
      </defs>
      <g>
       <use style="stroke:#000000;stroke-width:0.5;" x="59.6174973142" xlink:href="#m177f7580d0" y="352.8"/>
      </g>
     </g>
     <g id="line2d_35">
      <defs>
       <path d="
M0 0
L0 2" id="m5284c7e2a0" style="stroke:#000000;stroke-width:0.5;"/>
      </defs>
      <g>
       <use style="stroke:#000000;stroke-width:0.5;" x="59.6174973142" xlink:href="#m5284c7e2a0" y="7.2"/>
      </g>
     </g>
    </g>
    <g id="xtick_12">
     <g id="line2d_36">
      <g>
       <use style="stroke:#000000;stroke-width:0.5;" x="112.148497672" xlink:href="#m177f7580d0" y="352.8"/>
      </g>
     </g>
     <g id="line2d_37">
      <g>
       <use style="stroke:#000000;stroke-width:0.5;" x="112.148497672" xlink:href="#m5284c7e2a0" y="7.2"/>
      </g>
     </g>
    </g>
    <g id="xtick_13">
     <g id="line2d_38">
      <g>
       <use style="stroke:#000000;stroke-width:0.5;" x="164.67949803" xlink:href="#m177f7580d0" y="352.8"/>
      </g>
     </g>
     <g id="line2d_39">
      <g>
       <use style="stroke:#000000;stroke-width:0.5;" x="164.67949803" xlink:href="#m5284c7e2a0" y="7.2"/>
      </g>
     </g>
    </g>
    <g id="xtick_14">
     <g id="line2d_40">
      <g>
       <use style="stroke:#000000;stroke-width:0.5;" x="217.210498389" xlink:href="#m177f7580d0" y="352.8"/>
      </g>
     </g>
     <g id="line2d_41">
      <g>
       <use style="stroke:#000000;stroke-width:0.5;" x="217.210498389" xlink:href="#m5284c7e2a0" y="7.2"/>
      </g>
     </g>
    </g>
    <g id="xtick_15">
     <g id="line2d_42">
      <g>
       <use style="stroke:#000000;stroke-width:0.5;" x="269.741498747" xlink:href="#m177f7580d0" y="352.8"/>
      </g>
     </g>
     <g id="line2d_43">
      <g>
       <use style="stroke:#000000;stroke-width:0.5;" x="269.741498747" xlink:href="#m5284c7e2a0" y="7.2"/>
      </g>
     </g>
    </g>
    <g id="xtick_16">
     <g id="line2d_44">
      <g>
       <use style="stroke:#000000;stroke-width:0.5;" x="322.272499105" xlink:href="#m177f7580d0" y="352.8"/>
      </g>
     </g>
     <g id="line2d_45">
      <g>
       <use style="stroke:#000000;stroke-width:0.5;" x="322.272499105" xlink:href="#m5284c7e2a0" y="7.2"/>
      </g>
     </g>
    </g>
    <g id="xtick_17">
     <g id="line2d_46">
      <g>
       <use style="stroke:#000000;stroke-width:0.5;" x="374.803499463" xlink:href="#m177f7580d0" y="352.8"/>
      </g>
     </g>
     <g id="line2d_47">
      <g>
       <use style="stroke:#000000;stroke-width:0.5;" x="374.803499463" xlink:href="#m5284c7e2a0" y="7.2"/>
      </g>
     </g>
    </g>
    <g id="xtick_18">
     <g id="line2d_48">
      <g>
       <use style="stroke:#000000;stroke-width:0.5;" x="427.334499821" xlink:href="#m177f7580d0" y="352.8"/>
      </g>
     </g>
     <g id="line2d_49">
      <g>
       <use style="stroke:#000000;stroke-width:0.5;" x="427.334499821" xlink:href="#m5284c7e2a0" y="7.2"/>
      </g>
     </g>
    </g>
    <g id="text_9">
     <!-- log10 of Df -->
     <defs>
      <path id="BitstreamVeraSans-Roman-20"/>
      <path d="
M12.4062 8.29688
L28.5156 8.29688
L28.5156 63.9219
L10.9844 60.4062
L10.9844 69.3906
L28.4219 72.9062
L38.2812 72.9062
L38.2812 8.29688
L54.3906 8.29688
L54.3906 0
L12.4062 0
z
" id="BitstreamVeraSans-Roman-31"/>
      <path d="
M30.6094 48.3906
Q23.3906 48.3906 19.1875 42.75
Q14.9844 37.1094 14.9844 27.2969
Q14.9844 17.4844 19.1562 11.8438
Q23.3438 6.20312 30.6094 6.20312
Q37.7969 6.20312 41.9844 11.8594
Q46.1875 17.5312 46.1875 27.2969
Q46.1875 37.0156 41.9844 42.7031
Q37.7969 48.3906 30.6094 48.3906
M30.6094 56
Q42.3281 56 49.0156 48.375
Q55.7188 40.7656 55.7188 27.2969
Q55.7188 13.875 49.0156 6.21875
Q42.3281 -1.42188 30.6094 -1.42188
Q18.8438 -1.42188 12.1719 6.21875
Q5.51562 13.875 5.51562 27.2969
Q5.51562 40.7656 12.1719 48.375
Q18.8438 56 30.6094 56" id="BitstreamVeraSans-Roman-6f"/>
      <path d="
M9.42188 75.9844
L18.4062 75.9844
L18.4062 0
L9.42188 0
z
" id="BitstreamVeraSans-Roman-6c"/>
      <path d="
M19.6719 64.7969
L19.6719 8.10938
L31.5938 8.10938
Q46.6875 8.10938 53.6875 14.9375
Q60.6875 21.7812 60.6875 36.5312
Q60.6875 51.1719 53.6875 57.9844
Q46.6875 64.7969 31.5938 64.7969
z

M9.8125 72.9062
L30.0781 72.9062
Q51.2656 72.9062 61.1719 64.0938
Q71.0938 55.2812 71.0938 36.5312
Q71.0938 17.6719 61.125 8.82812
Q51.1719 0 30.0781 0
L9.8125 0
z
" id="BitstreamVeraSans-Roman-44"/>
      <path d="
M45.4062 27.9844
Q45.4062 37.75 41.375 43.1094
Q37.3594 48.4844 30.0781 48.4844
Q22.8594 48.4844 18.8281 43.1094
Q14.7969 37.75 14.7969 27.9844
Q14.7969 18.2656 18.8281 12.8906
Q22.8594 7.51562 30.0781 7.51562
Q37.3594 7.51562 41.375 12.8906
Q45.4062 18.2656 45.4062 27.9844
M54.3906 6.78125
Q54.3906 -7.17188 48.1875 -13.9844
Q42 -20.7969 29.2031 -20.7969
Q24.4688 -20.7969 20.2656 -20.0938
Q16.0625 -19.3906 12.1094 -17.9219
L12.1094 -9.1875
Q16.0625 -11.3281 19.9219 -12.3438
Q23.7812 -13.375 27.7812 -13.375
Q36.625 -13.375 41.0156 -8.76562
Q45.4062 -4.15625 45.4062 5.17188
L45.4062 9.625
Q42.625 4.78125 38.2812 2.39062
Q33.9375 0 27.875 0
Q17.8281 0 11.6719 7.65625
Q5.51562 15.3281 5.51562 27.9844
Q5.51562 40.6719 11.6719 48.3281
Q17.8281 56 27.875 56
Q33.9375 56 38.2812 53.6094
Q42.625 51.2188 45.4062 46.3906
L45.4062 54.6875
L54.3906 54.6875
z
" id="BitstreamVeraSans-Roman-67"/>
      <path d="
M37.1094 75.9844
L37.1094 68.5
L28.5156 68.5
Q23.6875 68.5 21.7969 66.5469
Q19.9219 64.5938 19.9219 59.5156
L19.9219 54.6875
L34.7188 54.6875
L34.7188 47.7031
L19.9219 47.7031
L19.9219 0
L10.8906 0
L10.8906 47.7031
L2.29688 47.7031
L2.29688 54.6875
L10.8906 54.6875
L10.8906 58.5
Q10.8906 67.625 15.1406 71.7969
Q19.3906 75.9844 28.6094 75.9844
z
" id="BitstreamVeraSans-Roman-66"/>
     </defs>
     <g transform="translate(175.0234375 396.353125)scale(0.2 -0.2)">
      <use xlink:href="#BitstreamVeraSans-Roman-6c"/>
      <use x="27.783203125" xlink:href="#BitstreamVeraSans-Roman-6f"/>
      <use x="88.96484375" xlink:href="#BitstreamVeraSans-Roman-67"/>
      <use x="152.44140625" xlink:href="#BitstreamVeraSans-Roman-31"/>
      <use x="216.064453125" xlink:href="#BitstreamVeraSans-Roman-30"/>
      <use x="279.6875" xlink:href="#BitstreamVeraSans-Roman-20"/>
      <use x="311.474609375" xlink:href="#BitstreamVeraSans-Roman-6f"/>
      <use x="372.65625" xlink:href="#BitstreamVeraSans-Roman-66"/>
      <use x="407.861328125" xlink:href="#BitstreamVeraSans-Roman-20"/>
      <use x="439.6484375" xlink:href="#BitstreamVeraSans-Roman-44"/>
      <use x="516.650390625" xlink:href="#BitstreamVeraSans-Roman-66"/>
     </g>
    </g>
   </g>
   <g id="matplotlib.axis_2">
    <g id="ytick_1">
     <g id="line2d_50">
      <path clip-path="url(#p99b4b0da67)" d="
M7.2 352.8
L453.6 352.8" style="fill:none;stroke:#000000;stroke-dasharray:1.000000,3.000000;stroke-dashoffset:0.0;stroke-width:0.5;"/>
     </g>
     <g id="line2d_51">
      <defs>
       <path d="
M0 0
L4 0" id="m728421d6d4" style="stroke:#000000;stroke-width:0.5;"/>
      </defs>
      <g>
       <use style="stroke:#000000;stroke-width:0.5;" x="7.2" xlink:href="#m728421d6d4" y="352.8"/>
      </g>
     </g>
     <g id="line2d_52">
      <defs>
       <path d="
M0 0
L-4 0" id="mcb0005524f" style="stroke:#000000;stroke-width:0.5;"/>
      </defs>
      <g>
       <use style="stroke:#000000;stroke-width:0.5;" x="453.6" xlink:href="#mcb0005524f" y="352.8"/>
      </g>
     </g>
    </g>
    <g id="ytick_2">
     <g id="line2d_53">
      <path clip-path="url(#p99b4b0da67)" d="
M7.2 284.364
L453.6 284.364" style="fill:none;stroke:#000000;stroke-dasharray:1.000000,3.000000;stroke-dashoffset:0.0;stroke-width:0.5;"/>
     </g>
     <g id="line2d_54">
      <g>
       <use style="stroke:#000000;stroke-width:0.5;" x="7.2" xlink:href="#m728421d6d4" y="284.364356436"/>
      </g>
     </g>
     <g id="line2d_55">
      <g>
       <use style="stroke:#000000;stroke-width:0.5;" x="453.6" xlink:href="#mcb0005524f" y="284.364356436"/>
      </g>
     </g>
    </g>
    <g id="ytick_3">
     <g id="line2d_56">
      <path clip-path="url(#p99b4b0da67)" d="
M7.2 215.929
L453.6 215.929" style="fill:none;stroke:#000000;stroke-dasharray:1.000000,3.000000;stroke-dashoffset:0.0;stroke-width:0.5;"/>
     </g>
     <g id="line2d_57">
      <g>
       <use style="stroke:#000000;stroke-width:0.5;" x="7.2" xlink:href="#m728421d6d4" y="215.928712871"/>
      </g>
     </g>
     <g id="line2d_58">
      <g>
       <use style="stroke:#000000;stroke-width:0.5;" x="453.6" xlink:href="#mcb0005524f" y="215.928712871"/>
      </g>
     </g>
    </g>
    <g id="ytick_4">
     <g id="line2d_59">
      <path clip-path="url(#p99b4b0da67)" d="
M7.2 147.493
L453.6 147.493" style="fill:none;stroke:#000000;stroke-dasharray:1.000000,3.000000;stroke-dashoffset:0.0;stroke-width:0.5;"/>
     </g>
     <g id="line2d_60">
      <g>
       <use style="stroke:#000000;stroke-width:0.5;" x="7.2" xlink:href="#m728421d6d4" y="147.493069307"/>
      </g>
     </g>
     <g id="line2d_61">
      <g>
       <use style="stroke:#000000;stroke-width:0.5;" x="453.6" xlink:href="#mcb0005524f" y="147.493069307"/>
      </g>
     </g>
    </g>
    <g id="ytick_5">
     <g id="line2d_62">
      <path clip-path="url(#p99b4b0da67)" d="
M7.2 79.0574
L453.6 79.0574" style="fill:none;stroke:#000000;stroke-dasharray:1.000000,3.000000;stroke-dashoffset:0.0;stroke-width:0.5;"/>
     </g>
     <g id="line2d_63">
      <g>
       <use style="stroke:#000000;stroke-width:0.5;" x="7.2" xlink:href="#m728421d6d4" y="79.0574257426"/>
      </g>
     </g>
     <g id="line2d_64">
      <g>
       <use style="stroke:#000000;stroke-width:0.5;" x="453.6" xlink:href="#mcb0005524f" y="79.0574257426"/>
      </g>
     </g>
    </g>
    <g id="ytick_6">
     <g id="line2d_65">
      <path clip-path="url(#p99b4b0da67)" d="
M7.2 10.6218
L453.6 10.6218" style="fill:none;stroke:#000000;stroke-dasharray:1.000000,3.000000;stroke-dashoffset:0.0;stroke-width:0.5;"/>
     </g>
     <g id="line2d_66">
      <g>
       <use style="stroke:#000000;stroke-width:0.5;" x="7.2" xlink:href="#m728421d6d4" y="10.6217821782"/>
      </g>
     </g>
     <g id="line2d_67">
      <g>
       <use style="stroke:#000000;stroke-width:0.5;" x="453.6" xlink:href="#mcb0005524f" y="10.6217821782"/>
      </g>
     </g>
    </g>
   </g>
   <g id="patch_3">
    <path d="
M7.2 7.2
L453.6 7.2" style="fill:none;stroke:#000000;"/>
   </g>
   <g id="patch_4">
    <path d="
M453.6 352.8
L453.6 7.2" style="fill:none;stroke:#000000;"/>
   </g>
   <g id="patch_5">
    <path d="
M7.2 352.8
L453.6 352.8" style="fill:none;stroke:#000000;"/>
   </g>
   <g id="patch_6">
    <path d="
M7.2 352.8
L7.2 7.2" style="fill:none;stroke:#000000;"/>
   </g>
   <g id="text_10">
    <!-- {f6-f9}, 20-D -->
    <defs>
     <path d="
M12.5 -9.28125
L15.9219 -9.28125
Q22.75 -9.28125 24.8281 -7.17188
Q26.9062 -5.07812 26.9062 1.90625
L26.9062 14.0156
Q26.9062 21.625 29.0938 25.0938
Q31.2969 28.5625 36.7188 29.8906
Q31.2969 31.1094 29.0938 34.5625
Q26.9062 38.0312 26.9062 45.7031
L26.9062 57.8125
Q26.9062 64.75 24.8281 66.875
Q22.75 69 15.9219 69
L12.5 69
L12.5 75.9844
L15.5781 75.9844
Q27.7344 75.9844 31.8125 72.3906
Q35.8906 68.7969 35.8906 58.0156
L35.8906 46.2969
Q35.8906 39.0156 38.5156 36.2031
Q41.1562 33.4062 48.0938 33.4062
L51.125 33.4062
L51.125 26.4219
L48.0938 26.4219
Q41.1562 26.4219 38.5156 23.5781
Q35.8906 20.75 35.8906 13.375
L35.8906 1.70312
Q35.8906 -9.07812 31.8125 -12.6875
Q27.7344 -16.3125 15.5781 -16.3125
L12.5 -16.3125
z
" id="BitstreamVeraSans-Roman-7d"/>
     <path d="
M10.9844 1.51562
L10.9844 10.5
Q14.7031 8.73438 18.5 7.8125
Q22.3125 6.89062 25.9844 6.89062
Q35.75 6.89062 40.8906 13.4531
Q46.0469 20.0156 46.7812 33.4062
Q43.9531 29.2031 39.5938 26.9531
Q35.25 24.7031 29.9844 24.7031
Q19.0469 24.7031 12.6719 31.3125
Q6.29688 37.9375 6.29688 49.4219
Q6.29688 60.6406 12.9375 67.4219
Q19.5781 74.2188 30.6094 74.2188
Q43.2656 74.2188 49.9219 64.5156
Q56.5938 54.8281 56.5938 36.375
Q56.5938 19.1406 48.4062 8.85938
Q40.2344 -1.42188 26.4219 -1.42188
Q22.7031 -1.42188 18.8906 -0.6875
Q15.0938 0.046875 10.9844 1.51562
M30.6094 32.4219
Q37.25 32.4219 41.125 36.9531
Q45.0156 41.5 45.0156 49.4219
Q45.0156 57.2812 41.125 61.8438
Q37.25 66.4062 30.6094 66.4062
Q23.9688 66.4062 20.0938 61.8438
Q16.2188 57.2812 16.2188 49.4219
Q16.2188 41.5 20.0938 36.9531
Q23.9688 32.4219 30.6094 32.4219" id="BitstreamVeraSans-Roman-39"/>
     <path d="
M51.125 -9.28125
L51.125 -16.3125
L48.0938 -16.3125
Q35.9375 -16.3125 31.8125 -12.6875
Q27.6875 -9.07812 27.6875 1.70312
L27.6875 13.375
Q27.6875 20.75 25.0469 23.5781
Q22.4062 26.4219 15.4844 26.4219
L12.5 26.4219
L12.5 33.4062
L15.4844 33.4062
Q22.4688 33.4062 25.0781 36.2031
Q27.6875 39.0156 27.6875 46.2969
L27.6875 58.0156
Q27.6875 68.7969 31.8125 72.3906
Q35.9375 75.9844 48.0938 75.9844
L51.125 75.9844
L51.125 69
L47.7969 69
Q40.9219 69 38.8125 66.8438
Q36.7188 64.7031 36.7188 57.8125
L36.7188 45.7031
Q36.7188 38.0312 34.5 34.5625
Q32.2812 31.1094 26.9062 29.8906
Q32.3281 28.5625 34.5156 25.0938
Q36.7188 21.625 36.7188 14.0156
L36.7188 1.90625
Q36.7188 -4.98438 38.8125 -7.125
Q40.9219 -9.28125 47.7969 -9.28125
z
" id="BitstreamVeraSans-Roman-7b"/>
     <path d="
M11.7188 12.4062
L22.0156 12.4062
L22.0156 4
L14.0156 -11.625
L7.71875 -11.625
L11.7188 4
z
" id="BitstreamVeraSans-Roman-2c"/>
    </defs>
    <g transform="translate(312.87825 345.888)scale(0.2 -0.2)">
     <use xlink:href="#BitstreamVeraSans-Roman-7b"/>
     <use x="63.623046875" xlink:href="#BitstreamVeraSans-Roman-66"/>
     <use x="98.828125" xlink:href="#BitstreamVeraSans-Roman-36"/>
     <use x="162.451171875" xlink:href="#BitstreamVeraSans-Roman-2d"/>
     <use x="198.53515625" xlink:href="#BitstreamVeraSans-Roman-66"/>
     <use x="233.740234375" xlink:href="#BitstreamVeraSans-Roman-39"/>
     <use x="297.36328125" xlink:href="#BitstreamVeraSans-Roman-7d"/>
     <use x="360.986328125" xlink:href="#BitstreamVeraSans-Roman-2c"/>
     <use x="392.7734375" xlink:href="#BitstreamVeraSans-Roman-20"/>
     <use x="424.560546875" xlink:href="#BitstreamVeraSans-Roman-32"/>
     <use x="488.18359375" xlink:href="#BitstreamVeraSans-Roman-30"/>
     <use x="551.806640625" xlink:href="#BitstreamVeraSans-Roman-2d"/>
     <use x="587.890625" xlink:href="#BitstreamVeraSans-Roman-44"/>
    </g>
   </g>
   <g id="text_11">
    <!-- 0.0.0 -->
    <defs>
     <path d="
M10.6875 12.4062
L21 12.4062
L21 0
L10.6875 0
z
" id="BitstreamVeraSans-Roman-2e"/>
    </defs>
    <g style="fill:#808080;" transform="translate(218.33984375 347.2643125)scale(0.1 -0.1)">
     <use xlink:href="#BitstreamVeraSans-Roman-30"/>
     <use x="63.623046875" xlink:href="#BitstreamVeraSans-Roman-2e"/>
     <use x="95.41015625" xlink:href="#BitstreamVeraSans-Roman-30"/>
     <use x="159.033203125" xlink:href="#BitstreamVeraSans-Roman-2e"/>
     <use x="190.8203125" xlink:href="#BitstreamVeraSans-Roman-30"/>
    </g>
   </g>
  </g>
 </g>
 <defs>
  <clipPath id="p99b4b0da67">
   <rect height="345.6" width="446.4" x="7.2" y="7.2"/>
  </clipPath>
 </defs>
</svg>
