<?xml version="1.0" encoding="utf-8" standalone="no"?>
<!DOCTYPE svg PUBLIC "-//W3C//DTD SVG 1.1//EN"
  "http://www.w3.org/Graphics/SVG/1.1/DTD/svg11.dtd">
<!-- Created with matplotlib (http://matplotlib.org/) -->
<svg height="407pt" version="1.1" viewBox="0 0 460 407" width="460pt" xmlns="http://www.w3.org/2000/svg" xmlns:xlink="http://www.w3.org/1999/xlink">
 <defs>
  <style type="text/css">
*{stroke-linecap:butt;stroke-linejoin:round;}
  </style>
 </defs>
 <g id="figure_1">
  <g id="patch_1">
   <path d="
M0 407.712
L460.8 407.712
L460.8 0
L0 0
z
" style="fill:#ffffff;"/>
  </g>
  <g id="axes_1">
   <g id="patch_2">
    <path d="
M7.2 352.8
L453.6 352.8
L453.6 7.2
L7.2 7.2
z
" style="fill:#ffffff;"/>
   </g>
   <g id="line2d_1">
    <path clip-path="url(#p99b4b0da67)" d="
M-1 215.929
L7.0865 215.929
L7.0865 147.493
L258.647 147.493
L258.647 142.931
L260.319 142.931
L260.319 138.368
L260.826 138.368
L260.826 133.806
L261.071 133.806
L261.071 129.244
L261.777 129.244
L261.777 124.681
L262.003 124.681
L262.003 115.556
L262.655 115.556
L262.655 110.994
L263.07 110.994
L263.07 106.432
L263.47 106.432
L263.47 101.869
L264.045 101.869
L264.045 92.7446
L264.231 92.7446
L264.231 83.6198
L264.593 83.6198
L264.593 79.0574
L264.77 79.0574
L264.77 69.9327
L265.285 69.9327
L265.285 65.3703
L265.451 65.3703
L265.451 60.8079
L265.615 60.8079
L265.615 56.2455
L266.402 56.2455
L266.402 51.6832
L266.702 51.6832
L266.702 42.5584
L267.138 42.5584
L267.138 37.996
L267.83 37.996
L267.83 33.4337
L268.095 33.4337
L268.095 28.8713
L268.627 28.8713
L268.627 24.3089
L269.099 24.3089
L269.099 19.7465
L269.453 19.7465
L269.453 15.1842
L269.684 15.1842
L269.684 10.6218
L269.684 10.6218
L453.6 10.6218
L453.6 10.6218" style="fill:none;stroke:#ff0000;stroke-linecap:square;stroke-width:3.0;"/>
   </g>
   <g id="line2d_2">
    <path clip-path="url(#p99b4b0da67)" d="
M265.99 352.8
L265.99 348.238
L266.585 348.238
L266.585 343.675
L267.803 343.675
L267.803 339.113
L268.346 339.113
L268.346 334.55
L268.652 334.55
L268.652 329.988
L268.81 329.988
L268.816 320.863
L269.915 320.863
L269.915 316.301
L270.544 316.301
L270.544 311.739
L270.793 311.739
L270.793 307.176
L271.394 307.176
L271.394 302.614
L271.674 302.614
L271.674 298.051
L272.118 298.051
L272.118 293.489
L272.272 293.489
L272.272 288.927
L274.11 288.927
L274.11 284.364
L283.055 284.364
L283.055 279.802
L283.173 279.802
L283.173 275.24
L283.294 275.24
L283.336 266.115
L283.645 266.115
L283.724 256.99
L284.081 256.99
L284.082 247.865
L284.252 247.865
L284.318 238.741
L284.426 238.741
L284.501 225.053
L284.56 225.053
L284.56 220.491
L284.831 220.491
L284.831 215.929
L286.351 215.929
L286.351 211.366
L286.85 211.366
L286.85 206.804
L287.417 206.804
L287.417 202.242
L288.175 202.242
L288.175 197.679
L288.859 197.679
L288.859 193.117
L289.364 193.117
L289.385 183.992
L289.813 183.992
L289.813 179.43
L290.132 179.43
L290.132 174.867
L290.465 174.867
L290.521 161.18
L290.619 161.18
L290.619 156.618
L290.978 156.618
L290.978 152.055
L291.148 152.055
L291.257 142.931
L291.314 142.931
L291.314 138.368
L291.468 138.368
L291.468 133.806
L291.838 133.806
L291.838 129.244
L292.209 129.244
L292.209 124.681
L292.434 124.681
L292.464 115.556
L292.682 115.556
L292.682 110.994
L292.818 110.994
L292.818 106.432
L293.07 106.432
L293.169 92.7446
L293.435 92.7446
L293.48 83.6198
L294.623 83.6198
L294.623 79.0574
L377.108 79.0574
L377.108 74.495
L379.611 74.495
L379.611 69.9327
L384.3 69.9327
L384.3 65.3703
L388.692 65.3703
L388.692 60.8079
L389.433 60.8079
L389.433 56.2455
L393.571 56.2455
L393.571 51.6832
L397.1 51.6832
L397.1 47.1208
L397.334 47.1208
L397.334 42.5584
L398.492 42.5584
L398.492 37.996
L399.339 37.996
L399.339 33.4337
L399.58 33.4337
L399.58 28.8713
L400.692 28.8713
L400.754 19.7465
L401.326 19.7465
L401.326 15.1842
L402.246 15.1842
L402.246 10.6218
L402.246 10.6218
L453.6 10.6218
L453.6 10.6218" style="fill:none;stroke:#00bfbf;stroke-linecap:square;"/>
   </g>
   <g id="line2d_3">
    <path clip-path="url(#p99b4b0da67)" d="
M263.955 352.8
L263.955 348.238
L265.913 348.238
L265.913 343.675
L266.159 343.675
L266.239 334.55
L266.61 334.55
L266.61 329.988
L266.877 329.988
L266.877 325.426
L267.509 325.426
L267.509 320.863
L268.346 320.863
L268.41 311.739
L268.977 311.739
L268.977 307.176
L269.239 307.176
L269.239 302.614
L270.071 302.614
L270.071 298.051
L271.394 298.051
L271.394 293.489
L271.959 293.489
L271.959 288.927
L273.15 288.927
L273.15 284.364
L281.721 284.364
L281.755 275.24
L281.876 275.24
L281.876 270.677
L282.04 270.677
L282.078 261.552
L282.248 261.552
L282.248 256.99
L282.498 256.99
L282.6 247.865
L282.64 247.865
L282.642 238.741
L282.783 238.741
L282.783 234.178
L283.346 234.178
L283.346 229.616
L283.538 229.616
L283.606 220.491
L283.776 220.491
L283.776 215.929
L283.928 215.929
L283.928 211.366
L286.85 211.366
L286.85 206.804
L287.168 206.804
L287.168 202.242
L287.372 202.242
L287.417 193.117
L287.748 193.117
L287.748 188.554
L288.11 188.554
L288.11 183.992
L288.644 183.992
L288.644 179.43
L288.859 179.43
L288.859 174.867
L289.049 174.867
L289.049 170.305
L289.364 170.305
L289.364 165.743
L290.079 165.743
L290.079 161.18
L290.465 161.18
L290.533 142.931
L290.619 142.931
L290.707 129.244
L290.775 129.244
L290.775 124.681
L290.978 124.681
L290.978 120.119
L291.314 120.119
L291.314 115.556
L291.561 115.556
L291.621 101.869
L291.805 101.869
L291.805 97.3069
L291.952 97.3069
L291.952 92.7446
L292.193 92.7446
L292.193 88.1822
L293.083 88.1822
L293.083 83.6198
L293.435 83.6198
L293.435 79.0574
L366.492 79.0574
L366.492 74.495
L376.508 74.495
L376.508 69.9327
L377.809 69.9327
L377.809 65.3703
L381.03 65.3703
L381.03 60.8079
L382.128 60.8079
L382.128 56.2455
L386.41 56.2455
L386.41 51.6832
L387.711 51.6832
L387.711 47.1208
L388.71 47.1208
L388.71 42.5584
L389.426 42.5584
L389.426 37.996
L390.182 37.996
L390.182 33.4337
L392.351 33.4337
L392.351 28.8713
L395.908 28.8713
L395.908 24.3089
L396.592 24.3089
L396.592 19.7465
L396.9 19.7465
L396.9 15.1842
L398.104 15.1842
L398.104 10.6218
L398.104 10.6218
L453.6 10.6218
L453.6 10.6218" style="fill:none;stroke:#bf00bf;stroke-linecap:square;"/>
   </g>
   <g id="line2d_4">
    <path clip-path="url(#p99b4b0da67)" d="
M259.204 352.8
L259.204 348.238
L261.15 348.238
L261.205 339.113
L261.464 339.113
L261.464 334.55
L261.953 334.55
L261.953 329.988
L262.246 329.988
L262.246 325.426
L262.659 325.426
L262.659 320.863
L263.346 320.863
L263.346 316.301
L265.464 316.301
L265.464 311.739
L265.719 311.739
L265.719 307.176
L265.861 307.176
L265.861 302.614
L266.433 302.614
L266.433 298.051
L266.694 298.051
L266.694 293.489
L268.123 293.489
L268.123 288.927
L268.346 288.927
L268.346 284.364
L275.77 284.364
L275.77 279.802
L277.027 279.802
L277.027 275.24
L278.138 275.24
L278.227 266.115
L278.331 266.115
L278.331 261.552
L278.998 261.552
L278.998 256.99
L279.209 256.99
L279.209 252.428
L279.726 252.428
L279.726 247.865
L279.848 247.865
L279.848 243.303
L280.132 243.303
L280.233 229.616
L280.267 229.616
L280.298 220.491
L281.287 220.491
L281.287 215.929
L281.736 215.929
L281.845 206.804
L283.581 206.804
L283.581 202.242
L286.159 202.242
L286.159 197.679
L286.306 197.679
L286.306 193.117
L286.85 193.117
L286.85 188.554
L287.082 188.554
L287.189 179.43
L287.202 179.43
L287.305 165.743
L287.372 165.743
L287.372 161.18
L288.11 161.18
L288.11 156.618
L288.341 156.618
L288.394 147.493
L288.554 147.493
L288.644 138.368
L288.721 138.368
L288.721 133.806
L289.144 133.806
L289.165 120.119
L289.3 120.119
L289.3 115.556
L289.519 115.556
L289.545 106.432
L290.168 106.432
L290.168 101.869
L290.423 101.869
L290.517 83.6198
L291.88 83.6198
L291.88 79.0574
L364.712 79.0574
L364.712 74.495
L365.368 74.495
L365.368 69.9327
L366.202 69.9327
L366.202 65.3703
L366.545 65.3703
L366.545 60.8079
L368.091 60.8079
L368.091 56.2455
L373.954 56.2455
L373.954 51.6832
L375.728 51.6832
L375.728 47.1208
L379.385 47.1208
L379.385 42.5584
L381.03 42.5584
L381.03 37.996
L381.723 37.996
L381.723 33.4337
L383 33.4337
L383 28.8713
L383.915 28.8713
L383.915 24.3089
L385.68 24.3089
L385.763 10.6218
L385.763 10.6218
L453.6 10.6218
L453.6 10.6218" style="fill:none;stroke:#000000;stroke-linecap:square;"/>
   </g>
   <g id="line2d_5">
    <path clip-path="url(#p99b4b0da67)" d="
M244.352 352.8
L244.352 348.238
L245.598 348.238
L245.598 343.675
L245.964 343.675
L245.964 339.113
L246.126 339.113
L246.126 334.55
L246.53 334.55
L246.53 329.988
L247.016 329.988
L247.016 325.426
L247.611 325.426
L247.611 320.863
L247.851 320.863
L247.893 311.739
L249.5 311.739
L249.5 307.176
L250.118 307.176
L250.128 298.051
L250.352 298.051
L250.352 293.489
L250.661 293.489
L250.661 288.927
L250.91 288.927
L250.961 279.802
L251.551 279.802
L251.551 275.24
L253.002 275.24
L253.002 270.677
L255.1 270.677
L255.1 266.115
L256.417 266.115
L256.417 261.552
L257.764 261.552
L257.764 256.99
L262.323 256.99
L262.323 252.428
L264.649 252.428
L264.714 243.303
L264.811 243.303
L264.819 234.178
L265.748 234.178
L265.748 229.616
L268.36 229.616
L268.36 225.053
L270.684 225.053
L270.684 220.491
L272.458 220.491
L272.458 215.929
L279.222 215.929
L279.222 211.366
L279.555 211.366
L279.582 202.242
L279.68 202.242
L279.68 197.679
L279.872 197.679
L279.977 188.554
L280.322 188.554
L280.322 183.992
L280.69 183.992
L280.69 179.43
L280.856 179.43
L280.856 174.867
L281.009 174.867
L281.106 161.18
L281.305 161.18
L281.305 156.618
L281.961 156.618
L281.977 147.493
L282.193 147.493
L282.193 142.931
L282.408 142.931
L282.408 138.368
L282.529 138.368
L282.572 129.244
L282.965 129.244
L282.965 124.681
L283.422 124.681
L283.422 120.119
L283.98 120.119
L283.98 115.556
L285.065 115.556
L285.065 110.994
L285.208 110.994
L285.208 106.432
L285.621 106.432
L285.621 101.869
L286.02 101.869
L286.02 97.3069
L286.183 97.3069
L286.235 88.1822
L286.629 88.1822
L286.629 83.6198
L287.191 83.6198
L287.191 79.0574
L357.787 79.0574
L357.787 74.495
L358.894 74.495
L358.894 69.9327
L359.335 69.9327
L359.335 65.3703
L360.461 65.3703
L360.461 60.8079
L360.978 60.8079
L360.978 56.2455
L362.481 56.2455
L362.481 51.6832
L362.622 51.6832
L362.622 47.1208
L362.945 47.1208
L362.945 42.5584
L363.073 42.5584
L363.073 37.996
L364.159 37.996
L364.159 33.4337
L364.311 33.4337
L364.376 24.3089
L365.412 24.3089
L365.412 19.7465
L366.212 19.7465
L366.212 15.1842
L374.412 15.1842
L374.412 10.6218
L374.412 10.6218
L453.6 10.6218
L453.6 10.6218" style="fill:none;stroke:#00bfbf;stroke-linecap:square;"/>
   </g>
   <g id="line2d_6">
    <path clip-path="url(#p99b4b0da67)" d="
M7.0865 352.8
L7.0865 348.238
L7.0865 348.238
L7.0865 348.238
L7.0865 343.675
L7.0865 343.675
L7.0865 343.675
L7.0865 339.113
L7.0865 339.113
L7.0865 339.113
L7.0865 334.55
L7.0865 334.55
L7.0865 334.55
L7.0865 329.988
L7.0865 329.988
L7.0865 329.988
L7.0865 325.426
L7.0865 325.426
L7.0865 325.426
L7.0865 320.863
L7.0865 320.863
L7.0865 320.863
L7.0865 316.301
L7.0865 316.301
L7.0865 316.301
L7.0865 311.739
L7.0865 311.739
L7.0865 311.739
L7.0865 307.176
L7.0865 307.176
L7.0865 307.176
L7.0865 302.614
L7.0865 302.614
L7.0865 302.614
L7.0865 298.051
L7.0865 298.051
L7.0865 298.051
L7.0865 293.489
L7.0865 293.489
L7.0865 293.489
L7.0865 288.927
L7.0865 288.927
L7.0865 288.927
L7.0865 284.364
L52.2877 284.364
L52.2877 279.802
L54.6617 279.802
L54.6617 275.24
L56.5609 275.24
L56.5609 270.677
L56.6833 270.677
L56.6833 266.115
L66.4312 266.115
L66.4312 261.552
L68.7055 261.552
L68.7055 256.99
L69.4641 256.99
L69.4641 252.428
L70.2973 252.428
L70.2973 247.865
L71.0294 247.865
L71.0294 243.303
L74.8 243.303
L74.8 238.741
L75.3524 238.741
L75.3524 234.178
L81.5475 234.178
L81.5475 229.616
L81.675 229.616
L81.675 225.053
L84.1675 225.053
L84.2693 215.929
L258.896 215.929
L258.896 211.366
L262.067 211.366
L262.067 206.804
L262.231 206.804
L262.231 202.242
L263.128 202.242
L263.128 197.679
L263.436 197.679
L263.436 193.117
L265.253 193.117
L265.253 188.554
L265.37 188.554
L265.37 183.992
L265.489 183.992
L265.489 179.43
L265.781 179.43
L265.781 174.867
L266.049 174.867
L266.049 170.305
L266.275 170.305
L266.275 165.743
L266.841 165.743
L266.841 161.18
L266.962 161.18
L266.962 156.618
L267.324 156.618
L267.324 152.055
L268.996 152.055
L268.996 147.493
L269.145 147.493
L269.145 142.931
L269.387 142.931
L269.387 138.368
L269.9 138.368
L269.9 133.806
L270.199 133.806
L270.199 129.244
L270.489 129.244
L270.489 124.681
L270.876 124.681
L270.876 120.119
L271.358 120.119
L271.358 115.556
L271.691 115.556
L271.691 110.994
L272.609 110.994
L272.609 106.432
L273.559 106.432
L273.567 97.3069
L274.525 97.3069
L274.525 92.7446
L276.267 92.7446
L276.267 88.1822
L277.633 88.1822
L277.633 83.6198
L278.079 83.6198
L278.079 79.0574
L298.029 79.0574
L298.029 74.495
L304.672 74.495
L304.672 69.9327
L307.698 69.9327
L307.698 65.3703
L307.977 65.3703
L307.977 60.8079
L310.951 60.8079
L310.951 56.2455
L311.962 56.2455
L311.962 51.6832
L316.321 51.6832
L316.321 47.1208
L318.181 47.1208
L318.181 42.5584
L322.706 42.5584
L322.799 33.4337
L323.169 33.4337
L323.169 28.8713
L324.847 28.8713
L324.847 24.3089
L327.049 24.3089
L327.049 19.7465
L328.917 19.7465
L328.917 15.1842
L332.696 15.1842
L332.696 10.6218
L332.696 10.6218
L453.6 10.6218
L453.6 10.6218" style="fill:none;stroke:#bf00bf;stroke-linecap:square;"/>
   </g>
   <g id="line2d_7">
    <path clip-path="url(#p99b4b0da67)" d="
M-1 215.929
L7.0865 215.929
L7.0865 147.493
L258.647 147.493
L258.647 142.931
L261.777 142.931
L261.777 138.368
L262.003 138.368
L262.003 129.244
L263.07 129.244
L263.07 124.681
L264.231 124.681
L264.231 120.119
L264.77 120.119
L264.77 110.994
L265.615 110.994
L265.615 106.432
L265.777 106.432
L265.777 101.869
L266.249 101.869
L266.249 97.3069
L266.702 97.3069
L266.702 92.7446
L266.85 92.7446
L266.85 88.1822
L267.28 88.1822
L267.28 83.6198
L267.558 83.6198
L267.558 79.0574
L268.482 79.0574
L268.482 69.9327
L268.856 69.9327
L268.856 65.3703
L269.099 65.3703
L269.099 60.8079
L269.453 60.8079
L269.453 56.2455
L269.684 56.2455
L269.684 51.6832
L270.874 51.6832
L270.874 47.1208
L271.668 47.1208
L271.668 42.5584
L271.952 42.5584
L271.952 37.996
L272.588 37.996
L272.588 33.4337
L273.525 33.4337
L273.525 28.8713
L274.46 28.8713
L274.46 24.3089
L276.261 24.3089
L276.261 19.7465
L277.418 19.7465
L277.418 15.1842
L277.983 15.1842
L277.983 10.6218
L277.983 10.6218
L453.6 10.6218
L453.6 10.6218" style="fill:none;stroke:#000000;stroke-linecap:square;"/>
   </g>
   <g id="line2d_8">
    <path clip-path="url(#p99b4b0da67)" d="
M-1 215.929
L7.0865 215.929
L7.0865 147.493
L258.647 147.493
L258.647 142.931
L260.319 142.931
L260.319 138.368
L261.777 138.368
L261.777 133.806
L262.003 133.806
L262.003 124.681
L263.07 124.681
L263.07 120.119
L264.231 120.119
L264.231 115.556
L264.77 115.556
L264.77 106.432
L265.615 106.432
L265.615 101.869
L265.777 101.869
L265.777 97.3069
L266.249 97.3069
L266.249 92.7446
L266.702 92.7446
L266.702 88.1822
L266.85 88.1822
L266.85 83.6198
L267.138 83.6198
L267.138 79.0574
L267.28 79.0574
L267.28 74.495
L267.558 74.495
L267.558 69.9327
L268.482 69.9327
L268.482 65.3703
L268.856 65.3703
L268.856 60.8079
L269.099 60.8079
L269.099 56.2455
L269.453 56.2455
L269.453 51.6832
L269.684 51.6832
L269.684 47.1208
L270.348 47.1208
L270.348 42.5584
L270.874 42.5584
L270.874 37.996
L271.668 37.996
L271.668 33.4337
L271.952 33.4337
L271.952 28.8713
L272.588 28.8713
L272.588 24.3089
L273.525 24.3089
L273.525 19.7465
L276.261 19.7465
L276.261 15.1842
L277.418 15.1842
L277.418 10.6218
L277.418 10.6218
L453.6 10.6218
L453.6 10.6218" style="fill:none;stroke:#00bfbf;stroke-linecap:square;"/>
   </g>
   <g id="line2d_9">
    <path clip-path="url(#p99b4b0da67)" d="
M-1 215.929
L7.0865 215.929
L7.0865 147.493
L258.647 147.493
L258.647 142.931
L260.319 142.931
L260.319 138.368
L260.826 138.368
L260.826 133.806
L261.071 133.806
L261.071 129.244
L261.777 129.244
L261.777 124.681
L262.003 124.681
L262.003 115.556
L262.655 115.556
L262.655 110.994
L263.07 110.994
L263.07 106.432
L263.47 106.432
L263.47 101.869
L264.045 101.869
L264.045 92.7446
L264.231 92.7446
L264.231 83.6198
L264.593 83.6198
L264.593 79.0574
L264.77 79.0574
L264.77 69.9327
L265.285 69.9327
L265.285 65.3703
L265.451 65.3703
L265.451 60.8079
L265.615 60.8079
L265.615 56.2455
L266.402 56.2455
L266.402 51.6832
L266.702 51.6832
L266.702 42.5584
L267.138 42.5584
L267.138 37.996
L267.83 37.996
L267.83 33.4337
L268.095 33.4337
L268.095 28.8713
L268.627 28.8713
L268.627 24.3089
L269.099 24.3089
L269.099 19.7465
L269.453 19.7465
L269.453 15.1842
L269.684 15.1842
L269.684 10.6218
L269.684 10.6218
L453.6 10.6218
L453.6 10.6218" style="fill:none;stroke:#bf00bf;stroke-linecap:square;"/>
   </g>
   <g id="matplotlib.axis_1">
    <g id="xtick_1"/>
    <g id="xtick_2">
     <g id="line2d_10">
      <path clip-path="url(#p99b4b0da67)" d="
M59.6175 352.8
L59.6175 7.2" style="fill:none;stroke:#000000;stroke-dasharray:1.000000,3.000000;stroke-dashoffset:0.0;stroke-width:0.5;"/>
     </g>
     <g id="line2d_11">
      <defs>
       <path d="
M0 0
L0 -4" id="m93b0483c22" style="stroke:#000000;stroke-width:0.5;"/>
      </defs>
      <g>
       <use style="stroke:#000000;stroke-width:0.5;" x="59.6174973142" xlink:href="#m93b0483c22" y="352.8"/>
      </g>
     </g>
     <g id="line2d_12">
      <defs>
       <path d="
M0 0
L0 4" id="m741efc42ff" style="stroke:#000000;stroke-width:0.5;"/>
      </defs>
      <g>
       <use style="stroke:#000000;stroke-width:0.5;" x="59.6174973142" xlink:href="#m741efc42ff" y="7.2"/>
      </g>
     </g>
     <g id="text_1">
      <!-- -6 -->
      <defs>
       <path d="
M33.0156 40.375
Q26.375 40.375 22.4844 35.8281
Q18.6094 31.2969 18.6094 23.3906
Q18.6094 15.5312 22.4844 10.9531
Q26.375 6.39062 33.0156 6.39062
Q39.6562 6.39062 43.5312 10.9531
Q47.4062 15.5312 47.4062 23.3906
Q47.4062 31.2969 43.5312 35.8281
Q39.6562 40.375 33.0156 40.375
M52.5938 71.2969
L52.5938 62.3125
Q48.875 64.0625 45.0938 64.9844
Q41.3125 65.9219 37.5938 65.9219
Q27.8281 65.9219 22.6719 59.3281
Q17.5312 52.7344 16.7969 39.4062
Q19.6719 43.6562 24.0156 45.9219
Q28.375 48.1875 33.5938 48.1875
Q44.5781 48.1875 50.9531 41.5156
Q57.3281 34.8594 57.3281 23.3906
Q57.3281 12.1562 50.6875 5.35938
Q44.0469 -1.42188 33.0156 -1.42188
Q20.3594 -1.42188 13.6719 8.26562
Q6.98438 17.9688 6.98438 36.375
Q6.98438 53.6562 15.1875 63.9375
Q23.3906 74.2188 37.2031 74.2188
Q40.9219 74.2188 44.7031 73.4844
Q48.4844 72.75 52.5938 71.2969" id="BitstreamVeraSans-Roman-36"/>
       <path d="
M4.89062 31.3906
L31.2031 31.3906
L31.2031 23.3906
L4.89062 23.3906
z
" id="BitstreamVeraSans-Roman-2d"/>
      </defs>
      <g transform="translate(50.7659348142 371.996875)scale(0.2 -0.2)">
       <use xlink:href="#BitstreamVeraSans-Roman-2d"/>
       <use x="36.083984375" xlink:href="#BitstreamVeraSans-Roman-36"/>
      </g>
     </g>
    </g>
    <g id="xtick_3">
     <g id="line2d_13">
      <path clip-path="url(#p99b4b0da67)" d="
M112.148 352.8
L112.148 7.2" style="fill:none;stroke:#000000;stroke-dasharray:1.000000,3.000000;stroke-dashoffset:0.0;stroke-width:0.5;"/>
     </g>
     <g id="line2d_14">
      <g>
       <use style="stroke:#000000;stroke-width:0.5;" x="112.148497672" xlink:href="#m93b0483c22" y="352.8"/>
      </g>
     </g>
     <g id="line2d_15">
      <g>
       <use style="stroke:#000000;stroke-width:0.5;" x="112.148497672" xlink:href="#m741efc42ff" y="7.2"/>
      </g>
     </g>
     <g id="text_2">
      <!-- -4 -->
      <defs>
       <path d="
M37.7969 64.3125
L12.8906 25.3906
L37.7969 25.3906
z

M35.2031 72.9062
L47.6094 72.9062
L47.6094 25.3906
L58.0156 25.3906
L58.0156 17.1875
L47.6094 17.1875
L47.6094 0
L37.7969 0
L37.7969 17.1875
L4.89062 17.1875
L4.89062 26.7031
z
" id="BitstreamVeraSans-Roman-34"/>
      </defs>
      <g transform="translate(103.228185172 371.996875)scale(0.2 -0.2)">
       <use xlink:href="#BitstreamVeraSans-Roman-2d"/>
       <use x="36.083984375" xlink:href="#BitstreamVeraSans-Roman-34"/>
      </g>
     </g>
    </g>
    <g id="xtick_4">
     <g id="line2d_16">
      <path clip-path="url(#p99b4b0da67)" d="
M164.679 352.8
L164.679 7.2" style="fill:none;stroke:#000000;stroke-dasharray:1.000000,3.000000;stroke-dashoffset:0.0;stroke-width:0.5;"/>
     </g>
     <g id="line2d_17">
      <g>
       <use style="stroke:#000000;stroke-width:0.5;" x="164.67949803" xlink:href="#m93b0483c22" y="352.8"/>
      </g>
     </g>
     <g id="line2d_18">
      <g>
       <use style="stroke:#000000;stroke-width:0.5;" x="164.67949803" xlink:href="#m741efc42ff" y="7.2"/>
      </g>
     </g>
     <g id="text_3">
      <!-- -2 -->
      <defs>
       <path d="
M19.1875 8.29688
L53.6094 8.29688
L53.6094 0
L7.32812 0
L7.32812 8.29688
Q12.9375 14.1094 22.625 23.8906
Q32.3281 33.6875 34.8125 36.5312
Q39.5469 41.8438 41.4219 45.5312
Q43.3125 49.2188 43.3125 52.7812
Q43.3125 58.5938 39.2344 62.25
Q35.1562 65.9219 28.6094 65.9219
Q23.9688 65.9219 18.8125 64.3125
Q13.6719 62.7031 7.8125 59.4219
L7.8125 69.3906
Q13.7656 71.7812 18.9375 73
Q24.125 74.2188 28.4219 74.2188
Q39.75 74.2188 46.4844 68.5469
Q53.2188 62.8906 53.2188 53.4219
Q53.2188 48.9219 51.5312 44.8906
Q49.8594 40.875 45.4062 35.4062
Q44.1875 33.9844 37.6406 27.2188
Q31.1094 20.4531 19.1875 8.29688" id="BitstreamVeraSans-Roman-32"/>
      </defs>
      <g transform="translate(156.19981053 371.996875)scale(0.2 -0.2)">
       <use xlink:href="#BitstreamVeraSans-Roman-2d"/>
       <use x="36.083984375" xlink:href="#BitstreamVeraSans-Roman-32"/>
      </g>
     </g>
    </g>
    <g id="xtick_5">
     <g id="line2d_19">
      <path clip-path="url(#p99b4b0da67)" d="
M217.21 352.8
L217.21 7.2" style="fill:none;stroke:#000000;stroke-dasharray:1.000000,3.000000;stroke-dashoffset:0.0;stroke-width:0.5;"/>
     </g>
     <g id="line2d_20">
      <g>
       <use style="stroke:#000000;stroke-width:0.5;" x="217.210498389" xlink:href="#m93b0483c22" y="352.8"/>
      </g>
     </g>
     <g id="line2d_21">
      <g>
       <use style="stroke:#000000;stroke-width:0.5;" x="217.210498389" xlink:href="#m741efc42ff" y="7.2"/>
      </g>
     </g>
     <g id="text_4">
      <!-- 0 -->
      <defs>
       <path d="
M31.7812 66.4062
Q24.1719 66.4062 20.3281 58.9062
Q16.5 51.4219 16.5 36.375
Q16.5 21.3906 20.3281 13.8906
Q24.1719 6.39062 31.7812 6.39062
Q39.4531 6.39062 43.2812 13.8906
Q47.125 21.3906 47.125 36.375
Q47.125 51.4219 43.2812 58.9062
Q39.4531 66.4062 31.7812 66.4062
M31.7812 74.2188
Q44.0469 74.2188 50.5156 64.5156
Q56.9844 54.8281 56.9844 36.375
Q56.9844 17.9688 50.5156 8.26562
Q44.0469 -1.42188 31.7812 -1.42188
Q19.5312 -1.42188 13.0625 8.26562
Q6.59375 17.9688 6.59375 36.375
Q6.59375 54.8281 13.0625 64.5156
Q19.5312 74.2188 31.7812 74.2188" id="BitstreamVeraSans-Roman-30"/>
      </defs>
      <g transform="translate(212.171435889 371.996875)scale(0.2 -0.2)">
       <use xlink:href="#BitstreamVeraSans-Roman-30"/>
      </g>
     </g>
    </g>
    <g id="xtick_6">
     <g id="line2d_22">
      <path clip-path="url(#p99b4b0da67)" d="
M269.741 352.8
L269.741 7.2" style="fill:none;stroke:#000000;stroke-dasharray:1.000000,3.000000;stroke-dashoffset:0.0;stroke-width:0.5;"/>
     </g>
     <g id="line2d_23">
      <g>
       <use style="stroke:#000000;stroke-width:0.5;" x="269.741498747" xlink:href="#m93b0483c22" y="352.8"/>
      </g>
     </g>
     <g id="line2d_24">
      <g>
       <use style="stroke:#000000;stroke-width:0.5;" x="269.741498747" xlink:href="#m741efc42ff" y="7.2"/>
      </g>
     </g>
     <g id="text_5">
      <!-- 2 -->
      <g transform="translate(265.113373747 371.996875)scale(0.2 -0.2)">
       <use xlink:href="#BitstreamVeraSans-Roman-32"/>
      </g>
     </g>
    </g>
    <g id="xtick_7">
     <g id="line2d_25">
      <path clip-path="url(#p99b4b0da67)" d="
M322.272 352.8
L322.272 7.2" style="fill:none;stroke:#000000;stroke-dasharray:1.000000,3.000000;stroke-dashoffset:0.0;stroke-width:0.5;"/>
     </g>
     <g id="line2d_26">
      <g>
       <use style="stroke:#000000;stroke-width:0.5;" x="322.272499105" xlink:href="#m93b0483c22" y="352.8"/>
      </g>
     </g>
     <g id="line2d_27">
      <g>
       <use style="stroke:#000000;stroke-width:0.5;" x="322.272499105" xlink:href="#m741efc42ff" y="7.2"/>
      </g>
     </g>
     <g id="text_6">
      <!-- 4 -->
      <g transform="translate(316.959999105 371.996875)scale(0.2 -0.2)">
       <use xlink:href="#BitstreamVeraSans-Roman-34"/>
      </g>
     </g>
    </g>
    <g id="xtick_8">
     <g id="line2d_28">
      <path clip-path="url(#p99b4b0da67)" d="
M374.803 352.8
L374.803 7.2" style="fill:none;stroke:#000000;stroke-dasharray:1.000000,3.000000;stroke-dashoffset:0.0;stroke-width:0.5;"/>
     </g>
     <g id="line2d_29">
      <g>
       <use style="stroke:#000000;stroke-width:0.5;" x="374.803499463" xlink:href="#m93b0483c22" y="352.8"/>
      </g>
     </g>
     <g id="line2d_30">
      <g>
       <use style="stroke:#000000;stroke-width:0.5;" x="374.803499463" xlink:href="#m741efc42ff" y="7.2"/>
      </g>
     </g>
     <g id="text_7">
      <!-- 6 -->
      <g transform="translate(369.769124463 371.996875)scale(0.2 -0.2)">
       <use xlink:href="#BitstreamVeraSans-Roman-36"/>
      </g>
     </g>
    </g>
    <g id="xtick_9">
     <g id="line2d_31">
      <path clip-path="url(#p99b4b0da67)" d="
M427.334 352.8
L427.334 7.2" style="fill:none;stroke:#000000;stroke-dasharray:1.000000,3.000000;stroke-dashoffset:0.0;stroke-width:0.5;"/>
     </g>
     <g id="line2d_32">
      <g>
       <use style="stroke:#000000;stroke-width:0.5;" x="427.334499821" xlink:href="#m93b0483c22" y="352.8"/>
      </g>
     </g>
     <g id="line2d_33">
      <g>
       <use style="stroke:#000000;stroke-width:0.5;" x="427.334499821" xlink:href="#m741efc42ff" y="7.2"/>
      </g>
     </g>
     <g id="text_8">
      <!-- 8 -->
      <defs>
       <path d="
M31.7812 34.625
Q24.75 34.625 20.7188 30.8594
Q16.7031 27.0938 16.7031 20.5156
Q16.7031 13.9219 20.7188 10.1562
Q24.75 6.39062 31.7812 6.39062
Q38.8125 6.39062 42.8594 10.1719
Q46.9219 13.9688 46.9219 20.5156
Q46.9219 27.0938 42.8906 30.8594
Q38.875 34.625 31.7812 34.625
M21.9219 38.8125
Q15.5781 40.375 12.0312 44.7188
Q8.5 49.0781 8.5 55.3281
Q8.5 64.0625 14.7188 69.1406
Q20.9531 74.2188 31.7812 74.2188
Q42.6719 74.2188 48.875 69.1406
Q55.0781 64.0625 55.0781 55.3281
Q55.0781 49.0781 51.5312 44.7188
Q48 40.375 41.7031 38.8125
Q48.8281 37.1562 52.7969 32.3125
Q56.7812 27.4844 56.7812 20.5156
Q56.7812 9.90625 50.3125 4.23438
Q43.8438 -1.42188 31.7812 -1.42188
Q19.7344 -1.42188 13.25 4.23438
Q6.78125 9.90625 6.78125 20.5156
Q6.78125 27.4844 10.7812 32.3125
Q14.7969 37.1562 21.9219 38.8125
M18.3125 54.3906
Q18.3125 48.7344 21.8438 45.5625
Q25.3906 42.3906 31.7812 42.3906
Q38.1406 42.3906 41.7188 45.5625
Q45.3125 48.7344 45.3125 54.3906
Q45.3125 60.0625 41.7188 63.2344
Q38.1406 66.4062 31.7812 66.4062
Q25.3906 66.4062 21.8438 63.2344
Q18.3125 60.0625 18.3125 54.3906" id="BitstreamVeraSans-Roman-38"/>
      </defs>
      <g transform="translate(422.334499821 371.996875)scale(0.2 -0.2)">
       <use xlink:href="#BitstreamVeraSans-Roman-38"/>
      </g>
     </g>
    </g>
    <g id="xtick_10"/>
    <g id="xtick_11">
     <g id="line2d_34">
      <defs>
       <path d="
M0 0
L0 -2" id="m177f7580d0" style="stroke:#000000;stroke-width:0.5;"/>
      </defs>
      <g>
       <use style="stroke:#000000;stroke-width:0.5;" x="59.6174973142" xlink:href="#m177f7580d0" y="352.8"/>
      </g>
     </g>
     <g id="line2d_35">
      <defs>
       <path d="
M0 0
L0 2" id="m5284c7e2a0" style="stroke:#000000;stroke-width:0.5;"/>
      </defs>
      <g>
       <use style="stroke:#000000;stroke-width:0.5;" x="59.6174973142" xlink:href="#m5284c7e2a0" y="7.2"/>
      </g>
     </g>
    </g>
    <g id="xtick_12">
     <g id="line2d_36">
      <g>
       <use style="stroke:#000000;stroke-width:0.5;" x="112.148497672" xlink:href="#m177f7580d0" y="352.8"/>
      </g>
     </g>
     <g id="line2d_37">
      <g>
       <use style="stroke:#000000;stroke-width:0.5;" x="112.148497672" xlink:href="#m5284c7e2a0" y="7.2"/>
      </g>
     </g>
    </g>
    <g id="xtick_13">
     <g id="line2d_38">
      <g>
       <use style="stroke:#000000;stroke-width:0.5;" x="164.67949803" xlink:href="#m177f7580d0" y="352.8"/>
      </g>
     </g>
     <g id="line2d_39">
      <g>
       <use style="stroke:#000000;stroke-width:0.5;" x="164.67949803" xlink:href="#m5284c7e2a0" y="7.2"/>
      </g>
     </g>
    </g>
    <g id="xtick_14">
     <g id="line2d_40">
      <g>
       <use style="stroke:#000000;stroke-width:0.5;" x="217.210498389" xlink:href="#m177f7580d0" y="352.8"/>
      </g>
     </g>
     <g id="line2d_41">
      <g>
       <use style="stroke:#000000;stroke-width:0.5;" x="217.210498389" xlink:href="#m5284c7e2a0" y="7.2"/>
      </g>
     </g>
    </g>
    <g id="xtick_15">
     <g id="line2d_42">
      <g>
       <use style="stroke:#000000;stroke-width:0.5;" x="269.741498747" xlink:href="#m177f7580d0" y="352.8"/>
      </g>
     </g>
     <g id="line2d_43">
      <g>
       <use style="stroke:#000000;stroke-width:0.5;" x="269.741498747" xlink:href="#m5284c7e2a0" y="7.2"/>
      </g>
     </g>
    </g>
    <g id="xtick_16">
     <g id="line2d_44">
      <g>
       <use style="stroke:#000000;stroke-width:0.5;" x="322.272499105" xlink:href="#m177f7580d0" y="352.8"/>
      </g>
     </g>
     <g id="line2d_45">
      <g>
       <use style="stroke:#000000;stroke-width:0.5;" x="322.272499105" xlink:href="#m5284c7e2a0" y="7.2"/>
      </g>
     </g>
    </g>
    <g id="xtick_17">
     <g id="line2d_46">
      <g>
       <use style="stroke:#000000;stroke-width:0.5;" x="374.803499463" xlink:href="#m177f7580d0" y="352.8"/>
      </g>
     </g>
     <g id="line2d_47">
      <g>
       <use style="stroke:#000000;stroke-width:0.5;" x="374.803499463" xlink:href="#m5284c7e2a0" y="7.2"/>
      </g>
     </g>
    </g>
    <g id="xtick_18">
     <g id="line2d_48">
      <g>
       <use style="stroke:#000000;stroke-width:0.5;" x="427.334499821" xlink:href="#m177f7580d0" y="352.8"/>
      </g>
     </g>
     <g id="line2d_49">
      <g>
       <use style="stroke:#000000;stroke-width:0.5;" x="427.334499821" xlink:href="#m5284c7e2a0" y="7.2"/>
      </g>
     </g>
    </g>
    <g id="text_9">
     <!-- log10 of Df -->
     <defs>
      <path id="BitstreamVeraSans-Roman-20"/>
      <path d="
M12.4062 8.29688
L28.5156 8.29688
L28.5156 63.9219
L10.9844 60.4062
L10.9844 69.3906
L28.4219 72.9062
L38.2812 72.9062
L38.2812 8.29688
L54.3906 8.29688
L54.3906 0
L12.4062 0
z
" id="BitstreamVeraSans-Roman-31"/>
      <path d="
M30.6094 48.3906
Q23.3906 48.3906 19.1875 42.75
Q14.9844 37.1094 14.9844 27.2969
Q14.9844 17.4844 19.1562 11.8438
Q23.3438 6.20312 30.6094 6.20312
Q37.7969 6.20312 41.9844 11.8594
Q46.1875 17.5312 46.1875 27.2969
Q46.1875 37.0156 41.9844 42.7031
Q37.7969 48.3906 30.6094 48.3906
M30.6094 56
Q42.3281 56 49.0156 48.375
Q55.7188 40.7656 55.7188 27.2969
Q55.7188 13.875 49.0156 6.21875
Q42.3281 -1.42188 30.6094 -1.42188
Q18.8438 -1.42188 12.1719 6.21875
Q5.51562 13.875 5.51562 27.2969
Q5.51562 40.7656 12.1719 48.375
Q18.8438 56 30.6094 56" id="BitstreamVeraSans-Roman-6f"/>
      <path d="
M9.42188 75.9844
L18.4062 75.9844
L18.4062 0
L9.42188 0
z
" id="BitstreamVeraSans-Roman-6c"/>
      <path d="
M19.6719 64.7969
L19.6719 8.10938
L31.5938 8.10938
Q46.6875 8.10938 53.6875 14.9375
Q60.6875 21.7812 60.6875 36.5312
Q60.6875 51.1719 53.6875 57.9844
Q46.6875 64.7969 31.5938 64.7969
z

M9.8125 72.9062
L30.0781 72.9062
Q51.2656 72.9062 61.1719 64.0938
Q71.0938 55.2812 71.0938 36.5312
Q71.0938 17.6719 61.125 8.82812
Q51.1719 0 30.0781 0
L9.8125 0
z
" id="BitstreamVeraSans-Roman-44"/>
      <path d="
M45.4062 27.9844
Q45.4062 37.75 41.375 43.1094
Q37.3594 48.4844 30.0781 48.4844
Q22.8594 48.4844 18.8281 43.1094
Q14.7969 37.75 14.7969 27.9844
Q14.7969 18.2656 18.8281 12.8906
Q22.8594 7.51562 30.0781 7.51562
Q37.3594 7.51562 41.375 12.8906
Q45.4062 18.2656 45.4062 27.9844
M54.3906 6.78125
Q54.3906 -7.17188 48.1875 -13.9844
Q42 -20.7969 29.2031 -20.7969
Q24.4688 -20.7969 20.2656 -20.0938
Q16.0625 -19.3906 12.1094 -17.9219
L12.1094 -9.1875
Q16.0625 -11.3281 19.9219 -12.3438
Q23.7812 -13.375 27.7812 -13.375
Q36.625 -13.375 41.0156 -8.76562
Q45.4062 -4.15625 45.4062 5.17188
L45.4062 9.625
Q42.625 4.78125 38.2812 2.39062
Q33.9375 0 27.875 0
Q17.8281 0 11.6719 7.65625
Q5.51562 15.3281 5.51562 27.9844
Q5.51562 40.6719 11.6719 48.3281
Q17.8281 56 27.875 56
Q33.9375 56 38.2812 53.6094
Q42.625 51.2188 45.4062 46.3906
L45.4062 54.6875
L54.3906 54.6875
z
" id="BitstreamVeraSans-Roman-67"/>
      <path d="
M37.1094 75.9844
L37.1094 68.5
L28.5156 68.5
Q23.6875 68.5 21.7969 66.5469
Q19.9219 64.5938 19.9219 59.5156
L19.9219 54.6875
L34.7188 54.6875
L34.7188 47.7031
L19.9219 47.7031
L19.9219 0
L10.8906 0
L10.8906 47.7031
L2.29688 47.7031
L2.29688 54.6875
L10.8906 54.6875
L10.8906 58.5
Q10.8906 67.625 15.1406 71.7969
Q19.3906 75.9844 28.6094 75.9844
z
" id="BitstreamVeraSans-Roman-66"/>
     </defs>
     <g transform="translate(175.0234375 396.353125)scale(0.2 -0.2)">
      <use xlink:href="#BitstreamVeraSans-Roman-6c"/>
      <use x="27.783203125" xlink:href="#BitstreamVeraSans-Roman-6f"/>
      <use x="88.96484375" xlink:href="#BitstreamVeraSans-Roman-67"/>
      <use x="152.44140625" xlink:href="#BitstreamVeraSans-Roman-31"/>
      <use x="216.064453125" xlink:href="#BitstreamVeraSans-Roman-30"/>
      <use x="279.6875" xlink:href="#BitstreamVeraSans-Roman-20"/>
      <use x="311.474609375" xlink:href="#BitstreamVeraSans-Roman-6f"/>
      <use x="372.65625" xlink:href="#BitstreamVeraSans-Roman-66"/>
      <use x="407.861328125" xlink:href="#BitstreamVeraSans-Roman-20"/>
      <use x="439.6484375" xlink:href="#BitstreamVeraSans-Roman-44"/>
      <use x="516.650390625" xlink:href="#BitstreamVeraSans-Roman-66"/>
     </g>
    </g>
   </g>
   <g id="matplotlib.axis_2">
    <g id="ytick_1">
     <g id="line2d_50">
      <path clip-path="url(#p99b4b0da67)" d="
M7.2 352.8
L453.6 352.8" style="fill:none;stroke:#000000;stroke-dasharray:1.000000,3.000000;stroke-dashoffset:0.0;stroke-width:0.5;"/>
     </g>
     <g id="line2d_51">
      <defs>
       <path d="
M0 0
L4 0" id="m728421d6d4" style="stroke:#000000;stroke-width:0.5;"/>
      </defs>
      <g>
       <use style="stroke:#000000;stroke-width:0.5;" x="7.2" xlink:href="#m728421d6d4" y="352.8"/>
      </g>
     </g>
     <g id="line2d_52">
      <defs>
       <path d="
M0 0
L-4 0" id="mcb0005524f" style="stroke:#000000;stroke-width:0.5;"/>
      </defs>
      <g>
       <use style="stroke:#000000;stroke-width:0.5;" x="453.6" xlink:href="#mcb0005524f" y="352.8"/>
      </g>
     </g>
    </g>
    <g id="ytick_2">
     <g id="line2d_53">
      <path clip-path="url(#p99b4b0da67)" d="
M7.2 284.364
L453.6 284.364" style="fill:none;stroke:#000000;stroke-dasharray:1.000000,3.000000;stroke-dashoffset:0.0;stroke-width:0.5;"/>
     </g>
     <g id="line2d_54">
      <g>
       <use style="stroke:#000000;stroke-width:0.5;" x="7.2" xlink:href="#m728421d6d4" y="284.364356436"/>
      </g>
     </g>
     <g id="line2d_55">
      <g>
       <use style="stroke:#000000;stroke-width:0.5;" x="453.6" xlink:href="#mcb0005524f" y="284.364356436"/>
      </g>
     </g>
    </g>
    <g id="ytick_3">
     <g id="line2d_56">
      <path clip-path="url(#p99b4b0da67)" d="
M7.2 215.929
L453.6 215.929" style="fill:none;stroke:#000000;stroke-dasharray:1.000000,3.000000;stroke-dashoffset:0.0;stroke-width:0.5;"/>
     </g>
     <g id="line2d_57">
      <g>
       <use style="stroke:#000000;stroke-width:0.5;" x="7.2" xlink:href="#m728421d6d4" y="215.928712871"/>
      </g>
     </g>
     <g id="line2d_58">
      <g>
       <use style="stroke:#000000;stroke-width:0.5;" x="453.6" xlink:href="#mcb0005524f" y="215.928712871"/>
      </g>
     </g>
    </g>
    <g id="ytick_4">
     <g id="line2d_59">
      <path clip-path="url(#p99b4b0da67)" d="
M7.2 147.493
L453.6 147.493" style="fill:none;stroke:#000000;stroke-dasharray:1.000000,3.000000;stroke-dashoffset:0.0;stroke-width:0.5;"/>
     </g>
     <g id="line2d_60">
      <g>
       <use style="stroke:#000000;stroke-width:0.5;" x="7.2" xlink:href="#m728421d6d4" y="147.493069307"/>
      </g>
     </g>
     <g id="line2d_61">
      <g>
       <use style="stroke:#000000;stroke-width:0.5;" x="453.6" xlink:href="#mcb0005524f" y="147.493069307"/>
      </g>
     </g>
    </g>
    <g id="ytick_5">
     <g id="line2d_62">
      <path clip-path="url(#p99b4b0da67)" d="
M7.2 79.0574
L453.6 79.0574" style="fill:none;stroke:#000000;stroke-dasharray:1.000000,3.000000;stroke-dashoffset:0.0;stroke-width:0.5;"/>
     </g>
     <g id="line2d_63">
      <g>
       <use style="stroke:#000000;stroke-width:0.5;" x="7.2" xlink:href="#m728421d6d4" y="79.0574257426"/>
      </g>
     </g>
     <g id="line2d_64">
      <g>
       <use style="stroke:#000000;stroke-width:0.5;" x="453.6" xlink:href="#mcb0005524f" y="79.0574257426"/>
      </g>
     </g>
    </g>
    <g id="ytick_6">
     <g id="line2d_65">
      <path clip-path="url(#p99b4b0da67)" d="
M7.2 10.6218
L453.6 10.6218" style="fill:none;stroke:#000000;stroke-dasharray:1.000000,3.000000;stroke-dashoffset:0.0;stroke-width:0.5;"/>
     </g>
     <g id="line2d_66">
      <g>
       <use style="stroke:#000000;stroke-width:0.5;" x="7.2" xlink:href="#m728421d6d4" y="10.6217821782"/>
      </g>
     </g>
     <g id="line2d_67">
      <g>
       <use style="stroke:#000000;stroke-width:0.5;" x="453.6" xlink:href="#mcb0005524f" y="10.6217821782"/>
      </g>
     </g>
    </g>
   </g>
   <g id="patch_3">
    <path d="
M7.2 7.2
L453.6 7.2" style="fill:none;stroke:#000000;"/>
   </g>
   <g id="patch_4">
    <path d="
M453.6 352.8
L453.6 7.2" style="fill:none;stroke:#000000;"/>
   </g>
   <g id="patch_5">
    <path d="
M7.2 352.8
L453.6 352.8" style="fill:none;stroke:#000000;"/>
   </g>
   <g id="patch_6">
    <path d="
M7.2 352.8
L7.2 7.2" style="fill:none;stroke:#000000;"/>
   </g>
   <g id="text_10">
    <!-- {f1-f5}, 20-D -->
    <defs>
     <path d="
M12.5 -9.28125
L15.9219 -9.28125
Q22.75 -9.28125 24.8281 -7.17188
Q26.9062 -5.07812 26.9062 1.90625
L26.9062 14.0156
Q26.9062 21.625 29.0938 25.0938
Q31.2969 28.5625 36.7188 29.8906
Q31.2969 31.1094 29.0938 34.5625
Q26.9062 38.0312 26.9062 45.7031
L26.9062 57.8125
Q26.9062 64.75 24.8281 66.875
Q22.75 69 15.9219 69
L12.5 69
L12.5 75.9844
L15.5781 75.9844
Q27.7344 75.9844 31.8125 72.3906
Q35.8906 68.7969 35.8906 58.0156
L35.8906 46.2969
Q35.8906 39.0156 38.5156 36.2031
Q41.1562 33.4062 48.0938 33.4062
L51.125 33.4062
L51.125 26.4219
L48.0938 26.4219
Q41.1562 26.4219 38.5156 23.5781
Q35.8906 20.75 35.8906 13.375
L35.8906 1.70312
Q35.8906 -9.07812 31.8125 -12.6875
Q27.7344 -16.3125 15.5781 -16.3125
L12.5 -16.3125
z
" id="BitstreamVeraSans-Roman-7d"/>
     <path d="
M51.125 -9.28125
L51.125 -16.3125
L48.0938 -16.3125
Q35.9375 -16.3125 31.8125 -12.6875
Q27.6875 -9.07812 27.6875 1.70312
L27.6875 13.375
Q27.6875 20.75 25.0469 23.5781
Q22.4062 26.4219 15.4844 26.4219
L12.5 26.4219
L12.5 33.4062
L15.4844 33.4062
Q22.4688 33.4062 25.0781 36.2031
Q27.6875 39.0156 27.6875 46.2969
L27.6875 58.0156
Q27.6875 68.7969 31.8125 72.3906
Q35.9375 75.9844 48.0938 75.9844
L51.125 75.9844
L51.125 69
L47.7969 69
Q40.9219 69 38.8125 66.8438
Q36.7188 64.7031 36.7188 57.8125
L36.7188 45.7031
Q36.7188 38.0312 34.5 34.5625
Q32.2812 31.1094 26.9062 29.8906
Q32.3281 28.5625 34.5156 25.0938
Q36.7188 21.625 36.7188 14.0156
L36.7188 1.90625
Q36.7188 -4.98438 38.8125 -7.125
Q40.9219 -9.28125 47.7969 -9.28125
z
" id="BitstreamVeraSans-Roman-7b"/>
     <path d="
M11.7188 12.4062
L22.0156 12.4062
L22.0156 4
L14.0156 -11.625
L7.71875 -11.625
L11.7188 4
z
" id="BitstreamVeraSans-Roman-2c"/>
     <path d="
M10.7969 72.9062
L49.5156 72.9062
L49.5156 64.5938
L19.8281 64.5938
L19.8281 46.7344
Q21.9688 47.4688 24.1094 47.8281
Q26.2656 48.1875 28.4219 48.1875
Q40.625 48.1875 47.75 41.5
Q54.8906 34.8125 54.8906 23.3906
Q54.8906 11.625 47.5625 5.09375
Q40.2344 -1.42188 26.9062 -1.42188
Q22.3125 -1.42188 17.5469 -0.640625
Q12.7969 0.140625 7.71875 1.70312
L7.71875 11.625
Q12.1094 9.23438 16.7969 8.0625
Q21.4844 6.89062 26.7031 6.89062
Q35.1562 6.89062 40.0781 11.3281
Q45.0156 15.7656 45.0156 23.3906
Q45.0156 31 40.0781 35.4375
Q35.1562 39.8906 26.7031 39.8906
Q22.75 39.8906 18.8125 39.0156
Q14.8906 38.1406 10.7969 36.2812
z
" id="BitstreamVeraSans-Roman-35"/>
    </defs>
    <g transform="translate(312.87825 345.888)scale(0.2 -0.2)">
     <use xlink:href="#BitstreamVeraSans-Roman-7b"/>
     <use x="63.623046875" xlink:href="#BitstreamVeraSans-Roman-66"/>
     <use x="98.828125" xlink:href="#BitstreamVeraSans-Roman-31"/>
     <use x="162.451171875" xlink:href="#BitstreamVeraSans-Roman-2d"/>
     <use x="198.53515625" xlink:href="#BitstreamVeraSans-Roman-66"/>
     <use x="233.740234375" xlink:href="#BitstreamVeraSans-Roman-35"/>
     <use x="297.36328125" xlink:href="#BitstreamVeraSans-Roman-7d"/>
     <use x="360.986328125" xlink:href="#BitstreamVeraSans-Roman-2c"/>
     <use x="392.7734375" xlink:href="#BitstreamVeraSans-Roman-20"/>
     <use x="424.560546875" xlink:href="#BitstreamVeraSans-Roman-32"/>
     <use x="488.18359375" xlink:href="#BitstreamVeraSans-Roman-30"/>
     <use x="551.806640625" xlink:href="#BitstreamVeraSans-Roman-2d"/>
     <use x="587.890625" xlink:href="#BitstreamVeraSans-Roman-44"/>
    </g>
   </g>
   <g id="text_11">
    <!-- 0.0.0 -->
    <defs>
     <path d="
M10.6875 12.4062
L21 12.4062
L21 0
L10.6875 0
z
" id="BitstreamVeraSans-Roman-2e"/>
    </defs>
    <g style="fill:#808080;" transform="translate(218.33984375 347.2643125)scale(0.1 -0.1)">
     <use xlink:href="#BitstreamVeraSans-Roman-30"/>
     <use x="63.623046875" xlink:href="#BitstreamVeraSans-Roman-2e"/>
     <use x="95.41015625" xlink:href="#BitstreamVeraSans-Roman-30"/>
     <use x="159.033203125" xlink:href="#BitstreamVeraSans-Roman-2e"/>
     <use x="190.8203125" xlink:href="#BitstreamVeraSans-Roman-30"/>
    </g>
   </g>
  </g>
 </g>
 <defs>
  <clipPath id="p99b4b0da67">
   <rect height="345.6" width="446.4" x="7.2" y="7.2"/>
  </clipPath>
 </defs>
</svg>
