<?xml version="1.0" encoding="utf-8" standalone="no"?>
<!DOCTYPE svg PUBLIC "-//W3C//DTD SVG 1.1//EN"
  "http://www.w3.org/Graphics/SVG/1.1/DTD/svg11.dtd">
<!-- Created with matplotlib (http://matplotlib.org/) -->
<svg height="407pt" version="1.1" viewBox="0 0 460 407" width="460pt" xmlns="http://www.w3.org/2000/svg" xmlns:xlink="http://www.w3.org/1999/xlink">
 <defs>
  <style type="text/css">
*{stroke-linecap:butt;stroke-linejoin:round;}
  </style>
 </defs>
 <g id="figure_1">
  <g id="patch_1">
   <path d="
M0 407.712
L460.8 407.712
L460.8 0
L0 0
z
" style="fill:#ffffff;"/>
  </g>
  <g id="axes_1">
   <g id="patch_2">
    <path d="
M7.2 352.8
L453.6 352.8
L453.6 7.2
L7.2 7.2
z
" style="fill:#ffffff;"/>
   </g>
   <g id="line2d_1">
    <path clip-path="url(#p99b4b0da67)" d="
M-154.405 352.8
M-1 96.1663
L7.0865 96.1663
L7.0865 90.4634
L7.0865 90.4634
L7.0865 84.7604
L7.0865 84.7604
L7.0865 79.0574
L34.908 79.0574
L34.908 73.3545
L158.658 73.3545
L158.658 67.6515
L162.252 67.6515
L162.252 61.9485
L164.627 61.9485
L164.627 56.2455
L199.948 56.2455
L199.948 50.5426
L202.973 50.5426
L202.973 44.8396
L205.332 44.8396
L205.332 39.1366
L206.368 39.1366
L206.368 33.4337
L208.325 33.4337
L208.325 27.7307
L210.611 27.7307
L210.611 22.0277
L222.906 22.0277
L222.906 16.3248
L232.345 16.3248
L232.345 10.6218
L232.345 10.6218
L232.345 10.6218
L453.6 10.6218" style="fill:none;stroke:#ff0000;stroke-linecap:square;stroke-width:3.0;"/>
   </g>
   <g id="line2d_2">
    <path clip-path="url(#p99b4b0da67)" d="
M246.569 352.8
L246.569 347.097
L254.375 347.097
L254.375 341.394
L254.375 341.394
L254.375 335.691
L254.375 335.691
L254.375 329.988
L254.375 329.988
L254.375 324.285
L254.375 324.285
L254.375 318.582
L254.375 318.582
L254.375 312.879
L254.375 312.879
L254.375 307.176
L254.375 307.176
L254.375 301.473
L254.375 301.473
L254.375 295.77
L254.375 295.77
L254.375 290.067
L254.375 290.067
L254.375 284.364
L254.375 284.364
L254.375 278.661
L254.375 278.661
L254.375 272.958
L254.375 272.958
L254.375 267.255
L254.375 267.255
L254.375 261.552
L256.467 261.552
L256.467 255.85
L259.556 255.85
L259.556 250.147
L261.013 250.147
L261.013 244.444
L264.65 244.444
L264.65 238.741
L265.664 238.741
L265.664 233.038
L267.068 233.038
L267.068 227.335
L268.479 227.335
L268.479 221.632
L271.82 221.632
L271.82 215.929
L277.92 215.929
L277.92 210.226
L280.655 210.226
L280.655 204.523
L282.042 204.523
L282.042 198.82
L286.849 198.82
L286.849 193.117
L286.856 193.117
L286.856 187.414
L287.022 187.414
L287.022 181.711
L287.259 181.711
L287.259 176.008
L292.464 176.008
L292.464 170.305
L295.454 170.305
L295.454 164.602
L299.235 164.602
L299.235 158.899
L300.971 158.899
L300.971 153.196
L307.42 153.196
L307.42 147.493
L308.165 147.493
L308.165 141.79
L309.924 141.79
L309.924 136.087
L312.49 136.087
L312.49 130.384
L323.837 130.384
L323.837 124.681
L326.488 124.681
L326.488 118.978
L326.5 118.978
L326.5 113.275
L332.26 113.275
L332.26 107.572
L332.364 107.572
L332.364 101.869
L333.489 101.869
L333.489 96.1663
L336.14 96.1663
L336.14 90.4634
L339.159 90.4634
L339.159 84.7604
L340.322 84.7604
L340.322 79.0574
L341.732 79.0574
L341.732 73.3545
L343.112 73.3545
L343.112 67.6515
L343.219 67.6515
L343.219 61.9485
L343.446 61.9485
L343.446 56.2455
L346.3 56.2455
L346.3 50.5426
L348.22 50.5426
L348.22 44.8396
L349.879 44.8396
L349.879 39.1366
L352.588 39.1366
L352.588 33.4337
L358.088 33.4337
L358.088 27.7307
L363.22 27.7307
L363.22 22.0277
L363.861 22.0277
L363.861 16.3248
L368.564 16.3248
L368.564 10.6218
L368.564 10.6218
L368.564 10.6218
L453.6 10.6218" style="fill:none;stroke:#00bfbf;stroke-linecap:square;"/>
   </g>
   <g id="line2d_3">
    <path clip-path="url(#p99b4b0da67)" d="
M246.569 352.8
L246.569 347.097
L248.017 347.097
L248.017 341.394
L249.517 341.394
L249.517 335.691
L254.155 335.691
L254.155 329.988
L254.375 329.988
L254.375 324.285
L254.375 324.285
L254.375 318.582
L254.375 318.582
L254.375 312.879
L254.375 312.879
L254.375 307.176
L254.375 307.176
L254.375 301.473
L254.375 301.473
L254.375 295.77
L254.375 295.77
L254.375 290.067
L254.375 290.067
L254.375 284.364
L254.375 284.364
L254.375 278.661
L254.375 278.661
L254.375 272.958
L254.375 272.958
L254.375 267.255
L254.375 267.255
L254.375 261.552
L254.375 261.552
L254.375 255.85
L254.375 255.85
L254.375 250.147
L254.375 250.147
L254.375 244.444
L259.556 244.444
L259.556 238.741
L264.65 238.741
L264.65 233.038
L265.505 233.038
L265.505 227.335
L268.479 227.335
L268.479 221.632
L271.82 221.632
L271.82 215.929
L275.65 215.929
L275.65 210.226
L277.92 210.226
L277.92 204.523
L278.947 204.523
L278.947 198.82
L279.824 198.82
L279.824 193.117
L282.588 193.117
L282.588 187.414
L283.194 187.414
L283.194 181.711
L286.849 181.711
L286.849 176.008
L287.259 176.008
L287.259 170.305
L292.462 170.305
L292.462 164.602
L296.738 164.602
L296.738 158.899
L299.235 158.899
L299.235 153.196
L300.971 153.196
L300.971 147.493
L301.683 147.493
L301.683 141.79
L304.131 141.79
L304.131 136.087
L308.694 136.087
L308.694 130.384
L308.806 130.384
L308.806 124.681
L309.924 124.681
L309.924 118.978
L315.97 118.978
L315.97 113.275
L319.441 113.275
L319.441 107.572
L322.76 107.572
L322.76 101.869
L323.837 101.869
L323.837 96.1663
L332.607 96.1663
L332.607 90.4634
L333.489 90.4634
L333.489 84.7604
L334.091 84.7604
L334.091 79.0574
L336.14 79.0574
L336.14 73.3545
L338.889 73.3545
L338.889 67.6515
L340.322 67.6515
L340.322 61.9485
L343.112 61.9485
L343.112 56.2455
L343.219 56.2455
L343.219 50.5426
L343.446 50.5426
L343.446 44.8396
L343.734 44.8396
L343.734 39.1366
L349.879 39.1366
L349.879 33.4337
L357.854 33.4337
L357.854 27.7307
L361.256 27.7307
L361.256 22.0277
L361.476 22.0277
L361.476 16.3248
L361.636 16.3248
L361.636 10.6218
L361.636 10.6218
L361.636 10.6218
L453.6 10.6218" style="fill:none;stroke:#bf00bf;stroke-linecap:square;"/>
   </g>
   <g id="line2d_4">
    <path clip-path="url(#p99b4b0da67)" d="
M239.853 352.8
L239.853 347.097
L246.569 347.097
L246.569 341.394
L248.017 341.394
L248.017 335.691
L248.304 335.691
L248.304 329.988
L253.686 329.988
L253.686 324.285
L253.795 324.285
L253.795 318.582
L254.375 318.582
L254.375 312.879
L254.375 312.879
L254.375 307.176
L254.375 307.176
L254.375 301.473
L254.375 301.473
L254.375 295.77
L254.375 295.77
L254.375 290.067
L254.375 290.067
L254.375 284.364
L254.375 284.364
L254.375 278.661
L254.375 278.661
L254.375 272.958
L254.375 272.958
L254.375 267.255
L254.375 267.255
L254.375 261.552
L254.375 261.552
L254.375 255.85
L254.375 255.85
L254.375 250.147
L254.375 250.147
L254.375 244.444
L254.375 244.444
L254.375 238.741
L254.375 238.741
L254.375 233.038
L257.58 233.038
L257.58 227.335
L259.556 227.335
L259.556 221.632
L260.494 221.632
L260.494 215.929
L260.532 215.929
L260.532 210.226
L260.558 210.226
L260.558 204.523
L260.728 204.523
L260.728 198.82
L261.418 198.82
L261.418 193.117
L263.386 193.117
L263.386 187.414
L264.05 187.414
L264.05 181.711
L265.518 181.711
L265.518 176.008
L270.97 176.008
L270.97 170.305
L271.711 170.305
L271.711 164.602
L272.055 164.602
L272.055 158.899
L273.984 158.899
L273.984 153.196
L274.043 153.196
L274.043 147.493
L286.849 147.493
L286.849 141.79
L291.58 141.79
L291.58 136.087
L297.851 136.087
L297.851 130.384
L298.768 130.384
L298.768 124.681
L299.235 124.681
L299.235 118.978
L301.371 118.978
L301.371 113.275
L307.766 113.275
L307.766 107.572
L308.694 107.572
L308.694 101.869
L308.806 101.869
L308.806 96.1663
L309.924 96.1663
L309.924 90.4634
L315.324 90.4634
L315.324 84.7604
L317.727 84.7604
L317.727 79.0574
L320.185 79.0574
L320.185 73.3545
L322.76 73.3545
L322.76 67.6515
L324.009 67.6515
L324.009 61.9485
L324.73 61.9485
L324.73 56.2455
L331.066 56.2455
L331.066 50.5426
L332.157 50.5426
L332.157 44.8396
L334.353 44.8396
L334.353 39.1366
L340.723 39.1366
L340.723 33.4337
L343.287 33.4337
L343.287 27.7307
L348.53 27.7307
L348.53 22.0277
L351.73 22.0277
L351.73 16.3248
L357.141 16.3248
L357.141 10.6218
L357.141 10.6218
L357.141 10.6218
L453.6 10.6218" style="fill:none;stroke:#000000;stroke-linecap:square;"/>
   </g>
   <g id="line2d_5">
    <path clip-path="url(#p99b4b0da67)" d="
M222.866 352.8
L222.866 347.097
L236.355 347.097
L236.355 341.394
L238.005 341.394
L238.005 335.691
L238.383 335.691
L238.383 329.988
L240.818 329.988
L240.818 324.285
L242.488 324.285
L242.488 318.582
L244.088 318.582
L244.088 312.879
L245.389 312.879
L245.389 307.176
L245.876 307.176
L245.876 301.473
L246.66 301.473
L246.66 295.77
L250.415 295.77
L250.415 290.067
L250.624 290.067
L250.624 284.364
L251.826 284.364
L251.826 278.661
L252.24 278.661
L252.24 272.958
L252.955 272.958
L252.955 267.255
L253.857 267.255
L253.857 261.552
L254.375 261.552
L254.375 255.85
L254.375 255.85
L254.375 250.147
L254.375 250.147
L254.375 244.444
L254.375 244.444
L254.375 238.741
L254.375 238.741
L254.375 233.038
L254.375 233.038
L254.375 227.335
L254.375 227.335
L254.375 221.632
L254.375 221.632
L254.375 215.929
L254.375 215.929
L254.375 210.226
L254.375 210.226
L254.375 204.523
L254.375 204.523
L254.375 198.82
L254.375 198.82
L254.375 193.117
L254.375 193.117
L254.375 187.414
L254.375 187.414
L254.375 181.711
L254.375 181.711
L254.375 176.008
L255.91 176.008
L255.91 170.305
L256.528 170.305
L256.528 164.602
L257.047 164.602
L257.047 158.899
L257.997 158.899
L257.997 153.196
L260.567 153.196
L260.567 147.493
L261.598 147.493
L261.598 141.79
L261.814 141.79
L261.814 136.087
L263.683 136.087
L263.683 130.384
L264.096 130.384
L264.096 124.681
L269.219 124.681
L269.219 118.978
L274.043 118.978
L274.043 113.275
L276.159 113.275
L276.159 107.572
L278.042 107.572
L278.042 101.869
L278.308 101.869
L278.308 96.1663
L278.368 96.1663
L278.368 90.4634
L279.484 90.4634
L279.484 84.7604
L282.4 84.7604
L282.4 79.0574
L284.267 79.0574
L284.267 73.3545
L284.394 73.3545
L284.394 67.6515
L284.578 67.6515
L284.578 61.9485
L284.697 61.9485
L284.697 56.2455
L288.393 56.2455
L288.393 50.5426
L293.931 50.5426
L293.931 44.8396
L296.56 44.8396
L296.56 39.1366
L298.106 39.1366
L298.106 33.4337
L298.987 33.4337
L298.987 27.7307
L308.674 27.7307
L308.674 22.0277
L310.798 22.0277
L310.798 16.3248
L335.982 16.3248
L335.982 10.6218
L335.982 10.6218
L335.982 10.6218
L453.6 10.6218" style="fill:none;stroke:#00bfbf;stroke-linecap:square;"/>
   </g>
   <g id="line2d_6">
    <path clip-path="url(#p99b4b0da67)" d="
M-3.3682 352.8
M-1 347.097
L158.658 347.097
L158.658 341.394
L164.627 341.394
L164.627 335.691
L165.248 335.691
L165.248 329.988
L170.7 329.988
L170.7 324.285
L180.032 324.285
L180.032 318.582
L181.244 318.582
L181.244 312.879
L181.905 312.879
L181.905 307.176
L182.875 307.176
L182.875 301.473
L184.694 301.473
L184.694 295.77
L187.694 295.77
L187.694 290.067
L188.304 290.067
L188.304 284.364
L193.662 284.364
L193.662 278.661
L201.576 278.661
L201.576 272.958
L202.835 272.958
L202.835 267.255
L205.332 267.255
L205.332 261.552
L205.513 261.552
L205.513 255.85
L206.368 255.85
L206.368 250.147
L206.803 250.147
L206.803 244.444
L206.841 244.444
L206.841 238.741
L208.177 238.741
L208.177 233.038
L210.611 233.038
L210.611 227.335
L210.758 227.335
L210.758 221.632
L213.569 221.632
L213.569 215.929
L213.714 215.929
L213.714 210.226
L215.967 210.226
L215.967 204.523
L216.068 204.523
L216.068 198.82
L216.574 198.82
L216.574 193.117
L217.238 193.117
L217.238 187.414
L221.114 187.414
L221.114 181.711
L221.837 181.711
L221.837 176.008
L222.609 176.008
L222.609 170.305
L222.975 170.305
L222.975 164.602
L223.293 164.602
L223.293 158.899
L224.925 158.899
L224.925 153.196
L225.55 153.196
L225.55 147.493
L225.666 147.493
L225.666 141.79
L227.3 141.79
L227.3 136.087
L227.508 136.087
L227.508 130.384
L227.838 130.384
L227.838 124.681
L229.655 124.681
L229.655 118.978
L230.178 118.978
L230.178 113.275
L230.322 113.275
L230.322 107.572
L230.622 107.572
L230.622 101.869
L230.689 101.869
L230.689 96.1663
L232.345 96.1663
L232.345 90.4634
L232.522 90.4634
L232.522 84.7604
L232.946 84.7604
L232.946 79.0574
L233.219 79.0574
L233.219 73.3545
L234.363 73.3545
L234.363 67.6515
L234.49 67.6515
L234.49 61.9485
L234.493 61.9485
L234.493 56.2455
L234.672 56.2455
L234.672 50.5426
L234.685 50.5426
L234.685 44.8396
L234.689 44.8396
L234.689 39.1366
L234.717 39.1366
L234.717 33.4337
L235.376 33.4337
L235.376 27.7307
L238.394 27.7307
L238.394 22.0277
L269.042 22.0277
L269.042 16.3248
L277.835 16.3248
L277.835 10.6218
L277.835 10.6218
L277.835 10.6218
L453.6 10.6218" style="fill:none;stroke:#bf00bf;stroke-linecap:square;"/>
   </g>
   <g id="line2d_7">
    <path clip-path="url(#p99b4b0da67)" d="
M-154.405 352.8
M-1 210.226
L7.0865 210.226
L7.0865 204.523
L7.0865 204.523
L7.0865 198.82
L36.2301 198.82
L36.2301 193.117
L59.8508 193.117
L59.8508 187.414
L102.181 187.414
L102.181 181.711
L149.884 181.711
L149.884 176.008
L158.658 176.008
L158.658 170.305
L164.045 170.305
L164.045 164.602
L164.627 164.602
L164.627 158.899
L176.188 158.899
L176.188 153.196
L185.551 153.196
L185.551 147.493
L185.72 147.493
L185.72 141.79
L186.982 141.79
L186.982 136.087
L189.641 136.087
L189.641 130.384
L195.22 130.384
L195.22 124.681
L195.813 124.681
L195.813 118.978
L197.088 118.978
L197.088 113.275
L205.332 113.275
L205.332 107.572
L206.368 107.572
L206.368 101.869
L210.611 101.869
L210.611 96.1663
L213.934 96.1663
L213.934 90.4634
L215.032 90.4634
L215.032 84.7604
L217.238 84.7604
L217.238 79.0574
L221.837 79.0574
L221.837 73.3545
L222.906 73.3545
L222.906 67.6515
L225.666 67.6515
L225.666 61.9485
L230.689 61.9485
L230.689 56.2455
L232.345 56.2455
L232.345 50.5426
L232.825 50.5426
L232.825 44.8396
L232.825 44.8396
L232.825 39.1366
L232.825 39.1366
L232.825 33.4337
L232.825 33.4337
L232.825 27.7307
L232.83 27.7307
L232.83 22.0277
L232.855 22.0277
L232.855 16.3248
L236.781 16.3248
L236.781 10.6218
L236.781 10.6218
L236.781 10.6218
L453.6 10.6218" style="fill:none;stroke:#000000;stroke-linecap:square;"/>
   </g>
   <g id="line2d_8">
    <path clip-path="url(#p99b4b0da67)" d="
M-154.405 352.8
M-1 158.899
L7.0865 158.899
L7.0865 153.196
L7.0865 153.196
L7.0865 147.493
L18.9106 147.493
L18.9106 141.79
L26.7138 141.79
L26.7138 136.087
L64.0451 136.087
L64.0451 130.384
L78.9998 130.384
L78.9998 124.681
L109.202 124.681
L109.202 118.978
L158.658 118.978
L158.658 113.275
L164.627 113.275
L164.627 107.572
L205.332 107.572
L205.332 101.869
L206.368 101.869
L206.368 96.1663
L210.611 96.1663
L210.611 90.4634
L215.032 90.4634
L215.032 84.7604
L216.891 84.7604
L216.891 79.0574
L221.837 79.0574
L221.837 73.3545
L222.906 73.3545
L222.906 67.6515
L225.666 67.6515
L225.666 61.9485
L230.689 61.9485
L230.689 56.2455
L232.345 56.2455
L232.345 50.5426
L232.825 50.5426
L232.825 44.8396
L232.825 44.8396
L232.825 39.1366
L232.825 39.1366
L232.825 33.4337
L232.825 33.4337
L232.825 27.7307
L232.825 27.7307
L232.825 22.0277
L232.825 22.0277
L232.825 16.3248
L236.781 16.3248
L236.781 10.6218
L236.781 10.6218
L236.781 10.6218
L453.6 10.6218" style="fill:none;stroke:#00bfbf;stroke-linecap:square;"/>
   </g>
   <g id="line2d_9">
    <path clip-path="url(#p99b4b0da67)" d="
M-154.405 352.8
M-1 96.1663
L7.0865 96.1663
L7.0865 90.4634
L7.0865 90.4634
L7.0865 84.7604
L7.0865 84.7604
L7.0865 79.0574
L158.658 79.0574
L158.658 73.3545
L162.252 73.3545
L162.252 67.6515
L164.627 67.6515
L164.627 61.9485
L171.717 61.9485
L171.717 56.2455
L199.948 56.2455
L199.948 50.5426
L202.973 50.5426
L202.973 44.8396
L205.332 44.8396
L205.332 39.1366
L206.368 39.1366
L206.368 33.4337
L208.325 33.4337
L208.325 27.7307
L210.611 27.7307
L210.611 22.0277
L222.906 22.0277
L222.906 16.3248
L232.345 16.3248
L232.345 10.6218
L232.345 10.6218
L232.345 10.6218
L453.6 10.6218" style="fill:none;stroke:#bf00bf;stroke-linecap:square;"/>
   </g>
   <g id="matplotlib.axis_1">
    <g id="xtick_1"/>
    <g id="xtick_2">
     <g id="line2d_10">
      <path clip-path="url(#p99b4b0da67)" d="
M59.6175 352.8
L59.6175 7.2" style="fill:none;stroke:#000000;stroke-dasharray:1.000000,3.000000;stroke-dashoffset:0.0;stroke-width:0.5;"/>
     </g>
     <g id="line2d_11">
      <defs>
       <path d="
M0 0
L0 -4" id="m93b0483c22" style="stroke:#000000;stroke-width:0.5;"/>
      </defs>
      <g>
       <use style="stroke:#000000;stroke-width:0.5;" x="59.6174973142" xlink:href="#m93b0483c22" y="352.8"/>
      </g>
     </g>
     <g id="line2d_12">
      <defs>
       <path d="
M0 0
L0 4" id="m741efc42ff" style="stroke:#000000;stroke-width:0.5;"/>
      </defs>
      <g>
       <use style="stroke:#000000;stroke-width:0.5;" x="59.6174973142" xlink:href="#m741efc42ff" y="7.2"/>
      </g>
     </g>
     <g id="text_1">
      <!-- -6 -->
      <defs>
       <path d="
M33.0156 40.375
Q26.375 40.375 22.4844 35.8281
Q18.6094 31.2969 18.6094 23.3906
Q18.6094 15.5312 22.4844 10.9531
Q26.375 6.39062 33.0156 6.39062
Q39.6562 6.39062 43.5312 10.9531
Q47.4062 15.5312 47.4062 23.3906
Q47.4062 31.2969 43.5312 35.8281
Q39.6562 40.375 33.0156 40.375
M52.5938 71.2969
L52.5938 62.3125
Q48.875 64.0625 45.0938 64.9844
Q41.3125 65.9219 37.5938 65.9219
Q27.8281 65.9219 22.6719 59.3281
Q17.5312 52.7344 16.7969 39.4062
Q19.6719 43.6562 24.0156 45.9219
Q28.375 48.1875 33.5938 48.1875
Q44.5781 48.1875 50.9531 41.5156
Q57.3281 34.8594 57.3281 23.3906
Q57.3281 12.1562 50.6875 5.35938
Q44.0469 -1.42188 33.0156 -1.42188
Q20.3594 -1.42188 13.6719 8.26562
Q6.98438 17.9688 6.98438 36.375
Q6.98438 53.6562 15.1875 63.9375
Q23.3906 74.2188 37.2031 74.2188
Q40.9219 74.2188 44.7031 73.4844
Q48.4844 72.75 52.5938 71.2969" id="BitstreamVeraSans-Roman-36"/>
       <path d="
M4.89062 31.3906
L31.2031 31.3906
L31.2031 23.3906
L4.89062 23.3906
z
" id="BitstreamVeraSans-Roman-2d"/>
      </defs>
      <g transform="translate(50.7659348142 371.996875)scale(0.2 -0.2)">
       <use xlink:href="#BitstreamVeraSans-Roman-2d"/>
       <use x="36.083984375" xlink:href="#BitstreamVeraSans-Roman-36"/>
      </g>
     </g>
    </g>
    <g id="xtick_3">
     <g id="line2d_13">
      <path clip-path="url(#p99b4b0da67)" d="
M112.148 352.8
L112.148 7.2" style="fill:none;stroke:#000000;stroke-dasharray:1.000000,3.000000;stroke-dashoffset:0.0;stroke-width:0.5;"/>
     </g>
     <g id="line2d_14">
      <g>
       <use style="stroke:#000000;stroke-width:0.5;" x="112.148497672" xlink:href="#m93b0483c22" y="352.8"/>
      </g>
     </g>
     <g id="line2d_15">
      <g>
       <use style="stroke:#000000;stroke-width:0.5;" x="112.148497672" xlink:href="#m741efc42ff" y="7.2"/>
      </g>
     </g>
     <g id="text_2">
      <!-- -4 -->
      <defs>
       <path d="
M37.7969 64.3125
L12.8906 25.3906
L37.7969 25.3906
z

M35.2031 72.9062
L47.6094 72.9062
L47.6094 25.3906
L58.0156 25.3906
L58.0156 17.1875
L47.6094 17.1875
L47.6094 0
L37.7969 0
L37.7969 17.1875
L4.89062 17.1875
L4.89062 26.7031
z
" id="BitstreamVeraSans-Roman-34"/>
      </defs>
      <g transform="translate(103.228185172 371.996875)scale(0.2 -0.2)">
       <use xlink:href="#BitstreamVeraSans-Roman-2d"/>
       <use x="36.083984375" xlink:href="#BitstreamVeraSans-Roman-34"/>
      </g>
     </g>
    </g>
    <g id="xtick_4">
     <g id="line2d_16">
      <path clip-path="url(#p99b4b0da67)" d="
M164.679 352.8
L164.679 7.2" style="fill:none;stroke:#000000;stroke-dasharray:1.000000,3.000000;stroke-dashoffset:0.0;stroke-width:0.5;"/>
     </g>
     <g id="line2d_17">
      <g>
       <use style="stroke:#000000;stroke-width:0.5;" x="164.67949803" xlink:href="#m93b0483c22" y="352.8"/>
      </g>
     </g>
     <g id="line2d_18">
      <g>
       <use style="stroke:#000000;stroke-width:0.5;" x="164.67949803" xlink:href="#m741efc42ff" y="7.2"/>
      </g>
     </g>
     <g id="text_3">
      <!-- -2 -->
      <defs>
       <path d="
M19.1875 8.29688
L53.6094 8.29688
L53.6094 0
L7.32812 0
L7.32812 8.29688
Q12.9375 14.1094 22.625 23.8906
Q32.3281 33.6875 34.8125 36.5312
Q39.5469 41.8438 41.4219 45.5312
Q43.3125 49.2188 43.3125 52.7812
Q43.3125 58.5938 39.2344 62.25
Q35.1562 65.9219 28.6094 65.9219
Q23.9688 65.9219 18.8125 64.3125
Q13.6719 62.7031 7.8125 59.4219
L7.8125 69.3906
Q13.7656 71.7812 18.9375 73
Q24.125 74.2188 28.4219 74.2188
Q39.75 74.2188 46.4844 68.5469
Q53.2188 62.8906 53.2188 53.4219
Q53.2188 48.9219 51.5312 44.8906
Q49.8594 40.875 45.4062 35.4062
Q44.1875 33.9844 37.6406 27.2188
Q31.1094 20.4531 19.1875 8.29688" id="BitstreamVeraSans-Roman-32"/>
      </defs>
      <g transform="translate(156.19981053 371.996875)scale(0.2 -0.2)">
       <use xlink:href="#BitstreamVeraSans-Roman-2d"/>
       <use x="36.083984375" xlink:href="#BitstreamVeraSans-Roman-32"/>
      </g>
     </g>
    </g>
    <g id="xtick_5">
     <g id="line2d_19">
      <path clip-path="url(#p99b4b0da67)" d="
M217.21 352.8
L217.21 7.2" style="fill:none;stroke:#000000;stroke-dasharray:1.000000,3.000000;stroke-dashoffset:0.0;stroke-width:0.5;"/>
     </g>
     <g id="line2d_20">
      <g>
       <use style="stroke:#000000;stroke-width:0.5;" x="217.210498389" xlink:href="#m93b0483c22" y="352.8"/>
      </g>
     </g>
     <g id="line2d_21">
      <g>
       <use style="stroke:#000000;stroke-width:0.5;" x="217.210498389" xlink:href="#m741efc42ff" y="7.2"/>
      </g>
     </g>
     <g id="text_4">
      <!-- 0 -->
      <defs>
       <path d="
M31.7812 66.4062
Q24.1719 66.4062 20.3281 58.9062
Q16.5 51.4219 16.5 36.375
Q16.5 21.3906 20.3281 13.8906
Q24.1719 6.39062 31.7812 6.39062
Q39.4531 6.39062 43.2812 13.8906
Q47.125 21.3906 47.125 36.375
Q47.125 51.4219 43.2812 58.9062
Q39.4531 66.4062 31.7812 66.4062
M31.7812 74.2188
Q44.0469 74.2188 50.5156 64.5156
Q56.9844 54.8281 56.9844 36.375
Q56.9844 17.9688 50.5156 8.26562
Q44.0469 -1.42188 31.7812 -1.42188
Q19.5312 -1.42188 13.0625 8.26562
Q6.59375 17.9688 6.59375 36.375
Q6.59375 54.8281 13.0625 64.5156
Q19.5312 74.2188 31.7812 74.2188" id="BitstreamVeraSans-Roman-30"/>
      </defs>
      <g transform="translate(212.171435889 371.996875)scale(0.2 -0.2)">
       <use xlink:href="#BitstreamVeraSans-Roman-30"/>
      </g>
     </g>
    </g>
    <g id="xtick_6">
     <g id="line2d_22">
      <path clip-path="url(#p99b4b0da67)" d="
M269.741 352.8
L269.741 7.2" style="fill:none;stroke:#000000;stroke-dasharray:1.000000,3.000000;stroke-dashoffset:0.0;stroke-width:0.5;"/>
     </g>
     <g id="line2d_23">
      <g>
       <use style="stroke:#000000;stroke-width:0.5;" x="269.741498747" xlink:href="#m93b0483c22" y="352.8"/>
      </g>
     </g>
     <g id="line2d_24">
      <g>
       <use style="stroke:#000000;stroke-width:0.5;" x="269.741498747" xlink:href="#m741efc42ff" y="7.2"/>
      </g>
     </g>
     <g id="text_5">
      <!-- 2 -->
      <g transform="translate(265.113373747 371.996875)scale(0.2 -0.2)">
       <use xlink:href="#BitstreamVeraSans-Roman-32"/>
      </g>
     </g>
    </g>
    <g id="xtick_7">
     <g id="line2d_25">
      <path clip-path="url(#p99b4b0da67)" d="
M322.272 352.8
L322.272 7.2" style="fill:none;stroke:#000000;stroke-dasharray:1.000000,3.000000;stroke-dashoffset:0.0;stroke-width:0.5;"/>
     </g>
     <g id="line2d_26">
      <g>
       <use style="stroke:#000000;stroke-width:0.5;" x="322.272499105" xlink:href="#m93b0483c22" y="352.8"/>
      </g>
     </g>
     <g id="line2d_27">
      <g>
       <use style="stroke:#000000;stroke-width:0.5;" x="322.272499105" xlink:href="#m741efc42ff" y="7.2"/>
      </g>
     </g>
     <g id="text_6">
      <!-- 4 -->
      <g transform="translate(316.959999105 371.996875)scale(0.2 -0.2)">
       <use xlink:href="#BitstreamVeraSans-Roman-34"/>
      </g>
     </g>
    </g>
    <g id="xtick_8">
     <g id="line2d_28">
      <path clip-path="url(#p99b4b0da67)" d="
M374.803 352.8
L374.803 7.2" style="fill:none;stroke:#000000;stroke-dasharray:1.000000,3.000000;stroke-dashoffset:0.0;stroke-width:0.5;"/>
     </g>
     <g id="line2d_29">
      <g>
       <use style="stroke:#000000;stroke-width:0.5;" x="374.803499463" xlink:href="#m93b0483c22" y="352.8"/>
      </g>
     </g>
     <g id="line2d_30">
      <g>
       <use style="stroke:#000000;stroke-width:0.5;" x="374.803499463" xlink:href="#m741efc42ff" y="7.2"/>
      </g>
     </g>
     <g id="text_7">
      <!-- 6 -->
      <g transform="translate(369.769124463 371.996875)scale(0.2 -0.2)">
       <use xlink:href="#BitstreamVeraSans-Roman-36"/>
      </g>
     </g>
    </g>
    <g id="xtick_9">
     <g id="line2d_31">
      <path clip-path="url(#p99b4b0da67)" d="
M427.334 352.8
L427.334 7.2" style="fill:none;stroke:#000000;stroke-dasharray:1.000000,3.000000;stroke-dashoffset:0.0;stroke-width:0.5;"/>
     </g>
     <g id="line2d_32">
      <g>
       <use style="stroke:#000000;stroke-width:0.5;" x="427.334499821" xlink:href="#m93b0483c22" y="352.8"/>
      </g>
     </g>
     <g id="line2d_33">
      <g>
       <use style="stroke:#000000;stroke-width:0.5;" x="427.334499821" xlink:href="#m741efc42ff" y="7.2"/>
      </g>
     </g>
     <g id="text_8">
      <!-- 8 -->
      <defs>
       <path d="
M31.7812 34.625
Q24.75 34.625 20.7188 30.8594
Q16.7031 27.0938 16.7031 20.5156
Q16.7031 13.9219 20.7188 10.1562
Q24.75 6.39062 31.7812 6.39062
Q38.8125 6.39062 42.8594 10.1719
Q46.9219 13.9688 46.9219 20.5156
Q46.9219 27.0938 42.8906 30.8594
Q38.875 34.625 31.7812 34.625
M21.9219 38.8125
Q15.5781 40.375 12.0312 44.7188
Q8.5 49.0781 8.5 55.3281
Q8.5 64.0625 14.7188 69.1406
Q20.9531 74.2188 31.7812 74.2188
Q42.6719 74.2188 48.875 69.1406
Q55.0781 64.0625 55.0781 55.3281
Q55.0781 49.0781 51.5312 44.7188
Q48 40.375 41.7031 38.8125
Q48.8281 37.1562 52.7969 32.3125
Q56.7812 27.4844 56.7812 20.5156
Q56.7812 9.90625 50.3125 4.23438
Q43.8438 -1.42188 31.7812 -1.42188
Q19.7344 -1.42188 13.25 4.23438
Q6.78125 9.90625 6.78125 20.5156
Q6.78125 27.4844 10.7812 32.3125
Q14.7969 37.1562 21.9219 38.8125
M18.3125 54.3906
Q18.3125 48.7344 21.8438 45.5625
Q25.3906 42.3906 31.7812 42.3906
Q38.1406 42.3906 41.7188 45.5625
Q45.3125 48.7344 45.3125 54.3906
Q45.3125 60.0625 41.7188 63.2344
Q38.1406 66.4062 31.7812 66.4062
Q25.3906 66.4062 21.8438 63.2344
Q18.3125 60.0625 18.3125 54.3906" id="BitstreamVeraSans-Roman-38"/>
      </defs>
      <g transform="translate(422.334499821 371.996875)scale(0.2 -0.2)">
       <use xlink:href="#BitstreamVeraSans-Roman-38"/>
      </g>
     </g>
    </g>
    <g id="xtick_10"/>
    <g id="xtick_11">
     <g id="line2d_34">
      <defs>
       <path d="
M0 0
L0 -2" id="m177f7580d0" style="stroke:#000000;stroke-width:0.5;"/>
      </defs>
      <g>
       <use style="stroke:#000000;stroke-width:0.5;" x="59.6174973142" xlink:href="#m177f7580d0" y="352.8"/>
      </g>
     </g>
     <g id="line2d_35">
      <defs>
       <path d="
M0 0
L0 2" id="m5284c7e2a0" style="stroke:#000000;stroke-width:0.5;"/>
      </defs>
      <g>
       <use style="stroke:#000000;stroke-width:0.5;" x="59.6174973142" xlink:href="#m5284c7e2a0" y="7.2"/>
      </g>
     </g>
    </g>
    <g id="xtick_12">
     <g id="line2d_36">
      <g>
       <use style="stroke:#000000;stroke-width:0.5;" x="112.148497672" xlink:href="#m177f7580d0" y="352.8"/>
      </g>
     </g>
     <g id="line2d_37">
      <g>
       <use style="stroke:#000000;stroke-width:0.5;" x="112.148497672" xlink:href="#m5284c7e2a0" y="7.2"/>
      </g>
     </g>
    </g>
    <g id="xtick_13">
     <g id="line2d_38">
      <g>
       <use style="stroke:#000000;stroke-width:0.5;" x="164.67949803" xlink:href="#m177f7580d0" y="352.8"/>
      </g>
     </g>
     <g id="line2d_39">
      <g>
       <use style="stroke:#000000;stroke-width:0.5;" x="164.67949803" xlink:href="#m5284c7e2a0" y="7.2"/>
      </g>
     </g>
    </g>
    <g id="xtick_14">
     <g id="line2d_40">
      <g>
       <use style="stroke:#000000;stroke-width:0.5;" x="217.210498389" xlink:href="#m177f7580d0" y="352.8"/>
      </g>
     </g>
     <g id="line2d_41">
      <g>
       <use style="stroke:#000000;stroke-width:0.5;" x="217.210498389" xlink:href="#m5284c7e2a0" y="7.2"/>
      </g>
     </g>
    </g>
    <g id="xtick_15">
     <g id="line2d_42">
      <g>
       <use style="stroke:#000000;stroke-width:0.5;" x="269.741498747" xlink:href="#m177f7580d0" y="352.8"/>
      </g>
     </g>
     <g id="line2d_43">
      <g>
       <use style="stroke:#000000;stroke-width:0.5;" x="269.741498747" xlink:href="#m5284c7e2a0" y="7.2"/>
      </g>
     </g>
    </g>
    <g id="xtick_16">
     <g id="line2d_44">
      <g>
       <use style="stroke:#000000;stroke-width:0.5;" x="322.272499105" xlink:href="#m177f7580d0" y="352.8"/>
      </g>
     </g>
     <g id="line2d_45">
      <g>
       <use style="stroke:#000000;stroke-width:0.5;" x="322.272499105" xlink:href="#m5284c7e2a0" y="7.2"/>
      </g>
     </g>
    </g>
    <g id="xtick_17">
     <g id="line2d_46">
      <g>
       <use style="stroke:#000000;stroke-width:0.5;" x="374.803499463" xlink:href="#m177f7580d0" y="352.8"/>
      </g>
     </g>
     <g id="line2d_47">
      <g>
       <use style="stroke:#000000;stroke-width:0.5;" x="374.803499463" xlink:href="#m5284c7e2a0" y="7.2"/>
      </g>
     </g>
    </g>
    <g id="xtick_18">
     <g id="line2d_48">
      <g>
       <use style="stroke:#000000;stroke-width:0.5;" x="427.334499821" xlink:href="#m177f7580d0" y="352.8"/>
      </g>
     </g>
     <g id="line2d_49">
      <g>
       <use style="stroke:#000000;stroke-width:0.5;" x="427.334499821" xlink:href="#m5284c7e2a0" y="7.2"/>
      </g>
     </g>
    </g>
    <g id="text_9">
     <!-- log10 of Df -->
     <defs>
      <path id="BitstreamVeraSans-Roman-20"/>
      <path d="
M12.4062 8.29688
L28.5156 8.29688
L28.5156 63.9219
L10.9844 60.4062
L10.9844 69.3906
L28.4219 72.9062
L38.2812 72.9062
L38.2812 8.29688
L54.3906 8.29688
L54.3906 0
L12.4062 0
z
" id="BitstreamVeraSans-Roman-31"/>
      <path d="
M30.6094 48.3906
Q23.3906 48.3906 19.1875 42.75
Q14.9844 37.1094 14.9844 27.2969
Q14.9844 17.4844 19.1562 11.8438
Q23.3438 6.20312 30.6094 6.20312
Q37.7969 6.20312 41.9844 11.8594
Q46.1875 17.5312 46.1875 27.2969
Q46.1875 37.0156 41.9844 42.7031
Q37.7969 48.3906 30.6094 48.3906
M30.6094 56
Q42.3281 56 49.0156 48.375
Q55.7188 40.7656 55.7188 27.2969
Q55.7188 13.875 49.0156 6.21875
Q42.3281 -1.42188 30.6094 -1.42188
Q18.8438 -1.42188 12.1719 6.21875
Q5.51562 13.875 5.51562 27.2969
Q5.51562 40.7656 12.1719 48.375
Q18.8438 56 30.6094 56" id="BitstreamVeraSans-Roman-6f"/>
      <path d="
M9.42188 75.9844
L18.4062 75.9844
L18.4062 0
L9.42188 0
z
" id="BitstreamVeraSans-Roman-6c"/>
      <path d="
M19.6719 64.7969
L19.6719 8.10938
L31.5938 8.10938
Q46.6875 8.10938 53.6875 14.9375
Q60.6875 21.7812 60.6875 36.5312
Q60.6875 51.1719 53.6875 57.9844
Q46.6875 64.7969 31.5938 64.7969
z

M9.8125 72.9062
L30.0781 72.9062
Q51.2656 72.9062 61.1719 64.0938
Q71.0938 55.2812 71.0938 36.5312
Q71.0938 17.6719 61.125 8.82812
Q51.1719 0 30.0781 0
L9.8125 0
z
" id="BitstreamVeraSans-Roman-44"/>
      <path d="
M45.4062 27.9844
Q45.4062 37.75 41.375 43.1094
Q37.3594 48.4844 30.0781 48.4844
Q22.8594 48.4844 18.8281 43.1094
Q14.7969 37.75 14.7969 27.9844
Q14.7969 18.2656 18.8281 12.8906
Q22.8594 7.51562 30.0781 7.51562
Q37.3594 7.51562 41.375 12.8906
Q45.4062 18.2656 45.4062 27.9844
M54.3906 6.78125
Q54.3906 -7.17188 48.1875 -13.9844
Q42 -20.7969 29.2031 -20.7969
Q24.4688 -20.7969 20.2656 -20.0938
Q16.0625 -19.3906 12.1094 -17.9219
L12.1094 -9.1875
Q16.0625 -11.3281 19.9219 -12.3438
Q23.7812 -13.375 27.7812 -13.375
Q36.625 -13.375 41.0156 -8.76562
Q45.4062 -4.15625 45.4062 5.17188
L45.4062 9.625
Q42.625 4.78125 38.2812 2.39062
Q33.9375 0 27.875 0
Q17.8281 0 11.6719 7.65625
Q5.51562 15.3281 5.51562 27.9844
Q5.51562 40.6719 11.6719 48.3281
Q17.8281 56 27.875 56
Q33.9375 56 38.2812 53.6094
Q42.625 51.2188 45.4062 46.3906
L45.4062 54.6875
L54.3906 54.6875
z
" id="BitstreamVeraSans-Roman-67"/>
      <path d="
M37.1094 75.9844
L37.1094 68.5
L28.5156 68.5
Q23.6875 68.5 21.7969 66.5469
Q19.9219 64.5938 19.9219 59.5156
L19.9219 54.6875
L34.7188 54.6875
L34.7188 47.7031
L19.9219 47.7031
L19.9219 0
L10.8906 0
L10.8906 47.7031
L2.29688 47.7031
L2.29688 54.6875
L10.8906 54.6875
L10.8906 58.5
Q10.8906 67.625 15.1406 71.7969
Q19.3906 75.9844 28.6094 75.9844
z
" id="BitstreamVeraSans-Roman-66"/>
     </defs>
     <g transform="translate(175.0234375 396.353125)scale(0.2 -0.2)">
      <use xlink:href="#BitstreamVeraSans-Roman-6c"/>
      <use x="27.783203125" xlink:href="#BitstreamVeraSans-Roman-6f"/>
      <use x="88.96484375" xlink:href="#BitstreamVeraSans-Roman-67"/>
      <use x="152.44140625" xlink:href="#BitstreamVeraSans-Roman-31"/>
      <use x="216.064453125" xlink:href="#BitstreamVeraSans-Roman-30"/>
      <use x="279.6875" xlink:href="#BitstreamVeraSans-Roman-20"/>
      <use x="311.474609375" xlink:href="#BitstreamVeraSans-Roman-6f"/>
      <use x="372.65625" xlink:href="#BitstreamVeraSans-Roman-66"/>
      <use x="407.861328125" xlink:href="#BitstreamVeraSans-Roman-20"/>
      <use x="439.6484375" xlink:href="#BitstreamVeraSans-Roman-44"/>
      <use x="516.650390625" xlink:href="#BitstreamVeraSans-Roman-66"/>
     </g>
    </g>
   </g>
   <g id="matplotlib.axis_2">
    <g id="ytick_1">
     <g id="line2d_50">
      <path clip-path="url(#p99b4b0da67)" d="
M7.2 352.8
L453.6 352.8" style="fill:none;stroke:#000000;stroke-dasharray:1.000000,3.000000;stroke-dashoffset:0.0;stroke-width:0.5;"/>
     </g>
     <g id="line2d_51">
      <defs>
       <path d="
M0 0
L4 0" id="m728421d6d4" style="stroke:#000000;stroke-width:0.5;"/>
      </defs>
      <g>
       <use style="stroke:#000000;stroke-width:0.5;" x="7.2" xlink:href="#m728421d6d4" y="352.8"/>
      </g>
     </g>
     <g id="line2d_52">
      <defs>
       <path d="
M0 0
L-4 0" id="mcb0005524f" style="stroke:#000000;stroke-width:0.5;"/>
      </defs>
      <g>
       <use style="stroke:#000000;stroke-width:0.5;" x="453.6" xlink:href="#mcb0005524f" y="352.8"/>
      </g>
     </g>
    </g>
    <g id="ytick_2">
     <g id="line2d_53">
      <path clip-path="url(#p99b4b0da67)" d="
M7.2 284.364
L453.6 284.364" style="fill:none;stroke:#000000;stroke-dasharray:1.000000,3.000000;stroke-dashoffset:0.0;stroke-width:0.5;"/>
     </g>
     <g id="line2d_54">
      <g>
       <use style="stroke:#000000;stroke-width:0.5;" x="7.2" xlink:href="#m728421d6d4" y="284.364356436"/>
      </g>
     </g>
     <g id="line2d_55">
      <g>
       <use style="stroke:#000000;stroke-width:0.5;" x="453.6" xlink:href="#mcb0005524f" y="284.364356436"/>
      </g>
     </g>
    </g>
    <g id="ytick_3">
     <g id="line2d_56">
      <path clip-path="url(#p99b4b0da67)" d="
M7.2 215.929
L453.6 215.929" style="fill:none;stroke:#000000;stroke-dasharray:1.000000,3.000000;stroke-dashoffset:0.0;stroke-width:0.5;"/>
     </g>
     <g id="line2d_57">
      <g>
       <use style="stroke:#000000;stroke-width:0.5;" x="7.2" xlink:href="#m728421d6d4" y="215.928712871"/>
      </g>
     </g>
     <g id="line2d_58">
      <g>
       <use style="stroke:#000000;stroke-width:0.5;" x="453.6" xlink:href="#mcb0005524f" y="215.928712871"/>
      </g>
     </g>
    </g>
    <g id="ytick_4">
     <g id="line2d_59">
      <path clip-path="url(#p99b4b0da67)" d="
M7.2 147.493
L453.6 147.493" style="fill:none;stroke:#000000;stroke-dasharray:1.000000,3.000000;stroke-dashoffset:0.0;stroke-width:0.5;"/>
     </g>
     <g id="line2d_60">
      <g>
       <use style="stroke:#000000;stroke-width:0.5;" x="7.2" xlink:href="#m728421d6d4" y="147.493069307"/>
      </g>
     </g>
     <g id="line2d_61">
      <g>
       <use style="stroke:#000000;stroke-width:0.5;" x="453.6" xlink:href="#mcb0005524f" y="147.493069307"/>
      </g>
     </g>
    </g>
    <g id="ytick_5">
     <g id="line2d_62">
      <path clip-path="url(#p99b4b0da67)" d="
M7.2 79.0574
L453.6 79.0574" style="fill:none;stroke:#000000;stroke-dasharray:1.000000,3.000000;stroke-dashoffset:0.0;stroke-width:0.5;"/>
     </g>
     <g id="line2d_63">
      <g>
       <use style="stroke:#000000;stroke-width:0.5;" x="7.2" xlink:href="#m728421d6d4" y="79.0574257426"/>
      </g>
     </g>
     <g id="line2d_64">
      <g>
       <use style="stroke:#000000;stroke-width:0.5;" x="453.6" xlink:href="#mcb0005524f" y="79.0574257426"/>
      </g>
     </g>
    </g>
    <g id="ytick_6">
     <g id="line2d_65">
      <path clip-path="url(#p99b4b0da67)" d="
M7.2 10.6218
L453.6 10.6218" style="fill:none;stroke:#000000;stroke-dasharray:1.000000,3.000000;stroke-dashoffset:0.0;stroke-width:0.5;"/>
     </g>
     <g id="line2d_66">
      <g>
       <use style="stroke:#000000;stroke-width:0.5;" x="7.2" xlink:href="#m728421d6d4" y="10.6217821782"/>
      </g>
     </g>
     <g id="line2d_67">
      <g>
       <use style="stroke:#000000;stroke-width:0.5;" x="453.6" xlink:href="#mcb0005524f" y="10.6217821782"/>
      </g>
     </g>
    </g>
   </g>
   <g id="patch_3">
    <path d="
M7.2 7.2
L453.6 7.2" style="fill:none;stroke:#000000;"/>
   </g>
   <g id="patch_4">
    <path d="
M453.6 352.8
L453.6 7.2" style="fill:none;stroke:#000000;"/>
   </g>
   <g id="patch_5">
    <path d="
M7.2 352.8
L453.6 352.8" style="fill:none;stroke:#000000;"/>
   </g>
   <g id="patch_6">
    <path d="
M7.2 352.8
L7.2 7.2" style="fill:none;stroke:#000000;"/>
   </g>
   <g id="text_10">
    <!-- {f6-f9}, 5-D -->
    <defs>
     <path d="
M12.5 -9.28125
L15.9219 -9.28125
Q22.75 -9.28125 24.8281 -7.17188
Q26.9062 -5.07812 26.9062 1.90625
L26.9062 14.0156
Q26.9062 21.625 29.0938 25.0938
Q31.2969 28.5625 36.7188 29.8906
Q31.2969 31.1094 29.0938 34.5625
Q26.9062 38.0312 26.9062 45.7031
L26.9062 57.8125
Q26.9062 64.75 24.8281 66.875
Q22.75 69 15.9219 69
L12.5 69
L12.5 75.9844
L15.5781 75.9844
Q27.7344 75.9844 31.8125 72.3906
Q35.8906 68.7969 35.8906 58.0156
L35.8906 46.2969
Q35.8906 39.0156 38.5156 36.2031
Q41.1562 33.4062 48.0938 33.4062
L51.125 33.4062
L51.125 26.4219
L48.0938 26.4219
Q41.1562 26.4219 38.5156 23.5781
Q35.8906 20.75 35.8906 13.375
L35.8906 1.70312
Q35.8906 -9.07812 31.8125 -12.6875
Q27.7344 -16.3125 15.5781 -16.3125
L12.5 -16.3125
z
" id="BitstreamVeraSans-Roman-7d"/>
     <path d="
M10.9844 1.51562
L10.9844 10.5
Q14.7031 8.73438 18.5 7.8125
Q22.3125 6.89062 25.9844 6.89062
Q35.75 6.89062 40.8906 13.4531
Q46.0469 20.0156 46.7812 33.4062
Q43.9531 29.2031 39.5938 26.9531
Q35.25 24.7031 29.9844 24.7031
Q19.0469 24.7031 12.6719 31.3125
Q6.29688 37.9375 6.29688 49.4219
Q6.29688 60.6406 12.9375 67.4219
Q19.5781 74.2188 30.6094 74.2188
Q43.2656 74.2188 49.9219 64.5156
Q56.5938 54.8281 56.5938 36.375
Q56.5938 19.1406 48.4062 8.85938
Q40.2344 -1.42188 26.4219 -1.42188
Q22.7031 -1.42188 18.8906 -0.6875
Q15.0938 0.046875 10.9844 1.51562
M30.6094 32.4219
Q37.25 32.4219 41.125 36.9531
Q45.0156 41.5 45.0156 49.4219
Q45.0156 57.2812 41.125 61.8438
Q37.25 66.4062 30.6094 66.4062
Q23.9688 66.4062 20.0938 61.8438
Q16.2188 57.2812 16.2188 49.4219
Q16.2188 41.5 20.0938 36.9531
Q23.9688 32.4219 30.6094 32.4219" id="BitstreamVeraSans-Roman-39"/>
     <path d="
M51.125 -9.28125
L51.125 -16.3125
L48.0938 -16.3125
Q35.9375 -16.3125 31.8125 -12.6875
Q27.6875 -9.07812 27.6875 1.70312
L27.6875 13.375
Q27.6875 20.75 25.0469 23.5781
Q22.4062 26.4219 15.4844 26.4219
L12.5 26.4219
L12.5 33.4062
L15.4844 33.4062
Q22.4688 33.4062 25.0781 36.2031
Q27.6875 39.0156 27.6875 46.2969
L27.6875 58.0156
Q27.6875 68.7969 31.8125 72.3906
Q35.9375 75.9844 48.0938 75.9844
L51.125 75.9844
L51.125 69
L47.7969 69
Q40.9219 69 38.8125 66.8438
Q36.7188 64.7031 36.7188 57.8125
L36.7188 45.7031
Q36.7188 38.0312 34.5 34.5625
Q32.2812 31.1094 26.9062 29.8906
Q32.3281 28.5625 34.5156 25.0938
Q36.7188 21.625 36.7188 14.0156
L36.7188 1.90625
Q36.7188 -4.98438 38.8125 -7.125
Q40.9219 -9.28125 47.7969 -9.28125
z
" id="BitstreamVeraSans-Roman-7b"/>
     <path d="
M11.7188 12.4062
L22.0156 12.4062
L22.0156 4
L14.0156 -11.625
L7.71875 -11.625
L11.7188 4
z
" id="BitstreamVeraSans-Roman-2c"/>
     <path d="
M10.7969 72.9062
L49.5156 72.9062
L49.5156 64.5938
L19.8281 64.5938
L19.8281 46.7344
Q21.9688 47.4688 24.1094 47.8281
Q26.2656 48.1875 28.4219 48.1875
Q40.625 48.1875 47.75 41.5
Q54.8906 34.8125 54.8906 23.3906
Q54.8906 11.625 47.5625 5.09375
Q40.2344 -1.42188 26.9062 -1.42188
Q22.3125 -1.42188 17.5469 -0.640625
Q12.7969 0.140625 7.71875 1.70312
L7.71875 11.625
Q12.1094 9.23438 16.7969 8.0625
Q21.4844 6.89062 26.7031 6.89062
Q35.1562 6.89062 40.0781 11.3281
Q45.0156 15.7656 45.0156 23.3906
Q45.0156 31 40.0781 35.4375
Q35.1562 39.8906 26.7031 39.8906
Q22.75 39.8906 18.8125 39.0156
Q14.8906 38.1406 10.7969 36.2812
z
" id="BitstreamVeraSans-Roman-35"/>
    </defs>
    <g transform="translate(325.60325 345.888)scale(0.2 -0.2)">
     <use xlink:href="#BitstreamVeraSans-Roman-7b"/>
     <use x="63.623046875" xlink:href="#BitstreamVeraSans-Roman-66"/>
     <use x="98.828125" xlink:href="#BitstreamVeraSans-Roman-36"/>
     <use x="162.451171875" xlink:href="#BitstreamVeraSans-Roman-2d"/>
     <use x="198.53515625" xlink:href="#BitstreamVeraSans-Roman-66"/>
     <use x="233.740234375" xlink:href="#BitstreamVeraSans-Roman-39"/>
     <use x="297.36328125" xlink:href="#BitstreamVeraSans-Roman-7d"/>
     <use x="360.986328125" xlink:href="#BitstreamVeraSans-Roman-2c"/>
     <use x="392.7734375" xlink:href="#BitstreamVeraSans-Roman-20"/>
     <use x="424.560546875" xlink:href="#BitstreamVeraSans-Roman-35"/>
     <use x="488.18359375" xlink:href="#BitstreamVeraSans-Roman-2d"/>
     <use x="524.267578125" xlink:href="#BitstreamVeraSans-Roman-44"/>
    </g>
   </g>
   <g id="text_11">
    <!-- 0.0.0 -->
    <defs>
     <path d="
M10.6875 12.4062
L21 12.4062
L21 0
L10.6875 0
z
" id="BitstreamVeraSans-Roman-2e"/>
    </defs>
    <g style="fill:#808080;" transform="translate(218.33984375 347.2643125)scale(0.1 -0.1)">
     <use xlink:href="#BitstreamVeraSans-Roman-30"/>
     <use x="63.623046875" xlink:href="#BitstreamVeraSans-Roman-2e"/>
     <use x="95.41015625" xlink:href="#BitstreamVeraSans-Roman-30"/>
     <use x="159.033203125" xlink:href="#BitstreamVeraSans-Roman-2e"/>
     <use x="190.8203125" xlink:href="#BitstreamVeraSans-Roman-30"/>
    </g>
   </g>
  </g>
 </g>
 <defs>
  <clipPath id="p99b4b0da67">
   <rect height="345.6" width="446.4" x="7.2" y="7.2"/>
  </clipPath>
 </defs>
</svg>
