<?xml version="1.0" encoding="utf-8" standalone="no"?>
<!DOCTYPE svg PUBLIC "-//W3C//DTD SVG 1.1//EN"
  "http://www.w3.org/Graphics/SVG/1.1/DTD/svg11.dtd">
<!-- Created with matplotlib (http://matplotlib.org/) -->
<svg height="407pt" version="1.1" viewBox="0 0 460 407" width="460pt" xmlns="http://www.w3.org/2000/svg" xmlns:xlink="http://www.w3.org/1999/xlink">
 <defs>
  <style type="text/css">
*{stroke-linecap:butt;stroke-linejoin:round;}
  </style>
 </defs>
 <g id="figure_1">
  <g id="patch_1">
   <path d="
M0 407.712
L460.8 407.712
L460.8 0
L0 0
z
" style="fill:#ffffff;"/>
  </g>
  <g id="axes_1">
   <g id="patch_2">
    <path d="
M7.2 352.8
L453.6 352.8
L453.6 7.2
L7.2 7.2
z
" style="fill:#ffffff;"/>
   </g>
   <g id="line2d_1">
    <path clip-path="url(#p99b4b0da67)" d="
M-1 272.958
L7.0865 272.958
L7.0865 258.701
L47.9001 258.701
L47.9001 257.75
L64.7931 257.75
L64.7931 256.8
L69.6451 256.8
L69.6451 255.85
L70.551 255.85
L70.551 254.899
L76.4916 254.899
L76.4916 253.949
L77.5339 253.949
L77.5339 252.998
L79.377 252.998
L79.3774 251.097
L80.0699 251.097
L80.1063 248.246
L80.6347 248.246
L80.6347 247.295
L81.4248 247.295
L81.4248 246.345
L81.7145 246.345
L81.7145 245.394
L81.8597 245.394
L81.8597 244.444
L83.2594 244.444
L83.2594 243.493
L122.518 243.493
L122.518 242.543
L136.041 242.543
L136.041 241.592
L157.153 241.592
L157.153 240.642
L157.476 240.642
L157.476 239.691
L162.297 239.691
L162.297 238.741
L173.512 238.741
L173.512 237.79
L177.123 237.79
L177.123 236.84
L177.554 236.84
L177.554 235.889
L179.351 235.889
L179.351 234.939
L182.238 234.939
L182.238 233.988
L188.755 233.988
L188.755 233.038
L192.077 233.038
L192.169 231.137
L193.157 231.137
L193.157 230.186
L194.268 230.186
L194.268 229.236
L194.391 229.236
L194.391 228.285
L196.492 228.285
L196.492 227.335
L199.413 227.335
L199.413 226.384
L201.271 226.384
L201.271 225.434
L201.414 225.434
L201.414 211.176
L201.775 211.176
L201.842 209.275
L202.654 209.275
L202.654 208.325
L204.054 208.325
L204.054 207.374
L204.781 207.374
L204.781 206.424
L205.367 206.424
L205.367 205.473
L205.775 205.473
L205.775 204.523
L206.964 204.523
L206.964 203.572
L208.104 203.572
L208.104 202.622
L209.097 202.622
L209.161 199.77
L209.596 199.77
L209.596 198.82
L210.064 198.82
L210.064 197.869
L210.514 197.869
L210.514 196.919
L210.664 196.919
L210.664 195.968
L212.413 195.968
L212.413 195.018
L213.008 195.018
L213.081 187.414
L214.717 187.414
L214.717 186.463
L215.052 186.463
L215.052 185.513
L215.848 185.513
L215.848 184.562
L216.007 184.562
L216.007 183.612
L216.383 183.612
L216.383 182.661
L216.925 182.661
L216.925 181.711
L217.94 181.711
L217.94 180.76
L218.324 180.76
L218.324 179.81
L218.95 179.81
L218.95 178.859
L219.141 178.859
L219.236 176.958
L219.423 176.958
L219.423 176.008
L219.713 176.008
L219.713 175.057
L220.142 175.057
L220.231 173.156
L220.301 173.156
L220.4 170.305
L220.653 170.305
L220.736 168.404
L220.818 168.404
L220.818 166.503
L221.028 166.503
L221.028 165.552
L221.142 165.552
L221.196 162.701
L221.61 162.701
L221.61 161.75
L221.759 161.75
L221.759 160.8
L223.366 160.8
L223.366 159.85
L224.699 159.85
L224.699 158.899
L224.858 158.899
L224.858 156.998
L224.987 156.998
L224.987 156.048
L225.364 156.048
L225.382 153.196
L225.869 153.196
L225.869 152.246
L226.139 152.246
L226.139 151.295
L226.316 151.295
L226.316 150.345
L226.72 150.345
L226.72 149.394
L227.021 149.394
L227.03 147.493
L227.378 147.493
L227.378 146.543
L227.539 146.543
L227.539 144.642
L228.068 144.642
L228.068 143.691
L228.328 143.691
L228.328 142.741
L228.918 142.741
L228.918 141.79
L229.132 141.79
L229.132 140.84
L229.778 140.84
L229.81 138.939
L229.923 138.939
L229.923 137.988
L230.486 137.988
L230.577 136.087
L231.031 136.087
L231.031 135.137
L231.149 135.137
L231.149 134.186
L231.397 134.186
L231.397 133.236
L231.577 133.236
L231.577 132.285
L232.086 132.285
L232.086 131.335
L232.222 131.335
L232.222 130.384
L233.548 130.384
L233.548 129.434
L233.825 129.434
L233.825 128.483
L234.081 128.483
L234.081 127.533
L234.665 127.533
L234.665 126.582
L234.963 126.582
L234.963 125.632
L235.712 125.632
L235.712 121.83
L236.248 121.83
L236.273 119.929
L236.566 119.929
L236.566 118.978
L237.706 118.978
L237.706 118.028
L237.892 118.028
L237.892 117.077
L238.248 117.077
L238.311 114.226
L238.602 114.226
L238.602 113.275
L239.332 113.275
L239.431 111.374
L239.658 111.374
L239.658 110.424
L240.336 110.424
L240.336 109.473
L240.724 109.473
L240.793 107.572
L240.912 107.572
L240.912 106.622
L241.651 106.622
L241.651 105.671
L241.77 105.671
L241.775 103.77
L241.883 103.77
L241.943 101.869
L242.481 101.869
L242.481 100.919
L242.875 100.919
L242.875 99.9683
L243.928 99.9683
L243.928 99.0178
L244.269 99.0178
L244.269 98.0673
L244.8 98.0673
L244.8 97.1168
L245.094 97.1168
L245.162 94.2653
L247.039 94.2653
L247.039 93.3149
L247.523 93.3149
L247.523 92.3644
L247.764 92.3644
L247.764 91.4139
L248.373 91.4139
L248.373 90.4634
L250.123 90.4634
L250.123 89.5129
L250.339 89.5129
L250.339 88.5624
L250.552 88.5624
L250.552 87.6119
L250.981 87.6119
L250.981 86.6614
L251.654 86.6614
L251.654 85.7109
L252.518 85.7109
L252.518 84.7604
L255.226 84.7604
L255.226 83.8099
L256.28 83.8099
L256.35 81.9089
L258.647 81.9089
L258.647 80.9584
L260.319 80.9584
L260.369 77.1564
L260.768 77.1564
L260.826 75.2554
L260.907 75.2554
L260.907 74.305
L261.071 74.305
L261.071 73.3545
L261.777 73.3545
L261.777 72.404
L261.905 72.404
L262.003 69.5525
L262.442 69.5525
L262.442 68.602
L262.655 68.602
L262.748 66.701
L263.07 66.701
L263.07 65.7505
L263.47 65.7505
L263.47 63.8495
L263.665 63.8495
L263.742 61.9485
L264.045 61.9485
L264.045 60.0475
L264.231 60.0475
L264.231 58.1465
L264.413 58.1465
L264.413 57.196
L264.593 57.196
L264.593 56.2455
L264.77 56.2455
L264.77 52.4436
L264.944 52.4436
L264.944 51.4931
L265.21 51.4931
L265.285 49.5921
L265.451 49.5921
L265.451 47.6911
L265.563 47.6911
L265.615 44.8396
L265.77 44.8396
L265.777 41.9881
L266.382 41.9881
L266.485 39.1366
L266.553 39.1366
L266.58 36.2851
L266.676 36.2851
L266.702 33.4337
L266.85 33.4337
L266.85 32.4832
L267.138 32.4832
L267.24 29.6317
L267.572 29.6317
L267.572 28.6812
L267.752 28.6812
L267.83 25.8297
L267.876 25.8297
L267.88 23.9287
L268.072 23.9287
L268.095 22.0277
L268.26 22.0277
L268.26 21.0772
L268.608 21.0772
L268.627 19.1762
L269.099 19.1762
L269.099 18.2257
L269.312 18.2257
L269.312 17.2752
L269.453 17.2752
L269.453 16.3248
L269.684 16.3248
L269.684 15.3743
L274.262 15.3743
L274.262 14.4238
L274.473 14.4238
L274.473 13.4733
L279.169 13.4733
L279.169 12.5228
L280.703 12.5228
L280.703 11.5723
L285.912 11.5723
L285.912 10.6218
L285.912 10.6218
L453.6 10.6218
L453.6 10.6218" style="fill:none;stroke:#ff0000;stroke-linecap:square;stroke-width:3.0;"/>
   </g>
   <g id="line2d_2">
    <path clip-path="url(#p99b4b0da67)" d="
M201.414 352.8
L201.414 351.85
L201.414 351.85
L201.414 351.85
L201.414 350.899
L201.414 350.899
L201.414 350.899
L201.414 349.949
L201.414 349.949
L201.414 349.949
L201.414 348.998
L201.414 348.998
L201.414 348.998
L201.414 348.048
L201.414 348.048
L201.414 348.048
L201.414 347.097
L201.414 347.097
L201.414 347.097
L201.414 346.147
L201.414 346.147
L201.414 346.147
L201.414 345.196
L201.414 345.196
L201.414 345.196
L201.414 344.246
L201.414 344.246
L201.414 344.246
L201.414 343.295
L201.414 343.295
L201.414 343.295
L201.414 342.345
L201.414 342.345
L201.414 342.345
L201.414 341.394
L201.414 341.394
L201.414 341.394
L201.414 340.444
L201.414 340.444
L201.414 340.444
L201.414 339.493
L201.414 339.493
L201.414 339.493
L201.414 338.543
L232.169 338.543
L232.169 337.592
L238.176 337.592
L238.274 334.741
L238.663 334.741
L238.663 333.79
L238.891 333.79
L238.891 332.84
L239.305 332.84
L239.305 331.889
L240.351 331.889
L240.351 330.939
L241.093 330.939
L241.093 329.988
L241.834 329.988
L241.834 329.038
L242.043 329.038
L242.043 328.087
L242.435 328.087
L242.485 326.186
L242.755 326.186
L242.755 325.236
L243.55 325.236
L243.55 324.285
L243.845 324.285
L243.845 323.335
L245.724 323.335
L245.724 322.384
L246.356 322.384
L246.356 321.434
L246.584 321.434
L246.584 320.483
L246.728 320.483
L246.728 319.533
L247.185 319.533
L247.185 318.582
L247.68 318.582
L247.68 317.632
L248.223 317.632
L248.223 316.681
L248.437 316.681
L248.443 313.83
L249.18 313.83
L249.18 312.879
L250.33 312.879
L250.33 311.929
L253.561 311.929
L253.561 310.978
L254.417 310.978
L254.417 310.028
L255.33 310.028
L255.425 307.176
L257.263 307.176
L257.263 306.226
L257.997 306.226
L258.03 304.325
L258.339 304.325
L258.339 303.374
L258.605 303.374
L258.636 301.473
L258.917 301.473
L259.023 299.572
L259.198 299.572
L259.198 298.622
L259.563 298.622
L259.609 296.721
L259.732 296.721
L259.732 295.77
L259.853 295.77
L259.853 294.82
L260.313 294.82
L260.364 292.919
L260.541 292.919
L260.573 291.018
L260.728 291.018
L260.728 290.067
L261.67 290.067
L261.715 288.166
L262.431 288.166
L262.459 285.315
L262.795 285.315
L262.795 284.364
L263.05 284.364
L263.134 282.463
L263.28 282.463
L263.359 279.612
L263.813 279.612
L263.89 276.76
L264.581 276.76
L264.662 274.859
L264.843 274.859
L264.843 273.909
L264.957 273.909
L264.957 272.958
L265.273 272.958
L265.273 272.008
L265.99 272.008
L265.99 271.057
L266.118 271.057
L266.118 270.107
L266.318 270.107
L266.427 266.305
L266.469 266.305
L266.499 264.404
L266.585 264.404
L266.654 262.503
L266.703 262.503
L266.782 259.651
L266.852 259.651
L266.859 257.75
L267.072 257.75
L267.172 252.998
L267.195 252.998
L267.26 250.147
L267.479 250.147
L267.551 247.295
L267.64 247.295
L267.709 243.493
L267.803 243.493
L267.866 241.592
L268.302 241.592
L268.346 239.691
L268.652 239.691
L268.652 238.741
L268.81 238.741
L268.816 236.84
L268.979 236.84
L268.979 235.889
L269.382 235.889
L269.41 233.988
L269.915 233.988
L269.915 233.038
L270.544 233.038
L270.544 232.087
L270.793 232.087
L270.793 231.137
L270.961 231.137
L270.961 230.186
L271.394 230.186
L271.394 229.236
L271.674 229.236
L271.674 228.285
L272.118 228.285
L272.149 213.077
L272.272 213.077
L272.272 212.127
L273.916 212.127
L273.916 211.176
L274.11 211.176
L274.11 210.226
L275.111 210.226
L275.111 209.275
L280.127 209.275
L280.127 208.325
L281.101 208.325
L281.101 207.374
L281.377 207.374
L281.377 206.424
L281.698 206.424
L281.698 205.473
L281.921 205.473
L282.019 203.572
L282.435 203.572
L282.534 200.721
L282.758 200.721
L282.758 199.77
L282.94 199.77
L283.028 196.919
L283.055 196.919
L283.055 195.968
L283.173 195.968
L283.26 194.067
L283.294 194.067
L283.336 192.166
L283.645 192.166
L283.724 190.265
L283.776 190.265
L283.776 189.315
L284.081 189.315
L284.082 187.414
L284.252 187.414
L284.318 185.513
L284.426 185.513
L284.501 182.661
L284.56 182.661
L284.56 181.711
L284.831 181.711
L284.831 180.76
L286.351 180.76
L286.351 179.81
L286.85 179.81
L286.85 178.859
L287.125 178.859
L287.125 177.909
L287.417 177.909
L287.417 176.958
L288.175 176.958
L288.175 176.008
L288.859 176.008
L288.859 175.057
L289.364 175.057
L289.385 173.156
L289.777 173.156
L289.813 171.255
L290.132 171.255
L290.132 170.305
L290.309 170.305
L290.354 168.404
L290.465 168.404
L290.521 165.552
L290.619 165.552
L290.73 163.651
L290.959 163.651
L291.061 160.8
L291.091 160.8
L291.148 157.949
L291.257 157.949
L291.314 156.048
L291.468 156.048
L291.508 154.147
L291.67 154.147
L291.718 152.246
L291.838 152.246
L291.838 151.295
L291.978 151.295
L291.978 150.345
L292.209 150.345
L292.235 148.444
L292.434 148.444
L292.464 146.543
L292.682 146.543
L292.682 145.592
L292.818 145.592
L292.818 144.642
L293.07 144.642
L293.169 140.84
L293.435 140.84
L293.48 138.939
L293.843 138.939
L293.843 137.988
L293.963 137.988
L293.963 137.038
L294.368 137.038
L294.368 136.087
L294.518 136.087
L294.623 134.186
L294.693 134.186
L294.73 132.285
L294.835 132.285
L294.835 131.335
L295.062 131.335
L295.062 130.384
L297.326 130.384
L297.326 129.434
L298.35 129.434
L298.35 128.483
L298.825 128.483
L298.825 127.533
L299.066 127.533
L299.12 125.632
L299.932 125.632
L299.932 124.681
L300.33 124.681
L300.33 123.731
L301.803 123.731
L301.803 122.78
L302.433 122.78
L302.433 121.83
L302.659 121.83
L302.659 120.879
L302.895 120.879
L302.895 119.929
L303.366 119.929
L303.443 118.028
L303.485 118.028
L303.497 116.127
L303.964 116.127
L303.964 115.176
L304.113 115.176
L304.113 114.226
L304.295 114.226
L304.295 113.275
L304.63 113.275
L304.63 112.325
L304.94 112.325
L304.979 110.424
L305.452 110.424
L305.452 109.473
L309.947 109.473
L309.947 108.523
L313.148 108.523
L313.148 107.572
L317.253 107.572
L317.253 106.622
L320.537 106.622
L320.537 105.671
L321.487 105.671
L321.487 104.721
L325.306 104.721
L325.306 103.77
L325.768 103.77
L325.768 102.82
L326.116 102.82
L326.116 101.869
L327.881 101.869
L327.881 100.919
L329.178 100.919
L329.178 92.3644
L333.197 92.3644
L333.197 91.4139
L335.454 91.4139
L335.454 90.4634
L337.853 90.4634
L337.853 89.5129
L338.099 89.5129
L338.099 88.5624
L340.017 88.5624
L340.082 86.6614
L340.339 86.6614
L340.429 84.7604
L340.638 84.7604
L340.638 83.8099
L341.365 83.8099
L341.365 82.8594
L341.755 82.8594
L341.755 81.9089
L342.062 81.9089
L342.062 80.9584
L342.214 80.9584
L342.214 80.0079
L342.537 80.0079
L342.537 79.0574
L342.847 79.0574
L342.847 78.1069
L344.171 78.1069
L344.171 77.1564
L344.539 77.1564
L344.539 76.2059
L345.012 76.2059
L345.012 75.2554
L345.753 75.2554
L345.753 74.305
L351.623 74.305
L351.623 73.3545
L355.821 73.3545
L355.821 72.404
L360.327 72.404
L360.327 71.4535
L360.92 71.4535
L360.991 69.5525
L361.862 69.5525
L361.862 68.602
L362.197 68.602
L362.197 67.6515
L362.577 67.6515
L362.577 66.701
L362.835 66.701
L362.835 65.7505
L363.032 65.7505
L363.032 64.8
L364.037 64.8
L364.037 63.8495
L366.292 63.8495
L366.374 61.9485
L368.444 61.9485
L368.444 60.998
L368.711 60.998
L368.738 59.097
L369.808 59.097
L369.808 58.1465
L370.533 58.1465
L370.533 57.196
L374.813 57.196
L374.813 56.2455
L377.108 56.2455
L377.108 55.295
L379.611 55.295
L379.62 53.3941
L380.031 53.3941
L380.031 52.4436
L384.3 52.4436
L384.354 50.5426
L385.776 50.5426
L385.82 48.6416
L388.506 48.6416
L388.506 47.6911
L388.649 47.6911
L388.692 45.7901
L389.303 45.7901
L389.303 44.8396
L389.433 44.8396
L389.433 43.8891
L389.633 43.8891
L389.633 42.9386
L391.748 42.9386
L391.748 41.9881
L392.131 41.9881
L392.131 41.0376
L393.571 41.0376
L393.571 40.0871
L394.318 40.0871
L394.318 39.1366
L396.063 39.1366
L396.137 37.2356
L397.1 37.2356
L397.1 36.2851
L397.334 36.2851
L397.334 35.3347
L398.492 35.3347
L398.492 34.3842
L399.339 34.3842
L399.339 33.4337
L399.58 33.4337
L399.58 32.4832
L400.432 32.4832
L400.432 31.5327
L400.692 31.5327
L400.754 29.6317
L401.326 29.6317
L401.326 28.6812
L402.099 28.6812
L402.099 27.7307
L402.24 27.7307
L402.246 25.8297
L403.051 25.8297
L403.051 24.8792
L424.476 24.8792
L424.476 23.9287
L425.658 23.9287
L425.658 22.9782
L426.213 22.9782
L426.213 22.0277
L426.499 22.0277
L426.499 21.0772
L426.825 21.0772
L426.825 20.1267
L429.297 20.1267
L429.297 19.1762
L429.607 19.1762
L429.607 18.2257
L429.743 18.2257
L429.743 17.2752
L431.016 17.2752
L431.016 16.3248
L432.655 16.3248
L432.655 15.3743
L433.678 15.3743
L433.678 14.4238
L438.739 14.4238
L438.739 13.4733
L439.318 13.4733
L439.318 12.5228
L446.053 12.5228
L446.053 11.5723
L447.959 11.5723
L447.959 10.6218
L447.959 10.6218
L453.6 10.6218
L453.6 10.6218" style="fill:none;stroke:#00bfbf;stroke-linecap:square;"/>
   </g>
   <g id="line2d_3">
    <path clip-path="url(#p99b4b0da67)" d="
M201.414 352.8
L201.414 351.85
L201.414 351.85
L201.414 351.85
L201.414 350.899
L201.414 350.899
L201.414 350.899
L201.414 349.949
L201.414 349.949
L201.414 349.949
L201.414 348.998
L201.414 348.998
L201.414 348.998
L201.414 348.048
L201.414 348.048
L201.414 348.048
L201.414 347.097
L201.414 347.097
L201.414 347.097
L201.414 346.147
L201.414 346.147
L201.414 346.147
L201.414 345.196
L201.414 345.196
L201.414 345.196
L201.414 344.246
L201.414 344.246
L201.414 344.246
L201.414 343.295
L201.414 343.295
L201.414 343.295
L201.414 342.345
L201.414 342.345
L201.414 342.345
L201.414 341.394
L201.414 341.394
L201.414 341.394
L201.414 340.444
L201.414 340.444
L201.414 340.444
L201.414 339.493
L201.414 339.493
L201.414 339.493
L201.414 338.543
L232.169 338.543
L232.169 337.592
L235.186 337.592
L235.186 336.642
L237.076 336.642
L237.076 335.691
L237.458 335.691
L237.458 334.741
L237.654 334.741
L237.654 333.79
L238.176 333.79
L238.274 330.939
L238.374 330.939
L238.374 329.988
L238.663 329.988
L238.663 329.038
L238.85 329.038
L238.891 327.137
L240.34 327.137
L240.34 326.186
L241.834 326.186
L241.834 325.236
L242.75 325.236
L242.75 324.285
L243.496 324.285
L243.55 322.384
L244.089 322.384
L244.089 321.434
L244.305 321.434
L244.305 320.483
L244.423 320.483
L244.423 319.533
L244.724 319.533
L244.724 318.582
L245.724 318.582
L245.724 317.632
L246.728 317.632
L246.728 316.681
L247.09 316.681
L247.172 314.78
L247.68 314.78
L247.68 313.83
L248.223 313.83
L248.223 312.879
L248.972 312.879
L248.972 311.929
L250.62 311.929
L250.62 310.978
L251.831 310.978
L251.831 310.028
L253.483 310.028
L253.561 308.127
L253.752 308.127
L253.752 307.176
L254.871 307.176
L254.871 306.226
L255.203 306.226
L255.203 305.275
L255.33 305.275
L255.33 304.325
L255.777 304.325
L255.777 303.374
L256.145 303.374
L256.145 302.424
L257.263 302.424
L257.274 300.523
L257.564 300.523
L257.564 299.572
L257.997 299.572
L258.03 296.721
L258.339 296.721
L258.422 294.82
L258.636 294.82
L258.636 293.869
L258.882 293.869
L258.917 291.968
L259.011 291.968
L259.011 291.018
L259.557 291.018
L259.563 289.117
L259.732 289.117
L259.829 287.216
L259.853 287.216
L259.911 285.315
L260.116 285.315
L260.116 284.364
L260.458 284.364
L260.541 282.463
L260.635 282.463
L260.635 281.513
L260.771 281.513
L260.771 280.562
L261.531 280.562
L261.634 278.661
L261.67 278.661
L261.715 276.76
L261.924 276.76
L261.924 275.81
L262.431 275.81
L262.511 272.008
L263.955 272.008
L263.955 271.057
L264.158 271.057
L264.158 270.107
L264.428 270.107
L264.428 269.156
L265.399 269.156
L265.399 268.206
L265.67 268.206
L265.67 267.255
L265.79 267.255
L265.79 266.305
L265.913 266.305
L265.913 265.354
L266.044 265.354
L266.06 263.453
L266.159 263.453
L266.255 259.651
L266.427 259.651
L266.455 256.8
L266.577 256.8
L266.61 252.998
L266.746 252.998
L266.783 250.147
L266.859 250.147
L266.877 248.246
L267.008 248.246
L267.099 244.444
L267.121 244.444
L267.23 240.642
L267.473 240.642
L267.567 237.79
L267.679 237.79
L267.709 235.889
L268.302 235.889
L268.41 233.038
L268.422 233.038
L268.465 231.137
L268.977 231.137
L268.977 230.186
L269.239 230.186
L269.239 229.236
L270.071 229.236
L270.071 228.285
L271.394 228.285
L271.394 227.335
L271.959 227.335
L271.959 226.384
L272.149 226.384
L272.149 212.127
L273.15 212.127
L273.15 211.176
L273.491 211.176
L273.491 210.226
L275.111 210.226
L275.111 209.275
L280.127 209.275
L280.127 208.325
L281.101 208.325
L281.101 207.374
L281.377 207.374
L281.377 206.424
L281.631 206.424
L281.721 203.572
L281.755 203.572
L281.755 202.622
L281.876 202.622
L281.921 200.721
L282.019 200.721
L282.078 197.869
L282.192 197.869
L282.248 195.968
L282.435 195.968
L282.534 191.216
L282.6 191.216
L282.642 188.364
L282.724 188.364
L282.783 185.513
L282.878 185.513
L282.878 184.562
L283.019 184.562
L283.019 183.612
L283.346 183.612
L283.346 182.661
L283.538 182.661
L283.606 180.76
L283.776 180.76
L283.776 179.81
L283.928 179.81
L283.928 178.859
L286.85 178.859
L286.85 177.909
L287.125 177.909
L287.168 176.008
L287.372 176.008
L287.417 174.107
L287.748 174.107
L287.748 173.156
L288.065 173.156
L288.11 171.255
L288.644 171.255
L288.644 170.305
L288.859 170.305
L288.859 169.354
L289.049 169.354
L289.049 168.404
L289.364 168.404
L289.364 167.453
L289.657 167.453
L289.698 165.552
L289.782 165.552
L289.858 163.651
L290.042 163.651
L290.079 161.75
L290.166 161.75
L290.166 160.8
L290.304 160.8
L290.354 158.899
L290.465 158.899
L290.533 155.097
L290.619 155.097
L290.707 152.246
L290.775 152.246
L290.775 150.345
L290.959 150.345
L291.061 146.543
L291.106 146.543
L291.106 145.592
L291.258 145.592
L291.314 143.691
L291.561 143.691
L291.621 140.84
L291.805 140.84
L291.805 139.889
L291.952 139.889
L291.952 138.939
L292.193 138.939
L292.235 136.087
L292.388 136.087
L292.486 133.236
L292.777 133.236
L292.777 132.285
L293.075 132.285
L293.144 129.434
L293.344 129.434
L293.435 127.533
L294.44 127.533
L294.465 125.632
L295.084 125.632
L295.084 124.681
L297.008 124.681
L297.008 123.731
L298.167 123.731
L298.167 122.78
L298.475 122.78
L298.475 121.83
L299.072 121.83
L299.072 120.879
L299.497 120.879
L299.497 119.929
L299.932 119.929
L299.932 118.978
L300.348 118.978
L300.348 118.028
L301.367 118.028
L301.367 117.077
L301.502 117.077
L301.54 115.176
L301.859 115.176
L301.923 113.275
L302.148 113.275
L302.148 112.325
L302.586 112.325
L302.659 110.424
L303.345 110.424
L303.345 109.473
L303.485 109.473
L303.485 108.523
L303.607 108.523
L303.607 107.572
L304.295 107.572
L304.295 106.622
L304.503 106.622
L304.503 105.671
L306.166 105.671
L306.166 104.721
L308.394 104.721
L308.394 103.77
L310.965 103.77
L310.965 102.82
L311.105 102.82
L311.105 101.869
L313.148 101.869
L313.148 100.919
L313.406 100.919
L313.41 99.0178
L313.72 99.0178
L313.72 98.0673
L316.723 98.0673
L316.723 97.1168
L318.89 97.1168
L318.89 96.1663
L319.884 96.1663
L319.884 95.2158
L320.255 95.2158
L320.257 93.3149
L320.537 93.3149
L320.537 92.3644
L321.793 92.3644
L321.793 91.4139
L324.527 91.4139
L324.527 90.4634
L325.049 90.4634
L325.049 89.5129
L327.317 89.5129
L327.317 88.5624
L327.881 88.5624
L327.881 87.6119
L328.782 87.6119
L328.782 86.6614
L329.178 86.6614
L329.178 83.8099
L332.603 83.8099
L332.603 82.8594
L333.197 82.8594
L333.197 81.9089
L335.454 81.9089
L335.454 80.9584
L337.853 80.9584
L337.853 80.0079
L338.099 80.0079
L338.099 79.0574
L339.263 79.0574
L339.263 78.1069
L340.017 78.1069
L340.017 77.1564
L340.638 77.1564
L340.638 76.2059
L341.755 76.2059
L341.755 75.2554
L342.214 75.2554
L342.214 74.305
L342.847 74.305
L342.847 73.3545
L344.171 73.3545
L344.171 72.404
L344.539 72.404
L344.539 71.4535
L345.012 71.4535
L345.012 70.503
L345.753 70.503
L345.753 69.5525
L346.094 69.5525
L346.094 68.602
L347.76 68.602
L347.76 67.6515
L349.074 67.6515
L349.074 66.701
L349.903 66.701
L349.903 65.7505
L355.902 65.7505
L355.902 64.8
L357.68 64.8
L357.68 63.8495
L357.84 63.8495
L357.84 62.899
L358.005 62.899
L358.005 61.9485
L358.127 61.9485
L358.127 60.998
L359.696 60.998
L359.696 60.0475
L362.835 60.0475
L362.835 59.097
L363.744 59.097
L363.744 58.1465
L364.97 58.1465
L364.97 57.196
L366.197 57.196
L366.197 56.2455
L366.492 56.2455
L366.492 55.295
L367.288 55.295
L367.288 54.3446
L368.535 54.3446
L368.535 53.3941
L372.33 53.3941
L372.33 52.4436
L375.26 52.4436
L375.26 51.4931
L375.476 51.4931
L375.476 50.5426
L375.612 50.5426
L375.612 49.5921
L376.508 49.5921
L376.508 48.6416
L377.809 48.6416
L377.809 47.6911
L379.737 47.6911
L379.737 46.7406
L381.03 46.7406
L381.03 45.7901
L381.366 45.7901
L381.366 44.8396
L382.128 44.8396
L382.128 43.8891
L382.803 43.8891
L382.803 42.9386
L384.415 42.9386
L384.415 41.9881
L384.83 41.9881
L384.83 41.0376
L385.376 41.0376
L385.376 40.0871
L386.41 40.0871
L386.41 39.1366
L386.793 39.1366
L386.793 38.1861
L387.711 38.1861
L387.711 37.2356
L388.71 37.2356
L388.71 36.2851
L389.426 36.2851
L389.426 35.3347
L389.672 35.3347
L389.672 34.3842
L390.182 34.3842
L390.182 33.4337
L390.552 33.4337
L390.552 32.4832
L391.065 32.4832
L391.065 31.5327
L392.351 31.5327
L392.351 30.5822
L392.501 30.5822
L392.501 29.6317
L392.634 29.6317
L392.634 28.6812
L395.908 28.6812
L395.908 27.7307
L396.592 27.7307
L396.592 26.7802
L396.9 26.7802
L396.9 25.8297
L398.104 25.8297
L398.104 24.8792
L422.709 24.8792
L422.709 23.9287
L423.482 23.9287
L423.482 22.9782
L424.263 22.9782
L424.263 22.0277
L425.879 22.0277
L425.879 21.0772
L426.124 21.0772
L426.124 20.1267
L426.825 20.1267
L426.825 19.1762
L427.684 19.1762
L427.684 18.2257
L428.642 18.2257
L428.642 17.2752
L431.016 17.2752
L431.016 16.3248
L431.19 16.3248
L431.19 15.3743
L432.438 15.3743
L432.438 14.4238
L436.476 14.4238
L436.476 13.4733
L439.318 13.4733
L439.318 12.5228
L441.882 12.5228
L441.882 11.5723
L445.24 11.5723
L445.24 10.6218
L445.24 10.6218
L453.6 10.6218
L453.6 10.6218" style="fill:none;stroke:#bf00bf;stroke-linecap:square;"/>
   </g>
   <g id="line2d_4">
    <path clip-path="url(#p99b4b0da67)" d="
M201.414 352.8
L201.414 351.85
L201.414 351.85
L201.414 351.85
L201.414 350.899
L201.414 350.899
L201.414 350.899
L201.414 349.949
L201.414 349.949
L201.414 349.949
L201.414 348.998
L201.414 348.998
L201.414 348.998
L201.414 348.048
L201.414 348.048
L201.414 348.048
L201.414 347.097
L201.414 347.097
L201.414 347.097
L201.414 346.147
L201.414 346.147
L201.414 346.147
L201.414 345.196
L201.414 345.196
L201.414 345.196
L201.414 344.246
L201.414 344.246
L201.414 344.246
L201.414 343.295
L201.414 343.295
L201.414 343.295
L201.414 342.345
L201.414 342.345
L201.414 342.345
L201.414 341.394
L201.414 341.394
L201.414 341.394
L201.414 340.444
L201.414 340.444
L201.414 340.444
L201.414 339.493
L201.414 339.493
L201.414 339.493
L201.414 338.543
L232.169 338.543
L232.169 337.592
L235.186 337.592
L235.186 336.642
L235.397 336.642
L235.397 335.691
L236.468 335.691
L236.468 334.741
L237.458 334.741
L237.56 332.84
L237.654 332.84
L237.654 331.889
L238.192 331.889
L238.192 330.939
L238.374 330.939
L238.431 329.038
L238.663 329.038
L238.663 328.087
L238.85 328.087
L238.85 327.137
L239.277 327.137
L239.277 326.186
L239.932 326.186
L239.932 325.236
L240.902 325.236
L240.929 323.335
L241.026 323.335
L241.026 322.384
L241.413 322.384
L241.416 320.483
L242.795 320.483
L242.795 319.533
L243.724 319.533
L243.724 318.582
L243.865 318.582
L243.865 317.632
L244.305 317.632
L244.415 315.731
L244.724 315.731
L244.724 314.78
L245.051 314.78
L245.159 312.879
L245.724 312.879
L245.724 311.929
L246.138 311.929
L246.138 310.978
L246.708 310.978
L246.708 310.028
L246.825 310.028
L246.825 309.077
L247.378 309.077
L247.378 308.127
L248.528 308.127
L248.528 307.176
L248.87 307.176
L248.87 306.226
L249.472 306.226
L249.472 305.275
L249.725 305.275
L249.823 303.374
L251.26 303.374
L251.316 301.473
L253.133 301.473
L253.133 300.523
L253.561 300.523
L253.561 299.572
L254.369 299.572
L254.369 298.622
L254.685 298.622
L254.685 297.671
L255.17 297.671
L255.17 296.721
L255.718 296.721
L255.718 295.77
L256.543 295.77
L256.543 294.82
L257.031 294.82
L257.031 293.869
L257.274 293.869
L257.274 292.919
L257.564 292.919
L257.666 291.018
L257.678 291.018
L257.678 290.067
L257.905 290.067
L258.005 287.216
L258.477 287.216
L258.477 286.265
L258.589 286.265
L258.636 284.364
L258.882 284.364
L258.917 282.463
L259.136 282.463
L259.204 279.612
L259.429 279.612
L259.429 278.661
L259.563 278.661
L259.563 277.711
L259.732 277.711
L259.829 275.81
L259.911 275.81
L259.911 274.859
L260.116 274.859
L260.116 273.909
L260.344 273.909
L260.344 272.958
L260.585 272.958
L260.678 271.057
L261.141 271.057
L261.205 267.255
L261.408 267.255
L261.464 265.354
L261.67 265.354
L261.67 264.404
L261.924 264.404
L261.953 262.503
L262.246 262.503
L262.253 260.602
L262.659 260.602
L262.659 259.651
L263.346 259.651
L263.41 257.75
L263.768 257.75
L263.768 256.8
L264.057 256.8
L264.057 255.85
L264.822 255.85
L264.923 253.949
L265.27 253.949
L265.287 252.048
L265.395 252.048
L265.464 249.196
L265.629 249.196
L265.719 247.295
L265.806 247.295
L265.886 244.444
L266.014 244.444
L266.014 243.493
L266.205 243.493
L266.29 237.79
L266.378 237.79
L266.442 233.988
L266.491 233.988
L266.513 232.087
L266.608 232.087
L266.694 230.186
L266.821 230.186
L266.859 228.285
L267.008 228.285
L267.008 227.335
L267.41 227.335
L267.41 226.384
L268.123 226.384
L268.123 225.434
L268.346 225.434
L268.346 224.483
L272.149 224.483
L272.149 210.226
L275.111 210.226
L275.191 208.325
L275.77 208.325
L275.77 207.374
L276.746 207.374
L276.746 206.424
L277.027 206.424
L277.027 205.473
L277.206 205.473
L277.206 204.523
L278.138 204.523
L278.227 202.622
L278.331 202.622
L278.331 201.671
L278.798 201.671
L278.798 200.721
L278.998 200.721
L278.998 199.77
L279.209 199.77
L279.209 198.82
L279.448 198.82
L279.448 197.869
L279.726 197.869
L279.734 195.968
L279.848 195.968
L279.848 195.018
L280.127 195.018
L280.235 190.265
L280.267 190.265
L280.298 188.364
L280.703 188.364
L280.703 187.414
L281.01 187.414
L281.101 185.513
L281.287 185.513
L281.377 182.661
L281.631 182.661
L281.736 179.81
L281.827 179.81
L281.875 176.958
L282.019 176.958
L282.102 175.057
L282.161 175.057
L282.161 174.107
L282.435 174.107
L282.534 172.206
L282.721 172.206
L282.721 171.255
L282.851 171.255
L282.851 170.305
L283.019 170.305
L283.019 169.354
L283.581 169.354
L283.638 167.453
L283.945 167.453
L283.945 166.503
L284.609 166.503
L284.609 165.552
L285.072 165.552
L285.072 164.602
L285.389 164.602
L285.389 163.651
L286.08 163.651
L286.178 160.8
L286.306 160.8
L286.306 159.85
L286.615 159.85
L286.677 157.949
L286.736 157.949
L286.736 156.998
L286.85 156.998
L286.85 156.048
L287.023 156.048
L287.082 154.147
L287.168 154.147
L287.273 150.345
L287.305 150.345
L287.372 147.493
L287.567 147.493
L287.567 146.543
L287.998 146.543
L288.035 144.642
L288.11 144.642
L288.11 143.691
L288.244 143.691
L288.341 141.79
L288.394 141.79
L288.471 138.939
L288.527 138.939
L288.554 137.038
L288.644 137.038
L288.721 134.186
L289.144 134.186
L289.165 131.335
L289.3 131.335
L289.3 130.384
L289.519 130.384
L289.545 128.483
L289.958 128.483
L289.97 126.582
L290.168 126.582
L290.199 124.681
L290.288 124.681
L290.328 122.78
L290.423 122.78
L290.517 118.028
L291.88 118.028
L291.898 116.127
L292.777 116.127
L292.777 115.176
L293.144 115.176
L293.144 114.226
L294.654 114.226
L294.74 112.325
L294.939 112.325
L294.939 111.374
L295.276 111.374
L295.276 110.424
L296.041 110.424
L296.041 109.473
L296.355 109.473
L296.355 108.523
L297.623 108.523
L297.623 107.572
L298.681 107.572
L298.681 106.622
L299.107 106.622
L299.107 105.671
L299.295 105.671
L299.295 104.721
L299.595 104.721
L299.676 102.82
L299.71 102.82
L299.71 101.869
L300.31 101.869
L300.31 100.919
L300.97 100.919
L300.97 99.9683
L301.131 99.9683
L301.131 99.0178
L301.924 99.0178
L301.924 98.0673
L302.148 98.0673
L302.148 97.1168
L302.291 97.1168
L302.291 96.1663
L305.443 96.1663
L305.443 95.2158
L310.006 95.2158
L310.006 94.2653
L310.965 94.2653
L310.965 93.3149
L311.615 93.3149
L311.615 92.3644
L313.304 92.3644
L313.304 91.4139
L314.8 91.4139
L314.809 89.5129
L317.521 89.5129
L317.521 88.5624
L318.661 88.5624
L318.661 87.6119
L320.111 87.6119
L320.111 86.6614
L320.255 86.6614
L320.255 85.7109
L320.529 85.7109
L320.529 84.7604
L320.803 84.7604
L320.803 83.8099
L323.31 83.8099
L323.31 82.8594
L325.187 82.8594
L325.187 81.9089
L326.571 81.9089
L326.571 80.9584
L331.777 80.9584
L331.777 80.0079
L332.281 80.0079
L332.281 79.0574
L333.16 79.0574
L333.197 77.1564
L334.066 77.1564
L334.066 76.2059
L334.249 76.2059
L334.249 75.2554
L334.365 75.2554
L334.365 74.305
L335.454 74.305
L335.454 73.3545
L336.09 73.3545
L336.09 72.404
L337.581 72.404
L337.581 71.4535
L337.853 71.4535
L337.853 70.503
L337.972 70.503
L337.972 69.5525
L339.306 69.5525
L339.306 68.602
L340.638 68.602
L340.638 67.6515
L341.15 67.6515
L341.15 66.701
L343.513 66.701
L343.513 65.7505
L343.678 65.7505
L343.678 64.8
L347.007 64.8
L347.007 63.8495
L347.744 63.8495
L347.744 62.899
L350.084 62.899
L350.084 61.9485
L350.834 61.9485
L350.834 60.998
L351.223 60.998
L351.223 60.0475
L351.925 60.0475
L351.925 59.097
L354.843 59.097
L354.843 58.1465
L357.078 58.1465
L357.078 57.196
L359.693 57.196
L359.693 56.2455
L360.928 56.2455
L360.969 54.3446
L364.712 54.3446
L364.712 53.3941
L365.368 53.3941
L365.368 52.4436
L366.202 52.4436
L366.202 51.4931
L366.545 51.4931
L366.545 50.5426
L366.758 50.5426
L366.758 49.5921
L366.932 49.5921
L366.932 48.6416
L367.76 48.6416
L367.76 47.6911
L368.091 47.6911
L368.091 46.7406
L370.032 46.7406
L370.032 45.7901
L371.774 45.7901
L371.774 44.8396
L371.899 44.8396
L371.899 43.8891
L372.559 43.8891
L372.559 42.9386
L372.96 42.9386
L373.057 41.0376
L373.685 41.0376
L373.685 40.0871
L373.954 40.0871
L373.954 39.1366
L375.728 39.1366
L375.728 38.1861
L376.042 38.1861
L376.042 37.2356
L376.462 37.2356
L376.462 36.2851
L377.751 36.2851
L377.751 35.3347
L378.722 35.3347
L378.722 34.3842
L379.385 34.3842
L379.385 33.4337
L380.754 33.4337
L380.754 32.4832
L381.03 32.4832
L381.03 31.5327
L381.723 31.5327
L381.723 30.5822
L382.226 30.5822
L382.226 29.6317
L383 29.6317
L383 28.6812
L383.915 28.6812
L383.915 27.7307
L385.68 27.7307
L385.763 24.8792
L418.088 24.8792
L418.088 23.9287
L420.764 23.9287
L420.803 22.0277
L421.863 22.0277
L421.863 21.0772
L422.505 21.0772
L422.505 20.1267
L423.572 20.1267
L423.67 16.3248
L423.709 16.3248
L423.709 15.3743
L426.757 15.3743
L426.757 14.4238
L427.039 14.4238
L427.039 13.4733
L427.788 13.4733
L427.788 12.5228
L434.282 12.5228
L434.282 11.5723
L436.852 11.5723
L436.852 10.6218
L436.852 10.6218
L453.6 10.6218
L453.6 10.6218" style="fill:none;stroke:#000000;stroke-linecap:square;"/>
   </g>
   <g id="line2d_5">
    <path clip-path="url(#p99b4b0da67)" d="
M201.414 352.8
L201.414 351.85
L201.414 351.85
L201.414 351.85
L201.414 350.899
L201.414 350.899
L201.414 350.899
L201.414 349.949
L201.414 349.949
L201.414 349.949
L201.414 348.998
L201.414 348.998
L201.414 348.998
L201.414 348.048
L201.414 348.048
L201.414 348.048
L201.414 347.097
L201.414 347.097
L201.414 347.097
L201.414 346.147
L201.414 346.147
L201.414 346.147
L201.414 345.196
L201.414 345.196
L201.414 345.196
L201.414 344.246
L201.414 344.246
L201.414 344.246
L201.414 343.295
L201.414 343.295
L201.414 343.295
L201.414 342.345
L201.414 342.345
L201.414 342.345
L201.414 341.394
L201.414 341.394
L201.414 341.394
L201.414 340.444
L201.414 340.444
L201.414 340.444
L201.414 339.493
L201.414 339.493
L201.414 339.493
L201.414 338.543
L232.169 338.543
L232.169 337.592
L233.642 337.592
L233.642 336.642
L234.198 336.642
L234.198 335.691
L234.631 335.691
L234.631 334.741
L234.757 334.741
L234.757 333.79
L235.122 333.79
L235.19 331.889
L235.309 331.889
L235.397 329.988
L235.586 329.988
L235.586 329.038
L235.872 329.038
L235.895 327.137
L236.383 327.137
L236.448 325.236
L236.538 325.236
L236.538 324.285
L236.846 324.285
L236.846 323.335
L237.252 323.335
L237.252 322.384
L237.616 322.384
L237.657 318.582
L237.92 318.582
L238 316.681
L238.133 316.681
L238.133 315.731
L238.66 315.731
L238.66 314.78
L238.79 314.78
L238.79 313.83
L238.929 313.83
L238.929 312.879
L239.259 312.879
L239.259 311.929
L240.236 311.929
L240.236 310.978
L240.358 310.978
L240.358 310.028
L240.55 310.028
L240.55 309.077
L240.695 309.077
L240.695 308.127
L241.16 308.127
L241.224 306.226
L241.702 306.226
L241.702 305.275
L242.088 305.275
L242.088 304.325
L242.512 304.325
L242.541 302.424
L243.032 302.424
L243.032 301.473
L243.267 301.473
L243.332 298.622
L243.382 298.622
L243.382 297.671
L243.886 297.671
L243.886 296.721
L244.289 296.721
L244.352 294.82
L244.714 294.82
L244.714 293.869
L245.598 293.869
L245.686 291.968
L245.964 291.968
L246.057 290.067
L246.126 290.067
L246.155 288.166
L246.364 288.166
L246.364 287.216
L246.53 287.216
L246.53 286.265
L246.886 286.265
L246.886 285.315
L247.016 285.315
L247.016 284.364
L247.611 284.364
L247.611 283.414
L247.851 283.414
L247.893 281.513
L248.436 281.513
L248.457 279.612
L249.5 279.612
L249.5 278.661
L250.118 278.661
L250.128 276.76
L250.233 276.76
L250.233 275.81
L250.352 275.81
L250.352 274.859
L250.531 274.859
L250.531 273.909
L250.661 273.909
L250.661 272.958
L250.91 272.958
L250.961 271.057
L251.071 271.057
L251.071 270.107
L251.465 270.107
L251.551 267.255
L252.29 267.255
L252.29 266.305
L252.837 266.305
L252.837 265.354
L253.002 265.354
L253.067 263.453
L253.384 263.453
L253.384 262.503
L254.048 262.503
L254.112 260.602
L254.44 260.602
L254.457 258.701
L254.658 258.701
L254.658 257.75
L254.807 257.75
L254.807 256.8
L255 256.8
L255.1 254.899
L255.16 254.899
L255.202 252.048
L256.413 252.048
L256.417 250.147
L256.605 250.147
L256.605 249.196
L256.77 249.196
L256.77 248.246
L256.974 248.246
L257.048 246.345
L257.228 246.345
L257.228 245.394
L257.6 245.394
L257.678 243.493
L257.729 243.493
L257.764 241.592
L257.905 241.592
L257.905 240.642
L258.021 240.642
L258.021 239.691
L258.197 239.691
L258.197 238.741
L258.397 238.741
L258.457 236.84
L258.601 236.84
L258.641 234.939
L258.782 234.939
L258.852 233.038
L258.917 233.038
L258.917 232.087
L259.136 232.087
L259.232 228.285
L259.382 228.285
L259.429 226.384
L260.5 226.384
L260.5 225.434
L260.745 225.434
L260.745 224.483
L260.997 224.483
L260.997 223.533
L261.732 223.533
L261.732 222.582
L262.289 222.582
L262.323 220.681
L262.708 220.681
L262.803 217.83
L264.051 217.83
L264.134 215.929
L264.222 215.929
L264.222 214.978
L264.514 214.978
L264.514 214.028
L264.649 214.028
L264.714 212.127
L264.811 212.127
L264.819 210.226
L265.748 210.226
L265.748 209.275
L266.383 209.275
L266.383 208.325
L267.816 208.325
L267.816 207.374
L268.288 207.374
L268.36 205.473
L269.044 205.473
L269.044 204.523
L269.334 204.523
L269.334 203.572
L270.684 203.572
L270.784 201.671
L272.149 201.671
L272.149 187.414
L272.458 187.414
L272.458 186.463
L274.004 186.463
L274.004 185.513
L274.528 185.513
L274.553 183.612
L275.111 183.612
L275.191 181.711
L275.647 181.711
L275.647 180.76
L275.99 180.76
L275.99 179.81
L276.406 179.81
L276.406 178.859
L276.746 178.859
L276.746 177.909
L277.73 177.909
L277.766 176.008
L278.256 176.008
L278.317 174.107
L278.517 174.107
L278.517 173.156
L278.798 173.156
L278.808 171.255
L279.158 171.255
L279.222 168.404
L279.352 168.404
L279.459 166.503
L279.555 166.503
L279.582 164.602
L279.68 164.602
L279.768 160.8
L279.809 160.8
L279.887 156.998
L279.977 156.998
L280.082 155.097
L280.127 155.097
L280.153 153.196
L280.322 153.196
L280.322 152.246
L280.507 152.246
L280.601 150.345
L280.69 150.345
L280.703 148.444
L280.856 148.444
L280.856 147.493
L281.009 147.493
L281.106 143.691
L281.305 143.691
L281.305 142.741
L281.427 142.741
L281.456 139.889
L281.631 139.889
L281.678 137.988
L281.827 137.988
L281.827 137.038
L281.961 137.038
L282.015 133.236
L282.148 133.236
L282.193 131.335
L282.335 131.335
L282.408 128.483
L282.529 128.483
L282.572 126.582
L282.657 126.582
L282.657 125.632
L282.896 125.632
L282.965 123.731
L283.065 123.731
L283.065 122.78
L283.422 122.78
L283.422 121.83
L283.638 121.83
L283.638 120.879
L283.98 120.879
L284.091 118.978
L284.296 118.978
L284.347 117.077
L284.752 117.077
L284.752 116.127
L285.065 116.127
L285.16 114.226
L285.208 114.226
L285.208 113.275
L285.494 113.275
L285.494 112.325
L285.609 112.325
L285.621 110.424
L285.948 110.424
L286.02 108.523
L286.183 108.523
L286.235 106.622
L286.471 106.622
L286.471 105.671
L286.629 105.671
L286.629 104.721
L286.955 104.721
L286.955 103.77
L287.191 103.77
L287.191 102.82
L287.718 102.82
L287.718 101.869
L287.934 101.869
L287.934 100.919
L288.439 100.919
L288.439 99.9683
L289.054 99.9683
L289.054 99.0178
L289.981 99.0178
L289.981 98.0673
L290.402 98.0673
L290.402 97.1168
L290.649 97.1168
L290.649 96.1663
L291.315 96.1663
L291.345 94.2653
L291.813 94.2653
L291.813 93.3149
L292.723 93.3149
L292.777 90.4634
L292.858 90.4634
L292.858 89.5129
L293.616 89.5129
L293.674 86.6614
L294.658 86.6614
L294.725 84.7604
L295.575 84.7604
L295.575 83.8099
L295.759 83.8099
L295.789 81.9089
L296.291 81.9089
L296.291 80.9584
L297.082 80.9584
L297.082 80.0079
L297.212 80.0079
L297.236 78.1069
L298.88 78.1069
L298.88 77.1564
L299.47 77.1564
L299.47 76.2059
L304.047 76.2059
L304.047 75.2554
L304.384 75.2554
L304.384 74.305
L306.673 74.305
L306.673 73.3545
L306.873 73.3545
L306.964 71.4535
L308.671 71.4535
L308.671 70.503
L309.158 70.503
L309.158 69.5525
L309.366 69.5525
L309.366 68.602
L310.622 68.602
L310.622 67.6515
L311.326 67.6515
L311.326 66.701
L313.558 66.701
L313.558 65.7505
L315.215 65.7505
L315.253 63.8495
L315.334 63.8495
L315.334 62.899
L317.782 62.899
L317.782 61.9485
L318.085 61.9485
L318.085 60.998
L318.888 60.998
L318.888 60.0475
L320.464 60.0475
L320.464 59.097
L321.408 59.097
L321.408 58.1465
L323.61 58.1465
L323.61 57.196
L326.783 57.196
L326.783 56.2455
L328.167 56.2455
L328.167 55.295
L329.119 55.295
L329.119 54.3446
L329.53 54.3446
L329.53 53.3941
L357.561 53.3941
L357.561 52.4436
L357.787 52.4436
L357.886 50.5426
L358.894 50.5426
L358.952 48.6416
L359.335 48.6416
L359.335 47.6911
L360.429 47.6911
L360.461 45.7901
L360.549 45.7901
L360.549 44.8396
L360.978 44.8396
L360.978 43.8891
L361.12 43.8891
L361.12 42.9386
L361.675 42.9386
L361.675 41.9881
L362.481 41.9881
L362.481 41.0376
L362.622 41.0376
L362.622 40.0871
L362.945 40.0871
L362.945 39.1366
L363.073 39.1366
L363.073 38.1861
L363.585 38.1861
L363.651 35.3347
L364.159 35.3347
L364.159 34.3842
L364.311 34.3842
L364.376 32.4832
L365.412 32.4832
L365.412 31.5327
L365.574 31.5327
L365.574 30.5822
L366.212 30.5822
L366.212 29.6317
L369.011 29.6317
L369.011 28.6812
L370.532 28.6812
L370.532 27.7307
L371.964 27.7307
L371.964 26.7802
L372.275 26.7802
L372.275 25.8297
L374.412 25.8297
L374.412 24.8792
L404.425 24.8792
L404.425 23.9287
L405.058 23.9287
L405.058 22.9782
L406.04 22.9782
L406.04 22.0277
L406.599 22.0277
L406.599 21.0772
L407.573 21.0772
L407.573 20.1267
L407.813 20.1267
L407.813 19.1762
L408.294 19.1762
L408.339 16.3248
L409.047 16.3248
L409.047 15.3743
L409.736 15.3743
L409.736 14.4238
L413.942 14.4238
L413.942 13.4733
L414.918 13.4733
L414.918 12.5228
L416.729 12.5228
L416.729 11.5723
L417.273 11.5723
L417.273 10.6218
L417.273 10.6218
L453.6 10.6218
L453.6 10.6218" style="fill:none;stroke:#00bfbf;stroke-linecap:square;"/>
   </g>
   <g id="line2d_6">
    <path clip-path="url(#p99b4b0da67)" d="
M7.0865 352.8
L7.0865 351.85
L7.0865 351.85
L7.0865 351.85
L7.0865 350.899
L7.0865 350.899
L7.0865 350.899
L7.0865 349.949
L7.0865 349.949
L7.0865 349.949
L7.0865 348.998
L7.0865 348.998
L7.0865 348.998
L7.0865 348.048
L7.0865 348.048
L7.0865 348.048
L7.0865 347.097
L7.0865 347.097
L7.0865 347.097
L7.0865 346.147
L7.0865 346.147
L7.0865 346.147
L7.0865 345.196
L7.0865 345.196
L7.0865 345.196
L7.0865 344.246
L7.0865 344.246
L7.0865 344.246
L7.0865 343.295
L7.0865 343.295
L7.0865 343.295
L7.0865 342.345
L7.0865 342.345
L7.0865 342.345
L7.0865 341.394
L7.0865 341.394
L7.0865 341.394
L7.0865 340.444
L7.0865 340.444
L7.0865 340.444
L7.0865 339.493
L7.0865 339.493
L7.0865 339.493
L7.0865 338.543
L9.35058 338.543
L9.35058 337.592
L47.2702 337.592
L47.2702 336.642
L52.2877 336.642
L52.2877 335.691
L54.6617 335.691
L54.6617 334.741
L56.5609 334.741
L56.5609 333.79
L56.6833 333.79
L56.6833 332.84
L66.4312 332.84
L66.4312 331.889
L68.7055 331.889
L68.7055 330.939
L69.4641 330.939
L69.4641 329.988
L70.2973 329.988
L70.2973 329.038
L71.0294 329.038
L71.0294 328.087
L74.8 328.087
L74.8 327.137
L75.3524 327.137
L75.3524 326.186
L81.5475 326.186
L81.5475 325.236
L81.675 325.236
L81.675 324.285
L84.1675 324.285
L84.2693 322.384
L147.71 322.384
L147.71 321.434
L151.682 321.434
L151.682 320.483
L154.86 320.483
L154.86 319.533
L155.108 319.533
L155.211 317.632
L155.296 317.632
L155.296 316.681
L155.938 316.681
L155.938 315.731
L157.768 315.731
L157.87 313.83
L159.788 313.83
L159.788 312.879
L161.256 312.879
L161.256 311.929
L161.521 311.929
L161.521 310.978
L161.652 310.978
L161.652 310.028
L163.549 310.028
L163.549 309.077
L164.024 309.077
L164.024 308.127
L201.414 308.127
L201.414 293.869
L213.008 293.869
L213.009 291.968
L218.522 291.968
L218.522 291.018
L219.364 291.018
L219.364 290.067
L219.53 290.067
L219.53 289.117
L220.66 289.117
L220.69 287.216
L221.265 287.216
L221.265 286.265
L221.65 286.265
L221.756 283.414
L221.844 283.414
L221.844 282.463
L222.447 282.463
L222.447 281.513
L222.566 281.513
L222.616 279.612
L222.976 279.612
L222.976 278.661
L223.146 278.661
L223.146 277.711
L223.798 277.711
L223.798 276.76
L224.213 276.76
L224.213 275.81
L224.33 275.81
L224.33 274.859
L224.461 274.859
L224.461 273.909
L224.68 273.909
L224.68 272.958
L224.858 272.958
L224.858 271.057
L225.111 271.057
L225.111 270.107
L225.364 270.107
L225.364 269.156
L225.866 269.156
L225.866 268.206
L226.101 268.206
L226.101 267.255
L226.595 267.255
L226.595 266.305
L226.909 266.305
L226.909 265.354
L227.215 265.354
L227.215 264.404
L227.39 264.404
L227.39 263.453
L227.539 263.453
L227.568 260.602
L227.844 260.602
L227.844 259.651
L228.068 259.651
L228.068 258.701
L228.336 258.701
L228.42 256.8
L228.491 256.8
L228.491 255.85
L228.911 255.85
L228.911 254.899
L229.173 254.899
L229.254 252.998
L229.711 252.998
L229.711 252.048
L230.033 252.048
L230.037 250.147
L230.348 250.147
L230.371 248.246
L230.618 248.246
L230.621 246.345
L230.974 246.345
L230.974 245.394
L231.669 245.394
L231.669 244.444
L231.816 244.444
L231.816 243.493
L231.938 243.493
L231.938 242.543
L232.169 242.543
L232.218 239.691
L232.346 239.691
L232.346 238.741
L232.7 238.741
L232.7 237.79
L232.839 237.79
L232.839 236.84
L233.292 236.84
L233.353 234.939
L233.571 234.939
L233.604 233.038
L233.789 233.038
L233.872 231.137
L234.069 231.137
L234.127 229.236
L234.294 229.236
L234.294 228.285
L234.552 228.285
L234.552 227.335
L234.91 227.335
L234.91 226.384
L235.043 226.384
L235.043 225.434
L235.189 225.434
L235.261 223.533
L235.397 223.533
L235.397 222.582
L235.712 222.582
L235.735 218.78
L236.061 218.78
L236.061 217.83
L236.425 217.83
L236.425 216.879
L236.742 216.879
L236.762 214.978
L236.998 214.978
L236.998 214.028
L237.367 214.028
L237.391 212.127
L237.577 212.127
L237.577 211.176
L237.967 211.176
L237.967 210.226
L238.438 210.226
L238.519 208.325
L238.806 208.325
L238.837 205.473
L239.061 205.473
L239.113 203.572
L239.371 203.572
L239.431 201.671
L239.658 201.671
L239.725 199.77
L240.027 199.77
L240.027 198.82
L240.184 198.82
L240.184 197.869
L240.373 197.869
L240.373 196.919
L240.633 196.919
L240.633 195.968
L240.85 195.968
L240.912 194.067
L241.149 194.067
L241.149 193.117
L241.651 193.117
L241.651 192.166
L241.943 192.166
L242.036 187.414
L242.144 187.414
L242.144 186.463
L242.797 186.463
L242.902 184.562
L242.988 184.562
L242.988 183.612
L243.115 183.612
L243.115 182.661
L243.401 182.661
L243.401 181.711
L243.565 181.711
L243.597 179.81
L243.928 179.81
L243.955 177.909
L244.259 177.909
L244.354 176.008
L244.402 176.008
L244.402 175.057
L245.135 175.057
L245.135 174.107
L245.647 174.107
L245.647 173.156
L246.045 173.156
L246.045 172.206
L246.164 172.206
L246.164 171.255
L246.542 171.255
L246.542 170.305
L247.384 170.305
L247.384 169.354
L247.52 169.354
L247.52 168.404
L247.896 168.404
L247.967 166.503
L248.506 166.503
L248.609 162.701
L248.631 162.701
L248.631 161.75
L248.767 161.75
L248.78 158.899
L249.023 158.899
L249.06 156.998
L249.162 156.998
L249.162 156.048
L249.388 156.048
L249.388 155.097
L249.764 155.097
L249.823 152.246
L249.895 152.246
L249.957 149.394
L250.02 149.394
L250.02 148.444
L250.248 148.444
L250.248 147.493
L250.362 147.493
L250.452 142.741
L250.537 142.741
L250.637 140.84
L250.65 140.84
L250.719 138.939
L250.778 138.939
L250.831 136.087
L250.988 136.087
L250.988 135.137
L251.211 135.137
L251.304 133.236
L251.677 133.236
L251.737 131.335
L252.355 131.335
L252.395 129.434
L252.509 129.434
L252.509 128.483
L253.005 128.483
L253.005 127.533
L253.268 127.533
L253.339 125.632
L253.42 125.632
L253.42 124.681
L253.701 124.681
L253.701 123.731
L253.821 123.731
L253.821 122.78
L254.066 122.78
L254.066 121.83
L256.041 121.83
L256.041 120.879
L256.687 120.879
L256.687 119.929
L258.391 119.929
L258.391 118.978
L258.896 118.978
L258.896 118.028
L261.388 118.028
L261.472 116.127
L262.067 116.127
L262.067 115.176
L262.231 115.176
L262.231 114.226
L263.128 114.226
L263.128 113.275
L263.436 113.275
L263.436 112.325
L265.253 112.325
L265.253 111.374
L265.37 111.374
L265.37 110.424
L265.489 110.424
L265.489 109.473
L265.737 109.473
L265.781 107.572
L266.01 107.572
L266.049 105.671
L266.176 105.671
L266.275 103.77
L266.295 103.77
L266.295 102.82
L266.737 102.82
L266.841 99.0178
L266.867 99.0178
L266.962 97.1168
L267.084 97.1168
L267.084 96.1663
L267.324 96.1663
L267.324 95.2158
L268.996 95.2158
L269.015 93.3149
L269.145 93.3149
L269.145 92.3644
L269.387 92.3644
L269.387 91.4139
L269.9 91.4139
L269.9 90.4634
L270.17 90.4634
L270.203 87.6119
L270.489 87.6119
L270.489 86.6614
L270.736 86.6614
L270.736 85.7109
L270.876 85.7109
L270.945 83.8099
L271.358 83.8099
L271.358 82.8594
L271.656 82.8594
L271.691 80.9584
L272.609 80.9584
L272.691 79.0574
L273.217 79.0574
L273.217 78.1069
L273.442 78.1069
L273.442 77.1564
L273.559 77.1564
L273.62 74.305
L273.789 74.305
L273.789 73.3545
L274.083 73.3545
L274.083 72.404
L274.525 72.404
L274.525 71.4535
L275.111 71.4535
L275.191 69.5525
L275.239 69.5525
L275.255 67.6515
L275.48 67.6515
L275.583 65.7505
L275.901 65.7505
L275.901 64.8
L276.239 64.8
L276.267 61.9485
L276.369 61.9485
L276.369 60.998
L276.697 60.998
L276.746 59.097
L276.813 59.097
L276.895 57.196
L277.527 57.196
L277.633 55.295
L278.071 55.295
L278.114 52.4436
L278.855 52.4436
L278.855 51.4931
L279.333 51.4931
L279.333 50.5426
L279.459 50.5426
L279.459 49.5921
L279.73 49.5921
L279.768 47.6911
L280.703 47.6911
L280.703 46.7406
L281.427 46.7406
L281.427 45.7901
L281.631 45.7901
L281.631 44.8396
L281.827 44.8396
L281.827 43.8891
L283.616 43.8891
L283.638 41.9881
L287.718 41.9881
L287.718 41.0376
L289.318 41.0376
L289.318 40.0871
L292.777 40.0871
L292.777 39.1366
L298.029 39.1366
L298.029 38.1861
L304.672 38.1861
L304.672 37.2356
L307.698 37.2356
L307.698 36.2851
L307.977 36.2851
L307.977 35.3347
L310.951 35.3347
L310.951 34.3842
L311.962 34.3842
L311.962 33.4337
L315.002 33.4337
L315.002 32.4832
L316.321 32.4832
L316.321 31.5327
L317.117 31.5327
L317.117 30.5822
L318.181 30.5822
L318.181 29.6317
L320.175 29.6317
L320.175 28.6812
L322.706 28.6812
L322.799 26.7802
L323.169 26.7802
L323.169 25.8297
L323.533 25.8297
L323.533 24.8792
L324.847 24.8792
L324.847 23.9287
L326.115 23.9287
L326.115 22.9782
L327.049 22.9782
L327.049 22.0277
L328.472 22.0277
L328.472 21.0772
L328.724 21.0772
L328.724 20.1267
L328.917 20.1267
L328.917 19.1762
L329.141 19.1762
L329.141 18.2257
L330.913 18.2257
L330.913 17.2752
L331.517 17.2752
L331.517 16.3248
L332.696 16.3248
L332.696 15.3743
L335.499 15.3743
L335.499 14.4238
L339 14.4238
L339 13.4733
L340.382 13.4733
L340.382 12.5228
L341.523 12.5228
L341.523 11.5723
L342.05 11.5723
L342.05 10.6218
L342.05 10.6218
L453.6 10.6218
L453.6 10.6218" style="fill:none;stroke:#bf00bf;stroke-linecap:square;"/>
   </g>
   <g id="line2d_7">
    <path clip-path="url(#p99b4b0da67)" d="
M-1 307.176
L1.19242 307.176
L1.19242 306.226
L7.0865 306.226
L7.0865 291.968
L11.9255 291.968
L11.9255 291.018
L83.9995 291.018
L83.9995 290.067
L96.7134 290.067
L96.7134 289.117
L106.848 289.117
L106.848 288.166
L108.702 288.166
L108.702 287.216
L113.392 287.216
L113.392 286.265
L114.298 286.265
L114.298 285.315
L114.484 285.315
L114.484 284.364
L114.997 284.364
L114.997 283.414
L115.496 283.414
L115.496 282.463
L115.647 282.463
L115.647 281.513
L116.01 281.513
L116.01 280.562
L116.165 280.562
L116.165 279.612
L117.226 279.612
L117.226 278.661
L117.462 278.661
L117.462 277.711
L117.603 277.711
L117.603 276.76
L117.856 276.76
L117.856 275.81
L125.193 275.81
L125.193 274.859
L157.965 274.859
L157.965 273.909
L177.123 273.909
L177.123 272.958
L182.974 272.958
L182.974 272.008
L193.765 272.008
L193.765 271.057
L197.64 271.057
L197.64 270.107
L197.871 270.107
L197.871 269.156
L199.013 269.156
L199.013 268.206
L201.414 268.206
L201.414 253.949
L202.265 253.949
L202.265 252.998
L206.476 252.998
L206.476 252.048
L207.112 252.048
L207.112 251.097
L208.731 251.097
L208.731 250.147
L209.044 250.147
L209.044 249.196
L211.373 249.196
L211.373 248.246
L211.56 248.246
L211.56 247.295
L212.844 247.295
L212.844 246.345
L213.008 246.345
L213.008 244.444
L213.814 244.444
L213.814 243.493
L215.024 243.493
L215.024 242.543
L215.314 242.543
L215.314 241.592
L216.007 241.592
L216.007 240.642
L218.166 240.642
L218.166 239.691
L218.408 239.691
L218.408 238.741
L219.141 238.741
L219.141 237.79
L220.383 237.79
L220.383 236.84
L220.653 236.84
L220.653 234.939
L220.786 234.939
L220.786 233.988
L221.142 233.988
L221.142 233.038
L221.611 233.038
L221.687 231.137
L221.84 231.137
L221.84 230.186
L221.987 230.186
L221.987 229.236
L222.82 229.236
L222.911 227.335
L223.115 227.335
L223.115 226.384
L223.701 226.384
L223.768 223.533
L224.012 223.533
L224.109 221.632
L224.224 221.632
L224.224 220.681
L224.443 220.681
L224.443 219.731
L224.706 219.731
L224.706 218.78
L224.858 218.78
L224.892 215.929
L224.987 215.929
L225.002 214.028
L225.364 214.028
L225.382 212.127
L226.054 212.127
L226.054 211.176
L226.316 211.176
L226.316 210.226
L226.563 210.226
L226.563 209.275
L226.907 209.275
L226.907 208.325
L227.341 208.325
L227.341 207.374
L227.539 207.374
L227.539 205.473
L227.913 205.473
L227.913 204.523
L228.068 204.523
L228.068 203.572
L228.328 203.572
L228.328 202.622
L228.989 202.622
L228.989 201.671
L229.146 201.671
L229.166 199.77
L229.642 199.77
L229.642 198.82
L229.778 198.82
L229.778 197.869
L230.019 197.869
L230.037 195.968
L230.301 195.968
L230.398 193.117
L230.517 193.117
L230.613 191.216
L231.031 191.216
L231.031 190.265
L231.149 190.265
L231.149 189.315
L231.392 189.315
L231.392 188.364
L231.577 188.364
L231.629 185.513
L231.938 185.513
L231.997 183.612
L232.086 183.612
L232.086 182.661
L232.63 182.661
L232.63 181.711
L232.878 181.711
L232.878 180.76
L233.564 180.76
L233.583 178.859
L233.789 178.859
L233.789 177.909
L234.081 177.909
L234.081 176.958
L235.712 176.958
L235.75 172.206
L236.255 172.206
L236.269 170.305
L236.566 170.305
L236.566 169.354
L236.857 169.354
L236.857 168.404
L237.042 168.404
L237.046 166.503
L237.859 166.503
L237.885 163.651
L238.531 163.651
L238.602 160.8
L238.699 160.8
L238.699 159.85
L238.837 159.85
L238.837 158.899
L238.954 158.899
L238.954 157.949
L239.431 157.949
L239.516 156.048
L239.596 156.048
L239.685 153.196
L239.741 153.196
L239.741 152.246
L240.411 152.246
L240.49 149.394
L240.624 149.394
L240.624 148.444
L240.912 148.444
L240.914 146.543
L241.093 146.543
L241.093 145.592
L241.651 145.592
L241.651 144.642
L241.883 144.642
L241.943 140.84
L242.079 140.84
L242.144 138.939
L242.852 138.939
L242.923 136.087
L243.058 136.087
L243.109 134.186
L243.208 134.186
L243.208 133.236
L243.573 133.236
L243.649 131.335
L243.882 131.335
L243.955 128.483
L244.28 128.483
L244.28 127.533
L244.621 127.533
L244.621 126.582
L245.102 126.582
L245.102 125.632
L245.48 125.632
L245.574 122.78
L246.702 122.78
L246.702 121.83
L247.609 121.83
L247.609 120.879
L247.978 120.879
L247.978 119.929
L248.609 119.929
L248.609 118.028
L248.752 118.028
L248.78 116.127
L249.223 116.127
L249.227 114.226
L249.765 114.226
L249.765 113.275
L250.339 113.275
L250.362 110.424
L251.095 110.424
L251.095 109.473
L251.301 109.473
L251.409 107.572
L251.588 107.572
L251.677 104.721
L251.737 104.721
L251.737 103.77
L252.355 103.77
L252.355 102.82
L252.509 102.82
L252.509 101.869
L253.42 101.869
L253.42 100.919
L254.009 100.919
L254.009 99.9683
L256.039 99.9683
L256.039 99.0178
L256.687 99.0178
L256.687 98.0673
L258.647 98.0673
L258.647 97.1168
L260.756 97.1168
L260.756 96.1663
L261.777 96.1663
L261.777 95.2158
L262.003 95.2158
L262.003 93.3149
L263.07 93.3149
L263.07 92.3644
L263.857 92.3644
L263.857 91.4139
L264.231 91.4139
L264.231 90.4634
L264.77 90.4634
L264.77 87.6119
L265.21 87.6119
L265.21 86.6614
L265.413 86.6614
L265.413 85.7109
L265.615 85.7109
L265.615 84.7604
L265.777 84.7604
L265.788 81.9089
L265.937 81.9089
L265.937 80.9584
L266.249 80.9584
L266.249 79.0574
L266.566 79.0574
L266.566 78.1069
L266.702 78.1069
L266.729 75.2554
L266.85 75.2554
L266.85 74.305
L266.995 74.305
L266.995 73.3545
L267.28 73.3545
L267.28 72.404
L267.558 72.404
L267.558 71.4535
L267.88 71.4535
L267.88 70.503
L268.482 70.503
L268.482 68.602
L268.674 68.602
L268.674 67.6515
L268.856 67.6515
L268.856 66.701
L269.099 66.701
L269.186 62.899
L269.371 62.899
L269.453 60.998
L269.684 60.998
L269.684 60.0475
L269.823 60.0475
L269.823 59.097
L269.996 59.097
L269.996 58.1465
L270.131 58.1465
L270.131 57.196
L270.348 57.196
L270.418 54.3446
L270.667 54.3446
L270.667 53.3941
L270.874 53.3941
L270.874 52.4436
L271.178 52.4436
L271.178 51.4931
L271.342 51.4931
L271.342 50.5426
L271.668 50.5426
L271.699 48.6416
L271.952 48.6416
L271.952 47.6911
L272.588 47.6911
L272.588 46.7406
L272.974 46.7406
L272.974 45.7901
L273.275 45.7901
L273.275 44.8396
L273.525 44.8396
L273.525 43.8891
L274.46 43.8891
L274.46 42.9386
L275.111 42.9386
L275.191 41.0376
L276.261 41.0376
L276.261 40.0871
L276.746 40.0871
L276.746 39.1366
L277.418 39.1366
L277.418 38.1861
L277.983 38.1861
L277.983 36.2851
L279.333 36.2851
L279.333 35.3347
L279.459 35.3347
L279.459 34.3842
L279.768 34.3842
L279.768 33.4337
L280.385 33.4337
L280.385 32.4832
L280.703 32.4832
L280.703 31.5327
L281.427 31.5327
L281.427 30.5822
L281.631 30.5822
L281.631 29.6317
L281.827 29.6317
L281.827 28.6812
L283.638 28.6812
L283.699 26.7802
L283.927 26.7802
L283.927 25.8297
L286.27 25.8297
L286.27 24.8792
L287.174 24.8792
L287.174 23.9287
L287.718 23.9287
L287.718 22.9782
L289.043 22.9782
L289.043 22.0277
L292.777 22.0277
L292.777 21.0772
L295.245 21.0772
L295.245 20.1267
L298.214 20.1267
L298.227 18.2257
L299.934 18.2257
L299.934 17.2752
L302.295 17.2752
L302.295 16.3248
L304.78 16.3248
L304.855 14.4238
L305.823 14.4238
L305.823 13.4733
L309.926 13.4733
L309.926 12.5228
L310.258 12.5228
L310.258 11.5723
L311.728 11.5723
L311.728 10.6218
L311.728 10.6218
L453.6 10.6218
L453.6 10.6218" style="fill:none;stroke:#000000;stroke-linecap:square;"/>
   </g>
   <g id="line2d_8">
    <path clip-path="url(#p99b4b0da67)" d="
M-1 291.968
L7.0865 291.968
L7.0865 277.711
L53.4503 277.711
L53.4503 276.76
L71.5495 276.76
L71.5495 275.81
L89.6358 275.81
L89.6358 274.859
L90.7471 274.859
L90.7471 273.909
L90.8858 273.909
L90.8858 272.958
L91.351 272.958
L91.351 272.008
L91.7413 272.008
L91.7413 271.057
L92.5217 271.057
L92.5217 270.107
L92.858 270.107
L92.8722 268.206
L94.7489 268.206
L94.7489 267.255
L95.5353 267.255
L95.5353 266.305
L95.8098 266.305
L95.8098 265.354
L97.3978 265.354
L97.4618 263.453
L134.144 263.453
L134.144 262.503
L134.617 262.503
L134.617 261.552
L147.325 261.552
L147.325 260.602
L151.538 260.602
L151.538 259.651
L151.986 259.651
L151.986 258.701
L153.91 258.701
L153.91 257.75
L154.083 257.75
L154.083 256.8
L154.259 256.8
L154.259 255.85
L155.893 255.85
L155.893 254.899
L157.449 254.899
L157.449 253.949
L157.735 253.949
L157.735 252.998
L157.854 252.998
L157.854 252.048
L158.586 252.048
L158.586 251.097
L162.297 251.097
L162.297 250.147
L164.146 250.147
L164.146 249.196
L177.123 249.196
L177.123 248.246
L185.664 248.246
L185.664 247.295
L193.626 247.295
L193.626 246.345
L197.64 246.345
L197.64 245.394
L197.77 245.394
L197.77 244.444
L201.414 244.444
L201.414 230.186
L202.173 230.186
L202.173 229.236
L206.122 229.236
L206.122 228.285
L206.476 228.285
L206.476 227.335
L208.731 227.335
L208.731 226.384
L209.044 226.384
L209.044 225.434
L211.373 225.434
L211.373 224.483
L211.56 224.483
L211.56 223.533
L212.748 223.533
L212.748 222.582
L213.008 222.582
L213.008 220.681
L213.814 220.681
L213.814 219.731
L213.935 219.731
L213.935 218.78
L214.959 218.78
L214.959 217.83
L215.314 217.83
L215.314 216.879
L216.007 216.879
L216.007 215.929
L218.042 215.929
L218.042 214.978
L218.324 214.978
L218.324 214.028
L218.857 214.028
L218.857 213.077
L219.139 213.077
L219.141 211.176
L220.383 211.176
L220.455 209.275
L220.579 209.275
L220.653 206.424
L221.142 206.424
L221.142 204.523
L221.611 204.523
L221.611 203.572
L221.84 203.572
L221.84 202.622
L221.987 202.622
L221.987 201.671
L222.82 201.671
L222.911 199.77
L223.115 199.77
L223.115 198.82
L223.767 198.82
L223.768 196.919
L223.892 196.919
L223.934 195.018
L224.109 195.018
L224.202 193.117
L224.443 193.117
L224.443 192.166
L224.699 192.166
L224.699 191.216
L224.858 191.216
L224.892 188.364
L224.987 188.364
L225.002 186.463
L225.364 186.463
L225.382 184.562
L226.054 184.562
L226.054 183.612
L226.177 183.612
L226.177 182.661
L226.316 182.661
L226.316 181.711
L226.563 181.711
L226.563 180.76
L227.224 180.76
L227.224 179.81
L227.539 179.81
L227.539 177.909
L227.913 177.909
L227.913 176.958
L228.068 176.958
L228.068 176.008
L228.328 176.008
L228.328 175.057
L228.918 175.057
L228.989 173.156
L229.132 173.156
L229.166 171.255
L229.778 171.255
L229.778 170.305
L229.968 170.305
L229.968 169.354
L230.37 169.354
L230.406 167.453
L230.577 167.453
L230.577 166.503
L231.031 166.503
L231.031 165.552
L231.149 165.552
L231.149 164.602
L231.273 164.602
L231.273 163.651
L231.577 163.651
L231.603 161.75
L231.997 161.75
L232.086 159.85
L232.374 159.85
L232.374 158.899
L232.63 158.899
L232.63 157.949
L232.986 157.949
L232.989 156.048
L233.548 156.048
L233.564 154.147
L234.081 154.147
L234.081 153.196
L235.712 153.196
L235.75 148.444
L236.566 148.444
L236.566 147.493
L236.749 147.493
L236.749 146.543
L236.888 146.543
L236.888 145.592
L238.602 145.592
L238.699 143.691
L238.837 143.691
L238.837 142.741
L238.954 142.741
L238.954 141.79
L239.431 141.79
L239.431 140.84
L239.658 140.84
L239.682 137.988
L240.411 137.988
L240.49 135.137
L240.624 135.137
L240.624 134.186
L240.912 134.186
L240.912 133.236
L241.651 133.236
L241.651 132.285
L241.883 132.285
L241.943 128.483
L242.04 128.483
L242.144 126.582
L242.481 126.582
L242.481 125.632
L242.852 125.632
L242.875 123.731
L243.541 123.731
L243.541 122.78
L243.928 122.78
L243.955 120.879
L245.094 120.879
L245.094 119.929
L245.509 119.929
L245.509 118.978
L246.603 118.978
L246.603 118.028
L247.609 118.028
L247.609 117.077
L248.609 117.077
L248.609 115.176
L248.74 115.176
L248.82 112.325
L249.201 112.325
L249.22 110.424
L249.765 110.424
L249.765 109.473
L250.339 109.473
L250.362 106.622
L251.301 106.622
L251.301 105.671
L251.588 105.671
L251.677 102.82
L251.737 102.82
L251.737 101.869
L252.355 101.869
L252.355 100.919
L252.486 100.919
L252.486 99.9683
L254.009 99.9683
L254.009 99.0178
L254.919 99.0178
L254.919 98.0673
L256.039 98.0673
L256.039 97.1168
L256.687 97.1168
L256.687 96.1663
L257.031 96.1663
L257.031 95.2158
L258.647 95.2158
L258.647 94.2653
L260.319 94.2653
L260.319 93.3149
L261.228 93.3149
L261.228 92.3644
L261.777 92.3644
L261.777 91.4139
L262.003 91.4139
L262.003 89.5129
L262.655 89.5129
L262.655 88.5624
L263.07 88.5624
L263.07 87.6119
L263.857 87.6119
L263.857 86.6614
L264.22 86.6614
L264.231 84.7604
L264.413 84.7604
L264.413 83.8099
L264.77 83.8099
L264.853 80.0079
L265.21 80.0079
L265.286 78.1069
L265.615 78.1069
L265.615 77.1564
L265.77 77.1564
L265.788 72.404
L266.249 72.404
L266.249 71.4535
L266.566 71.4535
L266.566 70.503
L266.702 70.503
L266.729 67.6515
L266.85 67.6515
L266.85 65.7505
L266.995 65.7505
L266.995 64.8
L267.138 64.8
L267.138 63.8495
L267.28 63.8495
L267.359 61.9485
L267.558 61.9485
L267.558 60.998
L267.752 60.998
L267.752 60.0475
L267.88 60.0475
L267.88 59.097
L268.482 59.097
L268.482 58.1465
L268.674 58.1465
L268.753 56.2455
L268.856 56.2455
L268.908 54.3446
L269.099 54.3446
L269.186 50.5426
L269.453 50.5426
L269.491 48.6416
L269.569 48.6416
L269.569 47.6911
L269.684 47.6911
L269.684 46.7406
L269.931 46.7406
L269.938 44.8396
L270.131 44.8396
L270.131 43.8891
L270.348 43.8891
L270.393 41.9881
L270.667 41.9881
L270.667 41.0376
L270.874 41.0376
L270.874 40.0871
L271.233 40.0871
L271.342 38.1861
L271.668 38.1861
L271.699 36.2851
L271.952 36.2851
L271.952 35.3347
L272.192 35.3347
L272.192 34.3842
L272.379 34.3842
L272.434 32.4832
L272.588 32.4832
L272.588 31.5327
L273.401 31.5327
L273.401 30.5822
L273.525 30.5822
L273.525 29.6317
L274.869 29.6317
L274.869 28.6812
L275.111 28.6812
L275.191 25.8297
L276.261 25.8297
L276.261 24.8792
L276.443 24.8792
L276.443 23.9287
L276.65 23.9287
L276.713 22.0277
L277.099 22.0277
L277.192 20.1267
L277.418 20.1267
L277.418 19.1762
L277.983 19.1762
L277.983 18.2257
L279.333 18.2257
L279.333 17.2752
L279.459 17.2752
L279.459 16.3248
L280.703 16.3248
L280.703 15.3743
L281.091 15.3743
L281.091 14.4238
L281.827 14.4238
L281.827 13.4733
L283.638 13.4733
L283.638 12.5228
L292.777 12.5228
L292.777 11.5723
L293.815 11.5723
L293.815 10.6218
L293.815 10.6218
L453.6 10.6218
L453.6 10.6218" style="fill:none;stroke:#00bfbf;stroke-linecap:square;"/>
   </g>
   <g id="line2d_9">
    <path clip-path="url(#p99b4b0da67)" d="
M-1 273.909
L7.0865 273.909
L7.0865 259.651
L47.9001 259.651
L47.9001 258.701
L64.7935 258.701
L64.7935 257.75
L69.6451 257.75
L69.6451 256.8
L70.551 256.8
L70.551 255.85
L76.4916 255.85
L76.4916 254.899
L77.5339 254.899
L77.5339 253.949
L79.377 253.949
L79.3774 252.048
L80.0699 252.048
L80.1063 249.196
L80.6347 249.196
L80.6347 248.246
L81.4248 248.246
L81.4248 247.295
L81.7145 247.295
L81.7145 246.345
L81.8597 246.345
L81.8597 245.394
L83.2594 245.394
L83.2594 244.444
L122.518 244.444
L122.518 243.493
L136.041 243.493
L136.041 242.543
L157.153 242.543
L157.153 241.592
L157.476 241.592
L157.476 240.642
L162.297 240.642
L162.297 239.691
L173.512 239.691
L173.512 238.741
L177.123 238.741
L177.123 237.79
L177.554 237.79
L177.554 236.84
L179.351 236.84
L179.351 235.889
L182.238 235.889
L182.238 234.939
L188.755 234.939
L188.755 233.988
L192.077 233.988
L192.169 232.087
L193.157 232.087
L193.157 231.137
L194.268 231.137
L194.268 230.186
L194.391 230.186
L194.391 229.236
L196.492 229.236
L196.492 228.285
L199.413 228.285
L199.413 227.335
L201.271 227.335
L201.271 226.384
L201.414 226.384
L201.414 212.127
L201.775 212.127
L201.842 210.226
L202.654 210.226
L202.654 209.275
L204.054 209.275
L204.054 208.325
L204.781 208.325
L204.781 207.374
L205.367 207.374
L205.367 206.424
L205.775 206.424
L205.775 205.473
L206.964 205.473
L206.964 204.523
L208.104 204.523
L208.104 203.572
L209.097 203.572
L209.161 200.721
L209.596 200.721
L209.596 199.77
L210.064 199.77
L210.064 198.82
L210.514 198.82
L210.514 197.869
L210.664 197.869
L210.664 196.919
L212.413 196.919
L212.413 195.968
L213.008 195.968
L213.081 188.364
L214.717 188.364
L214.717 187.414
L215.052 187.414
L215.052 186.463
L215.848 186.463
L215.848 185.513
L216.007 185.513
L216.007 184.562
L216.383 184.562
L216.383 183.612
L216.925 183.612
L216.925 182.661
L217.94 182.661
L217.94 181.711
L218.324 181.711
L218.324 180.76
L218.95 180.76
L218.95 179.81
L219.141 179.81
L219.236 177.909
L219.423 177.909
L219.423 176.958
L219.713 176.958
L219.713 176.008
L220.142 176.008
L220.231 174.107
L220.301 174.107
L220.4 171.255
L220.653 171.255
L220.736 169.354
L220.818 169.354
L220.818 167.453
L221.028 167.453
L221.028 166.503
L221.142 166.503
L221.196 163.651
L221.61 163.651
L221.61 162.701
L221.759 162.701
L221.759 161.75
L223.366 161.75
L223.366 160.8
L224.699 160.8
L224.699 159.85
L224.858 159.85
L224.858 157.949
L224.987 157.949
L224.987 156.998
L225.364 156.998
L225.382 154.147
L225.869 154.147
L225.869 153.196
L226.139 153.196
L226.139 152.246
L226.316 152.246
L226.316 151.295
L226.72 151.295
L226.72 150.345
L227.021 150.345
L227.03 148.444
L227.378 148.444
L227.378 147.493
L227.539 147.493
L227.539 145.592
L228.068 145.592
L228.068 144.642
L228.328 144.642
L228.328 143.691
L228.918 143.691
L228.918 142.741
L229.132 142.741
L229.132 141.79
L229.778 141.79
L229.81 139.889
L229.923 139.889
L229.923 138.939
L230.486 138.939
L230.577 137.038
L231.031 137.038
L231.031 136.087
L231.149 136.087
L231.149 135.137
L231.397 135.137
L231.397 134.186
L231.577 134.186
L231.577 133.236
L232.086 133.236
L232.086 132.285
L232.222 132.285
L232.222 131.335
L232.986 131.335
L232.986 130.384
L233.548 130.384
L233.548 129.434
L233.825 129.434
L233.825 128.483
L234.081 128.483
L234.081 127.533
L234.665 127.533
L234.665 126.582
L234.963 126.582
L234.963 125.632
L235.712 125.632
L235.712 121.83
L236.248 121.83
L236.273 119.929
L236.566 119.929
L236.566 118.978
L237.706 118.978
L237.706 118.028
L237.892 118.028
L237.892 117.077
L238.248 117.077
L238.311 114.226
L238.602 114.226
L238.602 113.275
L239.332 113.275
L239.431 111.374
L239.658 111.374
L239.658 110.424
L240.336 110.424
L240.336 109.473
L240.724 109.473
L240.793 107.572
L240.912 107.572
L240.912 106.622
L241.651 106.622
L241.651 105.671
L241.77 105.671
L241.775 103.77
L241.883 103.77
L241.943 101.869
L242.481 101.869
L242.481 100.919
L242.875 100.919
L242.875 99.9683
L243.928 99.9683
L243.928 99.0178
L244.269 99.0178
L244.269 98.0673
L244.8 98.0673
L244.8 97.1168
L245.094 97.1168
L245.162 94.2653
L247.039 94.2653
L247.039 93.3149
L247.523 93.3149
L247.523 92.3644
L247.764 92.3644
L247.764 91.4139
L248.373 91.4139
L248.373 90.4634
L250.123 90.4634
L250.123 89.5129
L250.339 89.5129
L250.339 88.5624
L250.552 88.5624
L250.552 87.6119
L250.981 87.6119
L250.981 86.6614
L251.654 86.6614
L251.654 85.7109
L252.518 85.7109
L252.518 84.7604
L255.226 84.7604
L255.226 83.8099
L256.28 83.8099
L256.35 81.9089
L258.647 81.9089
L258.647 80.9584
L260.319 80.9584
L260.369 77.1564
L260.768 77.1564
L260.826 75.2554
L260.907 75.2554
L260.907 74.305
L261.071 74.305
L261.071 73.3545
L261.777 73.3545
L261.777 72.404
L261.905 72.404
L262.003 69.5525
L262.442 69.5525
L262.442 68.602
L262.655 68.602
L262.748 66.701
L263.07 66.701
L263.07 65.7505
L263.47 65.7505
L263.47 63.8495
L263.665 63.8495
L263.742 61.9485
L264.045 61.9485
L264.045 60.0475
L264.231 60.0475
L264.231 58.1465
L264.413 58.1465
L264.413 57.196
L264.593 57.196
L264.593 56.2455
L264.77 56.2455
L264.77 52.4436
L264.944 52.4436
L264.944 51.4931
L265.21 51.4931
L265.285 49.5921
L265.451 49.5921
L265.451 47.6911
L265.563 47.6911
L265.615 44.8396
L265.77 44.8396
L265.777 41.9881
L266.382 41.9881
L266.485 39.1366
L266.553 39.1366
L266.58 36.2851
L266.676 36.2851
L266.702 33.4337
L266.85 33.4337
L266.85 32.4832
L267.138 32.4832
L267.24 29.6317
L267.572 29.6317
L267.572 28.6812
L267.752 28.6812
L267.83 25.8297
L267.876 25.8297
L267.88 23.9287
L268.072 23.9287
L268.095 22.0277
L268.26 22.0277
L268.26 21.0772
L268.608 21.0772
L268.627 19.1762
L269.099 19.1762
L269.099 18.2257
L269.312 18.2257
L269.312 17.2752
L269.453 17.2752
L269.453 16.3248
L269.684 16.3248
L269.684 15.3743
L274.262 15.3743
L274.262 14.4238
L274.473 14.4238
L274.473 13.4733
L279.169 13.4733
L279.169 12.5228
L280.703 12.5228
L280.703 11.5723
L285.912 11.5723
L285.912 10.6218
L285.912 10.6218
L453.6 10.6218
L453.6 10.6218" style="fill:none;stroke:#bf00bf;stroke-linecap:square;"/>
   </g>
   <g id="matplotlib.axis_1">
    <g id="xtick_1"/>
    <g id="xtick_2">
     <g id="line2d_10">
      <path clip-path="url(#p99b4b0da67)" d="
M59.6175 352.8
L59.6175 7.2" style="fill:none;stroke:#000000;stroke-dasharray:1.000000,3.000000;stroke-dashoffset:0.0;stroke-width:0.5;"/>
     </g>
     <g id="line2d_11">
      <defs>
       <path d="
M0 0
L0 -4" id="m93b0483c22" style="stroke:#000000;stroke-width:0.5;"/>
      </defs>
      <g>
       <use style="stroke:#000000;stroke-width:0.5;" x="59.6174973142" xlink:href="#m93b0483c22" y="352.8"/>
      </g>
     </g>
     <g id="line2d_12">
      <defs>
       <path d="
M0 0
L0 4" id="m741efc42ff" style="stroke:#000000;stroke-width:0.5;"/>
      </defs>
      <g>
       <use style="stroke:#000000;stroke-width:0.5;" x="59.6174973142" xlink:href="#m741efc42ff" y="7.2"/>
      </g>
     </g>
     <g id="text_1">
      <!-- -6 -->
      <defs>
       <path d="
M33.0156 40.375
Q26.375 40.375 22.4844 35.8281
Q18.6094 31.2969 18.6094 23.3906
Q18.6094 15.5312 22.4844 10.9531
Q26.375 6.39062 33.0156 6.39062
Q39.6562 6.39062 43.5312 10.9531
Q47.4062 15.5312 47.4062 23.3906
Q47.4062 31.2969 43.5312 35.8281
Q39.6562 40.375 33.0156 40.375
M52.5938 71.2969
L52.5938 62.3125
Q48.875 64.0625 45.0938 64.9844
Q41.3125 65.9219 37.5938 65.9219
Q27.8281 65.9219 22.6719 59.3281
Q17.5312 52.7344 16.7969 39.4062
Q19.6719 43.6562 24.0156 45.9219
Q28.375 48.1875 33.5938 48.1875
Q44.5781 48.1875 50.9531 41.5156
Q57.3281 34.8594 57.3281 23.3906
Q57.3281 12.1562 50.6875 5.35938
Q44.0469 -1.42188 33.0156 -1.42188
Q20.3594 -1.42188 13.6719 8.26562
Q6.98438 17.9688 6.98438 36.375
Q6.98438 53.6562 15.1875 63.9375
Q23.3906 74.2188 37.2031 74.2188
Q40.9219 74.2188 44.7031 73.4844
Q48.4844 72.75 52.5938 71.2969" id="BitstreamVeraSans-Roman-36"/>
       <path d="
M4.89062 31.3906
L31.2031 31.3906
L31.2031 23.3906
L4.89062 23.3906
z
" id="BitstreamVeraSans-Roman-2d"/>
      </defs>
      <g transform="translate(50.7659348142 371.996875)scale(0.2 -0.2)">
       <use xlink:href="#BitstreamVeraSans-Roman-2d"/>
       <use x="36.083984375" xlink:href="#BitstreamVeraSans-Roman-36"/>
      </g>
     </g>
    </g>
    <g id="xtick_3">
     <g id="line2d_13">
      <path clip-path="url(#p99b4b0da67)" d="
M112.148 352.8
L112.148 7.2" style="fill:none;stroke:#000000;stroke-dasharray:1.000000,3.000000;stroke-dashoffset:0.0;stroke-width:0.5;"/>
     </g>
     <g id="line2d_14">
      <g>
       <use style="stroke:#000000;stroke-width:0.5;" x="112.148497672" xlink:href="#m93b0483c22" y="352.8"/>
      </g>
     </g>
     <g id="line2d_15">
      <g>
       <use style="stroke:#000000;stroke-width:0.5;" x="112.148497672" xlink:href="#m741efc42ff" y="7.2"/>
      </g>
     </g>
     <g id="text_2">
      <!-- -4 -->
      <defs>
       <path d="
M37.7969 64.3125
L12.8906 25.3906
L37.7969 25.3906
z

M35.2031 72.9062
L47.6094 72.9062
L47.6094 25.3906
L58.0156 25.3906
L58.0156 17.1875
L47.6094 17.1875
L47.6094 0
L37.7969 0
L37.7969 17.1875
L4.89062 17.1875
L4.89062 26.7031
z
" id="BitstreamVeraSans-Roman-34"/>
      </defs>
      <g transform="translate(103.228185172 371.996875)scale(0.2 -0.2)">
       <use xlink:href="#BitstreamVeraSans-Roman-2d"/>
       <use x="36.083984375" xlink:href="#BitstreamVeraSans-Roman-34"/>
      </g>
     </g>
    </g>
    <g id="xtick_4">
     <g id="line2d_16">
      <path clip-path="url(#p99b4b0da67)" d="
M164.679 352.8
L164.679 7.2" style="fill:none;stroke:#000000;stroke-dasharray:1.000000,3.000000;stroke-dashoffset:0.0;stroke-width:0.5;"/>
     </g>
     <g id="line2d_17">
      <g>
       <use style="stroke:#000000;stroke-width:0.5;" x="164.67949803" xlink:href="#m93b0483c22" y="352.8"/>
      </g>
     </g>
     <g id="line2d_18">
      <g>
       <use style="stroke:#000000;stroke-width:0.5;" x="164.67949803" xlink:href="#m741efc42ff" y="7.2"/>
      </g>
     </g>
     <g id="text_3">
      <!-- -2 -->
      <defs>
       <path d="
M19.1875 8.29688
L53.6094 8.29688
L53.6094 0
L7.32812 0
L7.32812 8.29688
Q12.9375 14.1094 22.625 23.8906
Q32.3281 33.6875 34.8125 36.5312
Q39.5469 41.8438 41.4219 45.5312
Q43.3125 49.2188 43.3125 52.7812
Q43.3125 58.5938 39.2344 62.25
Q35.1562 65.9219 28.6094 65.9219
Q23.9688 65.9219 18.8125 64.3125
Q13.6719 62.7031 7.8125 59.4219
L7.8125 69.3906
Q13.7656 71.7812 18.9375 73
Q24.125 74.2188 28.4219 74.2188
Q39.75 74.2188 46.4844 68.5469
Q53.2188 62.8906 53.2188 53.4219
Q53.2188 48.9219 51.5312 44.8906
Q49.8594 40.875 45.4062 35.4062
Q44.1875 33.9844 37.6406 27.2188
Q31.1094 20.4531 19.1875 8.29688" id="BitstreamVeraSans-Roman-32"/>
      </defs>
      <g transform="translate(156.19981053 371.996875)scale(0.2 -0.2)">
       <use xlink:href="#BitstreamVeraSans-Roman-2d"/>
       <use x="36.083984375" xlink:href="#BitstreamVeraSans-Roman-32"/>
      </g>
     </g>
    </g>
    <g id="xtick_5">
     <g id="line2d_19">
      <path clip-path="url(#p99b4b0da67)" d="
M217.21 352.8
L217.21 7.2" style="fill:none;stroke:#000000;stroke-dasharray:1.000000,3.000000;stroke-dashoffset:0.0;stroke-width:0.5;"/>
     </g>
     <g id="line2d_20">
      <g>
       <use style="stroke:#000000;stroke-width:0.5;" x="217.210498389" xlink:href="#m93b0483c22" y="352.8"/>
      </g>
     </g>
     <g id="line2d_21">
      <g>
       <use style="stroke:#000000;stroke-width:0.5;" x="217.210498389" xlink:href="#m741efc42ff" y="7.2"/>
      </g>
     </g>
     <g id="text_4">
      <!-- 0 -->
      <defs>
       <path d="
M31.7812 66.4062
Q24.1719 66.4062 20.3281 58.9062
Q16.5 51.4219 16.5 36.375
Q16.5 21.3906 20.3281 13.8906
Q24.1719 6.39062 31.7812 6.39062
Q39.4531 6.39062 43.2812 13.8906
Q47.125 21.3906 47.125 36.375
Q47.125 51.4219 43.2812 58.9062
Q39.4531 66.4062 31.7812 66.4062
M31.7812 74.2188
Q44.0469 74.2188 50.5156 64.5156
Q56.9844 54.8281 56.9844 36.375
Q56.9844 17.9688 50.5156 8.26562
Q44.0469 -1.42188 31.7812 -1.42188
Q19.5312 -1.42188 13.0625 8.26562
Q6.59375 17.9688 6.59375 36.375
Q6.59375 54.8281 13.0625 64.5156
Q19.5312 74.2188 31.7812 74.2188" id="BitstreamVeraSans-Roman-30"/>
      </defs>
      <g transform="translate(212.171435889 371.996875)scale(0.2 -0.2)">
       <use xlink:href="#BitstreamVeraSans-Roman-30"/>
      </g>
     </g>
    </g>
    <g id="xtick_6">
     <g id="line2d_22">
      <path clip-path="url(#p99b4b0da67)" d="
M269.741 352.8
L269.741 7.2" style="fill:none;stroke:#000000;stroke-dasharray:1.000000,3.000000;stroke-dashoffset:0.0;stroke-width:0.5;"/>
     </g>
     <g id="line2d_23">
      <g>
       <use style="stroke:#000000;stroke-width:0.5;" x="269.741498747" xlink:href="#m93b0483c22" y="352.8"/>
      </g>
     </g>
     <g id="line2d_24">
      <g>
       <use style="stroke:#000000;stroke-width:0.5;" x="269.741498747" xlink:href="#m741efc42ff" y="7.2"/>
      </g>
     </g>
     <g id="text_5">
      <!-- 2 -->
      <g transform="translate(265.113373747 371.996875)scale(0.2 -0.2)">
       <use xlink:href="#BitstreamVeraSans-Roman-32"/>
      </g>
     </g>
    </g>
    <g id="xtick_7">
     <g id="line2d_25">
      <path clip-path="url(#p99b4b0da67)" d="
M322.272 352.8
L322.272 7.2" style="fill:none;stroke:#000000;stroke-dasharray:1.000000,3.000000;stroke-dashoffset:0.0;stroke-width:0.5;"/>
     </g>
     <g id="line2d_26">
      <g>
       <use style="stroke:#000000;stroke-width:0.5;" x="322.272499105" xlink:href="#m93b0483c22" y="352.8"/>
      </g>
     </g>
     <g id="line2d_27">
      <g>
       <use style="stroke:#000000;stroke-width:0.5;" x="322.272499105" xlink:href="#m741efc42ff" y="7.2"/>
      </g>
     </g>
     <g id="text_6">
      <!-- 4 -->
      <g transform="translate(316.959999105 371.996875)scale(0.2 -0.2)">
       <use xlink:href="#BitstreamVeraSans-Roman-34"/>
      </g>
     </g>
    </g>
    <g id="xtick_8">
     <g id="line2d_28">
      <path clip-path="url(#p99b4b0da67)" d="
M374.803 352.8
L374.803 7.2" style="fill:none;stroke:#000000;stroke-dasharray:1.000000,3.000000;stroke-dashoffset:0.0;stroke-width:0.5;"/>
     </g>
     <g id="line2d_29">
      <g>
       <use style="stroke:#000000;stroke-width:0.5;" x="374.803499463" xlink:href="#m93b0483c22" y="352.8"/>
      </g>
     </g>
     <g id="line2d_30">
      <g>
       <use style="stroke:#000000;stroke-width:0.5;" x="374.803499463" xlink:href="#m741efc42ff" y="7.2"/>
      </g>
     </g>
     <g id="text_7">
      <!-- 6 -->
      <g transform="translate(369.769124463 371.996875)scale(0.2 -0.2)">
       <use xlink:href="#BitstreamVeraSans-Roman-36"/>
      </g>
     </g>
    </g>
    <g id="xtick_9">
     <g id="line2d_31">
      <path clip-path="url(#p99b4b0da67)" d="
M427.334 352.8
L427.334 7.2" style="fill:none;stroke:#000000;stroke-dasharray:1.000000,3.000000;stroke-dashoffset:0.0;stroke-width:0.5;"/>
     </g>
     <g id="line2d_32">
      <g>
       <use style="stroke:#000000;stroke-width:0.5;" x="427.334499821" xlink:href="#m93b0483c22" y="352.8"/>
      </g>
     </g>
     <g id="line2d_33">
      <g>
       <use style="stroke:#000000;stroke-width:0.5;" x="427.334499821" xlink:href="#m741efc42ff" y="7.2"/>
      </g>
     </g>
     <g id="text_8">
      <!-- 8 -->
      <defs>
       <path d="
M31.7812 34.625
Q24.75 34.625 20.7188 30.8594
Q16.7031 27.0938 16.7031 20.5156
Q16.7031 13.9219 20.7188 10.1562
Q24.75 6.39062 31.7812 6.39062
Q38.8125 6.39062 42.8594 10.1719
Q46.9219 13.9688 46.9219 20.5156
Q46.9219 27.0938 42.8906 30.8594
Q38.875 34.625 31.7812 34.625
M21.9219 38.8125
Q15.5781 40.375 12.0312 44.7188
Q8.5 49.0781 8.5 55.3281
Q8.5 64.0625 14.7188 69.1406
Q20.9531 74.2188 31.7812 74.2188
Q42.6719 74.2188 48.875 69.1406
Q55.0781 64.0625 55.0781 55.3281
Q55.0781 49.0781 51.5312 44.7188
Q48 40.375 41.7031 38.8125
Q48.8281 37.1562 52.7969 32.3125
Q56.7812 27.4844 56.7812 20.5156
Q56.7812 9.90625 50.3125 4.23438
Q43.8438 -1.42188 31.7812 -1.42188
Q19.7344 -1.42188 13.25 4.23438
Q6.78125 9.90625 6.78125 20.5156
Q6.78125 27.4844 10.7812 32.3125
Q14.7969 37.1562 21.9219 38.8125
M18.3125 54.3906
Q18.3125 48.7344 21.8438 45.5625
Q25.3906 42.3906 31.7812 42.3906
Q38.1406 42.3906 41.7188 45.5625
Q45.3125 48.7344 45.3125 54.3906
Q45.3125 60.0625 41.7188 63.2344
Q38.1406 66.4062 31.7812 66.4062
Q25.3906 66.4062 21.8438 63.2344
Q18.3125 60.0625 18.3125 54.3906" id="BitstreamVeraSans-Roman-38"/>
      </defs>
      <g transform="translate(422.334499821 371.996875)scale(0.2 -0.2)">
       <use xlink:href="#BitstreamVeraSans-Roman-38"/>
      </g>
     </g>
    </g>
    <g id="xtick_10"/>
    <g id="xtick_11">
     <g id="line2d_34">
      <defs>
       <path d="
M0 0
L0 -2" id="m177f7580d0" style="stroke:#000000;stroke-width:0.5;"/>
      </defs>
      <g>
       <use style="stroke:#000000;stroke-width:0.5;" x="59.6174973142" xlink:href="#m177f7580d0" y="352.8"/>
      </g>
     </g>
     <g id="line2d_35">
      <defs>
       <path d="
M0 0
L0 2" id="m5284c7e2a0" style="stroke:#000000;stroke-width:0.5;"/>
      </defs>
      <g>
       <use style="stroke:#000000;stroke-width:0.5;" x="59.6174973142" xlink:href="#m5284c7e2a0" y="7.2"/>
      </g>
     </g>
    </g>
    <g id="xtick_12">
     <g id="line2d_36">
      <g>
       <use style="stroke:#000000;stroke-width:0.5;" x="112.148497672" xlink:href="#m177f7580d0" y="352.8"/>
      </g>
     </g>
     <g id="line2d_37">
      <g>
       <use style="stroke:#000000;stroke-width:0.5;" x="112.148497672" xlink:href="#m5284c7e2a0" y="7.2"/>
      </g>
     </g>
    </g>
    <g id="xtick_13">
     <g id="line2d_38">
      <g>
       <use style="stroke:#000000;stroke-width:0.5;" x="164.67949803" xlink:href="#m177f7580d0" y="352.8"/>
      </g>
     </g>
     <g id="line2d_39">
      <g>
       <use style="stroke:#000000;stroke-width:0.5;" x="164.67949803" xlink:href="#m5284c7e2a0" y="7.2"/>
      </g>
     </g>
    </g>
    <g id="xtick_14">
     <g id="line2d_40">
      <g>
       <use style="stroke:#000000;stroke-width:0.5;" x="217.210498389" xlink:href="#m177f7580d0" y="352.8"/>
      </g>
     </g>
     <g id="line2d_41">
      <g>
       <use style="stroke:#000000;stroke-width:0.5;" x="217.210498389" xlink:href="#m5284c7e2a0" y="7.2"/>
      </g>
     </g>
    </g>
    <g id="xtick_15">
     <g id="line2d_42">
      <g>
       <use style="stroke:#000000;stroke-width:0.5;" x="269.741498747" xlink:href="#m177f7580d0" y="352.8"/>
      </g>
     </g>
     <g id="line2d_43">
      <g>
       <use style="stroke:#000000;stroke-width:0.5;" x="269.741498747" xlink:href="#m5284c7e2a0" y="7.2"/>
      </g>
     </g>
    </g>
    <g id="xtick_16">
     <g id="line2d_44">
      <g>
       <use style="stroke:#000000;stroke-width:0.5;" x="322.272499105" xlink:href="#m177f7580d0" y="352.8"/>
      </g>
     </g>
     <g id="line2d_45">
      <g>
       <use style="stroke:#000000;stroke-width:0.5;" x="322.272499105" xlink:href="#m5284c7e2a0" y="7.2"/>
      </g>
     </g>
    </g>
    <g id="xtick_17">
     <g id="line2d_46">
      <g>
       <use style="stroke:#000000;stroke-width:0.5;" x="374.803499463" xlink:href="#m177f7580d0" y="352.8"/>
      </g>
     </g>
     <g id="line2d_47">
      <g>
       <use style="stroke:#000000;stroke-width:0.5;" x="374.803499463" xlink:href="#m5284c7e2a0" y="7.2"/>
      </g>
     </g>
    </g>
    <g id="xtick_18">
     <g id="line2d_48">
      <g>
       <use style="stroke:#000000;stroke-width:0.5;" x="427.334499821" xlink:href="#m177f7580d0" y="352.8"/>
      </g>
     </g>
     <g id="line2d_49">
      <g>
       <use style="stroke:#000000;stroke-width:0.5;" x="427.334499821" xlink:href="#m5284c7e2a0" y="7.2"/>
      </g>
     </g>
    </g>
    <g id="text_9">
     <!-- log10 of Df -->
     <defs>
      <path id="BitstreamVeraSans-Roman-20"/>
      <path d="
M12.4062 8.29688
L28.5156 8.29688
L28.5156 63.9219
L10.9844 60.4062
L10.9844 69.3906
L28.4219 72.9062
L38.2812 72.9062
L38.2812 8.29688
L54.3906 8.29688
L54.3906 0
L12.4062 0
z
" id="BitstreamVeraSans-Roman-31"/>
      <path d="
M30.6094 48.3906
Q23.3906 48.3906 19.1875 42.75
Q14.9844 37.1094 14.9844 27.2969
Q14.9844 17.4844 19.1562 11.8438
Q23.3438 6.20312 30.6094 6.20312
Q37.7969 6.20312 41.9844 11.8594
Q46.1875 17.5312 46.1875 27.2969
Q46.1875 37.0156 41.9844 42.7031
Q37.7969 48.3906 30.6094 48.3906
M30.6094 56
Q42.3281 56 49.0156 48.375
Q55.7188 40.7656 55.7188 27.2969
Q55.7188 13.875 49.0156 6.21875
Q42.3281 -1.42188 30.6094 -1.42188
Q18.8438 -1.42188 12.1719 6.21875
Q5.51562 13.875 5.51562 27.2969
Q5.51562 40.7656 12.1719 48.375
Q18.8438 56 30.6094 56" id="BitstreamVeraSans-Roman-6f"/>
      <path d="
M9.42188 75.9844
L18.4062 75.9844
L18.4062 0
L9.42188 0
z
" id="BitstreamVeraSans-Roman-6c"/>
      <path d="
M19.6719 64.7969
L19.6719 8.10938
L31.5938 8.10938
Q46.6875 8.10938 53.6875 14.9375
Q60.6875 21.7812 60.6875 36.5312
Q60.6875 51.1719 53.6875 57.9844
Q46.6875 64.7969 31.5938 64.7969
z

M9.8125 72.9062
L30.0781 72.9062
Q51.2656 72.9062 61.1719 64.0938
Q71.0938 55.2812 71.0938 36.5312
Q71.0938 17.6719 61.125 8.82812
Q51.1719 0 30.0781 0
L9.8125 0
z
" id="BitstreamVeraSans-Roman-44"/>
      <path d="
M45.4062 27.9844
Q45.4062 37.75 41.375 43.1094
Q37.3594 48.4844 30.0781 48.4844
Q22.8594 48.4844 18.8281 43.1094
Q14.7969 37.75 14.7969 27.9844
Q14.7969 18.2656 18.8281 12.8906
Q22.8594 7.51562 30.0781 7.51562
Q37.3594 7.51562 41.375 12.8906
Q45.4062 18.2656 45.4062 27.9844
M54.3906 6.78125
Q54.3906 -7.17188 48.1875 -13.9844
Q42 -20.7969 29.2031 -20.7969
Q24.4688 -20.7969 20.2656 -20.0938
Q16.0625 -19.3906 12.1094 -17.9219
L12.1094 -9.1875
Q16.0625 -11.3281 19.9219 -12.3438
Q23.7812 -13.375 27.7812 -13.375
Q36.625 -13.375 41.0156 -8.76562
Q45.4062 -4.15625 45.4062 5.17188
L45.4062 9.625
Q42.625 4.78125 38.2812 2.39062
Q33.9375 0 27.875 0
Q17.8281 0 11.6719 7.65625
Q5.51562 15.3281 5.51562 27.9844
Q5.51562 40.6719 11.6719 48.3281
Q17.8281 56 27.875 56
Q33.9375 56 38.2812 53.6094
Q42.625 51.2188 45.4062 46.3906
L45.4062 54.6875
L54.3906 54.6875
z
" id="BitstreamVeraSans-Roman-67"/>
      <path d="
M37.1094 75.9844
L37.1094 68.5
L28.5156 68.5
Q23.6875 68.5 21.7969 66.5469
Q19.9219 64.5938 19.9219 59.5156
L19.9219 54.6875
L34.7188 54.6875
L34.7188 47.7031
L19.9219 47.7031
L19.9219 0
L10.8906 0
L10.8906 47.7031
L2.29688 47.7031
L2.29688 54.6875
L10.8906 54.6875
L10.8906 58.5
Q10.8906 67.625 15.1406 71.7969
Q19.3906 75.9844 28.6094 75.9844
z
" id="BitstreamVeraSans-Roman-66"/>
     </defs>
     <g transform="translate(175.0234375 396.353125)scale(0.2 -0.2)">
      <use xlink:href="#BitstreamVeraSans-Roman-6c"/>
      <use x="27.783203125" xlink:href="#BitstreamVeraSans-Roman-6f"/>
      <use x="88.96484375" xlink:href="#BitstreamVeraSans-Roman-67"/>
      <use x="152.44140625" xlink:href="#BitstreamVeraSans-Roman-31"/>
      <use x="216.064453125" xlink:href="#BitstreamVeraSans-Roman-30"/>
      <use x="279.6875" xlink:href="#BitstreamVeraSans-Roman-20"/>
      <use x="311.474609375" xlink:href="#BitstreamVeraSans-Roman-6f"/>
      <use x="372.65625" xlink:href="#BitstreamVeraSans-Roman-66"/>
      <use x="407.861328125" xlink:href="#BitstreamVeraSans-Roman-20"/>
      <use x="439.6484375" xlink:href="#BitstreamVeraSans-Roman-44"/>
      <use x="516.650390625" xlink:href="#BitstreamVeraSans-Roman-66"/>
     </g>
    </g>
   </g>
   <g id="matplotlib.axis_2">
    <g id="ytick_1">
     <g id="line2d_50">
      <path clip-path="url(#p99b4b0da67)" d="
M7.2 352.8
L453.6 352.8" style="fill:none;stroke:#000000;stroke-dasharray:1.000000,3.000000;stroke-dashoffset:0.0;stroke-width:0.5;"/>
     </g>
     <g id="line2d_51">
      <defs>
       <path d="
M0 0
L4 0" id="m728421d6d4" style="stroke:#000000;stroke-width:0.5;"/>
      </defs>
      <g>
       <use style="stroke:#000000;stroke-width:0.5;" x="7.2" xlink:href="#m728421d6d4" y="352.8"/>
      </g>
     </g>
     <g id="line2d_52">
      <defs>
       <path d="
M0 0
L-4 0" id="mcb0005524f" style="stroke:#000000;stroke-width:0.5;"/>
      </defs>
      <g>
       <use style="stroke:#000000;stroke-width:0.5;" x="453.6" xlink:href="#mcb0005524f" y="352.8"/>
      </g>
     </g>
    </g>
    <g id="ytick_2">
     <g id="line2d_53">
      <path clip-path="url(#p99b4b0da67)" d="
M7.2 284.364
L453.6 284.364" style="fill:none;stroke:#000000;stroke-dasharray:1.000000,3.000000;stroke-dashoffset:0.0;stroke-width:0.5;"/>
     </g>
     <g id="line2d_54">
      <g>
       <use style="stroke:#000000;stroke-width:0.5;" x="7.2" xlink:href="#m728421d6d4" y="284.364356436"/>
      </g>
     </g>
     <g id="line2d_55">
      <g>
       <use style="stroke:#000000;stroke-width:0.5;" x="453.6" xlink:href="#mcb0005524f" y="284.364356436"/>
      </g>
     </g>
    </g>
    <g id="ytick_3">
     <g id="line2d_56">
      <path clip-path="url(#p99b4b0da67)" d="
M7.2 215.929
L453.6 215.929" style="fill:none;stroke:#000000;stroke-dasharray:1.000000,3.000000;stroke-dashoffset:0.0;stroke-width:0.5;"/>
     </g>
     <g id="line2d_57">
      <g>
       <use style="stroke:#000000;stroke-width:0.5;" x="7.2" xlink:href="#m728421d6d4" y="215.928712871"/>
      </g>
     </g>
     <g id="line2d_58">
      <g>
       <use style="stroke:#000000;stroke-width:0.5;" x="453.6" xlink:href="#mcb0005524f" y="215.928712871"/>
      </g>
     </g>
    </g>
    <g id="ytick_4">
     <g id="line2d_59">
      <path clip-path="url(#p99b4b0da67)" d="
M7.2 147.493
L453.6 147.493" style="fill:none;stroke:#000000;stroke-dasharray:1.000000,3.000000;stroke-dashoffset:0.0;stroke-width:0.5;"/>
     </g>
     <g id="line2d_60">
      <g>
       <use style="stroke:#000000;stroke-width:0.5;" x="7.2" xlink:href="#m728421d6d4" y="147.493069307"/>
      </g>
     </g>
     <g id="line2d_61">
      <g>
       <use style="stroke:#000000;stroke-width:0.5;" x="453.6" xlink:href="#mcb0005524f" y="147.493069307"/>
      </g>
     </g>
    </g>
    <g id="ytick_5">
     <g id="line2d_62">
      <path clip-path="url(#p99b4b0da67)" d="
M7.2 79.0574
L453.6 79.0574" style="fill:none;stroke:#000000;stroke-dasharray:1.000000,3.000000;stroke-dashoffset:0.0;stroke-width:0.5;"/>
     </g>
     <g id="line2d_63">
      <g>
       <use style="stroke:#000000;stroke-width:0.5;" x="7.2" xlink:href="#m728421d6d4" y="79.0574257426"/>
      </g>
     </g>
     <g id="line2d_64">
      <g>
       <use style="stroke:#000000;stroke-width:0.5;" x="453.6" xlink:href="#mcb0005524f" y="79.0574257426"/>
      </g>
     </g>
    </g>
    <g id="ytick_6">
     <g id="line2d_65">
      <path clip-path="url(#p99b4b0da67)" d="
M7.2 10.6218
L453.6 10.6218" style="fill:none;stroke:#000000;stroke-dasharray:1.000000,3.000000;stroke-dashoffset:0.0;stroke-width:0.5;"/>
     </g>
     <g id="line2d_66">
      <g>
       <use style="stroke:#000000;stroke-width:0.5;" x="7.2" xlink:href="#m728421d6d4" y="10.6217821782"/>
      </g>
     </g>
     <g id="line2d_67">
      <g>
       <use style="stroke:#000000;stroke-width:0.5;" x="453.6" xlink:href="#mcb0005524f" y="10.6217821782"/>
      </g>
     </g>
    </g>
   </g>
   <g id="patch_3">
    <path d="
M7.2 7.2
L453.6 7.2" style="fill:none;stroke:#000000;"/>
   </g>
   <g id="patch_4">
    <path d="
M453.6 352.8
L453.6 7.2" style="fill:none;stroke:#000000;"/>
   </g>
   <g id="patch_5">
    <path d="
M7.2 352.8
L453.6 352.8" style="fill:none;stroke:#000000;"/>
   </g>
   <g id="patch_6">
    <path d="
M7.2 352.8
L7.2 7.2" style="fill:none;stroke:#000000;"/>
   </g>
   <g id="text_10">
    <!-- {f1-f24}, 20-D -->
    <defs>
     <path d="
M12.5 -9.28125
L15.9219 -9.28125
Q22.75 -9.28125 24.8281 -7.17188
Q26.9062 -5.07812 26.9062 1.90625
L26.9062 14.0156
Q26.9062 21.625 29.0938 25.0938
Q31.2969 28.5625 36.7188 29.8906
Q31.2969 31.1094 29.0938 34.5625
Q26.9062 38.0312 26.9062 45.7031
L26.9062 57.8125
Q26.9062 64.75 24.8281 66.875
Q22.75 69 15.9219 69
L12.5 69
L12.5 75.9844
L15.5781 75.9844
Q27.7344 75.9844 31.8125 72.3906
Q35.8906 68.7969 35.8906 58.0156
L35.8906 46.2969
Q35.8906 39.0156 38.5156 36.2031
Q41.1562 33.4062 48.0938 33.4062
L51.125 33.4062
L51.125 26.4219
L48.0938 26.4219
Q41.1562 26.4219 38.5156 23.5781
Q35.8906 20.75 35.8906 13.375
L35.8906 1.70312
Q35.8906 -9.07812 31.8125 -12.6875
Q27.7344 -16.3125 15.5781 -16.3125
L12.5 -16.3125
z
" id="BitstreamVeraSans-Roman-7d"/>
     <path d="
M51.125 -9.28125
L51.125 -16.3125
L48.0938 -16.3125
Q35.9375 -16.3125 31.8125 -12.6875
Q27.6875 -9.07812 27.6875 1.70312
L27.6875 13.375
Q27.6875 20.75 25.0469 23.5781
Q22.4062 26.4219 15.4844 26.4219
L12.5 26.4219
L12.5 33.4062
L15.4844 33.4062
Q22.4688 33.4062 25.0781 36.2031
Q27.6875 39.0156 27.6875 46.2969
L27.6875 58.0156
Q27.6875 68.7969 31.8125 72.3906
Q35.9375 75.9844 48.0938 75.9844
L51.125 75.9844
L51.125 69
L47.7969 69
Q40.9219 69 38.8125 66.8438
Q36.7188 64.7031 36.7188 57.8125
L36.7188 45.7031
Q36.7188 38.0312 34.5 34.5625
Q32.2812 31.1094 26.9062 29.8906
Q32.3281 28.5625 34.5156 25.0938
Q36.7188 21.625 36.7188 14.0156
L36.7188 1.90625
Q36.7188 -4.98438 38.8125 -7.125
Q40.9219 -9.28125 47.7969 -9.28125
z
" id="BitstreamVeraSans-Roman-7b"/>
     <path d="
M11.7188 12.4062
L22.0156 12.4062
L22.0156 4
L14.0156 -11.625
L7.71875 -11.625
L11.7188 4
z
" id="BitstreamVeraSans-Roman-2c"/>
    </defs>
    <g transform="translate(300.15325 345.888)scale(0.2 -0.2)">
     <use xlink:href="#BitstreamVeraSans-Roman-7b"/>
     <use x="63.623046875" xlink:href="#BitstreamVeraSans-Roman-66"/>
     <use x="98.828125" xlink:href="#BitstreamVeraSans-Roman-31"/>
     <use x="162.451171875" xlink:href="#BitstreamVeraSans-Roman-2d"/>
     <use x="198.53515625" xlink:href="#BitstreamVeraSans-Roman-66"/>
     <use x="233.740234375" xlink:href="#BitstreamVeraSans-Roman-32"/>
     <use x="297.36328125" xlink:href="#BitstreamVeraSans-Roman-34"/>
     <use x="360.986328125" xlink:href="#BitstreamVeraSans-Roman-7d"/>
     <use x="424.609375" xlink:href="#BitstreamVeraSans-Roman-2c"/>
     <use x="456.396484375" xlink:href="#BitstreamVeraSans-Roman-20"/>
     <use x="488.18359375" xlink:href="#BitstreamVeraSans-Roman-32"/>
     <use x="551.806640625" xlink:href="#BitstreamVeraSans-Roman-30"/>
     <use x="615.4296875" xlink:href="#BitstreamVeraSans-Roman-2d"/>
     <use x="651.513671875" xlink:href="#BitstreamVeraSans-Roman-44"/>
    </g>
   </g>
   <g id="text_11">
    <!-- 0.0.0 -->
    <defs>
     <path d="
M10.6875 12.4062
L21 12.4062
L21 0
L10.6875 0
z
" id="BitstreamVeraSans-Roman-2e"/>
    </defs>
    <g style="fill:#808080;" transform="translate(218.33984375 347.2643125)scale(0.1 -0.1)">
     <use xlink:href="#BitstreamVeraSans-Roman-30"/>
     <use x="63.623046875" xlink:href="#BitstreamVeraSans-Roman-2e"/>
     <use x="95.41015625" xlink:href="#BitstreamVeraSans-Roman-30"/>
     <use x="159.033203125" xlink:href="#BitstreamVeraSans-Roman-2e"/>
     <use x="190.8203125" xlink:href="#BitstreamVeraSans-Roman-30"/>
    </g>
   </g>
  </g>
 </g>
 <defs>
  <clipPath id="p99b4b0da67">
   <rect height="345.6" width="446.4" x="7.2" y="7.2"/>
  </clipPath>
 </defs>
</svg>
