<?xml version="1.0" encoding="utf-8" standalone="no"?>
<!DOCTYPE svg PUBLIC "-//W3C//DTD SVG 1.1//EN"
  "http://www.w3.org/Graphics/SVG/1.1/DTD/svg11.dtd">
<!-- Created with matplotlib (http://matplotlib.org/) -->
<svg height="407pt" version="1.1" viewBox="0 0 460 407" width="460pt" xmlns="http://www.w3.org/2000/svg" xmlns:xlink="http://www.w3.org/1999/xlink">
 <defs>
  <style type="text/css">
*{stroke-linecap:butt;stroke-linejoin:round;}
  </style>
 </defs>
 <g id="figure_1">
  <g id="patch_1">
   <path d="
M0 407.712
L460.8 407.712
L460.8 0
L0 0
z
" style="fill:#ffffff;"/>
  </g>
  <g id="axes_1">
   <g id="patch_2">
    <path d="
M7.2 352.8
L453.6 352.8
L453.6 7.2
L7.2 7.2
z
" style="fill:#ffffff;"/>
   </g>
   <g id="line2d_1">
    <path clip-path="url(#p99b4b0da67)" d="
M96.9896 352.8
L96.9896 348.238
L97.1197 348.238
L97.1197 343.675
L109.305 343.675
L109.305 339.113
L129.48 339.113
L129.497 329.988
L136.062 329.988
L136.062 325.426
L137.338 325.426
L137.338 320.863
L138.486 320.863
L138.486 316.301
L140.596 316.301
L140.596 311.739
L141.065 311.739
L141.065 307.176
L146.384 307.176
L146.384 302.614
L149.155 302.614
L149.155 298.051
L151.465 298.051
L151.465 293.489
L155.354 293.489
L155.354 288.927
L155.794 288.927
L155.794 284.364
L156.178 284.364
L156.178 279.802
L157.784 279.802
L157.784 275.24
L164.182 275.24
L164.182 270.677
L164.828 270.677
L164.828 266.115
L167.078 266.115
L167.129 252.428
L167.549 252.428
L167.549 247.865
L168.591 247.865
L168.591 243.303
L172.074 243.303
L172.074 238.741
L172.939 238.741
L172.939 234.178
L181.065 234.178
L181.065 229.616
L182.985 229.616
L182.985 225.053
L184.182 225.053
L184.182 220.491
L186.951 220.491
L186.951 215.929
L189.136 215.929
L189.136 211.366
L192.052 211.366
L192.052 206.804
L192.815 206.804
L192.815 202.242
L194.142 202.242
L194.19 193.117
L194.792 193.117
L194.792 188.554
L197.933 188.554
L197.933 183.992
L200.394 183.992
L200.394 179.43
L200.987 179.43
L200.987 174.867
L201.414 174.867
L201.414 124.681
L202.888 124.681
L202.888 120.119
L203.316 120.119
L203.316 115.556
L205.946 115.556
L205.946 110.994
L208.624 110.994
L208.624 106.432
L209.118 106.432
L209.118 101.869
L209.709 101.869
L209.709 97.3069
L214.871 97.3069
L214.871 92.7446
L216.674 92.7446
L216.674 88.1822
L217.153 88.1822
L217.153 83.6198
L217.316 83.6198
L217.316 79.0574
L219.503 79.0574
L219.503 74.495
L225.06 74.495
L225.06 56.2455
L229.685 56.2455
L229.685 28.8713
L232.966 28.8713
L232.966 24.3089
L235.512 24.3089
L235.512 19.7465
L237.591 19.7465
L237.591 10.6218
L237.591 10.6218
L453.6 10.6218
L453.6 10.6218" style="fill:none;stroke:#ff0000;stroke-linecap:square;stroke-width:3.0;"/>
   </g>
   <g id="line2d_2">
    <path clip-path="url(#p99b4b0da67)" d="
M201.414 352.8
L201.414 348.238
L201.414 348.238
L201.414 348.238
L201.414 343.675
L201.414 343.675
L201.414 343.675
L201.414 339.113
L201.414 339.113
L201.414 339.113
L201.414 334.55
L201.414 334.55
L201.414 334.55
L201.414 329.988
L201.414 329.988
L201.414 329.988
L201.414 325.426
L201.414 325.426
L201.414 325.426
L201.414 320.863
L201.414 320.863
L201.414 320.863
L201.414 316.301
L201.414 316.301
L201.414 316.301
L201.414 311.739
L201.414 311.739
L201.414 311.739
L201.414 307.176
L201.414 307.176
L201.414 307.176
L201.414 302.614
L201.414 302.614
L201.414 302.614
L201.414 298.051
L201.414 298.051
L201.414 298.051
L201.414 293.489
L201.414 293.489
L201.414 293.489
L201.414 288.927
L201.414 288.927
L201.414 288.927
L201.414 284.364
L238.297 284.364
L238.297 279.802
L238.977 279.802
L238.977 275.24
L240.276 275.24
L240.276 270.677
L243.198 270.677
L243.198 266.115
L244.237 266.115
L244.237 261.552
L247.739 261.552
L247.739 256.99
L249.426 256.99
L249.454 247.865
L249.619 247.865
L249.619 243.303
L251.666 243.303
L251.666 238.741
L252.68 238.741
L252.68 234.178
L253.285 234.178
L253.285 229.616
L253.988 229.616
L253.988 225.053
L256.002 225.053
L256.002 220.491
L256.634 220.491
L256.634 215.929
L256.746 215.929
L256.746 211.366
L260.724 211.366
L260.724 206.804
L261.062 206.804
L261.062 202.242
L261.581 202.242
L261.581 197.679
L262.563 197.679
L262.563 193.117
L263.315 193.117
L263.315 188.554
L263.456 188.554
L263.536 179.43
L263.872 179.43
L263.872 174.867
L263.985 174.867
L263.985 170.305
L264.325 170.305
L264.397 156.618
L264.487 156.618
L264.487 152.055
L265.507 152.055
L265.557 142.931
L266.353 142.931
L266.353 138.368
L266.759 138.368
L266.833 129.244
L267.156 129.244
L267.2 120.119
L268.036 120.119
L268.036 115.556
L268.154 115.556
L268.154 110.994
L269.12 110.994
L269.12 106.432
L270.024 106.432
L270.099 97.3069
L270.409 97.3069
L270.409 92.7446
L270.648 92.7446
L270.657 83.6198
L271.448 83.6198
L271.448 79.0574
L271.875 79.0574
L271.875 74.495
L273.753 74.495
L273.857 65.3703
L274.451 65.3703
L274.557 56.2455
L275.858 56.2455
L275.939 42.5584
L277.633 42.5584
L277.633 37.996
L278.092 37.996
L278.092 33.4337
L281.212 33.4337
L281.212 28.8713
L282.529 28.8713
L282.529 24.3089
L285.069 24.3089
L285.069 19.7465
L285.315 19.7465
L285.315 15.1842
L286.439 15.1842
L286.439 10.6218
L286.439 10.6218
L453.6 10.6218
L453.6 10.6218" style="fill:none;stroke:#00bfbf;stroke-linecap:square;"/>
   </g>
   <g id="line2d_3">
    <path clip-path="url(#p99b4b0da67)" d="
M201.414 352.8
L201.414 348.238
L201.414 348.238
L201.414 348.238
L201.414 343.675
L201.414 343.675
L201.414 343.675
L201.414 339.113
L201.414 339.113
L201.414 339.113
L201.414 334.55
L201.414 334.55
L201.414 334.55
L201.414 329.988
L201.414 329.988
L201.414 329.988
L201.414 325.426
L201.414 325.426
L201.414 325.426
L201.414 320.863
L201.414 320.863
L201.414 320.863
L201.414 316.301
L201.414 316.301
L201.414 316.301
L201.414 311.739
L201.414 311.739
L201.414 311.739
L201.414 307.176
L201.414 307.176
L201.414 307.176
L201.414 302.614
L201.414 302.614
L201.414 302.614
L201.414 298.051
L201.414 298.051
L201.414 298.051
L201.414 293.489
L201.414 293.489
L201.414 293.489
L201.414 288.927
L201.414 288.927
L201.414 288.927
L201.414 284.364
L236.225 284.364
L236.225 279.802
L238.297 279.802
L238.297 275.24
L238.824 275.24
L238.824 270.677
L238.977 270.677
L239.034 261.552
L240.276 261.552
L240.276 256.99
L243.154 256.99
L243.198 247.865
L244.863 247.865
L244.863 243.303
L245.211 243.303
L245.211 238.741
L247.163 238.741
L247.163 234.178
L247.314 234.178
L247.314 229.616
L247.739 229.616
L247.739 225.053
L248.008 225.053
L248.102 215.929
L248.684 215.929
L248.684 211.366
L249.228 211.366
L249.228 206.804
L252.31 206.804
L252.31 202.242
L252.633 202.242
L252.679 193.117
L255.254 193.117
L255.254 188.554
L255.535 188.554
L255.535 183.992
L255.944 183.992
L255.944 179.43
L256.634 179.43
L256.634 174.867
L257.159 174.867
L257.221 165.743
L257.456 165.743
L257.456 161.18
L258.39 161.18
L258.39 156.618
L259.201 156.618
L259.201 152.055
L259.463 152.055
L259.463 147.493
L260.009 147.493
L260.009 142.931
L260.724 142.931
L260.724 138.368
L261.06 138.368
L261.062 129.244
L262.807 129.244
L262.906 120.119
L263.315 120.119
L263.366 110.994
L263.469 110.994
L263.469 106.432
L263.64 106.432
L263.64 101.869
L264.81 101.869
L264.81 97.3069
L265.51 97.3069
L265.51 92.7446
L265.919 92.7446
L265.919 88.1822
L266.6 88.1822
L266.6 83.6198
L267.077 83.6198
L267.077 79.0574
L267.2 79.0574
L267.214 69.9327
L268.479 69.9327
L268.479 65.3703
L269.432 65.3703
L269.432 60.8079
L270.648 60.8079
L270.648 56.2455
L272.86 56.2455
L272.86 51.6832
L273.753 51.6832
L273.857 42.5584
L275.939 42.5584
L275.939 37.996
L277.633 37.996
L277.633 33.4337
L278.064 33.4337
L278.136 24.3089
L280.315 24.3089
L280.315 19.7465
L282.529 19.7465
L282.529 15.1842
L282.847 15.1842
L282.847 10.6218
L282.847 10.6218
L453.6 10.6218
L453.6 10.6218" style="fill:none;stroke:#bf00bf;stroke-linecap:square;"/>
   </g>
   <g id="line2d_4">
    <path clip-path="url(#p99b4b0da67)" d="
M201.414 352.8
L201.414 348.238
L201.414 348.238
L201.414 348.238
L201.414 343.675
L201.414 343.675
L201.414 343.675
L201.414 339.113
L201.414 339.113
L201.414 339.113
L201.414 334.55
L201.414 334.55
L201.414 334.55
L201.414 329.988
L201.414 329.988
L201.414 329.988
L201.414 325.426
L201.414 325.426
L201.414 325.426
L201.414 320.863
L201.414 320.863
L201.414 320.863
L201.414 316.301
L201.414 316.301
L201.414 316.301
L201.414 311.739
L201.414 311.739
L201.414 311.739
L201.414 307.176
L201.414 307.176
L201.414 307.176
L201.414 302.614
L201.414 302.614
L201.414 302.614
L201.414 298.051
L201.414 298.051
L201.414 298.051
L201.414 293.489
L201.414 293.489
L201.414 293.489
L201.414 288.927
L201.414 288.927
L201.414 288.927
L201.414 284.364
L228.406 284.364
L228.406 279.802
L233.181 279.802
L233.181 275.24
L233.629 275.24
L233.629 270.677
L235.651 270.677
L235.651 266.115
L237.928 266.115
L237.928 261.552
L238.297 261.552
L238.297 256.99
L238.977 256.99
L239.034 247.865
L240.887 247.865
L240.887 243.303
L241.761 243.303
L241.761 238.741
L242.842 238.741
L242.842 234.178
L243.198 234.178
L243.198 229.616
L243.886 229.616
L243.886 225.053
L245.211 225.053
L245.211 220.491
L246.335 220.491
L246.335 215.929
L246.505 215.929
L246.505 211.366
L247.163 211.366
L247.22 202.242
L248.065 202.242
L248.065 197.679
L248.329 197.679
L248.329 193.117
L248.684 193.117
L248.684 188.554
L249.417 188.554
L249.417 183.992
L251.778 183.992
L251.778 179.43
L252.633 179.43
L252.679 170.305
L252.969 170.305
L252.969 165.743
L253.216 165.743
L253.216 161.18
L253.708 161.18
L253.708 156.618
L254.085 156.618
L254.085 152.055
L254.766 152.055
L254.766 147.493
L254.961 147.493
L254.961 142.931
L255.535 142.931
L255.535 138.368
L255.873 138.368
L255.944 129.244
L257.159 129.244
L257.159 124.681
L258.033 124.681
L258.033 120.119
L258.39 120.119
L258.39 115.556
L260.009 115.556
L260.009 110.994
L260.164 110.994
L260.264 101.869
L260.372 101.869
L260.372 97.3069
L260.928 97.3069
L260.931 88.1822
L262.807 88.1822
L262.822 79.0574
L264.254 79.0574
L264.312 69.9327
L264.931 69.9327
L264.931 65.3703
L265.919 65.3703
L265.919 60.8079
L266.6 60.8079
L266.6 56.2455
L267.2 56.2455
L267.2 51.6832
L267.6 51.6832
L267.6 47.1208
L269.941 47.1208
L269.941 42.5584
L272.86 42.5584
L272.86 37.996
L273.753 37.996
L273.753 33.4337
L274.879 33.4337
L274.879 28.8713
L276.225 28.8713
L276.225 24.3089
L277.633 24.3089
L277.633 19.7465
L280.234 19.7465
L280.315 10.6218
L280.315 10.6218
L453.6 10.6218
L453.6 10.6218" style="fill:none;stroke:#000000;stroke-linecap:square;"/>
   </g>
   <g id="line2d_5">
    <path clip-path="url(#p99b4b0da67)" d="
M201.414 352.8
L201.414 348.238
L201.414 348.238
L201.414 348.238
L201.414 343.675
L201.414 343.675
L201.414 343.675
L201.414 339.113
L201.414 339.113
L201.414 339.113
L201.414 334.55
L201.414 334.55
L201.414 334.55
L201.414 329.988
L201.414 329.988
L201.414 329.988
L201.414 325.426
L201.414 325.426
L201.414 325.426
L201.414 320.863
L201.414 320.863
L201.414 320.863
L201.414 316.301
L201.414 316.301
L201.414 316.301
L201.414 311.739
L201.414 311.739
L201.414 311.739
L201.414 307.176
L201.414 307.176
L201.414 307.176
L201.414 302.614
L201.414 302.614
L201.414 302.614
L201.414 298.051
L201.414 298.051
L201.414 298.051
L201.414 293.489
L201.414 293.489
L201.414 293.489
L201.414 288.927
L201.414 288.927
L201.414 288.927
L201.414 284.364
L223.446 284.364
L223.446 279.802
L225.533 279.802
L225.533 275.24
L227.197 275.24
L227.197 270.677
L228.406 270.677
L228.406 266.115
L230.215 266.115
L230.215 261.552
L230.861 261.552
L230.861 256.99
L231.246 256.99
L231.246 252.428
L232.385 252.428
L232.385 247.865
L233.566 247.865
L233.566 243.303
L234.125 243.303
L234.125 238.741
L237.285 238.741
L237.285 234.178
L237.782 234.178
L237.887 225.053
L238.459 225.053
L238.459 220.491
L239.034 220.491
L239.034 215.929
L239.21 215.929
L239.21 211.366
L240.887 211.366
L240.887 206.804
L242.078 206.804
L242.078 202.242
L242.652 202.242
L242.652 197.679
L242.842 197.679
L242.842 193.117
L243.643 193.117
L243.643 188.554
L245.979 188.554
L245.979 183.992
L246.268 183.992
L246.335 174.867
L246.91 174.867
L246.91 170.305
L247.163 170.305
L247.222 161.18
L247.628 161.18
L247.628 156.618
L247.868 156.618
L247.868 152.055
L248.036 152.055
L248.036 147.493
L248.261 147.493
L248.261 142.931
L248.684 142.931
L248.684 138.368
L249.111 138.368
L249.111 133.806
L249.628 133.806
L249.628 129.244
L250.1 129.244
L250.1 124.681
L250.357 124.681
L250.357 120.119
L251.497 120.119
L251.497 115.556
L252.277 115.556
L252.277 110.994
L254.766 110.994
L254.873 101.869
L254.961 101.869
L254.961 97.3069
L255.535 97.3069
L255.535 92.7446
L255.926 92.7446
L255.926 88.1822
L258.691 88.1822
L258.691 83.6198
L258.902 83.6198
L258.902 79.0574
L259.112 79.0574
L259.112 74.495
L259.44 74.495
L259.44 69.9327
L260.152 69.9327
L260.152 65.3703
L260.931 65.3703
L260.931 60.8079
L261.114 60.8079
L261.142 51.6832
L261.232 51.6832
L261.232 47.1208
L261.727 47.1208
L261.727 42.5584
L262.926 42.5584
L262.926 37.996
L263.078 37.996
L263.078 33.4337
L263.368 33.4337
L263.368 28.8713
L263.558 28.8713
L263.558 24.3089
L266.856 24.3089
L266.856 19.7465
L267.247 19.7465
L267.247 15.1842
L268.788 15.1842
L268.788 10.6218
L268.788 10.6218
L453.6 10.6218
L453.6 10.6218" style="fill:none;stroke:#00bfbf;stroke-linecap:square;"/>
   </g>
   <g id="line2d_6">
    <path clip-path="url(#p99b4b0da67)" d="
M168.638 352.8
L168.638 348.238
L173.954 348.238
L173.954 343.675
L184.876 343.675
L184.876 339.113
L189.855 339.113
L189.855 334.55
L191.351 334.55
L191.351 329.988
L194.416 329.988
L194.416 325.426
L198.468 325.426
L198.468 320.863
L199.753 320.863
L199.753 316.301
L201.414 316.301
L201.414 247.865
L202.516 247.865
L202.516 243.303
L202.848 243.303
L202.848 238.741
L204.255 238.741
L204.255 234.178
L204.57 234.178
L204.57 229.616
L205.156 229.616
L205.156 225.053
L205.465 225.053
L205.465 220.491
L207.587 220.491
L207.587 215.929
L208.271 215.929
L208.271 211.366
L208.385 211.366
L208.385 206.804
L209.667 206.804
L209.761 197.679
L209.939 197.679
L209.939 193.117
L210.267 193.117
L210.267 188.554
L210.868 188.554
L210.868 183.992
L211.827 183.992
L211.827 179.43
L212.427 179.43
L212.427 174.867
L216.834 174.867
L216.834 170.305
L217.563 170.305
L217.563 165.743
L218.123 165.743
L218.123 161.18
L220.863 161.18
L220.863 156.618
L221.728 156.618
L221.728 152.055
L221.943 152.055
L221.943 147.493
L223.316 147.493
L223.316 142.931
L223.739 142.931
L223.739 138.368
L224.181 138.368
L224.181 133.806
L224.715 133.806
L224.715 129.244
L226.027 129.244
L226.027 124.681
L226.171 124.681
L226.171 120.119
L229.234 120.119
L229.234 115.556
L232.144 115.556
L232.229 106.432
L233.307 106.432
L233.307 101.869
L234.075 101.869
L234.075 97.3069
L237.117 97.3069
L237.153 88.1822
L241.517 88.1822
L241.517 83.6198
L242.441 83.6198
L242.441 79.0574
L243.402 79.0574
L243.402 74.495
L243.589 74.495
L243.589 69.9327
L244.528 69.9327
L244.528 65.3703
L244.678 65.3703
L244.678 60.8079
L246.008 60.8079
L246.117 51.6832
L246.523 51.6832
L246.523 47.1208
L248.803 47.1208
L248.803 42.5584
L248.943 42.5584
L248.981 33.4337
L249.111 33.4337
L249.111 28.8713
L249.385 28.8713
L249.385 24.3089
L252.145 24.3089
L252.145 19.7465
L252.76 19.7465
L252.76 15.1842
L253.118 15.1842
L253.118 10.6218
L253.118 10.6218
L453.6 10.6218
L453.6 10.6218" style="fill:none;stroke:#bf00bf;stroke-linecap:square;"/>
   </g>
   <g id="line2d_7">
    <path clip-path="url(#p99b4b0da67)" d="
M96.9896 352.8
L96.9896 348.238
L148.788 348.238
L148.788 343.675
L149.155 343.675
L149.155 339.113
L167.127 339.113
L167.127 334.55
L168.591 334.55
L168.591 329.988
L179.245 329.988
L179.245 325.426
L182.958 325.426
L182.958 320.863
L184.88 320.863
L184.88 316.301
L187.274 316.301
L187.274 311.739
L190.593 311.739
L190.593 307.176
L193.489 307.176
L193.489 302.614
L194.794 302.614
L194.794 298.051
L195.89 298.051
L195.89 293.489
L197.245 293.489
L197.245 288.927
L199.674 288.927
L199.674 284.364
L200.816 284.364
L200.816 279.802
L200.987 279.802
L200.987 275.24
L201.414 275.24
L201.414 211.366
L202.226 211.366
L202.226 206.804
L202.574 206.804
L202.574 202.242
L204.355 202.242
L204.355 197.679
L204.57 197.679
L204.57 193.117
L204.732 193.117
L204.732 188.554
L204.905 188.554
L204.905 183.992
L206.276 183.992
L206.276 179.43
L207.505 179.43
L207.505 174.867
L209.747 174.867
L209.747 170.305
L210.29 170.305
L210.29 165.743
L210.529 165.743
L210.529 161.18
L210.828 161.18
L210.828 156.618
L211.311 156.618
L211.311 152.055
L211.444 152.055
L211.444 147.493
L213.701 147.493
L213.701 142.931
L214.871 142.931
L214.871 138.368
L219.503 138.368
L219.503 133.806
L219.646 133.806
L219.646 129.244
L221.47 129.244
L221.47 124.681
L221.728 124.681
L221.728 120.119
L222.705 120.119
L222.705 115.556
L222.964 115.556
L222.964 110.994
L223.229 110.994
L223.229 106.432
L224.573 106.432
L224.582 97.3069
L229.685 97.3069
L229.685 92.7446
L230.165 92.7446
L230.271 83.6198
L230.92 83.6198
L230.92 79.0574
L232.966 79.0574
L232.966 69.9327
L239.35 69.9327
L239.35 65.3703
L243.418 65.3703
L243.418 51.6832
L244.506 51.6832
L244.506 42.5584
L246.008 42.5584
L246.063 33.4337
L246.411 33.4337
L246.411 28.8713
L248.78 28.8713
L248.78 15.1842
L250.74 15.1842
L250.74 10.6218
L250.74 10.6218
L453.6 10.6218
L453.6 10.6218" style="fill:none;stroke:#000000;stroke-linecap:square;"/>
   </g>
   <g id="line2d_8">
    <path clip-path="url(#p99b4b0da67)" d="
M96.9896 352.8
L96.9896 348.238
L148.788 348.238
L148.788 343.675
L149.155 343.675
L149.155 339.113
L167.127 339.113
L167.127 334.55
L168.591 334.55
L168.591 329.988
L179.245 329.988
L179.245 325.426
L182.958 325.426
L182.958 320.863
L184.88 320.863
L184.88 316.301
L187.274 316.301
L187.274 311.739
L190.593 311.739
L190.593 307.176
L193.485 307.176
L193.485 302.614
L194.794 302.614
L194.794 298.051
L195.568 298.051
L195.568 293.489
L197.245 293.489
L197.245 288.927
L199.674 288.927
L199.674 284.364
L200.403 284.364
L200.403 279.802
L200.987 279.802
L200.987 275.24
L201.414 275.24
L201.414 211.366
L202.226 211.366
L202.226 206.804
L202.574 206.804
L202.574 202.242
L203.666 202.242
L203.666 197.679
L204.355 197.679
L204.355 193.117
L204.57 193.117
L204.57 188.554
L204.732 188.554
L204.732 183.992
L206.276 183.992
L206.276 179.43
L207.505 179.43
L207.505 174.867
L209.673 174.867
L209.673 170.305
L210.29 170.305
L210.29 165.743
L210.514 165.743
L210.514 161.18
L210.828 161.18
L210.828 156.618
L211.311 156.618
L211.311 152.055
L211.444 152.055
L211.444 147.493
L213.693 147.493
L213.693 142.931
L214.871 142.931
L214.871 138.368
L219.503 138.368
L219.503 133.806
L219.646 133.806
L219.646 129.244
L221.47 129.244
L221.47 124.681
L221.728 124.681
L221.728 120.119
L222.665 120.119
L222.665 115.556
L222.866 115.556
L222.866 110.994
L223.229 110.994
L223.229 106.432
L224.573 106.432
L224.582 97.3069
L229.685 97.3069
L229.685 92.7446
L230.151 92.7446
L230.151 88.1822
L230.271 88.1822
L230.271 83.6198
L230.92 83.6198
L230.92 79.0574
L232.966 79.0574
L232.966 69.9327
L239.35 69.9327
L239.35 65.3703
L243.418 65.3703
L243.418 51.6832
L244.506 51.6832
L244.506 42.5584
L246.008 42.5584
L246.062 33.4337
L246.411 33.4337
L246.411 28.8713
L248.78 28.8713
L248.78 15.1842
L250.74 15.1842
L250.74 10.6218
L250.74 10.6218
L453.6 10.6218
L453.6 10.6218" style="fill:none;stroke:#00bfbf;stroke-linecap:square;"/>
   </g>
   <g id="line2d_9">
    <path clip-path="url(#p99b4b0da67)" d="
M96.9896 352.8
L96.9896 348.238
L97.1197 348.238
L97.1197 343.675
L109.305 343.675
L109.305 339.113
L129.48 339.113
L129.497 329.988
L137.338 329.988
L137.338 325.426
L138.486 325.426
L138.486 320.863
L140.596 320.863
L140.596 316.301
L141.065 316.301
L141.065 311.739
L146.384 311.739
L146.384 307.176
L149.155 307.176
L149.155 302.614
L151.465 302.614
L151.465 298.051
L152.986 298.051
L152.986 293.489
L155.354 293.489
L155.354 288.927
L155.794 288.927
L155.794 284.364
L156.178 284.364
L156.178 279.802
L157.784 279.802
L157.784 275.24
L164.182 275.24
L164.182 270.677
L164.828 270.677
L164.828 266.115
L167.078 266.115
L167.129 252.428
L167.549 252.428
L167.549 247.865
L168.591 247.865
L168.591 243.303
L172.074 243.303
L172.074 238.741
L172.939 238.741
L172.939 234.178
L181.065 234.178
L181.065 229.616
L182.985 229.616
L182.985 225.053
L184.182 225.053
L184.182 220.491
L186.951 220.491
L186.951 215.929
L189.136 215.929
L189.136 211.366
L192.052 211.366
L192.052 206.804
L192.815 206.804
L192.815 202.242
L194.142 202.242
L194.19 193.117
L194.792 193.117
L194.792 188.554
L197.97 188.554
L197.97 183.992
L200.394 183.992
L200.394 179.43
L200.987 179.43
L200.987 174.867
L201.414 174.867
L201.414 124.681
L202.888 124.681
L202.888 120.119
L203.316 120.119
L203.316 115.556
L205.946 115.556
L205.946 110.994
L208.624 110.994
L208.624 106.432
L209.118 106.432
L209.118 101.869
L209.709 101.869
L209.709 97.3069
L214.871 97.3069
L214.871 92.7446
L216.674 92.7446
L216.674 88.1822
L217.153 88.1822
L217.153 83.6198
L217.316 83.6198
L217.316 79.0574
L219.503 79.0574
L219.503 74.495
L225.06 74.495
L225.06 56.2455
L229.685 56.2455
L229.685 28.8713
L232.966 28.8713
L232.966 24.3089
L235.512 24.3089
L235.512 19.7465
L237.591 19.7465
L237.591 10.6218
L237.591 10.6218
L453.6 10.6218
L453.6 10.6218" style="fill:none;stroke:#bf00bf;stroke-linecap:square;"/>
   </g>
   <g id="matplotlib.axis_1">
    <g id="xtick_1"/>
    <g id="xtick_2">
     <g id="line2d_10">
      <path clip-path="url(#p99b4b0da67)" d="
M59.6175 352.8
L59.6175 7.2" style="fill:none;stroke:#000000;stroke-dasharray:1.000000,3.000000;stroke-dashoffset:0.0;stroke-width:0.5;"/>
     </g>
     <g id="line2d_11">
      <defs>
       <path d="
M0 0
L0 -4" id="m93b0483c22" style="stroke:#000000;stroke-width:0.5;"/>
      </defs>
      <g>
       <use style="stroke:#000000;stroke-width:0.5;" x="59.6174973142" xlink:href="#m93b0483c22" y="352.8"/>
      </g>
     </g>
     <g id="line2d_12">
      <defs>
       <path d="
M0 0
L0 4" id="m741efc42ff" style="stroke:#000000;stroke-width:0.5;"/>
      </defs>
      <g>
       <use style="stroke:#000000;stroke-width:0.5;" x="59.6174973142" xlink:href="#m741efc42ff" y="7.2"/>
      </g>
     </g>
     <g id="text_1">
      <!-- -6 -->
      <defs>
       <path d="
M33.0156 40.375
Q26.375 40.375 22.4844 35.8281
Q18.6094 31.2969 18.6094 23.3906
Q18.6094 15.5312 22.4844 10.9531
Q26.375 6.39062 33.0156 6.39062
Q39.6562 6.39062 43.5312 10.9531
Q47.4062 15.5312 47.4062 23.3906
Q47.4062 31.2969 43.5312 35.8281
Q39.6562 40.375 33.0156 40.375
M52.5938 71.2969
L52.5938 62.3125
Q48.875 64.0625 45.0938 64.9844
Q41.3125 65.9219 37.5938 65.9219
Q27.8281 65.9219 22.6719 59.3281
Q17.5312 52.7344 16.7969 39.4062
Q19.6719 43.6562 24.0156 45.9219
Q28.375 48.1875 33.5938 48.1875
Q44.5781 48.1875 50.9531 41.5156
Q57.3281 34.8594 57.3281 23.3906
Q57.3281 12.1562 50.6875 5.35938
Q44.0469 -1.42188 33.0156 -1.42188
Q20.3594 -1.42188 13.6719 8.26562
Q6.98438 17.9688 6.98438 36.375
Q6.98438 53.6562 15.1875 63.9375
Q23.3906 74.2188 37.2031 74.2188
Q40.9219 74.2188 44.7031 73.4844
Q48.4844 72.75 52.5938 71.2969" id="BitstreamVeraSans-Roman-36"/>
       <path d="
M4.89062 31.3906
L31.2031 31.3906
L31.2031 23.3906
L4.89062 23.3906
z
" id="BitstreamVeraSans-Roman-2d"/>
      </defs>
      <g transform="translate(50.7659348142 371.996875)scale(0.2 -0.2)">
       <use xlink:href="#BitstreamVeraSans-Roman-2d"/>
       <use x="36.083984375" xlink:href="#BitstreamVeraSans-Roman-36"/>
      </g>
     </g>
    </g>
    <g id="xtick_3">
     <g id="line2d_13">
      <path clip-path="url(#p99b4b0da67)" d="
M112.148 352.8
L112.148 7.2" style="fill:none;stroke:#000000;stroke-dasharray:1.000000,3.000000;stroke-dashoffset:0.0;stroke-width:0.5;"/>
     </g>
     <g id="line2d_14">
      <g>
       <use style="stroke:#000000;stroke-width:0.5;" x="112.148497672" xlink:href="#m93b0483c22" y="352.8"/>
      </g>
     </g>
     <g id="line2d_15">
      <g>
       <use style="stroke:#000000;stroke-width:0.5;" x="112.148497672" xlink:href="#m741efc42ff" y="7.2"/>
      </g>
     </g>
     <g id="text_2">
      <!-- -4 -->
      <defs>
       <path d="
M37.7969 64.3125
L12.8906 25.3906
L37.7969 25.3906
z

M35.2031 72.9062
L47.6094 72.9062
L47.6094 25.3906
L58.0156 25.3906
L58.0156 17.1875
L47.6094 17.1875
L47.6094 0
L37.7969 0
L37.7969 17.1875
L4.89062 17.1875
L4.89062 26.7031
z
" id="BitstreamVeraSans-Roman-34"/>
      </defs>
      <g transform="translate(103.228185172 371.996875)scale(0.2 -0.2)">
       <use xlink:href="#BitstreamVeraSans-Roman-2d"/>
       <use x="36.083984375" xlink:href="#BitstreamVeraSans-Roman-34"/>
      </g>
     </g>
    </g>
    <g id="xtick_4">
     <g id="line2d_16">
      <path clip-path="url(#p99b4b0da67)" d="
M164.679 352.8
L164.679 7.2" style="fill:none;stroke:#000000;stroke-dasharray:1.000000,3.000000;stroke-dashoffset:0.0;stroke-width:0.5;"/>
     </g>
     <g id="line2d_17">
      <g>
       <use style="stroke:#000000;stroke-width:0.5;" x="164.67949803" xlink:href="#m93b0483c22" y="352.8"/>
      </g>
     </g>
     <g id="line2d_18">
      <g>
       <use style="stroke:#000000;stroke-width:0.5;" x="164.67949803" xlink:href="#m741efc42ff" y="7.2"/>
      </g>
     </g>
     <g id="text_3">
      <!-- -2 -->
      <defs>
       <path d="
M19.1875 8.29688
L53.6094 8.29688
L53.6094 0
L7.32812 0
L7.32812 8.29688
Q12.9375 14.1094 22.625 23.8906
Q32.3281 33.6875 34.8125 36.5312
Q39.5469 41.8438 41.4219 45.5312
Q43.3125 49.2188 43.3125 52.7812
Q43.3125 58.5938 39.2344 62.25
Q35.1562 65.9219 28.6094 65.9219
Q23.9688 65.9219 18.8125 64.3125
Q13.6719 62.7031 7.8125 59.4219
L7.8125 69.3906
Q13.7656 71.7812 18.9375 73
Q24.125 74.2188 28.4219 74.2188
Q39.75 74.2188 46.4844 68.5469
Q53.2188 62.8906 53.2188 53.4219
Q53.2188 48.9219 51.5312 44.8906
Q49.8594 40.875 45.4062 35.4062
Q44.1875 33.9844 37.6406 27.2188
Q31.1094 20.4531 19.1875 8.29688" id="BitstreamVeraSans-Roman-32"/>
      </defs>
      <g transform="translate(156.19981053 371.996875)scale(0.2 -0.2)">
       <use xlink:href="#BitstreamVeraSans-Roman-2d"/>
       <use x="36.083984375" xlink:href="#BitstreamVeraSans-Roman-32"/>
      </g>
     </g>
    </g>
    <g id="xtick_5">
     <g id="line2d_19">
      <path clip-path="url(#p99b4b0da67)" d="
M217.21 352.8
L217.21 7.2" style="fill:none;stroke:#000000;stroke-dasharray:1.000000,3.000000;stroke-dashoffset:0.0;stroke-width:0.5;"/>
     </g>
     <g id="line2d_20">
      <g>
       <use style="stroke:#000000;stroke-width:0.5;" x="217.210498389" xlink:href="#m93b0483c22" y="352.8"/>
      </g>
     </g>
     <g id="line2d_21">
      <g>
       <use style="stroke:#000000;stroke-width:0.5;" x="217.210498389" xlink:href="#m741efc42ff" y="7.2"/>
      </g>
     </g>
     <g id="text_4">
      <!-- 0 -->
      <defs>
       <path d="
M31.7812 66.4062
Q24.1719 66.4062 20.3281 58.9062
Q16.5 51.4219 16.5 36.375
Q16.5 21.3906 20.3281 13.8906
Q24.1719 6.39062 31.7812 6.39062
Q39.4531 6.39062 43.2812 13.8906
Q47.125 21.3906 47.125 36.375
Q47.125 51.4219 43.2812 58.9062
Q39.4531 66.4062 31.7812 66.4062
M31.7812 74.2188
Q44.0469 74.2188 50.5156 64.5156
Q56.9844 54.8281 56.9844 36.375
Q56.9844 17.9688 50.5156 8.26562
Q44.0469 -1.42188 31.7812 -1.42188
Q19.5312 -1.42188 13.0625 8.26562
Q6.59375 17.9688 6.59375 36.375
Q6.59375 54.8281 13.0625 64.5156
Q19.5312 74.2188 31.7812 74.2188" id="BitstreamVeraSans-Roman-30"/>
      </defs>
      <g transform="translate(212.171435889 371.996875)scale(0.2 -0.2)">
       <use xlink:href="#BitstreamVeraSans-Roman-30"/>
      </g>
     </g>
    </g>
    <g id="xtick_6">
     <g id="line2d_22">
      <path clip-path="url(#p99b4b0da67)" d="
M269.741 352.8
L269.741 7.2" style="fill:none;stroke:#000000;stroke-dasharray:1.000000,3.000000;stroke-dashoffset:0.0;stroke-width:0.5;"/>
     </g>
     <g id="line2d_23">
      <g>
       <use style="stroke:#000000;stroke-width:0.5;" x="269.741498747" xlink:href="#m93b0483c22" y="352.8"/>
      </g>
     </g>
     <g id="line2d_24">
      <g>
       <use style="stroke:#000000;stroke-width:0.5;" x="269.741498747" xlink:href="#m741efc42ff" y="7.2"/>
      </g>
     </g>
     <g id="text_5">
      <!-- 2 -->
      <g transform="translate(265.113373747 371.996875)scale(0.2 -0.2)">
       <use xlink:href="#BitstreamVeraSans-Roman-32"/>
      </g>
     </g>
    </g>
    <g id="xtick_7">
     <g id="line2d_25">
      <path clip-path="url(#p99b4b0da67)" d="
M322.272 352.8
L322.272 7.2" style="fill:none;stroke:#000000;stroke-dasharray:1.000000,3.000000;stroke-dashoffset:0.0;stroke-width:0.5;"/>
     </g>
     <g id="line2d_26">
      <g>
       <use style="stroke:#000000;stroke-width:0.5;" x="322.272499105" xlink:href="#m93b0483c22" y="352.8"/>
      </g>
     </g>
     <g id="line2d_27">
      <g>
       <use style="stroke:#000000;stroke-width:0.5;" x="322.272499105" xlink:href="#m741efc42ff" y="7.2"/>
      </g>
     </g>
     <g id="text_6">
      <!-- 4 -->
      <g transform="translate(316.959999105 371.996875)scale(0.2 -0.2)">
       <use xlink:href="#BitstreamVeraSans-Roman-34"/>
      </g>
     </g>
    </g>
    <g id="xtick_8">
     <g id="line2d_28">
      <path clip-path="url(#p99b4b0da67)" d="
M374.803 352.8
L374.803 7.2" style="fill:none;stroke:#000000;stroke-dasharray:1.000000,3.000000;stroke-dashoffset:0.0;stroke-width:0.5;"/>
     </g>
     <g id="line2d_29">
      <g>
       <use style="stroke:#000000;stroke-width:0.5;" x="374.803499463" xlink:href="#m93b0483c22" y="352.8"/>
      </g>
     </g>
     <g id="line2d_30">
      <g>
       <use style="stroke:#000000;stroke-width:0.5;" x="374.803499463" xlink:href="#m741efc42ff" y="7.2"/>
      </g>
     </g>
     <g id="text_7">
      <!-- 6 -->
      <g transform="translate(369.769124463 371.996875)scale(0.2 -0.2)">
       <use xlink:href="#BitstreamVeraSans-Roman-36"/>
      </g>
     </g>
    </g>
    <g id="xtick_9">
     <g id="line2d_31">
      <path clip-path="url(#p99b4b0da67)" d="
M427.334 352.8
L427.334 7.2" style="fill:none;stroke:#000000;stroke-dasharray:1.000000,3.000000;stroke-dashoffset:0.0;stroke-width:0.5;"/>
     </g>
     <g id="line2d_32">
      <g>
       <use style="stroke:#000000;stroke-width:0.5;" x="427.334499821" xlink:href="#m93b0483c22" y="352.8"/>
      </g>
     </g>
     <g id="line2d_33">
      <g>
       <use style="stroke:#000000;stroke-width:0.5;" x="427.334499821" xlink:href="#m741efc42ff" y="7.2"/>
      </g>
     </g>
     <g id="text_8">
      <!-- 8 -->
      <defs>
       <path d="
M31.7812 34.625
Q24.75 34.625 20.7188 30.8594
Q16.7031 27.0938 16.7031 20.5156
Q16.7031 13.9219 20.7188 10.1562
Q24.75 6.39062 31.7812 6.39062
Q38.8125 6.39062 42.8594 10.1719
Q46.9219 13.9688 46.9219 20.5156
Q46.9219 27.0938 42.8906 30.8594
Q38.875 34.625 31.7812 34.625
M21.9219 38.8125
Q15.5781 40.375 12.0312 44.7188
Q8.5 49.0781 8.5 55.3281
Q8.5 64.0625 14.7188 69.1406
Q20.9531 74.2188 31.7812 74.2188
Q42.6719 74.2188 48.875 69.1406
Q55.0781 64.0625 55.0781 55.3281
Q55.0781 49.0781 51.5312 44.7188
Q48 40.375 41.7031 38.8125
Q48.8281 37.1562 52.7969 32.3125
Q56.7812 27.4844 56.7812 20.5156
Q56.7812 9.90625 50.3125 4.23438
Q43.8438 -1.42188 31.7812 -1.42188
Q19.7344 -1.42188 13.25 4.23438
Q6.78125 9.90625 6.78125 20.5156
Q6.78125 27.4844 10.7812 32.3125
Q14.7969 37.1562 21.9219 38.8125
M18.3125 54.3906
Q18.3125 48.7344 21.8438 45.5625
Q25.3906 42.3906 31.7812 42.3906
Q38.1406 42.3906 41.7188 45.5625
Q45.3125 48.7344 45.3125 54.3906
Q45.3125 60.0625 41.7188 63.2344
Q38.1406 66.4062 31.7812 66.4062
Q25.3906 66.4062 21.8438 63.2344
Q18.3125 60.0625 18.3125 54.3906" id="BitstreamVeraSans-Roman-38"/>
      </defs>
      <g transform="translate(422.334499821 371.996875)scale(0.2 -0.2)">
       <use xlink:href="#BitstreamVeraSans-Roman-38"/>
      </g>
     </g>
    </g>
    <g id="xtick_10"/>
    <g id="xtick_11">
     <g id="line2d_34">
      <defs>
       <path d="
M0 0
L0 -2" id="m177f7580d0" style="stroke:#000000;stroke-width:0.5;"/>
      </defs>
      <g>
       <use style="stroke:#000000;stroke-width:0.5;" x="59.6174973142" xlink:href="#m177f7580d0" y="352.8"/>
      </g>
     </g>
     <g id="line2d_35">
      <defs>
       <path d="
M0 0
L0 2" id="m5284c7e2a0" style="stroke:#000000;stroke-width:0.5;"/>
      </defs>
      <g>
       <use style="stroke:#000000;stroke-width:0.5;" x="59.6174973142" xlink:href="#m5284c7e2a0" y="7.2"/>
      </g>
     </g>
    </g>
    <g id="xtick_12">
     <g id="line2d_36">
      <g>
       <use style="stroke:#000000;stroke-width:0.5;" x="112.148497672" xlink:href="#m177f7580d0" y="352.8"/>
      </g>
     </g>
     <g id="line2d_37">
      <g>
       <use style="stroke:#000000;stroke-width:0.5;" x="112.148497672" xlink:href="#m5284c7e2a0" y="7.2"/>
      </g>
     </g>
    </g>
    <g id="xtick_13">
     <g id="line2d_38">
      <g>
       <use style="stroke:#000000;stroke-width:0.5;" x="164.67949803" xlink:href="#m177f7580d0" y="352.8"/>
      </g>
     </g>
     <g id="line2d_39">
      <g>
       <use style="stroke:#000000;stroke-width:0.5;" x="164.67949803" xlink:href="#m5284c7e2a0" y="7.2"/>
      </g>
     </g>
    </g>
    <g id="xtick_14">
     <g id="line2d_40">
      <g>
       <use style="stroke:#000000;stroke-width:0.5;" x="217.210498389" xlink:href="#m177f7580d0" y="352.8"/>
      </g>
     </g>
     <g id="line2d_41">
      <g>
       <use style="stroke:#000000;stroke-width:0.5;" x="217.210498389" xlink:href="#m5284c7e2a0" y="7.2"/>
      </g>
     </g>
    </g>
    <g id="xtick_15">
     <g id="line2d_42">
      <g>
       <use style="stroke:#000000;stroke-width:0.5;" x="269.741498747" xlink:href="#m177f7580d0" y="352.8"/>
      </g>
     </g>
     <g id="line2d_43">
      <g>
       <use style="stroke:#000000;stroke-width:0.5;" x="269.741498747" xlink:href="#m5284c7e2a0" y="7.2"/>
      </g>
     </g>
    </g>
    <g id="xtick_16">
     <g id="line2d_44">
      <g>
       <use style="stroke:#000000;stroke-width:0.5;" x="322.272499105" xlink:href="#m177f7580d0" y="352.8"/>
      </g>
     </g>
     <g id="line2d_45">
      <g>
       <use style="stroke:#000000;stroke-width:0.5;" x="322.272499105" xlink:href="#m5284c7e2a0" y="7.2"/>
      </g>
     </g>
    </g>
    <g id="xtick_17">
     <g id="line2d_46">
      <g>
       <use style="stroke:#000000;stroke-width:0.5;" x="374.803499463" xlink:href="#m177f7580d0" y="352.8"/>
      </g>
     </g>
     <g id="line2d_47">
      <g>
       <use style="stroke:#000000;stroke-width:0.5;" x="374.803499463" xlink:href="#m5284c7e2a0" y="7.2"/>
      </g>
     </g>
    </g>
    <g id="xtick_18">
     <g id="line2d_48">
      <g>
       <use style="stroke:#000000;stroke-width:0.5;" x="427.334499821" xlink:href="#m177f7580d0" y="352.8"/>
      </g>
     </g>
     <g id="line2d_49">
      <g>
       <use style="stroke:#000000;stroke-width:0.5;" x="427.334499821" xlink:href="#m5284c7e2a0" y="7.2"/>
      </g>
     </g>
    </g>
    <g id="text_9">
     <!-- log10 of Df -->
     <defs>
      <path id="BitstreamVeraSans-Roman-20"/>
      <path d="
M12.4062 8.29688
L28.5156 8.29688
L28.5156 63.9219
L10.9844 60.4062
L10.9844 69.3906
L28.4219 72.9062
L38.2812 72.9062
L38.2812 8.29688
L54.3906 8.29688
L54.3906 0
L12.4062 0
z
" id="BitstreamVeraSans-Roman-31"/>
      <path d="
M30.6094 48.3906
Q23.3906 48.3906 19.1875 42.75
Q14.9844 37.1094 14.9844 27.2969
Q14.9844 17.4844 19.1562 11.8438
Q23.3438 6.20312 30.6094 6.20312
Q37.7969 6.20312 41.9844 11.8594
Q46.1875 17.5312 46.1875 27.2969
Q46.1875 37.0156 41.9844 42.7031
Q37.7969 48.3906 30.6094 48.3906
M30.6094 56
Q42.3281 56 49.0156 48.375
Q55.7188 40.7656 55.7188 27.2969
Q55.7188 13.875 49.0156 6.21875
Q42.3281 -1.42188 30.6094 -1.42188
Q18.8438 -1.42188 12.1719 6.21875
Q5.51562 13.875 5.51562 27.2969
Q5.51562 40.7656 12.1719 48.375
Q18.8438 56 30.6094 56" id="BitstreamVeraSans-Roman-6f"/>
      <path d="
M9.42188 75.9844
L18.4062 75.9844
L18.4062 0
L9.42188 0
z
" id="BitstreamVeraSans-Roman-6c"/>
      <path d="
M19.6719 64.7969
L19.6719 8.10938
L31.5938 8.10938
Q46.6875 8.10938 53.6875 14.9375
Q60.6875 21.7812 60.6875 36.5312
Q60.6875 51.1719 53.6875 57.9844
Q46.6875 64.7969 31.5938 64.7969
z

M9.8125 72.9062
L30.0781 72.9062
Q51.2656 72.9062 61.1719 64.0938
Q71.0938 55.2812 71.0938 36.5312
Q71.0938 17.6719 61.125 8.82812
Q51.1719 0 30.0781 0
L9.8125 0
z
" id="BitstreamVeraSans-Roman-44"/>
      <path d="
M45.4062 27.9844
Q45.4062 37.75 41.375 43.1094
Q37.3594 48.4844 30.0781 48.4844
Q22.8594 48.4844 18.8281 43.1094
Q14.7969 37.75 14.7969 27.9844
Q14.7969 18.2656 18.8281 12.8906
Q22.8594 7.51562 30.0781 7.51562
Q37.3594 7.51562 41.375 12.8906
Q45.4062 18.2656 45.4062 27.9844
M54.3906 6.78125
Q54.3906 -7.17188 48.1875 -13.9844
Q42 -20.7969 29.2031 -20.7969
Q24.4688 -20.7969 20.2656 -20.0938
Q16.0625 -19.3906 12.1094 -17.9219
L12.1094 -9.1875
Q16.0625 -11.3281 19.9219 -12.3438
Q23.7812 -13.375 27.7812 -13.375
Q36.625 -13.375 41.0156 -8.76562
Q45.4062 -4.15625 45.4062 5.17188
L45.4062 9.625
Q42.625 4.78125 38.2812 2.39062
Q33.9375 0 27.875 0
Q17.8281 0 11.6719 7.65625
Q5.51562 15.3281 5.51562 27.9844
Q5.51562 40.6719 11.6719 48.3281
Q17.8281 56 27.875 56
Q33.9375 56 38.2812 53.6094
Q42.625 51.2188 45.4062 46.3906
L45.4062 54.6875
L54.3906 54.6875
z
" id="BitstreamVeraSans-Roman-67"/>
      <path d="
M37.1094 75.9844
L37.1094 68.5
L28.5156 68.5
Q23.6875 68.5 21.7969 66.5469
Q19.9219 64.5938 19.9219 59.5156
L19.9219 54.6875
L34.7188 54.6875
L34.7188 47.7031
L19.9219 47.7031
L19.9219 0
L10.8906 0
L10.8906 47.7031
L2.29688 47.7031
L2.29688 54.6875
L10.8906 54.6875
L10.8906 58.5
Q10.8906 67.625 15.1406 71.7969
Q19.3906 75.9844 28.6094 75.9844
z
" id="BitstreamVeraSans-Roman-66"/>
     </defs>
     <g transform="translate(175.0234375 396.353125)scale(0.2 -0.2)">
      <use xlink:href="#BitstreamVeraSans-Roman-6c"/>
      <use x="27.783203125" xlink:href="#BitstreamVeraSans-Roman-6f"/>
      <use x="88.96484375" xlink:href="#BitstreamVeraSans-Roman-67"/>
      <use x="152.44140625" xlink:href="#BitstreamVeraSans-Roman-31"/>
      <use x="216.064453125" xlink:href="#BitstreamVeraSans-Roman-30"/>
      <use x="279.6875" xlink:href="#BitstreamVeraSans-Roman-20"/>
      <use x="311.474609375" xlink:href="#BitstreamVeraSans-Roman-6f"/>
      <use x="372.65625" xlink:href="#BitstreamVeraSans-Roman-66"/>
      <use x="407.861328125" xlink:href="#BitstreamVeraSans-Roman-20"/>
      <use x="439.6484375" xlink:href="#BitstreamVeraSans-Roman-44"/>
      <use x="516.650390625" xlink:href="#BitstreamVeraSans-Roman-66"/>
     </g>
    </g>
   </g>
   <g id="matplotlib.axis_2">
    <g id="ytick_1">
     <g id="line2d_50">
      <path clip-path="url(#p99b4b0da67)" d="
M7.2 352.8
L453.6 352.8" style="fill:none;stroke:#000000;stroke-dasharray:1.000000,3.000000;stroke-dashoffset:0.0;stroke-width:0.5;"/>
     </g>
     <g id="line2d_51">
      <defs>
       <path d="
M0 0
L4 0" id="m728421d6d4" style="stroke:#000000;stroke-width:0.5;"/>
      </defs>
      <g>
       <use style="stroke:#000000;stroke-width:0.5;" x="7.2" xlink:href="#m728421d6d4" y="352.8"/>
      </g>
     </g>
     <g id="line2d_52">
      <defs>
       <path d="
M0 0
L-4 0" id="mcb0005524f" style="stroke:#000000;stroke-width:0.5;"/>
      </defs>
      <g>
       <use style="stroke:#000000;stroke-width:0.5;" x="453.6" xlink:href="#mcb0005524f" y="352.8"/>
      </g>
     </g>
    </g>
    <g id="ytick_2">
     <g id="line2d_53">
      <path clip-path="url(#p99b4b0da67)" d="
M7.2 284.364
L453.6 284.364" style="fill:none;stroke:#000000;stroke-dasharray:1.000000,3.000000;stroke-dashoffset:0.0;stroke-width:0.5;"/>
     </g>
     <g id="line2d_54">
      <g>
       <use style="stroke:#000000;stroke-width:0.5;" x="7.2" xlink:href="#m728421d6d4" y="284.364356436"/>
      </g>
     </g>
     <g id="line2d_55">
      <g>
       <use style="stroke:#000000;stroke-width:0.5;" x="453.6" xlink:href="#mcb0005524f" y="284.364356436"/>
      </g>
     </g>
    </g>
    <g id="ytick_3">
     <g id="line2d_56">
      <path clip-path="url(#p99b4b0da67)" d="
M7.2 215.929
L453.6 215.929" style="fill:none;stroke:#000000;stroke-dasharray:1.000000,3.000000;stroke-dashoffset:0.0;stroke-width:0.5;"/>
     </g>
     <g id="line2d_57">
      <g>
       <use style="stroke:#000000;stroke-width:0.5;" x="7.2" xlink:href="#m728421d6d4" y="215.928712871"/>
      </g>
     </g>
     <g id="line2d_58">
      <g>
       <use style="stroke:#000000;stroke-width:0.5;" x="453.6" xlink:href="#mcb0005524f" y="215.928712871"/>
      </g>
     </g>
    </g>
    <g id="ytick_4">
     <g id="line2d_59">
      <path clip-path="url(#p99b4b0da67)" d="
M7.2 147.493
L453.6 147.493" style="fill:none;stroke:#000000;stroke-dasharray:1.000000,3.000000;stroke-dashoffset:0.0;stroke-width:0.5;"/>
     </g>
     <g id="line2d_60">
      <g>
       <use style="stroke:#000000;stroke-width:0.5;" x="7.2" xlink:href="#m728421d6d4" y="147.493069307"/>
      </g>
     </g>
     <g id="line2d_61">
      <g>
       <use style="stroke:#000000;stroke-width:0.5;" x="453.6" xlink:href="#mcb0005524f" y="147.493069307"/>
      </g>
     </g>
    </g>
    <g id="ytick_5">
     <g id="line2d_62">
      <path clip-path="url(#p99b4b0da67)" d="
M7.2 79.0574
L453.6 79.0574" style="fill:none;stroke:#000000;stroke-dasharray:1.000000,3.000000;stroke-dashoffset:0.0;stroke-width:0.5;"/>
     </g>
     <g id="line2d_63">
      <g>
       <use style="stroke:#000000;stroke-width:0.5;" x="7.2" xlink:href="#m728421d6d4" y="79.0574257426"/>
      </g>
     </g>
     <g id="line2d_64">
      <g>
       <use style="stroke:#000000;stroke-width:0.5;" x="453.6" xlink:href="#mcb0005524f" y="79.0574257426"/>
      </g>
     </g>
    </g>
    <g id="ytick_6">
     <g id="line2d_65">
      <path clip-path="url(#p99b4b0da67)" d="
M7.2 10.6218
L453.6 10.6218" style="fill:none;stroke:#000000;stroke-dasharray:1.000000,3.000000;stroke-dashoffset:0.0;stroke-width:0.5;"/>
     </g>
     <g id="line2d_66">
      <g>
       <use style="stroke:#000000;stroke-width:0.5;" x="7.2" xlink:href="#m728421d6d4" y="10.6217821782"/>
      </g>
     </g>
     <g id="line2d_67">
      <g>
       <use style="stroke:#000000;stroke-width:0.5;" x="453.6" xlink:href="#mcb0005524f" y="10.6217821782"/>
      </g>
     </g>
    </g>
   </g>
   <g id="patch_3">
    <path d="
M7.2 7.2
L453.6 7.2" style="fill:none;stroke:#000000;"/>
   </g>
   <g id="patch_4">
    <path d="
M453.6 352.8
L453.6 7.2" style="fill:none;stroke:#000000;"/>
   </g>
   <g id="patch_5">
    <path d="
M7.2 352.8
L453.6 352.8" style="fill:none;stroke:#000000;"/>
   </g>
   <g id="patch_6">
    <path d="
M7.2 352.8
L7.2 7.2" style="fill:none;stroke:#000000;"/>
   </g>
   <g id="text_10">
    <!-- {f15-f19}, 5-D -->
    <defs>
     <path d="
M12.5 -9.28125
L15.9219 -9.28125
Q22.75 -9.28125 24.8281 -7.17188
Q26.9062 -5.07812 26.9062 1.90625
L26.9062 14.0156
Q26.9062 21.625 29.0938 25.0938
Q31.2969 28.5625 36.7188 29.8906
Q31.2969 31.1094 29.0938 34.5625
Q26.9062 38.0312 26.9062 45.7031
L26.9062 57.8125
Q26.9062 64.75 24.8281 66.875
Q22.75 69 15.9219 69
L12.5 69
L12.5 75.9844
L15.5781 75.9844
Q27.7344 75.9844 31.8125 72.3906
Q35.8906 68.7969 35.8906 58.0156
L35.8906 46.2969
Q35.8906 39.0156 38.5156 36.2031
Q41.1562 33.4062 48.0938 33.4062
L51.125 33.4062
L51.125 26.4219
L48.0938 26.4219
Q41.1562 26.4219 38.5156 23.5781
Q35.8906 20.75 35.8906 13.375
L35.8906 1.70312
Q35.8906 -9.07812 31.8125 -12.6875
Q27.7344 -16.3125 15.5781 -16.3125
L12.5 -16.3125
z
" id="BitstreamVeraSans-Roman-7d"/>
     <path d="
M10.9844 1.51562
L10.9844 10.5
Q14.7031 8.73438 18.5 7.8125
Q22.3125 6.89062 25.9844 6.89062
Q35.75 6.89062 40.8906 13.4531
Q46.0469 20.0156 46.7812 33.4062
Q43.9531 29.2031 39.5938 26.9531
Q35.25 24.7031 29.9844 24.7031
Q19.0469 24.7031 12.6719 31.3125
Q6.29688 37.9375 6.29688 49.4219
Q6.29688 60.6406 12.9375 67.4219
Q19.5781 74.2188 30.6094 74.2188
Q43.2656 74.2188 49.9219 64.5156
Q56.5938 54.8281 56.5938 36.375
Q56.5938 19.1406 48.4062 8.85938
Q40.2344 -1.42188 26.4219 -1.42188
Q22.7031 -1.42188 18.8906 -0.6875
Q15.0938 0.046875 10.9844 1.51562
M30.6094 32.4219
Q37.25 32.4219 41.125 36.9531
Q45.0156 41.5 45.0156 49.4219
Q45.0156 57.2812 41.125 61.8438
Q37.25 66.4062 30.6094 66.4062
Q23.9688 66.4062 20.0938 61.8438
Q16.2188 57.2812 16.2188 49.4219
Q16.2188 41.5 20.0938 36.9531
Q23.9688 32.4219 30.6094 32.4219" id="BitstreamVeraSans-Roman-39"/>
     <path d="
M51.125 -9.28125
L51.125 -16.3125
L48.0938 -16.3125
Q35.9375 -16.3125 31.8125 -12.6875
Q27.6875 -9.07812 27.6875 1.70312
L27.6875 13.375
Q27.6875 20.75 25.0469 23.5781
Q22.4062 26.4219 15.4844 26.4219
L12.5 26.4219
L12.5 33.4062
L15.4844 33.4062
Q22.4688 33.4062 25.0781 36.2031
Q27.6875 39.0156 27.6875 46.2969
L27.6875 58.0156
Q27.6875 68.7969 31.8125 72.3906
Q35.9375 75.9844 48.0938 75.9844
L51.125 75.9844
L51.125 69
L47.7969 69
Q40.9219 69 38.8125 66.8438
Q36.7188 64.7031 36.7188 57.8125
L36.7188 45.7031
Q36.7188 38.0312 34.5 34.5625
Q32.2812 31.1094 26.9062 29.8906
Q32.3281 28.5625 34.5156 25.0938
Q36.7188 21.625 36.7188 14.0156
L36.7188 1.90625
Q36.7188 -4.98438 38.8125 -7.125
Q40.9219 -9.28125 47.7969 -9.28125
z
" id="BitstreamVeraSans-Roman-7b"/>
     <path d="
M11.7188 12.4062
L22.0156 12.4062
L22.0156 4
L14.0156 -11.625
L7.71875 -11.625
L11.7188 4
z
" id="BitstreamVeraSans-Roman-2c"/>
     <path d="
M10.7969 72.9062
L49.5156 72.9062
L49.5156 64.5938
L19.8281 64.5938
L19.8281 46.7344
Q21.9688 47.4688 24.1094 47.8281
Q26.2656 48.1875 28.4219 48.1875
Q40.625 48.1875 47.75 41.5
Q54.8906 34.8125 54.8906 23.3906
Q54.8906 11.625 47.5625 5.09375
Q40.2344 -1.42188 26.9062 -1.42188
Q22.3125 -1.42188 17.5469 -0.640625
Q12.7969 0.140625 7.71875 1.70312
L7.71875 11.625
Q12.1094 9.23438 16.7969 8.0625
Q21.4844 6.89062 26.7031 6.89062
Q35.1562 6.89062 40.0781 11.3281
Q45.0156 15.7656 45.0156 23.3906
Q45.0156 31 40.0781 35.4375
Q35.1562 39.8906 26.7031 39.8906
Q22.75 39.8906 18.8125 39.0156
Q14.8906 38.1406 10.7969 36.2812
z
" id="BitstreamVeraSans-Roman-35"/>
    </defs>
    <g transform="translate(300.15325 345.888)scale(0.2 -0.2)">
     <use xlink:href="#BitstreamVeraSans-Roman-7b"/>
     <use x="63.623046875" xlink:href="#BitstreamVeraSans-Roman-66"/>
     <use x="98.828125" xlink:href="#BitstreamVeraSans-Roman-31"/>
     <use x="162.451171875" xlink:href="#BitstreamVeraSans-Roman-35"/>
     <use x="226.07421875" xlink:href="#BitstreamVeraSans-Roman-2d"/>
     <use x="262.158203125" xlink:href="#BitstreamVeraSans-Roman-66"/>
     <use x="297.36328125" xlink:href="#BitstreamVeraSans-Roman-31"/>
     <use x="360.986328125" xlink:href="#BitstreamVeraSans-Roman-39"/>
     <use x="424.609375" xlink:href="#BitstreamVeraSans-Roman-7d"/>
     <use x="488.232421875" xlink:href="#BitstreamVeraSans-Roman-2c"/>
     <use x="520.01953125" xlink:href="#BitstreamVeraSans-Roman-20"/>
     <use x="551.806640625" xlink:href="#BitstreamVeraSans-Roman-35"/>
     <use x="615.4296875" xlink:href="#BitstreamVeraSans-Roman-2d"/>
     <use x="651.513671875" xlink:href="#BitstreamVeraSans-Roman-44"/>
    </g>
   </g>
   <g id="text_11">
    <!-- 0.0.0 -->
    <defs>
     <path d="
M10.6875 12.4062
L21 12.4062
L21 0
L10.6875 0
z
" id="BitstreamVeraSans-Roman-2e"/>
    </defs>
    <g style="fill:#808080;" transform="translate(218.33984375 347.2643125)scale(0.1 -0.1)">
     <use xlink:href="#BitstreamVeraSans-Roman-30"/>
     <use x="63.623046875" xlink:href="#BitstreamVeraSans-Roman-2e"/>
     <use x="95.41015625" xlink:href="#BitstreamVeraSans-Roman-30"/>
     <use x="159.033203125" xlink:href="#BitstreamVeraSans-Roman-2e"/>
     <use x="190.8203125" xlink:href="#BitstreamVeraSans-Roman-30"/>
    </g>
   </g>
  </g>
 </g>
 <defs>
  <clipPath id="p99b4b0da67">
   <rect height="345.6" width="446.4" x="7.2" y="7.2"/>
  </clipPath>
 </defs>
</svg>
