<?xml version="1.0" encoding="utf-8" standalone="no"?>
<!DOCTYPE svg PUBLIC "-//W3C//DTD SVG 1.1//EN"
  "http://www.w3.org/Graphics/SVG/1.1/DTD/svg11.dtd">
<!-- Created with matplotlib (http://matplotlib.org/) -->
<svg height="407pt" version="1.1" viewBox="0 0 460 407" width="460pt" xmlns="http://www.w3.org/2000/svg" xmlns:xlink="http://www.w3.org/1999/xlink">
 <defs>
  <style type="text/css">
*{stroke-linecap:butt;stroke-linejoin:round;}
  </style>
 </defs>
 <g id="figure_1">
  <g id="patch_1">
   <path d="
M0 407.712
L460.8 407.712
L460.8 0
L0 0
z
" style="fill:#ffffff;"/>
  </g>
  <g id="axes_1">
   <g id="patch_2">
    <path d="
M7.2 352.8
L453.6 352.8
L453.6 7.2
L7.2 7.2
z
" style="fill:#ffffff;"/>
   </g>
   <g id="line2d_1">
    <path clip-path="url(#p99b4b0da67)" d="
M-1 302.614
L7.0865 302.614
L7.0865 266.115
L181.215 266.115
L181.215 261.552
L184.435 261.552
L184.435 256.99
L186.457 256.99
L186.457 252.428
L196.023 252.428
L196.023 247.865
L196.207 247.865
L196.207 243.303
L196.591 243.303
L196.682 234.178
L197.674 234.178
L197.674 229.616
L198.118 229.616
L198.118 225.053
L199.105 225.053
L199.107 215.929
L199.427 215.929
L199.427 211.366
L200.106 211.366
L200.106 206.804
L203.084 206.804
L203.084 202.242
L205.529 202.242
L205.529 197.679
L208.689 197.679
L208.689 179.43
L212.662 179.43
L212.662 174.867
L213.008 174.867
L213.008 152.055
L213.314 152.055
L213.314 147.493
L216.002 147.493
L216.11 138.368
L216.383 138.368
L216.383 129.244
L217.939 129.244
L217.939 120.119
L218.754 120.119
L218.754 106.432
L219.713 106.432
L219.713 97.3069
L221.533 97.3069
L221.535 88.1822
L227.894 88.1822
L227.894 83.6198
L229.198 83.6198
L229.198 79.0574
L232.461 79.0574
L232.461 74.495
L235.712 74.495
L235.712 65.3703
L235.986 65.3703
L235.986 60.8079
L237.318 60.8079
L237.318 56.2455
L237.972 56.2455
L237.972 51.6832
L238.267 51.6832
L238.267 47.1208
L239.323 47.1208
L239.323 42.5584
L239.571 42.5584
L239.571 37.996
L240.207 37.996
L240.24 28.8713
L241.315 28.8713
L241.315 24.3089
L241.604 24.3089
L241.604 19.7465
L242.52 19.7465
L242.528 10.6218
L242.528 10.6218
L453.6 10.6218
L453.6 10.6218" style="fill:none;stroke:#ff0000;stroke-linecap:square;stroke-width:3.0;"/>
   </g>
   <g id="line2d_2">
    <path clip-path="url(#p99b4b0da67)" d="
M233.884 352.8
L233.884 348.238
L236.872 348.238
L236.872 343.675
L238.937 343.675
L238.937 339.113
L239.294 339.113
L239.294 334.55
L241.502 334.55
L241.502 329.988
L242.069 329.988
L242.069 325.426
L242.869 325.426
L242.869 320.863
L244.165 320.863
L244.192 311.739
L246.311 311.739
L246.311 307.176
L246.756 307.176
L246.756 302.614
L247.826 302.614
L247.826 298.051
L248.545 298.051
L248.545 293.489
L250.372 293.489
L250.372 288.927
L250.943 288.927
L250.943 284.364
L251.491 284.364
L251.491 279.802
L251.903 279.802
L251.903 275.24
L252.339 275.24
L252.339 270.677
L252.547 270.677
L252.547 266.115
L253.469 266.115
L253.469 261.552
L257.617 261.552
L257.691 252.428
L259.077 252.428
L259.077 247.865
L259.523 247.865
L259.523 243.303
L261.076 243.303
L261.076 238.741
L262.483 238.741
L262.483 234.178
L262.723 234.178
L262.723 229.616
L263.37 229.616
L263.37 225.053
L263.656 225.053
L263.659 215.929
L263.862 215.929
L263.862 211.366
L264.044 211.366
L264.044 206.804
L264.172 206.804
L264.172 202.242
L264.315 202.242
L264.315 197.679
L264.432 197.679
L264.455 188.554
L264.689 188.554
L264.746 179.43
L264.81 179.43
L264.839 170.305
L265.001 170.305
L265.034 161.18
L265.196 161.18
L265.196 156.618
L265.35 156.618
L265.453 142.931
L265.551 142.931
L265.576 133.806
L265.664 133.806
L265.772 115.556
L266.152 115.556
L266.196 106.432
L267.132 106.432
L267.132 101.869
L267.252 101.869
L267.252 97.3069
L268.114 97.3069
L268.114 92.7446
L269.112 92.7446
L269.112 88.1822
L269.301 88.1822
L269.31 79.0574
L270.484 79.0574
L270.484 74.495
L270.862 74.495
L270.862 69.9327
L299.142 69.9327
L299.142 65.3703
L300.428 65.3703
L300.428 60.8079
L312.165 60.8079
L312.165 56.2455
L314.028 56.2455
L314.028 51.6832
L317.52 51.6832
L317.52 10.6218
L317.52 10.6218
L453.6 10.6218
L453.6 10.6218" style="fill:none;stroke:#00bfbf;stroke-linecap:square;"/>
   </g>
   <g id="line2d_3">
    <path clip-path="url(#p99b4b0da67)" d="
M232.121 352.8
L232.121 348.238
L233.352 348.238
L233.352 343.675
L233.716 343.675
L233.716 339.113
L233.884 339.113
L233.884 334.55
L236.488 334.55
L236.488 329.988
L237.522 329.988
L237.522 325.426
L237.955 325.426
L237.955 320.863
L238.937 320.863
L238.937 316.301
L239.294 316.301
L239.294 311.739
L239.481 311.739
L239.481 307.176
L241.502 307.176
L241.502 302.614
L242.869 302.614
L242.869 298.051
L244.165 298.051
L244.192 288.927
L246.311 288.927
L246.311 284.364
L246.756 284.364
L246.756 279.802
L248.151 279.802
L248.151 275.24
L248.545 275.24
L248.545 270.677
L249.156 270.677
L249.156 266.115
L250.943 266.115
L250.943 261.552
L251.491 261.552
L251.491 256.99
L253.469 256.99
L253.469 252.428
L253.973 252.428
L253.973 247.865
L254.598 247.865
L254.598 243.303
L255.23 243.303
L255.23 238.741
L255.364 238.741
L255.364 234.178
L255.693 234.178
L255.693 229.616
L256.58 229.616
L256.58 225.053
L257.691 225.053
L257.691 220.491
L258.311 220.491
L258.311 215.929
L258.467 215.929
L258.467 211.366
L259.897 211.366
L259.897 206.804
L260.607 206.804
L260.607 202.242
L261.835 202.242
L261.835 197.679
L262.022 197.679
L262.053 188.554
L262.212 188.554
L262.212 183.992
L262.39 183.992
L262.39 179.43
L262.723 179.43
L262.723 174.867
L263.089 174.867
L263.161 165.743
L263.519 165.743
L263.519 161.18
L263.656 161.18
L263.656 156.618
L263.911 156.618
L263.911 152.055
L264.172 152.055
L264.172 147.493
L264.315 147.493
L264.315 142.931
L264.594 142.931
L264.696 133.806
L264.775 133.806
L264.775 129.244
L264.902 129.244
L265.001 120.119
L265.034 120.119
L265.135 110.994
L265.269 110.994
L265.323 101.869
L265.423 101.869
L265.517 92.7446
L265.551 92.7446
L265.551 88.1822
L265.664 88.1822
L265.774 74.495
L266.196 74.495
L266.196 69.9327
L266.404 69.9327
L266.404 65.3703
L280.029 65.3703
L280.029 60.8079
L288.153 60.8079
L288.153 56.2455
L295.891 56.2455
L295.943 47.1208
L299.071 47.1208
L299.071 42.5584
L300.034 42.5584
L300.034 37.996
L307.816 37.996
L307.816 33.4337
L311.306 33.4337
L311.306 28.8713
L312.165 28.8713
L312.165 24.3089
L313.425 24.3089
L313.425 19.7465
L317.52 19.7465
L317.52 10.6218
L317.52 10.6218
L453.6 10.6218
L453.6 10.6218" style="fill:none;stroke:#bf00bf;stroke-linecap:square;"/>
   </g>
   <g id="line2d_4">
    <path clip-path="url(#p99b4b0da67)" d="
M230.914 352.8
L230.914 348.238
L231.167 348.238
L231.167 343.675
L232.121 343.675
L232.121 339.113
L233.352 339.113
L233.352 334.55
L233.716 334.55
L233.716 329.988
L233.884 329.988
L233.884 325.426
L234.139 325.426
L234.139 320.863
L236.112 320.863
L236.112 316.301
L236.416 316.301
L236.504 307.176
L236.608 307.176
L236.608 302.614
L237.522 302.614
L237.561 293.489
L237.955 293.489
L237.955 288.927
L239.115 288.927
L239.115 284.364
L239.234 284.364
L239.234 279.802
L240.713 279.802
L240.773 270.677
L241.054 270.677
L241.054 266.115
L241.309 266.115
L241.309 261.552
L241.502 261.552
L241.502 256.99
L245.11 256.99
L245.11 252.428
L245.269 252.428
L245.269 247.865
L245.788 247.865
L245.788 243.303
L246.756 243.303
L246.756 238.741
L247.727 238.741
L247.727 234.178
L248.784 234.178
L248.784 229.616
L249.156 229.616
L249.156 225.053
L249.46 225.053
L249.46 220.491
L249.844 220.491
L249.844 215.929
L250.535 215.929
L250.535 211.366
L251.455 211.366
L251.455 206.804
L251.776 206.804
L251.776 202.242
L252.677 202.242
L252.677 197.679
L253.761 197.679
L253.761 193.117
L253.942 193.117
L253.973 183.992
L254.291 183.992
L254.291 179.43
L254.474 179.43
L254.474 174.867
L254.598 174.867
L254.598 170.305
L255.364 170.305
L255.364 165.743
L257.028 165.743
L257.028 161.18
L258.668 161.18
L258.668 156.618
L259.729 156.618
L259.729 152.055
L260.055 152.055
L260.055 147.493
L260.394 147.493
L260.394 142.931
L260.565 142.931
L260.565 138.368
L260.803 138.368
L260.803 133.806
L261.252 133.806
L261.252 129.244
L261.615 129.244
L261.626 120.119
L261.757 120.119
L261.757 115.556
L262.212 115.556
L262.212 110.994
L262.361 110.994
L262.361 106.432
L262.677 106.432
L262.778 97.3069
L263.075 97.3069
L263.161 88.1822
L263.519 88.1822
L263.519 83.6198
L263.911 83.6198
L263.911 79.0574
L264.449 79.0574
L264.449 74.495
L264.817 74.495
L264.817 69.9327
L265.193 69.9327
L265.193 65.3703
L265.323 65.3703
L265.323 60.8079
L265.517 60.8079
L265.553 51.6832
L265.897 51.6832
L265.897 47.1208
L280.862 47.1208
L280.862 42.5584
L281.401 42.5584
L281.401 37.996
L295.891 37.996
L295.943 28.8713
L298.007 28.8713
L298.007 24.3089
L304.53 24.3089
L304.53 19.7465
L310.045 19.7465
L310.045 15.1842
L313.425 15.1842
L313.425 10.6218
L313.425 10.6218
L453.6 10.6218
L453.6 10.6218" style="fill:none;stroke:#000000;stroke-linecap:square;"/>
   </g>
   <g id="line2d_5">
    <path clip-path="url(#p99b4b0da67)" d="
M209.191 352.8
L209.191 348.238
L220.654 348.238
L220.654 343.675
L222.24 343.675
L222.24 339.113
L224.278 339.113
L224.278 334.55
L224.971 334.55
L225.037 325.426
L225.24 325.426
L225.24 320.863
L226.291 320.863
L226.291 316.301
L227.055 316.301
L227.055 311.739
L227.315 311.739
L227.315 307.176
L227.712 307.176
L227.712 302.614
L229.809 302.614
L229.907 293.489
L230.431 293.489
L230.431 288.927
L231.167 288.927
L231.167 284.364
L231.589 284.364
L231.589 279.802
L231.776 279.802
L231.844 266.115
L231.895 266.115
L231.895 261.552
L232.018 261.552
L232.121 252.428
L232.379 252.428
L232.386 243.303
L232.736 243.303
L232.736 238.741
L233.355 238.741
L233.386 229.616
L233.723 229.616
L233.831 220.491
L233.884 220.491
L233.884 215.929
L234.139 215.929
L234.148 206.804
L234.684 206.804
L234.684 202.242
L235.721 202.242
L235.742 193.117
L236.608 193.117
L236.608 188.554
L237.522 188.554
L237.522 183.992
L239.37 183.992
L239.37 179.43
L240.501 179.43
L240.501 174.867
L240.613 174.867
L240.613 170.305
L242.349 170.305
L242.349 165.743
L242.471 165.743
L242.471 161.18
L243.039 161.18
L243.039 156.618
L243.841 156.618
L243.909 147.493
L244.508 147.493
L244.508 142.931
L247.662 142.931
L247.727 133.806
L247.938 133.806
L247.967 124.681
L248.285 124.681
L248.285 120.119
L248.927 120.119
L248.927 115.556
L250.128 115.556
L250.128 110.994
L252.677 110.994
L252.677 106.432
L254.015 106.432
L254.015 101.869
L254.446 101.869
L254.446 97.3069
L255.784 97.3069
L255.784 92.7446
L256.25 92.7446
L256.25 88.1822
L257.028 88.1822
L257.028 83.6198
L258.086 83.6198
L258.086 79.0574
L258.668 79.0574
L258.668 74.495
L259.266 74.495
L259.266 69.9327
L259.53 69.9327
L259.53 65.3703
L259.805 65.3703
L259.805 60.8079
L260.055 60.8079
L260.055 56.2455
L260.242 56.2455
L260.242 51.6832
L260.386 51.6832
L260.389 42.5584
L261.252 42.5584
L261.252 37.996
L261.64 37.996
L261.64 33.4337
L261.757 33.4337
L261.757 28.8713
L262.569 28.8713
L262.578 19.7465
L263.965 19.7465
L263.965 15.1842
L267.563 15.1842
L267.563 10.6218
L267.563 10.6218
L453.6 10.6218
L453.6 10.6218" style="fill:none;stroke:#00bfbf;stroke-linecap:square;"/>
   </g>
   <g id="line2d_6">
    <path clip-path="url(#p99b4b0da67)" d="
M-1 348.238
L8.79558 348.238
L8.79558 343.675
L41.0523 343.675
L41.0523 339.113
L83.1484 339.113
L83.1484 334.55
L87.2271 334.55
L87.2271 329.988
L110.232 329.988
L110.232 325.426
L135.043 325.426
L135.043 320.863
L163.333 320.863
L163.333 316.301
L170.298 316.301
L170.298 311.739
L213.087 311.739
L213.087 307.176
L216.386 307.176
L216.386 302.614
L216.533 302.614
L216.533 298.051
L218.453 298.051
L218.453 293.489
L219.713 293.489
L219.713 288.927
L220.04 288.927
L220.04 284.364
L220.524 284.364
L220.524 279.802
L221.096 279.802
L221.096 275.24
L221.251 275.24
L221.251 270.677
L221.86 270.677
L221.952 256.99
L222.24 256.99
L222.24 252.428
L222.436 252.428
L222.436 247.865
L222.708 247.865
L222.714 238.741
L223.288 238.741
L223.288 234.178
L223.516 234.178
L223.557 225.053
L223.942 225.053
L223.966 211.366
L224.156 211.366
L224.156 206.804
L224.724 206.804
L224.757 197.679
L224.858 197.679
L224.862 188.554
L225.122 188.554
L225.122 183.992
L225.875 183.992
L225.875 179.43
L226.265 179.43
L226.291 170.305
L226.485 170.305
L226.521 161.18
L228.217 161.18
L228.217 156.618
L228.349 156.618
L228.349 152.055
L229.081 152.055
L229.081 147.493
L229.809 147.493
L229.907 138.368
L230.405 138.368
L230.511 129.244
L230.814 129.244
L230.814 124.681
L231.947 124.681
L231.947 120.119
L236.155 120.119
L236.155 115.556
L236.413 115.556
L236.413 110.994
L238.597 110.994
L238.597 106.432
L239.842 106.432
L239.842 101.869
L241.106 101.869
L241.106 97.3069
L241.946 97.3069
L241.946 92.7446
L243.548 92.7446
L243.548 88.1822
L243.805 88.1822
L243.841 79.0574
L245.198 79.0574
L245.198 74.495
L245.738 74.495
L245.738 69.9327
L247.616 69.9327
L247.616 65.3703
L248.701 65.3703
L248.701 60.8079
L249.11 60.8079
L249.11 56.2455
L249.993 56.2455
L249.993 51.6832
L250.45 51.6832
L250.45 47.1208
L250.598 47.1208
L250.598 42.5584
L251.464 42.5584
L251.464 37.996
L251.577 37.996
L251.577 33.4337
L251.862 33.4337
L251.862 28.8713
L252.138 28.8713
L252.138 24.3089
L252.251 24.3089
L252.334 15.1842
L256.039 15.1842
L256.039 10.6218
L256.039 10.6218
L453.6 10.6218
L453.6 10.6218" style="fill:none;stroke:#bf00bf;stroke-linecap:square;"/>
   </g>
   <g id="line2d_7">
    <path clip-path="url(#p99b4b0da67)" d="
M-1 325.426
L7.0865 325.426
L7.0865 311.739
L199.107 311.739
L199.107 307.176
L201.895 307.176
L201.895 302.614
L209.483 302.614
L209.483 298.051
L209.785 298.051
L209.785 293.489
L213.008 293.489
L213.008 288.927
L214.33 288.927
L214.33 284.364
L214.548 284.364
L214.548 279.802
L215.124 279.802
L215.124 275.24
L216.23 275.24
L216.257 266.115
L216.383 266.115
L216.383 256.99
L216.966 256.99
L216.966 252.428
L218.354 252.428
L218.354 247.865
L219.713 247.865
L219.713 243.303
L219.879 243.303
L219.879 238.741
L220.189 238.741
L220.228 229.616
L220.9 229.616
L220.9 225.053
L221.059 225.053
L221.059 220.491
L221.251 220.491
L221.251 215.929
L221.837 215.929
L221.839 202.242
L222.134 202.242
L222.235 193.117
L222.666 193.117
L222.706 174.867
L223.249 174.867
L223.249 170.305
L223.51 170.305
L223.51 165.743
L223.766 165.743
L223.807 156.618
L223.934 156.618
L223.934 147.493
L224.756 147.493
L224.858 133.806
L225.114 133.806
L225.114 129.244
L226.49 129.244
L226.49 124.681
L228.068 124.681
L228.068 120.119
L235.712 120.119
L235.712 115.556
L235.986 115.556
L235.986 110.994
L236.154 110.994
L236.154 106.432
L237.225 106.432
L237.225 101.869
L239.323 101.869
L239.323 97.3069
L239.842 97.3069
L239.842 92.7446
L240.207 92.7446
L240.207 88.1822
L241.105 88.1822
L241.105 83.6198
L241.792 83.6198
L241.792 79.0574
L241.943 79.0574
L241.943 74.495
L242.422 74.495
L242.52 65.3703
L242.697 65.3703
L242.697 60.8079
L243.548 60.8079
L243.548 56.2455
L243.805 56.2455
L243.841 47.1208
L244.916 47.1208
L244.916 42.5584
L245.738 42.5584
L245.738 37.996
L247.321 37.996
L247.415 28.8713
L247.616 28.8713
L247.616 24.3089
L247.77 24.3089
L247.77 19.7465
L249.11 19.7465
L249.11 15.1842
L256.039 15.1842
L256.039 10.6218
L256.039 10.6218
L453.6 10.6218
L453.6 10.6218" style="fill:none;stroke:#000000;stroke-linecap:square;"/>
   </g>
   <g id="line2d_8">
    <path clip-path="url(#p99b4b0da67)" d="
M-1 325.426
L7.0865 325.426
L7.0865 311.739
L199.107 311.739
L199.107 307.176
L201.887 307.176
L201.887 302.614
L207.237 302.614
L207.237 298.051
L209.483 298.051
L209.483 293.489
L209.785 293.489
L209.785 288.927
L213.008 288.927
L213.008 284.364
L214.33 284.364
L214.33 279.802
L214.548 279.802
L214.548 275.24
L216.23 275.24
L216.257 266.115
L216.383 266.115
L216.383 256.99
L216.966 256.99
L216.966 252.428
L218.354 252.428
L218.354 247.865
L219.713 247.865
L219.713 243.303
L219.879 243.303
L219.94 234.178
L220.189 234.178
L220.228 225.053
L220.9 225.053
L220.9 220.491
L221.059 220.491
L221.059 215.929
L221.251 215.929
L221.251 211.366
L221.837 211.366
L221.839 197.679
L222.134 197.679
L222.235 188.554
L222.666 188.554
L222.706 170.305
L223.249 170.305
L223.249 165.743
L223.51 165.743
L223.51 161.18
L223.766 161.18
L223.766 156.618
L223.934 156.618
L223.934 147.493
L224.756 147.493
L224.858 133.806
L225.114 133.806
L225.114 129.244
L226.49 129.244
L226.49 124.681
L228.068 124.681
L228.068 120.119
L235.712 120.119
L235.712 115.556
L235.986 115.556
L235.986 110.994
L236.154 110.994
L236.154 106.432
L237.225 106.432
L237.225 101.869
L239.323 101.869
L239.323 97.3069
L239.842 97.3069
L239.842 92.7446
L240.207 92.7446
L240.207 88.1822
L241.105 88.1822
L241.105 83.6198
L241.792 83.6198
L241.792 79.0574
L241.943 79.0574
L241.943 74.495
L242.422 74.495
L242.52 65.3703
L242.697 65.3703
L242.697 60.8079
L243.548 60.8079
L243.548 56.2455
L243.805 56.2455
L243.841 47.1208
L244.916 47.1208
L244.916 42.5584
L245.738 42.5584
L245.738 37.996
L247.321 37.996
L247.415 28.8713
L247.616 28.8713
L247.616 24.3089
L247.77 24.3089
L247.77 19.7465
L249.11 19.7465
L249.11 15.1842
L256.039 15.1842
L256.039 10.6218
L256.039 10.6218
L453.6 10.6218
L453.6 10.6218" style="fill:none;stroke:#00bfbf;stroke-linecap:square;"/>
   </g>
   <g id="line2d_9">
    <path clip-path="url(#p99b4b0da67)" d="
M-1 302.614
L7.0865 302.614
L7.0865 266.115
L181.215 266.115
L181.215 261.552
L184.435 261.552
L184.435 256.99
L186.457 256.99
L186.457 252.428
L196.023 252.428
L196.023 247.865
L196.207 247.865
L196.207 243.303
L196.591 243.303
L196.682 234.178
L197.674 234.178
L197.674 229.616
L198.118 229.616
L198.118 225.053
L199.105 225.053
L199.107 215.929
L199.427 215.929
L199.427 211.366
L200.106 211.366
L200.106 206.804
L203.084 206.804
L203.084 202.242
L205.529 202.242
L205.529 197.679
L208.689 197.679
L208.689 179.43
L212.662 179.43
L212.662 174.867
L213.008 174.867
L213.008 152.055
L213.314 152.055
L213.314 147.493
L216.002 147.493
L216.11 138.368
L216.383 138.368
L216.383 129.244
L217.939 129.244
L217.939 120.119
L218.754 120.119
L218.754 106.432
L219.713 106.432
L219.713 97.3069
L221.533 97.3069
L221.535 88.1822
L227.894 88.1822
L227.894 83.6198
L229.198 83.6198
L229.198 79.0574
L232.461 79.0574
L232.461 74.495
L235.712 74.495
L235.712 65.3703
L235.986 65.3703
L235.986 60.8079
L237.318 60.8079
L237.318 56.2455
L237.972 56.2455
L237.972 51.6832
L238.267 51.6832
L238.267 47.1208
L239.323 47.1208
L239.323 42.5584
L239.571 42.5584
L239.571 37.996
L240.207 37.996
L240.24 28.8713
L241.315 28.8713
L241.315 24.3089
L241.604 24.3089
L241.604 19.7465
L242.52 19.7465
L242.528 10.6218
L242.528 10.6218
L453.6 10.6218
L453.6 10.6218" style="fill:none;stroke:#bf00bf;stroke-linecap:square;"/>
   </g>
   <g id="matplotlib.axis_1">
    <g id="xtick_1"/>
    <g id="xtick_2">
     <g id="line2d_10">
      <path clip-path="url(#p99b4b0da67)" d="
M59.6175 352.8
L59.6175 7.2" style="fill:none;stroke:#000000;stroke-dasharray:1.000000,3.000000;stroke-dashoffset:0.0;stroke-width:0.5;"/>
     </g>
     <g id="line2d_11">
      <defs>
       <path d="
M0 0
L0 -4" id="m93b0483c22" style="stroke:#000000;stroke-width:0.5;"/>
      </defs>
      <g>
       <use style="stroke:#000000;stroke-width:0.5;" x="59.6174973142" xlink:href="#m93b0483c22" y="352.8"/>
      </g>
     </g>
     <g id="line2d_12">
      <defs>
       <path d="
M0 0
L0 4" id="m741efc42ff" style="stroke:#000000;stroke-width:0.5;"/>
      </defs>
      <g>
       <use style="stroke:#000000;stroke-width:0.5;" x="59.6174973142" xlink:href="#m741efc42ff" y="7.2"/>
      </g>
     </g>
     <g id="text_1">
      <!-- -6 -->
      <defs>
       <path d="
M33.0156 40.375
Q26.375 40.375 22.4844 35.8281
Q18.6094 31.2969 18.6094 23.3906
Q18.6094 15.5312 22.4844 10.9531
Q26.375 6.39062 33.0156 6.39062
Q39.6562 6.39062 43.5312 10.9531
Q47.4062 15.5312 47.4062 23.3906
Q47.4062 31.2969 43.5312 35.8281
Q39.6562 40.375 33.0156 40.375
M52.5938 71.2969
L52.5938 62.3125
Q48.875 64.0625 45.0938 64.9844
Q41.3125 65.9219 37.5938 65.9219
Q27.8281 65.9219 22.6719 59.3281
Q17.5312 52.7344 16.7969 39.4062
Q19.6719 43.6562 24.0156 45.9219
Q28.375 48.1875 33.5938 48.1875
Q44.5781 48.1875 50.9531 41.5156
Q57.3281 34.8594 57.3281 23.3906
Q57.3281 12.1562 50.6875 5.35938
Q44.0469 -1.42188 33.0156 -1.42188
Q20.3594 -1.42188 13.6719 8.26562
Q6.98438 17.9688 6.98438 36.375
Q6.98438 53.6562 15.1875 63.9375
Q23.3906 74.2188 37.2031 74.2188
Q40.9219 74.2188 44.7031 73.4844
Q48.4844 72.75 52.5938 71.2969" id="BitstreamVeraSans-Roman-36"/>
       <path d="
M4.89062 31.3906
L31.2031 31.3906
L31.2031 23.3906
L4.89062 23.3906
z
" id="BitstreamVeraSans-Roman-2d"/>
      </defs>
      <g transform="translate(50.7659348142 371.996875)scale(0.2 -0.2)">
       <use xlink:href="#BitstreamVeraSans-Roman-2d"/>
       <use x="36.083984375" xlink:href="#BitstreamVeraSans-Roman-36"/>
      </g>
     </g>
    </g>
    <g id="xtick_3">
     <g id="line2d_13">
      <path clip-path="url(#p99b4b0da67)" d="
M112.148 352.8
L112.148 7.2" style="fill:none;stroke:#000000;stroke-dasharray:1.000000,3.000000;stroke-dashoffset:0.0;stroke-width:0.5;"/>
     </g>
     <g id="line2d_14">
      <g>
       <use style="stroke:#000000;stroke-width:0.5;" x="112.148497672" xlink:href="#m93b0483c22" y="352.8"/>
      </g>
     </g>
     <g id="line2d_15">
      <g>
       <use style="stroke:#000000;stroke-width:0.5;" x="112.148497672" xlink:href="#m741efc42ff" y="7.2"/>
      </g>
     </g>
     <g id="text_2">
      <!-- -4 -->
      <defs>
       <path d="
M37.7969 64.3125
L12.8906 25.3906
L37.7969 25.3906
z

M35.2031 72.9062
L47.6094 72.9062
L47.6094 25.3906
L58.0156 25.3906
L58.0156 17.1875
L47.6094 17.1875
L47.6094 0
L37.7969 0
L37.7969 17.1875
L4.89062 17.1875
L4.89062 26.7031
z
" id="BitstreamVeraSans-Roman-34"/>
      </defs>
      <g transform="translate(103.228185172 371.996875)scale(0.2 -0.2)">
       <use xlink:href="#BitstreamVeraSans-Roman-2d"/>
       <use x="36.083984375" xlink:href="#BitstreamVeraSans-Roman-34"/>
      </g>
     </g>
    </g>
    <g id="xtick_4">
     <g id="line2d_16">
      <path clip-path="url(#p99b4b0da67)" d="
M164.679 352.8
L164.679 7.2" style="fill:none;stroke:#000000;stroke-dasharray:1.000000,3.000000;stroke-dashoffset:0.0;stroke-width:0.5;"/>
     </g>
     <g id="line2d_17">
      <g>
       <use style="stroke:#000000;stroke-width:0.5;" x="164.67949803" xlink:href="#m93b0483c22" y="352.8"/>
      </g>
     </g>
     <g id="line2d_18">
      <g>
       <use style="stroke:#000000;stroke-width:0.5;" x="164.67949803" xlink:href="#m741efc42ff" y="7.2"/>
      </g>
     </g>
     <g id="text_3">
      <!-- -2 -->
      <defs>
       <path d="
M19.1875 8.29688
L53.6094 8.29688
L53.6094 0
L7.32812 0
L7.32812 8.29688
Q12.9375 14.1094 22.625 23.8906
Q32.3281 33.6875 34.8125 36.5312
Q39.5469 41.8438 41.4219 45.5312
Q43.3125 49.2188 43.3125 52.7812
Q43.3125 58.5938 39.2344 62.25
Q35.1562 65.9219 28.6094 65.9219
Q23.9688 65.9219 18.8125 64.3125
Q13.6719 62.7031 7.8125 59.4219
L7.8125 69.3906
Q13.7656 71.7812 18.9375 73
Q24.125 74.2188 28.4219 74.2188
Q39.75 74.2188 46.4844 68.5469
Q53.2188 62.8906 53.2188 53.4219
Q53.2188 48.9219 51.5312 44.8906
Q49.8594 40.875 45.4062 35.4062
Q44.1875 33.9844 37.6406 27.2188
Q31.1094 20.4531 19.1875 8.29688" id="BitstreamVeraSans-Roman-32"/>
      </defs>
      <g transform="translate(156.19981053 371.996875)scale(0.2 -0.2)">
       <use xlink:href="#BitstreamVeraSans-Roman-2d"/>
       <use x="36.083984375" xlink:href="#BitstreamVeraSans-Roman-32"/>
      </g>
     </g>
    </g>
    <g id="xtick_5">
     <g id="line2d_19">
      <path clip-path="url(#p99b4b0da67)" d="
M217.21 352.8
L217.21 7.2" style="fill:none;stroke:#000000;stroke-dasharray:1.000000,3.000000;stroke-dashoffset:0.0;stroke-width:0.5;"/>
     </g>
     <g id="line2d_20">
      <g>
       <use style="stroke:#000000;stroke-width:0.5;" x="217.210498389" xlink:href="#m93b0483c22" y="352.8"/>
      </g>
     </g>
     <g id="line2d_21">
      <g>
       <use style="stroke:#000000;stroke-width:0.5;" x="217.210498389" xlink:href="#m741efc42ff" y="7.2"/>
      </g>
     </g>
     <g id="text_4">
      <!-- 0 -->
      <defs>
       <path d="
M31.7812 66.4062
Q24.1719 66.4062 20.3281 58.9062
Q16.5 51.4219 16.5 36.375
Q16.5 21.3906 20.3281 13.8906
Q24.1719 6.39062 31.7812 6.39062
Q39.4531 6.39062 43.2812 13.8906
Q47.125 21.3906 47.125 36.375
Q47.125 51.4219 43.2812 58.9062
Q39.4531 66.4062 31.7812 66.4062
M31.7812 74.2188
Q44.0469 74.2188 50.5156 64.5156
Q56.9844 54.8281 56.9844 36.375
Q56.9844 17.9688 50.5156 8.26562
Q44.0469 -1.42188 31.7812 -1.42188
Q19.5312 -1.42188 13.0625 8.26562
Q6.59375 17.9688 6.59375 36.375
Q6.59375 54.8281 13.0625 64.5156
Q19.5312 74.2188 31.7812 74.2188" id="BitstreamVeraSans-Roman-30"/>
      </defs>
      <g transform="translate(212.171435889 371.996875)scale(0.2 -0.2)">
       <use xlink:href="#BitstreamVeraSans-Roman-30"/>
      </g>
     </g>
    </g>
    <g id="xtick_6">
     <g id="line2d_22">
      <path clip-path="url(#p99b4b0da67)" d="
M269.741 352.8
L269.741 7.2" style="fill:none;stroke:#000000;stroke-dasharray:1.000000,3.000000;stroke-dashoffset:0.0;stroke-width:0.5;"/>
     </g>
     <g id="line2d_23">
      <g>
       <use style="stroke:#000000;stroke-width:0.5;" x="269.741498747" xlink:href="#m93b0483c22" y="352.8"/>
      </g>
     </g>
     <g id="line2d_24">
      <g>
       <use style="stroke:#000000;stroke-width:0.5;" x="269.741498747" xlink:href="#m741efc42ff" y="7.2"/>
      </g>
     </g>
     <g id="text_5">
      <!-- 2 -->
      <g transform="translate(265.113373747 371.996875)scale(0.2 -0.2)">
       <use xlink:href="#BitstreamVeraSans-Roman-32"/>
      </g>
     </g>
    </g>
    <g id="xtick_7">
     <g id="line2d_25">
      <path clip-path="url(#p99b4b0da67)" d="
M322.272 352.8
L322.272 7.2" style="fill:none;stroke:#000000;stroke-dasharray:1.000000,3.000000;stroke-dashoffset:0.0;stroke-width:0.5;"/>
     </g>
     <g id="line2d_26">
      <g>
       <use style="stroke:#000000;stroke-width:0.5;" x="322.272499105" xlink:href="#m93b0483c22" y="352.8"/>
      </g>
     </g>
     <g id="line2d_27">
      <g>
       <use style="stroke:#000000;stroke-width:0.5;" x="322.272499105" xlink:href="#m741efc42ff" y="7.2"/>
      </g>
     </g>
     <g id="text_6">
      <!-- 4 -->
      <g transform="translate(316.959999105 371.996875)scale(0.2 -0.2)">
       <use xlink:href="#BitstreamVeraSans-Roman-34"/>
      </g>
     </g>
    </g>
    <g id="xtick_8">
     <g id="line2d_28">
      <path clip-path="url(#p99b4b0da67)" d="
M374.803 352.8
L374.803 7.2" style="fill:none;stroke:#000000;stroke-dasharray:1.000000,3.000000;stroke-dashoffset:0.0;stroke-width:0.5;"/>
     </g>
     <g id="line2d_29">
      <g>
       <use style="stroke:#000000;stroke-width:0.5;" x="374.803499463" xlink:href="#m93b0483c22" y="352.8"/>
      </g>
     </g>
     <g id="line2d_30">
      <g>
       <use style="stroke:#000000;stroke-width:0.5;" x="374.803499463" xlink:href="#m741efc42ff" y="7.2"/>
      </g>
     </g>
     <g id="text_7">
      <!-- 6 -->
      <g transform="translate(369.769124463 371.996875)scale(0.2 -0.2)">
       <use xlink:href="#BitstreamVeraSans-Roman-36"/>
      </g>
     </g>
    </g>
    <g id="xtick_9">
     <g id="line2d_31">
      <path clip-path="url(#p99b4b0da67)" d="
M427.334 352.8
L427.334 7.2" style="fill:none;stroke:#000000;stroke-dasharray:1.000000,3.000000;stroke-dashoffset:0.0;stroke-width:0.5;"/>
     </g>
     <g id="line2d_32">
      <g>
       <use style="stroke:#000000;stroke-width:0.5;" x="427.334499821" xlink:href="#m93b0483c22" y="352.8"/>
      </g>
     </g>
     <g id="line2d_33">
      <g>
       <use style="stroke:#000000;stroke-width:0.5;" x="427.334499821" xlink:href="#m741efc42ff" y="7.2"/>
      </g>
     </g>
     <g id="text_8">
      <!-- 8 -->
      <defs>
       <path d="
M31.7812 34.625
Q24.75 34.625 20.7188 30.8594
Q16.7031 27.0938 16.7031 20.5156
Q16.7031 13.9219 20.7188 10.1562
Q24.75 6.39062 31.7812 6.39062
Q38.8125 6.39062 42.8594 10.1719
Q46.9219 13.9688 46.9219 20.5156
Q46.9219 27.0938 42.8906 30.8594
Q38.875 34.625 31.7812 34.625
M21.9219 38.8125
Q15.5781 40.375 12.0312 44.7188
Q8.5 49.0781 8.5 55.3281
Q8.5 64.0625 14.7188 69.1406
Q20.9531 74.2188 31.7812 74.2188
Q42.6719 74.2188 48.875 69.1406
Q55.0781 64.0625 55.0781 55.3281
Q55.0781 49.0781 51.5312 44.7188
Q48 40.375 41.7031 38.8125
Q48.8281 37.1562 52.7969 32.3125
Q56.7812 27.4844 56.7812 20.5156
Q56.7812 9.90625 50.3125 4.23438
Q43.8438 -1.42188 31.7812 -1.42188
Q19.7344 -1.42188 13.25 4.23438
Q6.78125 9.90625 6.78125 20.5156
Q6.78125 27.4844 10.7812 32.3125
Q14.7969 37.1562 21.9219 38.8125
M18.3125 54.3906
Q18.3125 48.7344 21.8438 45.5625
Q25.3906 42.3906 31.7812 42.3906
Q38.1406 42.3906 41.7188 45.5625
Q45.3125 48.7344 45.3125 54.3906
Q45.3125 60.0625 41.7188 63.2344
Q38.1406 66.4062 31.7812 66.4062
Q25.3906 66.4062 21.8438 63.2344
Q18.3125 60.0625 18.3125 54.3906" id="BitstreamVeraSans-Roman-38"/>
      </defs>
      <g transform="translate(422.334499821 371.996875)scale(0.2 -0.2)">
       <use xlink:href="#BitstreamVeraSans-Roman-38"/>
      </g>
     </g>
    </g>
    <g id="xtick_10"/>
    <g id="xtick_11">
     <g id="line2d_34">
      <defs>
       <path d="
M0 0
L0 -2" id="m177f7580d0" style="stroke:#000000;stroke-width:0.5;"/>
      </defs>
      <g>
       <use style="stroke:#000000;stroke-width:0.5;" x="59.6174973142" xlink:href="#m177f7580d0" y="352.8"/>
      </g>
     </g>
     <g id="line2d_35">
      <defs>
       <path d="
M0 0
L0 2" id="m5284c7e2a0" style="stroke:#000000;stroke-width:0.5;"/>
      </defs>
      <g>
       <use style="stroke:#000000;stroke-width:0.5;" x="59.6174973142" xlink:href="#m5284c7e2a0" y="7.2"/>
      </g>
     </g>
    </g>
    <g id="xtick_12">
     <g id="line2d_36">
      <g>
       <use style="stroke:#000000;stroke-width:0.5;" x="112.148497672" xlink:href="#m177f7580d0" y="352.8"/>
      </g>
     </g>
     <g id="line2d_37">
      <g>
       <use style="stroke:#000000;stroke-width:0.5;" x="112.148497672" xlink:href="#m5284c7e2a0" y="7.2"/>
      </g>
     </g>
    </g>
    <g id="xtick_13">
     <g id="line2d_38">
      <g>
       <use style="stroke:#000000;stroke-width:0.5;" x="164.67949803" xlink:href="#m177f7580d0" y="352.8"/>
      </g>
     </g>
     <g id="line2d_39">
      <g>
       <use style="stroke:#000000;stroke-width:0.5;" x="164.67949803" xlink:href="#m5284c7e2a0" y="7.2"/>
      </g>
     </g>
    </g>
    <g id="xtick_14">
     <g id="line2d_40">
      <g>
       <use style="stroke:#000000;stroke-width:0.5;" x="217.210498389" xlink:href="#m177f7580d0" y="352.8"/>
      </g>
     </g>
     <g id="line2d_41">
      <g>
       <use style="stroke:#000000;stroke-width:0.5;" x="217.210498389" xlink:href="#m5284c7e2a0" y="7.2"/>
      </g>
     </g>
    </g>
    <g id="xtick_15">
     <g id="line2d_42">
      <g>
       <use style="stroke:#000000;stroke-width:0.5;" x="269.741498747" xlink:href="#m177f7580d0" y="352.8"/>
      </g>
     </g>
     <g id="line2d_43">
      <g>
       <use style="stroke:#000000;stroke-width:0.5;" x="269.741498747" xlink:href="#m5284c7e2a0" y="7.2"/>
      </g>
     </g>
    </g>
    <g id="xtick_16">
     <g id="line2d_44">
      <g>
       <use style="stroke:#000000;stroke-width:0.5;" x="322.272499105" xlink:href="#m177f7580d0" y="352.8"/>
      </g>
     </g>
     <g id="line2d_45">
      <g>
       <use style="stroke:#000000;stroke-width:0.5;" x="322.272499105" xlink:href="#m5284c7e2a0" y="7.2"/>
      </g>
     </g>
    </g>
    <g id="xtick_17">
     <g id="line2d_46">
      <g>
       <use style="stroke:#000000;stroke-width:0.5;" x="374.803499463" xlink:href="#m177f7580d0" y="352.8"/>
      </g>
     </g>
     <g id="line2d_47">
      <g>
       <use style="stroke:#000000;stroke-width:0.5;" x="374.803499463" xlink:href="#m5284c7e2a0" y="7.2"/>
      </g>
     </g>
    </g>
    <g id="xtick_18">
     <g id="line2d_48">
      <g>
       <use style="stroke:#000000;stroke-width:0.5;" x="427.334499821" xlink:href="#m177f7580d0" y="352.8"/>
      </g>
     </g>
     <g id="line2d_49">
      <g>
       <use style="stroke:#000000;stroke-width:0.5;" x="427.334499821" xlink:href="#m5284c7e2a0" y="7.2"/>
      </g>
     </g>
    </g>
    <g id="text_9">
     <!-- log10 of Df -->
     <defs>
      <path id="BitstreamVeraSans-Roman-20"/>
      <path d="
M12.4062 8.29688
L28.5156 8.29688
L28.5156 63.9219
L10.9844 60.4062
L10.9844 69.3906
L28.4219 72.9062
L38.2812 72.9062
L38.2812 8.29688
L54.3906 8.29688
L54.3906 0
L12.4062 0
z
" id="BitstreamVeraSans-Roman-31"/>
      <path d="
M30.6094 48.3906
Q23.3906 48.3906 19.1875 42.75
Q14.9844 37.1094 14.9844 27.2969
Q14.9844 17.4844 19.1562 11.8438
Q23.3438 6.20312 30.6094 6.20312
Q37.7969 6.20312 41.9844 11.8594
Q46.1875 17.5312 46.1875 27.2969
Q46.1875 37.0156 41.9844 42.7031
Q37.7969 48.3906 30.6094 48.3906
M30.6094 56
Q42.3281 56 49.0156 48.375
Q55.7188 40.7656 55.7188 27.2969
Q55.7188 13.875 49.0156 6.21875
Q42.3281 -1.42188 30.6094 -1.42188
Q18.8438 -1.42188 12.1719 6.21875
Q5.51562 13.875 5.51562 27.2969
Q5.51562 40.7656 12.1719 48.375
Q18.8438 56 30.6094 56" id="BitstreamVeraSans-Roman-6f"/>
      <path d="
M9.42188 75.9844
L18.4062 75.9844
L18.4062 0
L9.42188 0
z
" id="BitstreamVeraSans-Roman-6c"/>
      <path d="
M19.6719 64.7969
L19.6719 8.10938
L31.5938 8.10938
Q46.6875 8.10938 53.6875 14.9375
Q60.6875 21.7812 60.6875 36.5312
Q60.6875 51.1719 53.6875 57.9844
Q46.6875 64.7969 31.5938 64.7969
z

M9.8125 72.9062
L30.0781 72.9062
Q51.2656 72.9062 61.1719 64.0938
Q71.0938 55.2812 71.0938 36.5312
Q71.0938 17.6719 61.125 8.82812
Q51.1719 0 30.0781 0
L9.8125 0
z
" id="BitstreamVeraSans-Roman-44"/>
      <path d="
M45.4062 27.9844
Q45.4062 37.75 41.375 43.1094
Q37.3594 48.4844 30.0781 48.4844
Q22.8594 48.4844 18.8281 43.1094
Q14.7969 37.75 14.7969 27.9844
Q14.7969 18.2656 18.8281 12.8906
Q22.8594 7.51562 30.0781 7.51562
Q37.3594 7.51562 41.375 12.8906
Q45.4062 18.2656 45.4062 27.9844
M54.3906 6.78125
Q54.3906 -7.17188 48.1875 -13.9844
Q42 -20.7969 29.2031 -20.7969
Q24.4688 -20.7969 20.2656 -20.0938
Q16.0625 -19.3906 12.1094 -17.9219
L12.1094 -9.1875
Q16.0625 -11.3281 19.9219 -12.3438
Q23.7812 -13.375 27.7812 -13.375
Q36.625 -13.375 41.0156 -8.76562
Q45.4062 -4.15625 45.4062 5.17188
L45.4062 9.625
Q42.625 4.78125 38.2812 2.39062
Q33.9375 0 27.875 0
Q17.8281 0 11.6719 7.65625
Q5.51562 15.3281 5.51562 27.9844
Q5.51562 40.6719 11.6719 48.3281
Q17.8281 56 27.875 56
Q33.9375 56 38.2812 53.6094
Q42.625 51.2188 45.4062 46.3906
L45.4062 54.6875
L54.3906 54.6875
z
" id="BitstreamVeraSans-Roman-67"/>
      <path d="
M37.1094 75.9844
L37.1094 68.5
L28.5156 68.5
Q23.6875 68.5 21.7969 66.5469
Q19.9219 64.5938 19.9219 59.5156
L19.9219 54.6875
L34.7188 54.6875
L34.7188 47.7031
L19.9219 47.7031
L19.9219 0
L10.8906 0
L10.8906 47.7031
L2.29688 47.7031
L2.29688 54.6875
L10.8906 54.6875
L10.8906 58.5
Q10.8906 67.625 15.1406 71.7969
Q19.3906 75.9844 28.6094 75.9844
z
" id="BitstreamVeraSans-Roman-66"/>
     </defs>
     <g transform="translate(175.0234375 396.353125)scale(0.2 -0.2)">
      <use xlink:href="#BitstreamVeraSans-Roman-6c"/>
      <use x="27.783203125" xlink:href="#BitstreamVeraSans-Roman-6f"/>
      <use x="88.96484375" xlink:href="#BitstreamVeraSans-Roman-67"/>
      <use x="152.44140625" xlink:href="#BitstreamVeraSans-Roman-31"/>
      <use x="216.064453125" xlink:href="#BitstreamVeraSans-Roman-30"/>
      <use x="279.6875" xlink:href="#BitstreamVeraSans-Roman-20"/>
      <use x="311.474609375" xlink:href="#BitstreamVeraSans-Roman-6f"/>
      <use x="372.65625" xlink:href="#BitstreamVeraSans-Roman-66"/>
      <use x="407.861328125" xlink:href="#BitstreamVeraSans-Roman-20"/>
      <use x="439.6484375" xlink:href="#BitstreamVeraSans-Roman-44"/>
      <use x="516.650390625" xlink:href="#BitstreamVeraSans-Roman-66"/>
     </g>
    </g>
   </g>
   <g id="matplotlib.axis_2">
    <g id="ytick_1">
     <g id="line2d_50">
      <path clip-path="url(#p99b4b0da67)" d="
M7.2 352.8
L453.6 352.8" style="fill:none;stroke:#000000;stroke-dasharray:1.000000,3.000000;stroke-dashoffset:0.0;stroke-width:0.5;"/>
     </g>
     <g id="line2d_51">
      <defs>
       <path d="
M0 0
L4 0" id="m728421d6d4" style="stroke:#000000;stroke-width:0.5;"/>
      </defs>
      <g>
       <use style="stroke:#000000;stroke-width:0.5;" x="7.2" xlink:href="#m728421d6d4" y="352.8"/>
      </g>
     </g>
     <g id="line2d_52">
      <defs>
       <path d="
M0 0
L-4 0" id="mcb0005524f" style="stroke:#000000;stroke-width:0.5;"/>
      </defs>
      <g>
       <use style="stroke:#000000;stroke-width:0.5;" x="453.6" xlink:href="#mcb0005524f" y="352.8"/>
      </g>
     </g>
    </g>
    <g id="ytick_2">
     <g id="line2d_53">
      <path clip-path="url(#p99b4b0da67)" d="
M7.2 284.364
L453.6 284.364" style="fill:none;stroke:#000000;stroke-dasharray:1.000000,3.000000;stroke-dashoffset:0.0;stroke-width:0.5;"/>
     </g>
     <g id="line2d_54">
      <g>
       <use style="stroke:#000000;stroke-width:0.5;" x="7.2" xlink:href="#m728421d6d4" y="284.364356436"/>
      </g>
     </g>
     <g id="line2d_55">
      <g>
       <use style="stroke:#000000;stroke-width:0.5;" x="453.6" xlink:href="#mcb0005524f" y="284.364356436"/>
      </g>
     </g>
    </g>
    <g id="ytick_3">
     <g id="line2d_56">
      <path clip-path="url(#p99b4b0da67)" d="
M7.2 215.929
L453.6 215.929" style="fill:none;stroke:#000000;stroke-dasharray:1.000000,3.000000;stroke-dashoffset:0.0;stroke-width:0.5;"/>
     </g>
     <g id="line2d_57">
      <g>
       <use style="stroke:#000000;stroke-width:0.5;" x="7.2" xlink:href="#m728421d6d4" y="215.928712871"/>
      </g>
     </g>
     <g id="line2d_58">
      <g>
       <use style="stroke:#000000;stroke-width:0.5;" x="453.6" xlink:href="#mcb0005524f" y="215.928712871"/>
      </g>
     </g>
    </g>
    <g id="ytick_4">
     <g id="line2d_59">
      <path clip-path="url(#p99b4b0da67)" d="
M7.2 147.493
L453.6 147.493" style="fill:none;stroke:#000000;stroke-dasharray:1.000000,3.000000;stroke-dashoffset:0.0;stroke-width:0.5;"/>
     </g>
     <g id="line2d_60">
      <g>
       <use style="stroke:#000000;stroke-width:0.5;" x="7.2" xlink:href="#m728421d6d4" y="147.493069307"/>
      </g>
     </g>
     <g id="line2d_61">
      <g>
       <use style="stroke:#000000;stroke-width:0.5;" x="453.6" xlink:href="#mcb0005524f" y="147.493069307"/>
      </g>
     </g>
    </g>
    <g id="ytick_5">
     <g id="line2d_62">
      <path clip-path="url(#p99b4b0da67)" d="
M7.2 79.0574
L453.6 79.0574" style="fill:none;stroke:#000000;stroke-dasharray:1.000000,3.000000;stroke-dashoffset:0.0;stroke-width:0.5;"/>
     </g>
     <g id="line2d_63">
      <g>
       <use style="stroke:#000000;stroke-width:0.5;" x="7.2" xlink:href="#m728421d6d4" y="79.0574257426"/>
      </g>
     </g>
     <g id="line2d_64">
      <g>
       <use style="stroke:#000000;stroke-width:0.5;" x="453.6" xlink:href="#mcb0005524f" y="79.0574257426"/>
      </g>
     </g>
    </g>
    <g id="ytick_6">
     <g id="line2d_65">
      <path clip-path="url(#p99b4b0da67)" d="
M7.2 10.6218
L453.6 10.6218" style="fill:none;stroke:#000000;stroke-dasharray:1.000000,3.000000;stroke-dashoffset:0.0;stroke-width:0.5;"/>
     </g>
     <g id="line2d_66">
      <g>
       <use style="stroke:#000000;stroke-width:0.5;" x="7.2" xlink:href="#m728421d6d4" y="10.6217821782"/>
      </g>
     </g>
     <g id="line2d_67">
      <g>
       <use style="stroke:#000000;stroke-width:0.5;" x="453.6" xlink:href="#mcb0005524f" y="10.6217821782"/>
      </g>
     </g>
    </g>
   </g>
   <g id="patch_3">
    <path d="
M7.2 7.2
L453.6 7.2" style="fill:none;stroke:#000000;"/>
   </g>
   <g id="patch_4">
    <path d="
M453.6 352.8
L453.6 7.2" style="fill:none;stroke:#000000;"/>
   </g>
   <g id="patch_5">
    <path d="
M7.2 352.8
L453.6 352.8" style="fill:none;stroke:#000000;"/>
   </g>
   <g id="patch_6">
    <path d="
M7.2 352.8
L7.2 7.2" style="fill:none;stroke:#000000;"/>
   </g>
   <g id="text_10">
    <!-- {f20-f24}, 5-D -->
    <defs>
     <path d="
M12.5 -9.28125
L15.9219 -9.28125
Q22.75 -9.28125 24.8281 -7.17188
Q26.9062 -5.07812 26.9062 1.90625
L26.9062 14.0156
Q26.9062 21.625 29.0938 25.0938
Q31.2969 28.5625 36.7188 29.8906
Q31.2969 31.1094 29.0938 34.5625
Q26.9062 38.0312 26.9062 45.7031
L26.9062 57.8125
Q26.9062 64.75 24.8281 66.875
Q22.75 69 15.9219 69
L12.5 69
L12.5 75.9844
L15.5781 75.9844
Q27.7344 75.9844 31.8125 72.3906
Q35.8906 68.7969 35.8906 58.0156
L35.8906 46.2969
Q35.8906 39.0156 38.5156 36.2031
Q41.1562 33.4062 48.0938 33.4062
L51.125 33.4062
L51.125 26.4219
L48.0938 26.4219
Q41.1562 26.4219 38.5156 23.5781
Q35.8906 20.75 35.8906 13.375
L35.8906 1.70312
Q35.8906 -9.07812 31.8125 -12.6875
Q27.7344 -16.3125 15.5781 -16.3125
L12.5 -16.3125
z
" id="BitstreamVeraSans-Roman-7d"/>
     <path d="
M51.125 -9.28125
L51.125 -16.3125
L48.0938 -16.3125
Q35.9375 -16.3125 31.8125 -12.6875
Q27.6875 -9.07812 27.6875 1.70312
L27.6875 13.375
Q27.6875 20.75 25.0469 23.5781
Q22.4062 26.4219 15.4844 26.4219
L12.5 26.4219
L12.5 33.4062
L15.4844 33.4062
Q22.4688 33.4062 25.0781 36.2031
Q27.6875 39.0156 27.6875 46.2969
L27.6875 58.0156
Q27.6875 68.7969 31.8125 72.3906
Q35.9375 75.9844 48.0938 75.9844
L51.125 75.9844
L51.125 69
L47.7969 69
Q40.9219 69 38.8125 66.8438
Q36.7188 64.7031 36.7188 57.8125
L36.7188 45.7031
Q36.7188 38.0312 34.5 34.5625
Q32.2812 31.1094 26.9062 29.8906
Q32.3281 28.5625 34.5156 25.0938
Q36.7188 21.625 36.7188 14.0156
L36.7188 1.90625
Q36.7188 -4.98438 38.8125 -7.125
Q40.9219 -9.28125 47.7969 -9.28125
z
" id="BitstreamVeraSans-Roman-7b"/>
     <path d="
M11.7188 12.4062
L22.0156 12.4062
L22.0156 4
L14.0156 -11.625
L7.71875 -11.625
L11.7188 4
z
" id="BitstreamVeraSans-Roman-2c"/>
     <path d="
M10.7969 72.9062
L49.5156 72.9062
L49.5156 64.5938
L19.8281 64.5938
L19.8281 46.7344
Q21.9688 47.4688 24.1094 47.8281
Q26.2656 48.1875 28.4219 48.1875
Q40.625 48.1875 47.75 41.5
Q54.8906 34.8125 54.8906 23.3906
Q54.8906 11.625 47.5625 5.09375
Q40.2344 -1.42188 26.9062 -1.42188
Q22.3125 -1.42188 17.5469 -0.640625
Q12.7969 0.140625 7.71875 1.70312
L7.71875 11.625
Q12.1094 9.23438 16.7969 8.0625
Q21.4844 6.89062 26.7031 6.89062
Q35.1562 6.89062 40.0781 11.3281
Q45.0156 15.7656 45.0156 23.3906
Q45.0156 31 40.0781 35.4375
Q35.1562 39.8906 26.7031 39.8906
Q22.75 39.8906 18.8125 39.0156
Q14.8906 38.1406 10.7969 36.2812
z
" id="BitstreamVeraSans-Roman-35"/>
    </defs>
    <g transform="translate(300.15325 345.888)scale(0.2 -0.2)">
     <use xlink:href="#BitstreamVeraSans-Roman-7b"/>
     <use x="63.623046875" xlink:href="#BitstreamVeraSans-Roman-66"/>
     <use x="98.828125" xlink:href="#BitstreamVeraSans-Roman-32"/>
     <use x="162.451171875" xlink:href="#BitstreamVeraSans-Roman-30"/>
     <use x="226.07421875" xlink:href="#BitstreamVeraSans-Roman-2d"/>
     <use x="262.158203125" xlink:href="#BitstreamVeraSans-Roman-66"/>
     <use x="297.36328125" xlink:href="#BitstreamVeraSans-Roman-32"/>
     <use x="360.986328125" xlink:href="#BitstreamVeraSans-Roman-34"/>
     <use x="424.609375" xlink:href="#BitstreamVeraSans-Roman-7d"/>
     <use x="488.232421875" xlink:href="#BitstreamVeraSans-Roman-2c"/>
     <use x="520.01953125" xlink:href="#BitstreamVeraSans-Roman-20"/>
     <use x="551.806640625" xlink:href="#BitstreamVeraSans-Roman-35"/>
     <use x="615.4296875" xlink:href="#BitstreamVeraSans-Roman-2d"/>
     <use x="651.513671875" xlink:href="#BitstreamVeraSans-Roman-44"/>
    </g>
   </g>
   <g id="text_11">
    <!-- 0.0.0 -->
    <defs>
     <path d="
M10.6875 12.4062
L21 12.4062
L21 0
L10.6875 0
z
" id="BitstreamVeraSans-Roman-2e"/>
    </defs>
    <g style="fill:#808080;" transform="translate(218.33984375 347.2643125)scale(0.1 -0.1)">
     <use xlink:href="#BitstreamVeraSans-Roman-30"/>
     <use x="63.623046875" xlink:href="#BitstreamVeraSans-Roman-2e"/>
     <use x="95.41015625" xlink:href="#BitstreamVeraSans-Roman-30"/>
     <use x="159.033203125" xlink:href="#BitstreamVeraSans-Roman-2e"/>
     <use x="190.8203125" xlink:href="#BitstreamVeraSans-Roman-30"/>
    </g>
   </g>
  </g>
 </g>
 <defs>
  <clipPath id="p99b4b0da67">
   <rect height="345.6" width="446.4" x="7.2" y="7.2"/>
  </clipPath>
 </defs>
</svg>
