<?xml version="1.0" encoding="utf-8" standalone="no"?>
<!DOCTYPE svg PUBLIC "-//W3C//DTD SVG 1.1//EN"
  "http://www.w3.org/Graphics/SVG/1.1/DTD/svg11.dtd">
<!-- Created with matplotlib (http://matplotlib.org/) -->
<svg height="407pt" version="1.1" viewBox="0 0 460 407" width="460pt" xmlns="http://www.w3.org/2000/svg" xmlns:xlink="http://www.w3.org/1999/xlink">
 <defs>
  <style type="text/css">
*{stroke-linecap:butt;stroke-linejoin:round;}
  </style>
 </defs>
 <g id="figure_1">
  <g id="patch_1">
   <path d="
M0 407.712
L460.8 407.712
L460.8 0
L0 0
z
" style="fill:#ffffff;"/>
  </g>
  <g id="axes_1">
   <g id="patch_2">
    <path d="
M7.2 352.8
L453.6 352.8
L453.6 7.2
L7.2 7.2
z
" style="fill:#ffffff;"/>
   </g>
   <g id="line2d_1">
    <path clip-path="url(#p99b4b0da67)" d="
M-1 343.675
L47.9001 343.675
L47.9001 339.113
L64.7931 339.113
L64.7931 334.55
L69.6451 334.55
L69.6451 329.988
L70.551 329.988
L70.551 325.426
L76.4916 325.426
L76.4916 320.863
L77.5339 320.863
L77.5339 316.301
L79.377 316.301
L79.3774 307.176
L80.0699 307.176
L80.1063 293.489
L80.6347 293.489
L80.6347 288.927
L81.4248 288.927
L81.4248 284.364
L81.7145 284.364
L81.7145 279.802
L81.8597 279.802
L81.8597 275.24
L83.2594 275.24
L83.2594 270.677
L122.518 270.677
L122.518 266.115
L136.041 266.115
L136.041 261.552
L157.153 261.552
L157.153 256.99
L157.476 256.99
L157.476 252.428
L162.297 252.428
L162.297 247.865
L173.512 247.865
L173.512 243.303
L177.123 243.303
L177.123 238.741
L177.554 238.741
L177.554 234.178
L179.351 234.178
L179.351 229.616
L182.238 229.616
L182.238 225.053
L188.755 225.053
L188.755 220.491
L192.077 220.491
L192.169 211.366
L193.157 211.366
L193.157 206.804
L194.268 206.804
L194.268 202.242
L194.391 202.242
L194.391 197.679
L196.492 197.679
L196.492 193.117
L201.775 193.117
L201.842 183.992
L202.654 183.992
L202.654 179.43
L204.054 179.43
L204.054 174.867
L206.964 174.867
L206.964 170.305
L209.596 170.305
L209.596 165.743
L210.064 165.743
L210.064 161.18
L212.413 161.18
L212.413 156.618
L215.052 156.618
L215.052 152.055
L223.366 152.055
L223.366 147.493
L226.72 147.493
L226.72 142.931
L229.923 142.931
L229.923 138.368
L236.248 138.368
L236.273 129.244
L244.269 129.244
L244.269 124.681
L244.8 124.681
L244.8 120.119
L245.162 120.119
L245.162 115.556
L247.039 115.556
L247.039 110.994
L247.523 110.994
L247.523 106.432
L251.654 106.432
L251.654 101.869
L252.518 101.869
L252.518 97.3069
L255.226 97.3069
L255.226 92.7446
L256.28 92.7446
L256.35 83.6198
L260.321 83.6198
L260.369 74.495
L260.768 74.495
L260.768 69.9327
L265.563 69.9327
L265.563 65.3703
L266.382 65.3703
L266.382 60.8079
L266.58 60.8079
L266.676 51.6832
L267.572 51.6832
L267.572 47.1208
L267.876 47.1208
L267.876 42.5584
L268.072 42.5584
L268.072 37.996
L268.26 37.996
L268.26 33.4337
L274.262 33.4337
L274.262 28.8713
L274.473 28.8713
L274.473 24.3089
L279.169 24.3089
L279.169 19.7465
L280.703 19.7465
L280.703 15.1842
L285.912 15.1842
L285.912 10.6218
L285.912 10.6218
L453.6 10.6218
L453.6 10.6218" style="fill:none;stroke:#ff0000;stroke-linecap:square;stroke-width:3.0;"/>
   </g>
   <g id="line2d_2">
    <path clip-path="url(#p99b4b0da67)" d="
M248.223 352.8
L248.223 348.238
L250.33 348.238
L250.33 343.675
L253.561 343.675
L253.561 339.113
L255.33 339.113
L255.425 329.988
L257.263 329.988
L257.263 325.426
L258.339 325.426
L258.339 320.863
L258.605 320.863
L258.605 316.301
L259.198 316.301
L259.198 311.739
L259.609 311.739
L259.609 307.176
L260.313 307.176
L260.313 302.614
L260.573 302.614
L260.573 298.051
L264.581 298.051
L264.581 293.489
L268.979 293.489
L268.979 288.927
L269.41 288.927
L269.41 284.364
L275.111 284.364
L275.111 279.802
L299.932 279.802
L299.932 275.24
L300.33 275.24
L300.33 270.677
L301.803 270.677
L301.803 266.115
L302.659 266.115
L302.659 261.552
L302.895 261.552
L302.895 256.99
L303.366 256.99
L303.443 247.865
L303.485 247.865
L303.497 238.741
L303.964 238.741
L303.964 234.178
L304.113 234.178
L304.113 229.616
L304.295 229.616
L304.295 225.053
L304.94 225.053
L304.979 215.929
L305.452 215.929
L305.452 211.366
L309.947 211.366
L309.947 206.804
L326.116 206.804
L326.116 202.242
L327.881 202.242
L327.881 197.679
L340.429 197.679
L340.429 193.117
L341.365 193.117
L341.365 188.554
L342.062 188.554
L342.062 183.992
L342.537 183.992
L342.537 179.43
L355.821 179.43
L355.821 174.867
L360.327 174.867
L360.327 170.305
L364.037 170.305
L364.037 165.743
L369.808 165.743
L369.808 161.18
L379.62 161.18
L379.62 156.618
L380.031 156.618
L380.031 152.055
L384.354 152.055
L384.354 147.493
L385.776 147.493
L385.82 138.368
L388.506 138.368
L388.506 133.806
L388.649 133.806
L388.649 129.244
L389.303 129.244
L389.303 124.681
L389.633 124.681
L389.633 120.119
L391.748 120.119
L391.748 115.556
L392.131 115.556
L392.131 110.994
L394.318 110.994
L394.318 106.432
L396.063 106.432
L396.137 97.3069
L400.432 97.3069
L400.432 92.7446
L402.099 92.7446
L402.099 88.1822
L402.24 88.1822
L402.24 83.6198
L403.051 83.6198
L403.051 79.0574
L424.476 79.0574
L424.476 74.495
L425.658 74.495
L425.658 69.9327
L426.213 69.9327
L426.213 65.3703
L426.499 65.3703
L426.499 60.8079
L426.825 60.8079
L426.825 56.2455
L429.297 56.2455
L429.297 51.6832
L429.607 51.6832
L429.607 47.1208
L429.743 47.1208
L429.743 42.5584
L431.016 42.5584
L431.016 37.996
L432.655 37.996
L432.655 33.4337
L433.678 33.4337
L433.678 28.8713
L438.739 28.8713
L438.739 24.3089
L439.318 24.3089
L439.318 19.7465
L446.053 19.7465
L446.053 15.1842
L447.959 15.1842
L447.959 10.6218
L447.959 10.6218
L453.6 10.6218
L453.6 10.6218" style="fill:none;stroke:#00bfbf;stroke-linecap:square;"/>
   </g>
   <g id="line2d_3">
    <path clip-path="url(#p99b4b0da67)" d="
M244.724 352.8
L244.724 348.238
L248.223 348.238
L248.223 343.675
L253.561 343.675
L253.561 339.113
L253.752 339.113
L253.752 334.55
L254.871 334.55
L254.871 329.988
L255.203 329.988
L255.203 325.426
L255.33 325.426
L255.33 320.863
L255.777 320.863
L255.777 316.301
L256.145 316.301
L256.145 311.739
L257.263 311.739
L257.274 302.614
L258.339 302.614
L258.339 298.051
L259.011 298.051
L259.011 293.489
L264.428 293.489
L264.428 288.927
L268.422 288.927
L268.422 284.364
L275.111 284.364
L275.111 279.802
L281.631 279.802
L281.631 275.24
L292.777 275.24
L292.777 270.677
L293.144 270.677
L293.144 266.115
L299.072 266.115
L299.072 261.552
L299.497 261.552
L299.497 256.99
L299.932 256.99
L299.932 252.428
L300.348 252.428
L300.348 247.865
L301.367 247.865
L301.367 243.303
L301.502 243.303
L301.54 234.178
L301.859 234.178
L301.859 229.616
L302.148 229.616
L302.148 225.053
L302.586 225.053
L302.659 215.929
L303.345 215.929
L303.345 211.366
L303.485 211.366
L303.485 206.804
L303.607 206.804
L303.607 202.242
L304.295 202.242
L304.295 197.679
L304.503 197.679
L304.503 193.117
L306.166 193.117
L306.166 188.554
L308.394 188.554
L308.394 183.992
L310.965 183.992
L310.965 179.43
L311.105 179.43
L311.105 174.867
L313.41 174.867
L313.41 170.305
L313.72 170.305
L313.72 165.743
L325.049 165.743
L325.049 161.18
L327.881 161.18
L327.881 156.618
L349.074 156.618
L349.074 152.055
L355.902 152.055
L355.902 147.493
L375.26 147.493
L375.26 142.931
L375.476 142.931
L375.476 138.368
L375.612 138.368
L375.612 133.806
L379.737 133.806
L379.737 129.244
L381.366 129.244
L381.366 124.681
L382.803 124.681
L382.803 120.119
L384.415 120.119
L384.415 115.556
L384.83 115.556
L384.83 110.994
L385.376 110.994
L385.376 106.432
L386.793 106.432
L386.793 101.869
L389.672 101.869
L389.672 97.3069
L390.552 97.3069
L390.552 92.7446
L391.065 92.7446
L391.065 88.1822
L392.501 88.1822
L392.501 83.6198
L392.634 83.6198
L392.634 79.0574
L422.709 79.0574
L422.709 74.495
L423.482 74.495
L423.482 69.9327
L424.263 69.9327
L424.263 65.3703
L425.879 65.3703
L425.879 60.8079
L426.124 60.8079
L426.124 56.2455
L426.825 56.2455
L426.825 51.6832
L427.684 51.6832
L427.684 47.1208
L428.642 47.1208
L428.642 42.5584
L431.016 42.5584
L431.016 37.996
L431.19 37.996
L431.19 33.4337
L432.438 33.4337
L432.438 28.8713
L436.476 28.8713
L436.476 24.3089
L439.318 24.3089
L439.318 19.7465
L441.882 19.7465
L441.882 15.1842
L445.24 15.1842
L445.24 10.6218
L445.24 10.6218
L453.6 10.6218
L453.6 10.6218" style="fill:none;stroke:#bf00bf;stroke-linecap:square;"/>
   </g>
   <g id="line2d_4">
    <path clip-path="url(#p99b4b0da67)" d="
M244.724 352.8
L244.724 348.238
L245.159 348.238
L245.159 343.675
L246.825 343.675
L246.825 339.113
L247.378 339.113
L247.378 334.55
L248.528 334.55
L248.528 329.988
L249.472 329.988
L249.472 325.426
L249.725 325.426
L249.823 316.301
L251.316 316.301
L251.316 311.739
L253.133 311.739
L253.133 307.176
L253.561 307.176
L253.561 302.614
L254.369 302.614
L254.369 298.051
L254.685 298.051
L254.685 293.489
L257.274 293.489
L257.274 288.927
L260.678 288.927
L260.678 284.364
L275.111 284.364
L275.191 275.24
L276.746 275.24
L276.746 270.677
L280.703 270.677
L280.703 266.115
L281.631 266.115
L281.631 261.552
L281.827 261.552
L281.827 256.99
L283.638 256.99
L283.638 252.428
L288.527 252.428
L288.527 247.865
L289.958 247.865
L289.958 243.303
L292.777 243.303
L292.777 238.741
L293.144 238.741
L293.144 234.178
L295.276 234.178
L295.276 229.616
L296.041 229.616
L296.041 225.053
L296.355 225.053
L296.355 220.491
L297.623 220.491
L297.623 215.929
L298.681 215.929
L298.681 211.366
L299.107 211.366
L299.107 206.804
L299.295 206.804
L299.295 202.242
L299.595 202.242
L299.676 193.117
L299.71 193.117
L299.71 188.554
L300.31 188.554
L300.31 183.992
L301.131 183.992
L301.131 179.43
L301.924 179.43
L301.924 174.867
L302.148 174.867
L302.148 170.305
L302.291 170.305
L302.291 165.743
L305.443 165.743
L305.443 161.18
L310.965 161.18
L310.965 156.618
L311.615 156.618
L311.615 152.055
L320.529 152.055
L320.529 147.493
L366.758 147.493
L366.758 142.931
L366.932 142.931
L366.932 138.368
L370.032 138.368
L370.032 133.806
L371.774 133.806
L371.774 129.244
L371.899 129.244
L371.899 124.681
L372.559 124.681
L372.559 120.119
L372.96 120.119
L373.057 110.994
L373.685 110.994
L373.685 106.432
L376.042 106.432
L376.042 101.869
L376.462 101.869
L376.462 97.3069
L377.751 97.3069
L377.751 92.7446
L378.722 92.7446
L378.722 88.1822
L380.754 88.1822
L380.754 83.6198
L382.226 83.6198
L382.226 79.0574
L418.088 79.0574
L418.088 74.495
L420.764 74.495
L420.803 65.3703
L421.863 65.3703
L421.863 60.8079
L422.505 60.8079
L422.505 56.2455
L423.572 56.2455
L423.67 37.996
L423.709 37.996
L423.709 33.4337
L426.757 33.4337
L426.757 28.8713
L427.039 28.8713
L427.039 24.3089
L427.788 24.3089
L427.788 19.7465
L434.282 19.7465
L434.282 15.1842
L436.852 15.1842
L436.852 10.6218
L436.852 10.6218
L453.6 10.6218
L453.6 10.6218" style="fill:none;stroke:#000000;stroke-linecap:square;"/>
   </g>
   <g id="line2d_5">
    <path clip-path="url(#p99b4b0da67)" d="
M234.198 352.8
L234.198 348.238
L235.872 348.238
L235.872 343.675
L237.616 343.675
L237.657 334.55
L238 334.55
L238 329.988
L238.133 329.988
L238.133 325.426
L240.236 325.426
L240.236 320.863
L242.512 320.863
L242.512 316.301
L243.032 316.301
L243.032 311.739
L243.382 311.739
L243.382 307.176
L244.289 307.176
L244.289 302.614
L244.714 302.614
L244.714 298.051
L245.686 298.051
L245.686 293.489
L246.155 293.489
L246.155 288.927
L250.233 288.927
L250.233 284.364
L275.111 284.364
L275.191 275.24
L276.746 275.24
L276.746 270.677
L279.459 270.677
L279.459 266.115
L279.768 266.115
L279.768 261.552
L280.703 261.552
L280.703 256.99
L281.427 256.99
L281.427 252.428
L281.631 252.428
L281.631 247.865
L281.827 247.865
L281.827 243.303
L283.638 243.303
L283.638 238.741
L284.091 238.741
L284.091 234.178
L285.948 234.178
L285.948 229.616
L287.718 229.616
L287.718 225.053
L289.981 225.053
L289.981 220.491
L290.402 220.491
L290.402 215.929
L291.813 215.929
L291.813 211.366
L292.723 211.366
L292.777 197.679
L292.858 197.679
L292.858 193.117
L293.616 193.117
L293.674 179.43
L294.658 179.43
L294.658 174.867
L295.575 174.867
L295.575 170.305
L295.789 170.305
L295.789 165.743
L296.291 165.743
L296.291 161.18
L297.082 161.18
L297.082 156.618
L297.212 156.618
L297.236 147.493
L357.561 147.493
L357.561 142.931
L357.886 142.931
L357.886 138.368
L358.952 138.368
L358.952 133.806
L360.429 133.806
L360.429 129.244
L360.549 129.244
L360.549 124.681
L361.12 124.681
L361.12 120.119
L361.675 120.119
L361.675 115.556
L363.585 115.556
L363.651 101.869
L365.574 101.869
L365.574 97.3069
L369.011 97.3069
L369.011 92.7446
L370.532 92.7446
L370.532 88.1822
L371.964 88.1822
L371.964 83.6198
L372.275 83.6198
L372.275 79.0574
L404.425 79.0574
L404.425 74.495
L405.058 74.495
L405.058 69.9327
L406.04 69.9327
L406.04 65.3703
L406.599 65.3703
L406.599 60.8079
L407.573 60.8079
L407.573 56.2455
L407.813 56.2455
L407.813 51.6832
L408.294 51.6832
L408.339 37.996
L409.047 37.996
L409.047 33.4337
L409.736 33.4337
L409.736 28.8713
L413.942 28.8713
L413.942 24.3089
L414.918 24.3089
L414.918 19.7465
L416.729 19.7465
L416.729 15.1842
L417.273 15.1842
L417.273 10.6218
L417.273 10.6218
L453.6 10.6218
L453.6 10.6218" style="fill:none;stroke:#00bfbf;stroke-linecap:square;"/>
   </g>
   <g id="line2d_6">
    <path clip-path="url(#p99b4b0da67)" d="
M147.71 352.8
L147.71 348.238
L151.682 348.238
L151.682 343.675
L154.86 343.675
L154.86 339.113
L155.108 339.113
L155.211 329.988
L155.296 329.988
L155.296 325.426
L155.938 325.426
L155.938 320.863
L157.768 320.863
L157.87 311.739
L159.788 311.739
L159.788 307.176
L161.256 307.176
L161.256 302.614
L161.521 302.614
L161.521 298.051
L161.652 298.051
L161.652 293.489
L163.549 293.489
L163.549 288.927
L164.024 288.927
L164.024 284.364
L218.522 284.364
L218.522 279.802
L222.616 279.802
L222.616 275.24
L226.101 275.24
L226.101 270.677
L227.844 270.677
L227.844 266.115
L228.336 266.115
L228.336 261.552
L232.346 261.552
L232.346 256.99
L233.571 256.99
L233.571 252.428
L235.261 252.428
L235.261 247.865
L236.425 247.865
L236.425 243.303
L236.762 243.303
L236.762 238.741
L236.998 238.741
L236.998 234.178
L237.391 234.178
L237.391 229.616
L238.519 229.616
L238.519 225.053
L238.806 225.053
L238.806 220.491
L241.149 220.491
L241.149 215.929
L242.036 215.929
L242.036 211.366
L243.115 211.366
L243.115 206.804
L243.597 206.804
L243.597 202.242
L244.354 202.242
L244.354 197.679
L246.164 197.679
L246.164 193.117
L247.896 193.117
L247.896 188.554
L248.534 188.554
L248.534 183.992
L249.023 183.992
L249.06 174.867
L253.005 174.867
L253.005 170.305
L253.268 170.305
L253.268 165.743
L258.391 165.743
L258.391 161.18
L261.388 161.18
L261.472 152.055
L265.737 152.055
L265.737 147.493
L275.111 147.493
L275.191 138.368
L276.746 138.368
L276.746 133.806
L279.333 133.806
L279.333 129.244
L279.459 129.244
L279.459 124.681
L279.768 124.681
L279.768 120.119
L280.703 120.119
L280.703 115.556
L281.427 115.556
L281.427 110.994
L281.631 110.994
L281.631 106.432
L281.827 106.432
L281.827 101.869
L283.616 101.869
L283.638 92.7446
L287.718 92.7446
L287.718 88.1822
L289.318 88.1822
L289.318 83.6198
L292.777 83.6198
L292.777 79.0574
L315.002 79.0574
L315.002 74.495
L317.117 74.495
L317.117 69.9327
L320.175 69.9327
L320.175 65.3703
L323.533 65.3703
L323.533 60.8079
L326.115 60.8079
L326.115 56.2455
L328.472 56.2455
L328.472 51.6832
L328.724 51.6832
L328.724 47.1208
L329.141 47.1208
L329.141 42.5584
L330.913 42.5584
L330.913 37.996
L331.517 37.996
L331.517 33.4337
L335.499 33.4337
L335.499 28.8713
L339 28.8713
L339 24.3089
L340.382 24.3089
L340.382 19.7465
L341.523 19.7465
L341.523 15.1842
L342.05 15.1842
L342.05 10.6218
L342.05 10.6218
L453.6 10.6218
L453.6 10.6218" style="fill:none;stroke:#bf00bf;stroke-linecap:square;"/>
   </g>
   <g id="line2d_7">
    <path clip-path="url(#p99b4b0da67)" d="
M-1 348.238
L96.7134 348.238
L96.7134 343.675
L106.848 343.675
L106.848 339.113
L108.702 339.113
L108.702 334.55
L113.392 334.55
L113.392 329.988
L114.298 329.988
L114.298 325.426
L114.484 325.426
L114.484 320.863
L114.997 320.863
L114.997 316.301
L115.496 316.301
L115.496 311.739
L115.647 311.739
L115.647 307.176
L116.01 307.176
L116.01 302.614
L116.165 302.614
L116.165 298.051
L117.226 298.051
L117.226 293.489
L117.462 293.489
L117.462 288.927
L117.603 288.927
L117.603 284.364
L117.856 284.364
L117.856 279.802
L157.965 279.802
L157.965 275.24
L177.123 275.24
L177.123 270.677
L193.765 270.677
L193.765 266.115
L197.64 266.115
L197.64 261.552
L197.871 261.552
L197.871 256.99
L202.265 256.99
L202.265 252.428
L208.731 252.428
L208.731 247.865
L212.844 247.865
L212.844 243.303
L215.314 243.303
L215.314 238.741
L218.166 238.741
L218.166 234.178
L224.012 234.178
L224.012 229.616
L225.002 229.616
L225.002 225.053
L227.341 225.053
L227.341 220.491
L227.913 220.491
L227.913 215.929
L230.398 215.929
L230.398 211.366
L230.517 211.366
L230.517 206.804
L231.392 206.804
L231.392 202.242
L231.997 202.242
L231.997 197.679
L235.75 197.679
L235.75 193.117
L236.269 193.117
L236.269 188.554
L236.857 188.554
L236.857 183.992
L237.042 183.992
L237.042 179.43
L239.741 179.43
L239.741 174.867
L243.649 174.867
L243.649 170.305
L246.702 170.305
L246.702 165.743
L251.095 165.743
L251.095 161.18
L251.409 161.18
L251.409 156.618
L260.756 156.618
L260.756 152.055
L265.413 152.055
L265.413 147.493
L275.111 147.493
L275.191 138.368
L276.746 138.368
L276.746 133.806
L279.333 133.806
L279.333 129.244
L279.459 129.244
L279.459 124.681
L279.768 124.681
L279.768 120.119
L280.385 120.119
L280.385 115.556
L280.703 115.556
L280.703 110.994
L281.427 110.994
L281.427 106.432
L281.631 106.432
L281.631 101.869
L281.827 101.869
L281.827 97.3069
L283.638 97.3069
L283.699 88.1822
L283.927 88.1822
L283.927 83.6198
L286.27 83.6198
L286.27 79.0574
L287.174 79.0574
L287.174 74.495
L287.718 74.495
L287.718 69.9327
L289.043 69.9327
L289.043 65.3703
L292.777 65.3703
L292.777 60.8079
L295.245 60.8079
L295.245 56.2455
L298.214 56.2455
L298.227 47.1208
L299.934 47.1208
L299.934 42.5584
L302.295 42.5584
L302.295 37.996
L304.78 37.996
L304.855 28.8713
L305.823 28.8713
L305.823 24.3089
L309.926 24.3089
L309.926 19.7465
L310.258 19.7465
L310.258 15.1842
L311.728 15.1842
L311.728 10.6218
L311.728 10.6218
L453.6 10.6218
L453.6 10.6218" style="fill:none;stroke:#000000;stroke-linecap:square;"/>
   </g>
   <g id="line2d_8">
    <path clip-path="url(#p99b4b0da67)" d="
M-1 348.238
L53.4503 348.238
L53.4503 343.675
L71.5495 343.675
L71.5495 339.113
L89.6358 339.113
L89.6358 334.55
L90.7471 334.55
L90.7471 329.988
L90.8858 329.988
L90.8858 325.426
L91.351 325.426
L91.351 320.863
L91.7413 320.863
L91.7413 316.301
L92.5217 316.301
L92.5217 311.739
L92.858 311.739
L92.8722 302.614
L94.7489 302.614
L94.7489 298.051
L95.5353 298.051
L95.5353 293.489
L95.8098 293.489
L95.8098 288.927
L97.3978 288.927
L97.4618 279.802
L157.854 279.802
L157.854 275.24
L158.586 275.24
L158.586 270.677
L162.297 270.677
L162.297 266.115
L177.123 266.115
L177.123 261.552
L185.664 261.552
L185.664 256.99
L193.626 256.99
L193.626 252.428
L197.64 252.428
L197.64 247.865
L197.77 247.865
L197.77 243.303
L202.173 243.303
L202.173 238.741
L208.731 238.741
L208.731 234.178
L212.748 234.178
L212.748 229.616
L213.935 229.616
L213.935 225.053
L215.314 225.053
L215.314 220.491
L218.042 220.491
L218.042 215.929
L223.892 215.929
L223.892 211.366
L225.002 211.366
L225.002 206.804
L227.224 206.804
L227.224 202.242
L227.913 202.242
L227.913 197.679
L230.406 197.679
L230.406 193.117
L231.273 193.117
L231.273 188.554
L231.997 188.554
L231.997 183.992
L235.75 183.992
L235.75 179.43
L236.749 179.43
L236.749 174.867
L236.888 174.867
L236.888 170.305
L239.682 170.305
L239.682 165.743
L243.541 165.743
L243.541 161.18
L246.603 161.18
L246.603 156.618
L248.82 156.618
L248.82 152.055
L254.919 152.055
L254.919 147.493
L257.031 147.493
L257.031 142.931
L261.228 142.931
L261.228 138.368
L264.22 138.368
L264.22 133.806
L264.853 133.806
L264.853 129.244
L267.359 129.244
L267.359 124.681
L268.753 124.681
L268.753 120.119
L268.908 120.119
L268.908 115.556
L269.491 115.556
L269.491 110.994
L269.931 110.994
L269.931 106.432
L271.233 106.432
L271.233 101.869
L272.192 101.869
L272.192 97.3069
L272.434 97.3069
L272.434 92.7446
L273.401 92.7446
L273.401 88.1822
L274.869 88.1822
L274.869 83.6198
L275.111 83.6198
L275.191 69.9327
L276.443 69.9327
L276.443 65.3703
L276.65 65.3703
L276.713 56.2455
L277.099 56.2455
L277.192 47.1208
L279.333 47.1208
L279.333 42.5584
L279.459 42.5584
L279.459 37.996
L280.703 37.996
L280.703 33.4337
L281.091 33.4337
L281.091 28.8713
L281.827 28.8713
L281.827 24.3089
L283.638 24.3089
L283.638 19.7465
L292.777 19.7465
L292.777 15.1842
L293.815 15.1842
L293.815 10.6218
L293.815 10.6218
L453.6 10.6218
L453.6 10.6218" style="fill:none;stroke:#00bfbf;stroke-linecap:square;"/>
   </g>
   <g id="line2d_9">
    <path clip-path="url(#p99b4b0da67)" d="
M-1 343.675
L47.9001 343.675
L47.9001 339.113
L64.7935 339.113
L64.7935 334.55
L69.6451 334.55
L69.6451 329.988
L70.551 329.988
L70.551 325.426
L76.4916 325.426
L76.4916 320.863
L77.5339 320.863
L77.5339 316.301
L79.377 316.301
L79.3774 307.176
L80.0699 307.176
L80.1063 293.489
L80.6347 293.489
L80.6347 288.927
L81.4248 288.927
L81.4248 284.364
L81.7145 284.364
L81.7145 279.802
L81.8597 279.802
L81.8597 275.24
L83.2594 275.24
L83.2594 270.677
L122.518 270.677
L122.518 266.115
L136.041 266.115
L136.041 261.552
L157.153 261.552
L157.153 256.99
L157.476 256.99
L157.476 252.428
L162.297 252.428
L162.297 247.865
L173.512 247.865
L173.512 243.303
L177.123 243.303
L177.123 238.741
L177.554 238.741
L177.554 234.178
L179.351 234.178
L179.351 229.616
L182.238 229.616
L182.238 225.053
L188.755 225.053
L188.755 220.491
L192.077 220.491
L192.169 211.366
L193.157 211.366
L193.157 206.804
L194.268 206.804
L194.268 202.242
L194.391 202.242
L194.391 197.679
L196.492 197.679
L196.492 193.117
L201.775 193.117
L201.842 183.992
L202.654 183.992
L202.654 179.43
L204.054 179.43
L204.054 174.867
L206.964 174.867
L206.964 170.305
L209.596 170.305
L209.596 165.743
L210.064 165.743
L210.064 161.18
L212.413 161.18
L212.413 156.618
L215.052 156.618
L215.052 152.055
L223.366 152.055
L223.366 147.493
L226.72 147.493
L226.72 142.931
L229.923 142.931
L229.923 138.368
L236.248 138.368
L236.273 129.244
L244.269 129.244
L244.269 124.681
L244.8 124.681
L244.8 120.119
L245.162 120.119
L245.162 115.556
L247.039 115.556
L247.039 110.994
L247.523 110.994
L247.523 106.432
L251.654 106.432
L251.654 101.869
L252.518 101.869
L252.518 97.3069
L255.226 97.3069
L255.226 92.7446
L256.28 92.7446
L256.35 83.6198
L260.321 83.6198
L260.369 74.495
L260.768 74.495
L260.768 69.9327
L265.563 69.9327
L265.563 65.3703
L266.382 65.3703
L266.382 60.8079
L266.58 60.8079
L266.676 51.6832
L267.572 51.6832
L267.572 47.1208
L267.876 47.1208
L267.876 42.5584
L268.072 42.5584
L268.072 37.996
L268.26 37.996
L268.26 33.4337
L274.262 33.4337
L274.262 28.8713
L274.473 28.8713
L274.473 24.3089
L279.169 24.3089
L279.169 19.7465
L280.703 19.7465
L280.703 15.1842
L285.912 15.1842
L285.912 10.6218
L285.912 10.6218
L453.6 10.6218
L453.6 10.6218" style="fill:none;stroke:#bf00bf;stroke-linecap:square;"/>
   </g>
   <g id="matplotlib.axis_1">
    <g id="xtick_1"/>
    <g id="xtick_2">
     <g id="line2d_10">
      <path clip-path="url(#p99b4b0da67)" d="
M59.6175 352.8
L59.6175 7.2" style="fill:none;stroke:#000000;stroke-dasharray:1.000000,3.000000;stroke-dashoffset:0.0;stroke-width:0.5;"/>
     </g>
     <g id="line2d_11">
      <defs>
       <path d="
M0 0
L0 -4" id="m93b0483c22" style="stroke:#000000;stroke-width:0.5;"/>
      </defs>
      <g>
       <use style="stroke:#000000;stroke-width:0.5;" x="59.6174973142" xlink:href="#m93b0483c22" y="352.8"/>
      </g>
     </g>
     <g id="line2d_12">
      <defs>
       <path d="
M0 0
L0 4" id="m741efc42ff" style="stroke:#000000;stroke-width:0.5;"/>
      </defs>
      <g>
       <use style="stroke:#000000;stroke-width:0.5;" x="59.6174973142" xlink:href="#m741efc42ff" y="7.2"/>
      </g>
     </g>
     <g id="text_1">
      <!-- -6 -->
      <defs>
       <path d="
M33.0156 40.375
Q26.375 40.375 22.4844 35.8281
Q18.6094 31.2969 18.6094 23.3906
Q18.6094 15.5312 22.4844 10.9531
Q26.375 6.39062 33.0156 6.39062
Q39.6562 6.39062 43.5312 10.9531
Q47.4062 15.5312 47.4062 23.3906
Q47.4062 31.2969 43.5312 35.8281
Q39.6562 40.375 33.0156 40.375
M52.5938 71.2969
L52.5938 62.3125
Q48.875 64.0625 45.0938 64.9844
Q41.3125 65.9219 37.5938 65.9219
Q27.8281 65.9219 22.6719 59.3281
Q17.5312 52.7344 16.7969 39.4062
Q19.6719 43.6562 24.0156 45.9219
Q28.375 48.1875 33.5938 48.1875
Q44.5781 48.1875 50.9531 41.5156
Q57.3281 34.8594 57.3281 23.3906
Q57.3281 12.1562 50.6875 5.35938
Q44.0469 -1.42188 33.0156 -1.42188
Q20.3594 -1.42188 13.6719 8.26562
Q6.98438 17.9688 6.98438 36.375
Q6.98438 53.6562 15.1875 63.9375
Q23.3906 74.2188 37.2031 74.2188
Q40.9219 74.2188 44.7031 73.4844
Q48.4844 72.75 52.5938 71.2969" id="BitstreamVeraSans-Roman-36"/>
       <path d="
M4.89062 31.3906
L31.2031 31.3906
L31.2031 23.3906
L4.89062 23.3906
z
" id="BitstreamVeraSans-Roman-2d"/>
      </defs>
      <g transform="translate(50.7659348142 371.996875)scale(0.2 -0.2)">
       <use xlink:href="#BitstreamVeraSans-Roman-2d"/>
       <use x="36.083984375" xlink:href="#BitstreamVeraSans-Roman-36"/>
      </g>
     </g>
    </g>
    <g id="xtick_3">
     <g id="line2d_13">
      <path clip-path="url(#p99b4b0da67)" d="
M112.148 352.8
L112.148 7.2" style="fill:none;stroke:#000000;stroke-dasharray:1.000000,3.000000;stroke-dashoffset:0.0;stroke-width:0.5;"/>
     </g>
     <g id="line2d_14">
      <g>
       <use style="stroke:#000000;stroke-width:0.5;" x="112.148497672" xlink:href="#m93b0483c22" y="352.8"/>
      </g>
     </g>
     <g id="line2d_15">
      <g>
       <use style="stroke:#000000;stroke-width:0.5;" x="112.148497672" xlink:href="#m741efc42ff" y="7.2"/>
      </g>
     </g>
     <g id="text_2">
      <!-- -4 -->
      <defs>
       <path d="
M37.7969 64.3125
L12.8906 25.3906
L37.7969 25.3906
z

M35.2031 72.9062
L47.6094 72.9062
L47.6094 25.3906
L58.0156 25.3906
L58.0156 17.1875
L47.6094 17.1875
L47.6094 0
L37.7969 0
L37.7969 17.1875
L4.89062 17.1875
L4.89062 26.7031
z
" id="BitstreamVeraSans-Roman-34"/>
      </defs>
      <g transform="translate(103.228185172 371.996875)scale(0.2 -0.2)">
       <use xlink:href="#BitstreamVeraSans-Roman-2d"/>
       <use x="36.083984375" xlink:href="#BitstreamVeraSans-Roman-34"/>
      </g>
     </g>
    </g>
    <g id="xtick_4">
     <g id="line2d_16">
      <path clip-path="url(#p99b4b0da67)" d="
M164.679 352.8
L164.679 7.2" style="fill:none;stroke:#000000;stroke-dasharray:1.000000,3.000000;stroke-dashoffset:0.0;stroke-width:0.5;"/>
     </g>
     <g id="line2d_17">
      <g>
       <use style="stroke:#000000;stroke-width:0.5;" x="164.67949803" xlink:href="#m93b0483c22" y="352.8"/>
      </g>
     </g>
     <g id="line2d_18">
      <g>
       <use style="stroke:#000000;stroke-width:0.5;" x="164.67949803" xlink:href="#m741efc42ff" y="7.2"/>
      </g>
     </g>
     <g id="text_3">
      <!-- -2 -->
      <defs>
       <path d="
M19.1875 8.29688
L53.6094 8.29688
L53.6094 0
L7.32812 0
L7.32812 8.29688
Q12.9375 14.1094 22.625 23.8906
Q32.3281 33.6875 34.8125 36.5312
Q39.5469 41.8438 41.4219 45.5312
Q43.3125 49.2188 43.3125 52.7812
Q43.3125 58.5938 39.2344 62.25
Q35.1562 65.9219 28.6094 65.9219
Q23.9688 65.9219 18.8125 64.3125
Q13.6719 62.7031 7.8125 59.4219
L7.8125 69.3906
Q13.7656 71.7812 18.9375 73
Q24.125 74.2188 28.4219 74.2188
Q39.75 74.2188 46.4844 68.5469
Q53.2188 62.8906 53.2188 53.4219
Q53.2188 48.9219 51.5312 44.8906
Q49.8594 40.875 45.4062 35.4062
Q44.1875 33.9844 37.6406 27.2188
Q31.1094 20.4531 19.1875 8.29688" id="BitstreamVeraSans-Roman-32"/>
      </defs>
      <g transform="translate(156.19981053 371.996875)scale(0.2 -0.2)">
       <use xlink:href="#BitstreamVeraSans-Roman-2d"/>
       <use x="36.083984375" xlink:href="#BitstreamVeraSans-Roman-32"/>
      </g>
     </g>
    </g>
    <g id="xtick_5">
     <g id="line2d_19">
      <path clip-path="url(#p99b4b0da67)" d="
M217.21 352.8
L217.21 7.2" style="fill:none;stroke:#000000;stroke-dasharray:1.000000,3.000000;stroke-dashoffset:0.0;stroke-width:0.5;"/>
     </g>
     <g id="line2d_20">
      <g>
       <use style="stroke:#000000;stroke-width:0.5;" x="217.210498389" xlink:href="#m93b0483c22" y="352.8"/>
      </g>
     </g>
     <g id="line2d_21">
      <g>
       <use style="stroke:#000000;stroke-width:0.5;" x="217.210498389" xlink:href="#m741efc42ff" y="7.2"/>
      </g>
     </g>
     <g id="text_4">
      <!-- 0 -->
      <defs>
       <path d="
M31.7812 66.4062
Q24.1719 66.4062 20.3281 58.9062
Q16.5 51.4219 16.5 36.375
Q16.5 21.3906 20.3281 13.8906
Q24.1719 6.39062 31.7812 6.39062
Q39.4531 6.39062 43.2812 13.8906
Q47.125 21.3906 47.125 36.375
Q47.125 51.4219 43.2812 58.9062
Q39.4531 66.4062 31.7812 66.4062
M31.7812 74.2188
Q44.0469 74.2188 50.5156 64.5156
Q56.9844 54.8281 56.9844 36.375
Q56.9844 17.9688 50.5156 8.26562
Q44.0469 -1.42188 31.7812 -1.42188
Q19.5312 -1.42188 13.0625 8.26562
Q6.59375 17.9688 6.59375 36.375
Q6.59375 54.8281 13.0625 64.5156
Q19.5312 74.2188 31.7812 74.2188" id="BitstreamVeraSans-Roman-30"/>
      </defs>
      <g transform="translate(212.171435889 371.996875)scale(0.2 -0.2)">
       <use xlink:href="#BitstreamVeraSans-Roman-30"/>
      </g>
     </g>
    </g>
    <g id="xtick_6">
     <g id="line2d_22">
      <path clip-path="url(#p99b4b0da67)" d="
M269.741 352.8
L269.741 7.2" style="fill:none;stroke:#000000;stroke-dasharray:1.000000,3.000000;stroke-dashoffset:0.0;stroke-width:0.5;"/>
     </g>
     <g id="line2d_23">
      <g>
       <use style="stroke:#000000;stroke-width:0.5;" x="269.741498747" xlink:href="#m93b0483c22" y="352.8"/>
      </g>
     </g>
     <g id="line2d_24">
      <g>
       <use style="stroke:#000000;stroke-width:0.5;" x="269.741498747" xlink:href="#m741efc42ff" y="7.2"/>
      </g>
     </g>
     <g id="text_5">
      <!-- 2 -->
      <g transform="translate(265.113373747 371.996875)scale(0.2 -0.2)">
       <use xlink:href="#BitstreamVeraSans-Roman-32"/>
      </g>
     </g>
    </g>
    <g id="xtick_7">
     <g id="line2d_25">
      <path clip-path="url(#p99b4b0da67)" d="
M322.272 352.8
L322.272 7.2" style="fill:none;stroke:#000000;stroke-dasharray:1.000000,3.000000;stroke-dashoffset:0.0;stroke-width:0.5;"/>
     </g>
     <g id="line2d_26">
      <g>
       <use style="stroke:#000000;stroke-width:0.5;" x="322.272499105" xlink:href="#m93b0483c22" y="352.8"/>
      </g>
     </g>
     <g id="line2d_27">
      <g>
       <use style="stroke:#000000;stroke-width:0.5;" x="322.272499105" xlink:href="#m741efc42ff" y="7.2"/>
      </g>
     </g>
     <g id="text_6">
      <!-- 4 -->
      <g transform="translate(316.959999105 371.996875)scale(0.2 -0.2)">
       <use xlink:href="#BitstreamVeraSans-Roman-34"/>
      </g>
     </g>
    </g>
    <g id="xtick_8">
     <g id="line2d_28">
      <path clip-path="url(#p99b4b0da67)" d="
M374.803 352.8
L374.803 7.2" style="fill:none;stroke:#000000;stroke-dasharray:1.000000,3.000000;stroke-dashoffset:0.0;stroke-width:0.5;"/>
     </g>
     <g id="line2d_29">
      <g>
       <use style="stroke:#000000;stroke-width:0.5;" x="374.803499463" xlink:href="#m93b0483c22" y="352.8"/>
      </g>
     </g>
     <g id="line2d_30">
      <g>
       <use style="stroke:#000000;stroke-width:0.5;" x="374.803499463" xlink:href="#m741efc42ff" y="7.2"/>
      </g>
     </g>
     <g id="text_7">
      <!-- 6 -->
      <g transform="translate(369.769124463 371.996875)scale(0.2 -0.2)">
       <use xlink:href="#BitstreamVeraSans-Roman-36"/>
      </g>
     </g>
    </g>
    <g id="xtick_9">
     <g id="line2d_31">
      <path clip-path="url(#p99b4b0da67)" d="
M427.334 352.8
L427.334 7.2" style="fill:none;stroke:#000000;stroke-dasharray:1.000000,3.000000;stroke-dashoffset:0.0;stroke-width:0.5;"/>
     </g>
     <g id="line2d_32">
      <g>
       <use style="stroke:#000000;stroke-width:0.5;" x="427.334499821" xlink:href="#m93b0483c22" y="352.8"/>
      </g>
     </g>
     <g id="line2d_33">
      <g>
       <use style="stroke:#000000;stroke-width:0.5;" x="427.334499821" xlink:href="#m741efc42ff" y="7.2"/>
      </g>
     </g>
     <g id="text_8">
      <!-- 8 -->
      <defs>
       <path d="
M31.7812 34.625
Q24.75 34.625 20.7188 30.8594
Q16.7031 27.0938 16.7031 20.5156
Q16.7031 13.9219 20.7188 10.1562
Q24.75 6.39062 31.7812 6.39062
Q38.8125 6.39062 42.8594 10.1719
Q46.9219 13.9688 46.9219 20.5156
Q46.9219 27.0938 42.8906 30.8594
Q38.875 34.625 31.7812 34.625
M21.9219 38.8125
Q15.5781 40.375 12.0312 44.7188
Q8.5 49.0781 8.5 55.3281
Q8.5 64.0625 14.7188 69.1406
Q20.9531 74.2188 31.7812 74.2188
Q42.6719 74.2188 48.875 69.1406
Q55.0781 64.0625 55.0781 55.3281
Q55.0781 49.0781 51.5312 44.7188
Q48 40.375 41.7031 38.8125
Q48.8281 37.1562 52.7969 32.3125
Q56.7812 27.4844 56.7812 20.5156
Q56.7812 9.90625 50.3125 4.23438
Q43.8438 -1.42188 31.7812 -1.42188
Q19.7344 -1.42188 13.25 4.23438
Q6.78125 9.90625 6.78125 20.5156
Q6.78125 27.4844 10.7812 32.3125
Q14.7969 37.1562 21.9219 38.8125
M18.3125 54.3906
Q18.3125 48.7344 21.8438 45.5625
Q25.3906 42.3906 31.7812 42.3906
Q38.1406 42.3906 41.7188 45.5625
Q45.3125 48.7344 45.3125 54.3906
Q45.3125 60.0625 41.7188 63.2344
Q38.1406 66.4062 31.7812 66.4062
Q25.3906 66.4062 21.8438 63.2344
Q18.3125 60.0625 18.3125 54.3906" id="BitstreamVeraSans-Roman-38"/>
      </defs>
      <g transform="translate(422.334499821 371.996875)scale(0.2 -0.2)">
       <use xlink:href="#BitstreamVeraSans-Roman-38"/>
      </g>
     </g>
    </g>
    <g id="xtick_10"/>
    <g id="xtick_11">
     <g id="line2d_34">
      <defs>
       <path d="
M0 0
L0 -2" id="m177f7580d0" style="stroke:#000000;stroke-width:0.5;"/>
      </defs>
      <g>
       <use style="stroke:#000000;stroke-width:0.5;" x="59.6174973142" xlink:href="#m177f7580d0" y="352.8"/>
      </g>
     </g>
     <g id="line2d_35">
      <defs>
       <path d="
M0 0
L0 2" id="m5284c7e2a0" style="stroke:#000000;stroke-width:0.5;"/>
      </defs>
      <g>
       <use style="stroke:#000000;stroke-width:0.5;" x="59.6174973142" xlink:href="#m5284c7e2a0" y="7.2"/>
      </g>
     </g>
    </g>
    <g id="xtick_12">
     <g id="line2d_36">
      <g>
       <use style="stroke:#000000;stroke-width:0.5;" x="112.148497672" xlink:href="#m177f7580d0" y="352.8"/>
      </g>
     </g>
     <g id="line2d_37">
      <g>
       <use style="stroke:#000000;stroke-width:0.5;" x="112.148497672" xlink:href="#m5284c7e2a0" y="7.2"/>
      </g>
     </g>
    </g>
    <g id="xtick_13">
     <g id="line2d_38">
      <g>
       <use style="stroke:#000000;stroke-width:0.5;" x="164.67949803" xlink:href="#m177f7580d0" y="352.8"/>
      </g>
     </g>
     <g id="line2d_39">
      <g>
       <use style="stroke:#000000;stroke-width:0.5;" x="164.67949803" xlink:href="#m5284c7e2a0" y="7.2"/>
      </g>
     </g>
    </g>
    <g id="xtick_14">
     <g id="line2d_40">
      <g>
       <use style="stroke:#000000;stroke-width:0.5;" x="217.210498389" xlink:href="#m177f7580d0" y="352.8"/>
      </g>
     </g>
     <g id="line2d_41">
      <g>
       <use style="stroke:#000000;stroke-width:0.5;" x="217.210498389" xlink:href="#m5284c7e2a0" y="7.2"/>
      </g>
     </g>
    </g>
    <g id="xtick_15">
     <g id="line2d_42">
      <g>
       <use style="stroke:#000000;stroke-width:0.5;" x="269.741498747" xlink:href="#m177f7580d0" y="352.8"/>
      </g>
     </g>
     <g id="line2d_43">
      <g>
       <use style="stroke:#000000;stroke-width:0.5;" x="269.741498747" xlink:href="#m5284c7e2a0" y="7.2"/>
      </g>
     </g>
    </g>
    <g id="xtick_16">
     <g id="line2d_44">
      <g>
       <use style="stroke:#000000;stroke-width:0.5;" x="322.272499105" xlink:href="#m177f7580d0" y="352.8"/>
      </g>
     </g>
     <g id="line2d_45">
      <g>
       <use style="stroke:#000000;stroke-width:0.5;" x="322.272499105" xlink:href="#m5284c7e2a0" y="7.2"/>
      </g>
     </g>
    </g>
    <g id="xtick_17">
     <g id="line2d_46">
      <g>
       <use style="stroke:#000000;stroke-width:0.5;" x="374.803499463" xlink:href="#m177f7580d0" y="352.8"/>
      </g>
     </g>
     <g id="line2d_47">
      <g>
       <use style="stroke:#000000;stroke-width:0.5;" x="374.803499463" xlink:href="#m5284c7e2a0" y="7.2"/>
      </g>
     </g>
    </g>
    <g id="xtick_18">
     <g id="line2d_48">
      <g>
       <use style="stroke:#000000;stroke-width:0.5;" x="427.334499821" xlink:href="#m177f7580d0" y="352.8"/>
      </g>
     </g>
     <g id="line2d_49">
      <g>
       <use style="stroke:#000000;stroke-width:0.5;" x="427.334499821" xlink:href="#m5284c7e2a0" y="7.2"/>
      </g>
     </g>
    </g>
    <g id="text_9">
     <!-- log10 of Df -->
     <defs>
      <path id="BitstreamVeraSans-Roman-20"/>
      <path d="
M12.4062 8.29688
L28.5156 8.29688
L28.5156 63.9219
L10.9844 60.4062
L10.9844 69.3906
L28.4219 72.9062
L38.2812 72.9062
L38.2812 8.29688
L54.3906 8.29688
L54.3906 0
L12.4062 0
z
" id="BitstreamVeraSans-Roman-31"/>
      <path d="
M30.6094 48.3906
Q23.3906 48.3906 19.1875 42.75
Q14.9844 37.1094 14.9844 27.2969
Q14.9844 17.4844 19.1562 11.8438
Q23.3438 6.20312 30.6094 6.20312
Q37.7969 6.20312 41.9844 11.8594
Q46.1875 17.5312 46.1875 27.2969
Q46.1875 37.0156 41.9844 42.7031
Q37.7969 48.3906 30.6094 48.3906
M30.6094 56
Q42.3281 56 49.0156 48.375
Q55.7188 40.7656 55.7188 27.2969
Q55.7188 13.875 49.0156 6.21875
Q42.3281 -1.42188 30.6094 -1.42188
Q18.8438 -1.42188 12.1719 6.21875
Q5.51562 13.875 5.51562 27.2969
Q5.51562 40.7656 12.1719 48.375
Q18.8438 56 30.6094 56" id="BitstreamVeraSans-Roman-6f"/>
      <path d="
M9.42188 75.9844
L18.4062 75.9844
L18.4062 0
L9.42188 0
z
" id="BitstreamVeraSans-Roman-6c"/>
      <path d="
M19.6719 64.7969
L19.6719 8.10938
L31.5938 8.10938
Q46.6875 8.10938 53.6875 14.9375
Q60.6875 21.7812 60.6875 36.5312
Q60.6875 51.1719 53.6875 57.9844
Q46.6875 64.7969 31.5938 64.7969
z

M9.8125 72.9062
L30.0781 72.9062
Q51.2656 72.9062 61.1719 64.0938
Q71.0938 55.2812 71.0938 36.5312
Q71.0938 17.6719 61.125 8.82812
Q51.1719 0 30.0781 0
L9.8125 0
z
" id="BitstreamVeraSans-Roman-44"/>
      <path d="
M45.4062 27.9844
Q45.4062 37.75 41.375 43.1094
Q37.3594 48.4844 30.0781 48.4844
Q22.8594 48.4844 18.8281 43.1094
Q14.7969 37.75 14.7969 27.9844
Q14.7969 18.2656 18.8281 12.8906
Q22.8594 7.51562 30.0781 7.51562
Q37.3594 7.51562 41.375 12.8906
Q45.4062 18.2656 45.4062 27.9844
M54.3906 6.78125
Q54.3906 -7.17188 48.1875 -13.9844
Q42 -20.7969 29.2031 -20.7969
Q24.4688 -20.7969 20.2656 -20.0938
Q16.0625 -19.3906 12.1094 -17.9219
L12.1094 -9.1875
Q16.0625 -11.3281 19.9219 -12.3438
Q23.7812 -13.375 27.7812 -13.375
Q36.625 -13.375 41.0156 -8.76562
Q45.4062 -4.15625 45.4062 5.17188
L45.4062 9.625
Q42.625 4.78125 38.2812 2.39062
Q33.9375 0 27.875 0
Q17.8281 0 11.6719 7.65625
Q5.51562 15.3281 5.51562 27.9844
Q5.51562 40.6719 11.6719 48.3281
Q17.8281 56 27.875 56
Q33.9375 56 38.2812 53.6094
Q42.625 51.2188 45.4062 46.3906
L45.4062 54.6875
L54.3906 54.6875
z
" id="BitstreamVeraSans-Roman-67"/>
      <path d="
M37.1094 75.9844
L37.1094 68.5
L28.5156 68.5
Q23.6875 68.5 21.7969 66.5469
Q19.9219 64.5938 19.9219 59.5156
L19.9219 54.6875
L34.7188 54.6875
L34.7188 47.7031
L19.9219 47.7031
L19.9219 0
L10.8906 0
L10.8906 47.7031
L2.29688 47.7031
L2.29688 54.6875
L10.8906 54.6875
L10.8906 58.5
Q10.8906 67.625 15.1406 71.7969
Q19.3906 75.9844 28.6094 75.9844
z
" id="BitstreamVeraSans-Roman-66"/>
     </defs>
     <g transform="translate(175.0234375 396.353125)scale(0.2 -0.2)">
      <use xlink:href="#BitstreamVeraSans-Roman-6c"/>
      <use x="27.783203125" xlink:href="#BitstreamVeraSans-Roman-6f"/>
      <use x="88.96484375" xlink:href="#BitstreamVeraSans-Roman-67"/>
      <use x="152.44140625" xlink:href="#BitstreamVeraSans-Roman-31"/>
      <use x="216.064453125" xlink:href="#BitstreamVeraSans-Roman-30"/>
      <use x="279.6875" xlink:href="#BitstreamVeraSans-Roman-20"/>
      <use x="311.474609375" xlink:href="#BitstreamVeraSans-Roman-6f"/>
      <use x="372.65625" xlink:href="#BitstreamVeraSans-Roman-66"/>
      <use x="407.861328125" xlink:href="#BitstreamVeraSans-Roman-20"/>
      <use x="439.6484375" xlink:href="#BitstreamVeraSans-Roman-44"/>
      <use x="516.650390625" xlink:href="#BitstreamVeraSans-Roman-66"/>
     </g>
    </g>
   </g>
   <g id="matplotlib.axis_2">
    <g id="ytick_1">
     <g id="line2d_50">
      <path clip-path="url(#p99b4b0da67)" d="
M7.2 352.8
L453.6 352.8" style="fill:none;stroke:#000000;stroke-dasharray:1.000000,3.000000;stroke-dashoffset:0.0;stroke-width:0.5;"/>
     </g>
     <g id="line2d_51">
      <defs>
       <path d="
M0 0
L4 0" id="m728421d6d4" style="stroke:#000000;stroke-width:0.5;"/>
      </defs>
      <g>
       <use style="stroke:#000000;stroke-width:0.5;" x="7.2" xlink:href="#m728421d6d4" y="352.8"/>
      </g>
     </g>
     <g id="line2d_52">
      <defs>
       <path d="
M0 0
L-4 0" id="mcb0005524f" style="stroke:#000000;stroke-width:0.5;"/>
      </defs>
      <g>
       <use style="stroke:#000000;stroke-width:0.5;" x="453.6" xlink:href="#mcb0005524f" y="352.8"/>
      </g>
     </g>
    </g>
    <g id="ytick_2">
     <g id="line2d_53">
      <path clip-path="url(#p99b4b0da67)" d="
M7.2 284.364
L453.6 284.364" style="fill:none;stroke:#000000;stroke-dasharray:1.000000,3.000000;stroke-dashoffset:0.0;stroke-width:0.5;"/>
     </g>
     <g id="line2d_54">
      <g>
       <use style="stroke:#000000;stroke-width:0.5;" x="7.2" xlink:href="#m728421d6d4" y="284.364356436"/>
      </g>
     </g>
     <g id="line2d_55">
      <g>
       <use style="stroke:#000000;stroke-width:0.5;" x="453.6" xlink:href="#mcb0005524f" y="284.364356436"/>
      </g>
     </g>
    </g>
    <g id="ytick_3">
     <g id="line2d_56">
      <path clip-path="url(#p99b4b0da67)" d="
M7.2 215.929
L453.6 215.929" style="fill:none;stroke:#000000;stroke-dasharray:1.000000,3.000000;stroke-dashoffset:0.0;stroke-width:0.5;"/>
     </g>
     <g id="line2d_57">
      <g>
       <use style="stroke:#000000;stroke-width:0.5;" x="7.2" xlink:href="#m728421d6d4" y="215.928712871"/>
      </g>
     </g>
     <g id="line2d_58">
      <g>
       <use style="stroke:#000000;stroke-width:0.5;" x="453.6" xlink:href="#mcb0005524f" y="215.928712871"/>
      </g>
     </g>
    </g>
    <g id="ytick_4">
     <g id="line2d_59">
      <path clip-path="url(#p99b4b0da67)" d="
M7.2 147.493
L453.6 147.493" style="fill:none;stroke:#000000;stroke-dasharray:1.000000,3.000000;stroke-dashoffset:0.0;stroke-width:0.5;"/>
     </g>
     <g id="line2d_60">
      <g>
       <use style="stroke:#000000;stroke-width:0.5;" x="7.2" xlink:href="#m728421d6d4" y="147.493069307"/>
      </g>
     </g>
     <g id="line2d_61">
      <g>
       <use style="stroke:#000000;stroke-width:0.5;" x="453.6" xlink:href="#mcb0005524f" y="147.493069307"/>
      </g>
     </g>
    </g>
    <g id="ytick_5">
     <g id="line2d_62">
      <path clip-path="url(#p99b4b0da67)" d="
M7.2 79.0574
L453.6 79.0574" style="fill:none;stroke:#000000;stroke-dasharray:1.000000,3.000000;stroke-dashoffset:0.0;stroke-width:0.5;"/>
     </g>
     <g id="line2d_63">
      <g>
       <use style="stroke:#000000;stroke-width:0.5;" x="7.2" xlink:href="#m728421d6d4" y="79.0574257426"/>
      </g>
     </g>
     <g id="line2d_64">
      <g>
       <use style="stroke:#000000;stroke-width:0.5;" x="453.6" xlink:href="#mcb0005524f" y="79.0574257426"/>
      </g>
     </g>
    </g>
    <g id="ytick_6">
     <g id="line2d_65">
      <path clip-path="url(#p99b4b0da67)" d="
M7.2 10.6218
L453.6 10.6218" style="fill:none;stroke:#000000;stroke-dasharray:1.000000,3.000000;stroke-dashoffset:0.0;stroke-width:0.5;"/>
     </g>
     <g id="line2d_66">
      <g>
       <use style="stroke:#000000;stroke-width:0.5;" x="7.2" xlink:href="#m728421d6d4" y="10.6217821782"/>
      </g>
     </g>
     <g id="line2d_67">
      <g>
       <use style="stroke:#000000;stroke-width:0.5;" x="453.6" xlink:href="#mcb0005524f" y="10.6217821782"/>
      </g>
     </g>
    </g>
   </g>
   <g id="patch_3">
    <path d="
M7.2 7.2
L453.6 7.2" style="fill:none;stroke:#000000;"/>
   </g>
   <g id="patch_4">
    <path d="
M453.6 352.8
L453.6 7.2" style="fill:none;stroke:#000000;"/>
   </g>
   <g id="patch_5">
    <path d="
M7.2 352.8
L453.6 352.8" style="fill:none;stroke:#000000;"/>
   </g>
   <g id="patch_6">
    <path d="
M7.2 352.8
L7.2 7.2" style="fill:none;stroke:#000000;"/>
   </g>
   <g id="text_10">
    <!-- {f10-f14}, 20-D -->
    <defs>
     <path d="
M12.5 -9.28125
L15.9219 -9.28125
Q22.75 -9.28125 24.8281 -7.17188
Q26.9062 -5.07812 26.9062 1.90625
L26.9062 14.0156
Q26.9062 21.625 29.0938 25.0938
Q31.2969 28.5625 36.7188 29.8906
Q31.2969 31.1094 29.0938 34.5625
Q26.9062 38.0312 26.9062 45.7031
L26.9062 57.8125
Q26.9062 64.75 24.8281 66.875
Q22.75 69 15.9219 69
L12.5 69
L12.5 75.9844
L15.5781 75.9844
Q27.7344 75.9844 31.8125 72.3906
Q35.8906 68.7969 35.8906 58.0156
L35.8906 46.2969
Q35.8906 39.0156 38.5156 36.2031
Q41.1562 33.4062 48.0938 33.4062
L51.125 33.4062
L51.125 26.4219
L48.0938 26.4219
Q41.1562 26.4219 38.5156 23.5781
Q35.8906 20.75 35.8906 13.375
L35.8906 1.70312
Q35.8906 -9.07812 31.8125 -12.6875
Q27.7344 -16.3125 15.5781 -16.3125
L12.5 -16.3125
z
" id="BitstreamVeraSans-Roman-7d"/>
     <path d="
M51.125 -9.28125
L51.125 -16.3125
L48.0938 -16.3125
Q35.9375 -16.3125 31.8125 -12.6875
Q27.6875 -9.07812 27.6875 1.70312
L27.6875 13.375
Q27.6875 20.75 25.0469 23.5781
Q22.4062 26.4219 15.4844 26.4219
L12.5 26.4219
L12.5 33.4062
L15.4844 33.4062
Q22.4688 33.4062 25.0781 36.2031
Q27.6875 39.0156 27.6875 46.2969
L27.6875 58.0156
Q27.6875 68.7969 31.8125 72.3906
Q35.9375 75.9844 48.0938 75.9844
L51.125 75.9844
L51.125 69
L47.7969 69
Q40.9219 69 38.8125 66.8438
Q36.7188 64.7031 36.7188 57.8125
L36.7188 45.7031
Q36.7188 38.0312 34.5 34.5625
Q32.2812 31.1094 26.9062 29.8906
Q32.3281 28.5625 34.5156 25.0938
Q36.7188 21.625 36.7188 14.0156
L36.7188 1.90625
Q36.7188 -4.98438 38.8125 -7.125
Q40.9219 -9.28125 47.7969 -9.28125
z
" id="BitstreamVeraSans-Roman-7b"/>
     <path d="
M11.7188 12.4062
L22.0156 12.4062
L22.0156 4
L14.0156 -11.625
L7.71875 -11.625
L11.7188 4
z
" id="BitstreamVeraSans-Roman-2c"/>
    </defs>
    <g transform="translate(287.42825 345.888)scale(0.2 -0.2)">
     <use xlink:href="#BitstreamVeraSans-Roman-7b"/>
     <use x="63.623046875" xlink:href="#BitstreamVeraSans-Roman-66"/>
     <use x="98.828125" xlink:href="#BitstreamVeraSans-Roman-31"/>
     <use x="162.451171875" xlink:href="#BitstreamVeraSans-Roman-30"/>
     <use x="226.07421875" xlink:href="#BitstreamVeraSans-Roman-2d"/>
     <use x="262.158203125" xlink:href="#BitstreamVeraSans-Roman-66"/>
     <use x="297.36328125" xlink:href="#BitstreamVeraSans-Roman-31"/>
     <use x="360.986328125" xlink:href="#BitstreamVeraSans-Roman-34"/>
     <use x="424.609375" xlink:href="#BitstreamVeraSans-Roman-7d"/>
     <use x="488.232421875" xlink:href="#BitstreamVeraSans-Roman-2c"/>
     <use x="520.01953125" xlink:href="#BitstreamVeraSans-Roman-20"/>
     <use x="551.806640625" xlink:href="#BitstreamVeraSans-Roman-32"/>
     <use x="615.4296875" xlink:href="#BitstreamVeraSans-Roman-30"/>
     <use x="679.052734375" xlink:href="#BitstreamVeraSans-Roman-2d"/>
     <use x="715.13671875" xlink:href="#BitstreamVeraSans-Roman-44"/>
    </g>
   </g>
   <g id="text_11">
    <!-- 0.0.0 -->
    <defs>
     <path d="
M10.6875 12.4062
L21 12.4062
L21 0
L10.6875 0
z
" id="BitstreamVeraSans-Roman-2e"/>
    </defs>
    <g style="fill:#808080;" transform="translate(218.33984375 347.2643125)scale(0.1 -0.1)">
     <use xlink:href="#BitstreamVeraSans-Roman-30"/>
     <use x="63.623046875" xlink:href="#BitstreamVeraSans-Roman-2e"/>
     <use x="95.41015625" xlink:href="#BitstreamVeraSans-Roman-30"/>
     <use x="159.033203125" xlink:href="#BitstreamVeraSans-Roman-2e"/>
     <use x="190.8203125" xlink:href="#BitstreamVeraSans-Roman-30"/>
    </g>
   </g>
  </g>
 </g>
 <defs>
  <clipPath id="p99b4b0da67">
   <rect height="345.6" width="446.4" x="7.2" y="7.2"/>
  </clipPath>
 </defs>
</svg>
