<?xml version="1.0" encoding="utf-8" standalone="no"?>
<!DOCTYPE svg PUBLIC "-//W3C//DTD SVG 1.1//EN"
  "http://www.w3.org/Graphics/SVG/1.1/DTD/svg11.dtd">
<!-- Created with matplotlib (http://matplotlib.org/) -->
<svg height="413pt" version="1.1" viewBox="0 0 518 413" width="518pt" xmlns="http://www.w3.org/2000/svg" xmlns:xlink="http://www.w3.org/1999/xlink">
 <defs>
  <style type="text/css">
*{stroke-linecap:butt;stroke-linejoin:round;}
  </style>
 </defs>
 <g id="figure_1">
  <g id="patch_1">
   <path d="
M0 413.969
L518.522 413.969
L518.522 0
L0 0
z
" style="fill:#ffffff;"/>
  </g>
  <g id="axes_1">
   <g id="patch_2">
    <path d="
M64.9219 359.056
L511.322 359.056
L511.322 13.4563
L64.9219 13.4563
z
" style="fill:#ffffff;"/>
   </g>
   <g id="line2d_1">
    <path clip-path="url(#p4b24e7e61f)" d="
M229.355 359.056
L229.355 354.494
L232.846 354.494
L232.846 349.932
L233.941 349.932
L233.941 345.369
L235.246 345.369
L235.246 340.807
L235.406 340.807
L235.406 336.244
L235.724 336.244
L235.724 331.682
L240.056 331.682
L240.056 327.12
L241.981 327.12
L241.981 322.557
L244.57 322.557
L244.57 317.995
L248.373 317.995
L248.373 313.433
L249.432 313.433
L249.432 308.87
L255.831 308.87
L255.831 304.308
L263.171 304.308
L263.171 299.745
L268.324 299.745
L268.324 295.183
L269.08 295.183
L269.08 290.621
L269.79 290.621
L269.79 286.058
L270.517 286.058
L270.517 281.496
L270.798 281.496
L270.798 276.934
L273.525 276.934
L273.525 272.371
L274.411 272.371
L274.411 267.809
L287.266 267.809
L287.266 263.246
L288.236 263.246
L288.236 258.684
L289.428 258.684
L289.428 254.122
L291.952 254.122
L291.952 249.559
L300.995 249.559
L300.995 244.997
L305.013 244.997
L305.013 240.435
L308.082 240.435
L308.082 235.872
L319.343 235.872
L319.343 231.31
L319.343 231.31
L319.343 231.31
L511.322 231.31" style="fill:none;stroke:#f5deb3;stroke-linecap:square;"/>
   </g>
   <g id="line2d_2">
    <path clip-path="url(#p4b24e7e61f)" d="
M302.654 359.056
L302.654 345.369
L320.261 345.369
L320.261 331.682
L333.406 331.682
L333.406 317.995
L375.527 317.995
L375.527 304.308
L406.108 304.308
L406.108 290.621
L406.108 290.621
L406.108 290.621
L511.322 290.621" style="fill:none;stroke:#f5deb3;stroke-linecap:square;"/>
   </g>
   <g id="line2d_3">
    <path clip-path="url(#p4b24e7e61f)" d="
M192.299 359.056
L192.299 354.494
L196.802 354.494
L196.802 349.932
L232.243 349.932
L232.243 345.369
L233.691 345.369
L233.691 340.807
L235.882 340.807
L235.882 336.244
L242.248 336.244
L242.248 331.682
L246.101 331.682
L246.101 327.12
L249.432 327.12
L249.432 322.557
L252.236 322.557
L252.236 317.995
L252.692 317.995
L252.692 313.433
L256.927 313.433
L256.927 308.87
L259.026 308.87
L259.026 304.308
L265.21 304.308
L265.21 299.745
L267.006 299.745
L267.006 295.183
L273.583 295.183
L273.583 290.621
L281.445 290.621
L281.445 286.058
L289.916 286.058
L289.916 281.496
L300.393 281.496
L300.393 276.934
L301.023 276.934
L301.023 272.371
L303.012 272.371
L303.012 267.809
L306.746 267.809
L306.746 263.246
L310.844 263.246
L310.844 258.684
L311.71 258.684
L311.71 254.122
L324.453 254.122
L324.453 249.559
L327.735 249.559
L327.735 244.997
L356.565 244.997
L356.565 240.435
L358.855 240.435
L358.855 235.872
L359.407 235.872
L359.407 231.31
L369.584 231.31
L369.584 226.747
L385.489 226.747
L385.489 222.185
L385.489 222.185
L385.489 222.185
L511.322 222.185" style="fill:none;stroke:#f5deb3;stroke-linecap:square;"/>
   </g>
   <g id="line2d_4">
    <path clip-path="url(#p4b24e7e61f)" d="
M221.332 359.056
L221.332 354.494
L240.824 354.494
L240.824 349.932
L240.893 349.932
L240.893 345.369
L243.555 345.369
L243.555 340.807
L273.235 340.807
L273.235 336.244
L274.326 336.244
L274.326 331.682
L278.373 331.682
L278.373 327.12
L278.626 327.12
L278.626 322.557
L282.393 322.557
L282.393 317.995
L293.033 317.995
L293.033 313.433
L294.434 313.433
L294.434 308.87
L297.394 308.87
L297.394 304.308
L297.501 304.308
L297.501 299.745
L301.272 299.745
L301.272 295.183
L301.983 295.183
L301.983 290.621
L303.379 290.621
L303.379 286.058
L307.989 286.058
L307.989 281.496
L322.372 281.496
L322.372 276.934
L332.432 276.934
L332.432 272.371
L332.869 272.371
L332.869 267.809
L337.97 267.809
L337.97 263.246
L339.675 263.246
L339.675 258.684
L349.268 258.684
L349.268 254.122
L352.434 254.122
L352.434 249.559
L356.097 249.559
L356.097 244.997
L359.717 244.997
L359.717 240.435
L371.679 240.435
L371.679 235.872
L376.31 235.872
L376.31 231.31
L391.381 231.31
L391.381 226.747
L392.244 226.747
L392.244 222.185
L393.902 222.185
L393.902 217.623
L396.943 217.623
L396.943 213.06
L402.818 213.06
L402.818 208.498
L402.818 208.498
L402.818 208.498
L511.322 208.498" style="fill:none;stroke:#f5deb3;stroke-linecap:square;"/>
   </g>
   <g id="line2d_5">
    <path clip-path="url(#p4b24e7e61f)" d="
M230.646 359.056
L230.646 354.494
L239.487 354.494
L239.487 349.932
L273.264 349.932
L273.264 345.369
L285.711 345.369
L285.711 340.807
L309.092 340.807
L309.092 336.244
L323.951 336.244
L323.951 331.682
L328.949 331.682
L328.949 327.12
L329.888 327.12
L329.888 322.557
L330.278 322.557
L330.278 317.995
L338.419 317.995
L338.419 313.433
L340.976 313.433
L340.976 308.87
L340.986 308.87
L340.986 304.308
L343.826 304.308
L343.826 299.745
L346.841 299.745
L346.841 295.183
L349.253 295.183
L349.253 290.621
L351.893 290.621
L351.893 286.058
L352.004 286.058
L352.004 281.496
L353.495 281.496
L353.495 276.934
L356.857 276.934
L356.857 272.371
L361.073 272.371
L361.073 267.809
L366.018 267.809
L366.018 263.246
L369.328 263.246
L369.328 258.684
L369.711 258.684
L369.711 254.122
L381.37 254.122
L381.37 249.559
L381.795 249.559
L381.795 244.997
L382.908 244.997
L382.908 240.435
L385.568 240.435
L385.568 235.872
L387.912 235.872
L387.912 231.31
L388.946 231.31
L388.946 226.747
L393.663 226.747
L393.663 222.185
L458.187 222.185
L458.187 217.623
L458.187 217.623
L458.187 217.623
L511.322 217.623" style="fill:none;stroke:#f5deb3;stroke-linecap:square;"/>
   </g>
   <g id="line2d_6"/>
   <g id="line2d_7">
    <path clip-path="url(#p4b24e7e61f)" d="
M244.066 359.056
L244.066 354.494
L250.621 354.494
L250.621 349.932
L252.541 349.932
L252.541 345.369
L256.519 345.369
L256.519 340.807
L264.811 340.807
L264.811 336.244
L318.914 336.244
L318.914 331.682
L332.798 331.682
L332.798 327.12
L336.223 327.12
L336.223 322.557
L337.046 322.557
L337.046 317.995
L341.177 317.995
L341.177 313.433
L351.562 313.433
L351.562 308.87
L353.905 308.87
L353.905 304.308
L355.117 304.308
L355.117 299.745
L355.333 299.745
L355.333 295.183
L356.769 295.183
L356.769 290.621
L358.53 290.621
L358.53 286.058
L363.156 286.058
L363.156 281.496
L364.342 281.496
L364.342 276.934
L365.573 276.934
L365.573 272.371
L371.666 272.371
L371.666 267.809
L373.201 267.809
L373.201 263.246
L374.717 263.246
L374.717 258.684
L378.924 258.684
L378.924 254.122
L382.402 254.122
L382.402 249.559
L386.009 249.559
L386.009 244.997
L397.346 244.997
L397.346 240.435
L397.48 240.435
L397.48 235.872
L402.539 235.872
L402.539 231.31
L418.147 231.31
L418.147 226.747
L420.332 226.747
L420.332 222.185
L422.031 222.185
L422.031 217.623
L429.203 217.623
L429.203 213.06
L431.625 213.06
L431.625 208.498
L432.305 208.498
L432.305 203.936
L441.451 203.936
L441.451 199.373
L443.865 199.373
L443.865 194.811
L449.92 194.811
L449.92 190.248
L455.038 190.248
L455.038 185.686
L458.553 185.686
L458.553 181.124
L459.8 181.124
L459.8 176.561
L461.868 176.561
L461.868 171.999
L464.616 171.999
L464.616 167.437
L472.561 167.437
L472.561 162.874
L475.452 162.874
L475.452 158.312
L478.478 158.312
L478.478 153.749
L478.687 153.749
L478.687 149.187
L482.41 149.187
L482.41 144.625
L482.583 144.625
L482.583 140.062
L486.055 140.062
L486.055 135.5
L495.231 135.5
L495.231 130.938
L516.694 130.938
L516.694 126.375
L518.239 126.375
L518.239 121.813
L519.522 121.813" style="fill:none;stroke:#f5deb3;stroke-linecap:square;"/>
   </g>
   <g id="line2d_8">
    <path clip-path="url(#p4b24e7e61f)" d="
M369.508 359.056
L369.508 354.494
L376.059 354.494
L376.059 349.932
L378.765 349.932
L378.765 345.369
L381.114 345.369
L381.114 340.807
L381.714 340.807
L381.714 336.244
L382.623 336.244
L382.623 331.682
L386.62 331.682
L386.62 327.12
L409.999 327.12
L409.999 322.557
L410.178 322.557
L410.178 317.995
L410.197 317.995
L410.197 313.433
L411.109 313.433
L411.109 308.87
L411.926 308.87
L411.926 304.308
L412.598 304.308
L412.598 299.745
L438.983 299.745
L438.983 295.183
L439.381 295.183
L439.381 290.621
L439.429 290.621
L439.429 286.058
L440.307 286.058
L440.307 281.496
L440.594 281.496
L440.594 276.934
L449.392 276.934
L449.392 272.371
L450.188 272.371
L450.188 267.809
L472.51 267.809
L472.51 263.246
L472.579 263.246
L472.579 258.684
L472.905 258.684
L472.905 254.122
L476.362 254.122
L476.362 249.559
L489.458 249.559
L489.458 244.997
L496.926 244.997
L496.926 240.435
L496.926 240.435
L496.926 240.435
L511.322 240.435" style="fill:none;stroke:#f5deb3;stroke-linecap:square;"/>
   </g>
   <g id="line2d_9">
    <path clip-path="url(#p4b24e7e61f)" d="
M235.166 359.056
L235.166 354.494
L239.702 354.494
L239.702 349.932
L251.826 349.932
L251.826 345.369
L252.793 345.369
L252.793 340.807
L289.371 340.807
L289.371 336.244
L293.799 336.244
L293.799 331.682
L298.271 331.682
L298.271 327.12
L301.698 327.12
L301.698 322.557
L307.443 322.557
L307.443 317.995
L321.673 317.995
L321.673 313.433
L322.942 313.433
L322.942 308.87
L322.973 308.87
L322.973 304.308
L333.965 304.308
L333.965 299.745
L336.848 299.745
L336.848 295.183
L347.195 295.183
L347.195 290.621
L351.33 290.621
L351.33 286.058
L353.81 286.058
L353.81 281.496
L355.32 281.496
L355.32 276.934
L359.249 276.934
L359.249 272.371
L361.685 272.371
L361.685 267.809
L364.984 267.809
L364.984 263.246
L364.986 263.246
L364.986 258.684
L367.785 258.684
L367.785 254.122
L372.979 254.122
L372.979 249.559
L375.508 249.559
L375.508 244.997
L378.084 244.997
L378.084 240.435
L381.479 240.435
L381.479 235.872
L389.67 235.872
L389.67 231.31
L391.096 231.31
L391.096 226.747
L392.491 226.747
L392.491 222.185
L400.259 222.185
L400.259 217.623
L402.183 217.623
L402.183 213.06
L407.101 213.06
L407.101 208.498
L417.896 208.498
L417.896 203.936
L418.057 203.936
L418.057 199.373
L419.604 199.373
L419.604 194.811
L423.294 194.811
L423.294 190.248
L426.073 190.248
L426.073 185.686
L427.187 185.686
L427.187 181.124
L427.358 181.124
L427.358 176.561
L431.62 176.561
L431.62 171.999
L431.856 171.999
L431.856 167.437
L434.59 167.437
L434.59 162.874
L435.516 162.874
L435.516 158.312
L443.858 158.312
L443.858 153.749
L446.153 153.749
L446.153 149.187
L446.208 149.187
L446.208 144.625
L446.475 144.625
L446.475 140.062
L446.506 140.062
L446.506 135.5
L447.423 135.5
L447.423 130.938
L448.665 130.938
L448.665 126.375
L449.497 126.375
L449.497 121.813
L449.564 121.813
L449.564 117.25
L451.053 117.25
L451.053 112.688
L452.07 112.688
L452.07 108.126
L452.299 108.126
L452.299 103.563
L458.22 103.563
L458.22 99.0009
L462.381 99.0009
L462.381 94.4385
L476.291 94.4385
L476.291 89.8761
L481.269 89.8761
L481.269 85.3138
L491.793 85.3138
L491.793 80.7514
L519.522 80.7514" style="fill:none;stroke:#f5deb3;stroke-linecap:square;"/>
   </g>
   <g id="line2d_10">
    <path clip-path="url(#p4b24e7e61f)" d="
M353.32 359.056
L353.32 354.494
L369.6 354.494
L369.6 349.932
L374.058 349.932
L374.058 345.369
L377.527 345.369
L377.527 340.807
L388.505 340.807
L388.505 336.244
L390.843 336.244
L390.843 331.682
L392.088 331.682
L392.088 327.12
L393.026 327.12
L393.026 322.557
L396.476 322.557
L396.476 317.995
L424.917 317.995
L424.917 313.433
L433.268 313.433
L433.268 308.87
L436.689 308.87
L436.689 304.308
L440.987 304.308
L440.987 299.745
L444.627 299.745
L444.627 295.183
L446.588 295.183
L446.588 290.621
L446.766 290.621
L446.766 286.058
L466.837 286.058
L466.837 281.496
L474.976 281.496
L474.976 276.934
L478.476 276.934
L478.476 272.371
L478.476 272.371
L478.476 272.371
L511.322 272.371" style="fill:none;stroke:#f5deb3;stroke-linecap:square;"/>
   </g>
   <g id="line2d_11">
    <path clip-path="url(#p4b24e7e61f)" d="
M299.593 359.056
L299.593 354.494
L331.185 354.494
L331.185 349.932
L345.438 349.932
L345.438 345.369
L352.197 345.369
L352.197 340.807
L355.441 340.807
L355.441 336.244
L358.843 336.244
L358.843 331.682
L360.125 331.682
L360.125 327.12
L361.35 327.12
L361.35 322.557
L370.867 322.557
L370.867 317.995
L372.526 317.995
L372.526 313.433
L372.583 313.433
L372.583 308.87
L374.888 308.87
L374.888 304.308
L381.125 304.308
L381.125 299.745
L381.558 299.745
L381.558 295.183
L384.517 295.183
L384.517 290.621
L385.203 290.621
L385.203 286.058
L385.752 286.058
L385.752 281.496
L386.191 281.496
L386.191 276.934
L386.999 276.934
L386.999 272.371
L391.475 272.371
L391.475 267.809
L402.995 267.809
L402.995 263.246
L403.636 263.246
L403.636 258.684
L405.698 258.684
L405.698 254.122
L409.815 254.122
L409.815 249.559
L411.136 249.559
L411.136 244.997
L413.047 244.997
L413.047 240.435
L422.651 240.435
L422.651 235.872
L423.812 235.872
L423.812 231.31
L423.924 231.31
L423.924 226.747
L426.572 226.747
L426.572 222.185
L430.735 222.185
L430.735 217.623
L451.109 217.623
L451.109 213.06
L495.427 213.06
L495.427 208.498
L505.722 208.498
L505.722 203.936
L507.713 203.936
L507.713 199.373
L508.294 199.373
L508.294 194.811
L508.606 194.811
L508.606 190.248
L519.522 190.248" style="fill:none;stroke:#f5deb3;stroke-linecap:square;"/>
   </g>
   <g id="line2d_12">
    <path clip-path="url(#p4b24e7e61f)" d="
M238.545 359.056
L238.545 354.494
L241.914 354.494
L241.914 349.932
L243.491 349.932
L243.491 345.369
L257.24 345.369
L257.24 340.807
L257.507 340.807
L257.507 336.244
L271.901 336.244
L271.901 331.682
L273.842 331.682
L273.842 327.12
L275.193 327.12
L275.193 322.557
L276.014 322.557
L276.014 317.995
L280.736 317.995
L280.736 313.433
L287.286 313.433
L287.286 308.87
L289.276 308.87
L289.276 304.308
L290.729 304.308
L290.729 299.745
L292.549 299.745
L292.549 295.183
L292.653 295.183
L292.653 290.621
L292.861 290.621
L292.861 286.058
L294.681 286.058
L294.681 281.496
L298.879 281.496
L298.879 276.934
L306.877 276.934
L306.877 272.371
L315.105 272.371
L315.105 267.809
L323.625 267.809
L323.625 263.246
L327.973 263.246
L327.973 258.684
L331.648 258.684
L331.648 254.122
L334.143 254.122
L334.143 249.559
L346.016 249.559
L346.016 244.997
L351.174 244.997
L351.174 240.435
L357.005 240.435
L357.005 235.872
L357.674 235.872
L357.674 231.31
L369.49 231.31
L369.49 226.747
L369.971 226.747
L369.971 222.185
L369.971 222.185
L369.971 222.185
L511.322 222.185" style="fill:none;stroke:#f5deb3;stroke-linecap:square;"/>
   </g>
   <g id="line2d_13">
    <path clip-path="url(#p4b24e7e61f)" d="
M299.751 359.056
L299.751 354.494
L312.731 354.494
L312.731 349.932
L317.651 349.932
L317.651 345.369
L318.767 345.369
L318.767 340.807
L323.845 340.807
L323.845 336.244
L327.932 336.244
L327.932 331.682
L331.297 331.682
L331.297 327.12
L331.562 327.12
L331.562 322.557
L331.562 322.557
L331.562 317.995
L333.947 317.995
L333.947 313.433
L347.575 313.433
L347.575 308.87
L347.575 308.87
L347.575 308.87
L511.322 308.87" style="fill:none;stroke:#f5deb3;stroke-linecap:square;"/>
   </g>
   <g id="line2d_14">
    <path clip-path="url(#p4b24e7e61f)" d="
M204.454 359.056
L204.454 354.494
L215.021 354.494
L215.021 349.932
L271.169 349.932
L271.169 345.369
L306.996 345.369
L306.996 340.807
L315.758 340.807
L315.758 336.244
L320.178 336.244
L320.178 331.682
L321.36 331.682
L321.36 327.12
L328.504 327.12
L328.504 322.557
L329.363 322.557
L329.363 317.995
L334.011 317.995
L334.011 313.433
L336.607 313.433
L336.607 308.87
L337.125 308.87
L337.125 304.308
L337.416 304.308
L337.416 299.745
L339.341 299.745
L339.341 295.183
L342.211 295.183
L342.211 290.621
L345.924 290.621
L345.924 286.058
L349.509 286.058
L349.509 281.496
L367.547 281.496
L367.547 276.934
L368.079 276.934
L368.079 272.371
L369.409 272.371
L369.409 267.809
L370.264 267.809
L370.264 263.246
L380.531 263.246
L380.531 258.684
L384.008 258.684
L384.008 254.122
L388.298 254.122
L388.298 249.559
L390.743 249.559
L390.743 244.997
L393.998 244.997
L393.998 240.435
L403.993 240.435
L403.993 235.872
L403.993 235.872
L403.993 235.872
L511.322 235.872" style="fill:none;stroke:#f5deb3;stroke-linecap:square;"/>
   </g>
   <g id="line2d_15">
    <path clip-path="url(#p4b24e7e61f)" d="
M421.848 359.056
L421.848 354.494
L423.547 354.494
L423.547 349.932
L426.217 349.932
L426.217 345.369
L429.287 345.369
L429.287 340.807
L431.737 340.807
L431.737 336.244
L435.564 336.244
L435.564 331.682
L438.206 331.682
L438.206 327.12
L442.611 327.12
L442.611 322.557
L448.637 322.557
L448.637 317.995
L451.632 317.995
L451.632 313.433
L451.934 313.433
L451.934 308.87
L456.597 308.87
L456.597 304.308
L457.38 304.308
L457.38 299.745
L457.431 299.745
L457.431 295.183
L458.097 295.183
L458.097 290.621
L459.09 290.621
L459.09 286.058
L461.094 286.058
L461.094 281.496
L464.542 281.496
L464.542 276.934
L469.826 276.934
L469.826 272.371
L469.826 272.371
L469.826 272.371
L511.322 272.371" style="fill:none;stroke:#f5deb3;stroke-linecap:square;"/>
   </g>
   <g id="line2d_16">
    <path clip-path="url(#p4b24e7e61f)" d="
M305.349 359.056
L305.349 354.494
L381.832 354.494
L381.832 349.932
L406.56 349.932
L406.56 345.369
L407.408 345.369
L407.408 340.807
L415.041 340.807
L415.041 336.244
L421.971 336.244
L421.971 331.682
L438.364 331.682
L438.364 327.12
L447.204 327.12
L447.204 322.557
L448.359 322.557
L448.359 317.995
L450.441 317.995
L450.441 313.433
L457.462 313.433
L457.462 308.87
L461.839 308.87
L461.839 304.308
L464.522 304.308
L464.522 299.745
L465.799 299.745
L465.799 295.183
L467.375 295.183
L467.375 290.621
L467.571 290.621
L467.571 286.058
L471.871 286.058
L471.871 281.496
L472.119 281.496
L472.119 276.934
L474.293 276.934
L474.293 272.371
L479.152 272.371
L479.152 267.809
L479.411 267.809
L479.411 263.246
L486.407 263.246
L486.407 258.684
L489.644 258.684
L489.644 254.122
L490.947 254.122
L490.947 249.559
L497.163 249.559
L497.163 244.997
L500.332 244.997
L500.332 240.435
L501.536 240.435
L501.536 235.872
L502.675 235.872
L502.675 231.31
L503.743 231.31
L503.743 226.747
L504.016 226.747
L504.016 222.185
L504.868 222.185
L504.868 217.623
L511.654 217.623
L511.654 213.06
L515.463 213.06
L515.463 208.498
L519.522 208.498" style="fill:none;stroke:#f5deb3;stroke-linecap:square;"/>
   </g>
   <g id="line2d_17">
    <path clip-path="url(#p4b24e7e61f)" d="
M314.304 359.056
L314.304 354.494
L316.547 354.494
L316.547 349.932
L334.361 349.932
L334.361 345.369
L402.369 345.369
L402.369 340.807
L438.296 340.807
L438.296 336.244
L438.296 336.244
L438.296 336.244
L511.322 336.244" style="fill:none;stroke:#f5deb3;stroke-linecap:square;"/>
   </g>
   <g id="line2d_18">
    <path clip-path="url(#p4b24e7e61f)" d="
M214.046 359.056
L214.046 354.494
L231.806 354.494
L231.806 349.932
L239.2 349.932
L239.2 345.369
L240.755 345.369
L240.755 340.807
L241.099 340.807
L241.099 336.244
L252.541 336.244
L252.541 331.682
L259.575 331.682
L259.575 327.12
L260.934 327.12
L260.934 322.557
L263.663 322.557
L263.663 317.995
L267.485 317.995
L267.485 313.433
L275.606 313.433
L275.606 308.87
L276.444 308.87
L276.444 304.308
L278.041 304.308
L278.041 299.745
L278.601 299.745
L278.601 295.183
L289.579 295.183
L289.579 290.621
L291.238 290.621
L291.238 286.058
L291.632 286.058
L291.632 281.496
L292.093 281.496
L292.093 276.934
L293.033 276.934
L293.033 272.371
L304 272.371
L304 267.809
L304.687 267.809
L304.687 263.246
L310.109 263.246
L310.109 258.684
L312.934 258.684
L312.934 254.122
L319.198 254.122
L319.198 249.559
L328.857 249.559
L328.857 244.997
L332.439 244.997
L332.439 240.435
L335.52 240.435
L335.52 235.872
L339.843 235.872
L339.843 231.31
L355.153 231.31
L355.153 226.747
L361.151 226.747
L361.151 222.185
L361.151 222.185
L361.151 222.185
L511.322 222.185" style="fill:none;stroke:#f5deb3;stroke-linecap:square;"/>
   </g>
   <g id="line2d_19">
    <path clip-path="url(#p4b24e7e61f)" d="
M351.526 359.056
L351.526 357.387
L351.526 357.387
L351.526 357.387
L351.526 355.718
L351.526 355.718
L351.526 355.718
L351.526 354.049
L354.949 354.049
L354.949 349.041
L358.225 349.041
L358.225 344.034
L362.287 344.034
L362.287 339.026
L363.281 339.026
L363.281 334.019
L363.592 334.019
L363.592 329.011
L366.649 329.011
L366.649 324.004
L366.792 324.004
L366.792 318.996
L367.486 318.996
L367.486 313.989
L369.028 313.989
L369.028 308.981
L370.969 308.981
L370.969 303.974
L371.63 303.974
L371.63 298.967
L371.793 298.967
L371.793 293.959
L372.195 293.959
L372.195 288.952
L374.187 288.952
L374.187 283.944
L380.721 283.944
L380.721 278.937
L382.153 278.937
L382.153 273.929
L387.478 273.929
L387.478 268.922
L391.3 268.922
L391.3 263.914
L392.495 263.914
L392.495 258.907
L393.211 258.907
L393.211 253.899
L393.564 253.899
L393.567 243.884
L396.124 243.884
L396.196 233.869
L397.551 233.869
L397.551 228.862
L400.431 228.862
L400.431 223.854
L403.378 223.854
L403.378 218.847
L404.604 218.847
L404.604 213.839
L404.763 213.839
L404.763 208.832
L413.815 208.832
L413.815 203.824
L415.406 203.824
L415.436 193.809
L416.673 193.809
L416.673 188.802
L418.098 188.802
L418.098 183.794
L419.517 183.794
L419.517 178.787
L419.852 178.787
L419.852 173.779
L422.387 173.779
L422.387 168.772
L422.792 168.772
L422.792 163.764
L423.906 163.764
L423.906 158.757
L424.11 158.757
L424.11 153.749
L434.269 153.749
L434.269 148.742
L435.597 148.742
L435.597 143.734
L440.986 143.734
L440.986 138.727
L472.796 138.727
L472.796 133.719
L472.796 133.719
L511.322 133.719
L511.322 133.719" style="fill:none;stroke:#f5deb3;stroke-linecap:square;"/>
   </g>
   <g id="line2d_20">
    <path clip-path="url(#p4b24e7e61f)" d="
M209.556 359.056
L209.556 354.494
L209.556 354.494
L209.556 349.932
L213.477 349.932
L213.477 345.369
L215.567 345.369
L215.567 340.807
L227.921 340.807
L227.921 336.244
L245.067 336.244
L245.067 331.682
L249.377 331.682
L249.377 327.12
L255.97 327.12
L255.97 322.557
L264.074 322.557
L264.074 317.995
L273.322 317.995
L273.322 313.433
L274.58 313.433
L274.58 308.87
L276.524 308.87
L276.524 304.308
L278.041 304.308
L278.041 299.745
L281.257 299.745
L281.257 295.183
L281.351 295.183
L281.351 290.621
L287.685 290.621
L287.685 286.058
L290.675 286.058
L290.675 281.496
L291.346 281.496
L291.346 276.934
L292.023 276.934
L292.023 272.371
L292.982 272.371
L292.982 267.809
L295.991 267.809
L295.991 263.246
L299.506 263.246
L299.506 258.684
L305.423 258.684
L305.423 254.122
L305.435 254.122
L305.435 249.559
L306.96 249.559
L306.96 244.997
L317.338 244.997
L317.338 240.435
L318.419 240.435
L318.419 235.872
L319.859 235.872
L319.859 231.31
L338.363 231.31
L338.363 226.747
L339.976 226.747
L339.976 222.185
L433.671 222.185
L433.671 217.623
L433.671 217.623
L433.671 217.623
L511.322 217.623" style="fill:none;stroke:#f5deb3;stroke-linecap:square;"/>
   </g>
   <g id="line2d_21">
    <path clip-path="url(#p4b24e7e61f)" d="
M373.195 359.056
L373.195 354.494
L392.857 354.494
L392.857 349.932
L399.453 349.932
L399.453 345.369
L399.453 345.369
L399.453 345.369
L511.322 345.369" style="fill:none;stroke:#f5deb3;stroke-linecap:square;"/>
   </g>
   <g id="line2d_22">
    <path clip-path="url(#p4b24e7e61f)" d="
M195.669 359.056
L195.669 354.494
L201.42 354.494
L201.42 349.932
L208.914 349.932
L208.914 345.369
L209.872 345.369
L209.872 340.807
L215.567 340.807
L215.567 336.244
L218.685 336.244
L218.685 331.682
L265.854 331.682
L265.854 327.12
L289.428 327.12
L289.428 322.557
L291.346 322.557
L291.346 317.995
L294.894 317.995
L294.894 313.433
L297.133 313.433
L297.133 308.87
L304.192 308.87
L304.192 304.308
L307.408 304.308
L307.408 299.745
L314.663 299.745
L314.663 295.183
L318.785 295.183
L318.785 290.621
L323.197 290.621
L323.197 286.058
L341.768 286.058
L341.768 281.496
L342.313 281.496
L342.313 276.934
L345.434 276.934
L345.434 272.371
L346.66 272.371
L346.66 267.809
L349.646 267.809
L349.646 263.246
L358.385 263.246
L358.385 258.684
L367.872 258.684
L367.872 254.122
L373.965 254.122
L373.965 249.559
L374.758 249.559
L374.758 244.997
L375.456 244.997
L375.456 240.435
L388.449 240.435
L388.449 235.872
L398.292 235.872
L398.292 231.31
L404.497 231.31
L404.497 226.747
L413.999 226.747
L413.999 222.185
L416.983 222.185
L416.983 217.623
L421.16 217.623
L421.16 213.06
L426.827 213.06
L426.827 208.498
L430.086 208.498
L430.086 203.936
L432.59 203.936
L432.59 199.373
L444.202 199.373
L444.202 194.811
L445.298 194.811
L445.298 190.248
L448.926 190.248
L448.926 185.686
L459.505 185.686
L459.505 181.124
L474.742 181.124
L474.742 176.561
L477.008 176.561
L477.008 171.999
L478.853 171.999
L478.853 167.437
L485.213 167.437
L485.213 162.874
L485.344 162.874
L485.344 158.312
L485.344 158.312
L485.344 158.312
L511.322 158.312" style="fill:none;stroke:#f5deb3;stroke-linecap:square;"/>
   </g>
   <g id="line2d_23">
    <path clip-path="url(#p4b24e7e61f)" d="
M307.56 359.056
L307.56 354.494
L313.446 354.494
L313.446 349.932
L316.141 349.932
L316.141 345.369
L316.867 345.369
L316.867 340.807
L318.244 340.807
L318.244 336.244
L320.994 336.244
L320.994 331.682
L335.125 331.682
L335.125 327.12
L338.751 327.12
L338.751 322.557
L338.959 322.557
L338.959 317.995
L340.494 317.995
L340.494 313.433
L347.438 313.433
L347.438 308.87
L350.077 308.87
L350.077 304.308
L355.991 304.308
L355.991 299.745
L361.924 299.745
L361.924 295.183
L364.368 295.183
L364.368 290.621
L368.998 290.621
L368.998 286.058
L381.467 286.058
L381.467 281.496
L381.502 281.496
L381.502 276.934
L384.074 276.934
L384.074 272.371
L388.623 272.371
L388.623 267.809
L404.26 267.809
L404.26 263.246
L404.26 263.246
L404.26 263.246
L511.322 263.246" style="fill:none;stroke:#f5deb3;stroke-linecap:square;"/>
   </g>
   <g id="line2d_24">
    <path clip-path="url(#p4b24e7e61f)" d="
M267.62 359.056
L267.62 354.494
L268.885 354.494
L268.885 349.932
L274.86 349.932
L274.86 345.369
L275.878 345.369
L275.878 340.807
L281.585 340.807
L281.585 336.244
L282.438 336.244
L282.438 331.682
L291.003 331.682
L291.003 327.12
L313.436 327.12
L313.436 322.557
L338.188 322.557
L338.188 317.995
L339.05 317.995
L339.05 313.433
L340.329 313.433
L340.329 308.87
L341.599 308.87
L341.599 304.308
L343.294 304.308
L343.294 299.745
L344.091 299.745
L344.091 295.183
L344.307 295.183
L344.307 290.621
L346.783 290.621
L346.783 286.058
L355.048 286.058
L355.048 281.496
L355.727 281.496
L355.727 276.934
L356.763 276.934
L356.763 272.371
L365.744 272.371
L365.744 267.809
L370.897 267.809
L370.897 263.246
L371.944 263.246
L371.944 258.684
L373.149 258.684
L373.149 254.122
L373.315 254.122
L373.315 249.559
L375.717 249.559
L375.717 244.997
L381.811 244.997
L381.811 240.435
L383.417 240.435
L383.417 235.872
L384.018 235.872
L384.018 231.31
L389.552 231.31
L389.552 226.747
L393.032 226.747
L393.032 222.185
L394.683 222.185
L394.683 217.623
L398.787 217.623
L398.787 213.06
L400.284 213.06
L400.284 208.498
L404.493 208.498
L404.493 203.936
L410.268 203.936
L410.268 199.373
L411.629 199.373
L411.629 194.811
L416.612 194.811
L416.612 190.248
L431.487 190.248
L431.487 185.686
L433.795 185.686
L433.795 181.124
L436.089 181.124
L436.089 176.561
L445.97 176.561
L445.97 171.999
L449.571 171.999
L449.571 167.437
L467.129 167.437
L467.129 162.874
L469.904 162.874
L469.904 158.312
L471.093 158.312
L471.093 153.749
L471.388 153.749
L471.388 149.187
L471.877 149.187
L471.877 144.625
L473.803 144.625
L473.803 140.062
L474.285 140.062
L474.285 135.5
L476.664 135.5
L476.664 130.938
L491.284 130.938
L491.284 126.375
L491.822 126.375
L491.822 121.813
L495.757 121.813
L495.757 117.25
L506.815 117.25
L506.815 112.688
L508.459 112.688
L508.459 108.126
L519.522 108.126" style="fill:none;stroke:#f5deb3;stroke-linecap:square;"/>
   </g>
   <g id="line2d_25">
    <path clip-path="url(#p4b24e7e61f)" d="
M391.734 359.056
L391.734 354.494
L394.291 354.494
L394.291 349.932
L398.056 349.932
L398.056 345.369
L399.038 345.369
L399.038 340.807
L399.069 340.807
L399.069 336.244
L399.868 336.244
L399.868 331.682
L400.019 331.682
L400.019 327.12
L400.597 327.12
L400.597 322.557
L401.66 322.557
L401.66 317.995
L402.778 317.995
L402.778 313.433
L403.207 313.433
L403.207 308.87
L403.266 308.87
L403.266 304.308
L403.319 304.308
L403.319 299.745
L403.382 299.745
L403.382 295.183
L403.748 295.183
L403.748 290.621
L404.251 290.621
L404.251 286.058
L404.495 286.058
L404.495 281.496
L405.082 281.496
L405.082 276.934
L406.113 276.934
L406.113 272.371
L406.491 272.371
L406.491 267.809
L407.651 267.809
L407.651 263.246
L407.746 263.246
L407.746 258.684
L409.517 258.684
L409.517 254.122
L409.707 254.122
L409.707 249.559
L420.315 249.559
L420.315 244.997
L421.37 244.997
L421.37 240.435
L422.316 240.435
L422.316 235.872
L422.631 235.872
L422.631 231.31
L423.11 231.31
L423.11 226.747
L423.625 226.747
L423.625 222.185
L423.648 222.185
L423.648 217.623
L423.925 217.623
L423.925 213.06
L424.594 213.06
L424.594 208.498
L424.603 208.498
L424.603 203.936
L424.693 203.936
L424.693 199.373
L426.083 199.373
L426.083 194.811
L426.392 194.811
L426.392 190.248
L426.392 190.248
L426.392 190.248
L511.322 190.248" style="fill:none;stroke:#f5deb3;stroke-linecap:square;"/>
   </g>
   <g id="line2d_26">
    <path clip-path="url(#p4b24e7e61f)" d="
M282.393 359.056
L282.393 354.494
L283.76 354.494
L283.76 349.932
L284.088 349.932
L284.088 345.369
L284.522 345.369
L284.522 340.807
L284.694 340.807
L284.694 336.244
L285.669 336.244
L285.669 331.682
L286.374 331.682
L286.374 327.12
L286.619 327.12
L286.619 322.557
L289.635 322.557
L289.635 317.995
L298.539 317.995
L298.539 313.433
L299.405 313.433
L299.405 308.87
L300.463 308.87
L300.463 304.308
L300.856 304.308
L300.856 299.745
L303.652 299.745
L303.652 295.183
L311.068 295.183
L311.068 290.621
L311.763 290.621
L311.763 286.058
L311.784 286.058
L311.784 281.496
L312.312 281.496
L312.312 276.934
L313.942 276.934
L313.942 272.371
L314.187 272.371
L314.187 267.809
L315.057 267.809
L315.057 263.246
L325.581 263.246
L325.581 258.684
L328.128 258.684
L328.128 254.122
L328.223 254.122
L328.223 249.559
L329.114 249.559
L329.114 244.997
L330.602 244.997
L330.602 240.435
L335.675 240.435
L335.675 235.872
L335.868 235.872
L335.868 231.31
L338.984 231.31
L338.984 226.747
L339.947 226.747
L339.947 222.185
L349.345 222.185
L349.345 217.623
L350.477 217.623
L350.477 213.06
L354.219 213.06
L354.219 208.498
L356.81 208.498
L356.81 203.936
L374.697 203.936
L374.697 199.373
L376.793 199.373
L376.793 194.811
L401.756 194.811
L401.756 190.248
L402.095 190.248
L402.095 185.686
L417.009 185.686
L417.009 181.124
L421.295 181.124
L421.295 176.561
L424.191 176.561
L424.191 171.999
L424.655 171.999
L424.655 167.437
L427.586 167.437
L427.586 162.874
L427.995 162.874
L427.995 158.312
L428.381 158.312
L428.381 153.749
L430.645 153.749
L430.645 149.187
L432.27 149.187
L432.27 144.625
L432.341 144.625
L432.341 140.062
L432.405 140.062
L432.405 135.5
L438.027 135.5
L438.027 130.938
L438.027 130.938
L438.027 130.938
L511.322 130.938" style="fill:none;stroke:#f5deb3;stroke-linecap:square;"/>
   </g>
   <g id="line2d_27">
    <path clip-path="url(#p4b24e7e61f)" d="
M326.551 359.056
L326.551 354.494
L326.551 354.494
L326.551 354.494
L511.322 354.494" style="fill:none;stroke:#f5deb3;stroke-linecap:square;"/>
   </g>
   <g id="line2d_28">
    <path clip-path="url(#p4b24e7e61f)" d="
M245.981 359.056
L245.981 354.494
L246.579 354.494
L246.579 349.932
L254.415 349.932
L254.415 345.369
L263.361 345.369
L263.361 340.807
L281.492 340.807
L281.492 336.244
L304.115 336.244
L304.115 331.682
L317.589 331.682
L317.589 327.12
L339.456 327.12
L339.456 322.557
L341.655 322.557
L341.655 317.995
L343.581 317.995
L343.581 313.433
L343.612 313.433
L343.612 308.87
L345.34 308.87
L345.34 304.308
L345.697 304.308
L345.697 299.745
L348.082 299.745
L348.082 295.183
L352.89 295.183
L352.89 290.621
L354.199 290.621
L354.199 286.058
L370.537 286.058
L370.537 281.496
L371.666 281.496
L371.666 276.934
L372.231 276.934
L372.231 272.371
L372.55 272.371
L372.55 267.809
L373.189 267.809
L373.189 263.246
L374.193 263.246
L374.193 258.684
L375.205 258.684
L375.205 254.122
L375.681 254.122
L375.681 249.559
L376.297 249.559
L376.297 244.997
L380.722 244.997
L380.722 240.435
L380.805 240.435
L380.805 235.872
L384.941 235.872
L384.941 231.31
L385.975 231.31
L385.975 226.747
L386.107 226.747
L386.107 222.185
L389.469 222.185
L389.469 217.623
L389.738 217.623
L389.738 213.06
L401.563 213.06
L401.563 208.498
L405.422 208.498
L405.422 203.936
L408.693 203.936
L408.693 199.373
L410.494 199.373
L410.494 194.811
L411.21 194.811
L411.21 190.248
L413.691 190.248
L413.691 185.686
L421.733 185.686
L421.733 181.124
L427.64 181.124
L427.64 176.561
L430.54 176.561
L430.54 171.999
L431.859 171.999
L431.859 167.437
L434.314 167.437
L434.314 162.874
L453.836 162.874
L453.836 158.312
L465.378 158.312
L465.378 153.749
L477.105 153.749
L477.105 149.187
L481.686 149.187
L481.686 144.625
L497.324 144.625
L497.324 140.062
L498.231 140.062
L498.231 135.5
L508.671 135.5
L508.671 130.938
L509.365 130.938
L509.365 126.375
L510.061 126.375
L510.061 121.813
L510.159 121.813
L510.159 117.25
L512.682 117.25
L512.682 112.688
L519.522 112.688" style="fill:none;stroke:#f5deb3;stroke-linecap:square;"/>
   </g>
   <g id="line2d_29">
    <path clip-path="url(#p4b24e7e61f)" d="
M242.181 359.056
L242.181 354.494
L242.181 354.494
L242.181 349.932
L242.181 349.932
L242.181 345.369
L268.49 345.369
L268.49 340.807
L268.49 340.807
L268.49 336.244
L268.49 336.244
L268.49 331.682
L274.014 331.682
L274.014 327.12
L274.014 327.12
L274.014 322.557
L274.014 322.557
L274.014 317.995
L306.924 317.995
L306.924 313.433
L306.924 313.433
L306.924 308.87
L306.924 308.87
L306.924 304.308
L342.63 304.308
L342.63 299.745
L342.63 299.745
L342.63 295.183
L342.63 295.183
L342.63 290.621
L356.904 290.621
L356.904 286.058
L356.904 286.058
L356.904 281.496
L356.904 281.496
L356.904 276.934
L364.373 276.934
L364.373 272.371
L364.373 272.371
L364.373 267.809
L364.373 267.809
L364.373 263.246
L366.758 263.246
L366.758 258.684
L367.547 258.684
L367.547 254.122
L377.774 254.122
L377.774 249.559
L378.799 249.559
L378.799 244.997
L379.043 244.997
L379.043 240.435
L386.837 240.435
L386.837 235.872
L389.629 235.872
L389.629 231.31
L393.202 231.31
L393.202 226.747
L407.225 226.747
L407.225 222.185
L407.225 222.185
L407.225 222.185
L511.322 222.185" style="fill:none;stroke:#f5deb3;stroke-linecap:square;"/>
   </g>
   <g id="line2d_30">
    <path clip-path="url(#p4b24e7e61f)" d="
M334.35 359.056
L334.35 354.494
L336.693 354.494
L336.693 349.932
L376.235 349.932
L376.235 345.369
L387.198 345.369
L387.198 340.807
L402.598 340.807
L402.598 336.244
L407.969 336.244
L407.969 331.682
L409.135 331.682
L409.135 327.12
L409.439 327.12
L409.439 322.557
L409.748 322.557
L409.748 317.995
L410.072 317.995
L410.072 313.433
L410.072 313.433
L410.072 313.433
L511.322 313.433" style="fill:none;stroke:#f5deb3;stroke-linecap:square;"/>
   </g>
   <g id="line2d_31">
    <path clip-path="url(#p4b24e7e61f)" d="
M4.52868 359.056
L4.52868 354.494
L4.52868 354.494
L4.52868 354.494
L4.52868 349.932
L30.5386 349.932
L30.5386 327.12
L45.7534 327.12
L45.7534 317.995
L56.5485 317.995
L56.5485 313.433
L64.9219 313.433
L64.9219 308.87
L71.7634 308.87
L71.7634 304.308
L77.5478 304.308
L77.5478 299.745
L82.5585 299.745
L82.5585 290.621
L86.9782 290.621
L86.9782 281.496
L90.9318 281.496
L90.9318 276.934
L94.5083 276.934
L94.5083 267.809
L106.147 267.809
L106.147 263.246
L108.568 263.246
L108.568 254.122
L110.843 254.122
L110.843 244.997
L112.988 244.997
L112.988 240.435
L116.942 240.435
L116.942 235.872
L118.773 235.872
L118.773 231.31
L120.518 231.31
L120.518 222.185
L122.186 222.185
L122.186 217.623
L129.568 217.623
L129.568 213.06
L133.387 213.06
L133.387 203.936
L135.733 203.936
L135.733 194.811
L136.853 194.811
L136.853 190.248
L138.998 190.248
L138.998 185.686
L141.027 185.686
L141.027 181.124
L144.783 181.124
L144.783 176.561
L145.665 176.561
L145.665 171.999
L148.196 171.999
L148.196 167.437
L149.793 167.437
L149.793 162.874
L158.167 162.874
L158.167 158.312
L158.787 158.312
L158.787 153.749
L159.397 153.749
L159.397 149.187
L163.951 149.187
L163.951 144.625
L167.527 144.625
L167.527 140.062
L168.49 140.062
L168.49 135.5
L170.792 135.5
L170.792 126.375
L172.962 126.375
L172.962 121.813
L181.921 121.813
L181.921 117.25
L194.261 117.25
L194.261 112.688
L201.813 112.688
L201.813 108.126
L203.157 108.126
L203.157 103.563
L206.233 103.563
L206.233 99.0009
L248.203 99.0009
L248.203 94.4385
L252.031 94.4385
L252.031 89.8761
L267.383 89.8761
L267.383 85.3138
L270.044 85.3138
L270.044 80.7514
L273.698 80.7514
L273.698 76.189
L279.671 76.189
L279.671 71.6266
L296.854 71.6266
L296.854 67.0643
L415.163 67.0643
L415.163 62.5019
L416.802 62.5019
L416.802 57.9395
L420.12 57.9395
L420.12 53.3771
L420.64 53.3771
L420.64 48.8148
L441.748 48.8148
L441.748 44.2524
L442.933 44.2524
L442.933 39.69
L443.842 39.69
L443.842 35.1276
L445.205 35.1276
L445.205 30.5653
L458.673 30.5653
L458.673 26.0029
L459.98 26.0029
L459.98 21.4405
L483.727 21.4405
L483.727 16.8781
L483.727 16.8781
L511.322 16.8781
L511.322 16.8781" style="fill:none;stroke:#000000;stroke-linecap:square;"/>
   </g>
   <g id="line2d_32"/>
   <g id="line2d_33">
    <path clip-path="url(#p4b24e7e61f)" d="
M182.252 359.056
L182.252 354.494
L182.252 354.494
L182.252 349.932
L189.692 349.932
L189.692 345.369
L201.222 345.369
L201.222 340.807
L202.395 340.807
L202.395 336.244
L206.059 336.244
L206.059 331.682
L210.03 331.682
L210.03 327.12
L215.295 327.12
L215.295 322.557
L224.876 322.557
L224.876 317.995
L421.632 317.995
L421.632 313.433
L443.671 313.433
L443.671 308.87
L444.332 308.87
L444.332 304.308
L444.729 304.308
L444.729 299.745
L454.573 299.745
L454.573 295.183
L469.881 295.183
L469.881 290.621
L470.977 290.621
L470.977 286.058
L471.059 286.058
L471.059 281.496
L471.067 281.496
L471.067 276.934
L482.727 276.934
L482.727 272.371
L486.279 272.371
L486.279 267.809
L489.416 267.809
L489.416 263.246
L495.645 263.246
L495.645 258.684
L495.645 258.684
L495.645 258.684
L511.322 258.684" style="fill:none;stroke:#00bfbf;stroke-linecap:square;"/>
   </g>
   <g id="line2d_34"/>
   <g id="line2d_35">
    <path clip-path="url(#p4b24e7e61f)" d="
M219.057 359.056
L219.057 354.494
L219.669 354.494
L219.669 349.932
L231.63 349.932
L231.63 345.369
L233.016 345.369
L233.016 340.807
L236.97 340.807
L236.97 336.244
L237.351 336.244
L237.351 331.682
L243.555 331.682
L243.555 327.12
L261.853 327.12
L261.853 322.557
L284.371 322.557
L284.371 317.995
L422.266 317.995
L422.266 313.433
L443.858 313.433
L443.858 308.87
L444.5 308.87
L444.5 304.308
L454.629 304.308
L454.629 299.745
L471 299.745
L471 295.183
L471.289 295.183
L471.289 290.621
L482.751 290.621
L482.751 286.058
L486.413 286.058
L486.413 281.496
L489.44 281.496
L489.44 276.934
L495.662 276.934
L495.662 272.371
L495.662 272.371
L495.662 272.371
L511.322 272.371" style="fill:none;stroke:#bf00bf;stroke-linecap:square;"/>
   </g>
   <g id="line2d_36"/>
   <g id="line2d_37">
    <path clip-path="url(#p4b24e7e61f)" d="
M236.585 359.056
L236.585 354.494
L240.197 354.494
L240.197 349.932
L253.686 349.932
L253.686 345.369
L255.785 345.369
L255.785 340.807
L260.568 340.807
L260.568 336.244
L271.81 336.244
L271.81 331.682
L272.796 331.682
L272.796 327.12
L285.711 327.12
L285.711 322.557
L321.165 322.557
L321.165 317.995
L423.439 317.995
L423.439 313.433
L444.529 313.433
L444.529 308.87
L444.594 308.87
L444.594 304.308
L454.661 304.308
L454.661 299.745
L471.027 299.745
L471.027 295.183
L471.543 295.183
L471.543 290.621
L482.775 290.621
L482.775 286.058
L486.552 286.058
L486.552 281.496
L489.464 281.496
L489.464 276.934
L495.683 276.934
L495.683 272.371
L495.683 272.371
L495.683 272.371
L511.322 272.371" style="fill:none;stroke:#ff0000;stroke-linecap:square;stroke-width:3.0;"/>
   </g>
   <g id="line2d_38"/>
   <g id="line2d_39">
    <path clip-path="url(#p4b24e7e61f)" d="
M508.86 359.056
L508.86 13.4563" style="fill:none;stroke:#000000;stroke-linecap:square;"/>
   </g>
   <g id="matplotlib.axis_1">
    <g id="xtick_1">
     <g id="line2d_40">
      <path clip-path="url(#p4b24e7e61f)" d="
M64.9219 359.056
L64.9219 13.4563" style="fill:none;stroke:#000000;stroke-dasharray:1.000000,3.000000;stroke-dashoffset:0.0;stroke-width:0.5;"/>
     </g>
     <g id="line2d_41">
      <defs>
       <path d="
M0 0
L0 -4" id="m93b0483c22" style="stroke:#000000;stroke-width:0.5;"/>
      </defs>
      <g>
       <use style="stroke:#000000;stroke-width:0.5;" x="64.921875" xlink:href="#m93b0483c22" y="359.056342822"/>
      </g>
     </g>
     <g id="line2d_42">
      <defs>
       <path d="
M0 0
L0 4" id="m741efc42ff" style="stroke:#000000;stroke-width:0.5;"/>
      </defs>
      <g>
       <use style="stroke:#000000;stroke-width:0.5;" x="64.921875" xlink:href="#m741efc42ff" y="13.4563428218"/>
      </g>
     </g>
     <g id="text_1">
      <!-- 0 -->
      <defs>
       <path d="
M31.7812 66.4062
Q24.1719 66.4062 20.3281 58.9062
Q16.5 51.4219 16.5 36.375
Q16.5 21.3906 20.3281 13.8906
Q24.1719 6.39062 31.7812 6.39062
Q39.4531 6.39062 43.2812 13.8906
Q47.125 21.3906 47.125 36.375
Q47.125 51.4219 43.2812 58.9062
Q39.4531 66.4062 31.7812 66.4062
M31.7812 74.2188
Q44.0469 74.2188 50.5156 64.5156
Q56.9844 54.8281 56.9844 36.375
Q56.9844 17.9688 50.5156 8.26562
Q44.0469 -1.42188 31.7812 -1.42188
Q19.5312 -1.42188 13.0625 8.26562
Q6.59375 17.9688 6.59375 36.375
Q6.59375 54.8281 13.0625 64.5156
Q19.5312 74.2188 31.7812 74.2188" id="BitstreamVeraSans-Roman-30"/>
      </defs>
      <g transform="translate(59.8828125 378.253217822)scale(0.2 -0.2)">
       <use xlink:href="#BitstreamVeraSans-Roman-30"/>
      </g>
     </g>
    </g>
    <g id="xtick_2">
     <g id="line2d_43">
      <path clip-path="url(#p4b24e7e61f)" d="
M151.325 359.056
L151.325 13.4563" style="fill:none;stroke:#000000;stroke-dasharray:1.000000,3.000000;stroke-dashoffset:0.0;stroke-width:0.5;"/>
     </g>
     <g id="line2d_44">
      <g>
       <use style="stroke:#000000;stroke-width:0.5;" x="151.325009135" xlink:href="#m93b0483c22" y="359.056342822"/>
      </g>
     </g>
     <g id="line2d_45">
      <g>
       <use style="stroke:#000000;stroke-width:0.5;" x="151.325009135" xlink:href="#m741efc42ff" y="13.4563428218"/>
      </g>
     </g>
     <g id="text_2">
      <!-- 1 -->
      <defs>
       <path d="
M12.4062 8.29688
L28.5156 8.29688
L28.5156 63.9219
L10.9844 60.4062
L10.9844 69.3906
L28.4219 72.9062
L38.2812 72.9062
L38.2812 8.29688
L54.3906 8.29688
L54.3906 0
L12.4062 0
z
" id="BitstreamVeraSans-Roman-31"/>
      </defs>
      <g transform="translate(146.984384135 378.253217822)scale(0.2 -0.2)">
       <use xlink:href="#BitstreamVeraSans-Roman-31"/>
      </g>
     </g>
    </g>
    <g id="xtick_3">
     <g id="line2d_46">
      <path clip-path="url(#p4b24e7e61f)" d="
M237.728 359.056
L237.728 13.4563" style="fill:none;stroke:#000000;stroke-dasharray:1.000000,3.000000;stroke-dashoffset:0.0;stroke-width:0.5;"/>
     </g>
     <g id="line2d_47">
      <g>
       <use style="stroke:#000000;stroke-width:0.5;" x="237.72814327" xlink:href="#m93b0483c22" y="359.056342822"/>
      </g>
     </g>
     <g id="line2d_48">
      <g>
       <use style="stroke:#000000;stroke-width:0.5;" x="237.72814327" xlink:href="#m741efc42ff" y="13.4563428218"/>
      </g>
     </g>
     <g id="text_3">
      <!-- 2 -->
      <defs>
       <path d="
M19.1875 8.29688
L53.6094 8.29688
L53.6094 0
L7.32812 0
L7.32812 8.29688
Q12.9375 14.1094 22.625 23.8906
Q32.3281 33.6875 34.8125 36.5312
Q39.5469 41.8438 41.4219 45.5312
Q43.3125 49.2188 43.3125 52.7812
Q43.3125 58.5938 39.2344 62.25
Q35.1562 65.9219 28.6094 65.9219
Q23.9688 65.9219 18.8125 64.3125
Q13.6719 62.7031 7.8125 59.4219
L7.8125 69.3906
Q13.7656 71.7812 18.9375 73
Q24.125 74.2188 28.4219 74.2188
Q39.75 74.2188 46.4844 68.5469
Q53.2188 62.8906 53.2188 53.4219
Q53.2188 48.9219 51.5312 44.8906
Q49.8594 40.875 45.4062 35.4062
Q44.1875 33.9844 37.6406 27.2188
Q31.1094 20.4531 19.1875 8.29688" id="BitstreamVeraSans-Roman-32"/>
      </defs>
      <g transform="translate(233.10001827 378.253217822)scale(0.2 -0.2)">
       <use xlink:href="#BitstreamVeraSans-Roman-32"/>
      </g>
     </g>
    </g>
    <g id="xtick_4">
     <g id="line2d_49">
      <path clip-path="url(#p4b24e7e61f)" d="
M324.131 359.056
L324.131 13.4563" style="fill:none;stroke:#000000;stroke-dasharray:1.000000,3.000000;stroke-dashoffset:0.0;stroke-width:0.5;"/>
     </g>
     <g id="line2d_50">
      <g>
       <use style="stroke:#000000;stroke-width:0.5;" x="324.131277405" xlink:href="#m93b0483c22" y="359.056342822"/>
      </g>
     </g>
     <g id="line2d_51">
      <g>
       <use style="stroke:#000000;stroke-width:0.5;" x="324.131277405" xlink:href="#m741efc42ff" y="13.4563428218"/>
      </g>
     </g>
     <g id="text_4">
      <!-- 3 -->
      <defs>
       <path d="
M40.5781 39.3125
Q47.6562 37.7969 51.625 33
Q55.6094 28.2188 55.6094 21.1875
Q55.6094 10.4062 48.1875 4.48438
Q40.7656 -1.42188 27.0938 -1.42188
Q22.5156 -1.42188 17.6562 -0.515625
Q12.7969 0.390625 7.625 2.20312
L7.625 11.7188
Q11.7188 9.32812 16.5938 8.10938
Q21.4844 6.89062 26.8125 6.89062
Q36.0781 6.89062 40.9375 10.5469
Q45.7969 14.2031 45.7969 21.1875
Q45.7969 27.6406 41.2812 31.2656
Q36.7656 34.9062 28.7188 34.9062
L20.2188 34.9062
L20.2188 43.0156
L29.1094 43.0156
Q36.375 43.0156 40.2344 45.9219
Q44.0938 48.8281 44.0938 54.2969
Q44.0938 59.9062 40.1094 62.9062
Q36.1406 65.9219 28.7188 65.9219
Q24.6562 65.9219 20.0156 65.0312
Q15.375 64.1562 9.8125 62.3125
L9.8125 71.0938
Q15.4375 72.6562 20.3438 73.4375
Q25.25 74.2188 29.5938 74.2188
Q40.8281 74.2188 47.3594 69.1094
Q53.9062 64.0156 53.9062 55.3281
Q53.9062 49.2656 50.4375 45.0938
Q46.9688 40.9219 40.5781 39.3125" id="BitstreamVeraSans-Roman-33"/>
      </defs>
      <g transform="translate(319.332839905 378.253217822)scale(0.2 -0.2)">
       <use xlink:href="#BitstreamVeraSans-Roman-33"/>
      </g>
     </g>
    </g>
    <g id="xtick_5">
     <g id="line2d_52">
      <path clip-path="url(#p4b24e7e61f)" d="
M410.534 359.056
L410.534 13.4563" style="fill:none;stroke:#000000;stroke-dasharray:1.000000,3.000000;stroke-dashoffset:0.0;stroke-width:0.5;"/>
     </g>
     <g id="line2d_53">
      <g>
       <use style="stroke:#000000;stroke-width:0.5;" x="410.53441154" xlink:href="#m93b0483c22" y="359.056342822"/>
      </g>
     </g>
     <g id="line2d_54">
      <g>
       <use style="stroke:#000000;stroke-width:0.5;" x="410.53441154" xlink:href="#m741efc42ff" y="13.4563428218"/>
      </g>
     </g>
     <g id="text_5">
      <!-- 4 -->
      <defs>
       <path d="
M37.7969 64.3125
L12.8906 25.3906
L37.7969 25.3906
z

M35.2031 72.9062
L47.6094 72.9062
L47.6094 25.3906
L58.0156 25.3906
L58.0156 17.1875
L47.6094 17.1875
L47.6094 0
L37.7969 0
L37.7969 17.1875
L4.89062 17.1875
L4.89062 26.7031
z
" id="BitstreamVeraSans-Roman-34"/>
      </defs>
      <g transform="translate(405.22191154 378.253217822)scale(0.2 -0.2)">
       <use xlink:href="#BitstreamVeraSans-Roman-34"/>
      </g>
     </g>
    </g>
    <g id="xtick_6">
     <g id="line2d_55">
      <path clip-path="url(#p4b24e7e61f)" d="
M496.938 359.056
L496.938 13.4563" style="fill:none;stroke:#000000;stroke-dasharray:1.000000,3.000000;stroke-dashoffset:0.0;stroke-width:0.5;"/>
     </g>
     <g id="line2d_56">
      <g>
       <use style="stroke:#000000;stroke-width:0.5;" x="496.937545674" xlink:href="#m93b0483c22" y="359.056342822"/>
      </g>
     </g>
     <g id="line2d_57">
      <g>
       <use style="stroke:#000000;stroke-width:0.5;" x="496.937545674" xlink:href="#m741efc42ff" y="13.4563428218"/>
      </g>
     </g>
     <g id="text_6">
      <!-- 5 -->
      <defs>
       <path d="
M10.7969 72.9062
L49.5156 72.9062
L49.5156 64.5938
L19.8281 64.5938
L19.8281 46.7344
Q21.9688 47.4688 24.1094 47.8281
Q26.2656 48.1875 28.4219 48.1875
Q40.625 48.1875 47.75 41.5
Q54.8906 34.8125 54.8906 23.3906
Q54.8906 11.625 47.5625 5.09375
Q40.2344 -1.42188 26.9062 -1.42188
Q22.3125 -1.42188 17.5469 -0.640625
Q12.7969 0.140625 7.71875 1.70312
L7.71875 11.625
Q12.1094 9.23438 16.7969 8.0625
Q21.4844 6.89062 26.7031 6.89062
Q35.1562 6.89062 40.0781 11.3281
Q45.0156 15.7656 45.0156 23.3906
Q45.0156 31 40.0781 35.4375
Q35.1562 39.8906 26.7031 39.8906
Q22.75 39.8906 18.8125 39.0156
Q14.8906 38.1406 10.7969 36.2812
z
" id="BitstreamVeraSans-Roman-35"/>
      </defs>
      <g transform="translate(492.220358174 378.253217822)scale(0.2 -0.2)">
       <use xlink:href="#BitstreamVeraSans-Roman-35"/>
      </g>
     </g>
    </g>
    <g id="xtick_7">
     <g id="line2d_58">
      <defs>
       <path d="
M0 0
L0 -2" id="m177f7580d0" style="stroke:#000000;stroke-width:0.5;"/>
      </defs>
      <g>
       <use style="stroke:#000000;stroke-width:0.5;" x="90.931810094" xlink:href="#m177f7580d0" y="359.056342822"/>
      </g>
     </g>
     <g id="line2d_59">
      <defs>
       <path d="
M0 0
L0 2" id="m5284c7e2a0" style="stroke:#000000;stroke-width:0.5;"/>
      </defs>
      <g>
       <use style="stroke:#000000;stroke-width:0.5;" x="90.931810094" xlink:href="#m5284c7e2a0" y="13.4563428218"/>
      </g>
     </g>
    </g>
    <g id="xtick_8">
     <g id="line2d_60">
      <g>
       <use style="stroke:#000000;stroke-width:0.5;" x="106.14664677" xlink:href="#m177f7580d0" y="359.056342822"/>
      </g>
     </g>
     <g id="line2d_61">
      <g>
       <use style="stroke:#000000;stroke-width:0.5;" x="106.14664677" xlink:href="#m5284c7e2a0" y="13.4563428218"/>
      </g>
     </g>
    </g>
    <g id="xtick_9">
     <g id="line2d_62">
      <g>
       <use style="stroke:#000000;stroke-width:0.5;" x="116.941745188" xlink:href="#m177f7580d0" y="359.056342822"/>
      </g>
     </g>
     <g id="line2d_63">
      <g>
       <use style="stroke:#000000;stroke-width:0.5;" x="116.941745188" xlink:href="#m5284c7e2a0" y="13.4563428218"/>
      </g>
     </g>
    </g>
    <g id="xtick_10">
     <g id="line2d_64">
      <g>
       <use style="stroke:#000000;stroke-width:0.5;" x="125.315074041" xlink:href="#m177f7580d0" y="359.056342822"/>
      </g>
     </g>
     <g id="line2d_65">
      <g>
       <use style="stroke:#000000;stroke-width:0.5;" x="125.315074041" xlink:href="#m5284c7e2a0" y="13.4563428218"/>
      </g>
     </g>
    </g>
    <g id="xtick_11">
     <g id="line2d_66">
      <g>
       <use style="stroke:#000000;stroke-width:0.5;" x="132.156581864" xlink:href="#m177f7580d0" y="359.056342822"/>
      </g>
     </g>
     <g id="line2d_67">
      <g>
       <use style="stroke:#000000;stroke-width:0.5;" x="132.156581864" xlink:href="#m5284c7e2a0" y="13.4563428218"/>
      </g>
     </g>
    </g>
    <g id="xtick_12">
     <g id="line2d_68">
      <g>
       <use style="stroke:#000000;stroke-width:0.5;" x="137.940994308" xlink:href="#m177f7580d0" y="359.056342822"/>
      </g>
     </g>
     <g id="line2d_69">
      <g>
       <use style="stroke:#000000;stroke-width:0.5;" x="137.940994308" xlink:href="#m5284c7e2a0" y="13.4563428218"/>
      </g>
     </g>
    </g>
    <g id="xtick_13">
     <g id="line2d_70">
      <g>
       <use style="stroke:#000000;stroke-width:0.5;" x="142.951680282" xlink:href="#m177f7580d0" y="359.056342822"/>
      </g>
     </g>
     <g id="line2d_71">
      <g>
       <use style="stroke:#000000;stroke-width:0.5;" x="142.951680282" xlink:href="#m5284c7e2a0" y="13.4563428218"/>
      </g>
     </g>
    </g>
    <g id="xtick_14">
     <g id="line2d_72">
      <g>
       <use style="stroke:#000000;stroke-width:0.5;" x="147.37141854" xlink:href="#m177f7580d0" y="359.056342822"/>
      </g>
     </g>
     <g id="line2d_73">
      <g>
       <use style="stroke:#000000;stroke-width:0.5;" x="147.37141854" xlink:href="#m5284c7e2a0" y="13.4563428218"/>
      </g>
     </g>
    </g>
    <g id="xtick_15">
     <g id="line2d_74">
      <g>
       <use style="stroke:#000000;stroke-width:0.5;" x="177.334944229" xlink:href="#m177f7580d0" y="359.056342822"/>
      </g>
     </g>
     <g id="line2d_75">
      <g>
       <use style="stroke:#000000;stroke-width:0.5;" x="177.334944229" xlink:href="#m5284c7e2a0" y="13.4563428218"/>
      </g>
     </g>
    </g>
    <g id="xtick_16">
     <g id="line2d_76">
      <g>
       <use style="stroke:#000000;stroke-width:0.5;" x="192.549780905" xlink:href="#m177f7580d0" y="359.056342822"/>
      </g>
     </g>
     <g id="line2d_77">
      <g>
       <use style="stroke:#000000;stroke-width:0.5;" x="192.549780905" xlink:href="#m5284c7e2a0" y="13.4563428218"/>
      </g>
     </g>
    </g>
    <g id="xtick_17">
     <g id="line2d_78">
      <g>
       <use style="stroke:#000000;stroke-width:0.5;" x="203.344879323" xlink:href="#m177f7580d0" y="359.056342822"/>
      </g>
     </g>
     <g id="line2d_79">
      <g>
       <use style="stroke:#000000;stroke-width:0.5;" x="203.344879323" xlink:href="#m5284c7e2a0" y="13.4563428218"/>
      </g>
     </g>
    </g>
    <g id="xtick_18">
     <g id="line2d_80">
      <g>
       <use style="stroke:#000000;stroke-width:0.5;" x="211.718208176" xlink:href="#m177f7580d0" y="359.056342822"/>
      </g>
     </g>
     <g id="line2d_81">
      <g>
       <use style="stroke:#000000;stroke-width:0.5;" x="211.718208176" xlink:href="#m5284c7e2a0" y="13.4563428218"/>
      </g>
     </g>
    </g>
    <g id="xtick_19">
     <g id="line2d_82">
      <g>
       <use style="stroke:#000000;stroke-width:0.5;" x="218.559715999" xlink:href="#m177f7580d0" y="359.056342822"/>
      </g>
     </g>
     <g id="line2d_83">
      <g>
       <use style="stroke:#000000;stroke-width:0.5;" x="218.559715999" xlink:href="#m5284c7e2a0" y="13.4563428218"/>
      </g>
     </g>
    </g>
    <g id="xtick_20">
     <g id="line2d_84">
      <g>
       <use style="stroke:#000000;stroke-width:0.5;" x="224.344128443" xlink:href="#m177f7580d0" y="359.056342822"/>
      </g>
     </g>
     <g id="line2d_85">
      <g>
       <use style="stroke:#000000;stroke-width:0.5;" x="224.344128443" xlink:href="#m5284c7e2a0" y="13.4563428218"/>
      </g>
     </g>
    </g>
    <g id="xtick_21">
     <g id="line2d_86">
      <g>
       <use style="stroke:#000000;stroke-width:0.5;" x="229.354814417" xlink:href="#m177f7580d0" y="359.056342822"/>
      </g>
     </g>
     <g id="line2d_87">
      <g>
       <use style="stroke:#000000;stroke-width:0.5;" x="229.354814417" xlink:href="#m5284c7e2a0" y="13.4563428218"/>
      </g>
     </g>
    </g>
    <g id="xtick_22">
     <g id="line2d_88">
      <g>
       <use style="stroke:#000000;stroke-width:0.5;" x="233.774552675" xlink:href="#m177f7580d0" y="359.056342822"/>
      </g>
     </g>
     <g id="line2d_89">
      <g>
       <use style="stroke:#000000;stroke-width:0.5;" x="233.774552675" xlink:href="#m5284c7e2a0" y="13.4563428218"/>
      </g>
     </g>
    </g>
    <g id="xtick_23">
     <g id="line2d_90">
      <g>
       <use style="stroke:#000000;stroke-width:0.5;" x="263.738078364" xlink:href="#m177f7580d0" y="359.056342822"/>
      </g>
     </g>
     <g id="line2d_91">
      <g>
       <use style="stroke:#000000;stroke-width:0.5;" x="263.738078364" xlink:href="#m5284c7e2a0" y="13.4563428218"/>
      </g>
     </g>
    </g>
    <g id="xtick_24">
     <g id="line2d_92">
      <g>
       <use style="stroke:#000000;stroke-width:0.5;" x="278.95291504" xlink:href="#m177f7580d0" y="359.056342822"/>
      </g>
     </g>
     <g id="line2d_93">
      <g>
       <use style="stroke:#000000;stroke-width:0.5;" x="278.95291504" xlink:href="#m5284c7e2a0" y="13.4563428218"/>
      </g>
     </g>
    </g>
    <g id="xtick_25">
     <g id="line2d_94">
      <g>
       <use style="stroke:#000000;stroke-width:0.5;" x="289.748013458" xlink:href="#m177f7580d0" y="359.056342822"/>
      </g>
     </g>
     <g id="line2d_95">
      <g>
       <use style="stroke:#000000;stroke-width:0.5;" x="289.748013458" xlink:href="#m5284c7e2a0" y="13.4563428218"/>
      </g>
     </g>
    </g>
    <g id="xtick_26">
     <g id="line2d_96">
      <g>
       <use style="stroke:#000000;stroke-width:0.5;" x="298.121342311" xlink:href="#m177f7580d0" y="359.056342822"/>
      </g>
     </g>
     <g id="line2d_97">
      <g>
       <use style="stroke:#000000;stroke-width:0.5;" x="298.121342311" xlink:href="#m5284c7e2a0" y="13.4563428218"/>
      </g>
     </g>
    </g>
    <g id="xtick_27">
     <g id="line2d_98">
      <g>
       <use style="stroke:#000000;stroke-width:0.5;" x="304.962850134" xlink:href="#m177f7580d0" y="359.056342822"/>
      </g>
     </g>
     <g id="line2d_99">
      <g>
       <use style="stroke:#000000;stroke-width:0.5;" x="304.962850134" xlink:href="#m5284c7e2a0" y="13.4563428218"/>
      </g>
     </g>
    </g>
    <g id="xtick_28">
     <g id="line2d_100">
      <g>
       <use style="stroke:#000000;stroke-width:0.5;" x="310.747262578" xlink:href="#m177f7580d0" y="359.056342822"/>
      </g>
     </g>
     <g id="line2d_101">
      <g>
       <use style="stroke:#000000;stroke-width:0.5;" x="310.747262578" xlink:href="#m5284c7e2a0" y="13.4563428218"/>
      </g>
     </g>
    </g>
    <g id="xtick_29">
     <g id="line2d_102">
      <g>
       <use style="stroke:#000000;stroke-width:0.5;" x="315.757948552" xlink:href="#m177f7580d0" y="359.056342822"/>
      </g>
     </g>
     <g id="line2d_103">
      <g>
       <use style="stroke:#000000;stroke-width:0.5;" x="315.757948552" xlink:href="#m5284c7e2a0" y="13.4563428218"/>
      </g>
     </g>
    </g>
    <g id="xtick_30">
     <g id="line2d_104">
      <g>
       <use style="stroke:#000000;stroke-width:0.5;" x="320.17768681" xlink:href="#m177f7580d0" y="359.056342822"/>
      </g>
     </g>
     <g id="line2d_105">
      <g>
       <use style="stroke:#000000;stroke-width:0.5;" x="320.17768681" xlink:href="#m5284c7e2a0" y="13.4563428218"/>
      </g>
     </g>
    </g>
    <g id="xtick_31">
     <g id="line2d_106">
      <g>
       <use style="stroke:#000000;stroke-width:0.5;" x="350.141212499" xlink:href="#m177f7580d0" y="359.056342822"/>
      </g>
     </g>
     <g id="line2d_107">
      <g>
       <use style="stroke:#000000;stroke-width:0.5;" x="350.141212499" xlink:href="#m5284c7e2a0" y="13.4563428218"/>
      </g>
     </g>
    </g>
    <g id="xtick_32">
     <g id="line2d_108">
      <g>
       <use style="stroke:#000000;stroke-width:0.5;" x="365.356049175" xlink:href="#m177f7580d0" y="359.056342822"/>
      </g>
     </g>
     <g id="line2d_109">
      <g>
       <use style="stroke:#000000;stroke-width:0.5;" x="365.356049175" xlink:href="#m5284c7e2a0" y="13.4563428218"/>
      </g>
     </g>
    </g>
    <g id="xtick_33">
     <g id="line2d_110">
      <g>
       <use style="stroke:#000000;stroke-width:0.5;" x="376.151147593" xlink:href="#m177f7580d0" y="359.056342822"/>
      </g>
     </g>
     <g id="line2d_111">
      <g>
       <use style="stroke:#000000;stroke-width:0.5;" x="376.151147593" xlink:href="#m5284c7e2a0" y="13.4563428218"/>
      </g>
     </g>
    </g>
    <g id="xtick_34">
     <g id="line2d_112">
      <g>
       <use style="stroke:#000000;stroke-width:0.5;" x="384.524476446" xlink:href="#m177f7580d0" y="359.056342822"/>
      </g>
     </g>
     <g id="line2d_113">
      <g>
       <use style="stroke:#000000;stroke-width:0.5;" x="384.524476446" xlink:href="#m5284c7e2a0" y="13.4563428218"/>
      </g>
     </g>
    </g>
    <g id="xtick_35">
     <g id="line2d_114">
      <g>
       <use style="stroke:#000000;stroke-width:0.5;" x="391.365984269" xlink:href="#m177f7580d0" y="359.056342822"/>
      </g>
     </g>
     <g id="line2d_115">
      <g>
       <use style="stroke:#000000;stroke-width:0.5;" x="391.365984269" xlink:href="#m5284c7e2a0" y="13.4563428218"/>
      </g>
     </g>
    </g>
    <g id="xtick_36">
     <g id="line2d_116">
      <g>
       <use style="stroke:#000000;stroke-width:0.5;" x="397.150396713" xlink:href="#m177f7580d0" y="359.056342822"/>
      </g>
     </g>
     <g id="line2d_117">
      <g>
       <use style="stroke:#000000;stroke-width:0.5;" x="397.150396713" xlink:href="#m5284c7e2a0" y="13.4563428218"/>
      </g>
     </g>
    </g>
    <g id="xtick_37">
     <g id="line2d_118">
      <g>
       <use style="stroke:#000000;stroke-width:0.5;" x="402.161082687" xlink:href="#m177f7580d0" y="359.056342822"/>
      </g>
     </g>
     <g id="line2d_119">
      <g>
       <use style="stroke:#000000;stroke-width:0.5;" x="402.161082687" xlink:href="#m5284c7e2a0" y="13.4563428218"/>
      </g>
     </g>
    </g>
    <g id="xtick_38">
     <g id="line2d_120">
      <g>
       <use style="stroke:#000000;stroke-width:0.5;" x="406.580820945" xlink:href="#m177f7580d0" y="359.056342822"/>
      </g>
     </g>
     <g id="line2d_121">
      <g>
       <use style="stroke:#000000;stroke-width:0.5;" x="406.580820945" xlink:href="#m5284c7e2a0" y="13.4563428218"/>
      </g>
     </g>
    </g>
    <g id="xtick_39">
     <g id="line2d_122">
      <g>
       <use style="stroke:#000000;stroke-width:0.5;" x="436.544346634" xlink:href="#m177f7580d0" y="359.056342822"/>
      </g>
     </g>
     <g id="line2d_123">
      <g>
       <use style="stroke:#000000;stroke-width:0.5;" x="436.544346634" xlink:href="#m5284c7e2a0" y="13.4563428218"/>
      </g>
     </g>
    </g>
    <g id="xtick_40">
     <g id="line2d_124">
      <g>
       <use style="stroke:#000000;stroke-width:0.5;" x="451.75918331" xlink:href="#m177f7580d0" y="359.056342822"/>
      </g>
     </g>
     <g id="line2d_125">
      <g>
       <use style="stroke:#000000;stroke-width:0.5;" x="451.75918331" xlink:href="#m5284c7e2a0" y="13.4563428218"/>
      </g>
     </g>
    </g>
    <g id="xtick_41">
     <g id="line2d_126">
      <g>
       <use style="stroke:#000000;stroke-width:0.5;" x="462.554281728" xlink:href="#m177f7580d0" y="359.056342822"/>
      </g>
     </g>
     <g id="line2d_127">
      <g>
       <use style="stroke:#000000;stroke-width:0.5;" x="462.554281728" xlink:href="#m5284c7e2a0" y="13.4563428218"/>
      </g>
     </g>
    </g>
    <g id="xtick_42">
     <g id="line2d_128">
      <g>
       <use style="stroke:#000000;stroke-width:0.5;" x="470.92761058" xlink:href="#m177f7580d0" y="359.056342822"/>
      </g>
     </g>
     <g id="line2d_129">
      <g>
       <use style="stroke:#000000;stroke-width:0.5;" x="470.92761058" xlink:href="#m5284c7e2a0" y="13.4563428218"/>
      </g>
     </g>
    </g>
    <g id="xtick_43">
     <g id="line2d_130">
      <g>
       <use style="stroke:#000000;stroke-width:0.5;" x="477.769118404" xlink:href="#m177f7580d0" y="359.056342822"/>
      </g>
     </g>
     <g id="line2d_131">
      <g>
       <use style="stroke:#000000;stroke-width:0.5;" x="477.769118404" xlink:href="#m5284c7e2a0" y="13.4563428218"/>
      </g>
     </g>
    </g>
    <g id="xtick_44">
     <g id="line2d_132">
      <g>
       <use style="stroke:#000000;stroke-width:0.5;" x="483.553530848" xlink:href="#m177f7580d0" y="359.056342822"/>
      </g>
     </g>
     <g id="line2d_133">
      <g>
       <use style="stroke:#000000;stroke-width:0.5;" x="483.553530848" xlink:href="#m5284c7e2a0" y="13.4563428218"/>
      </g>
     </g>
    </g>
    <g id="xtick_45">
     <g id="line2d_134">
      <g>
       <use style="stroke:#000000;stroke-width:0.5;" x="488.564216821" xlink:href="#m177f7580d0" y="359.056342822"/>
      </g>
     </g>
     <g id="line2d_135">
      <g>
       <use style="stroke:#000000;stroke-width:0.5;" x="488.564216821" xlink:href="#m5284c7e2a0" y="13.4563428218"/>
      </g>
     </g>
    </g>
    <g id="xtick_46">
     <g id="line2d_136">
      <g>
       <use style="stroke:#000000;stroke-width:0.5;" x="492.98395508" xlink:href="#m177f7580d0" y="359.056342822"/>
      </g>
     </g>
     <g id="line2d_137">
      <g>
       <use style="stroke:#000000;stroke-width:0.5;" x="492.98395508" xlink:href="#m5284c7e2a0" y="13.4563428218"/>
      </g>
     </g>
    </g>
    <g id="text_7">
     <!-- log10 of FEvals / DIM -->
     <defs>
      <path id="BitstreamVeraSans-Roman-20"/>
      <path d="
M9.8125 72.9062
L24.5156 72.9062
L43.1094 23.2969
L61.8125 72.9062
L76.5156 72.9062
L76.5156 0
L66.8906 0
L66.8906 64.0156
L48.0938 14.0156
L38.1875 14.0156
L19.3906 64.0156
L19.3906 0
L9.8125 0
z
" id="BitstreamVeraSans-Roman-4d"/>
      <path d="
M30.6094 48.3906
Q23.3906 48.3906 19.1875 42.75
Q14.9844 37.1094 14.9844 27.2969
Q14.9844 17.4844 19.1562 11.8438
Q23.3438 6.20312 30.6094 6.20312
Q37.7969 6.20312 41.9844 11.8594
Q46.1875 17.5312 46.1875 27.2969
Q46.1875 37.0156 41.9844 42.7031
Q37.7969 48.3906 30.6094 48.3906
M30.6094 56
Q42.3281 56 49.0156 48.375
Q55.7188 40.7656 55.7188 27.2969
Q55.7188 13.875 49.0156 6.21875
Q42.3281 -1.42188 30.6094 -1.42188
Q18.8438 -1.42188 12.1719 6.21875
Q5.51562 13.875 5.51562 27.2969
Q5.51562 40.7656 12.1719 48.375
Q18.8438 56 30.6094 56" id="BitstreamVeraSans-Roman-6f"/>
      <path d="
M9.42188 75.9844
L18.4062 75.9844
L18.4062 0
L9.42188 0
z
" id="BitstreamVeraSans-Roman-6c"/>
      <path d="
M9.8125 72.9062
L51.7031 72.9062
L51.7031 64.5938
L19.6719 64.5938
L19.6719 43.1094
L48.5781 43.1094
L48.5781 34.8125
L19.6719 34.8125
L19.6719 0
L9.8125 0
z
" id="BitstreamVeraSans-Roman-46"/>
      <path d="
M9.8125 72.9062
L55.9062 72.9062
L55.9062 64.5938
L19.6719 64.5938
L19.6719 43.0156
L54.3906 43.0156
L54.3906 34.7188
L19.6719 34.7188
L19.6719 8.29688
L56.7812 8.29688
L56.7812 0
L9.8125 0
z
" id="BitstreamVeraSans-Roman-45"/>
      <path d="
M19.6719 64.7969
L19.6719 8.10938
L31.5938 8.10938
Q46.6875 8.10938 53.6875 14.9375
Q60.6875 21.7812 60.6875 36.5312
Q60.6875 51.1719 53.6875 57.9844
Q46.6875 64.7969 31.5938 64.7969
z

M9.8125 72.9062
L30.0781 72.9062
Q51.2656 72.9062 61.1719 64.0938
Q71.0938 55.2812 71.0938 36.5312
Q71.0938 17.6719 61.125 8.82812
Q51.1719 0 30.0781 0
L9.8125 0
z
" id="BitstreamVeraSans-Roman-44"/>
      <path d="
M25.3906 72.9062
L33.6875 72.9062
L8.29688 -9.28125
L0 -9.28125
z
" id="BitstreamVeraSans-Roman-2f"/>
      <path d="
M2.98438 54.6875
L12.5 54.6875
L29.5938 8.79688
L46.6875 54.6875
L56.2031 54.6875
L35.6875 0
L23.4844 0
z
" id="BitstreamVeraSans-Roman-76"/>
      <path d="
M45.4062 27.9844
Q45.4062 37.75 41.375 43.1094
Q37.3594 48.4844 30.0781 48.4844
Q22.8594 48.4844 18.8281 43.1094
Q14.7969 37.75 14.7969 27.9844
Q14.7969 18.2656 18.8281 12.8906
Q22.8594 7.51562 30.0781 7.51562
Q37.3594 7.51562 41.375 12.8906
Q45.4062 18.2656 45.4062 27.9844
M54.3906 6.78125
Q54.3906 -7.17188 48.1875 -13.9844
Q42 -20.7969 29.2031 -20.7969
Q24.4688 -20.7969 20.2656 -20.0938
Q16.0625 -19.3906 12.1094 -17.9219
L12.1094 -9.1875
Q16.0625 -11.3281 19.9219 -12.3438
Q23.7812 -13.375 27.7812 -13.375
Q36.625 -13.375 41.0156 -8.76562
Q45.4062 -4.15625 45.4062 5.17188
L45.4062 9.625
Q42.625 4.78125 38.2812 2.39062
Q33.9375 0 27.875 0
Q17.8281 0 11.6719 7.65625
Q5.51562 15.3281 5.51562 27.9844
Q5.51562 40.6719 11.6719 48.3281
Q17.8281 56 27.875 56
Q33.9375 56 38.2812 53.6094
Q42.625 51.2188 45.4062 46.3906
L45.4062 54.6875
L54.3906 54.6875
z
" id="BitstreamVeraSans-Roman-67"/>
      <path d="
M37.1094 75.9844
L37.1094 68.5
L28.5156 68.5
Q23.6875 68.5 21.7969 66.5469
Q19.9219 64.5938 19.9219 59.5156
L19.9219 54.6875
L34.7188 54.6875
L34.7188 47.7031
L19.9219 47.7031
L19.9219 0
L10.8906 0
L10.8906 47.7031
L2.29688 47.7031
L2.29688 54.6875
L10.8906 54.6875
L10.8906 58.5
Q10.8906 67.625 15.1406 71.7969
Q19.3906 75.9844 28.6094 75.9844
z
" id="BitstreamVeraSans-Roman-66"/>
      <path d="
M34.2812 27.4844
Q23.3906 27.4844 19.1875 25
Q14.9844 22.5156 14.9844 16.5
Q14.9844 11.7188 18.1406 8.90625
Q21.2969 6.10938 26.7031 6.10938
Q34.1875 6.10938 38.7031 11.4062
Q43.2188 16.7031 43.2188 25.4844
L43.2188 27.4844
z

M52.2031 31.2031
L52.2031 0
L43.2188 0
L43.2188 8.29688
Q40.1406 3.32812 35.5469 0.953125
Q30.9531 -1.42188 24.3125 -1.42188
Q15.9219 -1.42188 10.9531 3.29688
Q6 8.01562 6 15.9219
Q6 25.1406 12.1719 29.8281
Q18.3594 34.5156 30.6094 34.5156
L43.2188 34.5156
L43.2188 35.4062
Q43.2188 41.6094 39.1406 45
Q35.0625 48.3906 27.6875 48.3906
Q23 48.3906 18.5469 47.2656
Q14.1094 46.1406 10.0156 43.8906
L10.0156 52.2031
Q14.9375 54.1094 19.5781 55.0469
Q24.2188 56 28.6094 56
Q40.4844 56 46.3438 49.8438
Q52.2031 43.7031 52.2031 31.2031" id="BitstreamVeraSans-Roman-61"/>
      <path d="
M44.2812 53.0781
L44.2812 44.5781
Q40.4844 46.5312 36.375 47.5
Q32.2812 48.4844 27.875 48.4844
Q21.1875 48.4844 17.8438 46.4375
Q14.5 44.3906 14.5 40.2812
Q14.5 37.1562 16.8906 35.375
Q19.2812 33.5938 26.5156 31.9844
L29.5938 31.2969
Q39.1562 29.25 43.1875 25.5156
Q47.2188 21.7812 47.2188 15.0938
Q47.2188 7.46875 41.1875 3.01562
Q35.1562 -1.42188 24.6094 -1.42188
Q20.2188 -1.42188 15.4531 -0.5625
Q10.6875 0.296875 5.42188 2
L5.42188 11.2812
Q10.4062 8.6875 15.2344 7.39062
Q20.0625 6.10938 24.8125 6.10938
Q31.1562 6.10938 34.5625 8.28125
Q37.9844 10.4531 37.9844 14.4062
Q37.9844 18.0625 35.5156 20.0156
Q33.0625 21.9688 24.7031 23.7812
L21.5781 24.5156
Q13.2344 26.2656 9.51562 29.9062
Q5.8125 33.5469 5.8125 39.8906
Q5.8125 47.6094 11.2812 51.7969
Q16.75 56 26.8125 56
Q31.7812 56 36.1719 55.2656
Q40.5781 54.5469 44.2812 53.0781" id="BitstreamVeraSans-Roman-73"/>
      <path d="
M9.8125 72.9062
L19.6719 72.9062
L19.6719 0
L9.8125 0
z
" id="BitstreamVeraSans-Roman-49"/>
     </defs>
     <g transform="translate(184.025 402.609467822)scale(0.2 -0.2)">
      <use xlink:href="#BitstreamVeraSans-Roman-6c"/>
      <use x="27.783203125" xlink:href="#BitstreamVeraSans-Roman-6f"/>
      <use x="88.96484375" xlink:href="#BitstreamVeraSans-Roman-67"/>
      <use x="152.44140625" xlink:href="#BitstreamVeraSans-Roman-31"/>
      <use x="216.064453125" xlink:href="#BitstreamVeraSans-Roman-30"/>
      <use x="279.6875" xlink:href="#BitstreamVeraSans-Roman-20"/>
      <use x="311.474609375" xlink:href="#BitstreamVeraSans-Roman-6f"/>
      <use x="372.65625" xlink:href="#BitstreamVeraSans-Roman-66"/>
      <use x="407.861328125" xlink:href="#BitstreamVeraSans-Roman-20"/>
      <use x="439.6484375" xlink:href="#BitstreamVeraSans-Roman-46"/>
      <use x="497.16796875" xlink:href="#BitstreamVeraSans-Roman-45"/>
      <use x="560.3515625" xlink:href="#BitstreamVeraSans-Roman-76"/>
      <use x="619.53125" xlink:href="#BitstreamVeraSans-Roman-61"/>
      <use x="680.810546875" xlink:href="#BitstreamVeraSans-Roman-6c"/>
      <use x="708.59375" xlink:href="#BitstreamVeraSans-Roman-73"/>
      <use x="760.693359375" xlink:href="#BitstreamVeraSans-Roman-20"/>
      <use x="792.48046875" xlink:href="#BitstreamVeraSans-Roman-2f"/>
      <use x="826.171875" xlink:href="#BitstreamVeraSans-Roman-20"/>
      <use x="857.958984375" xlink:href="#BitstreamVeraSans-Roman-44"/>
      <use x="934.9609375" xlink:href="#BitstreamVeraSans-Roman-49"/>
      <use x="964.453125" xlink:href="#BitstreamVeraSans-Roman-4d"/>
     </g>
    </g>
   </g>
   <g id="matplotlib.axis_2">
    <g id="ytick_1">
     <g id="line2d_138">
      <path clip-path="url(#p4b24e7e61f)" d="
M64.9219 359.056
L511.322 359.056" style="fill:none;stroke:#000000;stroke-dasharray:1.000000,3.000000;stroke-dashoffset:0.0;stroke-width:0.5;"/>
     </g>
     <g id="line2d_139">
      <defs>
       <path d="
M0 0
L4 0" id="m728421d6d4" style="stroke:#000000;stroke-width:0.5;"/>
      </defs>
      <g>
       <use style="stroke:#000000;stroke-width:0.5;" x="64.921875" xlink:href="#m728421d6d4" y="359.056342822"/>
      </g>
     </g>
     <g id="line2d_140">
      <defs>
       <path d="
M0 0
L-4 0" id="mcb0005524f" style="stroke:#000000;stroke-width:0.5;"/>
      </defs>
      <g>
       <use style="stroke:#000000;stroke-width:0.5;" x="511.321875" xlink:href="#mcb0005524f" y="359.056342822"/>
      </g>
     </g>
     <g id="text_8">
      <!-- 0.0 -->
      <defs>
       <path d="
M10.6875 12.4062
L21 12.4062
L21 0
L10.6875 0
z
" id="BitstreamVeraSans-Roman-2e"/>
      </defs>
      <g transform="translate(31.7625 364.575092822)scale(0.2 -0.2)">
       <use xlink:href="#BitstreamVeraSans-Roman-30"/>
       <use x="63.623046875" xlink:href="#BitstreamVeraSans-Roman-2e"/>
       <use x="95.41015625" xlink:href="#BitstreamVeraSans-Roman-30"/>
      </g>
     </g>
    </g>
    <g id="ytick_2">
     <g id="line2d_141">
      <path clip-path="url(#p4b24e7e61f)" d="
M64.9219 290.621
L511.322 290.621" style="fill:none;stroke:#000000;stroke-dasharray:1.000000,3.000000;stroke-dashoffset:0.0;stroke-width:0.5;"/>
     </g>
     <g id="line2d_142">
      <g>
       <use style="stroke:#000000;stroke-width:0.5;" x="64.921875" xlink:href="#m728421d6d4" y="290.620699257"/>
      </g>
     </g>
     <g id="line2d_143">
      <g>
       <use style="stroke:#000000;stroke-width:0.5;" x="511.321875" xlink:href="#mcb0005524f" y="290.620699257"/>
      </g>
     </g>
     <g id="text_9">
      <!-- 0.2 -->
      <g transform="translate(32.4375 296.139449257)scale(0.2 -0.2)">
       <use xlink:href="#BitstreamVeraSans-Roman-30"/>
       <use x="63.623046875" xlink:href="#BitstreamVeraSans-Roman-2e"/>
       <use x="95.41015625" xlink:href="#BitstreamVeraSans-Roman-32"/>
      </g>
     </g>
    </g>
    <g id="ytick_3">
     <g id="line2d_144">
      <path clip-path="url(#p4b24e7e61f)" d="
M64.9219 222.185
L511.322 222.185" style="fill:none;stroke:#000000;stroke-dasharray:1.000000,3.000000;stroke-dashoffset:0.0;stroke-width:0.5;"/>
     </g>
     <g id="line2d_145">
      <g>
       <use style="stroke:#000000;stroke-width:0.5;" x="64.921875" xlink:href="#m728421d6d4" y="222.185055693"/>
      </g>
     </g>
     <g id="line2d_146">
      <g>
       <use style="stroke:#000000;stroke-width:0.5;" x="511.321875" xlink:href="#mcb0005524f" y="222.185055693"/>
      </g>
     </g>
     <g id="text_10">
      <!-- 0.4 -->
      <g transform="translate(31.55625 227.703805693)scale(0.2 -0.2)">
       <use xlink:href="#BitstreamVeraSans-Roman-30"/>
       <use x="63.623046875" xlink:href="#BitstreamVeraSans-Roman-2e"/>
       <use x="95.41015625" xlink:href="#BitstreamVeraSans-Roman-34"/>
      </g>
     </g>
    </g>
    <g id="ytick_4">
     <g id="line2d_147">
      <path clip-path="url(#p4b24e7e61f)" d="
M64.9219 153.749
L511.322 153.749" style="fill:none;stroke:#000000;stroke-dasharray:1.000000,3.000000;stroke-dashoffset:0.0;stroke-width:0.5;"/>
     </g>
     <g id="line2d_148">
      <g>
       <use style="stroke:#000000;stroke-width:0.5;" x="64.921875" xlink:href="#m728421d6d4" y="153.749412129"/>
      </g>
     </g>
     <g id="line2d_149">
      <g>
       <use style="stroke:#000000;stroke-width:0.5;" x="511.321875" xlink:href="#mcb0005524f" y="153.749412129"/>
      </g>
     </g>
     <g id="text_11">
      <!-- 0.6 -->
      <defs>
       <path d="
M33.0156 40.375
Q26.375 40.375 22.4844 35.8281
Q18.6094 31.2969 18.6094 23.3906
Q18.6094 15.5312 22.4844 10.9531
Q26.375 6.39062 33.0156 6.39062
Q39.6562 6.39062 43.5312 10.9531
Q47.4062 15.5312 47.4062 23.3906
Q47.4062 31.2969 43.5312 35.8281
Q39.6562 40.375 33.0156 40.375
M52.5938 71.2969
L52.5938 62.3125
Q48.875 64.0625 45.0938 64.9844
Q41.3125 65.9219 37.5938 65.9219
Q27.8281 65.9219 22.6719 59.3281
Q17.5312 52.7344 16.7969 39.4062
Q19.6719 43.6562 24.0156 45.9219
Q28.375 48.1875 33.5938 48.1875
Q44.5781 48.1875 50.9531 41.5156
Q57.3281 34.8594 57.3281 23.3906
Q57.3281 12.1562 50.6875 5.35938
Q44.0469 -1.42188 33.0156 -1.42188
Q20.3594 -1.42188 13.6719 8.26562
Q6.98438 17.9688 6.98438 36.375
Q6.98438 53.6562 15.1875 63.9375
Q23.3906 74.2188 37.2031 74.2188
Q40.9219 74.2188 44.7031 73.4844
Q48.4844 72.75 52.5938 71.2969" id="BitstreamVeraSans-Roman-36"/>
      </defs>
      <g transform="translate(31.69375 159.268162129)scale(0.2 -0.2)">
       <use xlink:href="#BitstreamVeraSans-Roman-30"/>
       <use x="63.623046875" xlink:href="#BitstreamVeraSans-Roman-2e"/>
       <use x="95.41015625" xlink:href="#BitstreamVeraSans-Roman-36"/>
      </g>
     </g>
    </g>
    <g id="ytick_5">
     <g id="line2d_150">
      <path clip-path="url(#p4b24e7e61f)" d="
M64.9219 85.3138
L511.322 85.3138" style="fill:none;stroke:#000000;stroke-dasharray:1.000000,3.000000;stroke-dashoffset:0.0;stroke-width:0.5;"/>
     </g>
     <g id="line2d_151">
      <g>
       <use style="stroke:#000000;stroke-width:0.5;" x="64.921875" xlink:href="#m728421d6d4" y="85.3137685644"/>
      </g>
     </g>
     <g id="line2d_152">
      <g>
       <use style="stroke:#000000;stroke-width:0.5;" x="511.321875" xlink:href="#mcb0005524f" y="85.3137685644"/>
      </g>
     </g>
     <g id="text_12">
      <!-- 0.8 -->
      <defs>
       <path d="
M31.7812 34.625
Q24.75 34.625 20.7188 30.8594
Q16.7031 27.0938 16.7031 20.5156
Q16.7031 13.9219 20.7188 10.1562
Q24.75 6.39062 31.7812 6.39062
Q38.8125 6.39062 42.8594 10.1719
Q46.9219 13.9688 46.9219 20.5156
Q46.9219 27.0938 42.8906 30.8594
Q38.875 34.625 31.7812 34.625
M21.9219 38.8125
Q15.5781 40.375 12.0312 44.7188
Q8.5 49.0781 8.5 55.3281
Q8.5 64.0625 14.7188 69.1406
Q20.9531 74.2188 31.7812 74.2188
Q42.6719 74.2188 48.875 69.1406
Q55.0781 64.0625 55.0781 55.3281
Q55.0781 49.0781 51.5312 44.7188
Q48 40.375 41.7031 38.8125
Q48.8281 37.1562 52.7969 32.3125
Q56.7812 27.4844 56.7812 20.5156
Q56.7812 9.90625 50.3125 4.23438
Q43.8438 -1.42188 31.7812 -1.42188
Q19.7344 -1.42188 13.25 4.23438
Q6.78125 9.90625 6.78125 20.5156
Q6.78125 27.4844 10.7812 32.3125
Q14.7969 37.1562 21.9219 38.8125
M18.3125 54.3906
Q18.3125 48.7344 21.8438 45.5625
Q25.3906 42.3906 31.7812 42.3906
Q38.1406 42.3906 41.7188 45.5625
Q45.3125 48.7344 45.3125 54.3906
Q45.3125 60.0625 41.7188 63.2344
Q38.1406 66.4062 31.7812 66.4062
Q25.3906 66.4062 21.8438 63.2344
Q18.3125 60.0625 18.3125 54.3906" id="BitstreamVeraSans-Roman-38"/>
      </defs>
      <g transform="translate(31.803125 90.8325185644)scale(0.2 -0.2)">
       <use xlink:href="#BitstreamVeraSans-Roman-30"/>
       <use x="63.623046875" xlink:href="#BitstreamVeraSans-Roman-2e"/>
       <use x="95.41015625" xlink:href="#BitstreamVeraSans-Roman-38"/>
      </g>
     </g>
    </g>
    <g id="ytick_6">
     <g id="line2d_153">
      <path clip-path="url(#p4b24e7e61f)" d="
M64.9219 16.8781
L511.322 16.8781" style="fill:none;stroke:#000000;stroke-dasharray:1.000000,3.000000;stroke-dashoffset:0.0;stroke-width:0.5;"/>
     </g>
     <g id="line2d_154">
      <g>
       <use style="stroke:#000000;stroke-width:0.5;" x="64.921875" xlink:href="#m728421d6d4" y="16.878125"/>
      </g>
     </g>
     <g id="line2d_155">
      <g>
       <use style="stroke:#000000;stroke-width:0.5;" x="511.321875" xlink:href="#mcb0005524f" y="16.878125"/>
      </g>
     </g>
     <g id="text_13">
      <!-- 1.0 -->
      <g transform="translate(32.640625 22.396875)scale(0.2 -0.2)">
       <use xlink:href="#BitstreamVeraSans-Roman-31"/>
       <use x="63.623046875" xlink:href="#BitstreamVeraSans-Roman-2e"/>
       <use x="95.41015625" xlink:href="#BitstreamVeraSans-Roman-30"/>
      </g>
     </g>
    </g>
    <g id="text_14">
     <!-- proportion of trials -->
     <defs>
      <path d="
M54.8906 33.0156
L54.8906 0
L45.9062 0
L45.9062 32.7188
Q45.9062 40.4844 42.875 44.3281
Q39.8438 48.1875 33.7969 48.1875
Q26.5156 48.1875 22.3125 43.5469
Q18.1094 38.9219 18.1094 30.9062
L18.1094 0
L9.07812 0
L9.07812 54.6875
L18.1094 54.6875
L18.1094 46.1875
Q21.3438 51.125 25.7031 53.5625
Q30.0781 56 35.7969 56
Q45.2188 56 50.0469 50.1719
Q54.8906 44.3438 54.8906 33.0156" id="BitstreamVeraSans-Roman-6e"/>
      <path d="
M9.42188 54.6875
L18.4062 54.6875
L18.4062 0
L9.42188 0
z

M9.42188 75.9844
L18.4062 75.9844
L18.4062 64.5938
L9.42188 64.5938
z
" id="BitstreamVeraSans-Roman-69"/>
      <path d="
M18.3125 70.2188
L18.3125 54.6875
L36.8125 54.6875
L36.8125 47.7031
L18.3125 47.7031
L18.3125 18.0156
Q18.3125 11.3281 20.1406 9.42188
Q21.9688 7.51562 27.5938 7.51562
L36.8125 7.51562
L36.8125 0
L27.5938 0
Q17.1875 0 13.2344 3.875
Q9.28125 7.76562 9.28125 18.0156
L9.28125 47.7031
L2.6875 47.7031
L2.6875 54.6875
L9.28125 54.6875
L9.28125 70.2188
z
" id="BitstreamVeraSans-Roman-74"/>
      <path d="
M41.1094 46.2969
Q39.5938 47.1719 37.8125 47.5781
Q36.0312 48 33.8906 48
Q26.2656 48 22.1875 43.0469
Q18.1094 38.0938 18.1094 28.8125
L18.1094 0
L9.07812 0
L9.07812 54.6875
L18.1094 54.6875
L18.1094 46.1875
Q20.9531 51.1719 25.4844 53.5781
Q30.0312 56 36.5312 56
Q37.4531 56 38.5781 55.875
Q39.7031 55.7656 41.0625 55.5156
z
" id="BitstreamVeraSans-Roman-72"/>
      <path d="
M18.1094 8.20312
L18.1094 -20.7969
L9.07812 -20.7969
L9.07812 54.6875
L18.1094 54.6875
L18.1094 46.3906
Q20.9531 51.2656 25.2656 53.625
Q29.5938 56 35.5938 56
Q45.5625 56 51.7812 48.0938
Q58.0156 40.1875 58.0156 27.2969
Q58.0156 14.4062 51.7812 6.48438
Q45.5625 -1.42188 35.5938 -1.42188
Q29.5938 -1.42188 25.2656 0.953125
Q20.9531 3.32812 18.1094 8.20312
M48.6875 27.2969
Q48.6875 37.2031 44.6094 42.8438
Q40.5312 48.4844 33.4062 48.4844
Q26.2656 48.4844 22.1875 42.8438
Q18.1094 37.2031 18.1094 27.2969
Q18.1094 17.3906 22.1875 11.75
Q26.2656 6.10938 33.4062 6.10938
Q40.5312 6.10938 44.6094 11.75
Q48.6875 17.3906 48.6875 27.2969" id="BitstreamVeraSans-Roman-70"/>
     </defs>
     <g transform="translate(22.396875 278.775092822)rotate(-90.0)scale(0.2 -0.2)">
      <use xlink:href="#BitstreamVeraSans-Roman-70"/>
      <use x="63.4765625" xlink:href="#BitstreamVeraSans-Roman-72"/>
      <use x="102.33984375" xlink:href="#BitstreamVeraSans-Roman-6f"/>
      <use x="163.521484375" xlink:href="#BitstreamVeraSans-Roman-70"/>
      <use x="226.998046875" xlink:href="#BitstreamVeraSans-Roman-6f"/>
      <use x="288.1796875" xlink:href="#BitstreamVeraSans-Roman-72"/>
      <use x="329.29296875" xlink:href="#BitstreamVeraSans-Roman-74"/>
      <use x="368.501953125" xlink:href="#BitstreamVeraSans-Roman-69"/>
      <use x="396.28515625" xlink:href="#BitstreamVeraSans-Roman-6f"/>
      <use x="457.466796875" xlink:href="#BitstreamVeraSans-Roman-6e"/>
      <use x="520.845703125" xlink:href="#BitstreamVeraSans-Roman-20"/>
      <use x="552.6328125" xlink:href="#BitstreamVeraSans-Roman-6f"/>
      <use x="613.814453125" xlink:href="#BitstreamVeraSans-Roman-66"/>
      <use x="649.01953125" xlink:href="#BitstreamVeraSans-Roman-20"/>
      <use x="680.806640625" xlink:href="#BitstreamVeraSans-Roman-74"/>
      <use x="720.015625" xlink:href="#BitstreamVeraSans-Roman-72"/>
      <use x="761.12890625" xlink:href="#BitstreamVeraSans-Roman-69"/>
      <use x="788.912109375" xlink:href="#BitstreamVeraSans-Roman-61"/>
      <use x="850.19140625" xlink:href="#BitstreamVeraSans-Roman-6c"/>
      <use x="877.974609375" xlink:href="#BitstreamVeraSans-Roman-73"/>
     </g>
    </g>
   </g>
   <g id="patch_3">
    <path d="
M64.9219 13.4563
L511.322 13.4563" style="fill:none;stroke:#000000;"/>
   </g>
   <g id="patch_4">
    <path d="
M511.322 359.056
L511.322 13.4563" style="fill:none;stroke:#000000;"/>
   </g>
   <g id="patch_5">
    <path d="
M64.9219 359.056
L511.322 359.056" style="fill:none;stroke:#000000;"/>
   </g>
   <g id="patch_6">
    <path d="
M64.9219 359.056
L64.9219 13.4563" style="fill:none;stroke:#000000;"/>
   </g>
   <g id="text_15">
    <!-- {f20-f24}, 5-D -->
    <defs>
     <path d="
M11.7188 12.4062
L22.0156 12.4062
L22.0156 4
L14.0156 -11.625
L7.71875 -11.625
L11.7188 4
z
" id="BitstreamVeraSans-Roman-2c"/>
     <path d="
M12.5 -9.28125
L15.9219 -9.28125
Q22.75 -9.28125 24.8281 -7.17188
Q26.9062 -5.07812 26.9062 1.90625
L26.9062 14.0156
Q26.9062 21.625 29.0938 25.0938
Q31.2969 28.5625 36.7188 29.8906
Q31.2969 31.1094 29.0938 34.5625
Q26.9062 38.0312 26.9062 45.7031
L26.9062 57.8125
Q26.9062 64.75 24.8281 66.875
Q22.75 69 15.9219 69
L12.5 69
L12.5 75.9844
L15.5781 75.9844
Q27.7344 75.9844 31.8125 72.3906
Q35.8906 68.7969 35.8906 58.0156
L35.8906 46.2969
Q35.8906 39.0156 38.5156 36.2031
Q41.1562 33.4062 48.0938 33.4062
L51.125 33.4062
L51.125 26.4219
L48.0938 26.4219
Q41.1562 26.4219 38.5156 23.5781
Q35.8906 20.75 35.8906 13.375
L35.8906 1.70312
Q35.8906 -9.07812 31.8125 -12.6875
Q27.7344 -16.3125 15.5781 -16.3125
L12.5 -16.3125
z
" id="BitstreamVeraSans-Roman-7d"/>
     <path d="
M51.125 -9.28125
L51.125 -16.3125
L48.0938 -16.3125
Q35.9375 -16.3125 31.8125 -12.6875
Q27.6875 -9.07812 27.6875 1.70312
L27.6875 13.375
Q27.6875 20.75 25.0469 23.5781
Q22.4062 26.4219 15.4844 26.4219
L12.5 26.4219
L12.5 33.4062
L15.4844 33.4062
Q22.4688 33.4062 25.0781 36.2031
Q27.6875 39.0156 27.6875 46.2969
L27.6875 58.0156
Q27.6875 68.7969 31.8125 72.3906
Q35.9375 75.9844 48.0938 75.9844
L51.125 75.9844
L51.125 69
L47.7969 69
Q40.9219 69 38.8125 66.8438
Q36.7188 64.7031 36.7188 57.8125
L36.7188 45.7031
Q36.7188 38.0312 34.5 34.5625
Q32.2812 31.1094 26.9062 29.8906
Q32.3281 28.5625 34.5156 25.0938
Q36.7188 21.625 36.7188 14.0156
L36.7188 1.90625
Q36.7188 -4.98438 38.8125 -7.125
Q40.9219 -9.28125 47.7969 -9.28125
z
" id="BitstreamVeraSans-Roman-7b"/>
     <path d="
M4.89062 31.3906
L31.2031 31.3906
L31.2031 23.3906
L4.89062 23.3906
z
" id="BitstreamVeraSans-Roman-2d"/>
    </defs>
    <g transform="translate(215.8625 35.5652178218)scale(0.2 -0.2)">
     <use xlink:href="#BitstreamVeraSans-Roman-7b"/>
     <use x="63.623046875" xlink:href="#BitstreamVeraSans-Roman-66"/>
     <use x="98.828125" xlink:href="#BitstreamVeraSans-Roman-32"/>
     <use x="162.451171875" xlink:href="#BitstreamVeraSans-Roman-30"/>
     <use x="226.07421875" xlink:href="#BitstreamVeraSans-Roman-2d"/>
     <use x="262.158203125" xlink:href="#BitstreamVeraSans-Roman-66"/>
     <use x="297.36328125" xlink:href="#BitstreamVeraSans-Roman-32"/>
     <use x="360.986328125" xlink:href="#BitstreamVeraSans-Roman-34"/>
     <use x="424.609375" xlink:href="#BitstreamVeraSans-Roman-7d"/>
     <use x="488.232421875" xlink:href="#BitstreamVeraSans-Roman-2c"/>
     <use x="520.01953125" xlink:href="#BitstreamVeraSans-Roman-20"/>
     <use x="551.806640625" xlink:href="#BitstreamVeraSans-Roman-35"/>
     <use x="615.4296875" xlink:href="#BitstreamVeraSans-Roman-2d"/>
     <use x="651.513671875" xlink:href="#BitstreamVeraSans-Roman-44"/>
    </g>
   </g>
   <g id="text_16">
    <!-- absolute targets -->
    <defs>
     <path d="
M56.2031 29.5938
L56.2031 25.2031
L14.8906 25.2031
Q15.4844 15.9219 20.4844 11.0625
Q25.4844 6.20312 34.4219 6.20312
Q39.5938 6.20312 44.4531 7.46875
Q49.3125 8.73438 54.1094 11.2812
L54.1094 2.78125
Q49.2656 0.734375 44.1875 -0.34375
Q39.1094 -1.42188 33.8906 -1.42188
Q20.7969 -1.42188 13.1562 6.1875
Q5.51562 13.8125 5.51562 26.8125
Q5.51562 40.2344 12.7656 48.1094
Q20.0156 56 32.3281 56
Q43.3594 56 49.7812 48.8906
Q56.2031 41.7969 56.2031 29.5938
M47.2188 32.2344
Q47.125 39.5938 43.0938 43.9844
Q39.0625 48.3906 32.4219 48.3906
Q24.9062 48.3906 20.3906 44.1406
Q15.875 39.8906 15.1875 32.1719
z
" id="BitstreamVeraSans-Roman-65"/>
     <path d="
M8.5 21.5781
L8.5 54.6875
L17.4844 54.6875
L17.4844 21.9219
Q17.4844 14.1562 20.5 10.2656
Q23.5312 6.39062 29.5938 6.39062
Q36.8594 6.39062 41.0781 11.0312
Q45.3125 15.6719 45.3125 23.6875
L45.3125 54.6875
L54.2969 54.6875
L54.2969 0
L45.3125 0
L45.3125 8.40625
Q42.0469 3.42188 37.7188 1
Q33.4062 -1.42188 27.6875 -1.42188
Q18.2656 -1.42188 13.375 4.4375
Q8.5 10.2969 8.5 21.5781" id="BitstreamVeraSans-Roman-75"/>
     <path d="
M48.6875 27.2969
Q48.6875 37.2031 44.6094 42.8438
Q40.5312 48.4844 33.4062 48.4844
Q26.2656 48.4844 22.1875 42.8438
Q18.1094 37.2031 18.1094 27.2969
Q18.1094 17.3906 22.1875 11.75
Q26.2656 6.10938 33.4062 6.10938
Q40.5312 6.10938 44.6094 11.75
Q48.6875 17.3906 48.6875 27.2969
M18.1094 46.3906
Q20.9531 51.2656 25.2656 53.625
Q29.5938 56 35.5938 56
Q45.5625 56 51.7812 48.0938
Q58.0156 40.1875 58.0156 27.2969
Q58.0156 14.4062 51.7812 6.48438
Q45.5625 -1.42188 35.5938 -1.42188
Q29.5938 -1.42188 25.2656 0.953125
Q20.9531 3.32812 18.1094 8.20312
L18.1094 0
L9.07812 0
L9.07812 75.9844
L18.1094 75.9844
z
" id="BitstreamVeraSans-Roman-62"/>
    </defs>
    <g transform="translate(64.921875 359.056342822)scale(0.14 -0.14)">
     <use xlink:href="#BitstreamVeraSans-Roman-61"/>
     <use x="61.279296875" xlink:href="#BitstreamVeraSans-Roman-62"/>
     <use x="124.755859375" xlink:href="#BitstreamVeraSans-Roman-73"/>
     <use x="176.85546875" xlink:href="#BitstreamVeraSans-Roman-6f"/>
     <use x="238.037109375" xlink:href="#BitstreamVeraSans-Roman-6c"/>
     <use x="265.8203125" xlink:href="#BitstreamVeraSans-Roman-75"/>
     <use x="329.19921875" xlink:href="#BitstreamVeraSans-Roman-74"/>
     <use x="368.408203125" xlink:href="#BitstreamVeraSans-Roman-65"/>
     <use x="429.931640625" xlink:href="#BitstreamVeraSans-Roman-20"/>
     <use x="461.71875" xlink:href="#BitstreamVeraSans-Roman-74"/>
     <use x="500.927734375" xlink:href="#BitstreamVeraSans-Roman-61"/>
     <use x="562.20703125" xlink:href="#BitstreamVeraSans-Roman-72"/>
     <use x="601.5703125" xlink:href="#BitstreamVeraSans-Roman-67"/>
     <use x="665.046875" xlink:href="#BitstreamVeraSans-Roman-65"/>
     <use x="726.5703125" xlink:href="#BitstreamVeraSans-Roman-74"/>
     <use x="765.779296875" xlink:href="#BitstreamVeraSans-Roman-73"/>
    </g>
   </g>
   <g id="text_17">
    <!-- 0.0.0 -->
    <g style="fill:#808080;" transform="translate(276.06171875 353.520655322)scale(0.1 -0.1)">
     <use xlink:href="#BitstreamVeraSans-Roman-30"/>
     <use x="63.623046875" xlink:href="#BitstreamVeraSans-Roman-2e"/>
     <use x="95.41015625" xlink:href="#BitstreamVeraSans-Roman-30"/>
     <use x="159.033203125" xlink:href="#BitstreamVeraSans-Roman-2e"/>
     <use x="190.8203125" xlink:href="#BitstreamVeraSans-Roman-30"/>
    </g>
   </g>
   <g id="legend_1">
    <g id="patch_7">
     <path d="
M220.384 146.881
L355.859 146.881
L355.859 23.4563
L220.384 23.4563
L220.384 146.881
z
" style="fill:#ffffff;opacity:0.2;stroke:#000000;"/>
    </g>
    <g id="line2d_156">
     <path d="
M234.384 39.6532
L262.384 39.6532" style="fill:none;stroke:#000000;stroke-linecap:square;"/>
    </g>
    <g id="line2d_157"/>
    <g id="text_18">
     <!-- 1: 5/5 -->
     <defs>
      <path d="
M11.7188 12.4062
L22.0156 12.4062
L22.0156 0
L11.7188 0
z

M11.7188 51.7031
L22.0156 51.7031
L22.0156 39.3125
L11.7188 39.3125
z
" id="BitstreamVeraSans-Roman-3a"/>
     </defs>
     <g transform="translate(284.384375 46.6532178218)scale(0.2 -0.2)">
      <use xlink:href="#BitstreamVeraSans-Roman-31"/>
      <use x="63.623046875" xlink:href="#BitstreamVeraSans-Roman-3a"/>
      <use x="97.314453125" xlink:href="#BitstreamVeraSans-Roman-20"/>
      <use x="129.1015625" xlink:href="#BitstreamVeraSans-Roman-35"/>
      <use x="192.724609375" xlink:href="#BitstreamVeraSans-Roman-2f"/>
      <use x="226.416015625" xlink:href="#BitstreamVeraSans-Roman-35"/>
     </g>
    </g>
    <g id="line2d_158">
     <path d="
M234.384 69.0095
L262.384 69.0095" style="fill:none;stroke:#00bfbf;stroke-linecap:square;"/>
    </g>
    <g id="line2d_159"/>
    <g id="text_19">
     <!-- -1: 3/5 -->
     <g transform="translate(284.384375 76.0094678218)scale(0.2 -0.2)">
      <use xlink:href="#BitstreamVeraSans-Roman-2d"/>
      <use x="36.083984375" xlink:href="#BitstreamVeraSans-Roman-31"/>
      <use x="99.70703125" xlink:href="#BitstreamVeraSans-Roman-3a"/>
      <use x="133.3984375" xlink:href="#BitstreamVeraSans-Roman-20"/>
      <use x="165.185546875" xlink:href="#BitstreamVeraSans-Roman-33"/>
      <use x="228.80859375" xlink:href="#BitstreamVeraSans-Roman-2f"/>
      <use x="262.5" xlink:href="#BitstreamVeraSans-Roman-35"/>
     </g>
    </g>
    <g id="line2d_160">
     <path d="
M234.384 98.3657
L262.384 98.3657" style="fill:none;stroke:#bf00bf;stroke-linecap:square;"/>
    </g>
    <g id="line2d_161"/>
    <g id="text_20">
     <!-- -4: 2/5 -->
     <g transform="translate(284.384375 105.365717822)scale(0.2 -0.2)">
      <use xlink:href="#BitstreamVeraSans-Roman-2d"/>
      <use x="36.083984375" xlink:href="#BitstreamVeraSans-Roman-34"/>
      <use x="99.70703125" xlink:href="#BitstreamVeraSans-Roman-3a"/>
      <use x="133.3984375" xlink:href="#BitstreamVeraSans-Roman-20"/>
      <use x="165.185546875" xlink:href="#BitstreamVeraSans-Roman-32"/>
      <use x="228.80859375" xlink:href="#BitstreamVeraSans-Roman-2f"/>
      <use x="262.5" xlink:href="#BitstreamVeraSans-Roman-35"/>
     </g>
    </g>
    <g id="line2d_162">
     <path d="
M234.384 127.722
L262.384 127.722" style="fill:none;stroke:#ff0000;stroke-linecap:square;stroke-width:3.0;"/>
    </g>
    <g id="line2d_163"/>
    <g id="text_21">
     <!-- -8: 2/5 -->
     <g transform="translate(284.384375 134.721967822)scale(0.2 -0.2)">
      <use xlink:href="#BitstreamVeraSans-Roman-2d"/>
      <use x="36.083984375" xlink:href="#BitstreamVeraSans-Roman-38"/>
      <use x="99.70703125" xlink:href="#BitstreamVeraSans-Roman-3a"/>
      <use x="133.3984375" xlink:href="#BitstreamVeraSans-Roman-20"/>
      <use x="165.185546875" xlink:href="#BitstreamVeraSans-Roman-32"/>
      <use x="228.80859375" xlink:href="#BitstreamVeraSans-Roman-2f"/>
      <use x="262.5" xlink:href="#BitstreamVeraSans-Roman-35"/>
     </g>
    </g>
   </g>
  </g>
 </g>
 <defs>
  <clipPath id="p4b24e7e61f">
   <rect height="345.6" width="446.4" x="64.921875" y="13.4563428218"/>
  </clipPath>
 </defs>
</svg>
