<?xml version="1.0" encoding="utf-8" standalone="no"?>
<!DOCTYPE svg PUBLIC "-//W3C//DTD SVG 1.1//EN"
  "http://www.w3.org/Graphics/SVG/1.1/DTD/svg11.dtd">
<!-- Created with matplotlib (http://matplotlib.org/) -->
<svg height="413pt" version="1.1" viewBox="0 0 518 413" width="518pt" xmlns="http://www.w3.org/2000/svg" xmlns:xlink="http://www.w3.org/1999/xlink">
 <defs>
  <style type="text/css">
*{stroke-linecap:butt;stroke-linejoin:round;}
  </style>
 </defs>
 <g id="figure_1">
  <g id="patch_1">
   <path d="
M0 413.969
L518.522 413.969
L518.522 0
L0 0
z
" style="fill:#ffffff;"/>
  </g>
  <g id="axes_1">
   <g id="patch_2">
    <path d="
M64.9219 359.056
L511.322 359.056
L511.322 13.4563
L64.9219 13.4563
z
" style="fill:#ffffff;"/>
   </g>
   <g id="line2d_1">
    <path clip-path="url(#p4b24e7e61f)" d="
M256.016 359.056
L256.016 354.494
L258.856 354.494
L258.856 349.932
L259.868 349.932
L259.868 345.369
L260.24 345.369
L260.24 340.807
L260.568 340.807
L260.568 336.244
L261.216 336.244
L261.216 331.682
L261.256 331.682
L261.256 327.12
L261.496 327.12
L261.496 322.557
L263.095 322.557
L263.095 317.995
L264.074 317.995
L264.074 313.433
L264.481 313.433
L264.481 308.87
L264.738 308.87
L264.738 304.308
L277.343 304.308
L277.343 299.745
L282.37 299.745
L282.37 295.183
L282.643 295.183
L282.643 290.621
L286.741 290.621
L286.741 286.058
L287.045 286.058
L287.045 281.496
L292.111 281.496
L292.111 276.934
L301.314 276.934
L301.314 272.371
L301.752 272.371
L301.752 267.809
L304.699 267.809
L304.699 263.246
L313.843 263.246
L313.843 258.684
L321.384 258.684
L321.384 254.122
L340.373 254.122
L340.373 249.559
L343.491 249.559
L343.491 244.997
L348.24 244.997
L348.24 240.435
L367.462 240.435
L367.462 235.872
L376.534 235.872
L376.534 231.31
L381.145 231.31
L381.145 226.747
L381.145 226.747
L381.145 226.747
L511.322 226.747" style="fill:none;stroke:#f5deb3;stroke-linecap:square;"/>
   </g>
   <g id="line2d_2"/>
   <g id="line2d_3">
    <path clip-path="url(#p4b24e7e61f)" d="
M163.951 359.056
L163.951 354.494
L165.008 354.494
L165.008 349.932
L174.612 349.932
L174.612 345.369
L236.817 345.369
L236.817 340.807
L252.541 340.807
L252.541 336.244
L286.333 336.244
L286.333 331.682
L295.527 331.682
L295.527 327.12
L300.194 327.12
L300.194 322.557
L310.066 322.557
L310.066 317.995
L311.804 317.995
L311.804 313.433
L316.529 313.433
L316.529 308.87
L322.317 308.87
L322.317 304.308
L326.894 304.308
L326.894 299.745
L328.982 299.745
L328.982 295.183
L333.171 295.183
L333.171 290.621
L352.342 290.621
L352.342 286.058
L354.434 286.058
L354.434 281.496
L355.659 281.496
L355.659 276.934
L355.991 276.934
L355.991 272.371
L356.59 272.371
L356.59 267.809
L356.817 267.809
L356.817 263.246
L358.159 263.246
L358.159 258.684
L358.259 258.684
L358.259 254.122
L359.705 254.122
L359.705 249.559
L359.839 249.559
L359.839 244.997
L362.14 244.997
L362.14 240.435
L362.614 240.435
L362.614 235.872
L363.04 235.872
L363.04 231.31
L363.077 231.31
L363.077 226.747
L363.975 226.747
L363.975 222.185
L364.182 222.185
L364.182 217.623
L365.396 217.623
L365.396 213.06
L372.534 213.06
L372.534 208.498
L374.104 208.498
L374.104 203.936
L378.226 203.936
L378.226 199.373
L381.855 199.373
L381.855 194.811
L391.437 194.811
L391.437 190.248
L399.498 190.248
L399.498 185.686
L403.6 185.686
L403.6 181.124
L406.406 181.124
L406.406 176.561
L406.406 176.561
L406.406 176.561
L511.322 176.561" style="fill:none;stroke:#f5deb3;stroke-linecap:square;"/>
   </g>
   <g id="line2d_4">
    <path clip-path="url(#p4b24e7e61f)" d="
M266.695 359.056
L266.695 354.494
L271.961 354.494
L271.961 349.932
L272.972 349.932
L273.06 340.807
L273.177 340.807
L273.177 336.244
L274.692 336.244
L274.692 331.682
L275.331 331.682
L275.331 327.12
L276.658 327.12
L276.658 322.557
L276.87 322.557
L276.87 317.995
L278.22 317.995
L278.22 313.433
L279.128 313.433
L279.128 308.87
L279.671 308.87
L279.671 304.308
L280.256 304.308
L280.256 299.745
L280.425 299.745
L280.425 295.183
L280.76 295.183
L280.76 290.621
L280.998 290.621
L281.092 276.934
L281.351 276.934
L281.445 267.809
L281.632 267.809
L281.632 263.246
L282.529 263.246
L282.529 258.684
L283.25 258.684
L283.25 254.122
L283.539 254.122
L283.539 249.559
L283.672 249.559
L283.672 244.997
L284.284 244.997
L284.371 235.872
L285.836 235.872
L285.836 231.31
L286.209 231.31
L286.209 226.747
L286.497 226.747
L286.497 222.185
L286.863 222.185
L286.863 217.623
L287.426 217.623
L287.506 208.498
L287.724 208.498
L287.724 203.936
L288.392 203.936
L288.392 199.373
L288.971 199.373
L288.971 194.811
L289.276 194.811
L289.371 185.686
L289.409 185.686
L289.409 181.124
L289.71 181.124
L289.729 171.999
L290.27 171.999
L290.325 162.874
L290.638 162.874
L290.675 153.749
L291.202 153.749
L291.22 144.625
L291.436 144.625
L291.471 135.5
L292.093 135.5
L292.093 130.938
L292.339 130.938
L292.339 126.375
L294.318 126.375
L294.318 121.813
L296.636 121.813
L296.636 117.25
L297.971 117.25
L297.971 112.688
L299.231 112.688
L299.231 108.126
L302.88 108.126
L302.88 103.563
L310.283 103.563
L310.283 99.0009
L310.597 99.0009
L310.597 94.4385
L311.794 94.4385
L311.794 89.8761
L312.219 89.8761
L312.219 85.3138
L312.455 85.3138
L312.455 80.7514
L315.267 80.7514
L315.267 76.189
L318.306 76.189
L318.306 71.6266
L325.905 71.6266
L325.905 67.0643
L330.048 67.0643
L330.048 62.5019
L335.231 62.5019
L335.231 57.9395
L335.404 57.9395
L335.404 53.3771
L339.326 53.3771
L339.326 48.8148
L344.855 48.8148
L344.855 44.2524
L347.655 44.2524
L347.655 39.69
L359.6 39.69
L359.6 35.1276
L365.08 35.1276
L365.08 30.5653
L368.023 30.5653
L368.023 26.0029
L369.76 26.0029
L369.76 21.4405
L377.551 21.4405
L377.551 16.8781
L377.551 16.8781
L511.322 16.8781
L511.322 16.8781" style="fill:none;stroke:#f5deb3;stroke-linecap:square;"/>
   </g>
   <g id="line2d_5">
    <path clip-path="url(#p4b24e7e61f)" d="
M310.022 359.056
L310.022 354.494
L311.11 354.494
L311.11 349.932
L321.198 349.932
L321.198 345.369
L321.825 345.369
L321.825 340.807
L322.088 340.807
L322.088 336.244
L329.31 336.244
L329.31 331.682
L335.714 331.682
L335.714 327.12
L343.795 327.12
L343.795 322.557
L344.14 322.557
L344.14 317.995
L345.654 317.995
L345.654 313.433
L350.928 313.433
L350.928 308.87
L351.725 308.87
L351.725 304.308
L355.307 304.308
L355.307 299.745
L356.801 299.745
L356.801 295.183
L364.636 295.183
L364.636 290.621
L406.148 290.621
L406.148 286.058
L410.155 286.058
L410.155 281.496
L410.155 281.496
L410.155 276.934
L410.87 276.934
L410.87 272.371
L414.085 272.371
L414.085 267.809
L418.037 267.809
L418.037 263.246
L419.231 263.246
L419.231 258.684
L419.768 258.684
L419.768 254.122
L423.896 254.122
L423.896 249.559
L424.292 249.559
L424.292 244.997
L425.157 244.997
L425.157 240.435
L426.629 240.435
L426.629 235.872
L430.324 235.872
L430.324 231.31
L430.966 231.31
L430.966 226.747
L431.596 226.747
L431.596 222.185
L432.152 222.185
L432.152 217.623
L433.612 217.623
L433.612 213.06
L434.586 213.06
L434.586 208.498
L435.458 208.498
L435.458 203.936
L437.162 203.936
L437.162 199.373
L438.085 199.373
L438.085 194.811
L438.463 194.811
L438.463 190.248
L438.479 190.248
L438.479 185.686
L438.975 185.686
L438.975 181.124
L442.269 181.124
L442.269 176.561
L442.564 176.561
L442.564 171.999
L451.504 171.999
L451.504 167.437
L452.309 167.437
L452.309 162.874
L452.34 162.874
L452.34 158.312
L460.13 158.312
L460.13 153.749
L463.328 153.749
L463.328 149.187
L468.463 149.187
L468.463 144.625
L468.463 144.625
L468.463 144.625
L511.322 144.625" style="fill:none;stroke:#f5deb3;stroke-linecap:square;"/>
   </g>
   <g id="line2d_6"/>
   <g id="line2d_7">
    <path clip-path="url(#p4b24e7e61f)" d="
M292.549 359.056
L292.549 354.494
L293.154 354.494
L293.154 349.932
L293.681 349.932
L293.681 345.369
L294.234 345.369
L294.234 340.807
L294.351 340.807
L294.351 336.244
L296.149 336.244
L296.149 331.682
L296.291 331.682
L296.291 327.12
L296.854 327.12
L296.854 322.557
L297.194 322.557
L297.225 313.433
L297.424 313.433
L297.486 299.745
L297.562 299.745
L297.653 290.621
L297.971 290.621
L298.031 281.496
L298.091 281.496
L298.136 272.371
L298.286 272.371
L298.331 254.122
L298.82 254.122
L298.82 249.559
L298.967 249.559
L298.967 244.997
L299.245 244.997
L299.245 240.435
L299.895 240.435
L299.895 235.872
L300.123 235.872
L300.123 231.31
L300.364 231.31
L300.393 222.185
L300.506 222.185
L300.506 217.623
L300.632 217.623
L300.632 213.06
L300.954 213.06
L301.023 203.936
L301.493 203.936
L301.506 194.811
L301.725 194.811
L301.725 190.248
L302.574 190.248
L302.574 185.686
L303.143 185.686
L303.143 181.124
L303.6 181.124
L303.691 171.999
L303.717 171.999
L303.717 167.437
L303.897 167.437
L303.897 162.874
L304.077 162.874
L304.077 158.312
L304.963 158.312
L305.025 149.187
L305.816 149.187
L305.816 144.625
L308.721 144.625
L308.721 140.062
L308.969 140.062
L308.969 135.5
L312.7 135.5
L312.7 130.938
L312.843 130.938
L312.843 126.375
L314.499 126.375
L314.499 121.813
L315.598 121.813
L315.598 117.25
L315.739 117.25
L315.739 112.688
L316.84 112.688
L316.913 103.563
L317.517 103.563
L317.517 99.0009
L317.669 99.0009
L317.705 89.8761
L318.419 89.8761
L318.419 85.3138
L319.53 85.3138
L319.53 80.7514
L319.885 80.7514
L319.885 76.189
L321.133 76.189
L321.133 71.6266
L323.366 71.6266
L323.366 67.0643
L323.905 67.0643
L323.905 62.5019
L325.919 62.5019
L325.919 57.9395
L328.041 57.9395
L328.041 53.3771
L333.681 53.3771
L333.681 48.8148
L340.784 48.8148
L340.784 44.2524
L349.612 44.2524
L349.612 39.69
L351.868 39.69
L351.868 35.1276
L354.982 35.1276
L354.982 30.5653
L355.587 30.5653
L355.587 26.0029
L364.128 26.0029
L364.128 21.4405
L403.774 21.4405
L403.774 16.8781
L403.774 16.8781
L511.322 16.8781
L511.322 16.8781" style="fill:none;stroke:#f5deb3;stroke-linecap:square;"/>
   </g>
   <g id="line2d_8">
    <path clip-path="url(#p4b24e7e61f)" d="
M489.789 359.056
L489.789 354.494
L490.425 354.494
L490.425 349.932
L490.425 349.932
L490.425 349.932
L511.322 349.932" style="fill:none;stroke:#f5deb3;stroke-linecap:square;"/>
   </g>
   <g id="line2d_9">
    <path clip-path="url(#p4b24e7e61f)" d="
M287.724 359.056
L287.724 354.494
L288.663 354.494
L288.663 349.932
L289.39 349.932
L289.39 345.369
L290.583 345.369
L290.583 340.807
L290.894 340.807
L291.003 331.682
L291.597 331.682
L291.597 327.12
L292.234 327.12
L292.234 322.557
L292.653 322.557
L292.653 317.995
L292.861 317.995
L292.965 304.308
L292.982 304.308
L292.982 299.745
L293.529 299.745
L293.529 295.183
L293.748 295.183
L293.748 290.621
L293.917 290.621
L293.934 281.496
L294.068 281.496
L294.068 276.934
L294.184 276.934
L294.184 272.371
L294.417 272.371
L294.5 263.246
L294.992 263.246
L294.992 258.684
L295.398 258.684
L295.398 254.122
L295.591 254.122
L295.591 249.559
L295.752 249.559
L295.752 244.997
L296.007 244.997
L296.086 231.31
L296.307 231.31
L296.386 208.498
L296.433 208.498
L296.433 203.936
L296.683 203.936
L296.683 199.373
L296.916 199.373
L296.932 190.248
L297.501 190.248
L297.547 181.124
L297.986 181.124
L297.986 176.561
L298.316 176.561
L298.391 167.437
L298.806 167.437
L298.894 158.312
L299.143 158.312
L299.143 153.749
L300.081 153.749
L300.166 140.062
L301.106 140.062
L301.106 135.5
L301.752 135.5
L301.752 130.938
L306.627 130.938
L306.627 126.375
L307.244 126.375
L307.244 121.813
L307.92 121.813
L307.92 117.25
L309.048 117.25
L309.048 112.688
L309.271 112.688
L309.271 108.126
L310.597 108.126
L310.597 103.563
L312.012 103.563
L312.012 99.0009
L312.209 99.0009
L312.209 94.4385
L312.547 94.4385
L312.547 89.8761
L314.304 89.8761
L314.304 85.3138
L315.229 85.3138
L315.229 80.7514
L315.842 80.7514
L315.842 76.189
L318.059 76.189
L318.059 71.6266
L325.124 71.6266
L325.124 67.0643
L325.284 67.0643
L325.284 62.5019
L326.19 62.5019
L326.19 57.9395
L331.141 57.9395
L331.141 53.3771
L336.342 53.3771
L336.342 48.8148
L337.569 48.8148
L337.569 44.2524
L338.388 44.2524
L338.388 39.69
L338.721 39.69
L338.721 35.1276
L339.996 35.1276
L339.996 30.5653
L341.622 30.5653
L341.622 26.0029
L344.868 26.0029
L344.868 21.4405
L347.309 21.4405
L347.309 16.8781
L347.309 16.8781
L511.322 16.8781
L511.322 16.8781" style="fill:none;stroke:#f5deb3;stroke-linecap:square;"/>
   </g>
   <g id="line2d_10">
    <path clip-path="url(#p4b24e7e61f)" d="
M479.252 359.056
L479.252 354.494
L481.905 354.494
L481.905 349.932
L486.982 349.932
L486.982 345.369
L486.982 345.369
L486.982 345.369
L511.322 345.369" style="fill:none;stroke:#f5deb3;stroke-linecap:square;"/>
   </g>
   <g id="line2d_11">
    <path clip-path="url(#p4b24e7e61f)" d="
M555.231 359.056" style="fill:none;stroke:#f5deb3;stroke-linecap:square;"/>
   </g>
   <g id="line2d_12">
    <path clip-path="url(#p4b24e7e61f)" d="
M256.972 359.056
L256.972 354.494
L302.091 354.494
L302.091 349.932
L304.37 349.932
L304.37 345.369
L357.359 345.369
L357.359 340.807
L365.493 340.807
L365.493 336.244
L387.828 336.244
L387.828 331.682
L400.342 331.682
L400.342 327.12
L404.032 327.12
L404.032 322.557
L406.652 322.557
L406.652 317.995
L423.184 317.995
L423.184 313.433
L423.184 313.433
L423.184 313.433
L511.322 313.433" style="fill:none;stroke:#f5deb3;stroke-linecap:square;"/>
   </g>
   <g id="line2d_13"/>
   <g id="line2d_14">
    <path clip-path="url(#p4b24e7e61f)" d="
M282.026 359.056
L282.026 354.494
L287.085 354.494
L287.085 349.932
L297.623 349.932
L297.623 345.369
L298.894 345.369
L298.894 340.807
L303.34 340.807
L303.34 336.244
L303.652 336.244
L303.652 331.682
L306.121 331.682
L306.121 327.12
L309.115 327.12
L309.115 322.557
L309.913 322.557
L309.913 317.995
L314.167 317.995
L314.167 313.433
L315.105 313.433
L315.105 308.87
L316.427 308.87
L316.427 304.308
L317.338 304.308
L317.338 299.745
L321.4 299.745
L321.4 295.183
L324.631 295.183
L324.631 290.621
L325.072 290.621
L325.072 286.058
L326.247 286.058
L326.247 281.496
L326.747 281.496
L326.747 276.934
L334.395 276.934
L334.395 272.371
L335.348 272.371
L335.348 267.809
L339.15 267.809
L339.15 263.246
L341.978 263.246
L341.978 258.684
L342.525 258.684
L342.525 254.122
L344.46 254.122
L344.46 249.559
L346.573 249.559
L346.573 244.997
L348.133 244.997
L348.133 240.435
L349.045 240.435
L349.045 235.872
L351.696 235.872
L351.696 231.31
L352.406 231.31
L352.406 226.747
L359.673 226.747
L359.673 222.185
L361.062 222.185
L361.062 217.623
L363.013 217.623
L363.013 213.06
L375.576 213.06
L375.576 208.498
L388.79 208.498
L388.79 203.936
L390.993 203.936
L390.993 199.373
L395.36 199.373
L395.36 194.811
L399.838 194.811
L399.838 190.248
L407.198 190.248
L407.198 185.686
L407.695 185.686
L407.695 181.124
L407.695 181.124
L407.695 181.124
L511.322 181.124" style="fill:none;stroke:#f5deb3;stroke-linecap:square;"/>
   </g>
   <g id="line2d_15"/>
   <g id="line2d_16"/>
   <g id="line2d_17">
    <path clip-path="url(#p4b24e7e61f)" d="
M343.625 359.056
L343.625 354.494
L344.842 354.494
L344.842 349.932
L345.941 349.932
L345.941 345.369
L346.366 345.369
L346.366 340.807
L348.185 340.807
L348.185 336.244
L348.609 336.244
L348.609 331.682
L348.754 331.682
L348.754 327.12
L348.998 327.12
L348.998 322.557
L349.654 322.557
L349.7 313.433
L350.477 313.433
L350.533 295.183
L351.728 295.183
L351.768 286.058
L351.972 286.058
L351.99 276.934
L352.306 276.934
L352.306 272.371
L352.525 272.371
L352.525 267.809
L352.914 267.809
L352.914 263.246
L353.171 263.246
L353.171 258.684
L353.608 258.684
L353.608 254.122
L353.891 254.122
L353.891 249.559
L354.747 249.559
L354.747 244.997
L354.946 244.997
L354.946 240.435
L355.13 240.435
L355.13 235.872
L355.261 235.872
L355.311 226.747
L355.496 226.747
L355.548 217.623
L355.698 217.623
L355.698 213.06
L356.122 213.06
L356.122 208.498
L356.327 208.498
L356.327 203.936
L356.892 203.936
L356.892 199.373
L357.353 199.373
L357.353 194.811
L357.489 194.811
L357.554 185.686
L358.463 185.686
L358.463 181.124
L359.175 181.124
L359.175 176.561
L359.343 176.561
L359.343 171.999
L359.679 171.999
L359.679 167.437
L360.695 167.437
L360.695 162.874
L362.954 162.874
L362.954 158.312
L363.394 158.312
L363.394 153.749
L366.758 153.749
L366.772 144.625
L368.682 144.625
L368.682 140.062
L370.141 140.062
L370.141 135.5
L370.47 135.5
L370.503 126.375
L371.482 126.375
L371.482 121.813
L372.016 121.813
L372.016 117.25
L372.602 117.25
L372.614 108.126
L372.971 108.126
L372.971 103.563
L373.094 103.563
L373.094 99.0009
L373.629 99.0009
L373.629 94.4385
L375.918 94.4385
L375.918 89.8761
L376.063 89.8761
L376.063 85.3138
L376.327 85.3138
L376.327 80.7514
L376.497 80.7514
L376.497 76.189
L377.767 76.189
L377.767 71.6266
L378.966 71.6266
L378.966 67.0643
L380.91 67.0643
L381.017 57.9395
L383.075 57.9395
L383.075 53.3771
L385.706 53.3771
L385.706 48.8148
L387.695 48.8148
L387.695 44.2524
L389.185 44.2524
L389.185 39.69
L391.537 39.69
L391.537 35.1276
L395.769 35.1276
L395.769 30.5653
L395.887 30.5653
L395.887 26.0029
L398.379 26.0029
L398.379 21.4405
L400.873 21.4405
L400.873 16.8781
L400.873 16.8781
L511.322 16.8781
L511.322 16.8781" style="fill:none;stroke:#f5deb3;stroke-linecap:square;"/>
   </g>
   <g id="line2d_18">
    <path clip-path="url(#p4b24e7e61f)" d="
M219.669 359.056
L219.669 354.494
L245.861 354.494
L245.861 349.932
L247.05 349.932
L247.05 345.369
L253.341 345.369
L253.341 340.807
L254.076 340.807
L254.076 336.244
L265.605 336.244
L265.605 331.682
L268.786 331.682
L268.786 327.12
L281.468 327.12
L281.468 322.557
L284.565 322.557
L284.565 317.995
L296.963 317.995
L296.963 313.433
L297.44 313.433
L297.44 308.87
L302.999 308.87
L302.999 304.308
L306.435 304.308
L306.435 299.745
L307.909 299.745
L307.909 295.183
L308.059 295.183
L308.059 290.621
L308.151 290.621
L308.151 286.058
L312.281 286.058
L312.281 281.496
L312.964 281.496
L312.964 276.934
L313.476 276.934
L313.476 272.371
L313.576 272.371
L313.576 267.809
L314.079 267.809
L314.079 263.246
L314.644 263.246
L314.644 258.684
L318.663 258.684
L318.663 254.122
L322.576 254.122
L322.576 249.559
L322.732 249.559
L322.732 244.997
L325.883 244.997
L325.883 240.435
L327.179 240.435
L327.179 235.872
L328.243 235.872
L328.243 231.31
L339.665 231.31
L339.665 226.747
L343.384 226.747
L343.384 222.185
L355.82 222.185
L355.82 217.623
L359.44 217.623
L359.44 213.06
L361.91 213.06
L361.91 208.498
L366.957 208.498
L366.957 203.936
L370.975 203.936
L370.975 199.373
L372.214 199.373
L372.214 194.811
L374.052 194.811
L374.052 190.248
L378.364 190.248
L378.364 185.686
L387.36 185.686
L387.36 181.124
L399.694 181.124
L399.694 176.561
L402.864 176.561
L402.864 171.999
L408.359 171.999
L408.359 167.437
L409.148 167.437
L409.148 162.874
L409.534 162.874
L409.534 158.312
L425.56 158.312
L425.56 153.749
L425.56 153.749
L425.56 153.749
L511.322 153.749" style="fill:none;stroke:#f5deb3;stroke-linecap:square;"/>
   </g>
   <g id="line2d_19">
    <path clip-path="url(#p4b24e7e61f)" d="
M574.691 359.056" style="fill:none;stroke:#f5deb3;stroke-linecap:square;"/>
   </g>
   <g id="line2d_20">
    <path clip-path="url(#p4b24e7e61f)" d="
M233.44 359.056
L233.44 354.494
L237.578 354.494
L237.578 349.932
L240.824 349.932
L240.824 345.369
L241.577 345.369
L241.577 340.807
L243.103 340.807
L243.103 331.682
L243.362 331.682
L243.362 327.12
L244.003 327.12
L244.003 322.557
L244.319 322.557
L244.319 317.995
L245.618 317.995
L245.679 308.87
L246.638 308.87
L246.638 304.308
L247.4 304.308
L247.4 299.745
L249.814 299.745
L249.814 295.183
L250.621 295.183
L250.621 286.058
L252.49 286.058
L252.49 281.496
L254.222 281.496
L254.222 276.934
L256.927 276.934
L256.927 267.809
L257.24 267.809
L257.24 263.246
L257.772 263.246
L257.772 258.684
L258.166 258.684
L258.166 254.122
L258.813 254.122
L258.813 249.559
L260.731 249.559
L260.731 244.997
L261.336 244.997
L261.336 240.435
L262.05 240.435
L262.05 235.872
L262.788 235.872
L262.788 231.31
L265.174 231.31
L265.282 222.185
L265.318 222.185
L265.318 217.623
L265.676 217.623
L265.676 213.06
L266.487 213.06
L266.522 203.936
L268.124 203.936
L268.124 199.373
L270.767 199.373
L270.767 194.811
L271.169 194.811
L271.169 190.248
L272.825 190.248
L272.913 181.124
L277.212 181.124
L277.212 176.561
L277.784 176.561
L277.784 171.999
L277.913 171.999
L277.913 167.437
L278.551 167.437
L278.551 162.874
L278.878 162.874
L278.953 153.749
L284.587 153.749
L284.587 149.187
L289.219 149.187
L289.219 144.625
L289.804 144.625
L289.804 140.062
L291.846 140.062
L291.846 135.5
L295.575 135.5
L295.575 130.938
L296.086 130.938
L296.086 126.375
L298.016 126.375
L298.016 121.813
L301.875 121.813
L301.875 117.25
L303.961 117.25
L303.961 112.688
L305.987 112.688
L305.987 108.126
L306.326 108.126
L306.326 103.563
L309.704 103.563
L309.704 99.0009
L309.869 99.0009
L309.869 94.4385
L311.248 94.4385
L311.248 89.8761
L312.568 89.8761
L312.568 85.3138
L314.011 85.3138
L314.011 80.7514
L315.636 80.7514
L315.636 76.189
L324.963 76.189
L324.963 71.6266
L328.216 71.6266
L328.216 67.0643
L328.644 67.0643
L328.644 62.5019
L333.855 62.5019
L333.855 57.9395
L338.522 57.9395
L338.522 53.3771
L344.109 53.3771
L344.109 48.8148
L354.013 48.8148
L354.013 44.2524
L358.787 44.2524
L358.787 39.69
L359.871 39.69
L359.871 35.1276
L361.671 35.1276
L361.671 30.5653
L363.759 30.5653
L363.759 26.0029
L382.403 26.0029
L382.403 21.4405
L408.565 21.4405
L408.565 16.8781
L408.565 16.8781
L511.322 16.8781
L511.322 16.8781" style="fill:none;stroke:#f5deb3;stroke-linecap:square;"/>
   </g>
   <g id="line2d_21"/>
   <g id="line2d_22">
    <path clip-path="url(#p4b24e7e61f)" d="
M232.156 359.056
L232.156 354.494
L234.024 354.494
L234.024 349.932
L237.953 349.932
L237.953 345.369
L238.398 345.369
L238.398 340.807
L238.983 340.807
L238.983 336.244
L239.128 336.244
L239.128 331.682
L239.487 331.682
L239.487 327.12
L239.915 327.12
L239.985 317.995
L240.824 317.995
L240.824 313.433
L241.644 313.433
L241.644 308.87
L243.103 308.87
L243.103 304.308
L244.129 304.308
L244.129 299.745
L245.313 299.745
L245.313 295.183
L245.861 295.183
L245.861 290.621
L245.981 290.621
L245.981 286.058
L246.221 286.058
L246.221 281.496
L248.26 281.496
L248.26 276.934
L249.211 276.934
L249.211 272.371
L249.923 272.371
L249.923 267.809
L250.78 267.809
L250.78 263.246
L256.746 263.246
L256.746 258.684
L257.24 258.684
L257.24 254.122
L257.728 254.122
L257.728 249.559
L259.617 249.559
L259.617 244.997
L261.176 244.997
L261.176 240.435
L263.133 240.435
L263.133 235.872
L264.037 235.872
L264.037 231.31
L265.605 231.31
L265.605 226.747
L268.819 226.747
L268.819 222.185
L270.171 222.185
L270.171 217.623
L270.611 217.623
L270.611 213.06
L271.323 213.06
L271.323 208.498
L271.567 208.498
L271.567 203.936
L272.884 203.936
L272.884 199.373
L273.698 199.373
L273.698 194.811
L276.444 194.811
L276.444 190.248
L279.892 190.248
L279.892 185.686
L280.521 185.686
L280.521 181.124
L281.069 181.124
L281.069 176.561
L282.914 176.561
L282.914 171.999
L284.759 171.999
L284.759 167.437
L286.762 167.437
L286.762 162.874
L287.665 162.874
L287.665 158.312
L288.644 158.312
L288.644 153.749
L289.729 153.749
L289.804 144.625
L289.86 144.625
L289.86 140.062
L290.711 140.062
L290.711 135.5
L291.31 135.5
L291.31 130.938
L292.023 130.938
L292.023 126.375
L295.188 126.375
L295.204 117.25
L297.486 117.25
L297.486 112.688
L298.599 112.688
L298.599 108.126
L299.026 108.126
L299.026 103.563
L301.259 103.563
L301.259 99.0009
L301.807 99.0009
L301.807 94.4385
L302.213 94.4385
L302.213 89.8761
L302.508 89.8761
L302.508 85.3138
L302.734 85.3138
L302.734 80.7514
L303.104 80.7514
L303.156 71.6266
L305.645 71.6266
L305.645 67.0643
L311.532 67.0643
L311.532 62.5019
L312.568 62.5019
L312.568 57.9395
L316.803 57.9395
L316.803 53.3771
L317.166 53.3771
L317.166 48.8148
L319.674 48.8148
L319.674 44.2524
L320.319 44.2524
L320.319 39.69
L321.432 39.69
L321.432 35.1276
L328.115 35.1276
L328.115 30.5653
L328.691 30.5653
L328.691 26.0029
L340.285 26.0029
L340.285 21.4405
L348.633 21.4405
L348.633 16.8781
L348.633 16.8781
L511.322 16.8781
L511.322 16.8781" style="fill:none;stroke:#f5deb3;stroke-linecap:square;"/>
   </g>
   <g id="line2d_23">
    <path clip-path="url(#p4b24e7e61f)" d="
M486.007 359.056
L486.007 354.494
L490.13 354.494
L490.13 349.932
L490.164 349.932
L490.164 345.369
L492.149 345.369
L492.149 340.807
L492.81 340.807
L492.81 336.244
L494.99 336.244
L494.99 331.682
L495.671 331.682
L495.671 327.12
L496 327.12
L496 322.557
L496 322.557
L496 322.557
L511.322 322.557" style="fill:none;stroke:#f5deb3;stroke-linecap:square;"/>
   </g>
   <g id="line2d_24">
    <path clip-path="url(#p4b24e7e61f)" d="
M275.496 359.056
L275.496 354.494
L277.238 354.494
L277.238 349.932
L281.655 349.932
L281.655 345.369
L282.187 345.369
L282.278 336.244
L282.393 336.244
L282.393 331.682
L282.846 331.682
L282.846 327.12
L283.206 327.12
L283.206 322.557
L285.753 322.557
L285.774 313.433
L286.085 313.433
L286.085 308.87
L286.394 308.87
L286.394 304.308
L286.823 304.308
L286.823 299.745
L287.486 299.745
L287.486 295.183
L287.863 295.183
L287.863 290.621
L288.721 290.621
L288.721 286.058
L289.066 286.058
L289.066 281.496
L290.14 281.496
L290.14 276.934
L290.839 276.934
L290.894 267.809
L292.041 267.809
L292.041 263.246
L293.136 263.246
L293.136 258.684
L293.782 258.684
L293.782 254.122
L295.058 254.122
L295.058 249.559
L295.22 249.559
L295.301 240.435
L295.543 240.435
L295.543 235.872
L296.022 235.872
L296.118 226.747
L296.37 226.747
L296.433 217.623
L296.916 217.623
L296.916 213.06
L297.516 213.06
L297.516 208.498
L297.729 208.498
L297.729 203.936
L298.628 203.936
L298.628 199.373
L299.361 199.373
L299.361 194.811
L299.636 194.811
L299.694 185.686
L300.828 185.686
L300.828 181.124
L301.888 181.124
L301.888 176.561
L302.361 176.561
L302.361 171.999
L303.196 171.999
L303.196 167.437
L303.652 167.437
L303.652 162.874
L303.768 162.874
L303.768 158.312
L305.73 158.312
L305.73 153.749
L306.386 153.749
L306.386 149.187
L307.932 149.187
L307.932 144.625
L308.437 144.625
L308.437 140.062
L308.958 140.062
L308.958 135.5
L309.56 135.5
L309.56 130.938
L309.869 130.938
L309.869 126.375
L310.186 126.375
L310.186 121.813
L311.532 121.813
L311.532 117.25
L312.639 117.25
L312.67 108.126
L312.761 108.126
L312.761 103.563
L313.256 103.563
L313.256 99.0009
L313.754 99.0009
L313.754 94.4385
L314.547 94.4385
L314.547 89.8761
L314.798 89.8761
L314.798 85.3138
L315.56 85.3138
L315.655 76.189
L319.488 76.189
L319.488 71.6266
L320.724 71.6266
L320.724 67.0643
L321.746 67.0643
L321.746 62.5019
L322.12 62.5019
L322.12 57.9395
L329.681 57.9395
L329.681 53.3771
L333.071 53.3771
L333.071 48.8148
L337.809 48.8148
L337.809 44.2524
L349.195 44.2524
L349.195 39.69
L349.322 39.69
L349.322 35.1276
L352.49 35.1276
L352.49 30.5653
L355.415 30.5653
L355.415 26.0029
L372.701 26.0029
L372.701 21.4405
L374.545 21.4405
L374.545 16.8781
L374.545 16.8781
L511.322 16.8781
L511.322 16.8781" style="fill:none;stroke:#f5deb3;stroke-linecap:square;"/>
   </g>
   <g id="line2d_25"/>
   <g id="line2d_26">
    <path clip-path="url(#p4b24e7e61f)" d="
M321.456 359.056
L321.456 354.494
L322.794 354.494
L322.794 349.932
L323.625 349.932
L323.731 336.244
L323.853 336.244
L323.958 327.12
L327.796 327.12
L327.824 317.995
L328.007 317.995
L328.007 313.433
L328.384 313.433
L328.478 304.308
L328.684 304.308
L328.757 295.183
L328.843 295.183
L328.843 290.621
L328.976 290.621
L329.028 281.496
L329.225 281.496
L329.31 272.371
L329.584 272.371
L329.584 267.809
L329.72 267.809
L329.72 263.246
L329.849 263.246
L329.849 258.684
L330.138 258.684
L330.176 244.997
L330.412 244.997
L330.412 240.435
L330.678 240.435
L330.76 222.185
L333.884 222.185
L333.924 208.498
L334.184 208.498
L334.241 199.373
L334.606 199.373
L334.606 194.811
L334.799 194.811
L334.855 185.686
L335.354 185.686
L335.354 181.124
L335.68 181.124
L335.68 176.561
L336.174 176.561
L336.174 171.999
L339.431 171.999
L339.431 167.437
L339.922 167.437
L339.932 158.312
L340.26 158.312
L340.26 153.749
L340.533 153.749
L340.533 149.187
L344.311 149.187
L344.311 144.625
L345.395 144.625
L345.4 135.5
L345.54 135.5
L345.57 121.813
L345.857 121.813
L345.857 117.25
L348.307 117.25
L348.307 112.688
L348.8 112.688
L348.8 108.126
L349.083 108.126
L349.164 94.4385
L349.798 94.4385
L349.798 89.8761
L352.154 89.8761
L352.243 80.7514
L352.631 80.7514
L352.631 76.189
L353.22 76.189
L353.234 67.0643
L356.552 67.0643
L356.552 62.5019
L358.938 62.5019
L358.938 57.9395
L366.158 57.9395
L366.158 53.3771
L366.825 53.3771
L366.929 39.69
L367.97 39.69
L367.97 35.1276
L368.912 35.1276
L368.912 30.5653
L373.268 30.5653
L373.268 26.0029
L375.967 26.0029
L375.967 21.4405
L391.254 21.4405
L391.254 16.8781
L391.254 16.8781
L511.322 16.8781
L511.322 16.8781" style="fill:none;stroke:#f5deb3;stroke-linecap:square;"/>
   </g>
   <g id="line2d_27"/>
   <g id="line2d_28">
    <path clip-path="url(#p4b24e7e61f)" d="
M269.501 359.056
L269.501 354.494
L269.885 354.494
L269.885 349.932
L270.86 349.932
L270.86 345.369
L272.47 345.369
L272.47 340.807
L272.737 340.807
L272.737 336.244
L273.118 336.244
L273.118 331.682
L274.411 331.682
L274.411 327.12
L275.906 327.12
L275.906 322.557
L276.041 322.557
L276.041 317.995
L277.212 317.995
L277.212 313.433
L277.681 313.433
L277.681 308.87
L277.887 308.87
L277.887 304.308
L278.828 304.308
L278.828 299.745
L279.671 299.745
L279.671 295.183
L279.818 295.183
L279.818 290.621
L280.111 290.621
L280.111 286.058
L280.256 286.058
L280.256 281.496
L280.617 281.496
L280.617 276.934
L280.903 276.934
L280.903 272.371
L281.163 272.371
L281.163 267.809
L281.328 267.809
L281.328 263.246
L281.933 263.246
L281.933 258.684
L282.118 258.684
L282.118 254.122
L282.255 254.122
L282.255 249.559
L283.183 249.559
L283.183 244.997
L283.694 244.997
L283.694 240.435
L283.87 240.435
L283.87 235.872
L284.802 235.872
L284.802 231.31
L285.459 231.31
L285.459 226.747
L286.271 226.747
L286.271 222.185
L286.66 222.185
L286.66 217.623
L287.466 217.623
L287.466 213.06
L288.547 213.06
L288.547 208.498
L289.028 208.498
L289.028 203.936
L289.257 203.936
L289.257 199.373
L289.428 199.373
L289.428 194.811
L290.583 194.811
L290.583 190.248
L290.729 190.248
L290.729 185.686
L291.166 185.686
L291.166 181.124
L291.31 181.124
L291.31 176.561
L291.668 176.561
L291.668 171.999
L291.846 171.999
L291.846 167.437
L291.988 167.437
L291.988 162.874
L292.427 162.874
L292.427 158.312
L293.085 158.312
L293.085 153.749
L293.495 153.749
L293.495 149.187
L293.833 149.187
L293.934 140.062
L293.984 140.062
L294.001 130.938
L294.665 130.938
L294.665 126.375
L295.575 126.375
L295.575 121.813
L296.527 121.813
L296.527 117.25
L296.808 117.25
L296.808 112.688
L297.47 112.688
L297.47 108.126
L297.684 108.126
L297.684 103.563
L298.85 103.563
L298.85 99.0009
L299.463 99.0009
L299.463 94.4385
L299.823 94.4385
L299.823 89.8761
L300.109 89.8761
L300.109 85.3138
L301.176 85.3138
L301.176 80.7514
L301.493 80.7514
L301.493 76.189
L301.848 76.189
L301.848 71.6266
L302.293 71.6266
L302.293 67.0643
L302.588 67.0643
L302.588 62.5019
L303.418 62.5019
L303.418 57.9395
L305.025 57.9395
L305.025 53.3771
L305.336 53.3771
L305.336 48.8148
L305.743 48.8148
L305.743 44.2524
L318.862 44.2524
L318.862 39.69
L319.522 39.69
L319.522 35.1276
L322.032 35.1276
L322.032 30.5653
L324.251 30.5653
L324.251 26.0029
L326.431 26.0029
L326.431 21.4405
L338.629 21.4405
L338.629 16.8781
L338.629 16.8781
L511.322 16.8781
L511.322 16.8781" style="fill:none;stroke:#f5deb3;stroke-linecap:square;"/>
   </g>
   <g id="line2d_29">
    <path clip-path="url(#p4b24e7e61f)" d="
M331.228 359.056
L331.228 354.494
L331.228 354.494
L331.228 349.932
L331.228 349.932
L331.228 345.369
L356.062 345.369
L356.062 340.807
L356.062 340.807
L356.062 336.244
L356.062 336.244
L356.062 331.682
L356.062 331.682
L356.062 331.682
L511.322 331.682" style="fill:none;stroke:#f5deb3;stroke-linecap:square;"/>
   </g>
   <g id="line2d_30"/>
   <g id="line2d_31">
    <path clip-path="url(#p4b24e7e61f)" d="
M4.52868 359.056
L4.52868 354.494
L4.52868 354.494
L4.52868 354.494
L4.52868 349.932
L4.52868 349.932
L4.52868 349.932
L4.52868 345.369
L4.52868 345.369
L4.52868 345.369
L4.52868 340.807
L4.52868 340.807
L4.52868 340.807
L4.52868 336.244
L4.52868 336.244
L4.52868 336.244
L4.52868 331.682
L45.7534 331.682
L45.7534 327.12
L77.5478 327.12
L77.5478 322.557
L82.5585 322.557
L82.5585 313.433
L94.5083 313.433
L94.5083 308.87
L97.7733 308.87
L97.7733 304.308
L103.558 304.308
L103.558 299.745
L112.988 299.745
L112.988 295.183
L153.512 295.183
L153.512 290.621
L212.754 290.621
L212.754 286.058
L216.766 286.058
L216.766 281.496
L221.215 281.496
L221.215 276.934
L224.021 276.934
L224.021 272.371
L225.713 272.371
L225.713 267.809
L226.833 267.809
L226.833 263.246
L229.355 263.246
L229.355 258.684
L232.243 258.684
L232.243 254.122
L235.882 254.122
L235.882 249.559
L237.578 249.559
L237.578 244.997
L238.102 244.997
L238.102 240.435
L238.545 240.435
L238.618 231.31
L239.559 231.31
L239.559 226.747
L240.407 226.747
L240.407 217.623
L242.711 217.623
L242.711 213.06
L244.066 213.06
L244.066 208.498
L244.819 208.498
L244.819 203.936
L245.313 203.936
L245.313 199.373
L247.975 199.373
L247.975 194.811
L250.354 194.811
L250.354 190.248
L260.528 190.248
L260.528 185.686
L262.672 185.686
L262.672 181.124
L290.803 181.124
L290.803 176.561
L292.392 176.561
L292.392 171.999
L293.273 171.999
L293.376 162.874
L301.314 162.874
L301.314 158.312
L302.374 158.312
L302.374 153.749
L305.877 153.749
L305.877 149.187
L323.936 149.187
L323.936 144.625
L333.721 144.625
L333.721 140.062
L337.746 140.062
L337.746 135.5
L340.827 135.5
L340.827 130.938
L345.705 130.938
L345.705 126.375
L365.419 126.375
L365.419 121.813
L366.104 121.813
L366.104 117.25
L371.376 117.25
L371.376 112.688
L388.363 112.688
L388.363 108.126
L396.556 108.126
L396.556 103.563
L398.388 103.563
L398.388 99.0009
L399.391 99.0009
L399.391 94.4385
L417.453 94.4385
L417.453 89.8761
L421.408 89.8761
L421.408 85.3138
L433.849 85.3138
L433.849 80.7514
L458.313 80.7514
L458.313 76.189
L460.799 76.189
L460.799 71.6266
L471.247 71.6266
L471.247 67.0643
L471.654 67.0643
L471.723 53.3771
L486.892 53.3771
L486.892 48.8148
L486.892 48.8148
L511.322 48.8148
L511.322 48.8148" style="fill:none;stroke:#000000;stroke-linecap:square;"/>
   </g>
   <g id="line2d_32"/>
   <g id="line2d_33">
    <path clip-path="url(#p4b24e7e61f)" d="
M182.904 359.056
L182.904 354.494
L184.797 354.494
L184.797 349.932
L189.692 349.932
L189.692 345.369
L195.205 345.369
L195.205 340.807
L198.972 340.807
L198.972 336.244
L199.182 336.244
L199.182 331.682
L200.823 331.682
L200.823 327.12
L201.222 327.12
L201.222 322.557
L202.008 322.557
L202.008 317.995
L203.904 317.995
L203.904 313.433
L206.579 313.433
L206.579 308.87
L206.579 308.87
L206.579 304.308
L207.43 304.308
L207.43 299.745
L209.076 299.745
L209.076 295.183
L210.342 295.183
L210.342 290.621
L247.283 290.621
L247.283 286.058
L252.541 286.058
L252.541 281.496
L254.222 281.496
L254.222 276.934
L266.695 276.934
L266.695 272.371
L286.802 272.371
L286.802 267.809
L300.477 267.809
L300.477 263.246
L307.019 263.246
L307.019 258.684
L311.637 258.684
L311.637 254.122
L313.196 254.122
L313.196 249.559
L314.827 249.559
L314.827 244.997
L316.317 244.997
L316.317 240.435
L320.634 240.435
L320.634 235.872
L324.003 235.872
L324.003 231.31
L324.206 231.31
L324.206 226.747
L362.069 226.747
L362.069 222.185
L368.555 222.185
L368.555 217.623
L371.299 217.623
L371.299 213.06
L417.142 213.06
L417.142 208.498
L417.694 208.498
L417.694 203.936
L419.57 203.936
L419.57 199.373
L441.437 199.373
L441.437 194.811
L457.232 194.811
L457.232 190.248
L458.942 190.248
L458.942 185.686
L472.147 185.686
L472.147 181.124
L473.012 181.124
L473.012 176.561
L476.414 176.561
L476.414 171.999
L477.703 171.999
L477.703 167.437
L483.455 167.437
L483.455 162.874
L483.541 162.874
L483.541 158.312
L490 158.312
L490 153.749
L493.695 153.749
L493.695 149.187
L493.695 149.187
L493.695 149.187
L511.322 149.187" style="fill:none;stroke:#00bfbf;stroke-linecap:square;"/>
   </g>
   <g id="line2d_34"/>
   <g id="line2d_35">
    <path clip-path="url(#p4b24e7e61f)" d="
M247.515 359.056
L247.515 354.494
L265.533 354.494
L265.533 349.932
L275.193 349.932
L275.193 345.369
L282.301 345.369
L282.301 340.807
L288.836 340.807
L288.836 336.244
L288.894 336.244
L288.894 331.682
L289.71 331.682
L289.71 327.12
L293.748 327.12
L293.748 322.557
L297.102 322.557
L297.102 317.995
L297.44 317.995
L297.44 313.433
L297.835 313.433
L297.835 308.87
L303.859 308.87
L303.859 304.308
L307.955 304.308
L307.955 299.745
L320.061 299.745
L320.061 295.183
L320.872 295.183
L320.872 290.621
L324.034 290.621
L324.034 286.058
L324.911 286.058
L324.911 281.496
L325.812 281.496
L325.812 276.934
L326.332 276.934
L326.332 272.371
L326.67 272.371
L326.67 267.809
L328.31 267.809
L328.31 263.246
L329.317 263.246
L329.317 258.684
L332.976 258.684
L332.976 254.122
L336.601 254.122
L336.601 249.559
L337.83 249.559
L337.83 244.997
L338.898 244.997
L338.898 240.435
L376.269 240.435
L376.269 235.872
L385.125 235.872
L385.125 231.31
L471.471 231.31
L471.471 226.747
L472.249 226.747
L472.249 222.185
L472.61 222.185
L472.61 217.623
L472.61 217.623
L472.61 217.623
L511.322 217.623" style="fill:none;stroke:#bf00bf;stroke-linecap:square;"/>
   </g>
   <g id="line2d_36"/>
   <g id="line2d_37">
    <path clip-path="url(#p4b24e7e61f)" d="
M313.863 359.056
L313.863 354.494
L318.611 354.494
L318.611 349.932
L323.204 349.932
L323.204 345.369
L326.929 345.369
L326.929 340.807
L327.241 340.807
L327.241 336.244
L334.138 336.244
L334.138 331.682
L334.155 331.682
L334.155 327.12
L334.424 327.12
L334.424 322.557
L343.136 322.557
L343.136 317.995
L344.245 317.995
L344.245 313.433
L345.156 313.433
L345.156 308.87
L471.572 308.87
L471.572 304.308
L472.399 304.308
L472.399 299.745
L472.758 299.745
L472.758 295.183
L472.758 295.183
L472.758 295.183
L511.322 295.183" style="fill:none;stroke:#ff0000;stroke-linecap:square;stroke-width:3.0;"/>
   </g>
   <g id="line2d_38"/>
   <g id="line2d_39">
    <path clip-path="url(#p4b24e7e61f)" d="
M511.322 359.056
L511.322 13.4563" style="fill:none;stroke:#000000;stroke-linecap:square;"/>
   </g>
   <g id="matplotlib.axis_1">
    <g id="xtick_1">
     <g id="line2d_40">
      <path clip-path="url(#p4b24e7e61f)" d="
M64.9219 359.056
L64.9219 13.4563" style="fill:none;stroke:#000000;stroke-dasharray:1.000000,3.000000;stroke-dashoffset:0.0;stroke-width:0.5;"/>
     </g>
     <g id="line2d_41">
      <defs>
       <path d="
M0 0
L0 -4" id="m93b0483c22" style="stroke:#000000;stroke-width:0.5;"/>
      </defs>
      <g>
       <use style="stroke:#000000;stroke-width:0.5;" x="64.921875" xlink:href="#m93b0483c22" y="359.056342822"/>
      </g>
     </g>
     <g id="line2d_42">
      <defs>
       <path d="
M0 0
L0 4" id="m741efc42ff" style="stroke:#000000;stroke-width:0.5;"/>
      </defs>
      <g>
       <use style="stroke:#000000;stroke-width:0.5;" x="64.921875" xlink:href="#m741efc42ff" y="13.4563428218"/>
      </g>
     </g>
     <g id="text_1">
      <!-- 0 -->
      <defs>
       <path d="
M31.7812 66.4062
Q24.1719 66.4062 20.3281 58.9062
Q16.5 51.4219 16.5 36.375
Q16.5 21.3906 20.3281 13.8906
Q24.1719 6.39062 31.7812 6.39062
Q39.4531 6.39062 43.2812 13.8906
Q47.125 21.3906 47.125 36.375
Q47.125 51.4219 43.2812 58.9062
Q39.4531 66.4062 31.7812 66.4062
M31.7812 74.2188
Q44.0469 74.2188 50.5156 64.5156
Q56.9844 54.8281 56.9844 36.375
Q56.9844 17.9688 50.5156 8.26562
Q44.0469 -1.42188 31.7812 -1.42188
Q19.5312 -1.42188 13.0625 8.26562
Q6.59375 17.9688 6.59375 36.375
Q6.59375 54.8281 13.0625 64.5156
Q19.5312 74.2188 31.7812 74.2188" id="BitstreamVeraSans-Roman-30"/>
      </defs>
      <g transform="translate(59.8828125 378.253217822)scale(0.2 -0.2)">
       <use xlink:href="#BitstreamVeraSans-Roman-30"/>
      </g>
     </g>
    </g>
    <g id="xtick_2">
     <g id="line2d_43">
      <path clip-path="url(#p4b24e7e61f)" d="
M151.325 359.056
L151.325 13.4563" style="fill:none;stroke:#000000;stroke-dasharray:1.000000,3.000000;stroke-dashoffset:0.0;stroke-width:0.5;"/>
     </g>
     <g id="line2d_44">
      <g>
       <use style="stroke:#000000;stroke-width:0.5;" x="151.325009135" xlink:href="#m93b0483c22" y="359.056342822"/>
      </g>
     </g>
     <g id="line2d_45">
      <g>
       <use style="stroke:#000000;stroke-width:0.5;" x="151.325009135" xlink:href="#m741efc42ff" y="13.4563428218"/>
      </g>
     </g>
     <g id="text_2">
      <!-- 1 -->
      <defs>
       <path d="
M12.4062 8.29688
L28.5156 8.29688
L28.5156 63.9219
L10.9844 60.4062
L10.9844 69.3906
L28.4219 72.9062
L38.2812 72.9062
L38.2812 8.29688
L54.3906 8.29688
L54.3906 0
L12.4062 0
z
" id="BitstreamVeraSans-Roman-31"/>
      </defs>
      <g transform="translate(146.984384135 378.253217822)scale(0.2 -0.2)">
       <use xlink:href="#BitstreamVeraSans-Roman-31"/>
      </g>
     </g>
    </g>
    <g id="xtick_3">
     <g id="line2d_46">
      <path clip-path="url(#p4b24e7e61f)" d="
M237.728 359.056
L237.728 13.4563" style="fill:none;stroke:#000000;stroke-dasharray:1.000000,3.000000;stroke-dashoffset:0.0;stroke-width:0.5;"/>
     </g>
     <g id="line2d_47">
      <g>
       <use style="stroke:#000000;stroke-width:0.5;" x="237.72814327" xlink:href="#m93b0483c22" y="359.056342822"/>
      </g>
     </g>
     <g id="line2d_48">
      <g>
       <use style="stroke:#000000;stroke-width:0.5;" x="237.72814327" xlink:href="#m741efc42ff" y="13.4563428218"/>
      </g>
     </g>
     <g id="text_3">
      <!-- 2 -->
      <defs>
       <path d="
M19.1875 8.29688
L53.6094 8.29688
L53.6094 0
L7.32812 0
L7.32812 8.29688
Q12.9375 14.1094 22.625 23.8906
Q32.3281 33.6875 34.8125 36.5312
Q39.5469 41.8438 41.4219 45.5312
Q43.3125 49.2188 43.3125 52.7812
Q43.3125 58.5938 39.2344 62.25
Q35.1562 65.9219 28.6094 65.9219
Q23.9688 65.9219 18.8125 64.3125
Q13.6719 62.7031 7.8125 59.4219
L7.8125 69.3906
Q13.7656 71.7812 18.9375 73
Q24.125 74.2188 28.4219 74.2188
Q39.75 74.2188 46.4844 68.5469
Q53.2188 62.8906 53.2188 53.4219
Q53.2188 48.9219 51.5312 44.8906
Q49.8594 40.875 45.4062 35.4062
Q44.1875 33.9844 37.6406 27.2188
Q31.1094 20.4531 19.1875 8.29688" id="BitstreamVeraSans-Roman-32"/>
      </defs>
      <g transform="translate(233.10001827 378.253217822)scale(0.2 -0.2)">
       <use xlink:href="#BitstreamVeraSans-Roman-32"/>
      </g>
     </g>
    </g>
    <g id="xtick_4">
     <g id="line2d_49">
      <path clip-path="url(#p4b24e7e61f)" d="
M324.131 359.056
L324.131 13.4563" style="fill:none;stroke:#000000;stroke-dasharray:1.000000,3.000000;stroke-dashoffset:0.0;stroke-width:0.5;"/>
     </g>
     <g id="line2d_50">
      <g>
       <use style="stroke:#000000;stroke-width:0.5;" x="324.131277405" xlink:href="#m93b0483c22" y="359.056342822"/>
      </g>
     </g>
     <g id="line2d_51">
      <g>
       <use style="stroke:#000000;stroke-width:0.5;" x="324.131277405" xlink:href="#m741efc42ff" y="13.4563428218"/>
      </g>
     </g>
     <g id="text_4">
      <!-- 3 -->
      <defs>
       <path d="
M40.5781 39.3125
Q47.6562 37.7969 51.625 33
Q55.6094 28.2188 55.6094 21.1875
Q55.6094 10.4062 48.1875 4.48438
Q40.7656 -1.42188 27.0938 -1.42188
Q22.5156 -1.42188 17.6562 -0.515625
Q12.7969 0.390625 7.625 2.20312
L7.625 11.7188
Q11.7188 9.32812 16.5938 8.10938
Q21.4844 6.89062 26.8125 6.89062
Q36.0781 6.89062 40.9375 10.5469
Q45.7969 14.2031 45.7969 21.1875
Q45.7969 27.6406 41.2812 31.2656
Q36.7656 34.9062 28.7188 34.9062
L20.2188 34.9062
L20.2188 43.0156
L29.1094 43.0156
Q36.375 43.0156 40.2344 45.9219
Q44.0938 48.8281 44.0938 54.2969
Q44.0938 59.9062 40.1094 62.9062
Q36.1406 65.9219 28.7188 65.9219
Q24.6562 65.9219 20.0156 65.0312
Q15.375 64.1562 9.8125 62.3125
L9.8125 71.0938
Q15.4375 72.6562 20.3438 73.4375
Q25.25 74.2188 29.5938 74.2188
Q40.8281 74.2188 47.3594 69.1094
Q53.9062 64.0156 53.9062 55.3281
Q53.9062 49.2656 50.4375 45.0938
Q46.9688 40.9219 40.5781 39.3125" id="BitstreamVeraSans-Roman-33"/>
      </defs>
      <g transform="translate(319.332839905 378.253217822)scale(0.2 -0.2)">
       <use xlink:href="#BitstreamVeraSans-Roman-33"/>
      </g>
     </g>
    </g>
    <g id="xtick_5">
     <g id="line2d_52">
      <path clip-path="url(#p4b24e7e61f)" d="
M410.534 359.056
L410.534 13.4563" style="fill:none;stroke:#000000;stroke-dasharray:1.000000,3.000000;stroke-dashoffset:0.0;stroke-width:0.5;"/>
     </g>
     <g id="line2d_53">
      <g>
       <use style="stroke:#000000;stroke-width:0.5;" x="410.53441154" xlink:href="#m93b0483c22" y="359.056342822"/>
      </g>
     </g>
     <g id="line2d_54">
      <g>
       <use style="stroke:#000000;stroke-width:0.5;" x="410.53441154" xlink:href="#m741efc42ff" y="13.4563428218"/>
      </g>
     </g>
     <g id="text_5">
      <!-- 4 -->
      <defs>
       <path d="
M37.7969 64.3125
L12.8906 25.3906
L37.7969 25.3906
z

M35.2031 72.9062
L47.6094 72.9062
L47.6094 25.3906
L58.0156 25.3906
L58.0156 17.1875
L47.6094 17.1875
L47.6094 0
L37.7969 0
L37.7969 17.1875
L4.89062 17.1875
L4.89062 26.7031
z
" id="BitstreamVeraSans-Roman-34"/>
      </defs>
      <g transform="translate(405.22191154 378.253217822)scale(0.2 -0.2)">
       <use xlink:href="#BitstreamVeraSans-Roman-34"/>
      </g>
     </g>
    </g>
    <g id="xtick_6">
     <g id="line2d_55">
      <path clip-path="url(#p4b24e7e61f)" d="
M496.938 359.056
L496.938 13.4563" style="fill:none;stroke:#000000;stroke-dasharray:1.000000,3.000000;stroke-dashoffset:0.0;stroke-width:0.5;"/>
     </g>
     <g id="line2d_56">
      <g>
       <use style="stroke:#000000;stroke-width:0.5;" x="496.937545674" xlink:href="#m93b0483c22" y="359.056342822"/>
      </g>
     </g>
     <g id="line2d_57">
      <g>
       <use style="stroke:#000000;stroke-width:0.5;" x="496.937545674" xlink:href="#m741efc42ff" y="13.4563428218"/>
      </g>
     </g>
     <g id="text_6">
      <!-- 5 -->
      <defs>
       <path d="
M10.7969 72.9062
L49.5156 72.9062
L49.5156 64.5938
L19.8281 64.5938
L19.8281 46.7344
Q21.9688 47.4688 24.1094 47.8281
Q26.2656 48.1875 28.4219 48.1875
Q40.625 48.1875 47.75 41.5
Q54.8906 34.8125 54.8906 23.3906
Q54.8906 11.625 47.5625 5.09375
Q40.2344 -1.42188 26.9062 -1.42188
Q22.3125 -1.42188 17.5469 -0.640625
Q12.7969 0.140625 7.71875 1.70312
L7.71875 11.625
Q12.1094 9.23438 16.7969 8.0625
Q21.4844 6.89062 26.7031 6.89062
Q35.1562 6.89062 40.0781 11.3281
Q45.0156 15.7656 45.0156 23.3906
Q45.0156 31 40.0781 35.4375
Q35.1562 39.8906 26.7031 39.8906
Q22.75 39.8906 18.8125 39.0156
Q14.8906 38.1406 10.7969 36.2812
z
" id="BitstreamVeraSans-Roman-35"/>
      </defs>
      <g transform="translate(492.220358174 378.253217822)scale(0.2 -0.2)">
       <use xlink:href="#BitstreamVeraSans-Roman-35"/>
      </g>
     </g>
    </g>
    <g id="xtick_7">
     <g id="line2d_58">
      <defs>
       <path d="
M0 0
L0 -2" id="m177f7580d0" style="stroke:#000000;stroke-width:0.5;"/>
      </defs>
      <g>
       <use style="stroke:#000000;stroke-width:0.5;" x="90.931810094" xlink:href="#m177f7580d0" y="359.056342822"/>
      </g>
     </g>
     <g id="line2d_59">
      <defs>
       <path d="
M0 0
L0 2" id="m5284c7e2a0" style="stroke:#000000;stroke-width:0.5;"/>
      </defs>
      <g>
       <use style="stroke:#000000;stroke-width:0.5;" x="90.931810094" xlink:href="#m5284c7e2a0" y="13.4563428218"/>
      </g>
     </g>
    </g>
    <g id="xtick_8">
     <g id="line2d_60">
      <g>
       <use style="stroke:#000000;stroke-width:0.5;" x="106.14664677" xlink:href="#m177f7580d0" y="359.056342822"/>
      </g>
     </g>
     <g id="line2d_61">
      <g>
       <use style="stroke:#000000;stroke-width:0.5;" x="106.14664677" xlink:href="#m5284c7e2a0" y="13.4563428218"/>
      </g>
     </g>
    </g>
    <g id="xtick_9">
     <g id="line2d_62">
      <g>
       <use style="stroke:#000000;stroke-width:0.5;" x="116.941745188" xlink:href="#m177f7580d0" y="359.056342822"/>
      </g>
     </g>
     <g id="line2d_63">
      <g>
       <use style="stroke:#000000;stroke-width:0.5;" x="116.941745188" xlink:href="#m5284c7e2a0" y="13.4563428218"/>
      </g>
     </g>
    </g>
    <g id="xtick_10">
     <g id="line2d_64">
      <g>
       <use style="stroke:#000000;stroke-width:0.5;" x="125.315074041" xlink:href="#m177f7580d0" y="359.056342822"/>
      </g>
     </g>
     <g id="line2d_65">
      <g>
       <use style="stroke:#000000;stroke-width:0.5;" x="125.315074041" xlink:href="#m5284c7e2a0" y="13.4563428218"/>
      </g>
     </g>
    </g>
    <g id="xtick_11">
     <g id="line2d_66">
      <g>
       <use style="stroke:#000000;stroke-width:0.5;" x="132.156581864" xlink:href="#m177f7580d0" y="359.056342822"/>
      </g>
     </g>
     <g id="line2d_67">
      <g>
       <use style="stroke:#000000;stroke-width:0.5;" x="132.156581864" xlink:href="#m5284c7e2a0" y="13.4563428218"/>
      </g>
     </g>
    </g>
    <g id="xtick_12">
     <g id="line2d_68">
      <g>
       <use style="stroke:#000000;stroke-width:0.5;" x="137.940994308" xlink:href="#m177f7580d0" y="359.056342822"/>
      </g>
     </g>
     <g id="line2d_69">
      <g>
       <use style="stroke:#000000;stroke-width:0.5;" x="137.940994308" xlink:href="#m5284c7e2a0" y="13.4563428218"/>
      </g>
     </g>
    </g>
    <g id="xtick_13">
     <g id="line2d_70">
      <g>
       <use style="stroke:#000000;stroke-width:0.5;" x="142.951680282" xlink:href="#m177f7580d0" y="359.056342822"/>
      </g>
     </g>
     <g id="line2d_71">
      <g>
       <use style="stroke:#000000;stroke-width:0.5;" x="142.951680282" xlink:href="#m5284c7e2a0" y="13.4563428218"/>
      </g>
     </g>
    </g>
    <g id="xtick_14">
     <g id="line2d_72">
      <g>
       <use style="stroke:#000000;stroke-width:0.5;" x="147.37141854" xlink:href="#m177f7580d0" y="359.056342822"/>
      </g>
     </g>
     <g id="line2d_73">
      <g>
       <use style="stroke:#000000;stroke-width:0.5;" x="147.37141854" xlink:href="#m5284c7e2a0" y="13.4563428218"/>
      </g>
     </g>
    </g>
    <g id="xtick_15">
     <g id="line2d_74">
      <g>
       <use style="stroke:#000000;stroke-width:0.5;" x="177.334944229" xlink:href="#m177f7580d0" y="359.056342822"/>
      </g>
     </g>
     <g id="line2d_75">
      <g>
       <use style="stroke:#000000;stroke-width:0.5;" x="177.334944229" xlink:href="#m5284c7e2a0" y="13.4563428218"/>
      </g>
     </g>
    </g>
    <g id="xtick_16">
     <g id="line2d_76">
      <g>
       <use style="stroke:#000000;stroke-width:0.5;" x="192.549780905" xlink:href="#m177f7580d0" y="359.056342822"/>
      </g>
     </g>
     <g id="line2d_77">
      <g>
       <use style="stroke:#000000;stroke-width:0.5;" x="192.549780905" xlink:href="#m5284c7e2a0" y="13.4563428218"/>
      </g>
     </g>
    </g>
    <g id="xtick_17">
     <g id="line2d_78">
      <g>
       <use style="stroke:#000000;stroke-width:0.5;" x="203.344879323" xlink:href="#m177f7580d0" y="359.056342822"/>
      </g>
     </g>
     <g id="line2d_79">
      <g>
       <use style="stroke:#000000;stroke-width:0.5;" x="203.344879323" xlink:href="#m5284c7e2a0" y="13.4563428218"/>
      </g>
     </g>
    </g>
    <g id="xtick_18">
     <g id="line2d_80">
      <g>
       <use style="stroke:#000000;stroke-width:0.5;" x="211.718208176" xlink:href="#m177f7580d0" y="359.056342822"/>
      </g>
     </g>
     <g id="line2d_81">
      <g>
       <use style="stroke:#000000;stroke-width:0.5;" x="211.718208176" xlink:href="#m5284c7e2a0" y="13.4563428218"/>
      </g>
     </g>
    </g>
    <g id="xtick_19">
     <g id="line2d_82">
      <g>
       <use style="stroke:#000000;stroke-width:0.5;" x="218.559715999" xlink:href="#m177f7580d0" y="359.056342822"/>
      </g>
     </g>
     <g id="line2d_83">
      <g>
       <use style="stroke:#000000;stroke-width:0.5;" x="218.559715999" xlink:href="#m5284c7e2a0" y="13.4563428218"/>
      </g>
     </g>
    </g>
    <g id="xtick_20">
     <g id="line2d_84">
      <g>
       <use style="stroke:#000000;stroke-width:0.5;" x="224.344128443" xlink:href="#m177f7580d0" y="359.056342822"/>
      </g>
     </g>
     <g id="line2d_85">
      <g>
       <use style="stroke:#000000;stroke-width:0.5;" x="224.344128443" xlink:href="#m5284c7e2a0" y="13.4563428218"/>
      </g>
     </g>
    </g>
    <g id="xtick_21">
     <g id="line2d_86">
      <g>
       <use style="stroke:#000000;stroke-width:0.5;" x="229.354814417" xlink:href="#m177f7580d0" y="359.056342822"/>
      </g>
     </g>
     <g id="line2d_87">
      <g>
       <use style="stroke:#000000;stroke-width:0.5;" x="229.354814417" xlink:href="#m5284c7e2a0" y="13.4563428218"/>
      </g>
     </g>
    </g>
    <g id="xtick_22">
     <g id="line2d_88">
      <g>
       <use style="stroke:#000000;stroke-width:0.5;" x="233.774552675" xlink:href="#m177f7580d0" y="359.056342822"/>
      </g>
     </g>
     <g id="line2d_89">
      <g>
       <use style="stroke:#000000;stroke-width:0.5;" x="233.774552675" xlink:href="#m5284c7e2a0" y="13.4563428218"/>
      </g>
     </g>
    </g>
    <g id="xtick_23">
     <g id="line2d_90">
      <g>
       <use style="stroke:#000000;stroke-width:0.5;" x="263.738078364" xlink:href="#m177f7580d0" y="359.056342822"/>
      </g>
     </g>
     <g id="line2d_91">
      <g>
       <use style="stroke:#000000;stroke-width:0.5;" x="263.738078364" xlink:href="#m5284c7e2a0" y="13.4563428218"/>
      </g>
     </g>
    </g>
    <g id="xtick_24">
     <g id="line2d_92">
      <g>
       <use style="stroke:#000000;stroke-width:0.5;" x="278.95291504" xlink:href="#m177f7580d0" y="359.056342822"/>
      </g>
     </g>
     <g id="line2d_93">
      <g>
       <use style="stroke:#000000;stroke-width:0.5;" x="278.95291504" xlink:href="#m5284c7e2a0" y="13.4563428218"/>
      </g>
     </g>
    </g>
    <g id="xtick_25">
     <g id="line2d_94">
      <g>
       <use style="stroke:#000000;stroke-width:0.5;" x="289.748013458" xlink:href="#m177f7580d0" y="359.056342822"/>
      </g>
     </g>
     <g id="line2d_95">
      <g>
       <use style="stroke:#000000;stroke-width:0.5;" x="289.748013458" xlink:href="#m5284c7e2a0" y="13.4563428218"/>
      </g>
     </g>
    </g>
    <g id="xtick_26">
     <g id="line2d_96">
      <g>
       <use style="stroke:#000000;stroke-width:0.5;" x="298.121342311" xlink:href="#m177f7580d0" y="359.056342822"/>
      </g>
     </g>
     <g id="line2d_97">
      <g>
       <use style="stroke:#000000;stroke-width:0.5;" x="298.121342311" xlink:href="#m5284c7e2a0" y="13.4563428218"/>
      </g>
     </g>
    </g>
    <g id="xtick_27">
     <g id="line2d_98">
      <g>
       <use style="stroke:#000000;stroke-width:0.5;" x="304.962850134" xlink:href="#m177f7580d0" y="359.056342822"/>
      </g>
     </g>
     <g id="line2d_99">
      <g>
       <use style="stroke:#000000;stroke-width:0.5;" x="304.962850134" xlink:href="#m5284c7e2a0" y="13.4563428218"/>
      </g>
     </g>
    </g>
    <g id="xtick_28">
     <g id="line2d_100">
      <g>
       <use style="stroke:#000000;stroke-width:0.5;" x="310.747262578" xlink:href="#m177f7580d0" y="359.056342822"/>
      </g>
     </g>
     <g id="line2d_101">
      <g>
       <use style="stroke:#000000;stroke-width:0.5;" x="310.747262578" xlink:href="#m5284c7e2a0" y="13.4563428218"/>
      </g>
     </g>
    </g>
    <g id="xtick_29">
     <g id="line2d_102">
      <g>
       <use style="stroke:#000000;stroke-width:0.5;" x="315.757948552" xlink:href="#m177f7580d0" y="359.056342822"/>
      </g>
     </g>
     <g id="line2d_103">
      <g>
       <use style="stroke:#000000;stroke-width:0.5;" x="315.757948552" xlink:href="#m5284c7e2a0" y="13.4563428218"/>
      </g>
     </g>
    </g>
    <g id="xtick_30">
     <g id="line2d_104">
      <g>
       <use style="stroke:#000000;stroke-width:0.5;" x="320.17768681" xlink:href="#m177f7580d0" y="359.056342822"/>
      </g>
     </g>
     <g id="line2d_105">
      <g>
       <use style="stroke:#000000;stroke-width:0.5;" x="320.17768681" xlink:href="#m5284c7e2a0" y="13.4563428218"/>
      </g>
     </g>
    </g>
    <g id="xtick_31">
     <g id="line2d_106">
      <g>
       <use style="stroke:#000000;stroke-width:0.5;" x="350.141212499" xlink:href="#m177f7580d0" y="359.056342822"/>
      </g>
     </g>
     <g id="line2d_107">
      <g>
       <use style="stroke:#000000;stroke-width:0.5;" x="350.141212499" xlink:href="#m5284c7e2a0" y="13.4563428218"/>
      </g>
     </g>
    </g>
    <g id="xtick_32">
     <g id="line2d_108">
      <g>
       <use style="stroke:#000000;stroke-width:0.5;" x="365.356049175" xlink:href="#m177f7580d0" y="359.056342822"/>
      </g>
     </g>
     <g id="line2d_109">
      <g>
       <use style="stroke:#000000;stroke-width:0.5;" x="365.356049175" xlink:href="#m5284c7e2a0" y="13.4563428218"/>
      </g>
     </g>
    </g>
    <g id="xtick_33">
     <g id="line2d_110">
      <g>
       <use style="stroke:#000000;stroke-width:0.5;" x="376.151147593" xlink:href="#m177f7580d0" y="359.056342822"/>
      </g>
     </g>
     <g id="line2d_111">
      <g>
       <use style="stroke:#000000;stroke-width:0.5;" x="376.151147593" xlink:href="#m5284c7e2a0" y="13.4563428218"/>
      </g>
     </g>
    </g>
    <g id="xtick_34">
     <g id="line2d_112">
      <g>
       <use style="stroke:#000000;stroke-width:0.5;" x="384.524476446" xlink:href="#m177f7580d0" y="359.056342822"/>
      </g>
     </g>
     <g id="line2d_113">
      <g>
       <use style="stroke:#000000;stroke-width:0.5;" x="384.524476446" xlink:href="#m5284c7e2a0" y="13.4563428218"/>
      </g>
     </g>
    </g>
    <g id="xtick_35">
     <g id="line2d_114">
      <g>
       <use style="stroke:#000000;stroke-width:0.5;" x="391.365984269" xlink:href="#m177f7580d0" y="359.056342822"/>
      </g>
     </g>
     <g id="line2d_115">
      <g>
       <use style="stroke:#000000;stroke-width:0.5;" x="391.365984269" xlink:href="#m5284c7e2a0" y="13.4563428218"/>
      </g>
     </g>
    </g>
    <g id="xtick_36">
     <g id="line2d_116">
      <g>
       <use style="stroke:#000000;stroke-width:0.5;" x="397.150396713" xlink:href="#m177f7580d0" y="359.056342822"/>
      </g>
     </g>
     <g id="line2d_117">
      <g>
       <use style="stroke:#000000;stroke-width:0.5;" x="397.150396713" xlink:href="#m5284c7e2a0" y="13.4563428218"/>
      </g>
     </g>
    </g>
    <g id="xtick_37">
     <g id="line2d_118">
      <g>
       <use style="stroke:#000000;stroke-width:0.5;" x="402.161082687" xlink:href="#m177f7580d0" y="359.056342822"/>
      </g>
     </g>
     <g id="line2d_119">
      <g>
       <use style="stroke:#000000;stroke-width:0.5;" x="402.161082687" xlink:href="#m5284c7e2a0" y="13.4563428218"/>
      </g>
     </g>
    </g>
    <g id="xtick_38">
     <g id="line2d_120">
      <g>
       <use style="stroke:#000000;stroke-width:0.5;" x="406.580820945" xlink:href="#m177f7580d0" y="359.056342822"/>
      </g>
     </g>
     <g id="line2d_121">
      <g>
       <use style="stroke:#000000;stroke-width:0.5;" x="406.580820945" xlink:href="#m5284c7e2a0" y="13.4563428218"/>
      </g>
     </g>
    </g>
    <g id="xtick_39">
     <g id="line2d_122">
      <g>
       <use style="stroke:#000000;stroke-width:0.5;" x="436.544346634" xlink:href="#m177f7580d0" y="359.056342822"/>
      </g>
     </g>
     <g id="line2d_123">
      <g>
       <use style="stroke:#000000;stroke-width:0.5;" x="436.544346634" xlink:href="#m5284c7e2a0" y="13.4563428218"/>
      </g>
     </g>
    </g>
    <g id="xtick_40">
     <g id="line2d_124">
      <g>
       <use style="stroke:#000000;stroke-width:0.5;" x="451.75918331" xlink:href="#m177f7580d0" y="359.056342822"/>
      </g>
     </g>
     <g id="line2d_125">
      <g>
       <use style="stroke:#000000;stroke-width:0.5;" x="451.75918331" xlink:href="#m5284c7e2a0" y="13.4563428218"/>
      </g>
     </g>
    </g>
    <g id="xtick_41">
     <g id="line2d_126">
      <g>
       <use style="stroke:#000000;stroke-width:0.5;" x="462.554281728" xlink:href="#m177f7580d0" y="359.056342822"/>
      </g>
     </g>
     <g id="line2d_127">
      <g>
       <use style="stroke:#000000;stroke-width:0.5;" x="462.554281728" xlink:href="#m5284c7e2a0" y="13.4563428218"/>
      </g>
     </g>
    </g>
    <g id="xtick_42">
     <g id="line2d_128">
      <g>
       <use style="stroke:#000000;stroke-width:0.5;" x="470.92761058" xlink:href="#m177f7580d0" y="359.056342822"/>
      </g>
     </g>
     <g id="line2d_129">
      <g>
       <use style="stroke:#000000;stroke-width:0.5;" x="470.92761058" xlink:href="#m5284c7e2a0" y="13.4563428218"/>
      </g>
     </g>
    </g>
    <g id="xtick_43">
     <g id="line2d_130">
      <g>
       <use style="stroke:#000000;stroke-width:0.5;" x="477.769118404" xlink:href="#m177f7580d0" y="359.056342822"/>
      </g>
     </g>
     <g id="line2d_131">
      <g>
       <use style="stroke:#000000;stroke-width:0.5;" x="477.769118404" xlink:href="#m5284c7e2a0" y="13.4563428218"/>
      </g>
     </g>
    </g>
    <g id="xtick_44">
     <g id="line2d_132">
      <g>
       <use style="stroke:#000000;stroke-width:0.5;" x="483.553530848" xlink:href="#m177f7580d0" y="359.056342822"/>
      </g>
     </g>
     <g id="line2d_133">
      <g>
       <use style="stroke:#000000;stroke-width:0.5;" x="483.553530848" xlink:href="#m5284c7e2a0" y="13.4563428218"/>
      </g>
     </g>
    </g>
    <g id="xtick_45">
     <g id="line2d_134">
      <g>
       <use style="stroke:#000000;stroke-width:0.5;" x="488.564216821" xlink:href="#m177f7580d0" y="359.056342822"/>
      </g>
     </g>
     <g id="line2d_135">
      <g>
       <use style="stroke:#000000;stroke-width:0.5;" x="488.564216821" xlink:href="#m5284c7e2a0" y="13.4563428218"/>
      </g>
     </g>
    </g>
    <g id="xtick_46">
     <g id="line2d_136">
      <g>
       <use style="stroke:#000000;stroke-width:0.5;" x="492.98395508" xlink:href="#m177f7580d0" y="359.056342822"/>
      </g>
     </g>
     <g id="line2d_137">
      <g>
       <use style="stroke:#000000;stroke-width:0.5;" x="492.98395508" xlink:href="#m5284c7e2a0" y="13.4563428218"/>
      </g>
     </g>
    </g>
    <g id="text_7">
     <!-- log10 of FEvals / DIM -->
     <defs>
      <path id="BitstreamVeraSans-Roman-20"/>
      <path d="
M9.8125 72.9062
L24.5156 72.9062
L43.1094 23.2969
L61.8125 72.9062
L76.5156 72.9062
L76.5156 0
L66.8906 0
L66.8906 64.0156
L48.0938 14.0156
L38.1875 14.0156
L19.3906 64.0156
L19.3906 0
L9.8125 0
z
" id="BitstreamVeraSans-Roman-4d"/>
      <path d="
M30.6094 48.3906
Q23.3906 48.3906 19.1875 42.75
Q14.9844 37.1094 14.9844 27.2969
Q14.9844 17.4844 19.1562 11.8438
Q23.3438 6.20312 30.6094 6.20312
Q37.7969 6.20312 41.9844 11.8594
Q46.1875 17.5312 46.1875 27.2969
Q46.1875 37.0156 41.9844 42.7031
Q37.7969 48.3906 30.6094 48.3906
M30.6094 56
Q42.3281 56 49.0156 48.375
Q55.7188 40.7656 55.7188 27.2969
Q55.7188 13.875 49.0156 6.21875
Q42.3281 -1.42188 30.6094 -1.42188
Q18.8438 -1.42188 12.1719 6.21875
Q5.51562 13.875 5.51562 27.2969
Q5.51562 40.7656 12.1719 48.375
Q18.8438 56 30.6094 56" id="BitstreamVeraSans-Roman-6f"/>
      <path d="
M9.42188 75.9844
L18.4062 75.9844
L18.4062 0
L9.42188 0
z
" id="BitstreamVeraSans-Roman-6c"/>
      <path d="
M9.8125 72.9062
L51.7031 72.9062
L51.7031 64.5938
L19.6719 64.5938
L19.6719 43.1094
L48.5781 43.1094
L48.5781 34.8125
L19.6719 34.8125
L19.6719 0
L9.8125 0
z
" id="BitstreamVeraSans-Roman-46"/>
      <path d="
M9.8125 72.9062
L55.9062 72.9062
L55.9062 64.5938
L19.6719 64.5938
L19.6719 43.0156
L54.3906 43.0156
L54.3906 34.7188
L19.6719 34.7188
L19.6719 8.29688
L56.7812 8.29688
L56.7812 0
L9.8125 0
z
" id="BitstreamVeraSans-Roman-45"/>
      <path d="
M19.6719 64.7969
L19.6719 8.10938
L31.5938 8.10938
Q46.6875 8.10938 53.6875 14.9375
Q60.6875 21.7812 60.6875 36.5312
Q60.6875 51.1719 53.6875 57.9844
Q46.6875 64.7969 31.5938 64.7969
z

M9.8125 72.9062
L30.0781 72.9062
Q51.2656 72.9062 61.1719 64.0938
Q71.0938 55.2812 71.0938 36.5312
Q71.0938 17.6719 61.125 8.82812
Q51.1719 0 30.0781 0
L9.8125 0
z
" id="BitstreamVeraSans-Roman-44"/>
      <path d="
M25.3906 72.9062
L33.6875 72.9062
L8.29688 -9.28125
L0 -9.28125
z
" id="BitstreamVeraSans-Roman-2f"/>
      <path d="
M2.98438 54.6875
L12.5 54.6875
L29.5938 8.79688
L46.6875 54.6875
L56.2031 54.6875
L35.6875 0
L23.4844 0
z
" id="BitstreamVeraSans-Roman-76"/>
      <path d="
M45.4062 27.9844
Q45.4062 37.75 41.375 43.1094
Q37.3594 48.4844 30.0781 48.4844
Q22.8594 48.4844 18.8281 43.1094
Q14.7969 37.75 14.7969 27.9844
Q14.7969 18.2656 18.8281 12.8906
Q22.8594 7.51562 30.0781 7.51562
Q37.3594 7.51562 41.375 12.8906
Q45.4062 18.2656 45.4062 27.9844
M54.3906 6.78125
Q54.3906 -7.17188 48.1875 -13.9844
Q42 -20.7969 29.2031 -20.7969
Q24.4688 -20.7969 20.2656 -20.0938
Q16.0625 -19.3906 12.1094 -17.9219
L12.1094 -9.1875
Q16.0625 -11.3281 19.9219 -12.3438
Q23.7812 -13.375 27.7812 -13.375
Q36.625 -13.375 41.0156 -8.76562
Q45.4062 -4.15625 45.4062 5.17188
L45.4062 9.625
Q42.625 4.78125 38.2812 2.39062
Q33.9375 0 27.875 0
Q17.8281 0 11.6719 7.65625
Q5.51562 15.3281 5.51562 27.9844
Q5.51562 40.6719 11.6719 48.3281
Q17.8281 56 27.875 56
Q33.9375 56 38.2812 53.6094
Q42.625 51.2188 45.4062 46.3906
L45.4062 54.6875
L54.3906 54.6875
z
" id="BitstreamVeraSans-Roman-67"/>
      <path d="
M37.1094 75.9844
L37.1094 68.5
L28.5156 68.5
Q23.6875 68.5 21.7969 66.5469
Q19.9219 64.5938 19.9219 59.5156
L19.9219 54.6875
L34.7188 54.6875
L34.7188 47.7031
L19.9219 47.7031
L19.9219 0
L10.8906 0
L10.8906 47.7031
L2.29688 47.7031
L2.29688 54.6875
L10.8906 54.6875
L10.8906 58.5
Q10.8906 67.625 15.1406 71.7969
Q19.3906 75.9844 28.6094 75.9844
z
" id="BitstreamVeraSans-Roman-66"/>
      <path d="
M34.2812 27.4844
Q23.3906 27.4844 19.1875 25
Q14.9844 22.5156 14.9844 16.5
Q14.9844 11.7188 18.1406 8.90625
Q21.2969 6.10938 26.7031 6.10938
Q34.1875 6.10938 38.7031 11.4062
Q43.2188 16.7031 43.2188 25.4844
L43.2188 27.4844
z

M52.2031 31.2031
L52.2031 0
L43.2188 0
L43.2188 8.29688
Q40.1406 3.32812 35.5469 0.953125
Q30.9531 -1.42188 24.3125 -1.42188
Q15.9219 -1.42188 10.9531 3.29688
Q6 8.01562 6 15.9219
Q6 25.1406 12.1719 29.8281
Q18.3594 34.5156 30.6094 34.5156
L43.2188 34.5156
L43.2188 35.4062
Q43.2188 41.6094 39.1406 45
Q35.0625 48.3906 27.6875 48.3906
Q23 48.3906 18.5469 47.2656
Q14.1094 46.1406 10.0156 43.8906
L10.0156 52.2031
Q14.9375 54.1094 19.5781 55.0469
Q24.2188 56 28.6094 56
Q40.4844 56 46.3438 49.8438
Q52.2031 43.7031 52.2031 31.2031" id="BitstreamVeraSans-Roman-61"/>
      <path d="
M44.2812 53.0781
L44.2812 44.5781
Q40.4844 46.5312 36.375 47.5
Q32.2812 48.4844 27.875 48.4844
Q21.1875 48.4844 17.8438 46.4375
Q14.5 44.3906 14.5 40.2812
Q14.5 37.1562 16.8906 35.375
Q19.2812 33.5938 26.5156 31.9844
L29.5938 31.2969
Q39.1562 29.25 43.1875 25.5156
Q47.2188 21.7812 47.2188 15.0938
Q47.2188 7.46875 41.1875 3.01562
Q35.1562 -1.42188 24.6094 -1.42188
Q20.2188 -1.42188 15.4531 -0.5625
Q10.6875 0.296875 5.42188 2
L5.42188 11.2812
Q10.4062 8.6875 15.2344 7.39062
Q20.0625 6.10938 24.8125 6.10938
Q31.1562 6.10938 34.5625 8.28125
Q37.9844 10.4531 37.9844 14.4062
Q37.9844 18.0625 35.5156 20.0156
Q33.0625 21.9688 24.7031 23.7812
L21.5781 24.5156
Q13.2344 26.2656 9.51562 29.9062
Q5.8125 33.5469 5.8125 39.8906
Q5.8125 47.6094 11.2812 51.7969
Q16.75 56 26.8125 56
Q31.7812 56 36.1719 55.2656
Q40.5781 54.5469 44.2812 53.0781" id="BitstreamVeraSans-Roman-73"/>
      <path d="
M9.8125 72.9062
L19.6719 72.9062
L19.6719 0
L9.8125 0
z
" id="BitstreamVeraSans-Roman-49"/>
     </defs>
     <g transform="translate(184.025 402.609467822)scale(0.2 -0.2)">
      <use xlink:href="#BitstreamVeraSans-Roman-6c"/>
      <use x="27.783203125" xlink:href="#BitstreamVeraSans-Roman-6f"/>
      <use x="88.96484375" xlink:href="#BitstreamVeraSans-Roman-67"/>
      <use x="152.44140625" xlink:href="#BitstreamVeraSans-Roman-31"/>
      <use x="216.064453125" xlink:href="#BitstreamVeraSans-Roman-30"/>
      <use x="279.6875" xlink:href="#BitstreamVeraSans-Roman-20"/>
      <use x="311.474609375" xlink:href="#BitstreamVeraSans-Roman-6f"/>
      <use x="372.65625" xlink:href="#BitstreamVeraSans-Roman-66"/>
      <use x="407.861328125" xlink:href="#BitstreamVeraSans-Roman-20"/>
      <use x="439.6484375" xlink:href="#BitstreamVeraSans-Roman-46"/>
      <use x="497.16796875" xlink:href="#BitstreamVeraSans-Roman-45"/>
      <use x="560.3515625" xlink:href="#BitstreamVeraSans-Roman-76"/>
      <use x="619.53125" xlink:href="#BitstreamVeraSans-Roman-61"/>
      <use x="680.810546875" xlink:href="#BitstreamVeraSans-Roman-6c"/>
      <use x="708.59375" xlink:href="#BitstreamVeraSans-Roman-73"/>
      <use x="760.693359375" xlink:href="#BitstreamVeraSans-Roman-20"/>
      <use x="792.48046875" xlink:href="#BitstreamVeraSans-Roman-2f"/>
      <use x="826.171875" xlink:href="#BitstreamVeraSans-Roman-20"/>
      <use x="857.958984375" xlink:href="#BitstreamVeraSans-Roman-44"/>
      <use x="934.9609375" xlink:href="#BitstreamVeraSans-Roman-49"/>
      <use x="964.453125" xlink:href="#BitstreamVeraSans-Roman-4d"/>
     </g>
    </g>
   </g>
   <g id="matplotlib.axis_2">
    <g id="ytick_1">
     <g id="line2d_138">
      <path clip-path="url(#p4b24e7e61f)" d="
M64.9219 359.056
L511.322 359.056" style="fill:none;stroke:#000000;stroke-dasharray:1.000000,3.000000;stroke-dashoffset:0.0;stroke-width:0.5;"/>
     </g>
     <g id="line2d_139">
      <defs>
       <path d="
M0 0
L4 0" id="m728421d6d4" style="stroke:#000000;stroke-width:0.5;"/>
      </defs>
      <g>
       <use style="stroke:#000000;stroke-width:0.5;" x="64.921875" xlink:href="#m728421d6d4" y="359.056342822"/>
      </g>
     </g>
     <g id="line2d_140">
      <defs>
       <path d="
M0 0
L-4 0" id="mcb0005524f" style="stroke:#000000;stroke-width:0.5;"/>
      </defs>
      <g>
       <use style="stroke:#000000;stroke-width:0.5;" x="511.321875" xlink:href="#mcb0005524f" y="359.056342822"/>
      </g>
     </g>
     <g id="text_8">
      <!-- 0.0 -->
      <defs>
       <path d="
M10.6875 12.4062
L21 12.4062
L21 0
L10.6875 0
z
" id="BitstreamVeraSans-Roman-2e"/>
      </defs>
      <g transform="translate(31.7625 364.575092822)scale(0.2 -0.2)">
       <use xlink:href="#BitstreamVeraSans-Roman-30"/>
       <use x="63.623046875" xlink:href="#BitstreamVeraSans-Roman-2e"/>
       <use x="95.41015625" xlink:href="#BitstreamVeraSans-Roman-30"/>
      </g>
     </g>
    </g>
    <g id="ytick_2">
     <g id="line2d_141">
      <path clip-path="url(#p4b24e7e61f)" d="
M64.9219 290.621
L511.322 290.621" style="fill:none;stroke:#000000;stroke-dasharray:1.000000,3.000000;stroke-dashoffset:0.0;stroke-width:0.5;"/>
     </g>
     <g id="line2d_142">
      <g>
       <use style="stroke:#000000;stroke-width:0.5;" x="64.921875" xlink:href="#m728421d6d4" y="290.620699257"/>
      </g>
     </g>
     <g id="line2d_143">
      <g>
       <use style="stroke:#000000;stroke-width:0.5;" x="511.321875" xlink:href="#mcb0005524f" y="290.620699257"/>
      </g>
     </g>
     <g id="text_9">
      <!-- 0.2 -->
      <g transform="translate(32.4375 296.139449257)scale(0.2 -0.2)">
       <use xlink:href="#BitstreamVeraSans-Roman-30"/>
       <use x="63.623046875" xlink:href="#BitstreamVeraSans-Roman-2e"/>
       <use x="95.41015625" xlink:href="#BitstreamVeraSans-Roman-32"/>
      </g>
     </g>
    </g>
    <g id="ytick_3">
     <g id="line2d_144">
      <path clip-path="url(#p4b24e7e61f)" d="
M64.9219 222.185
L511.322 222.185" style="fill:none;stroke:#000000;stroke-dasharray:1.000000,3.000000;stroke-dashoffset:0.0;stroke-width:0.5;"/>
     </g>
     <g id="line2d_145">
      <g>
       <use style="stroke:#000000;stroke-width:0.5;" x="64.921875" xlink:href="#m728421d6d4" y="222.185055693"/>
      </g>
     </g>
     <g id="line2d_146">
      <g>
       <use style="stroke:#000000;stroke-width:0.5;" x="511.321875" xlink:href="#mcb0005524f" y="222.185055693"/>
      </g>
     </g>
     <g id="text_10">
      <!-- 0.4 -->
      <g transform="translate(31.55625 227.703805693)scale(0.2 -0.2)">
       <use xlink:href="#BitstreamVeraSans-Roman-30"/>
       <use x="63.623046875" xlink:href="#BitstreamVeraSans-Roman-2e"/>
       <use x="95.41015625" xlink:href="#BitstreamVeraSans-Roman-34"/>
      </g>
     </g>
    </g>
    <g id="ytick_4">
     <g id="line2d_147">
      <path clip-path="url(#p4b24e7e61f)" d="
M64.9219 153.749
L511.322 153.749" style="fill:none;stroke:#000000;stroke-dasharray:1.000000,3.000000;stroke-dashoffset:0.0;stroke-width:0.5;"/>
     </g>
     <g id="line2d_148">
      <g>
       <use style="stroke:#000000;stroke-width:0.5;" x="64.921875" xlink:href="#m728421d6d4" y="153.749412129"/>
      </g>
     </g>
     <g id="line2d_149">
      <g>
       <use style="stroke:#000000;stroke-width:0.5;" x="511.321875" xlink:href="#mcb0005524f" y="153.749412129"/>
      </g>
     </g>
     <g id="text_11">
      <!-- 0.6 -->
      <defs>
       <path d="
M33.0156 40.375
Q26.375 40.375 22.4844 35.8281
Q18.6094 31.2969 18.6094 23.3906
Q18.6094 15.5312 22.4844 10.9531
Q26.375 6.39062 33.0156 6.39062
Q39.6562 6.39062 43.5312 10.9531
Q47.4062 15.5312 47.4062 23.3906
Q47.4062 31.2969 43.5312 35.8281
Q39.6562 40.375 33.0156 40.375
M52.5938 71.2969
L52.5938 62.3125
Q48.875 64.0625 45.0938 64.9844
Q41.3125 65.9219 37.5938 65.9219
Q27.8281 65.9219 22.6719 59.3281
Q17.5312 52.7344 16.7969 39.4062
Q19.6719 43.6562 24.0156 45.9219
Q28.375 48.1875 33.5938 48.1875
Q44.5781 48.1875 50.9531 41.5156
Q57.3281 34.8594 57.3281 23.3906
Q57.3281 12.1562 50.6875 5.35938
Q44.0469 -1.42188 33.0156 -1.42188
Q20.3594 -1.42188 13.6719 8.26562
Q6.98438 17.9688 6.98438 36.375
Q6.98438 53.6562 15.1875 63.9375
Q23.3906 74.2188 37.2031 74.2188
Q40.9219 74.2188 44.7031 73.4844
Q48.4844 72.75 52.5938 71.2969" id="BitstreamVeraSans-Roman-36"/>
      </defs>
      <g transform="translate(31.69375 159.268162129)scale(0.2 -0.2)">
       <use xlink:href="#BitstreamVeraSans-Roman-30"/>
       <use x="63.623046875" xlink:href="#BitstreamVeraSans-Roman-2e"/>
       <use x="95.41015625" xlink:href="#BitstreamVeraSans-Roman-36"/>
      </g>
     </g>
    </g>
    <g id="ytick_5">
     <g id="line2d_150">
      <path clip-path="url(#p4b24e7e61f)" d="
M64.9219 85.3138
L511.322 85.3138" style="fill:none;stroke:#000000;stroke-dasharray:1.000000,3.000000;stroke-dashoffset:0.0;stroke-width:0.5;"/>
     </g>
     <g id="line2d_151">
      <g>
       <use style="stroke:#000000;stroke-width:0.5;" x="64.921875" xlink:href="#m728421d6d4" y="85.3137685644"/>
      </g>
     </g>
     <g id="line2d_152">
      <g>
       <use style="stroke:#000000;stroke-width:0.5;" x="511.321875" xlink:href="#mcb0005524f" y="85.3137685644"/>
      </g>
     </g>
     <g id="text_12">
      <!-- 0.8 -->
      <defs>
       <path d="
M31.7812 34.625
Q24.75 34.625 20.7188 30.8594
Q16.7031 27.0938 16.7031 20.5156
Q16.7031 13.9219 20.7188 10.1562
Q24.75 6.39062 31.7812 6.39062
Q38.8125 6.39062 42.8594 10.1719
Q46.9219 13.9688 46.9219 20.5156
Q46.9219 27.0938 42.8906 30.8594
Q38.875 34.625 31.7812 34.625
M21.9219 38.8125
Q15.5781 40.375 12.0312 44.7188
Q8.5 49.0781 8.5 55.3281
Q8.5 64.0625 14.7188 69.1406
Q20.9531 74.2188 31.7812 74.2188
Q42.6719 74.2188 48.875 69.1406
Q55.0781 64.0625 55.0781 55.3281
Q55.0781 49.0781 51.5312 44.7188
Q48 40.375 41.7031 38.8125
Q48.8281 37.1562 52.7969 32.3125
Q56.7812 27.4844 56.7812 20.5156
Q56.7812 9.90625 50.3125 4.23438
Q43.8438 -1.42188 31.7812 -1.42188
Q19.7344 -1.42188 13.25 4.23438
Q6.78125 9.90625 6.78125 20.5156
Q6.78125 27.4844 10.7812 32.3125
Q14.7969 37.1562 21.9219 38.8125
M18.3125 54.3906
Q18.3125 48.7344 21.8438 45.5625
Q25.3906 42.3906 31.7812 42.3906
Q38.1406 42.3906 41.7188 45.5625
Q45.3125 48.7344 45.3125 54.3906
Q45.3125 60.0625 41.7188 63.2344
Q38.1406 66.4062 31.7812 66.4062
Q25.3906 66.4062 21.8438 63.2344
Q18.3125 60.0625 18.3125 54.3906" id="BitstreamVeraSans-Roman-38"/>
      </defs>
      <g transform="translate(31.803125 90.8325185644)scale(0.2 -0.2)">
       <use xlink:href="#BitstreamVeraSans-Roman-30"/>
       <use x="63.623046875" xlink:href="#BitstreamVeraSans-Roman-2e"/>
       <use x="95.41015625" xlink:href="#BitstreamVeraSans-Roman-38"/>
      </g>
     </g>
    </g>
    <g id="ytick_6">
     <g id="line2d_153">
      <path clip-path="url(#p4b24e7e61f)" d="
M64.9219 16.8781
L511.322 16.8781" style="fill:none;stroke:#000000;stroke-dasharray:1.000000,3.000000;stroke-dashoffset:0.0;stroke-width:0.5;"/>
     </g>
     <g id="line2d_154">
      <g>
       <use style="stroke:#000000;stroke-width:0.5;" x="64.921875" xlink:href="#m728421d6d4" y="16.878125"/>
      </g>
     </g>
     <g id="line2d_155">
      <g>
       <use style="stroke:#000000;stroke-width:0.5;" x="511.321875" xlink:href="#mcb0005524f" y="16.878125"/>
      </g>
     </g>
     <g id="text_13">
      <!-- 1.0 -->
      <g transform="translate(32.640625 22.396875)scale(0.2 -0.2)">
       <use xlink:href="#BitstreamVeraSans-Roman-31"/>
       <use x="63.623046875" xlink:href="#BitstreamVeraSans-Roman-2e"/>
       <use x="95.41015625" xlink:href="#BitstreamVeraSans-Roman-30"/>
      </g>
     </g>
    </g>
    <g id="text_14">
     <!-- proportion of trials -->
     <defs>
      <path d="
M54.8906 33.0156
L54.8906 0
L45.9062 0
L45.9062 32.7188
Q45.9062 40.4844 42.875 44.3281
Q39.8438 48.1875 33.7969 48.1875
Q26.5156 48.1875 22.3125 43.5469
Q18.1094 38.9219 18.1094 30.9062
L18.1094 0
L9.07812 0
L9.07812 54.6875
L18.1094 54.6875
L18.1094 46.1875
Q21.3438 51.125 25.7031 53.5625
Q30.0781 56 35.7969 56
Q45.2188 56 50.0469 50.1719
Q54.8906 44.3438 54.8906 33.0156" id="BitstreamVeraSans-Roman-6e"/>
      <path d="
M9.42188 54.6875
L18.4062 54.6875
L18.4062 0
L9.42188 0
z

M9.42188 75.9844
L18.4062 75.9844
L18.4062 64.5938
L9.42188 64.5938
z
" id="BitstreamVeraSans-Roman-69"/>
      <path d="
M18.3125 70.2188
L18.3125 54.6875
L36.8125 54.6875
L36.8125 47.7031
L18.3125 47.7031
L18.3125 18.0156
Q18.3125 11.3281 20.1406 9.42188
Q21.9688 7.51562 27.5938 7.51562
L36.8125 7.51562
L36.8125 0
L27.5938 0
Q17.1875 0 13.2344 3.875
Q9.28125 7.76562 9.28125 18.0156
L9.28125 47.7031
L2.6875 47.7031
L2.6875 54.6875
L9.28125 54.6875
L9.28125 70.2188
z
" id="BitstreamVeraSans-Roman-74"/>
      <path d="
M41.1094 46.2969
Q39.5938 47.1719 37.8125 47.5781
Q36.0312 48 33.8906 48
Q26.2656 48 22.1875 43.0469
Q18.1094 38.0938 18.1094 28.8125
L18.1094 0
L9.07812 0
L9.07812 54.6875
L18.1094 54.6875
L18.1094 46.1875
Q20.9531 51.1719 25.4844 53.5781
Q30.0312 56 36.5312 56
Q37.4531 56 38.5781 55.875
Q39.7031 55.7656 41.0625 55.5156
z
" id="BitstreamVeraSans-Roman-72"/>
      <path d="
M18.1094 8.20312
L18.1094 -20.7969
L9.07812 -20.7969
L9.07812 54.6875
L18.1094 54.6875
L18.1094 46.3906
Q20.9531 51.2656 25.2656 53.625
Q29.5938 56 35.5938 56
Q45.5625 56 51.7812 48.0938
Q58.0156 40.1875 58.0156 27.2969
Q58.0156 14.4062 51.7812 6.48438
Q45.5625 -1.42188 35.5938 -1.42188
Q29.5938 -1.42188 25.2656 0.953125
Q20.9531 3.32812 18.1094 8.20312
M48.6875 27.2969
Q48.6875 37.2031 44.6094 42.8438
Q40.5312 48.4844 33.4062 48.4844
Q26.2656 48.4844 22.1875 42.8438
Q18.1094 37.2031 18.1094 27.2969
Q18.1094 17.3906 22.1875 11.75
Q26.2656 6.10938 33.4062 6.10938
Q40.5312 6.10938 44.6094 11.75
Q48.6875 17.3906 48.6875 27.2969" id="BitstreamVeraSans-Roman-70"/>
     </defs>
     <g transform="translate(22.396875 278.775092822)rotate(-90.0)scale(0.2 -0.2)">
      <use xlink:href="#BitstreamVeraSans-Roman-70"/>
      <use x="63.4765625" xlink:href="#BitstreamVeraSans-Roman-72"/>
      <use x="102.33984375" xlink:href="#BitstreamVeraSans-Roman-6f"/>
      <use x="163.521484375" xlink:href="#BitstreamVeraSans-Roman-70"/>
      <use x="226.998046875" xlink:href="#BitstreamVeraSans-Roman-6f"/>
      <use x="288.1796875" xlink:href="#BitstreamVeraSans-Roman-72"/>
      <use x="329.29296875" xlink:href="#BitstreamVeraSans-Roman-74"/>
      <use x="368.501953125" xlink:href="#BitstreamVeraSans-Roman-69"/>
      <use x="396.28515625" xlink:href="#BitstreamVeraSans-Roman-6f"/>
      <use x="457.466796875" xlink:href="#BitstreamVeraSans-Roman-6e"/>
      <use x="520.845703125" xlink:href="#BitstreamVeraSans-Roman-20"/>
      <use x="552.6328125" xlink:href="#BitstreamVeraSans-Roman-6f"/>
      <use x="613.814453125" xlink:href="#BitstreamVeraSans-Roman-66"/>
      <use x="649.01953125" xlink:href="#BitstreamVeraSans-Roman-20"/>
      <use x="680.806640625" xlink:href="#BitstreamVeraSans-Roman-74"/>
      <use x="720.015625" xlink:href="#BitstreamVeraSans-Roman-72"/>
      <use x="761.12890625" xlink:href="#BitstreamVeraSans-Roman-69"/>
      <use x="788.912109375" xlink:href="#BitstreamVeraSans-Roman-61"/>
      <use x="850.19140625" xlink:href="#BitstreamVeraSans-Roman-6c"/>
      <use x="877.974609375" xlink:href="#BitstreamVeraSans-Roman-73"/>
     </g>
    </g>
   </g>
   <g id="patch_3">
    <path d="
M64.9219 13.4563
L511.322 13.4563" style="fill:none;stroke:#000000;"/>
   </g>
   <g id="patch_4">
    <path d="
M511.322 359.056
L511.322 13.4563" style="fill:none;stroke:#000000;"/>
   </g>
   <g id="patch_5">
    <path d="
M64.9219 359.056
L511.322 359.056" style="fill:none;stroke:#000000;"/>
   </g>
   <g id="patch_6">
    <path d="
M64.9219 359.056
L64.9219 13.4563" style="fill:none;stroke:#000000;"/>
   </g>
   <g id="text_15">
    <!-- {f10-f14}, 5-D -->
    <defs>
     <path d="
M11.7188 12.4062
L22.0156 12.4062
L22.0156 4
L14.0156 -11.625
L7.71875 -11.625
L11.7188 4
z
" id="BitstreamVeraSans-Roman-2c"/>
     <path d="
M12.5 -9.28125
L15.9219 -9.28125
Q22.75 -9.28125 24.8281 -7.17188
Q26.9062 -5.07812 26.9062 1.90625
L26.9062 14.0156
Q26.9062 21.625 29.0938 25.0938
Q31.2969 28.5625 36.7188 29.8906
Q31.2969 31.1094 29.0938 34.5625
Q26.9062 38.0312 26.9062 45.7031
L26.9062 57.8125
Q26.9062 64.75 24.8281 66.875
Q22.75 69 15.9219 69
L12.5 69
L12.5 75.9844
L15.5781 75.9844
Q27.7344 75.9844 31.8125 72.3906
Q35.8906 68.7969 35.8906 58.0156
L35.8906 46.2969
Q35.8906 39.0156 38.5156 36.2031
Q41.1562 33.4062 48.0938 33.4062
L51.125 33.4062
L51.125 26.4219
L48.0938 26.4219
Q41.1562 26.4219 38.5156 23.5781
Q35.8906 20.75 35.8906 13.375
L35.8906 1.70312
Q35.8906 -9.07812 31.8125 -12.6875
Q27.7344 -16.3125 15.5781 -16.3125
L12.5 -16.3125
z
" id="BitstreamVeraSans-Roman-7d"/>
     <path d="
M51.125 -9.28125
L51.125 -16.3125
L48.0938 -16.3125
Q35.9375 -16.3125 31.8125 -12.6875
Q27.6875 -9.07812 27.6875 1.70312
L27.6875 13.375
Q27.6875 20.75 25.0469 23.5781
Q22.4062 26.4219 15.4844 26.4219
L12.5 26.4219
L12.5 33.4062
L15.4844 33.4062
Q22.4688 33.4062 25.0781 36.2031
Q27.6875 39.0156 27.6875 46.2969
L27.6875 58.0156
Q27.6875 68.7969 31.8125 72.3906
Q35.9375 75.9844 48.0938 75.9844
L51.125 75.9844
L51.125 69
L47.7969 69
Q40.9219 69 38.8125 66.8438
Q36.7188 64.7031 36.7188 57.8125
L36.7188 45.7031
Q36.7188 38.0312 34.5 34.5625
Q32.2812 31.1094 26.9062 29.8906
Q32.3281 28.5625 34.5156 25.0938
Q36.7188 21.625 36.7188 14.0156
L36.7188 1.90625
Q36.7188 -4.98438 38.8125 -7.125
Q40.9219 -9.28125 47.7969 -9.28125
z
" id="BitstreamVeraSans-Roman-7b"/>
     <path d="
M4.89062 31.3906
L31.2031 31.3906
L31.2031 23.3906
L4.89062 23.3906
z
" id="BitstreamVeraSans-Roman-2d"/>
    </defs>
    <g transform="translate(215.8625 35.5652178218)scale(0.2 -0.2)">
     <use xlink:href="#BitstreamVeraSans-Roman-7b"/>
     <use x="63.623046875" xlink:href="#BitstreamVeraSans-Roman-66"/>
     <use x="98.828125" xlink:href="#BitstreamVeraSans-Roman-31"/>
     <use x="162.451171875" xlink:href="#BitstreamVeraSans-Roman-30"/>
     <use x="226.07421875" xlink:href="#BitstreamVeraSans-Roman-2d"/>
     <use x="262.158203125" xlink:href="#BitstreamVeraSans-Roman-66"/>
     <use x="297.36328125" xlink:href="#BitstreamVeraSans-Roman-31"/>
     <use x="360.986328125" xlink:href="#BitstreamVeraSans-Roman-34"/>
     <use x="424.609375" xlink:href="#BitstreamVeraSans-Roman-7d"/>
     <use x="488.232421875" xlink:href="#BitstreamVeraSans-Roman-2c"/>
     <use x="520.01953125" xlink:href="#BitstreamVeraSans-Roman-20"/>
     <use x="551.806640625" xlink:href="#BitstreamVeraSans-Roman-35"/>
     <use x="615.4296875" xlink:href="#BitstreamVeraSans-Roman-2d"/>
     <use x="651.513671875" xlink:href="#BitstreamVeraSans-Roman-44"/>
    </g>
   </g>
   <g id="text_16">
    <!-- absolute targets -->
    <defs>
     <path d="
M56.2031 29.5938
L56.2031 25.2031
L14.8906 25.2031
Q15.4844 15.9219 20.4844 11.0625
Q25.4844 6.20312 34.4219 6.20312
Q39.5938 6.20312 44.4531 7.46875
Q49.3125 8.73438 54.1094 11.2812
L54.1094 2.78125
Q49.2656 0.734375 44.1875 -0.34375
Q39.1094 -1.42188 33.8906 -1.42188
Q20.7969 -1.42188 13.1562 6.1875
Q5.51562 13.8125 5.51562 26.8125
Q5.51562 40.2344 12.7656 48.1094
Q20.0156 56 32.3281 56
Q43.3594 56 49.7812 48.8906
Q56.2031 41.7969 56.2031 29.5938
M47.2188 32.2344
Q47.125 39.5938 43.0938 43.9844
Q39.0625 48.3906 32.4219 48.3906
Q24.9062 48.3906 20.3906 44.1406
Q15.875 39.8906 15.1875 32.1719
z
" id="BitstreamVeraSans-Roman-65"/>
     <path d="
M8.5 21.5781
L8.5 54.6875
L17.4844 54.6875
L17.4844 21.9219
Q17.4844 14.1562 20.5 10.2656
Q23.5312 6.39062 29.5938 6.39062
Q36.8594 6.39062 41.0781 11.0312
Q45.3125 15.6719 45.3125 23.6875
L45.3125 54.6875
L54.2969 54.6875
L54.2969 0
L45.3125 0
L45.3125 8.40625
Q42.0469 3.42188 37.7188 1
Q33.4062 -1.42188 27.6875 -1.42188
Q18.2656 -1.42188 13.375 4.4375
Q8.5 10.2969 8.5 21.5781" id="BitstreamVeraSans-Roman-75"/>
     <path d="
M48.6875 27.2969
Q48.6875 37.2031 44.6094 42.8438
Q40.5312 48.4844 33.4062 48.4844
Q26.2656 48.4844 22.1875 42.8438
Q18.1094 37.2031 18.1094 27.2969
Q18.1094 17.3906 22.1875 11.75
Q26.2656 6.10938 33.4062 6.10938
Q40.5312 6.10938 44.6094 11.75
Q48.6875 17.3906 48.6875 27.2969
M18.1094 46.3906
Q20.9531 51.2656 25.2656 53.625
Q29.5938 56 35.5938 56
Q45.5625 56 51.7812 48.0938
Q58.0156 40.1875 58.0156 27.2969
Q58.0156 14.4062 51.7812 6.48438
Q45.5625 -1.42188 35.5938 -1.42188
Q29.5938 -1.42188 25.2656 0.953125
Q20.9531 3.32812 18.1094 8.20312
L18.1094 0
L9.07812 0
L9.07812 75.9844
L18.1094 75.9844
z
" id="BitstreamVeraSans-Roman-62"/>
    </defs>
    <g transform="translate(64.921875 359.056342822)scale(0.14 -0.14)">
     <use xlink:href="#BitstreamVeraSans-Roman-61"/>
     <use x="61.279296875" xlink:href="#BitstreamVeraSans-Roman-62"/>
     <use x="124.755859375" xlink:href="#BitstreamVeraSans-Roman-73"/>
     <use x="176.85546875" xlink:href="#BitstreamVeraSans-Roman-6f"/>
     <use x="238.037109375" xlink:href="#BitstreamVeraSans-Roman-6c"/>
     <use x="265.8203125" xlink:href="#BitstreamVeraSans-Roman-75"/>
     <use x="329.19921875" xlink:href="#BitstreamVeraSans-Roman-74"/>
     <use x="368.408203125" xlink:href="#BitstreamVeraSans-Roman-65"/>
     <use x="429.931640625" xlink:href="#BitstreamVeraSans-Roman-20"/>
     <use x="461.71875" xlink:href="#BitstreamVeraSans-Roman-74"/>
     <use x="500.927734375" xlink:href="#BitstreamVeraSans-Roman-61"/>
     <use x="562.20703125" xlink:href="#BitstreamVeraSans-Roman-72"/>
     <use x="601.5703125" xlink:href="#BitstreamVeraSans-Roman-67"/>
     <use x="665.046875" xlink:href="#BitstreamVeraSans-Roman-65"/>
     <use x="726.5703125" xlink:href="#BitstreamVeraSans-Roman-74"/>
     <use x="765.779296875" xlink:href="#BitstreamVeraSans-Roman-73"/>
    </g>
   </g>
   <g id="text_17">
    <!-- 0.0.0 -->
    <g style="fill:#808080;" transform="translate(276.06171875 353.520655322)scale(0.1 -0.1)">
     <use xlink:href="#BitstreamVeraSans-Roman-30"/>
     <use x="63.623046875" xlink:href="#BitstreamVeraSans-Roman-2e"/>
     <use x="95.41015625" xlink:href="#BitstreamVeraSans-Roman-30"/>
     <use x="159.033203125" xlink:href="#BitstreamVeraSans-Roman-2e"/>
     <use x="190.8203125" xlink:href="#BitstreamVeraSans-Roman-30"/>
    </g>
   </g>
   <g id="legend_1">
    <g id="patch_7">
     <path d="
M74.9219 146.881
L210.397 146.881
L210.397 23.4563
L74.9219 23.4563
L74.9219 146.881
z
" style="fill:#ffffff;opacity:0.2;stroke:#000000;"/>
    </g>
    <g id="line2d_156">
     <path d="
M88.9219 39.6532
L116.922 39.6532" style="fill:none;stroke:#000000;stroke-linecap:square;"/>
    </g>
    <g id="line2d_157"/>
    <g id="text_18">
     <!-- 1: 5/5 -->
     <defs>
      <path d="
M11.7188 12.4062
L22.0156 12.4062
L22.0156 0
L11.7188 0
z

M11.7188 51.7031
L22.0156 51.7031
L22.0156 39.3125
L11.7188 39.3125
z
" id="BitstreamVeraSans-Roman-3a"/>
     </defs>
     <g transform="translate(138.921875 46.6532178218)scale(0.2 -0.2)">
      <use xlink:href="#BitstreamVeraSans-Roman-31"/>
      <use x="63.623046875" xlink:href="#BitstreamVeraSans-Roman-3a"/>
      <use x="97.314453125" xlink:href="#BitstreamVeraSans-Roman-20"/>
      <use x="129.1015625" xlink:href="#BitstreamVeraSans-Roman-35"/>
      <use x="192.724609375" xlink:href="#BitstreamVeraSans-Roman-2f"/>
      <use x="226.416015625" xlink:href="#BitstreamVeraSans-Roman-35"/>
     </g>
    </g>
    <g id="line2d_158">
     <path d="
M88.9219 69.0095
L116.922 69.0095" style="fill:none;stroke:#00bfbf;stroke-linecap:square;"/>
    </g>
    <g id="line2d_159"/>
    <g id="text_19">
     <!-- -1: 4/5 -->
     <g transform="translate(138.921875 76.0094678218)scale(0.2 -0.2)">
      <use xlink:href="#BitstreamVeraSans-Roman-2d"/>
      <use x="36.083984375" xlink:href="#BitstreamVeraSans-Roman-31"/>
      <use x="99.70703125" xlink:href="#BitstreamVeraSans-Roman-3a"/>
      <use x="133.3984375" xlink:href="#BitstreamVeraSans-Roman-20"/>
      <use x="165.185546875" xlink:href="#BitstreamVeraSans-Roman-34"/>
      <use x="228.80859375" xlink:href="#BitstreamVeraSans-Roman-2f"/>
      <use x="262.5" xlink:href="#BitstreamVeraSans-Roman-35"/>
     </g>
    </g>
    <g id="line2d_160">
     <path d="
M88.9219 98.3657
L116.922 98.3657" style="fill:none;stroke:#bf00bf;stroke-linecap:square;"/>
    </g>
    <g id="line2d_161"/>
    <g id="text_20">
     <!-- -4: 3/5 -->
     <g transform="translate(138.921875 105.365717822)scale(0.2 -0.2)">
      <use xlink:href="#BitstreamVeraSans-Roman-2d"/>
      <use x="36.083984375" xlink:href="#BitstreamVeraSans-Roman-34"/>
      <use x="99.70703125" xlink:href="#BitstreamVeraSans-Roman-3a"/>
      <use x="133.3984375" xlink:href="#BitstreamVeraSans-Roman-20"/>
      <use x="165.185546875" xlink:href="#BitstreamVeraSans-Roman-33"/>
      <use x="228.80859375" xlink:href="#BitstreamVeraSans-Roman-2f"/>
      <use x="262.5" xlink:href="#BitstreamVeraSans-Roman-35"/>
     </g>
    </g>
    <g id="line2d_162">
     <path d="
M88.9219 127.722
L116.922 127.722" style="fill:none;stroke:#ff0000;stroke-linecap:square;stroke-width:3.0;"/>
    </g>
    <g id="line2d_163"/>
    <g id="text_21">
     <!-- -8: 1/5 -->
     <g transform="translate(138.921875 134.721967822)scale(0.2 -0.2)">
      <use xlink:href="#BitstreamVeraSans-Roman-2d"/>
      <use x="36.083984375" xlink:href="#BitstreamVeraSans-Roman-38"/>
      <use x="99.70703125" xlink:href="#BitstreamVeraSans-Roman-3a"/>
      <use x="133.3984375" xlink:href="#BitstreamVeraSans-Roman-20"/>
      <use x="165.185546875" xlink:href="#BitstreamVeraSans-Roman-31"/>
      <use x="228.80859375" xlink:href="#BitstreamVeraSans-Roman-2f"/>
      <use x="262.5" xlink:href="#BitstreamVeraSans-Roman-35"/>
     </g>
    </g>
   </g>
  </g>
 </g>
 <defs>
  <clipPath id="p4b24e7e61f">
   <rect height="345.6" width="446.4" x="64.921875" y="13.4563428218"/>
  </clipPath>
 </defs>
</svg>
