<?xml version="1.0" encoding="utf-8" standalone="no"?>
<!DOCTYPE svg PUBLIC "-//W3C//DTD SVG 1.1//EN"
  "http://www.w3.org/Graphics/SVG/1.1/DTD/svg11.dtd">
<!-- Created with matplotlib (http://matplotlib.org/) -->
<svg height="432pt" version="1.1" viewBox="0 0 538 432" width="538pt" xmlns="http://www.w3.org/2000/svg" xmlns:xlink="http://www.w3.org/1999/xlink">
 <defs>
  <style type="text/css">
*{stroke-linecap:butt;stroke-linejoin:round;}
  </style>
 </defs>
 <g id="figure_1">
  <g id="patch_1">
   <path d="
M0 432.436
L538.8 432.436
L538.8 0
L0 0
z
" style="fill:#ffffff;"/>
  </g>
  <g id="axes_1">
   <g id="patch_2">
    <path d="
M85.2 376.036
L531.6 376.036
L531.6 30.4362
L85.2 30.4362
z
" style="fill:#ffffff;"/>
   </g>
   <g id="line2d_1">
    <defs>
     <path d="
M0 1.5
C0.397805 1.5 0.77937 1.34195 1.06066 1.06066
C1.34195 0.77937 1.5 0.397805 1.5 0
C1.5 -0.397805 1.34195 -0.77937 1.06066 -1.06066
C0.77937 -1.34195 0.397805 -1.5 0 -1.5
C-0.397805 -1.5 -0.77937 -1.34195 -1.06066 -1.06066
C-1.34195 -0.77937 -1.5 -0.397805 -1.5 0
C-1.5 0.397805 -1.34195 0.77937 -1.06066 1.06066
C-0.77937 1.34195 -0.397805 1.5 0 1.5
z
" id="m977c291b42" style="stroke:#00bfbf;stroke-width:0.5;"/>
    </defs>
    <g>
     <use style="fill:#00bfbf;stroke:#00bfbf;stroke-width:0.5;" x="370.578572455" xlink:href="#m977c291b42" y="33.8580321782"/>
     <use style="fill:#00bfbf;stroke:#00bfbf;stroke-width:0.5;" x="370.578572455" xlink:href="#m977c291b42" y="33.8580321782"/>
    </g>
   </g>
   <g id="line2d_2">
    <path d="
M69.7185 357.921
L85.2 357.921
L85.2 351.882
L94.2561 351.882
L94.2561 349.87
L100.682 349.87
L100.682 341.147
L105.665 341.147
L105.665 338.464
L109.738 338.464
L109.738 333.767
L121.147 333.767
L121.147 331.754
L131.645 331.754
L131.645 331.083
L132.999 331.083
L132.999 329.742
L141.613 329.742
L141.613 328.4
L144.144 328.4
L144.144 327.729
L150.964 327.729
L150.964 326.387
L155.232 326.387
L155.232 325.716
L158.396 325.716
L158.396 324.374
L161.535 324.374
L161.535 323.032
L166.15 323.032
L166.15 321.69
L168.946 321.69
L168.946 321.019
L179.607 321.019
L179.607 319.007
L189.359 319.007
L189.359 318.336
L201.185 318.336
L201.185 317.665
L204.361 317.665
L204.361 316.323
L207.424 316.323
L207.424 314.981
L209.908 314.981
L209.908 314.31
L210.159 314.31
L210.159 312.968
L211.991 312.968
L212.067 310.955
L212.964 310.955
L212.964 309.613
L213.146 309.613
L213.146 308.272
L213.542 308.272
L213.542 306.93
L214.485 306.93
L214.485 306.259
L215.652 306.259
L215.652 302.904
L216.26 302.904
L216.26 300.891
L217.249 300.891
L217.249 298.878
L218.138 298.878
L218.138 297.537
L218.626 297.537
L218.626 296.866
L219.02 296.866
L219.048 294.182
L219.159 294.182
L219.159 292.84
L219.869 292.84
L219.869 292.169
L220.19 292.169
L220.19 291.498
L221.098 291.498
L221.098 290.827
L222.02 290.827
L222.093 288.814
L222.166 288.814
L222.239 286.802
L223.162 286.802
L223.162 285.46
L223.301 285.46
L223.301 284.789
L223.462 284.789
L223.462 282.776
L223.644 282.776
L223.644 282.105
L223.847 282.105
L223.847 279.421
L224.049 279.421
L224.049 276.737
L224.293 276.737
L224.293 276.067
L224.643 276.067
L224.643 274.054
L224.945 274.054
L224.945 273.383
L225.094 273.383
L225.094 272.041
L226.092 272.041
L226.092 270.699
L226.615 270.699
L226.635 269.357
L226.95 269.357
L226.95 267.344
L227.106 267.344
L227.106 265.332
L227.242 265.332
L227.319 263.319
L227.511 263.319
L227.511 262.648
L228.039 262.648
L228.039 261.306
L228.664 261.306
L228.664 260.635
L229.024 260.635
L229.131 257.951
L229.184 257.951
L229.184 256.609
L229.761 256.609
L229.813 253.926
L230.052 253.926
L230.052 253.255
L230.188 253.255
L230.188 252.584
L230.441 252.584
L230.508 251.242
L230.757 251.242
L230.79 245.203
L231.068 245.203
L231.068 244.532
L231.246 244.532
L231.246 243.862
L231.836 243.862
L231.836 243.191
L232.055 243.191
L232.055 241.178
L232.18 241.178
L232.18 240.507
L232.411 240.507
L232.411 239.836
L233.001 239.836
L233.03 237.152
L233.356 237.152
L233.356 235.81
L233.865 235.81
L233.922 234.468
L234.207 234.468
L234.207 233.797
L234.348 233.797
L234.348 233.127
L234.474 233.127
L234.571 231.114
L234.738 231.114
L234.793 227.759
L235.081 227.759
L235.081 227.088
L235.23 227.088
L235.257 225.075
L235.711 225.075
L235.711 224.404
L236.117 224.404
L236.156 223.062
L236.388 223.062
L236.388 222.392
L236.694 222.392
L236.707 219.037
L236.908 219.037
L236.908 217.695
L237.207 217.695
L237.207 217.024
L237.889 217.024
L237.901 215.011
L239.273 215.011
L239.273 214.34
L239.396 214.34
L239.396 213.669
L239.508 213.669
L239.586 211.657
L239.807 211.657
L239.906 208.973
L240.113 208.973
L240.113 205.618
L240.394 205.618
L240.394 204.947
L240.533 204.947
L240.607 202.934
L240.734 202.934
L240.734 202.263
L241.574 202.263
L241.574 200.922
L241.857 200.922
L241.857 199.58
L242.559 199.58
L242.559 197.567
L242.839 197.567
L242.839 196.896
L243.799 196.896
L243.799 195.554
L248.816 195.554
L248.816 194.883
L249.296 194.883
L249.296 194.212
L249.617 194.212
L249.688 192.87
L250.226 192.87
L250.226 192.199
L250.799 192.199
L250.839 190.857
L250.993 190.857
L251.073 188.845
L252.769 188.845
L252.769 188.174
L253.141 188.174
L253.141 187.503
L300.421 187.503
L300.531 184.148
L300.536 184.148
L300.601 180.793
L300.714 180.793
L300.818 176.097
L300.881 176.097
L300.983 173.413
L301.709 173.413
L301.709 171.4
L315.784 171.4
L315.892 164.691
L315.899 164.691
L315.899 163.349
L316.082 163.349
L316.177 151.943
L316.206 151.943
L316.306 147.917
L316.318 147.917
L316.339 145.234
L316.43 145.234
L316.523 140.537
L316.572 140.537
L316.64 133.828
L316.87 133.828
L316.961 128.46
L316.999 128.46
L317.097 125.106
L317.117 125.106
L317.161 123.093
L324.743 123.093
L324.83 115.041
L324.862 115.041
L324.966 109.003
L324.981 109.003
L324.997 105.648
L325.972 105.648
L326.079 94.9134
L326.1 94.9134
L326.131 88.8749
L336.465 88.8749
L336.465 88.204
L343.808 88.204
L343.902 85.5202
L343.921 85.5202
L343.969 78.8109
L344.047 78.8109
L344.132 76.798
L344.223 76.798
L344.326 66.734
L344.485 66.734
L344.485 66.063
L346.834 66.063
L346.944 62.7084
L347.1 62.7084
L347.13 61.3665
L349.401 61.3665
L349.484 58.0118
L349.516 58.0118
L349.608 55.328
L349.666 55.328
L349.696 53.9862
L349.798 53.9862
L349.851 51.9733
L349.958 51.9733
L349.958 51.3024
L351.732 51.3024
L351.732 50.6315
L351.844 50.6315
L351.886 48.6187
L352.003 48.6187
L352.104 46.6058
L352.121 46.6058
L352.231 43.9221
L359.301 43.9221
L359.301 43.2512
L359.551 43.2512
L359.595 41.2383
L359.695 41.2383
L359.695 40.5674
L360.956 40.5674
L360.956 39.8965
L362.351 39.8965
L362.411 38.5546
L362.465 38.5546
L362.554 37.2127
L362.697 37.2127
L362.697 36.5418
L363.889 36.5418
L363.951 34.529
L370.579 34.529
L370.579 33.858
L445.2 33.858
L445.2 33.858" style="fill:none;stroke:#00bfbf;stroke-linecap:square;stroke-width:1.5;"/>
   </g>
   <g id="line2d_3">
    <defs>
     <path d="
M-6 0
L6 0
M0 6
L0 -6" id="m3e4de746de" style="stroke:#00bfbf;stroke-width:1.5;"/>
    </defs>
    <g>
     <use style="fill:none;stroke:#00bfbf;stroke-width:1.5;" x="179.606943677" xlink:href="#m3e4de746de" y="321.019360076"/>
     <use style="fill:none;stroke:#00bfbf;stroke-width:1.5;" x="243.798555473" xlink:href="#m3e4de746de" y="195.554013541"/>
     <use style="fill:none;stroke:#00bfbf;stroke-width:1.5;" x="317.160888335" xlink:href="#m3e4de746de" y="123.092743885"/>
     <use style="fill:none;stroke:#00bfbf;stroke-width:1.5;" x="362.464745577" xlink:href="#m3e4de746de" y="37.8836582702"/>
     <use style="fill:none;stroke:#00bfbf;stroke-width:1.5;" x="370.578572455" xlink:href="#m3e4de746de" y="33.8580321782"/>
     <use style="fill:none;stroke:#00bfbf;stroke-width:1.5;" x="445.2" xlink:href="#m3e4de746de" y="33.8580321782"/>
    </g>
   </g>
   <g id="line2d_4"/>
   <g id="line2d_5">
    <path clip-path="url(#p6ea69091fa)" d="
M343.916 85.5202" style="fill:none;stroke:#00bfbf;stroke-linecap:square;"/>
    <defs>
     <path d="
M-12 12
L12 -12
M-12 -12
L12 12" id="m09e435d1d9" style="stroke:#00bfbf;stroke-width:3;"/>
    </defs>
    <g clip-path="url(#p6ea69091fa)">
     <use style="fill:#00bfbf;stroke:#00bfbf;stroke-width:3;" x="343.916244893" xlink:href="#m09e435d1d9" y="85.5202336925"/>
    </g>
   </g>
   <g id="line2d_6">
    <defs>
     <path d="
M0 1.5
C0.397805 1.5 0.77937 1.34195 1.06066 1.06066
C1.34195 0.77937 1.5 0.397805 1.5 0
C1.5 -0.397805 1.34195 -0.77937 1.06066 -1.06066
C0.77937 -1.34195 0.397805 -1.5 0 -1.5
C-0.397805 -1.5 -0.77937 -1.34195 -1.06066 -1.06066
C-1.34195 -0.77937 -1.5 -0.397805 -1.5 0
C-1.5 0.397805 -1.34195 0.77937 -1.06066 1.06066
C-0.77937 1.34195 -0.397805 1.5 0 1.5
z
" id="mb0b177905e" style="stroke:#008000;stroke-width:0.5;"/>
    </defs>
    <g>
     <use style="fill:#008000;stroke:#008000;stroke-width:0.5;" x="435.312342628" xlink:href="#mb0b177905e" y="33.8580321782"/>
     <use style="fill:#008000;stroke:#008000;stroke-width:0.5;" x="435.312342628" xlink:href="#mb0b177905e" y="33.8580321782"/>
    </g>
   </g>
   <g id="line2d_7">
    <path d="
M76.1439 342.489
L91.6254 342.489
L91.6254 339.806
L100.682 339.806
L100.682 337.793
L104.125 337.793
L104.125 336.451
L107.107 336.451
L107.107 334.438
L109.738 334.438
L109.738 333.767
L112.091 333.767
L112.091 331.754
L121.147 331.754
L121.147 331.083
L126.427 331.083
L126.427 329.071
L135.871 329.071
L135.871 328.4
L139.424 328.4
L139.424 327.058
L143.606 327.058
L143.606 325.045
L152.842 325.045
L152.842 323.703
L154.906 323.703
L154.906 322.361
L155.553 322.361
L155.553 321.019
L157.682 321.019
L157.682 320.348
L158.255 320.348
L158.255 319.007
L185.704 319.007
L185.704 316.994
L199.015 316.994
L199.015 316.323
L201.717 316.323
L201.717 314.981
L203.087 314.981
L203.087 312.968
L204.486 312.968
L204.486 310.955
L208.193 310.955
L208.193 310.284
L209.168 310.284
L209.168 308.942
L211.344 308.942
L211.344 308.272
L211.709 308.272
L211.709 306.93
L213.351 306.93
L213.351 305.588
L213.542 305.588
L213.542 304.917
L214.268 304.917
L214.268 304.246
L215.565 304.246
L215.565 303.575
L216.459 303.575
L216.459 302.233
L218.321 302.233
L218.321 301.562
L221.098 301.562
L221.098 300.891
L222.061 300.891
L222.061 299.549
L223.989 299.549
L223.989 298.878
L225.376 298.878
L225.376 298.207
L227.852 298.207
L227.852 297.537
L232.169 297.537
L232.272 296.195
L232.293 296.195
L232.293 295.524
L232.619 295.524
L232.619 294.853
L233.09 294.853
L233.09 294.182
L233.725 294.182
L233.831 292.84
L234.174 292.84
L234.174 292.169
L234.622 292.169
L234.622 291.498
L234.742 291.498
L234.742 290.827
L235.706 290.827
L235.706 290.156
L237.752 290.156
L237.752 288.143
L238.04 288.143
L238.04 287.472
L238.597 287.472
L238.597 285.46
L239.493 285.46
L239.493 284.118
L245.133 284.118
L245.133 283.447
L245.956 283.447
L245.956 282.105
L246.669 282.105
L246.669 281.434
L247.038 281.434
L247.038 280.763
L247.635 280.763
L247.635 278.079
L248.101 278.079
L248.101 277.408
L248.606 277.408
L248.69 275.396
L248.847 275.396
L248.847 274.054
L249.154 274.054
L249.154 273.383
L249.627 273.383
L249.627 272.041
L250.594 272.041
L250.594 270.699
L251.042 270.699
L251.042 270.028
L251.32 270.028
L251.32 269.357
L251.698 269.357
L251.698 267.344
L251.865 267.344
L251.865 266.002
L252.061 266.002
L252.082 264.661
L297.943 264.661
L298.05 261.306
L299.001 261.306
L299.001 260.635
L299.712 260.635
L299.712 259.964
L312.235 259.964
L312.258 257.951
L313.015 257.951
L313.042 251.913
L313.135 251.913
L313.135 251.242
L313.308 251.242
L313.308 250.571
L313.817 250.571
L313.817 249.9
L314.863 249.9
L314.895 246.545
L322.582 246.545
L322.582 245.874
L329.082 245.874
L329.13 243.191
L329.262 243.191
L329.271 240.507
L333.794 240.507
L333.894 235.81
L333.936 235.81
L333.969 233.127
L340.915 233.127
L340.915 231.114
L342.682 231.114
L342.742 229.772
L343.929 229.772
L343.929 229.101
L344.21 229.101
L344.304 227.088
L344.343 227.088
L344.343 226.417
L344.462 226.417
L344.462 225.746
L344.587 225.746
L344.634 222.392
L344.7 222.392
L344.754 215.682
L344.849 215.682
L344.879 213.669
L344.978 213.669
L345.088 211.657
L345.108 211.657
L345.176 210.315
L345.301 210.315
L345.301 209.644
L346.911 209.644
L346.911 208.973
L349.136 208.973
L349.136 208.302
L349.337 208.302
L349.356 206.96
L349.5 206.96
L349.5 206.289
L349.876 206.289
L349.876 205.618
L354.849 205.618
L354.851 203.605
L355.127 203.605
L355.127 202.934
L355.252 202.934
L355.252 202.263
L355.398 202.263
L355.398 201.592
L355.619 201.592
L355.619 200.922
L358.228 200.922
L358.228 200.251
L358.654 200.251
L358.654 199.58
L359.064 199.58
L359.064 198.909
L359.454 198.909
L359.454 198.238
L359.67 198.238
L359.779 196.225
L359.799 196.225
L359.799 195.554
L359.942 195.554
L360.039 192.199
L360.068 192.199
L360.178 184.819
L360.189 184.819
L360.255 182.135
L360.345 182.135
L360.349 180.793
L360.627 180.793
L360.627 180.122
L362.091 180.122
L362.091 179.452
L362.485 179.452
L362.485 178.781
L365.167 178.781
L365.205 177.439
L365.774 177.439
L365.885 175.426
L366.062 175.426
L366.062 174.755
L366.178 174.755
L366.201 173.413
L366.35 173.413
L366.35 172.742
L368.101 172.742
L368.14 171.4
L368.277 171.4
L368.384 170.058
L368.395 170.058
L368.479 168.046
L368.627 168.046
L368.627 167.375
L368.804 167.375
L368.864 164.691
L368.947 164.691
L368.991 162.678
L369.113 162.678
L369.216 159.323
L369.244 159.323
L369.26 157.982
L369.537 157.982
L369.537 157.311
L372.129 157.311
L372.129 156.64
L372.755 156.64
L372.84 155.298
L373.057 155.298
L373.088 153.285
L373.192 153.285
L373.294 151.943
L373.325 151.943
L373.325 151.272
L374.736 151.272
L374.846 149.93
L374.856 149.93
L374.935 147.917
L374.971 147.917
L375.01 146.576
L375.088 146.576
L375.088 145.905
L375.224 145.905
L375.294 142.55
L375.363 142.55
L375.455 139.195
L375.495 139.195
L375.546 137.182
L375.698 137.182
L375.702 135.841
L378.251 135.841
L378.251 135.17
L378.375 135.17
L378.375 134.499
L378.583 134.499
L378.583 133.828
L378.957 133.828
L378.957 133.157
L379.661 133.157
L379.661 132.486
L380.068 132.486
L380.068 131.815
L380.216 131.815
L380.318 128.46
L380.361 128.46
L380.397 126.447
L380.564 126.447
L380.629 125.106
L381.41 125.106
L381.508 123.764
L382.694 123.764
L382.694 123.093
L383.029 123.093
L383.068 121.08
L383.842 121.08
L383.907 119.738
L384.199 119.738
L384.27 117.725
L384.325 117.725
L384.419 115.041
L384.536 115.041
L384.592 111.016
L386.306 111.016
L386.387 109.003
L386.569 109.003
L386.569 108.332
L386.756 108.332
L386.771 106.99
L387.465 106.99
L387.516 105.648
L387.671 105.648
L387.671 104.977
L387.808 104.977
L387.871 103.636
L387.946 103.636
L387.996 100.952
L388.071 100.952
L388.071 100.281
L389.368 100.281
L389.368 99.6099
L389.822 99.6099
L389.822 98.939
L390.309 98.939
L390.309 98.268
L390.475 98.268
L390.553 96.9262
L390.647 96.9262
L390.676 94.9134
L390.941 94.9134
L391.025 92.9005
L392.218 92.9005
L392.326 91.5587
L392.444 91.5587
L392.444 90.8877
L393.094 90.8877
L393.138 89.5459
L393.284 89.5459
L393.312 88.204
L393.413 88.204
L393.418 86.8621
L393.532 86.8621
L393.64 84.1784
L394.436 84.1784
L394.436 83.5074
L394.808 83.5074
L394.808 82.8365
L395.125 82.8365
L395.194 81.4946
L395.419 81.4946
L395.495 80.1527
L395.647 80.1527
L395.674 78.8109
L395.776 78.8109
L395.776 77.469
L395.92 77.469
L395.991 74.7852
L396.066 74.7852
L396.066 74.1143
L397.549 74.1143
L397.594 72.1015
L397.727 72.1015
L397.799 70.7596
L397.839 70.7596
L397.929 69.4177
L397.968 69.4177
L398.02 68.0759
L398.089 68.0759
L398.089 67.4049
L399.83 67.4049
L399.83 66.734
L399.952 66.734
L399.952 66.063
L401.476 66.063
L401.518 64.7212
L402.393 64.7212
L402.393 64.0502
L402.857 64.0502
L402.857 63.3793
L403.171 63.3793
L403.178 62.0374
L403.962 62.0374
L403.962 61.3665
L404.717 61.3665
L404.822 59.3537
L404.872 59.3537
L404.97 56.6699
L406.039 56.6699
L406.107 55.328
L406.245 55.328
L406.245 54.6571
L407.573 54.6571
L407.591 53.3152
L407.697 53.3152
L407.703 51.9733
L408.927 51.9733
L408.927 51.3024
L409.486 51.3024
L409.575 49.9605
L410.004 49.9605
L410.004 49.2896
L411.175 49.2896
L411.175 48.6187
L411.936 48.6187
L411.936 47.9477
L412.272 47.9477
L412.272 47.2768
L412.914 47.2768
L412.914 46.6058
L413.391 46.6058
L413.456 45.264
L414.297 45.264
L414.326 43.9221
L415.228 43.9221
L415.228 43.2512
L415.892 43.2512
L415.989 41.9093
L416.276 41.9093
L416.276 41.2383
L416.424 41.2383
L416.424 40.5674
L417.096 40.5674
L417.096 39.8965
L417.832 39.8965
L417.899 38.5546
L419.163 38.5546
L419.163 37.8837
L420.658 37.8837
L420.658 37.2127
L421.539 37.2127
L421.539 36.5418
L422.311 36.5418
L422.311 35.8708
L423.131 35.8708
L423.131 35.1999
L424.326 35.1999
L424.326 34.529
L435.312 34.529
L435.312 33.858
L445.2 33.858
L445.2 33.858" style="fill:none;stroke:#008000;stroke-linecap:square;stroke-width:1.5;"/>
   </g>
   <g id="line2d_8">
    <defs>
     <path d="
M-7.34788e-16 6
L6 -6
L-6 -6
z
" id="m397e16cd68" style="stroke:#008000;stroke-linejoin:miter;stroke-width:1.5;"/>
    </defs>
    <g>
     <use style="fill:none;stroke:#008000;stroke-linejoin:miter;stroke-width:1.5;" x="158.254585881" xlink:href="#m397e16cd68" y="319.00654703"/>
     <use style="fill:none;stroke:#008000;stroke-linejoin:miter;stroke-width:1.5;" x="252.082449426" xlink:href="#m397e16cd68" y="264.660594787"/>
     <use style="fill:none;stroke:#008000;stroke-linejoin:miter;stroke-width:1.5;" x="360.149258487" xlink:href="#m397e16cd68" y="189.515574403"/>
     <use style="fill:none;stroke:#008000;stroke-linejoin:miter;stroke-width:1.5;" x="395.419469063" xlink:href="#m397e16cd68" y="80.8236699185"/>
     <use style="fill:none;stroke:#008000;stroke-linejoin:miter;stroke-width:1.5;" x="435.312342628" xlink:href="#m397e16cd68" y="33.8580321782"/>
     <use style="fill:none;stroke:#008000;stroke-linejoin:miter;stroke-width:1.5;" x="445.2" xlink:href="#m397e16cd68" y="33.8580321782"/>
    </g>
   </g>
   <g id="line2d_9"/>
   <g id="line2d_10">
    <path clip-path="url(#p6ea69091fa)" d="
M344.438 226.417" style="fill:none;stroke:#008000;stroke-linecap:square;"/>
    <defs>
     <path d="
M-12 12
L12 -12
M-12 -12
L12 12" id="m8c089fa6cd" style="stroke:#008000;stroke-width:3;"/>
    </defs>
    <g clip-path="url(#p6ea69091fa)">
     <use style="fill:#008000;stroke:#008000;stroke-width:3;" x="344.43829929" xlink:href="#m8c089fa6cd" y="226.417146913"/>
    </g>
   </g>
   <g id="line2d_11">
    <defs>
     <path d="
M0 1.5
C0.397805 1.5 0.77937 1.34195 1.06066 1.06066
C1.34195 0.77937 1.5 0.397805 1.5 0
C1.5 -0.397805 1.34195 -0.77937 1.06066 -1.06066
C0.77937 -1.34195 0.397805 -1.5 0 -1.5
C-0.397805 -1.5 -0.77937 -1.34195 -1.06066 -1.06066
C-1.34195 -0.77937 -1.5 -0.397805 -1.5 0
C-1.5 0.397805 -1.34195 0.77937 -1.06066 1.06066
C-0.77937 1.34195 -0.397805 1.5 0 1.5
z
" id="m76a7ce5b4a" style="stroke:#0000ff;stroke-width:0.5;"/>
    </defs>
    <g>
     <use style="fill:#0000ff;stroke:#0000ff;stroke-width:0.5;" x="410.147450493" xlink:href="#m76a7ce5b4a" y="261.976844059"/>
     <use style="fill:#0000ff;stroke:#0000ff;stroke-width:0.5;" x="410.147450493" xlink:href="#m76a7ce5b4a" y="261.976844059"/>
    </g>
   </g>
   <g id="line2d_12">
    <path d="
M80.2161 338.464
L85.2 338.464
L85.2 337.793
L89.2722 337.793
L89.2722 337.122
L95.6976 337.122
L95.6976 336.451
L98.3283 336.451
L98.3283 335.78
L102.81 335.78
L102.81 334.438
L111.179 334.438
L111.179 331.083
L112.533 331.083
L112.533 330.412
L116.163 330.412
L116.163 329.742
L122.023 329.742
L122.023 326.387
L132.196 326.387
L132.196 324.374
L141.07 324.374
L141.07 323.703
L144.773 323.703
L144.773 322.361
L152.77 322.361
L152.77 321.69
L156.182 321.69
L156.182 321.019
L165.85 321.019
L165.85 320.348
L181.392 320.348
L181.392 318.336
L189.982 318.336
L189.982 316.994
L192.055 316.994
L192.055 316.323
L200.274 316.323
L200.274 314.981
L203.672 314.981
L203.672 314.31
L208.235 314.31
L208.235 313.639
L209.891 313.639
L209.891 312.968
L213.255 312.968
L213.255 311.626
L213.413 311.626
L213.413 310.955
L213.699 310.955
L213.699 310.284
L217.447 310.284
L217.447 308.272
L219.713 308.272
L219.713 307.601
L221.24 307.601
L221.24 306.93
L221.621 306.93
L221.621 305.588
L222.546 305.588
L222.546 304.917
L222.962 304.917
L222.962 304.246
L225.465 304.246
L225.465 303.575
L235.431 303.575
L235.431 302.904
L235.645 302.904
L235.645 302.233
L235.845 302.233
L235.845 301.562
L236.519 301.562
L236.519 300.891
L295.242 300.891
L295.242 300.22
L295.677 300.22
L295.677 299.549
L296.242 299.549
L296.265 298.207
L296.413 298.207
L296.413 297.537
L297.283 297.537
L297.283 296.866
L310.352 296.866
L310.352 295.524
L311.319 295.524
L311.319 294.853
L312.639 294.853
L312.639 294.182
L319.606 294.182
L319.606 292.169
L320.382 292.169
L320.419 290.156
L325.597 290.156
L325.602 288.814
L326.214 288.814
L326.238 286.802
L326.375 286.802
L326.401 284.789
L326.924 284.789
L326.94 282.105
L330.199 282.105
L330.208 280.763
L338.167 280.763
L338.167 279.421
L343.986 279.421
L343.986 278.75
L346.745 278.75
L346.745 278.079
L352.531 278.079
L352.625 276.737
L352.668 276.737
L352.668 276.067
L360.694 276.067
L360.694 275.396
L363.962 275.396
L363.962 274.725
L364.368 274.725
L364.368 274.054
L369.282 274.054
L369.385 272.712
L370.012 272.712
L370.035 271.37
L370.124 271.37
L370.124 270.699
L371.585 270.699
L371.585 270.028
L375.55 270.028
L375.55 269.357
L376.064 269.357
L376.16 268.015
L381.872 268.015
L381.872 267.344
L384.743 267.344
L384.743 266.673
L384.864 266.673
L384.864 266.002
L385.498 266.002
L385.498 265.332
L385.663 265.332
L385.663 264.661
L388.772 264.661
L388.772 263.99
L391.572 263.99
L391.572 263.319
L401.537 263.319
L401.537 262.648
L410.147 262.648
L410.147 261.977
L445.2 261.977
L445.2 261.977" style="fill:none;stroke:#0000ff;stroke-linecap:square;stroke-width:1.5;"/>
   </g>
   <g id="line2d_13">
    <defs>
     <path d="
M3.67394e-16 -6
L-1.34708 -1.8541
L-5.70634 -1.8541
L-2.17963 0.708204
L-3.52671 4.8541
L-4.20996e-16 2.2918
L3.52671 4.8541
L2.17963 0.708204
L5.70634 -1.8541
L1.34708 -1.8541
z
" id="m0933169453" style="stroke:#0000ff;stroke-linejoin:bevel;stroke-width:1.5;"/>
    </defs>
    <g>
     <use style="fill:none;stroke:#0000ff;stroke-linejoin:bevel;stroke-width:1.5;" x="156.182292431" xlink:href="#m0933169453" y="321.690297758"/>
     <use style="fill:none;stroke:#0000ff;stroke-linejoin:bevel;stroke-width:1.5;" x="236.518581578" xlink:href="#m0933169453" y="301.562167298"/>
     <use style="fill:none;stroke:#0000ff;stroke-linejoin:bevel;stroke-width:1.5;" x="330.198851618" xlink:href="#m0933169453" y="281.434036838"/>
     <use style="fill:none;stroke:#0000ff;stroke-linejoin:bevel;stroke-width:1.5;" x="410.147450493" xlink:href="#m0933169453" y="261.976844059"/>
     <use style="fill:none;stroke:#0000ff;stroke-linejoin:bevel;stroke-width:1.5;" x="410.147450493" xlink:href="#m0933169453" y="261.976844059"/>
     <use style="fill:none;stroke:#0000ff;stroke-linejoin:bevel;stroke-width:1.5;" x="445.2" xlink:href="#m0933169453" y="261.976844059"/>
    </g>
   </g>
   <g id="line2d_14"/>
   <g id="line2d_15">
    <path clip-path="url(#p6ea69091fa)" d="
M343.993 278.75" style="fill:none;stroke:#0000ff;stroke-linecap:square;"/>
    <defs>
     <path d="
M-12 12
L12 -12
M-12 -12
L12 12" id="ma4a355cd2c" style="stroke:#0000ff;stroke-width:3;"/>
    </defs>
    <g clip-path="url(#p6ea69091fa)">
     <use style="fill:#0000ff;stroke:#0000ff;stroke-width:3;" x="343.992986011" xlink:href="#ma4a355cd2c" y="278.750286109"/>
    </g>
   </g>
   <g id="line2d_16">
    <defs>
     <path d="
M0 1.5
C0.397805 1.5 0.77937 1.34195 1.06066 1.06066
C1.34195 0.77937 1.5 0.397805 1.5 0
C1.5 -0.397805 1.34195 -0.77937 1.06066 -1.06066
C0.77937 -1.34195 0.397805 -1.5 0 -1.5
C-0.397805 -1.5 -0.77937 -1.34195 -1.06066 -1.06066
C-1.34195 -0.77937 -1.5 -0.397805 -1.5 0
C-1.5 0.397805 -1.34195 0.77937 -1.06066 1.06066
C-0.77937 1.34195 -0.397805 1.5 0 1.5
z
" id="m66763a63fb" style="stroke:#000000;stroke-width:0.5;"/>
    </defs>
    <g>
     <use style="stroke:#000000;stroke-width:0.5;" x="365.735254682" xlink:href="#m66763a63fb" y="282.10497452"/>
     <use style="stroke:#000000;stroke-width:0.5;" x="365.735254682" xlink:href="#m66763a63fb" y="282.10497452"/>
    </g>
   </g>
   <g id="line2d_17">
    <path d="
M82.8468 337.793
L85.2 337.793
L85.2 336.451
L89.2722 336.451
L89.2722 335.109
L92.7152 335.109
L92.7152 333.767
L97.0517 333.767
L97.0517 332.425
L99.5359 332.425
L99.5359 331.083
L105.665 331.083
L105.665 329.071
L108.197 329.071
L108.197 327.058
L117.253 327.058
L117.253 326.387
L122.023 326.387
L122.023 325.716
L152.222 325.716
L152.222 323.703
L153.412 323.703
L153.412 322.361
L157.798 322.361
L157.798 321.019
L163.227 321.019
L163.227 320.348
L185.024 320.348
L185.024 319.677
L205.99 319.677
L205.99 318.336
L207.349 318.336
L207.349 317.665
L208.939 317.665
L208.939 316.994
L211.945 316.994
L211.945 315.652
L212.891 315.652
L212.891 314.981
L222.244 314.981
L222.244 314.31
L223.612 314.31
L223.612 312.968
L224.508 312.968
L224.508 310.955
L225.599 310.955
L225.599 310.284
L226.275 310.284
L226.275 309.613
L227.826 309.613
L227.826 308.942
L232.315 308.942
L232.315 308.272
L233.853 308.272
L233.853 307.601
L234.53 307.601
L234.53 306.93
L235.546 306.93
L235.546 306.259
L292.369 306.259
L292.369 305.588
L292.376 305.588
L292.376 304.917
L292.455 304.917
L292.455 302.904
L292.496 302.904
L292.496 302.233
L303.988 302.233
L303.988 301.562
L306.428 301.562
L306.428 300.22
L306.437 300.22
L306.437 299.549
L306.449 299.549
L306.449 298.878
L307.683 298.878
L307.683 298.207
L321.508 298.207
L321.508 296.866
L321.906 296.866
L321.906 296.195
L322.399 296.195
L322.399 295.524
L331.026 295.524
L331.026 293.511
L331.276 293.511
L331.276 292.84
L331.308 292.84
L331.308 292.169
L334.082 292.169
L334.082 291.498
L336.186 291.498
L336.186 290.827
L336.974 290.827
L336.974 290.156
L340.035 290.156
L340.035 289.485
L340.069 289.485
L340.069 288.143
L341.466 288.143
L341.466 287.472
L341.744 287.472
L341.744 286.802
L341.756 286.802
L341.756 286.131
L343.904 286.131
L343.904 285.46
L344.117 285.46
L344.117 284.789
L348.366 284.789
L348.366 284.118
L351.192 284.118
L351.192 283.447
L355.538 283.447
L355.538 282.776
L365.735 282.776
L365.735 282.105
L445.2 282.105" style="fill:none;stroke:#000000;stroke-linecap:square;stroke-width:1.5;"/>
   </g>
   <g id="line2d_18">
    <defs>
     <path d="
M0 6
C1.59122 6 3.11748 5.3678 4.24264 4.24264
C5.3678 3.11748 6 1.59122 6 0
C6 -1.59122 5.3678 -3.11748 4.24264 -4.24264
C3.11748 -5.3678 1.59122 -6 0 -6
C-1.59122 -6 -3.11748 -5.3678 -4.24264 -4.24264
C-5.3678 -3.11748 -6 -1.59122 -6 0
C-6 1.59122 -5.3678 3.11748 -4.24264 4.24264
C-3.11748 5.3678 -1.59122 6 0 6
z
" id="ma42492ef9b" style="stroke:#000000;stroke-width:1.5;"/>
    </defs>
    <g>
     <use style="fill:none;stroke:#000000;stroke-width:1.5;" x="108.196698755" xlink:href="#ma42492ef9b" y="327.057799214"/>
     <use style="fill:none;stroke:#000000;stroke-width:1.5;" x="223.612119298" xlink:href="#ma42492ef9b" y="314.309983256"/>
     <use style="fill:none;stroke:#000000;stroke-width:1.5;" x="331.30780274" xlink:href="#ma42492ef9b" y="292.839977432"/>
     <use style="fill:none;stroke:#000000;stroke-width:1.5;" x="365.735254682" xlink:href="#ma42492ef9b" y="282.10497452"/>
     <use style="fill:none;stroke:#000000;stroke-width:1.5;" x="365.735254682" xlink:href="#ma42492ef9b" y="282.10497452"/>
     <use style="fill:none;stroke:#000000;stroke-width:1.5;" x="445.2" xlink:href="#ma42492ef9b" y="282.10497452"/>
    </g>
   </g>
   <g id="line2d_19"/>
   <g id="line2d_20">
    <path clip-path="url(#p6ea69091fa)" d="
M343.988 285.46" style="fill:none;stroke:#000000;stroke-linecap:square;"/>
    <defs>
     <path d="
M-12 12
L12 -12
M-12 -12
L12 12" id="m47417b404f" style="stroke:#000000;stroke-width:3;"/>
    </defs>
    <g clip-path="url(#p6ea69091fa)">
     <use style="stroke:#000000;stroke-width:3;" x="343.988484001" xlink:href="#m47417b404f" y="285.45966293"/>
    </g>
   </g>
   <g id="line2d_21">
    <defs>
     <path d="
M0 1.5
C0.397805 1.5 0.77937 1.34195 1.06066 1.06066
C1.34195 0.77937 1.5 0.397805 1.5 0
C1.5 -0.397805 1.34195 -0.77937 1.06066 -1.06066
C0.77937 -1.34195 0.397805 -1.5 0 -1.5
C-0.397805 -1.5 -0.77937 -1.34195 -1.06066 -1.06066
C-1.34195 -0.77937 -1.5 -0.397805 -1.5 0
C-1.5 0.397805 -1.34195 0.77937 -1.06066 1.06066
C-0.77937 1.34195 -0.397805 1.5 0 1.5
z
" id="ma07bdd5909" style="stroke:#ff0000;stroke-width:0.5;"/>
    </defs>
    <g>
     <use style="fill:#ff0000;stroke:#ff0000;stroke-width:0.5;" x="398.536376177" xlink:href="#ma07bdd5909" y="282.10497452"/>
     <use style="fill:#ff0000;stroke:#ff0000;stroke-width:0.5;" x="398.536376177" xlink:href="#ma07bdd5909" y="282.10497452"/>
    </g>
   </g>
   <g id="line2d_22">
    <path d="
M80.2161 334.438
L93.4989 334.438
L93.4989 332.425
L94.9885 332.425
L94.9885 331.083
L108.592 331.083
L108.592 330.412
L109.362 330.412
L109.362 329.742
L128.979 329.742
L128.979 329.071
L131.922 329.071
L131.922 328.4
L173.58 328.4
L173.58 327.729
L185.1 327.729
L185.1 326.387
L201.179 326.387
L201.179 325.716
L211.868 325.716
L211.868 325.045
L212.858 325.045
L212.858 323.703
L214.068 323.703
L214.068 323.032
L214.193 323.032
L214.193 322.361
L215.348 322.361
L215.348 321.69
L217.297 321.69
L217.297 321.019
L218.844 321.019
L218.844 320.348
L219.112 320.348
L219.112 319.677
L219.902 319.677
L219.902 319.007
L220.994 319.007
L220.994 318.336
L221.765 318.336
L221.765 316.323
L223.496 316.323
L223.496 315.652
L229.194 315.652
L229.194 314.981
L229.479 314.981
L229.479 314.31
L230.962 314.31
L230.962 313.639
L287.235 313.639
L287.235 312.968
L288.129 312.968
L288.129 310.955
L288.909 310.955
L288.909 310.284
L288.962 310.284
L288.962 308.272
L289.172 308.272
L289.172 306.93
L289.422 306.93
L289.422 305.588
L311.726 305.588
L311.726 304.917
L317.854 304.917
L317.854 304.246
L318.18 304.246
L318.18 303.575
L318.195 303.575
L318.195 302.904
L318.22 302.904
L318.22 302.233
L318.248 302.233
L318.248 300.891
L318.257 300.891
L318.257 300.22
L322.539 300.22
L322.539 299.549
L322.58 299.549
L322.58 298.207
L322.867 298.207
L322.867 297.537
L335.269 297.537
L335.269 296.866
L337.932 296.866
L337.932 295.524
L340.372 295.524
L340.372 294.853
L343.707 294.853
L343.707 294.182
L349.241 294.182
L349.241 293.511
L349.423 293.511
L349.423 292.84
L351.852 292.84
L351.852 292.169
L355.935 292.169
L355.935 291.498
L358.836 291.498
L358.836 290.827
L366.156 290.827
L366.156 290.156
L366.307 290.156
L366.307 289.485
L370.533 289.485
L370.533 288.814
L371.235 288.814
L371.235 288.143
L373.126 288.143
L373.126 287.472
L378.364 287.472
L378.364 286.802
L379.495 286.802
L379.495 286.131
L382.419 286.131
L382.419 285.46
L382.693 285.46
L382.693 284.789
L386.312 284.789
L386.312 284.118
L387.806 284.118
L387.806 283.447
L394.444 283.447
L394.444 282.776
L398.536 282.776
L398.536 282.105
L445.2 282.105" style="fill:none;stroke:#ff0000;stroke-linecap:square;stroke-width:1.5;"/>
   </g>
   <g id="line2d_23">
    <defs>
     <path d="
M-6 6
L6 6
L6 -6
L-6 -6
z
" id="m9d489a7eec" style="stroke:#ff0000;stroke-linejoin:miter;stroke-width:1.5;"/>
    </defs>
    <g>
     <use style="fill:none;stroke:#ff0000;stroke-linejoin:miter;stroke-width:1.5;" x="109.362275107" xlink:href="#m9d489a7eec" y="330.412487624"/>
     <use style="fill:none;stroke:#ff0000;stroke-linejoin:miter;stroke-width:1.5;" x="230.962030739" xlink:href="#m9d489a7eec" y="314.309983256"/>
     <use style="fill:none;stroke:#ff0000;stroke-linejoin:miter;stroke-width:1.5;" x="322.867439748" xlink:href="#m9d489a7eec" y="297.536541206"/>
     <use style="fill:none;stroke:#ff0000;stroke-linejoin:miter;stroke-width:1.5;" x="398.536376177" xlink:href="#m9d489a7eec" y="282.10497452"/>
     <use style="fill:none;stroke:#ff0000;stroke-linejoin:miter;stroke-width:1.5;" x="398.536376177" xlink:href="#m9d489a7eec" y="282.10497452"/>
     <use style="fill:none;stroke:#ff0000;stroke-linejoin:miter;stroke-width:1.5;" x="445.2" xlink:href="#m9d489a7eec" y="282.10497452"/>
    </g>
   </g>
   <g id="line2d_24"/>
   <g id="line2d_25">
    <path clip-path="url(#p6ea69091fa)" d="
M343.577 294.853" style="fill:none;stroke:#ff0000;stroke-linecap:square;"/>
    <defs>
     <path d="
M-12 12
L12 -12
M-12 -12
L12 12" id="m4e2b024d89" style="stroke:#ff0000;stroke-width:3;"/>
    </defs>
    <g clip-path="url(#p6ea69091fa)">
     <use style="fill:#ff0000;stroke:#ff0000;stroke-width:3;" x="343.576698837" xlink:href="#m4e2b024d89" y="294.852790478"/>
    </g>
   </g>
   <g id="line2d_26">
    <path d="
M445.2 282.105
L484.8 369.193" style="fill:none;stroke:#ff0000;stroke-linecap:square;stroke-width:1.5;"/>
    <g>
     <use style="fill:none;stroke:#ff0000;stroke-linejoin:miter;stroke-width:1.5;" x="445.2" xlink:href="#m9d489a7eec" y="282.10497452"/>
     <use style="fill:none;stroke:#ff0000;stroke-linejoin:miter;stroke-width:1.5;" x="484.8" xlink:href="#m9d489a7eec" y="369.192685644"/>
    </g>
   </g>
   <g id="line2d_27">
    <path d="
M445.2 282.105
L484.8 287.07" style="fill:none;stroke:#000000;stroke-linecap:square;stroke-width:1.5;"/>
    <g>
     <use style="fill:none;stroke:#000000;stroke-width:1.5;" x="445.2" xlink:href="#ma42492ef9b" y="282.10497452"/>
     <use style="fill:none;stroke:#000000;stroke-width:1.5;" x="484.8" xlink:href="#ma42492ef9b" y="287.069913366"/>
    </g>
   </g>
   <g id="line2d_28">
    <path d="
M445.2 261.977
L484.8 204.947" style="fill:none;stroke:#0000ff;stroke-linecap:square;stroke-width:1.5;"/>
    <g>
     <use style="fill:none;stroke:#0000ff;stroke-linejoin:bevel;stroke-width:1.5;" x="445.2" xlink:href="#m0933169453" y="261.976844059"/>
     <use style="fill:none;stroke:#0000ff;stroke-linejoin:bevel;stroke-width:1.5;" x="484.8" xlink:href="#m0933169453" y="204.947141089"/>
    </g>
   </g>
   <g id="line2d_29">
    <path d="
M445.2 33.858
L484.8 122.824" style="fill:none;stroke:#008000;stroke-linecap:square;stroke-width:1.5;"/>
    <g>
     <use style="fill:none;stroke:#008000;stroke-linejoin:miter;stroke-width:1.5;" x="445.2" xlink:href="#m397e16cd68" y="33.8580321782"/>
     <use style="fill:none;stroke:#008000;stroke-linejoin:miter;stroke-width:1.5;" x="484.8" xlink:href="#m397e16cd68" y="122.824368812"/>
    </g>
   </g>
   <g id="line2d_30">
    <path d="
M445.2 33.858
L484.8 40.7016" style="fill:none;stroke:#00bfbf;stroke-linecap:square;stroke-width:1.5;"/>
    <g>
     <use style="fill:none;stroke:#00bfbf;stroke-width:1.5;" x="445.2" xlink:href="#m3e4de746de" y="33.8580321782"/>
     <use style="fill:none;stroke:#00bfbf;stroke-width:1.5;" x="484.8" xlink:href="#m3e4de746de" y="40.7015965347"/>
    </g>
   </g>
   <g id="line2d_31">
    <path d="
M445.2 376.036
L445.2 33.858" style="fill:none;stroke:#000000;stroke-linecap:square;"/>
   </g>
   <g id="matplotlib.axis_1">
    <g id="xtick_1">
     <g id="line2d_32">
      <path clip-path="url(#p6ea69091fa)" d="
M85.2 376.036
L85.2 30.4362" style="fill:none;stroke:#000000;stroke-dasharray:1.000000,3.000000;stroke-dashoffset:0.0;stroke-width:0.5;"/>
     </g>
     <g id="line2d_33">
      <defs>
       <path d="
M0 0
L0 -4" id="m93b0483c22" style="stroke:#000000;stroke-width:0.5;"/>
      </defs>
      <g>
       <use style="stroke:#000000;stroke-width:0.5;" x="85.2" xlink:href="#m93b0483c22" y="376.03625"/>
      </g>
     </g>
     <g id="line2d_34">
      <defs>
       <path d="
M0 0
L0 4" id="m741efc42ff" style="stroke:#000000;stroke-width:0.5;"/>
      </defs>
      <g>
       <use style="stroke:#000000;stroke-width:0.5;" x="85.2" xlink:href="#m741efc42ff" y="30.43625"/>
      </g>
     </g>
     <g id="text_1">
      <!-- 0 -->
      <defs>
       <path d="
M31.7812 66.4062
Q24.1719 66.4062 20.3281 58.9062
Q16.5 51.4219 16.5 36.375
Q16.5 21.3906 20.3281 13.8906
Q24.1719 6.39062 31.7812 6.39062
Q39.4531 6.39062 43.2812 13.8906
Q47.125 21.3906 47.125 36.375
Q47.125 51.4219 43.2812 58.9062
Q39.4531 66.4062 31.7812 66.4062
M31.7812 74.2188
Q44.0469 74.2188 50.5156 64.5156
Q56.9844 54.8281 56.9844 36.375
Q56.9844 17.9688 50.5156 8.26562
Q44.0469 -1.42188 31.7812 -1.42188
Q19.5312 -1.42188 13.0625 8.26562
Q6.59375 17.9688 6.59375 36.375
Q6.59375 54.8281 13.0625 64.5156
Q19.5312 74.2188 31.7812 74.2188" id="BitstreamVeraSans-Roman-30"/>
      </defs>
      <g transform="translate(80.1609375 395.233125)scale(0.2 -0.2)">
       <use xlink:href="#BitstreamVeraSans-Roman-30"/>
      </g>
     </g>
    </g>
    <g id="xtick_2">
     <g id="line2d_35">
      <path clip-path="url(#p6ea69091fa)" d="
M136.629 376.036
L136.629 30.4362" style="fill:none;stroke:#000000;stroke-dasharray:1.000000,3.000000;stroke-dashoffset:0.0;stroke-width:0.5;"/>
     </g>
     <g id="line2d_36">
      <g>
       <use style="stroke:#000000;stroke-width:0.5;" x="136.628571429" xlink:href="#m93b0483c22" y="376.03625"/>
      </g>
     </g>
     <g id="line2d_37">
      <g>
       <use style="stroke:#000000;stroke-width:0.5;" x="136.628571429" xlink:href="#m741efc42ff" y="30.43625"/>
      </g>
     </g>
     <g id="text_2">
      <!-- 1 -->
      <defs>
       <path d="
M12.4062 8.29688
L28.5156 8.29688
L28.5156 63.9219
L10.9844 60.4062
L10.9844 69.3906
L28.4219 72.9062
L38.2812 72.9062
L38.2812 8.29688
L54.3906 8.29688
L54.3906 0
L12.4062 0
z
" id="BitstreamVeraSans-Roman-31"/>
      </defs>
      <g transform="translate(132.287946429 395.233125)scale(0.2 -0.2)">
       <use xlink:href="#BitstreamVeraSans-Roman-31"/>
      </g>
     </g>
    </g>
    <g id="xtick_3">
     <g id="line2d_38">
      <path clip-path="url(#p6ea69091fa)" d="
M188.057 376.036
L188.057 30.4362" style="fill:none;stroke:#000000;stroke-dasharray:1.000000,3.000000;stroke-dashoffset:0.0;stroke-width:0.5;"/>
     </g>
     <g id="line2d_39">
      <g>
       <use style="stroke:#000000;stroke-width:0.5;" x="188.057142857" xlink:href="#m93b0483c22" y="376.03625"/>
      </g>
     </g>
     <g id="line2d_40">
      <g>
       <use style="stroke:#000000;stroke-width:0.5;" x="188.057142857" xlink:href="#m741efc42ff" y="30.43625"/>
      </g>
     </g>
     <g id="text_3">
      <!-- 2 -->
      <defs>
       <path d="
M19.1875 8.29688
L53.6094 8.29688
L53.6094 0
L7.32812 0
L7.32812 8.29688
Q12.9375 14.1094 22.625 23.8906
Q32.3281 33.6875 34.8125 36.5312
Q39.5469 41.8438 41.4219 45.5312
Q43.3125 49.2188 43.3125 52.7812
Q43.3125 58.5938 39.2344 62.25
Q35.1562 65.9219 28.6094 65.9219
Q23.9688 65.9219 18.8125 64.3125
Q13.6719 62.7031 7.8125 59.4219
L7.8125 69.3906
Q13.7656 71.7812 18.9375 73
Q24.125 74.2188 28.4219 74.2188
Q39.75 74.2188 46.4844 68.5469
Q53.2188 62.8906 53.2188 53.4219
Q53.2188 48.9219 51.5312 44.8906
Q49.8594 40.875 45.4062 35.4062
Q44.1875 33.9844 37.6406 27.2188
Q31.1094 20.4531 19.1875 8.29688" id="BitstreamVeraSans-Roman-32"/>
      </defs>
      <g transform="translate(183.429017857 395.233125)scale(0.2 -0.2)">
       <use xlink:href="#BitstreamVeraSans-Roman-32"/>
      </g>
     </g>
    </g>
    <g id="xtick_4">
     <g id="line2d_41">
      <path clip-path="url(#p6ea69091fa)" d="
M239.486 376.036
L239.486 30.4362" style="fill:none;stroke:#000000;stroke-dasharray:1.000000,3.000000;stroke-dashoffset:0.0;stroke-width:0.5;"/>
     </g>
     <g id="line2d_42">
      <g>
       <use style="stroke:#000000;stroke-width:0.5;" x="239.485714286" xlink:href="#m93b0483c22" y="376.03625"/>
      </g>
     </g>
     <g id="line2d_43">
      <g>
       <use style="stroke:#000000;stroke-width:0.5;" x="239.485714286" xlink:href="#m741efc42ff" y="30.43625"/>
      </g>
     </g>
     <g id="text_4">
      <!-- 3 -->
      <defs>
       <path d="
M40.5781 39.3125
Q47.6562 37.7969 51.625 33
Q55.6094 28.2188 55.6094 21.1875
Q55.6094 10.4062 48.1875 4.48438
Q40.7656 -1.42188 27.0938 -1.42188
Q22.5156 -1.42188 17.6562 -0.515625
Q12.7969 0.390625 7.625 2.20312
L7.625 11.7188
Q11.7188 9.32812 16.5938 8.10938
Q21.4844 6.89062 26.8125 6.89062
Q36.0781 6.89062 40.9375 10.5469
Q45.7969 14.2031 45.7969 21.1875
Q45.7969 27.6406 41.2812 31.2656
Q36.7656 34.9062 28.7188 34.9062
L20.2188 34.9062
L20.2188 43.0156
L29.1094 43.0156
Q36.375 43.0156 40.2344 45.9219
Q44.0938 48.8281 44.0938 54.2969
Q44.0938 59.9062 40.1094 62.9062
Q36.1406 65.9219 28.7188 65.9219
Q24.6562 65.9219 20.0156 65.0312
Q15.375 64.1562 9.8125 62.3125
L9.8125 71.0938
Q15.4375 72.6562 20.3438 73.4375
Q25.25 74.2188 29.5938 74.2188
Q40.8281 74.2188 47.3594 69.1094
Q53.9062 64.0156 53.9062 55.3281
Q53.9062 49.2656 50.4375 45.0938
Q46.9688 40.9219 40.5781 39.3125" id="BitstreamVeraSans-Roman-33"/>
      </defs>
      <g transform="translate(234.687276786 395.233125)scale(0.2 -0.2)">
       <use xlink:href="#BitstreamVeraSans-Roman-33"/>
      </g>
     </g>
    </g>
    <g id="xtick_5">
     <g id="line2d_44">
      <path clip-path="url(#p6ea69091fa)" d="
M290.914 376.036
L290.914 30.4362" style="fill:none;stroke:#000000;stroke-dasharray:1.000000,3.000000;stroke-dashoffset:0.0;stroke-width:0.5;"/>
     </g>
     <g id="line2d_45">
      <g>
       <use style="stroke:#000000;stroke-width:0.5;" x="290.914285714" xlink:href="#m93b0483c22" y="376.03625"/>
      </g>
     </g>
     <g id="line2d_46">
      <g>
       <use style="stroke:#000000;stroke-width:0.5;" x="290.914285714" xlink:href="#m741efc42ff" y="30.43625"/>
      </g>
     </g>
     <g id="text_5">
      <!-- 4 -->
      <defs>
       <path d="
M37.7969 64.3125
L12.8906 25.3906
L37.7969 25.3906
z

M35.2031 72.9062
L47.6094 72.9062
L47.6094 25.3906
L58.0156 25.3906
L58.0156 17.1875
L47.6094 17.1875
L47.6094 0
L37.7969 0
L37.7969 17.1875
L4.89062 17.1875
L4.89062 26.7031
z
" id="BitstreamVeraSans-Roman-34"/>
      </defs>
      <g transform="translate(285.601785714 395.233125)scale(0.2 -0.2)">
       <use xlink:href="#BitstreamVeraSans-Roman-34"/>
      </g>
     </g>
    </g>
    <g id="xtick_6">
     <g id="line2d_47">
      <path clip-path="url(#p6ea69091fa)" d="
M342.343 376.036
L342.343 30.4362" style="fill:none;stroke:#000000;stroke-dasharray:1.000000,3.000000;stroke-dashoffset:0.0;stroke-width:0.5;"/>
     </g>
     <g id="line2d_48">
      <g>
       <use style="stroke:#000000;stroke-width:0.5;" x="342.342857143" xlink:href="#m93b0483c22" y="376.03625"/>
      </g>
     </g>
     <g id="line2d_49">
      <g>
       <use style="stroke:#000000;stroke-width:0.5;" x="342.342857143" xlink:href="#m741efc42ff" y="30.43625"/>
      </g>
     </g>
     <g id="text_6">
      <!-- 5 -->
      <defs>
       <path d="
M10.7969 72.9062
L49.5156 72.9062
L49.5156 64.5938
L19.8281 64.5938
L19.8281 46.7344
Q21.9688 47.4688 24.1094 47.8281
Q26.2656 48.1875 28.4219 48.1875
Q40.625 48.1875 47.75 41.5
Q54.8906 34.8125 54.8906 23.3906
Q54.8906 11.625 47.5625 5.09375
Q40.2344 -1.42188 26.9062 -1.42188
Q22.3125 -1.42188 17.5469 -0.640625
Q12.7969 0.140625 7.71875 1.70312
L7.71875 11.625
Q12.1094 9.23438 16.7969 8.0625
Q21.4844 6.89062 26.7031 6.89062
Q35.1562 6.89062 40.0781 11.3281
Q45.0156 15.7656 45.0156 23.3906
Q45.0156 31 40.0781 35.4375
Q35.1562 39.8906 26.7031 39.8906
Q22.75 39.8906 18.8125 39.0156
Q14.8906 38.1406 10.7969 36.2812
z
" id="BitstreamVeraSans-Roman-35"/>
      </defs>
      <g transform="translate(337.625669643 395.233125)scale(0.2 -0.2)">
       <use xlink:href="#BitstreamVeraSans-Roman-35"/>
      </g>
     </g>
    </g>
    <g id="xtick_7">
     <g id="line2d_50">
      <path clip-path="url(#p6ea69091fa)" d="
M393.771 376.036
L393.771 30.4362" style="fill:none;stroke:#000000;stroke-dasharray:1.000000,3.000000;stroke-dashoffset:0.0;stroke-width:0.5;"/>
     </g>
     <g id="line2d_51">
      <g>
       <use style="stroke:#000000;stroke-width:0.5;" x="393.771428571" xlink:href="#m93b0483c22" y="376.03625"/>
      </g>
     </g>
     <g id="line2d_52">
      <g>
       <use style="stroke:#000000;stroke-width:0.5;" x="393.771428571" xlink:href="#m741efc42ff" y="30.43625"/>
      </g>
     </g>
     <g id="text_7">
      <!-- 6 -->
      <defs>
       <path d="
M33.0156 40.375
Q26.375 40.375 22.4844 35.8281
Q18.6094 31.2969 18.6094 23.3906
Q18.6094 15.5312 22.4844 10.9531
Q26.375 6.39062 33.0156 6.39062
Q39.6562 6.39062 43.5312 10.9531
Q47.4062 15.5312 47.4062 23.3906
Q47.4062 31.2969 43.5312 35.8281
Q39.6562 40.375 33.0156 40.375
M52.5938 71.2969
L52.5938 62.3125
Q48.875 64.0625 45.0938 64.9844
Q41.3125 65.9219 37.5938 65.9219
Q27.8281 65.9219 22.6719 59.3281
Q17.5312 52.7344 16.7969 39.4062
Q19.6719 43.6562 24.0156 45.9219
Q28.375 48.1875 33.5938 48.1875
Q44.5781 48.1875 50.9531 41.5156
Q57.3281 34.8594 57.3281 23.3906
Q57.3281 12.1562 50.6875 5.35938
Q44.0469 -1.42188 33.0156 -1.42188
Q20.3594 -1.42188 13.6719 8.26562
Q6.98438 17.9688 6.98438 36.375
Q6.98438 53.6562 15.1875 63.9375
Q23.3906 74.2188 37.2031 74.2188
Q40.9219 74.2188 44.7031 73.4844
Q48.4844 72.75 52.5938 71.2969" id="BitstreamVeraSans-Roman-36"/>
      </defs>
      <g transform="translate(388.737053571 395.233125)scale(0.2 -0.2)">
       <use xlink:href="#BitstreamVeraSans-Roman-36"/>
      </g>
     </g>
    </g>
    <g id="xtick_8">
     <g id="line2d_53">
      <path clip-path="url(#p6ea69091fa)" d="
M445.2 376.036
L445.2 30.4362" style="fill:none;stroke:#000000;stroke-dasharray:1.000000,3.000000;stroke-dashoffset:0.0;stroke-width:0.5;"/>
     </g>
     <g id="line2d_54">
      <g>
       <use style="stroke:#000000;stroke-width:0.5;" x="445.2" xlink:href="#m93b0483c22" y="376.03625"/>
      </g>
     </g>
     <g id="line2d_55">
      <g>
       <use style="stroke:#000000;stroke-width:0.5;" x="445.2" xlink:href="#m741efc42ff" y="30.43625"/>
      </g>
     </g>
     <g id="text_8">
      <!-- 7 -->
      <defs>
       <path d="
M8.20312 72.9062
L55.0781 72.9062
L55.0781 68.7031
L28.6094 0
L18.3125 0
L43.2188 64.5938
L8.20312 64.5938
z
" id="BitstreamVeraSans-Roman-37"/>
      </defs>
      <g transform="translate(440.5125 395.233125)scale(0.2 -0.2)">
       <use xlink:href="#BitstreamVeraSans-Roman-37"/>
      </g>
     </g>
    </g>
    <g id="xtick_9">
     <g id="line2d_56">
      <path clip-path="url(#p6ea69091fa)" d="
M496.629 376.036
L496.629 30.4362" style="fill:none;stroke:#000000;stroke-dasharray:1.000000,3.000000;stroke-dashoffset:0.0;stroke-width:0.5;"/>
     </g>
     <g id="line2d_57">
      <g>
       <use style="stroke:#000000;stroke-width:0.5;" x="496.628571429" xlink:href="#m93b0483c22" y="376.03625"/>
      </g>
     </g>
     <g id="line2d_58">
      <g>
       <use style="stroke:#000000;stroke-width:0.5;" x="496.628571429" xlink:href="#m741efc42ff" y="30.43625"/>
      </g>
     </g>
     <g id="text_9">
      <!-- 8 -->
      <defs>
       <path d="
M31.7812 34.625
Q24.75 34.625 20.7188 30.8594
Q16.7031 27.0938 16.7031 20.5156
Q16.7031 13.9219 20.7188 10.1562
Q24.75 6.39062 31.7812 6.39062
Q38.8125 6.39062 42.8594 10.1719
Q46.9219 13.9688 46.9219 20.5156
Q46.9219 27.0938 42.8906 30.8594
Q38.875 34.625 31.7812 34.625
M21.9219 38.8125
Q15.5781 40.375 12.0312 44.7188
Q8.5 49.0781 8.5 55.3281
Q8.5 64.0625 14.7188 69.1406
Q20.9531 74.2188 31.7812 74.2188
Q42.6719 74.2188 48.875 69.1406
Q55.0781 64.0625 55.0781 55.3281
Q55.0781 49.0781 51.5312 44.7188
Q48 40.375 41.7031 38.8125
Q48.8281 37.1562 52.7969 32.3125
Q56.7812 27.4844 56.7812 20.5156
Q56.7812 9.90625 50.3125 4.23438
Q43.8438 -1.42188 31.7812 -1.42188
Q19.7344 -1.42188 13.25 4.23438
Q6.78125 9.90625 6.78125 20.5156
Q6.78125 27.4844 10.7812 32.3125
Q14.7969 37.1562 21.9219 38.8125
M18.3125 54.3906
Q18.3125 48.7344 21.8438 45.5625
Q25.3906 42.3906 31.7812 42.3906
Q38.1406 42.3906 41.7188 45.5625
Q45.3125 48.7344 45.3125 54.3906
Q45.3125 60.0625 41.7188 63.2344
Q38.1406 66.4062 31.7812 66.4062
Q25.3906 66.4062 21.8438 63.2344
Q18.3125 60.0625 18.3125 54.3906" id="BitstreamVeraSans-Roman-38"/>
      </defs>
      <g transform="translate(491.628571429 395.233125)scale(0.2 -0.2)">
       <use xlink:href="#BitstreamVeraSans-Roman-38"/>
      </g>
     </g>
    </g>
    <g id="xtick_10">
     <g id="line2d_59">
      <defs>
       <path d="
M0 0
L0 -2" id="m177f7580d0" style="stroke:#000000;stroke-width:0.5;"/>
      </defs>
      <g>
       <use style="stroke:#000000;stroke-width:0.5;" x="100.681542634" xlink:href="#m177f7580d0" y="376.03625"/>
      </g>
     </g>
     <g id="line2d_60">
      <defs>
       <path d="
M0 0
L0 2" id="m5284c7e2a0" style="stroke:#000000;stroke-width:0.5;"/>
      </defs>
      <g>
       <use style="stroke:#000000;stroke-width:0.5;" x="100.681542634" xlink:href="#m5284c7e2a0" y="30.43625"/>
      </g>
     </g>
    </g>
    <g id="xtick_11">
     <g id="line2d_61">
      <g>
       <use style="stroke:#000000;stroke-width:0.5;" x="116.163085268" xlink:href="#m177f7580d0" y="376.03625"/>
      </g>
     </g>
     <g id="line2d_62">
      <g>
       <use style="stroke:#000000;stroke-width:0.5;" x="116.163085268" xlink:href="#m5284c7e2a0" y="30.43625"/>
      </g>
     </g>
    </g>
    <g id="xtick_12">
     <g id="line2d_63">
      <g>
       <use style="stroke:#000000;stroke-width:0.5;" x="125.219207163" xlink:href="#m177f7580d0" y="376.03625"/>
      </g>
     </g>
     <g id="line2d_64">
      <g>
       <use style="stroke:#000000;stroke-width:0.5;" x="125.219207163" xlink:href="#m5284c7e2a0" y="30.43625"/>
      </g>
     </g>
    </g>
    <g id="xtick_13">
     <g id="line2d_65">
      <g>
       <use style="stroke:#000000;stroke-width:0.5;" x="131.644627902" xlink:href="#m177f7580d0" y="376.03625"/>
      </g>
     </g>
     <g id="line2d_66">
      <g>
       <use style="stroke:#000000;stroke-width:0.5;" x="131.644627902" xlink:href="#m5284c7e2a0" y="30.43625"/>
      </g>
     </g>
    </g>
    <g id="xtick_14">
     <g id="line2d_67">
      <g>
       <use style="stroke:#000000;stroke-width:0.5;" x="152.110114063" xlink:href="#m177f7580d0" y="376.03625"/>
      </g>
     </g>
     <g id="line2d_68">
      <g>
       <use style="stroke:#000000;stroke-width:0.5;" x="152.110114063" xlink:href="#m5284c7e2a0" y="30.43625"/>
      </g>
     </g>
    </g>
    <g id="xtick_15">
     <g id="line2d_69">
      <g>
       <use style="stroke:#000000;stroke-width:0.5;" x="167.591656697" xlink:href="#m177f7580d0" y="376.03625"/>
      </g>
     </g>
     <g id="line2d_70">
      <g>
       <use style="stroke:#000000;stroke-width:0.5;" x="167.591656697" xlink:href="#m5284c7e2a0" y="30.43625"/>
      </g>
     </g>
    </g>
    <g id="xtick_16">
     <g id="line2d_71">
      <g>
       <use style="stroke:#000000;stroke-width:0.5;" x="176.647778591" xlink:href="#m177f7580d0" y="376.03625"/>
      </g>
     </g>
     <g id="line2d_72">
      <g>
       <use style="stroke:#000000;stroke-width:0.5;" x="176.647778591" xlink:href="#m5284c7e2a0" y="30.43625"/>
      </g>
     </g>
    </g>
    <g id="xtick_17">
     <g id="line2d_73">
      <g>
       <use style="stroke:#000000;stroke-width:0.5;" x="183.073199331" xlink:href="#m177f7580d0" y="376.03625"/>
      </g>
     </g>
     <g id="line2d_74">
      <g>
       <use style="stroke:#000000;stroke-width:0.5;" x="183.073199331" xlink:href="#m5284c7e2a0" y="30.43625"/>
      </g>
     </g>
    </g>
    <g id="xtick_18">
     <g id="line2d_75">
      <g>
       <use style="stroke:#000000;stroke-width:0.5;" x="203.538685491" xlink:href="#m177f7580d0" y="376.03625"/>
      </g>
     </g>
     <g id="line2d_76">
      <g>
       <use style="stroke:#000000;stroke-width:0.5;" x="203.538685491" xlink:href="#m5284c7e2a0" y="30.43625"/>
      </g>
     </g>
    </g>
    <g id="xtick_19">
     <g id="line2d_77">
      <g>
       <use style="stroke:#000000;stroke-width:0.5;" x="219.020228125" xlink:href="#m177f7580d0" y="376.03625"/>
      </g>
     </g>
     <g id="line2d_78">
      <g>
       <use style="stroke:#000000;stroke-width:0.5;" x="219.020228125" xlink:href="#m5284c7e2a0" y="30.43625"/>
      </g>
     </g>
    </g>
    <g id="xtick_20">
     <g id="line2d_79">
      <g>
       <use style="stroke:#000000;stroke-width:0.5;" x="228.07635002" xlink:href="#m177f7580d0" y="376.03625"/>
      </g>
     </g>
     <g id="line2d_80">
      <g>
       <use style="stroke:#000000;stroke-width:0.5;" x="228.07635002" xlink:href="#m5284c7e2a0" y="30.43625"/>
      </g>
     </g>
    </g>
    <g id="xtick_21">
     <g id="line2d_81">
      <g>
       <use style="stroke:#000000;stroke-width:0.5;" x="234.50177076" xlink:href="#m177f7580d0" y="376.03625"/>
      </g>
     </g>
     <g id="line2d_82">
      <g>
       <use style="stroke:#000000;stroke-width:0.5;" x="234.50177076" xlink:href="#m5284c7e2a0" y="30.43625"/>
      </g>
     </g>
    </g>
    <g id="xtick_22">
     <g id="line2d_83">
      <g>
       <use style="stroke:#000000;stroke-width:0.5;" x="254.96725692" xlink:href="#m177f7580d0" y="376.03625"/>
      </g>
     </g>
     <g id="line2d_84">
      <g>
       <use style="stroke:#000000;stroke-width:0.5;" x="254.96725692" xlink:href="#m5284c7e2a0" y="30.43625"/>
      </g>
     </g>
    </g>
    <g id="xtick_23">
     <g id="line2d_85">
      <g>
       <use style="stroke:#000000;stroke-width:0.5;" x="270.448799554" xlink:href="#m177f7580d0" y="376.03625"/>
      </g>
     </g>
     <g id="line2d_86">
      <g>
       <use style="stroke:#000000;stroke-width:0.5;" x="270.448799554" xlink:href="#m5284c7e2a0" y="30.43625"/>
      </g>
     </g>
    </g>
    <g id="xtick_24">
     <g id="line2d_87">
      <g>
       <use style="stroke:#000000;stroke-width:0.5;" x="279.504921448" xlink:href="#m177f7580d0" y="376.03625"/>
      </g>
     </g>
     <g id="line2d_88">
      <g>
       <use style="stroke:#000000;stroke-width:0.5;" x="279.504921448" xlink:href="#m5284c7e2a0" y="30.43625"/>
      </g>
     </g>
    </g>
    <g id="xtick_25">
     <g id="line2d_89">
      <g>
       <use style="stroke:#000000;stroke-width:0.5;" x="285.930342188" xlink:href="#m177f7580d0" y="376.03625"/>
      </g>
     </g>
     <g id="line2d_90">
      <g>
       <use style="stroke:#000000;stroke-width:0.5;" x="285.930342188" xlink:href="#m5284c7e2a0" y="30.43625"/>
      </g>
     </g>
    </g>
    <g id="xtick_26">
     <g id="line2d_91">
      <g>
       <use style="stroke:#000000;stroke-width:0.5;" x="306.395828348" xlink:href="#m177f7580d0" y="376.03625"/>
      </g>
     </g>
     <g id="line2d_92">
      <g>
       <use style="stroke:#000000;stroke-width:0.5;" x="306.395828348" xlink:href="#m5284c7e2a0" y="30.43625"/>
      </g>
     </g>
    </g>
    <g id="xtick_27">
     <g id="line2d_93">
      <g>
       <use style="stroke:#000000;stroke-width:0.5;" x="321.877370983" xlink:href="#m177f7580d0" y="376.03625"/>
      </g>
     </g>
     <g id="line2d_94">
      <g>
       <use style="stroke:#000000;stroke-width:0.5;" x="321.877370983" xlink:href="#m5284c7e2a0" y="30.43625"/>
      </g>
     </g>
    </g>
    <g id="xtick_28">
     <g id="line2d_95">
      <g>
       <use style="stroke:#000000;stroke-width:0.5;" x="330.933492877" xlink:href="#m177f7580d0" y="376.03625"/>
      </g>
     </g>
     <g id="line2d_96">
      <g>
       <use style="stroke:#000000;stroke-width:0.5;" x="330.933492877" xlink:href="#m5284c7e2a0" y="30.43625"/>
      </g>
     </g>
    </g>
    <g id="xtick_29">
     <g id="line2d_97">
      <g>
       <use style="stroke:#000000;stroke-width:0.5;" x="337.358913617" xlink:href="#m177f7580d0" y="376.03625"/>
      </g>
     </g>
     <g id="line2d_98">
      <g>
       <use style="stroke:#000000;stroke-width:0.5;" x="337.358913617" xlink:href="#m5284c7e2a0" y="30.43625"/>
      </g>
     </g>
    </g>
    <g id="xtick_30">
     <g id="line2d_99">
      <g>
       <use style="stroke:#000000;stroke-width:0.5;" x="357.824399777" xlink:href="#m177f7580d0" y="376.03625"/>
      </g>
     </g>
     <g id="line2d_100">
      <g>
       <use style="stroke:#000000;stroke-width:0.5;" x="357.824399777" xlink:href="#m5284c7e2a0" y="30.43625"/>
      </g>
     </g>
    </g>
    <g id="xtick_31">
     <g id="line2d_101">
      <g>
       <use style="stroke:#000000;stroke-width:0.5;" x="373.305942411" xlink:href="#m177f7580d0" y="376.03625"/>
      </g>
     </g>
     <g id="line2d_102">
      <g>
       <use style="stroke:#000000;stroke-width:0.5;" x="373.305942411" xlink:href="#m5284c7e2a0" y="30.43625"/>
      </g>
     </g>
    </g>
    <g id="xtick_32">
     <g id="line2d_103">
      <g>
       <use style="stroke:#000000;stroke-width:0.5;" x="382.362064305" xlink:href="#m177f7580d0" y="376.03625"/>
      </g>
     </g>
     <g id="line2d_104">
      <g>
       <use style="stroke:#000000;stroke-width:0.5;" x="382.362064305" xlink:href="#m5284c7e2a0" y="30.43625"/>
      </g>
     </g>
    </g>
    <g id="xtick_33">
     <g id="line2d_105">
      <g>
       <use style="stroke:#000000;stroke-width:0.5;" x="388.787485045" xlink:href="#m177f7580d0" y="376.03625"/>
      </g>
     </g>
     <g id="line2d_106">
      <g>
       <use style="stroke:#000000;stroke-width:0.5;" x="388.787485045" xlink:href="#m5284c7e2a0" y="30.43625"/>
      </g>
     </g>
    </g>
    <g id="xtick_34">
     <g id="line2d_107">
      <g>
       <use style="stroke:#000000;stroke-width:0.5;" x="409.252971206" xlink:href="#m177f7580d0" y="376.03625"/>
      </g>
     </g>
     <g id="line2d_108">
      <g>
       <use style="stroke:#000000;stroke-width:0.5;" x="409.252971206" xlink:href="#m5284c7e2a0" y="30.43625"/>
      </g>
     </g>
    </g>
    <g id="xtick_35">
     <g id="line2d_109">
      <g>
       <use style="stroke:#000000;stroke-width:0.5;" x="424.73451384" xlink:href="#m177f7580d0" y="376.03625"/>
      </g>
     </g>
     <g id="line2d_110">
      <g>
       <use style="stroke:#000000;stroke-width:0.5;" x="424.73451384" xlink:href="#m5284c7e2a0" y="30.43625"/>
      </g>
     </g>
    </g>
    <g id="xtick_36">
     <g id="line2d_111">
      <g>
       <use style="stroke:#000000;stroke-width:0.5;" x="433.790635734" xlink:href="#m177f7580d0" y="376.03625"/>
      </g>
     </g>
     <g id="line2d_112">
      <g>
       <use style="stroke:#000000;stroke-width:0.5;" x="433.790635734" xlink:href="#m5284c7e2a0" y="30.43625"/>
      </g>
     </g>
    </g>
    <g id="xtick_37">
     <g id="line2d_113">
      <g>
       <use style="stroke:#000000;stroke-width:0.5;" x="440.216056474" xlink:href="#m177f7580d0" y="376.03625"/>
      </g>
     </g>
     <g id="line2d_114">
      <g>
       <use style="stroke:#000000;stroke-width:0.5;" x="440.216056474" xlink:href="#m5284c7e2a0" y="30.43625"/>
      </g>
     </g>
    </g>
    <g id="xtick_38">
     <g id="line2d_115">
      <g>
       <use style="stroke:#000000;stroke-width:0.5;" x="460.681542634" xlink:href="#m177f7580d0" y="376.03625"/>
      </g>
     </g>
     <g id="line2d_116">
      <g>
       <use style="stroke:#000000;stroke-width:0.5;" x="460.681542634" xlink:href="#m5284c7e2a0" y="30.43625"/>
      </g>
     </g>
    </g>
    <g id="xtick_39">
     <g id="line2d_117">
      <g>
       <use style="stroke:#000000;stroke-width:0.5;" x="476.163085268" xlink:href="#m177f7580d0" y="376.03625"/>
      </g>
     </g>
     <g id="line2d_118">
      <g>
       <use style="stroke:#000000;stroke-width:0.5;" x="476.163085268" xlink:href="#m5284c7e2a0" y="30.43625"/>
      </g>
     </g>
    </g>
    <g id="xtick_40">
     <g id="line2d_119">
      <g>
       <use style="stroke:#000000;stroke-width:0.5;" x="485.219207163" xlink:href="#m177f7580d0" y="376.03625"/>
      </g>
     </g>
     <g id="line2d_120">
      <g>
       <use style="stroke:#000000;stroke-width:0.5;" x="485.219207163" xlink:href="#m5284c7e2a0" y="30.43625"/>
      </g>
     </g>
    </g>
    <g id="xtick_41">
     <g id="line2d_121">
      <g>
       <use style="stroke:#000000;stroke-width:0.5;" x="491.644627902" xlink:href="#m177f7580d0" y="376.03625"/>
      </g>
     </g>
     <g id="line2d_122">
      <g>
       <use style="stroke:#000000;stroke-width:0.5;" x="491.644627902" xlink:href="#m5284c7e2a0" y="30.43625"/>
      </g>
     </g>
    </g>
    <g id="xtick_42">
     <g id="line2d_123">
      <g>
       <use style="stroke:#000000;stroke-width:0.5;" x="512.110114063" xlink:href="#m177f7580d0" y="376.03625"/>
      </g>
     </g>
     <g id="line2d_124">
      <g>
       <use style="stroke:#000000;stroke-width:0.5;" x="512.110114063" xlink:href="#m5284c7e2a0" y="30.43625"/>
      </g>
     </g>
    </g>
    <g id="xtick_43">
     <g id="line2d_125">
      <g>
       <use style="stroke:#000000;stroke-width:0.5;" x="527.591656697" xlink:href="#m177f7580d0" y="376.03625"/>
      </g>
     </g>
     <g id="line2d_126">
      <g>
       <use style="stroke:#000000;stroke-width:0.5;" x="527.591656697" xlink:href="#m5284c7e2a0" y="30.43625"/>
      </g>
     </g>
    </g>
    <g id="text_10">
     <!-- log10 of (# f-evals / dimension) -->
     <defs>
      <path id="BitstreamVeraSans-Roman-20"/>
      <path d="
M51.125 44
L36.9219 44
L32.8125 27.6875
L47.125 27.6875
z

M43.7969 71.7812
L38.7188 51.5156
L52.9844 51.5156
L58.1094 71.7812
L65.9219 71.7812
L60.8906 51.5156
L76.125 51.5156
L76.125 44
L58.9844 44
L54.9844 27.6875
L70.5156 27.6875
L70.5156 20.2188
L53.0781 20.2188
L48 0
L40.1875 0
L45.2188 20.2188
L30.9062 20.2188
L25.875 0
L18.0156 0
L23.0938 20.2188
L7.71875 20.2188
L7.71875 27.6875
L24.9062 27.6875
L29 44
L13.2812 44
L13.2812 51.5156
L30.9062 51.5156
L35.8906 71.7812
z
" id="BitstreamVeraSans-Roman-23"/>
      <path d="
M52 44.1875
Q55.375 50.25 60.0625 53.125
Q64.75 56 71.0938 56
Q79.6406 56 84.2812 50.0156
Q88.9219 44.0469 88.9219 33.0156
L88.9219 0
L79.8906 0
L79.8906 32.7188
Q79.8906 40.5781 77.0938 44.375
Q74.3125 48.1875 68.6094 48.1875
Q61.625 48.1875 57.5625 43.5469
Q53.5156 38.9219 53.5156 30.9062
L53.5156 0
L44.4844 0
L44.4844 32.7188
Q44.4844 40.625 41.7031 44.4062
Q38.9219 48.1875 33.1094 48.1875
Q26.2188 48.1875 22.1562 43.5312
Q18.1094 38.875 18.1094 30.9062
L18.1094 0
L9.07812 0
L9.07812 54.6875
L18.1094 54.6875
L18.1094 46.1875
Q21.1875 51.2188 25.4844 53.6094
Q29.7812 56 35.6875 56
Q41.6562 56 45.8281 52.9688
Q50 49.9531 52 44.1875" id="BitstreamVeraSans-Roman-6d"/>
      <path d="
M54.8906 33.0156
L54.8906 0
L45.9062 0
L45.9062 32.7188
Q45.9062 40.4844 42.875 44.3281
Q39.8438 48.1875 33.7969 48.1875
Q26.5156 48.1875 22.3125 43.5469
Q18.1094 38.9219 18.1094 30.9062
L18.1094 0
L9.07812 0
L9.07812 54.6875
L18.1094 54.6875
L18.1094 46.1875
Q21.3438 51.125 25.7031 53.5625
Q30.0781 56 35.7969 56
Q45.2188 56 50.0469 50.1719
Q54.8906 44.3438 54.8906 33.0156" id="BitstreamVeraSans-Roman-6e"/>
      <path d="
M31 75.875
Q24.4688 64.6562 21.2812 53.6562
Q18.1094 42.6719 18.1094 31.3906
Q18.1094 20.125 21.3125 9.0625
Q24.5156 -2 31 -13.1875
L23.1875 -13.1875
Q15.875 -1.70312 12.2344 9.375
Q8.59375 20.4531 8.59375 31.3906
Q8.59375 42.2812 12.2031 53.3125
Q15.8281 64.3594 23.1875 75.875
z
" id="BitstreamVeraSans-Roman-28"/>
      <path d="
M30.6094 48.3906
Q23.3906 48.3906 19.1875 42.75
Q14.9844 37.1094 14.9844 27.2969
Q14.9844 17.4844 19.1562 11.8438
Q23.3438 6.20312 30.6094 6.20312
Q37.7969 6.20312 41.9844 11.8594
Q46.1875 17.5312 46.1875 27.2969
Q46.1875 37.0156 41.9844 42.7031
Q37.7969 48.3906 30.6094 48.3906
M30.6094 56
Q42.3281 56 49.0156 48.375
Q55.7188 40.7656 55.7188 27.2969
Q55.7188 13.875 49.0156 6.21875
Q42.3281 -1.42188 30.6094 -1.42188
Q18.8438 -1.42188 12.1719 6.21875
Q5.51562 13.875 5.51562 27.2969
Q5.51562 40.7656 12.1719 48.375
Q18.8438 56 30.6094 56" id="BitstreamVeraSans-Roman-6f"/>
      <path d="
M9.42188 75.9844
L18.4062 75.9844
L18.4062 0
L9.42188 0
z
" id="BitstreamVeraSans-Roman-6c"/>
      <path d="
M2.98438 54.6875
L12.5 54.6875
L29.5938 8.79688
L46.6875 54.6875
L56.2031 54.6875
L35.6875 0
L23.4844 0
z
" id="BitstreamVeraSans-Roman-76"/>
      <path d="
M9.42188 54.6875
L18.4062 54.6875
L18.4062 0
L9.42188 0
z

M9.42188 75.9844
L18.4062 75.9844
L18.4062 64.5938
L9.42188 64.5938
z
" id="BitstreamVeraSans-Roman-69"/>
      <path d="
M4.89062 31.3906
L31.2031 31.3906
L31.2031 23.3906
L4.89062 23.3906
z
" id="BitstreamVeraSans-Roman-2d"/>
      <path d="
M25.3906 72.9062
L33.6875 72.9062
L8.29688 -9.28125
L0 -9.28125
z
" id="BitstreamVeraSans-Roman-2f"/>
      <path d="
M56.2031 29.5938
L56.2031 25.2031
L14.8906 25.2031
Q15.4844 15.9219 20.4844 11.0625
Q25.4844 6.20312 34.4219 6.20312
Q39.5938 6.20312 44.4531 7.46875
Q49.3125 8.73438 54.1094 11.2812
L54.1094 2.78125
Q49.2656 0.734375 44.1875 -0.34375
Q39.1094 -1.42188 33.8906 -1.42188
Q20.7969 -1.42188 13.1562 6.1875
Q5.51562 13.8125 5.51562 26.8125
Q5.51562 40.2344 12.7656 48.1094
Q20.0156 56 32.3281 56
Q43.3594 56 49.7812 48.8906
Q56.2031 41.7969 56.2031 29.5938
M47.2188 32.2344
Q47.125 39.5938 43.0938 43.9844
Q39.0625 48.3906 32.4219 48.3906
Q24.9062 48.3906 20.3906 44.1406
Q15.875 39.8906 15.1875 32.1719
z
" id="BitstreamVeraSans-Roman-65"/>
      <path d="
M45.4062 46.3906
L45.4062 75.9844
L54.3906 75.9844
L54.3906 0
L45.4062 0
L45.4062 8.20312
Q42.5781 3.32812 38.25 0.953125
Q33.9375 -1.42188 27.875 -1.42188
Q17.9688 -1.42188 11.7344 6.48438
Q5.51562 14.4062 5.51562 27.2969
Q5.51562 40.1875 11.7344 48.0938
Q17.9688 56 27.875 56
Q33.9375 56 38.25 53.625
Q42.5781 51.2656 45.4062 46.3906
M14.7969 27.2969
Q14.7969 17.3906 18.875 11.75
Q22.9531 6.10938 30.0781 6.10938
Q37.2031 6.10938 41.2969 11.75
Q45.4062 17.3906 45.4062 27.2969
Q45.4062 37.2031 41.2969 42.8438
Q37.2031 48.4844 30.0781 48.4844
Q22.9531 48.4844 18.875 42.8438
Q14.7969 37.2031 14.7969 27.2969" id="BitstreamVeraSans-Roman-64"/>
      <path d="
M45.4062 27.9844
Q45.4062 37.75 41.375 43.1094
Q37.3594 48.4844 30.0781 48.4844
Q22.8594 48.4844 18.8281 43.1094
Q14.7969 37.75 14.7969 27.9844
Q14.7969 18.2656 18.8281 12.8906
Q22.8594 7.51562 30.0781 7.51562
Q37.3594 7.51562 41.375 12.8906
Q45.4062 18.2656 45.4062 27.9844
M54.3906 6.78125
Q54.3906 -7.17188 48.1875 -13.9844
Q42 -20.7969 29.2031 -20.7969
Q24.4688 -20.7969 20.2656 -20.0938
Q16.0625 -19.3906 12.1094 -17.9219
L12.1094 -9.1875
Q16.0625 -11.3281 19.9219 -12.3438
Q23.7812 -13.375 27.7812 -13.375
Q36.625 -13.375 41.0156 -8.76562
Q45.4062 -4.15625 45.4062 5.17188
L45.4062 9.625
Q42.625 4.78125 38.2812 2.39062
Q33.9375 0 27.875 0
Q17.8281 0 11.6719 7.65625
Q5.51562 15.3281 5.51562 27.9844
Q5.51562 40.6719 11.6719 48.3281
Q17.8281 56 27.875 56
Q33.9375 56 38.2812 53.6094
Q42.625 51.2188 45.4062 46.3906
L45.4062 54.6875
L54.3906 54.6875
z
" id="BitstreamVeraSans-Roman-67"/>
      <path d="
M37.1094 75.9844
L37.1094 68.5
L28.5156 68.5
Q23.6875 68.5 21.7969 66.5469
Q19.9219 64.5938 19.9219 59.5156
L19.9219 54.6875
L34.7188 54.6875
L34.7188 47.7031
L19.9219 47.7031
L19.9219 0
L10.8906 0
L10.8906 47.7031
L2.29688 47.7031
L2.29688 54.6875
L10.8906 54.6875
L10.8906 58.5
Q10.8906 67.625 15.1406 71.7969
Q19.3906 75.9844 28.6094 75.9844
z
" id="BitstreamVeraSans-Roman-66"/>
      <path d="
M34.2812 27.4844
Q23.3906 27.4844 19.1875 25
Q14.9844 22.5156 14.9844 16.5
Q14.9844 11.7188 18.1406 8.90625
Q21.2969 6.10938 26.7031 6.10938
Q34.1875 6.10938 38.7031 11.4062
Q43.2188 16.7031 43.2188 25.4844
L43.2188 27.4844
z

M52.2031 31.2031
L52.2031 0
L43.2188 0
L43.2188 8.29688
Q40.1406 3.32812 35.5469 0.953125
Q30.9531 -1.42188 24.3125 -1.42188
Q15.9219 -1.42188 10.9531 3.29688
Q6 8.01562 6 15.9219
Q6 25.1406 12.1719 29.8281
Q18.3594 34.5156 30.6094 34.5156
L43.2188 34.5156
L43.2188 35.4062
Q43.2188 41.6094 39.1406 45
Q35.0625 48.3906 27.6875 48.3906
Q23 48.3906 18.5469 47.2656
Q14.1094 46.1406 10.0156 43.8906
L10.0156 52.2031
Q14.9375 54.1094 19.5781 55.0469
Q24.2188 56 28.6094 56
Q40.4844 56 46.3438 49.8438
Q52.2031 43.7031 52.2031 31.2031" id="BitstreamVeraSans-Roman-61"/>
      <path d="
M44.2812 53.0781
L44.2812 44.5781
Q40.4844 46.5312 36.375 47.5
Q32.2812 48.4844 27.875 48.4844
Q21.1875 48.4844 17.8438 46.4375
Q14.5 44.3906 14.5 40.2812
Q14.5 37.1562 16.8906 35.375
Q19.2812 33.5938 26.5156 31.9844
L29.5938 31.2969
Q39.1562 29.25 43.1875 25.5156
Q47.2188 21.7812 47.2188 15.0938
Q47.2188 7.46875 41.1875 3.01562
Q35.1562 -1.42188 24.6094 -1.42188
Q20.2188 -1.42188 15.4531 -0.5625
Q10.6875 0.296875 5.42188 2
L5.42188 11.2812
Q10.4062 8.6875 15.2344 7.39062
Q20.0625 6.10938 24.8125 6.10938
Q31.1562 6.10938 34.5625 8.28125
Q37.9844 10.4531 37.9844 14.4062
Q37.9844 18.0625 35.5156 20.0156
Q33.0625 21.9688 24.7031 23.7812
L21.5781 24.5156
Q13.2344 26.2656 9.51562 29.9062
Q5.8125 33.5469 5.8125 39.8906
Q5.8125 47.6094 11.2812 51.7969
Q16.75 56 26.8125 56
Q31.7812 56 36.1719 55.2656
Q40.5781 54.5469 44.2812 53.0781" id="BitstreamVeraSans-Roman-73"/>
      <path d="
M8.01562 75.875
L15.8281 75.875
Q23.1406 64.3594 26.7812 53.3125
Q30.4219 42.2812 30.4219 31.3906
Q30.4219 20.4531 26.7812 9.375
Q23.1406 -1.70312 15.8281 -13.1875
L8.01562 -13.1875
Q14.5 -2 17.7031 9.0625
Q20.9062 20.125 20.9062 31.3906
Q20.9062 42.6719 17.7031 53.6562
Q14.5 64.6562 8.01562 75.875" id="BitstreamVeraSans-Roman-29"/>
     </defs>
     <g transform="translate(167.3165625 418.0696875)scale(0.18 -0.18)">
      <use xlink:href="#BitstreamVeraSans-Roman-6c"/>
      <use x="27.783203125" xlink:href="#BitstreamVeraSans-Roman-6f"/>
      <use x="88.96484375" xlink:href="#BitstreamVeraSans-Roman-67"/>
      <use x="152.44140625" xlink:href="#BitstreamVeraSans-Roman-31"/>
      <use x="216.064453125" xlink:href="#BitstreamVeraSans-Roman-30"/>
      <use x="279.6875" xlink:href="#BitstreamVeraSans-Roman-20"/>
      <use x="311.474609375" xlink:href="#BitstreamVeraSans-Roman-6f"/>
      <use x="372.65625" xlink:href="#BitstreamVeraSans-Roman-66"/>
      <use x="407.861328125" xlink:href="#BitstreamVeraSans-Roman-20"/>
      <use x="439.6484375" xlink:href="#BitstreamVeraSans-Roman-28"/>
      <use x="478.662109375" xlink:href="#BitstreamVeraSans-Roman-23"/>
      <use x="562.451171875" xlink:href="#BitstreamVeraSans-Roman-20"/>
      <use x="594.23828125" xlink:href="#BitstreamVeraSans-Roman-66"/>
      <use x="623.943359375" xlink:href="#BitstreamVeraSans-Roman-2d"/>
      <use x="660.02734375" xlink:href="#BitstreamVeraSans-Roman-65"/>
      <use x="721.55078125" xlink:href="#BitstreamVeraSans-Roman-76"/>
      <use x="780.73046875" xlink:href="#BitstreamVeraSans-Roman-61"/>
      <use x="842.009765625" xlink:href="#BitstreamVeraSans-Roman-6c"/>
      <use x="869.79296875" xlink:href="#BitstreamVeraSans-Roman-73"/>
      <use x="921.892578125" xlink:href="#BitstreamVeraSans-Roman-20"/>
      <use x="953.6796875" xlink:href="#BitstreamVeraSans-Roman-2f"/>
      <use x="987.37109375" xlink:href="#BitstreamVeraSans-Roman-20"/>
      <use x="1019.15820312" xlink:href="#BitstreamVeraSans-Roman-64"/>
      <use x="1082.63476562" xlink:href="#BitstreamVeraSans-Roman-69"/>
      <use x="1110.41796875" xlink:href="#BitstreamVeraSans-Roman-6d"/>
      <use x="1207.83007812" xlink:href="#BitstreamVeraSans-Roman-65"/>
      <use x="1269.35351562" xlink:href="#BitstreamVeraSans-Roman-6e"/>
      <use x="1332.73242188" xlink:href="#BitstreamVeraSans-Roman-73"/>
      <use x="1384.83203125" xlink:href="#BitstreamVeraSans-Roman-69"/>
      <use x="1412.61523438" xlink:href="#BitstreamVeraSans-Roman-6f"/>
      <use x="1473.796875" xlink:href="#BitstreamVeraSans-Roman-6e"/>
      <use x="1537.17578125" xlink:href="#BitstreamVeraSans-Roman-29"/>
     </g>
    </g>
   </g>
   <g id="matplotlib.axis_2">
    <g id="ytick_1">
     <g id="line2d_127">
      <path clip-path="url(#p6ea69091fa)" d="
M85.2 376.036
L531.6 376.036" style="fill:none;stroke:#000000;stroke-dasharray:1.000000,3.000000;stroke-dashoffset:0.0;stroke-width:0.5;"/>
     </g>
     <g id="line2d_128">
      <defs>
       <path d="
M0 0
L4 0" id="m728421d6d4" style="stroke:#000000;stroke-width:0.5;"/>
      </defs>
      <g>
       <use style="stroke:#000000;stroke-width:0.5;" x="85.2" xlink:href="#m728421d6d4" y="376.03625"/>
      </g>
     </g>
     <g id="line2d_129">
      <defs>
       <path d="
M0 0
L-4 0" id="mcb0005524f" style="stroke:#000000;stroke-width:0.5;"/>
      </defs>
      <g>
       <use style="stroke:#000000;stroke-width:0.5;" x="531.6" xlink:href="#mcb0005524f" y="376.03625"/>
      </g>
     </g>
     <g id="text_11">
      <!-- 0.0 -->
      <defs>
       <path d="
M10.6875 12.4062
L21 12.4062
L21 0
L10.6875 0
z
" id="BitstreamVeraSans-Roman-2e"/>
      </defs>
      <g transform="translate(52.040625 381.555)scale(0.2 -0.2)">
       <use xlink:href="#BitstreamVeraSans-Roman-30"/>
       <use x="63.623046875" xlink:href="#BitstreamVeraSans-Roman-2e"/>
       <use x="95.41015625" xlink:href="#BitstreamVeraSans-Roman-30"/>
      </g>
     </g>
    </g>
    <g id="ytick_2">
     <g id="line2d_130">
      <path clip-path="url(#p6ea69091fa)" d="
M85.2 307.601
L531.6 307.601" style="fill:none;stroke:#000000;stroke-dasharray:1.000000,3.000000;stroke-dashoffset:0.0;stroke-width:0.5;"/>
     </g>
     <g id="line2d_131">
      <g>
       <use style="stroke:#000000;stroke-width:0.5;" x="85.2" xlink:href="#m728421d6d4" y="307.600606436"/>
      </g>
     </g>
     <g id="line2d_132">
      <g>
       <use style="stroke:#000000;stroke-width:0.5;" x="531.6" xlink:href="#mcb0005524f" y="307.600606436"/>
      </g>
     </g>
     <g id="text_12">
      <!-- 0.2 -->
      <g transform="translate(52.715625 313.119356436)scale(0.2 -0.2)">
       <use xlink:href="#BitstreamVeraSans-Roman-30"/>
       <use x="63.623046875" xlink:href="#BitstreamVeraSans-Roman-2e"/>
       <use x="95.41015625" xlink:href="#BitstreamVeraSans-Roman-32"/>
      </g>
     </g>
    </g>
    <g id="ytick_3">
     <g id="line2d_133">
      <path clip-path="url(#p6ea69091fa)" d="
M85.2 239.165
L531.6 239.165" style="fill:none;stroke:#000000;stroke-dasharray:1.000000,3.000000;stroke-dashoffset:0.0;stroke-width:0.5;"/>
     </g>
     <g id="line2d_134">
      <g>
       <use style="stroke:#000000;stroke-width:0.5;" x="85.2" xlink:href="#m728421d6d4" y="239.164962871"/>
      </g>
     </g>
     <g id="line2d_135">
      <g>
       <use style="stroke:#000000;stroke-width:0.5;" x="531.6" xlink:href="#mcb0005524f" y="239.164962871"/>
      </g>
     </g>
     <g id="text_13">
      <!-- 0.4 -->
      <g transform="translate(51.834375 244.683712871)scale(0.2 -0.2)">
       <use xlink:href="#BitstreamVeraSans-Roman-30"/>
       <use x="63.623046875" xlink:href="#BitstreamVeraSans-Roman-2e"/>
       <use x="95.41015625" xlink:href="#BitstreamVeraSans-Roman-34"/>
      </g>
     </g>
    </g>
    <g id="ytick_4">
     <g id="line2d_136">
      <path clip-path="url(#p6ea69091fa)" d="
M85.2 170.729
L531.6 170.729" style="fill:none;stroke:#000000;stroke-dasharray:1.000000,3.000000;stroke-dashoffset:0.0;stroke-width:0.5;"/>
     </g>
     <g id="line2d_137">
      <g>
       <use style="stroke:#000000;stroke-width:0.5;" x="85.2" xlink:href="#m728421d6d4" y="170.729319307"/>
      </g>
     </g>
     <g id="line2d_138">
      <g>
       <use style="stroke:#000000;stroke-width:0.5;" x="531.6" xlink:href="#mcb0005524f" y="170.729319307"/>
      </g>
     </g>
     <g id="text_14">
      <!-- 0.6 -->
      <g transform="translate(51.971875 176.248069307)scale(0.2 -0.2)">
       <use xlink:href="#BitstreamVeraSans-Roman-30"/>
       <use x="63.623046875" xlink:href="#BitstreamVeraSans-Roman-2e"/>
       <use x="95.41015625" xlink:href="#BitstreamVeraSans-Roman-36"/>
      </g>
     </g>
    </g>
    <g id="ytick_5">
     <g id="line2d_139">
      <path clip-path="url(#p6ea69091fa)" d="
M85.2 102.294
L531.6 102.294" style="fill:none;stroke:#000000;stroke-dasharray:1.000000,3.000000;stroke-dashoffset:0.0;stroke-width:0.5;"/>
     </g>
     <g id="line2d_140">
      <g>
       <use style="stroke:#000000;stroke-width:0.5;" x="85.2" xlink:href="#m728421d6d4" y="102.293675743"/>
      </g>
     </g>
     <g id="line2d_141">
      <g>
       <use style="stroke:#000000;stroke-width:0.5;" x="531.6" xlink:href="#mcb0005524f" y="102.293675743"/>
      </g>
     </g>
     <g id="text_15">
      <!-- 0.8 -->
      <g transform="translate(52.08125 107.812425743)scale(0.2 -0.2)">
       <use xlink:href="#BitstreamVeraSans-Roman-30"/>
       <use x="63.623046875" xlink:href="#BitstreamVeraSans-Roman-2e"/>
       <use x="95.41015625" xlink:href="#BitstreamVeraSans-Roman-38"/>
      </g>
     </g>
    </g>
    <g id="ytick_6">
     <g id="line2d_142">
      <path clip-path="url(#p6ea69091fa)" d="
M85.2 33.858
L531.6 33.858" style="fill:none;stroke:#000000;stroke-dasharray:1.000000,3.000000;stroke-dashoffset:0.0;stroke-width:0.5;"/>
     </g>
     <g id="line2d_143">
      <g>
       <use style="stroke:#000000;stroke-width:0.5;" x="85.2" xlink:href="#m728421d6d4" y="33.8580321782"/>
      </g>
     </g>
     <g id="line2d_144">
      <g>
       <use style="stroke:#000000;stroke-width:0.5;" x="531.6" xlink:href="#mcb0005524f" y="33.8580321782"/>
      </g>
     </g>
     <g id="text_16">
      <!-- 1.0 -->
      <g transform="translate(52.91875 39.3767821782)scale(0.2 -0.2)">
       <use xlink:href="#BitstreamVeraSans-Roman-31"/>
       <use x="63.623046875" xlink:href="#BitstreamVeraSans-Roman-2e"/>
       <use x="95.41015625" xlink:href="#BitstreamVeraSans-Roman-30"/>
      </g>
     </g>
    </g>
    <g id="text_17">
     <!-- Proportion of function+target pairs -->
     <defs>
      <path d="
M19.6719 64.7969
L19.6719 37.4062
L32.0781 37.4062
Q38.9688 37.4062 42.7188 40.9688
Q46.4844 44.5312 46.4844 51.125
Q46.4844 57.6719 42.7188 61.2344
Q38.9688 64.7969 32.0781 64.7969
z

M9.8125 72.9062
L32.0781 72.9062
Q44.3438 72.9062 50.6094 67.3594
Q56.8906 61.8125 56.8906 51.125
Q56.8906 40.3281 50.6094 34.8125
Q44.3438 29.2969 32.0781 29.2969
L19.6719 29.2969
L19.6719 0
L9.8125 0
z
" id="BitstreamVeraSans-Roman-50"/>
      <path d="
M46 62.7031
L46 35.5
L73.1875 35.5
L73.1875 27.2031
L46 27.2031
L46 0
L37.7969 0
L37.7969 27.2031
L10.5938 27.2031
L10.5938 35.5
L37.7969 35.5
L37.7969 62.7031
z
" id="BitstreamVeraSans-Roman-2b"/>
      <path d="
M18.1094 8.20312
L18.1094 -20.7969
L9.07812 -20.7969
L9.07812 54.6875
L18.1094 54.6875
L18.1094 46.3906
Q20.9531 51.2656 25.2656 53.625
Q29.5938 56 35.5938 56
Q45.5625 56 51.7812 48.0938
Q58.0156 40.1875 58.0156 27.2969
Q58.0156 14.4062 51.7812 6.48438
Q45.5625 -1.42188 35.5938 -1.42188
Q29.5938 -1.42188 25.2656 0.953125
Q20.9531 3.32812 18.1094 8.20312
M48.6875 27.2969
Q48.6875 37.2031 44.6094 42.8438
Q40.5312 48.4844 33.4062 48.4844
Q26.2656 48.4844 22.1875 42.8438
Q18.1094 37.2031 18.1094 27.2969
Q18.1094 17.3906 22.1875 11.75
Q26.2656 6.10938 33.4062 6.10938
Q40.5312 6.10938 44.6094 11.75
Q48.6875 17.3906 48.6875 27.2969" id="BitstreamVeraSans-Roman-70"/>
      <path d="
M18.3125 70.2188
L18.3125 54.6875
L36.8125 54.6875
L36.8125 47.7031
L18.3125 47.7031
L18.3125 18.0156
Q18.3125 11.3281 20.1406 9.42188
Q21.9688 7.51562 27.5938 7.51562
L36.8125 7.51562
L36.8125 0
L27.5938 0
Q17.1875 0 13.2344 3.875
Q9.28125 7.76562 9.28125 18.0156
L9.28125 47.7031
L2.6875 47.7031
L2.6875 54.6875
L9.28125 54.6875
L9.28125 70.2188
z
" id="BitstreamVeraSans-Roman-74"/>
      <path d="
M8.5 21.5781
L8.5 54.6875
L17.4844 54.6875
L17.4844 21.9219
Q17.4844 14.1562 20.5 10.2656
Q23.5312 6.39062 29.5938 6.39062
Q36.8594 6.39062 41.0781 11.0312
Q45.3125 15.6719 45.3125 23.6875
L45.3125 54.6875
L54.2969 54.6875
L54.2969 0
L45.3125 0
L45.3125 8.40625
Q42.0469 3.42188 37.7188 1
Q33.4062 -1.42188 27.6875 -1.42188
Q18.2656 -1.42188 13.375 4.4375
Q8.5 10.2969 8.5 21.5781" id="BitstreamVeraSans-Roman-75"/>
      <path d="
M41.1094 46.2969
Q39.5938 47.1719 37.8125 47.5781
Q36.0312 48 33.8906 48
Q26.2656 48 22.1875 43.0469
Q18.1094 38.0938 18.1094 28.8125
L18.1094 0
L9.07812 0
L9.07812 54.6875
L18.1094 54.6875
L18.1094 46.1875
Q20.9531 51.1719 25.4844 53.5781
Q30.0312 56 36.5312 56
Q37.4531 56 38.5781 55.875
Q39.7031 55.7656 41.0625 55.5156
z
" id="BitstreamVeraSans-Roman-72"/>
      <path d="
M48.7812 52.5938
L48.7812 44.1875
Q44.9688 46.2969 41.1406 47.3438
Q37.3125 48.3906 33.4062 48.3906
Q24.6562 48.3906 19.8125 42.8438
Q14.9844 37.3125 14.9844 27.2969
Q14.9844 17.2812 19.8125 11.7344
Q24.6562 6.20312 33.4062 6.20312
Q37.3125 6.20312 41.1406 7.25
Q44.9688 8.29688 48.7812 10.4062
L48.7812 2.09375
Q45.0156 0.34375 40.9844 -0.53125
Q36.9688 -1.42188 32.4219 -1.42188
Q20.0625 -1.42188 12.7812 6.34375
Q5.51562 14.1094 5.51562 27.2969
Q5.51562 40.6719 12.8594 48.3281
Q20.2188 56 33.0156 56
Q37.1562 56 41.1094 55.1406
Q45.0625 54.2969 48.7812 52.5938" id="BitstreamVeraSans-Roman-63"/>
     </defs>
     <g transform="translate(43.0909375 360.275)rotate(-90.0)scale(0.18 -0.18)">
      <use xlink:href="#BitstreamVeraSans-Roman-50"/>
      <use x="58.552734375" xlink:href="#BitstreamVeraSans-Roman-72"/>
      <use x="97.416015625" xlink:href="#BitstreamVeraSans-Roman-6f"/>
      <use x="158.59765625" xlink:href="#BitstreamVeraSans-Roman-70"/>
      <use x="222.07421875" xlink:href="#BitstreamVeraSans-Roman-6f"/>
      <use x="283.255859375" xlink:href="#BitstreamVeraSans-Roman-72"/>
      <use x="324.369140625" xlink:href="#BitstreamVeraSans-Roman-74"/>
      <use x="363.578125" xlink:href="#BitstreamVeraSans-Roman-69"/>
      <use x="391.361328125" xlink:href="#BitstreamVeraSans-Roman-6f"/>
      <use x="452.54296875" xlink:href="#BitstreamVeraSans-Roman-6e"/>
      <use x="515.921875" xlink:href="#BitstreamVeraSans-Roman-20"/>
      <use x="547.708984375" xlink:href="#BitstreamVeraSans-Roman-6f"/>
      <use x="608.890625" xlink:href="#BitstreamVeraSans-Roman-66"/>
      <use x="644.095703125" xlink:href="#BitstreamVeraSans-Roman-20"/>
      <use x="675.8828125" xlink:href="#BitstreamVeraSans-Roman-66"/>
      <use x="711.087890625" xlink:href="#BitstreamVeraSans-Roman-75"/>
      <use x="774.466796875" xlink:href="#BitstreamVeraSans-Roman-6e"/>
      <use x="837.845703125" xlink:href="#BitstreamVeraSans-Roman-63"/>
      <use x="892.826171875" xlink:href="#BitstreamVeraSans-Roman-74"/>
      <use x="932.03515625" xlink:href="#BitstreamVeraSans-Roman-69"/>
      <use x="959.818359375" xlink:href="#BitstreamVeraSans-Roman-6f"/>
      <use x="1021.0" xlink:href="#BitstreamVeraSans-Roman-6e"/>
      <use x="1084.37890625" xlink:href="#BitstreamVeraSans-Roman-2b"/>
      <use x="1168.16796875" xlink:href="#BitstreamVeraSans-Roman-74"/>
      <use x="1207.37695312" xlink:href="#BitstreamVeraSans-Roman-61"/>
      <use x="1268.65625" xlink:href="#BitstreamVeraSans-Roman-72"/>
      <use x="1308.01953125" xlink:href="#BitstreamVeraSans-Roman-67"/>
      <use x="1371.49609375" xlink:href="#BitstreamVeraSans-Roman-65"/>
      <use x="1433.01953125" xlink:href="#BitstreamVeraSans-Roman-74"/>
      <use x="1472.22851562" xlink:href="#BitstreamVeraSans-Roman-20"/>
      <use x="1504.015625" xlink:href="#BitstreamVeraSans-Roman-70"/>
      <use x="1567.4921875" xlink:href="#BitstreamVeraSans-Roman-61"/>
      <use x="1628.77148438" xlink:href="#BitstreamVeraSans-Roman-69"/>
      <use x="1656.5546875" xlink:href="#BitstreamVeraSans-Roman-72"/>
      <use x="1697.66796875" xlink:href="#BitstreamVeraSans-Roman-73"/>
     </g>
    </g>
   </g>
   <g id="patch_3">
    <path d="
M85.2 30.4362
L531.6 30.4362" style="fill:none;stroke:#000000;"/>
   </g>
   <g id="patch_4">
    <path d="
M531.6 376.036
L531.6 30.4362" style="fill:none;stroke:#000000;"/>
   </g>
   <g id="patch_5">
    <path d="
M85.2 376.036
L531.6 376.036" style="fill:none;stroke:#000000;"/>
   </g>
   <g id="patch_6">
    <path d="
M85.2 376.036
L85.2 30.4362" style="fill:none;stroke:#000000;"/>
   </g>
   <g id="text_18">
    <!-- 20-D -->
    <defs>
     <path d="
M19.6719 64.7969
L19.6719 8.10938
L31.5938 8.10938
Q46.6875 8.10938 53.6875 14.9375
Q60.6875 21.7812 60.6875 36.5312
Q60.6875 51.1719 53.6875 57.9844
Q46.6875 64.7969 31.5938 64.7969
z

M9.8125 72.9062
L30.0781 72.9062
Q51.2656 72.9062 61.1719 64.0938
Q71.0938 55.2812 71.0938 36.5312
Q71.0938 17.6719 61.125 8.82812
Q51.1719 0 30.0781 0
L9.8125 0
z
" id="BitstreamVeraSans-Roman-44"/>
    </defs>
    <g transform="translate(492.0 373.331748144)scale(0.15 -0.15)">
     <use xlink:href="#BitstreamVeraSans-Roman-32"/>
     <use x="63.623046875" xlink:href="#BitstreamVeraSans-Roman-30"/>
     <use x="127.24609375" xlink:href="#BitstreamVeraSans-Roman-2d"/>
     <use x="163.330078125" xlink:href="#BitstreamVeraSans-Roman-44"/>
    </g>
   </g>
   <g id="text_19">
    <!-- 10-D -->
    <g transform="translate(492.0 291.208975866)scale(0.15 -0.15)">
     <use xlink:href="#BitstreamVeraSans-Roman-31"/>
     <use x="63.623046875" xlink:href="#BitstreamVeraSans-Roman-30"/>
     <use x="127.24609375" xlink:href="#BitstreamVeraSans-Roman-2d"/>
     <use x="163.330078125" xlink:href="#BitstreamVeraSans-Roman-44"/>
    </g>
   </g>
   <g id="text_20">
    <!-- 5-D -->
    <g transform="translate(492.0 209.086203589)scale(0.15 -0.15)">
     <use xlink:href="#BitstreamVeraSans-Roman-35"/>
     <use x="63.623046875" xlink:href="#BitstreamVeraSans-Roman-2d"/>
     <use x="99.70703125" xlink:href="#BitstreamVeraSans-Roman-44"/>
    </g>
   </g>
   <g id="text_21">
    <!-- 3-D -->
    <g transform="translate(492.0 126.963431312)scale(0.15 -0.15)">
     <use xlink:href="#BitstreamVeraSans-Roman-33"/>
     <use x="63.623046875" xlink:href="#BitstreamVeraSans-Roman-2d"/>
     <use x="99.70703125" xlink:href="#BitstreamVeraSans-Roman-44"/>
    </g>
   </g>
   <g id="text_22">
    <!-- 2-D -->
    <g transform="translate(492.0 44.8406590347)scale(0.15 -0.15)">
     <use xlink:href="#BitstreamVeraSans-Roman-32"/>
     <use x="63.623046875" xlink:href="#BitstreamVeraSans-Roman-2d"/>
     <use x="99.70703125" xlink:href="#BitstreamVeraSans-Roman-44"/>
    </g>
   </g>
   <g id="text_23">
    <!-- bbob - f23 -->
    <defs>
     <path d="
M48.6875 27.2969
Q48.6875 37.2031 44.6094 42.8438
Q40.5312 48.4844 33.4062 48.4844
Q26.2656 48.4844 22.1875 42.8438
Q18.1094 37.2031 18.1094 27.2969
Q18.1094 17.3906 22.1875 11.75
Q26.2656 6.10938 33.4062 6.10938
Q40.5312 6.10938 44.6094 11.75
Q48.6875 17.3906 48.6875 27.2969
M18.1094 46.3906
Q20.9531 51.2656 25.2656 53.625
Q29.5938 56 35.5938 56
Q45.5625 56 51.7812 48.0938
Q58.0156 40.1875 58.0156 27.2969
Q58.0156 14.4062 51.7812 6.48438
Q45.5625 -1.42188 35.5938 -1.42188
Q29.5938 -1.42188 25.2656 0.953125
Q20.9531 3.32812 18.1094 8.20312
L18.1094 0
L9.07812 0
L9.07812 75.9844
L18.1094 75.9844
z
" id="BitstreamVeraSans-Roman-62"/>
    </defs>
    <g transform="translate(89.664 50.007246875)scale(0.1666 -0.1666)">
     <use xlink:href="#BitstreamVeraSans-Roman-62"/>
     <use x="63.4765625" xlink:href="#BitstreamVeraSans-Roman-62"/>
     <use x="126.953125" xlink:href="#BitstreamVeraSans-Roman-6f"/>
     <use x="188.134765625" xlink:href="#BitstreamVeraSans-Roman-62"/>
     <use x="251.611328125" xlink:href="#BitstreamVeraSans-Roman-20"/>
     <use x="283.3984375" xlink:href="#BitstreamVeraSans-Roman-2d"/>
     <use x="319.482421875" xlink:href="#BitstreamVeraSans-Roman-20"/>
     <use x="351.26953125" xlink:href="#BitstreamVeraSans-Roman-66"/>
     <use x="386.474609375" xlink:href="#BitstreamVeraSans-Roman-32"/>
     <use x="450.09765625" xlink:href="#BitstreamVeraSans-Roman-33"/>
    </g>
    <!-- 51 targets in 100..1e-08 -->
    <g transform="translate(89.664 68.6628025)scale(0.1666 -0.1666)">
     <use xlink:href="#BitstreamVeraSans-Roman-35"/>
     <use x="63.623046875" xlink:href="#BitstreamVeraSans-Roman-31"/>
     <use x="127.24609375" xlink:href="#BitstreamVeraSans-Roman-20"/>
     <use x="159.033203125" xlink:href="#BitstreamVeraSans-Roman-74"/>
     <use x="198.2421875" xlink:href="#BitstreamVeraSans-Roman-61"/>
     <use x="259.521484375" xlink:href="#BitstreamVeraSans-Roman-72"/>
     <use x="298.884765625" xlink:href="#BitstreamVeraSans-Roman-67"/>
     <use x="362.361328125" xlink:href="#BitstreamVeraSans-Roman-65"/>
     <use x="423.884765625" xlink:href="#BitstreamVeraSans-Roman-74"/>
     <use x="463.09375" xlink:href="#BitstreamVeraSans-Roman-73"/>
     <use x="515.193359375" xlink:href="#BitstreamVeraSans-Roman-20"/>
     <use x="546.98046875" xlink:href="#BitstreamVeraSans-Roman-69"/>
     <use x="574.763671875" xlink:href="#BitstreamVeraSans-Roman-6e"/>
     <use x="638.142578125" xlink:href="#BitstreamVeraSans-Roman-20"/>
     <use x="669.9296875" xlink:href="#BitstreamVeraSans-Roman-31"/>
     <use x="733.552734375" xlink:href="#BitstreamVeraSans-Roman-30"/>
     <use x="797.17578125" xlink:href="#BitstreamVeraSans-Roman-30"/>
     <use x="860.798828125" xlink:href="#BitstreamVeraSans-Roman-2e"/>
     <use x="892.5859375" xlink:href="#BitstreamVeraSans-Roman-2e"/>
     <use x="924.373046875" xlink:href="#BitstreamVeraSans-Roman-31"/>
     <use x="987.99609375" xlink:href="#BitstreamVeraSans-Roman-65"/>
     <use x="1049.51953125" xlink:href="#BitstreamVeraSans-Roman-2d"/>
     <use x="1085.60351562" xlink:href="#BitstreamVeraSans-Roman-30"/>
     <use x="1149.2265625" xlink:href="#BitstreamVeraSans-Roman-38"/>
    </g>
    <!-- 15 instances -->
    <g transform="translate(89.664 87.318358125)scale(0.1666 -0.1666)">
     <use xlink:href="#BitstreamVeraSans-Roman-31"/>
     <use x="63.623046875" xlink:href="#BitstreamVeraSans-Roman-35"/>
     <use x="127.24609375" xlink:href="#BitstreamVeraSans-Roman-20"/>
     <use x="159.033203125" xlink:href="#BitstreamVeraSans-Roman-69"/>
     <use x="186.81640625" xlink:href="#BitstreamVeraSans-Roman-6e"/>
     <use x="250.1953125" xlink:href="#BitstreamVeraSans-Roman-73"/>
     <use x="302.294921875" xlink:href="#BitstreamVeraSans-Roman-74"/>
     <use x="341.50390625" xlink:href="#BitstreamVeraSans-Roman-61"/>
     <use x="402.783203125" xlink:href="#BitstreamVeraSans-Roman-6e"/>
     <use x="466.162109375" xlink:href="#BitstreamVeraSans-Roman-63"/>
     <use x="521.142578125" xlink:href="#BitstreamVeraSans-Roman-65"/>
     <use x="582.666015625" xlink:href="#BitstreamVeraSans-Roman-73"/>
    </g>
   </g>
   <g id="text_24">
    <!-- 0.0.0 -->
    <g style="fill:#808080;" transform="translate(296.33984375 370.5005625)scale(0.1 -0.1)">
     <use xlink:href="#BitstreamVeraSans-Roman-30"/>
     <use x="63.623046875" xlink:href="#BitstreamVeraSans-Roman-2e"/>
     <use x="95.41015625" xlink:href="#BitstreamVeraSans-Roman-30"/>
     <use x="159.033203125" xlink:href="#BitstreamVeraSans-Roman-2e"/>
     <use x="190.8203125" xlink:href="#BitstreamVeraSans-Roman-30"/>
    </g>
   </g>
   <g id="text_25">
    <!-- 23 Katsuuras -->
    <defs>
     <path d="
M9.8125 72.9062
L19.6719 72.9062
L19.6719 42.0938
L52.3906 72.9062
L65.0938 72.9062
L28.9062 38.9219
L67.6719 0
L54.6875 0
L19.6719 35.1094
L19.6719 0
L9.8125 0
z
" id="BitstreamVeraSans-Roman-4b"/>
    </defs>
    <g transform="translate(230.184375 25.43625)scale(0.24 -0.24)">
     <use xlink:href="#BitstreamVeraSans-Roman-32"/>
     <use x="63.623046875" xlink:href="#BitstreamVeraSans-Roman-33"/>
     <use x="127.24609375" xlink:href="#BitstreamVeraSans-Roman-20"/>
     <use x="159.033203125" xlink:href="#BitstreamVeraSans-Roman-4b"/>
     <use x="222.859375" xlink:href="#BitstreamVeraSans-Roman-61"/>
     <use x="284.138671875" xlink:href="#BitstreamVeraSans-Roman-74"/>
     <use x="323.34765625" xlink:href="#BitstreamVeraSans-Roman-73"/>
     <use x="375.447265625" xlink:href="#BitstreamVeraSans-Roman-75"/>
     <use x="438.826171875" xlink:href="#BitstreamVeraSans-Roman-75"/>
     <use x="502.205078125" xlink:href="#BitstreamVeraSans-Roman-72"/>
     <use x="543.318359375" xlink:href="#BitstreamVeraSans-Roman-61"/>
     <use x="604.59765625" xlink:href="#BitstreamVeraSans-Roman-73"/>
    </g>
   </g>
  </g>
 </g>
 <defs>
  <clipPath id="p6ea69091fa">
   <rect height="345.6" width="446.4" x="85.2" y="30.43625"/>
  </clipPath>
 </defs>
</svg>
