<?xml version="1.0" encoding="utf-8" standalone="no"?>
<!DOCTYPE svg PUBLIC "-//W3C//DTD SVG 1.1//EN"
  "http://www.w3.org/Graphics/SVG/1.1/DTD/svg11.dtd">
<!-- Created with matplotlib (http://matplotlib.org/) -->
<svg height="415pt" version="1.1" viewBox="0 0 538 415" width="538pt" xmlns="http://www.w3.org/2000/svg" xmlns:xlink="http://www.w3.org/1999/xlink">
 <defs>
  <style type="text/css">
*{stroke-linecap:butt;stroke-linejoin:round;}
  </style>
 </defs>
 <g id="figure_1">
  <g id="patch_1">
   <path d="
M0 415.456
L538.8 415.456
L538.8 0
L0 0
z
" style="fill:#ffffff;"/>
  </g>
  <g id="axes_1">
   <g id="patch_2">
    <path d="
M85.2 359.056
L531.6 359.056
L531.6 13.4563
L85.2 13.4563
z
" style="fill:#ffffff;"/>
   </g>
   <g id="line2d_1">
    <defs>
     <path d="
M0 1.5
C0.397805 1.5 0.77937 1.34195 1.06066 1.06066
C1.34195 0.77937 1.5 0.397805 1.5 0
C1.5 -0.397805 1.34195 -0.77937 1.06066 -1.06066
C0.77937 -1.34195 0.397805 -1.5 0 -1.5
C-0.397805 -1.5 -0.77937 -1.34195 -1.06066 -1.06066
C-1.34195 -0.77937 -1.5 -0.397805 -1.5 0
C-1.5 0.397805 -1.34195 0.77937 -1.06066 1.06066
C-0.77937 1.34195 -0.397805 1.5 0 1.5
z
" id="ma8fc8663ec" style="stroke:#000080;stroke-width:0.5;"/>
    </defs>
    <g>
     <use style="fill:#000080;stroke:#000080;stroke-width:0.5;" x="370.677185028" xlink:href="#ma8fc8663ec" y="16.878125"/>
     <use style="fill:#000080;stroke:#000080;stroke-width:0.5;" x="370.677185028" xlink:href="#ma8fc8663ec" y="16.878125"/>
    </g>
   </g>
   <g id="line2d_2">
    <path d="
M69.7185 340.941
L85.2 340.941
L85.2 336.244
L94.2561 336.244
L94.2561 334.903
L100.682 334.903
L100.682 328.193
L105.665 328.193
L105.665 324.168
L109.738 324.168
L109.738 318.8
L121.147 318.8
L121.147 317.458
L125.219 317.458
L125.219 316.787
L136.629 316.787
L136.629 314.774
L141.613 314.774
L141.613 313.433
L150.964 313.433
L150.964 312.091
L155.232 312.091
L155.232 310.749
L158.396 310.749
L158.396 308.065
L159.223 308.065
L159.223 307.394
L161.535 307.394
L161.535 306.723
L165.85 306.723
L165.85 306.052
L168.946 306.052
L168.946 304.71
L173.877 304.71
L173.877 303.369
L179.607 303.369
L179.607 301.356
L199.909 301.356
L199.909 300.685
L201.185 300.685
L201.185 298.672
L202.858 298.672
L202.858 298.001
L202.973 298.001
L202.973 297.33
L207.424 297.33
L207.424 296.659
L208.965 296.659
L208.965 295.988
L209.527 295.988
L209.527 295.317
L210.159 295.317
L210.159 294.646
L212.817 294.646
L212.817 293.304
L212.964 293.304
L212.964 291.963
L213.146 291.963
L213.146 291.292
L213.542 291.292
L213.542 290.621
L214.485 290.621
L214.485 289.279
L214.859 289.279
L214.859 288.608
L215.652 288.608
L215.652 287.937
L215.878 287.937
L215.878 287.266
L216.26 287.266
L216.26 285.924
L217.249 285.924
L217.249 283.24
L218.282 283.24
L218.282 282.569
L218.626 282.569
L218.626 281.228
L219.02 281.228
L219.048 279.215
L219.159 279.215
L219.159 278.544
L219.816 278.544
L219.816 277.202
L220.19 277.202
L220.19 276.531
L220.61 276.531
L220.687 273.847
L221.551 273.847
L221.626 270.493
L222.02 270.493
L222.093 267.809
L222.166 267.809
L222.239 265.796
L223.462 265.796
L223.462 265.125
L223.621 265.125
L223.644 263.783
L223.802 263.783
L223.802 262.441
L224.049 262.441
L224.049 261.77
L224.293 261.77
L224.293 261.099
L224.643 261.099
L224.643 260.429
L224.945 260.429
L224.945 259.087
L225.094 259.087
L225.158 253.048
L226.092 253.048
L226.092 252.377
L226.575 252.377
L226.635 249.694
L226.95 249.694
L226.95 249.023
L227.106 249.023
L227.106 246.339
L227.242 246.339
L227.319 242.313
L227.473 242.313
L227.473 241.642
L227.927 241.642
L227.927 240.3
L228.262 240.3
L228.262 238.958
L229.006 238.958
L229.113 233.591
L229.131 233.591
L229.131 232.92
L229.378 232.92
L229.378 231.578
L229.813 231.578
L229.881 230.236
L230.052 230.236
L230.052 229.565
L230.407 229.565
L230.508 227.553
L230.574 227.553
L230.641 226.211
L230.757 226.211
L230.79 224.869
L231.246 224.869
L231.246 222.185
L231.551 222.185
L231.583 220.172
L231.836 220.172
L231.93 218.83
L232.024 218.83
L232.055 216.818
L232.18 216.818
L232.18 215.476
L232.303 215.476
L232.411 212.121
L232.836 212.121
L232.836 211.45
L233.03 211.45
L233.03 210.108
L233.253 210.108
L233.356 207.424
L233.385 207.424
L233.385 206.753
L233.922 206.753
L233.922 206.083
L234.207 206.083
L234.207 204.07
L234.348 204.07
L234.404 202.057
L234.474 202.057
L234.474 201.386
L234.793 201.386
L234.793 200.715
L235.081 200.715
L235.081 198.702
L235.257 198.702
L235.257 198.031
L235.75 198.031
L235.75 197.36
L236.156 197.36
L236.156 196.689
L236.694 196.689
L236.707 194.677
L236.858 194.677
L236.908 191.322
L237.108 191.322
L237.108 189.98
L237.696 189.98
L237.696 189.309
L237.901 189.309
L237.901 187.967
L239.396 187.967
L239.396 185.954
L239.508 185.954
L239.508 185.283
L239.807 185.283
L239.807 184.613
L240.113 184.613
L240.113 183.942
L240.607 183.942
L240.607 183.271
L241.574 183.271
L241.574 181.929
L242.559 181.929
L242.559 181.258
L242.839 181.258
L242.839 179.916
L243.651 179.916
L243.651 179.245
L243.799 179.245
L243.799 177.232
L243.982 177.232
L243.982 176.561
L245.864 176.561
L245.864 175.89
L247.529 175.89
L247.529 173.878
L248.816 173.878
L248.816 173.207
L249.296 173.207
L249.296 171.865
L249.617 171.865
L249.688 170.523
L250.589 170.523
L250.671 168.51
L250.839 168.51
L250.839 167.839
L250.993 167.839
L250.993 166.497
L300.467 166.497
L300.536 163.143
L300.601 163.143
L300.601 162.472
L300.785 162.472
L300.881 157.775
L300.948 157.775
L300.983 155.762
L301.709 155.762
L301.709 155.091
L303.095 155.091
L303.131 153.749
L315.756 153.749
L315.847 149.053
L315.885 149.053
L315.899 145.698
L316.082 145.698
L316.134 141.002
L316.206 141.002
L316.306 136.305
L316.339 136.305
L316.448 128.925
L316.459 128.925
L316.523 125.57
L316.572 125.57
L316.605 120.203
L316.875 120.203
L316.949 112.822
L316.999 112.822
L317.097 109.468
L317.117 109.468
L317.161 105.442
L324.755 105.442
L324.862 94.036
L324.877 94.036
L324.988 88.6685
L324.993 88.6685
L325.003 86.6556
L325.977 86.6556
L326.081 71.2241
L326.1 71.2241
L326.129 67.1985
L331.546 67.1985
L331.546 65.8566
L343.836 65.8566
L343.93 61.16
L343.95 61.16
L344.055 53.1088
L344.066 53.1088
L344.128 48.4122
L344.228 48.4122
L344.309 42.3738
L344.348 42.3738
L344.354 41.0319
L346.776 41.0319
L346.847 39.0191
L349.516 39.0191
L349.578 37.6772
L349.644 37.6772
L349.747 34.3225
L349.981 34.3225
L349.981 33.6516
L351.789 33.6516
L351.789 32.9806
L351.986 32.9806
L352.042 31.6388
L352.101 31.6388
L352.137 28.955
L352.343 28.955
L352.358 26.9422
L359.439 26.9422
L359.439 26.2713
L359.575 26.2713
L359.682 24.9294
L359.694 24.9294
L359.733 23.5875
L360.885 23.5875
L360.98 21.5747
L361.008 21.5747
L361.008 20.9038
L362.484 20.9038
L362.569 18.8909
L362.726 18.8909
L362.726 18.22
L363.719 18.22
L363.719 17.5491
L370.677 17.5491
L370.677 16.8781
L445.2 16.8781
L445.2 16.8781" style="fill:none;stroke:#000080;stroke-linecap:square;stroke-width:1.5;"/>
   </g>
   <g id="line2d_3">
    <defs>
     <path d="
M0 6
C1.59122 6 3.11748 5.3678 4.24264 4.24264
C5.3678 3.11748 6 1.59122 6 0
C6 -1.59122 5.3678 -3.11748 4.24264 -4.24264
C3.11748 -5.3678 1.59122 -6 0 -6
C-1.59122 -6 -3.11748 -5.3678 -4.24264 -4.24264
C-5.3678 -3.11748 -6 -1.59122 -6 0
C-6 1.59122 -5.3678 3.11748 -4.24264 4.24264
C-3.11748 5.3678 -1.59122 6 0 6
z
" id="mae466deef1" style="stroke:#000080;stroke-width:1.5;"/>
    </defs>
    <g>
     <use style="fill:none;stroke:#000080;stroke-width:1.5;" x="141.612514955" xlink:href="#mae466deef1" y="314.77445581"/>
     <use style="fill:none;stroke:#000080;stroke-width:1.5;" x="219.159388356" xlink:href="#mae466deef1" y="278.543820981"/>
     <use style="fill:none;stroke:#000080;stroke-width:1.5;" x="303.131467081" xlink:href="#mae466deef1" y="153.749412129"/>
     <use style="fill:none;stroke:#000080;stroke-width:1.5;" x="352.042041753" xlink:href="#mae466deef1" y="31.6387540041"/>
     <use style="fill:none;stroke:#000080;stroke-width:1.5;" x="370.677185028" xlink:href="#mae466deef1" y="16.878125"/>
     <use style="fill:none;stroke:#000080;stroke-width:1.5;" x="445.2" xlink:href="#mae466deef1" y="16.878125"/>
    </g>
   </g>
   <g id="line2d_4"/>
   <g id="line2d_5">
    <path clip-path="url(#p54ce849065)" d="
M343.916 62.5019" style="fill:none;stroke:#000080;stroke-linecap:square;"/>
    <defs>
     <path d="
M-12 12
L12 -12
M-12 -12
L12 12" id="me286a5a777" style="stroke:#000080;stroke-width:3;"/>
    </defs>
    <g clip-path="url(#p54ce849065)">
     <use style="fill:#000080;stroke:#000080;stroke-width:3;" x="343.916244893" xlink:href="#me286a5a777" y="62.5018873762"/>
    </g>
   </g>
   <g id="line2d_6">
    <defs>
     <path d="
M0 1.5
C0.397805 1.5 0.77937 1.34195 1.06066 1.06066
C1.34195 0.77937 1.5 0.397805 1.5 0
C1.5 -0.397805 1.34195 -0.77937 1.06066 -1.06066
C0.77937 -1.34195 0.397805 -1.5 0 -1.5
C-0.397805 -1.5 -0.77937 -1.34195 -1.06066 -1.06066
C-1.34195 -0.77937 -1.5 -0.397805 -1.5 0
C-1.5 0.397805 -1.34195 0.77937 -1.06066 1.06066
C-0.77937 1.34195 -0.397805 1.5 0 1.5
z
" id="m62d5190e8e" style="stroke:#ff00ff;stroke-width:0.5;"/>
    </defs>
    <g>
     <use style="fill:#ff00ff;stroke:#ff00ff;stroke-width:0.5;" x="355.850713597" xlink:href="#m62d5190e8e" y="16.878125"/>
     <use style="fill:#ff00ff;stroke:#ff00ff;stroke-width:0.5;" x="355.850713597" xlink:href="#m62d5190e8e" y="16.878125"/>
    </g>
   </g>
   <g id="line2d_7">
    <path d="
M69.7185 340.27
L85.2 340.27
L85.2 330.877
L94.2561 330.877
L94.2561 327.522
L100.682 327.522
L100.682 316.787
L105.665 316.787
L105.665 309.407
L109.738 309.407
L109.738 307.394
L113.181 307.394
L113.181 304.71
L118.794 304.71
L118.794 302.698
L123.276 302.698
L123.276 298.672
L131.645 298.672
L131.645 293.975
L135.483 293.975
L135.483 293.304
L137.718 293.304
L137.718 285.253
L138.757 285.253
L138.757 284.582
L140.701 284.582
L140.701 283.911
L144.144 283.911
L144.144 279.215
L152.662 279.215
L152.662 277.873
L153.725 277.873
L153.725 276.531
L156.182 276.531
L156.182 274.518
L157.094 274.518
L157.094 271.834
L159.625 271.834
L159.625 271.164
L160.791 271.164
L160.791 269.151
L164.926 269.151
L164.926 267.809
L166.15 267.809
L166.15 265.796
L167.869 265.796
L167.869 262.441
L168.414 262.441
L168.414 261.77
L174.5 261.77
L174.5 256.403
L175.502 256.403
L175.502 255.732
L175.891 255.732
L175.891 255.061
L177.017 255.061
L177.017 254.39
L178.089 254.39
L178.089 253.048
L179.443 253.048
L179.443 249.694
L181.332 249.694
L181.332 247.681
L182.22 247.681
L182.22 247.01
L183.488 247.01
L183.488 246.339
L185.202 246.339
L185.202 245.668
L186.316 245.668
L186.316 244.997
L187.029 244.997
L187.029 243.655
L187.145 243.655
L187.145 242.313
L188.499 242.313
L188.499 241.642
L189.04 241.642
L189.04 238.958
L189.464 238.958
L189.464 238.288
L189.982 238.288
L189.982 236.275
L190.388 236.275
L190.388 233.591
L190.588 233.591
L190.588 232.249
L191.081 232.249
L191.081 231.578
L191.564 231.578
L191.564 229.565
L192.315 229.565
L192.315 226.882
L193.483 226.882
L193.483 226.211
L194.343 226.211
L194.343 225.54
L195.332 225.54
L195.332 224.869
L195.492 224.869
L195.492 220.843
L195.731 220.843
L195.81 216.818
L195.889 216.818
L195.889 216.147
L196.51 216.147
L196.51 214.134
L196.964 214.134
L196.964 210.779
L200.105 210.779
L200.105 208.766
L201.185 208.766
L201.185 207.424
L201.858 207.424
L201.858 205.412
L206.318 205.412
L206.318 204.07
L208.162 204.07
L208.162 203.399
L208.523 203.399
L208.523 202.057
L208.701 202.057
L208.701 201.386
L209.655 201.386
L209.655 200.715
L209.95 200.715
L209.95 199.373
L210.324 199.373
L210.324 198.702
L210.529 198.702
L210.529 196.689
L212.182 196.689
L212.182 196.018
L214.279 196.018
L214.279 195.348
L215.126 195.348
L215.126 194.677
L217.369 194.677
L217.369 192.664
L218.796 192.664
L218.796 191.993
L224.729 191.993
L224.729 191.322
L228.188 191.322
L228.188 189.98
L300.783 189.98
L300.893 186.625
L300.898 186.625
L300.991 177.232
L301.065 177.232
L301.115 172.536
L301.323 172.536
L301.358 171.194
L301.502 171.194
L301.577 165.155
L301.651 165.155
L301.665 162.472
L302.117 162.472
L302.211 145.698
L302.27 145.698
L302.378 143.014
L306.33 143.014
L306.404 138.989
L306.468 138.989
L306.529 135.634
L306.673 135.634
L306.77 132.279
L306.81 132.279
L306.836 128.254
L316.021 128.254
L316.125 124.899
L316.139 124.899
L316.23 106.784
L326.084 106.784
L326.151 86.6556
L333.53 86.6556
L333.607 74.5788
L333.652 74.5788
L333.664 67.8694
L333.966 67.8694
L334.059 49.7541
L337.189 49.7541
L337.232 32.9806
L345.301 32.9806
L345.339 24.9294
L348.179 24.9294
L348.179 24.2584
L348.315 24.2584
L348.315 23.5875
L348.903 23.5875
L348.903 22.9166
L350.648 22.9166
L350.663 20.9038
L353.178 20.9038
L353.178 20.2328
L355.679 20.2328
L355.679 19.5619
L355.841 19.5619
L355.851 16.8781
L445.2 16.8781
L445.2 16.8781" style="fill:none;stroke:#ff00ff;stroke-linecap:square;stroke-width:1.5;"/>
   </g>
   <g id="line2d_8">
    <defs>
     <path d="
M-3.9968e-16 8.48528
L5.09117 0
L4.88498e-16 -8.48528
L-5.09117 -1.77636e-15
z
" id="mf6640c921f" style="stroke:#ff00ff;stroke-linejoin:miter;stroke-width:1.5;"/>
    </defs>
    <g>
     <use style="fill:none;stroke:#ff00ff;stroke-linejoin:miter;stroke-width:1.5;" x="113.180642281" xlink:href="#mf6640c921f" y="307.394141308"/>
     <use style="fill:none;stroke:#ff00ff;stroke-linejoin:miter;stroke-width:1.5;" x="201.18544312" xlink:href="#mf6640c921f" y="207.424426689"/>
     <use style="fill:none;stroke:#ff00ff;stroke-linejoin:miter;stroke-width:1.5;" x="300.897891176" xlink:href="#mf6640c921f" y="185.283483183"/>
     <use style="fill:none;stroke:#ff00ff;stroke-linejoin:miter;stroke-width:1.5;" x="334.056067167" xlink:href="#mf6640c921f" y="51.7668844642"/>
     <use style="fill:none;stroke:#ff00ff;stroke-linejoin:miter;stroke-width:1.5;" x="355.850713597" xlink:href="#mf6640c921f" y="16.878125"/>
     <use style="fill:none;stroke:#ff00ff;stroke-linejoin:miter;stroke-width:1.5;" x="445.2" xlink:href="#mf6640c921f" y="16.878125"/>
    </g>
   </g>
   <g id="line2d_9"/>
   <g id="line2d_10">
    <path clip-path="url(#p54ce849065)" d="
M345.284 32.9806" style="fill:none;stroke:#ff00ff;stroke-linecap:square;"/>
    <defs>
     <path d="
M-12 12
L12 -12
M-12 -12
L12 12" id="m86aa83dd4c" style="stroke:#ff00ff;stroke-width:3;"/>
    </defs>
    <g clip-path="url(#p54ce849065)">
     <use style="fill:#ff00ff;stroke:#ff00ff;stroke-width:3;" x="345.283788005" xlink:href="#m86aa83dd4c" y="32.9806293681"/>
    </g>
   </g>
   <g id="line2d_11">
    <defs>
     <path d="
M0 1.5
C0.397805 1.5 0.77937 1.34195 1.06066 1.06066
C1.34195 0.77937 1.5 0.397805 1.5 0
C1.5 -0.397805 1.34195 -0.77937 1.06066 -1.06066
C0.77937 -1.34195 0.397805 -1.5 0 -1.5
C-0.397805 -1.5 -0.77937 -1.34195 -1.06066 -1.06066
C-1.34195 -0.77937 -1.5 -0.397805 -1.5 0
C-1.5 0.397805 -1.34195 0.77937 -1.06066 1.06066
C-0.77937 1.34195 -0.397805 1.5 0 1.5
z
" id="m3747452efa" style="stroke:#ffa500;stroke-width:0.5;"/>
    </defs>
    <g>
     <use style="fill:#ffa500;stroke:#ffa500;stroke-width:0.5;" x="335.006601857" xlink:href="#m3747452efa" y="16.878125"/>
     <use style="fill:#ffa500;stroke:#ffa500;stroke-width:0.5;" x="335.006601857" xlink:href="#m3747452efa" y="16.878125"/>
    </g>
   </g>
   <g id="line2d_12">
    <path d="
M69.7185 323.497
L85.2 323.497
L85.2 316.116
L94.2561 316.116
L94.2561 311.42
L109.738 311.42
L109.738 310.078
L113.181 310.078
L113.181 305.381
L116.163 305.381
L116.163 304.71
L118.794 304.71
L118.794 299.343
L121.147 299.343
L121.147 296.659
L125.219 296.659
L125.219 294.646
L127.007 294.646
L127.007 293.304
L132.999 293.304
L132.999 286.595
L134.275 286.595
L134.275 285.924
L135.483 285.924
L135.483 285.253
L141.613 285.253
L141.613 284.582
L144.927 284.582
L144.927 283.911
L147.126 283.911
L147.126 281.899
L150.964 281.899
L150.964 276.531
L151.545 276.531
L151.545 273.176
L154.239 273.176
L154.239 271.164
L155.712 271.164
L155.712 269.822
L159.223 269.822
L159.223 267.809
L160.021 267.809
L160.021 267.138
L160.791 267.138
L160.791 263.783
L161.166 263.783
L161.166 263.112
L161.535 263.112
L161.535 260.429
L161.899 260.429
L161.899 259.087
L165.238 259.087
L165.238 257.074
L165.85 257.074
L165.85 255.732
L167.311 255.732
L167.311 254.39
L170.222 254.39
L170.222 251.706
L171.43 251.706
L171.43 249.694
L171.664 249.694
L171.664 249.023
L171.895 249.023
L171.895 248.352
L173.236 248.352
L173.236 244.997
L173.452 244.997
L173.452 243.655
L176.461 243.655
L176.461 241.642
L177.38 241.642
L177.38 240.971
L177.738 240.971
L177.738 239.629
L181.18 239.629
L181.18 234.933
L182.364 234.933
L182.364 231.578
L182.792 231.578
L182.792 230.236
L182.933 230.236
L182.933 226.211
L185.202 226.211
L185.202 225.54
L186.436 225.54
L186.436 224.869
L186.675 224.869
L186.675 219.501
L187.492 219.501
L187.492 217.488
L187.72 217.488
L187.72 214.805
L188.169 214.805
L188.169 212.792
L188.39 212.792
L188.39 207.424
L189.672 207.424
L189.672 206.753
L190.886 206.753
L190.984 196.689
L191.372 196.689
L191.372 195.348
L191.659 195.348
L191.659 194.006
L192.59 194.006
L192.59 191.322
L192.771 191.322
L192.771 190.651
L193.219 190.651
L193.308 184.613
L194.427 184.613
L194.427 183.942
L199.711 183.942
L199.711 182.6
L200.105 182.6
L200.105 181.929
L200.235 181.929
L200.235 179.916
L201.309 179.916
L201.309 178.574
L202.627 178.574
L202.627 177.903
L203.981 177.903
L203.981 175.89
L204.307 175.89
L204.307 175.219
L299.224 175.219
L299.264 171.194
L301.297 171.194
L301.369 161.801
L301.464 161.801
L301.485 158.446
L307.638 158.446
L307.695 155.091
L315.999 155.091
L316.061 138.989
L317.82 138.989
L317.876 126.912
L326.016 126.912
L326.066 107.455
L326.453 107.455
L326.497 86.6556
L327.488 86.6556
L327.539 71.2241
L328.953 71.2241
L328.998 59.8181
L333.845 59.8181
L333.891 39.0191
L334.959 39.0191
L335.007 16.8781
L445.2 16.8781
L445.2 16.8781" style="fill:none;stroke:#ffa500;stroke-linecap:square;stroke-width:1.5;"/>
   </g>
   <g id="line2d_13">
    <defs>
     <path d="
M3.67394e-16 -6
L-1.34708 -1.8541
L-5.70634 -1.8541
L-2.17963 0.708204
L-3.52671 4.8541
L-4.20996e-16 2.2918
L3.52671 4.8541
L2.17963 0.708204
L5.70634 -1.8541
L1.34708 -1.8541
z
" id="m73d367cfb6" style="stroke:#ffa500;stroke-linejoin:bevel;stroke-width:1.5;"/>
    </defs>
    <g>
     <use style="fill:none;stroke:#ffa500;stroke-linejoin:bevel;stroke-width:1.5;" x="171.429957066" xlink:href="#m73d367cfb6" y="249.693500655"/>
     <use style="fill:none;stroke:#ffa500;stroke-linejoin:bevel;stroke-width:1.5;" x="204.307046338" xlink:href="#m73d367cfb6" y="175.890355635"/>
     <use style="fill:none;stroke:#ffa500;stroke-linejoin:bevel;stroke-width:1.5;" x="326.467443629" xlink:href="#m73d367cfb6" y="98.0615845224"/>
     <use style="fill:none;stroke:#ffa500;stroke-linejoin:bevel;stroke-width:1.5;" x="335.006601857" xlink:href="#m73d367cfb6" y="16.878125"/>
     <use style="fill:none;stroke:#ffa500;stroke-linejoin:bevel;stroke-width:1.5;" x="335.006601857" xlink:href="#m73d367cfb6" y="16.878125"/>
     <use style="fill:none;stroke:#ffa500;stroke-linejoin:bevel;stroke-width:1.5;" x="445.2" xlink:href="#m73d367cfb6" y="16.878125"/>
    </g>
   </g>
   <g id="line2d_14"/>
   <g id="line2d_15">
    <defs>
     <path d="
M0 1.5
C0.397805 1.5 0.77937 1.34195 1.06066 1.06066
C1.34195 0.77937 1.5 0.397805 1.5 0
C1.5 -0.397805 1.34195 -0.77937 1.06066 -1.06066
C0.77937 -1.34195 0.397805 -1.5 0 -1.5
C-0.397805 -1.5 -0.77937 -1.34195 -1.06066 -1.06066
C-1.34195 -0.77937 -1.5 -0.397805 -1.5 0
C-1.5 0.397805 -1.34195 0.77937 -1.06066 1.06066
C-0.77937 1.34195 -0.397805 1.5 0 1.5
z
" id="m03dd694df9" style="stroke:#6495ed;stroke-width:0.5;"/>
    </defs>
    <g>
     <use style="fill:#6495ed;stroke:#6495ed;stroke-width:0.5;" x="385.738992" xlink:href="#m03dd694df9" y="16.878125"/>
     <use style="fill:#6495ed;stroke:#6495ed;stroke-width:0.5;" x="385.738992" xlink:href="#m03dd694df9" y="16.878125"/>
    </g>
   </g>
   <g id="line2d_16">
    <path d="
M85.2 359.056
L85.2 355.031
L94.2561 355.031
L94.2561 336.915
L100.682 336.915
L100.682 331.548
L105.665 331.548
L105.665 324.168
L113.181 324.168
L113.181 321.484
L116.163 321.484
L116.163 316.116
L118.794 316.116
L118.794 312.762
L121.147 312.762
L121.147 308.736
L123.276 308.736
L123.276 307.394
L125.219 307.394
L125.219 305.381
L128.662 305.381
L128.662 304.71
L131.645 304.71
L131.645 304.039
L135.483 304.039
L135.483 303.369
L136.629 303.369
L136.629 302.698
L139.75 302.698
L139.75 301.356
L140.701 301.356
L140.701 300.685
L142.489 300.685
L142.489 300.014
L147.813 300.014
L147.813 299.343
L148.48 299.343
L148.48 298.672
L149.128 298.672
L149.128 298.001
L152.662 298.001
L152.662 296.659
L153.725 296.659
L153.725 295.317
L154.741 295.317
L154.741 293.975
L161.899 293.975
L161.899 293.304
L163.631 293.304
L163.631 292.634
L165.238 292.634
L165.238 291.292
L167.869 291.292
L167.869 289.279
L169.207 289.279
L169.207 288.608
L169.72 288.608
L169.72 287.937
L172.351 287.937
L172.351 285.924
L176.272 285.924
L176.272 284.582
L177.199 284.582
L177.199 283.24
L177.56 283.24
L177.56 279.886
L184.947 279.886
L184.947 278.544
L185.579 278.544
L185.579 277.873
L185.704 277.873
L185.704 277.202
L186.675 277.202
L186.675 275.189
L190.886 275.189
L190.886 273.847
L191.276 273.847
L191.276 272.505
L191.754 272.505
L191.754 271.164
L192.59 271.164
L192.59 269.822
L199.377 269.822
L199.377 269.151
L200.17 269.151
L200.17 268.48
L202.097 268.48
L202.097 267.809
L202.685 267.809
L202.685 266.467
L203.539 266.467
L203.539 265.125
L204.307 265.125
L204.307 264.454
L204.682 264.454
L204.682 260.429
L205.92 260.429
L205.92 258.416
L206.367 258.416
L206.367 256.403
L207.377 256.403
L207.377 255.732
L208.117 255.732
L208.117 253.048
L208.789 253.048
L208.789 252.377
L209.992 252.377
L209.992 250.364
L210.57 250.364
L210.57 249.023
L299.995 249.023
L300.072 240.971
L300.182 240.971
L300.227 234.262
L300.299 234.262
L300.336 229.565
L300.816 229.565
L300.816 228.894
L305.74 228.894
L305.74 228.223
L309.766 228.223
L309.766 227.553
L315.908 227.553
L316.013 215.476
L316.035 215.476
L316.067 212.121
L321.804 212.121
L321.895 198.031
L321.923 198.031
L321.923 196.018
L323.846 196.018
L323.846 195.348
L324.736 195.348
L324.809 180.587
L330.669 180.587
L330.669 179.245
L331.211 179.245
L331.211 177.903
L331.935 177.903
L332.041 159.117
L332.054 159.117
L332.129 141.673
L335.536 141.673
L335.61 127.583
L336.535 127.583
L336.598 111.48
L337.943 111.48
L337.943 110.809
L342.405 110.809
L342.503 104.1
L342.71 104.1
L342.747 102.087
L345.2 102.087
L345.244 98.0616
L345.559 98.0616
L345.599 96.0488
L345.793 96.0488
L345.855 91.3522
L347.97 91.3522
L347.973 89.3394
L348.363 89.3394
L348.415 87.3266
L348.519 87.3266
L348.625 80.6172
L349.873 80.6172
L349.934 76.5916
L350.116 76.5916
L350.116 75.9206
L350.536 75.9206
L350.549 73.9078
L350.748 73.9078
L350.804 71.2241
L351.923 71.2241
L351.923 70.5531
L352.378 70.5531
L352.391 69.2113
L352.729 69.2113
L352.729 67.8694
L353.172 67.8694
L353.264 64.5147
L353.296 64.5147
L353.312 63.1728
L353.495 63.1728
L353.495 62.5019
L354.728 62.5019
L354.762 59.1472
L354.919 59.1472
L355.025 57.1344
L355.034 57.1344
L355.069 54.4506
L355.15 54.4506
L355.165 53.1088
L355.325 53.1088
L355.422 51.7669
L356.739 51.7669
L356.787 47.7413
L357.145 47.7413
L357.145 47.0703
L358.061 47.0703
L358.061 46.3994
L358.197 46.3994
L358.197 45.7284
L359.479 45.7284
L359.487 44.3866
L359.641 44.3866
L359.674 43.0447
L359.798 43.0447
L359.798 42.3738
L360.86 42.3738
L360.86 41.7028
L361.957 41.7028
L361.967 40.3609
L362.107 40.3609
L362.107 39.69
L362.313 39.69
L362.343 38.3481
L362.447 38.3481
L362.474 37.0063
L362.573 37.0063
L362.573 36.3353
L363.782 36.3353
L363.782 35.6644
L364.017 35.6644
L364.098 34.3225
L364.134 34.3225
L364.134 33.6516
L364.757 33.6516
L364.757 32.9806
L365.009 32.9806
L365.118 31.6388
L365.162 31.6388
L365.168 30.2969
L365.276 30.2969
L365.361 28.2841
L366.397 28.2841
L366.397 27.6131
L368.949 27.6131
L369.045 26.2713
L370.06 26.2713
L370.06 25.6003
L370.303 25.6003
L370.303 24.9294
L370.927 24.9294
L370.927 24.2584
L371.232 24.2584
L371.232 23.5875
L372.134 23.5875
L372.134 22.2456
L372.634 22.2456
L372.634 21.5747
L373.12 21.5747
L373.12 20.9038
L374.813 20.9038
L374.813 20.2328
L376.558 20.2328
L376.558 19.5619
L376.775 19.5619
L376.775 18.8909
L379.758 18.8909
L379.758 18.22
L382.198 18.22
L382.198 17.5491
L385.739 17.5491
L385.739 16.8781
L445.2 16.8781
L445.2 16.8781" style="fill:none;stroke:#6495ed;stroke-linecap:square;stroke-width:1.5;"/>
   </g>
   <g id="line2d_17">
    <defs>
     <path d="
M-7.34788e-16 6
L6 -6
L-6 -6
z
" id="md7b19447de" style="stroke:#6495ed;stroke-linejoin:miter;stroke-width:1.5;"/>
    </defs>
    <g>
     <use style="fill:none;stroke:#6495ed;stroke-linejoin:miter;stroke-width:1.5;" x="210.570028945" xlink:href="#md7b19447de" y="250.364438337"/>
     <use style="fill:none;stroke:#6495ed;stroke-linejoin:miter;stroke-width:1.5;" x="336.580961256" xlink:href="#md7b19447de" y="120.202528029"/>
     <use style="fill:none;stroke:#6495ed;stroke-linejoin:miter;stroke-width:1.5;" x="385.738992" xlink:href="#md7b19447de" y="17.549062682"/>
     <use style="fill:none;stroke:#6495ed;stroke-linejoin:miter;stroke-width:1.5;" x="385.738992" xlink:href="#md7b19447de" y="16.878125"/>
     <use style="fill:none;stroke:#6495ed;stroke-linejoin:miter;stroke-width:1.5;" x="445.2" xlink:href="#md7b19447de" y="16.878125"/>
    </g>
   </g>
   <g id="line2d_18"/>
   <g id="line2d_19">
    <path clip-path="url(#p54ce849065)" d="
M342.709 104.1" style="fill:none;stroke:#6495ed;stroke-linecap:square;"/>
    <defs>
     <path d="
M-12 12
L12 -12
M-12 -12
L12 12" id="mdd39a44969" style="stroke:#6495ed;stroke-width:3;"/>
    </defs>
    <g clip-path="url(#p54ce849065)">
     <use style="fill:#6495ed;stroke:#6495ed;stroke-width:3;" x="342.709038864" xlink:href="#mdd39a44969" y="104.10002366"/>
    </g>
   </g>
   <g id="line2d_20">
    <defs>
     <path d="
M0 1.5
C0.397805 1.5 0.77937 1.34195 1.06066 1.06066
C1.34195 0.77937 1.5 0.397805 1.5 0
C1.5 -0.397805 1.34195 -0.77937 1.06066 -1.06066
C0.77937 -1.34195 0.397805 -1.5 0 -1.5
C-0.397805 -1.5 -0.77937 -1.34195 -1.06066 -1.06066
C-1.34195 -0.77937 -1.5 -0.397805 -1.5 0
C-1.5 0.397805 -1.34195 0.77937 -1.06066 1.06066
C-0.77937 1.34195 -0.397805 1.5 0 1.5
z
" id="ma07bdd5909" style="stroke:#ff0000;stroke-width:0.5;"/>
    </defs>
    <g>
     <use style="fill:#ff0000;stroke:#ff0000;stroke-width:0.5;" x="442.520092707" xlink:href="#ma07bdd5909" y="16.878125"/>
     <use style="fill:#ff0000;stroke:#ff0000;stroke-width:0.5;" x="442.520092707" xlink:href="#ma07bdd5909" y="16.878125"/>
    </g>
   </g>
   <g id="line2d_21">
    <path d="
M69.7185 340.27
L85.2 340.27
L85.2 336.244
L94.2561 336.244
L94.2561 330.206
L100.682 330.206
L100.682 328.864
L105.665 328.864
L105.665 328.193
L113.181 328.193
L113.181 326.18
L116.163 326.18
L116.163 324.839
L121.147 324.839
L121.147 322.826
L123.276 322.826
L123.276 319.471
L128.662 319.471
L128.662 318.8
L131.645 318.8
L131.645 318.129
L138.757 318.129
L138.757 316.787
L140.701 316.787
L140.701 315.445
L143.331 315.445
L143.331 312.091
L151.545 312.091
L151.545 311.42
L154.741 311.42
L154.741 310.749
L165.546 310.749
L165.546 310.078
L175.305 310.078
L175.305 308.065
L177.38 308.065
L177.38 306.052
L177.914 306.052
L177.914 304.039
L183.073 304.039
L183.073 303.369
L187.029 303.369
L187.029 301.356
L198.763 301.356
L198.763 300.685
L199.444 300.685
L199.444 300.014
L208.343 300.014
L208.343 298.672
L299.909 298.672
L299.909 298.001
L302.69 298.001
L302.69 297.33
L313.978 297.33
L313.978 296.659
L315.262 296.659
L315.262 295.988
L316.653 295.988
L316.653 295.317
L317.556 295.317
L317.556 293.975
L323.577 293.975
L323.577 292.634
L324.991 292.634
L325.088 283.911
L325.106 283.911
L325.155 271.164
L325.417 271.164
L325.417 270.493
L331.31 270.493
L331.31 269.822
L343.648 269.822
L343.648 269.151
L343.922 269.151
L343.922 268.48
L344.193 268.48
L344.193 267.809
L347.06 267.809
L347.06 267.138
L350.113 267.138
L350.113 265.796
L350.275 265.796
L350.275 265.125
L350.851 265.125
L350.872 263.112
L351.304 263.112
L351.34 259.087
L351.683 259.087
L351.724 257.745
L351.878 257.745
L351.91 255.732
L352.011 255.732
L352.08 253.719
L352.247 253.719
L352.264 251.706
L352.473 251.706
L352.478 249.694
L352.585 249.694
L352.617 248.352
L356.347 248.352
L356.405 247.01
L359.397 247.01
L359.397 246.339
L361.571 246.339
L361.571 245.668
L362.387 245.668
L362.387 244.997
L362.775 244.997
L362.787 242.984
L363.024 242.984
L363.024 242.313
L363.259 242.313
L363.34 240.971
L363.391 240.971
L363.404 238.958
L363.542 238.958
L363.619 237.617
L363.667 237.617
L363.731 235.604
L363.81 235.604
L363.839 232.92
L363.923 232.92
L363.977 231.578
L364.064 231.578
L364.152 229.565
L364.247 229.565
L364.274 227.553
L364.49 227.553
L364.557 226.211
L365.19 226.211
L365.19 225.54
L366.177 225.54
L366.177 224.869
L366.644 224.869
L366.644 224.198
L370.229 224.198
L370.229 223.527
L370.872 223.527
L370.914 221.514
L370.995 221.514
L371.105 219.501
L371.189 219.501
L371.272 217.488
L371.461 217.488
L371.52 215.476
L371.712 215.476
L371.805 212.792
L371.841 212.792
L371.94 210.108
L376.258 210.108
L376.258 209.437
L376.617 209.437
L376.623 208.095
L376.746 208.095
L376.76 205.412
L376.927 205.412
L376.927 204.741
L377.078 204.741
L377.182 203.399
L377.279 203.399
L377.367 200.044
L377.429 200.044
L377.531 198.702
L378.195 198.702
L378.195 198.031
L379.77 198.031
L379.77 197.36
L380.51 197.36
L380.51 196.689
L381.079 196.689
L381.079 196.018
L381.191 196.018
L381.191 195.348
L381.509 195.348
L381.609 194.006
L381.642 194.006
L381.749 190.651
L381.756 190.651
L381.809 188.638
L381.874 188.638
L381.97 185.283
L382.161 185.283
L382.161 184.613
L382.379 184.613
L382.441 183.271
L384.862 183.271
L384.862 182.6
L385.272 182.6
L385.374 180.587
L385.397 180.587
L385.478 177.903
L385.51 177.903
L385.606 175.89
L385.625 175.89
L385.714 174.548
L385.782 174.548
L385.782 173.878
L385.921 173.878
L385.921 173.207
L388.44 173.207
L388.463 171.865
L388.579 171.865
L388.637 168.51
L388.801 168.51
L388.881 165.826
L389.352 165.826
L389.352 165.155
L390.997 165.155
L391.089 163.813
L391.274 163.813
L391.366 161.801
L391.469 161.801
L391.579 158.446
L391.62 158.446
L391.723 155.091
L391.924 155.091
L391.956 153.749
L393.917 153.749
L394.005 150.395
L394.102 150.395
L394.209 149.053
L394.281 149.053
L394.363 147.711
L396.12 147.711
L396.226 144.356
L396.245 144.356
L396.343 139.66
L396.365 139.66
L396.372 138.318
L396.559 138.318
L396.562 136.976
L396.938 136.976
L396.938 136.305
L397.767 136.305
L397.767 135.634
L398.005 135.634
L398.005 134.963
L398.131 134.963
L398.131 134.292
L398.359 134.292
L398.383 132.279
L398.471 132.279
L398.549 128.925
L398.638 128.925
L398.638 128.254
L398.778 128.254
L398.778 127.583
L399.841 127.583
L399.841 126.912
L400.073 126.912
L400.103 125.57
L400.192 125.57
L400.203 124.228
L400.324 124.228
L400.334 122.886
L400.697 122.886
L400.697 122.215
L401.875 122.215
L401.961 120.873
L402.16 120.873
L402.16 120.203
L403.291 120.203
L403.291 119.532
L403.452 119.532
L403.538 115.506
L403.57 115.506
L403.656 112.822
L404.917 112.822
L405 110.809
L405.042 110.809
L405.095 108.126
L405.221 108.126
L405.221 107.455
L405.967 107.455
L405.967 106.784
L406.277 106.784
L406.356 104.771
L406.392 104.771
L406.5 102.758
L406.56 102.758
L406.602 100.745
L407.445 100.745
L407.445 100.074
L407.6 100.074
L407.6 99.4035
L407.722 99.4035
L407.814 96.7197
L407.88 96.7197
L407.88 96.0488
L408.089 96.0488
L408.089 95.3778
L408.908 95.3778
L409.009 92.0231
L409.041 92.0231
L409.05 90.6813
L409.234 90.6813
L409.258 89.3394
L410.118 89.3394
L410.118 88.6685
L410.257 88.6685
L410.363 85.9847
L410.454 85.9847
L410.549 84.6428
L411.095 84.6428
L411.095 83.9719
L411.23 83.9719
L411.335 79.9463
L411.356 79.9463
L411.455 78.6044
L411.494 78.6044
L411.494 77.9335
L412.333 77.9335
L412.418 75.2497
L413.397 75.2497
L413.447 73.9078
L413.605 73.9078
L413.605 73.2369
L414.483 73.2369
L414.549 69.2113
L415.014 69.2113
L415.014 68.5403
L415.176 68.5403
L415.263 67.1985
L415.312 67.1985
L415.423 65.1856
L415.426 65.1856
L415.434 63.8438
L415.704 63.8438
L415.704 63.1728
L416.243 63.1728
L416.29 61.8309
L416.383 61.8309
L416.415 60.4891
L416.927 60.4891
L417.007 59.1472
L417.052 59.1472
L417.126 56.4634
L417.238 56.4634
L417.238 55.7925
L417.741 55.7925
L417.741 55.1216
L417.853 55.1216
L417.962 53.7797
L417.966 53.7797
L418.059 52.4378
L418.098 52.4378
L418.098 51.7669
L418.763 51.7669
L418.819 50.425
L419.565 50.425
L419.577 49.0831
L420.174 49.0831
L420.28 47.7413
L420.342 47.7413
L420.342 47.0703
L420.931 47.0703
L420.931 46.3994
L421.383 46.3994
L421.383 45.7284
L421.627 45.7284
L421.627 45.0575
L422.183 45.0575
L422.198 43.7156
L422.346 43.7156
L422.397 42.3738
L422.507 42.3738
L422.507 41.7028
L422.911 41.7028
L422.964 40.3609
L423.045 40.3609
L423.058 39.0191
L423.517 39.0191
L423.544 37.6772
L423.65 37.6772
L423.7 34.9934
L423.789 34.9934
L423.789 34.3225
L424.136 34.3225
L424.136 33.6516
L424.324 33.6516
L424.324 32.9806
L424.854 32.9806
L424.854 32.3097
L424.991 32.3097
L424.991 31.6388
L425.555 31.6388
L425.555 30.9678
L425.892 30.9678
L425.892 30.2969
L426.583 30.2969
L426.583 29.6259
L427.077 29.6259
L427.077 28.955
L427.598 28.955
L427.643 27.6131
L428.169 27.6131
L428.169 26.9422
L428.659 26.9422
L428.768 24.2584
L429.218 24.2584
L429.218 23.5875
L430.265 23.5875
L430.265 22.9166
L430.694 22.9166
L430.694 22.2456
L432.747 22.2456
L432.788 20.9038
L432.927 20.9038
L432.927 20.2328
L433.601 20.2328
L433.601 19.5619
L434.578 19.5619
L434.578 18.8909
L437.076 18.8909
L437.076 18.22
L439.853 18.22
L439.853 17.5491
L442.52 17.5491
L442.52 16.8781
L445.2 16.8781
L445.2 16.8781" style="fill:none;stroke:#ff0000;stroke-linecap:square;stroke-width:1.5;"/>
   </g>
   <g id="line2d_22">
    <defs>
     <path d="
M3.67394e-16 -6
L-5.19615 -3
L-5.19615 3
L-1.10218e-15 6
L5.19615 3
L5.19615 -3
z
" id="m98e028c2bf" style="stroke:#ff0000;stroke-linejoin:miter;stroke-width:1.5;"/>
    </defs>
    <g>
     <use style="fill:none;stroke:#ff0000;stroke-linejoin:miter;stroke-width:1.5;" x="208.3432293" xlink:href="#m98e028c2bf" y="300.013826805"/>
     <use style="fill:none;stroke:#ff0000;stroke-linejoin:miter;stroke-width:1.5;" x="350.872182868" xlink:href="#m98e028c2bf" y="263.112254295"/>
     <use style="fill:none;stroke:#ff0000;stroke-linejoin:miter;stroke-width:1.5;" x="400.19158318" xlink:href="#m98e028c2bf" y="125.570029485"/>
     <use style="fill:none;stroke:#ff0000;stroke-linejoin:miter;stroke-width:1.5;" x="442.520092707" xlink:href="#m98e028c2bf" y="16.878125"/>
     <use style="fill:none;stroke:#ff0000;stroke-linejoin:miter;stroke-width:1.5;" x="442.520092707" xlink:href="#m98e028c2bf" y="16.878125"/>
     <use style="fill:none;stroke:#ff0000;stroke-linejoin:miter;stroke-width:1.5;" x="445.2" xlink:href="#m98e028c2bf" y="16.878125"/>
    </g>
   </g>
   <g id="line2d_23"/>
   <g id="line2d_24">
    <path clip-path="url(#p54ce849065)" d="
M343.921 269.151" style="fill:none;stroke:#ff0000;stroke-linecap:square;"/>
    <defs>
     <path d="
M-12 12
L12 -12
M-12 -12
L12 12" id="m4e2b024d89" style="stroke:#ff0000;stroke-width:3;"/>
    </defs>
    <g clip-path="url(#p54ce849065)">
     <use style="fill:#ff0000;stroke:#ff0000;stroke-width:3;" x="343.921448261" xlink:href="#m4e2b024d89" y="269.150693433"/>
    </g>
   </g>
   <g id="line2d_25">
    <path d="
M445.2 16.8781
L484.8 352.213" style="fill:none;stroke:#ff0000;stroke-linecap:square;stroke-width:1.5;"/>
    <g>
     <use style="fill:none;stroke:#ff0000;stroke-linejoin:miter;stroke-width:1.5;" x="445.2" xlink:href="#m98e028c2bf" y="16.878125"/>
     <use style="fill:none;stroke:#ff0000;stroke-linejoin:miter;stroke-width:1.5;" x="484.8" xlink:href="#m98e028c2bf" y="352.212778465"/>
    </g>
   </g>
   <g id="line2d_26">
    <path d="
M445.2 16.8781
L484.8 270.09" style="fill:none;stroke:#6495ed;stroke-linecap:square;stroke-width:1.5;"/>
    <g>
     <use style="fill:none;stroke:#6495ed;stroke-linejoin:miter;stroke-width:1.5;" x="445.2" xlink:href="#md7b19447de" y="16.878125"/>
     <use style="fill:none;stroke:#6495ed;stroke-linejoin:miter;stroke-width:1.5;" x="484.8" xlink:href="#md7b19447de" y="270.090006188"/>
    </g>
   </g>
   <g id="line2d_27">
    <path d="
M445.2 16.8781
L484.8 187.967" style="fill:none;stroke:#000080;stroke-linecap:square;stroke-width:1.5;"/>
    <g>
     <use style="fill:none;stroke:#000080;stroke-width:1.5;" x="445.2" xlink:href="#mae466deef1" y="16.878125"/>
     <use style="fill:none;stroke:#000080;stroke-width:1.5;" x="484.8" xlink:href="#mae466deef1" y="187.967233911"/>
    </g>
   </g>
   <g id="line2d_28">
    <path d="
M445.2 16.8781
L484.8 105.844" style="fill:none;stroke:#ff00ff;stroke-linecap:square;stroke-width:1.5;"/>
    <g>
     <use style="fill:none;stroke:#ff00ff;stroke-linejoin:miter;stroke-width:1.5;" x="445.2" xlink:href="#mf6640c921f" y="16.878125"/>
     <use style="fill:none;stroke:#ff00ff;stroke-linejoin:miter;stroke-width:1.5;" x="484.8" xlink:href="#mf6640c921f" y="105.844461634"/>
    </g>
   </g>
   <g id="line2d_29">
    <path d="
M445.2 16.8781
L484.8 23.7217" style="fill:none;stroke:#ffa500;stroke-linecap:square;stroke-width:1.5;"/>
    <g>
     <use style="fill:none;stroke:#ffa500;stroke-linejoin:bevel;stroke-width:1.5;" x="445.2" xlink:href="#m73d367cfb6" y="16.878125"/>
     <use style="fill:none;stroke:#ffa500;stroke-linejoin:bevel;stroke-width:1.5;" x="484.8" xlink:href="#m73d367cfb6" y="23.7216893564"/>
    </g>
   </g>
   <g id="line2d_30">
    <path d="
M445.2 359.056
L445.2 16.8781" style="fill:none;stroke:#000000;stroke-linecap:square;"/>
   </g>
   <g id="matplotlib.axis_1">
    <g id="xtick_1">
     <g id="line2d_31">
      <path clip-path="url(#p54ce849065)" d="
M85.2 359.056
L85.2 13.4563" style="fill:none;stroke:#000000;stroke-dasharray:1.000000,3.000000;stroke-dashoffset:0.0;stroke-width:0.5;"/>
     </g>
     <g id="line2d_32">
      <defs>
       <path d="
M0 0
L0 -4" id="m93b0483c22" style="stroke:#000000;stroke-width:0.5;"/>
      </defs>
      <g>
       <use style="stroke:#000000;stroke-width:0.5;" x="85.2" xlink:href="#m93b0483c22" y="359.056342822"/>
      </g>
     </g>
     <g id="line2d_33">
      <defs>
       <path d="
M0 0
L0 4" id="m741efc42ff" style="stroke:#000000;stroke-width:0.5;"/>
      </defs>
      <g>
       <use style="stroke:#000000;stroke-width:0.5;" x="85.2" xlink:href="#m741efc42ff" y="13.4563428218"/>
      </g>
     </g>
     <g id="text_1">
      <!-- 0 -->
      <defs>
       <path d="
M31.7812 66.4062
Q24.1719 66.4062 20.3281 58.9062
Q16.5 51.4219 16.5 36.375
Q16.5 21.3906 20.3281 13.8906
Q24.1719 6.39062 31.7812 6.39062
Q39.4531 6.39062 43.2812 13.8906
Q47.125 21.3906 47.125 36.375
Q47.125 51.4219 43.2812 58.9062
Q39.4531 66.4062 31.7812 66.4062
M31.7812 74.2188
Q44.0469 74.2188 50.5156 64.5156
Q56.9844 54.8281 56.9844 36.375
Q56.9844 17.9688 50.5156 8.26562
Q44.0469 -1.42188 31.7812 -1.42188
Q19.5312 -1.42188 13.0625 8.26562
Q6.59375 17.9688 6.59375 36.375
Q6.59375 54.8281 13.0625 64.5156
Q19.5312 74.2188 31.7812 74.2188" id="BitstreamVeraSans-Roman-30"/>
      </defs>
      <g transform="translate(80.1609375 378.253217822)scale(0.2 -0.2)">
       <use xlink:href="#BitstreamVeraSans-Roman-30"/>
      </g>
     </g>
    </g>
    <g id="xtick_2">
     <g id="line2d_34">
      <path clip-path="url(#p54ce849065)" d="
M136.629 359.056
L136.629 13.4563" style="fill:none;stroke:#000000;stroke-dasharray:1.000000,3.000000;stroke-dashoffset:0.0;stroke-width:0.5;"/>
     </g>
     <g id="line2d_35">
      <g>
       <use style="stroke:#000000;stroke-width:0.5;" x="136.628571429" xlink:href="#m93b0483c22" y="359.056342822"/>
      </g>
     </g>
     <g id="line2d_36">
      <g>
       <use style="stroke:#000000;stroke-width:0.5;" x="136.628571429" xlink:href="#m741efc42ff" y="13.4563428218"/>
      </g>
     </g>
     <g id="text_2">
      <!-- 1 -->
      <defs>
       <path d="
M12.4062 8.29688
L28.5156 8.29688
L28.5156 63.9219
L10.9844 60.4062
L10.9844 69.3906
L28.4219 72.9062
L38.2812 72.9062
L38.2812 8.29688
L54.3906 8.29688
L54.3906 0
L12.4062 0
z
" id="BitstreamVeraSans-Roman-31"/>
      </defs>
      <g transform="translate(132.287946429 378.253217822)scale(0.2 -0.2)">
       <use xlink:href="#BitstreamVeraSans-Roman-31"/>
      </g>
     </g>
    </g>
    <g id="xtick_3">
     <g id="line2d_37">
      <path clip-path="url(#p54ce849065)" d="
M188.057 359.056
L188.057 13.4563" style="fill:none;stroke:#000000;stroke-dasharray:1.000000,3.000000;stroke-dashoffset:0.0;stroke-width:0.5;"/>
     </g>
     <g id="line2d_38">
      <g>
       <use style="stroke:#000000;stroke-width:0.5;" x="188.057142857" xlink:href="#m93b0483c22" y="359.056342822"/>
      </g>
     </g>
     <g id="line2d_39">
      <g>
       <use style="stroke:#000000;stroke-width:0.5;" x="188.057142857" xlink:href="#m741efc42ff" y="13.4563428218"/>
      </g>
     </g>
     <g id="text_3">
      <!-- 2 -->
      <defs>
       <path d="
M19.1875 8.29688
L53.6094 8.29688
L53.6094 0
L7.32812 0
L7.32812 8.29688
Q12.9375 14.1094 22.625 23.8906
Q32.3281 33.6875 34.8125 36.5312
Q39.5469 41.8438 41.4219 45.5312
Q43.3125 49.2188 43.3125 52.7812
Q43.3125 58.5938 39.2344 62.25
Q35.1562 65.9219 28.6094 65.9219
Q23.9688 65.9219 18.8125 64.3125
Q13.6719 62.7031 7.8125 59.4219
L7.8125 69.3906
Q13.7656 71.7812 18.9375 73
Q24.125 74.2188 28.4219 74.2188
Q39.75 74.2188 46.4844 68.5469
Q53.2188 62.8906 53.2188 53.4219
Q53.2188 48.9219 51.5312 44.8906
Q49.8594 40.875 45.4062 35.4062
Q44.1875 33.9844 37.6406 27.2188
Q31.1094 20.4531 19.1875 8.29688" id="BitstreamVeraSans-Roman-32"/>
      </defs>
      <g transform="translate(183.429017857 378.253217822)scale(0.2 -0.2)">
       <use xlink:href="#BitstreamVeraSans-Roman-32"/>
      </g>
     </g>
    </g>
    <g id="xtick_4">
     <g id="line2d_40">
      <path clip-path="url(#p54ce849065)" d="
M239.486 359.056
L239.486 13.4563" style="fill:none;stroke:#000000;stroke-dasharray:1.000000,3.000000;stroke-dashoffset:0.0;stroke-width:0.5;"/>
     </g>
     <g id="line2d_41">
      <g>
       <use style="stroke:#000000;stroke-width:0.5;" x="239.485714286" xlink:href="#m93b0483c22" y="359.056342822"/>
      </g>
     </g>
     <g id="line2d_42">
      <g>
       <use style="stroke:#000000;stroke-width:0.5;" x="239.485714286" xlink:href="#m741efc42ff" y="13.4563428218"/>
      </g>
     </g>
     <g id="text_4">
      <!-- 3 -->
      <defs>
       <path d="
M40.5781 39.3125
Q47.6562 37.7969 51.625 33
Q55.6094 28.2188 55.6094 21.1875
Q55.6094 10.4062 48.1875 4.48438
Q40.7656 -1.42188 27.0938 -1.42188
Q22.5156 -1.42188 17.6562 -0.515625
Q12.7969 0.390625 7.625 2.20312
L7.625 11.7188
Q11.7188 9.32812 16.5938 8.10938
Q21.4844 6.89062 26.8125 6.89062
Q36.0781 6.89062 40.9375 10.5469
Q45.7969 14.2031 45.7969 21.1875
Q45.7969 27.6406 41.2812 31.2656
Q36.7656 34.9062 28.7188 34.9062
L20.2188 34.9062
L20.2188 43.0156
L29.1094 43.0156
Q36.375 43.0156 40.2344 45.9219
Q44.0938 48.8281 44.0938 54.2969
Q44.0938 59.9062 40.1094 62.9062
Q36.1406 65.9219 28.7188 65.9219
Q24.6562 65.9219 20.0156 65.0312
Q15.375 64.1562 9.8125 62.3125
L9.8125 71.0938
Q15.4375 72.6562 20.3438 73.4375
Q25.25 74.2188 29.5938 74.2188
Q40.8281 74.2188 47.3594 69.1094
Q53.9062 64.0156 53.9062 55.3281
Q53.9062 49.2656 50.4375 45.0938
Q46.9688 40.9219 40.5781 39.3125" id="BitstreamVeraSans-Roman-33"/>
      </defs>
      <g transform="translate(234.687276786 378.253217822)scale(0.2 -0.2)">
       <use xlink:href="#BitstreamVeraSans-Roman-33"/>
      </g>
     </g>
    </g>
    <g id="xtick_5">
     <g id="line2d_43">
      <path clip-path="url(#p54ce849065)" d="
M290.914 359.056
L290.914 13.4563" style="fill:none;stroke:#000000;stroke-dasharray:1.000000,3.000000;stroke-dashoffset:0.0;stroke-width:0.5;"/>
     </g>
     <g id="line2d_44">
      <g>
       <use style="stroke:#000000;stroke-width:0.5;" x="290.914285714" xlink:href="#m93b0483c22" y="359.056342822"/>
      </g>
     </g>
     <g id="line2d_45">
      <g>
       <use style="stroke:#000000;stroke-width:0.5;" x="290.914285714" xlink:href="#m741efc42ff" y="13.4563428218"/>
      </g>
     </g>
     <g id="text_5">
      <!-- 4 -->
      <defs>
       <path d="
M37.7969 64.3125
L12.8906 25.3906
L37.7969 25.3906
z

M35.2031 72.9062
L47.6094 72.9062
L47.6094 25.3906
L58.0156 25.3906
L58.0156 17.1875
L47.6094 17.1875
L47.6094 0
L37.7969 0
L37.7969 17.1875
L4.89062 17.1875
L4.89062 26.7031
z
" id="BitstreamVeraSans-Roman-34"/>
      </defs>
      <g transform="translate(285.601785714 378.253217822)scale(0.2 -0.2)">
       <use xlink:href="#BitstreamVeraSans-Roman-34"/>
      </g>
     </g>
    </g>
    <g id="xtick_6">
     <g id="line2d_46">
      <path clip-path="url(#p54ce849065)" d="
M342.343 359.056
L342.343 13.4563" style="fill:none;stroke:#000000;stroke-dasharray:1.000000,3.000000;stroke-dashoffset:0.0;stroke-width:0.5;"/>
     </g>
     <g id="line2d_47">
      <g>
       <use style="stroke:#000000;stroke-width:0.5;" x="342.342857143" xlink:href="#m93b0483c22" y="359.056342822"/>
      </g>
     </g>
     <g id="line2d_48">
      <g>
       <use style="stroke:#000000;stroke-width:0.5;" x="342.342857143" xlink:href="#m741efc42ff" y="13.4563428218"/>
      </g>
     </g>
     <g id="text_6">
      <!-- 5 -->
      <defs>
       <path d="
M10.7969 72.9062
L49.5156 72.9062
L49.5156 64.5938
L19.8281 64.5938
L19.8281 46.7344
Q21.9688 47.4688 24.1094 47.8281
Q26.2656 48.1875 28.4219 48.1875
Q40.625 48.1875 47.75 41.5
Q54.8906 34.8125 54.8906 23.3906
Q54.8906 11.625 47.5625 5.09375
Q40.2344 -1.42188 26.9062 -1.42188
Q22.3125 -1.42188 17.5469 -0.640625
Q12.7969 0.140625 7.71875 1.70312
L7.71875 11.625
Q12.1094 9.23438 16.7969 8.0625
Q21.4844 6.89062 26.7031 6.89062
Q35.1562 6.89062 40.0781 11.3281
Q45.0156 15.7656 45.0156 23.3906
Q45.0156 31 40.0781 35.4375
Q35.1562 39.8906 26.7031 39.8906
Q22.75 39.8906 18.8125 39.0156
Q14.8906 38.1406 10.7969 36.2812
z
" id="BitstreamVeraSans-Roman-35"/>
      </defs>
      <g transform="translate(337.625669643 378.253217822)scale(0.2 -0.2)">
       <use xlink:href="#BitstreamVeraSans-Roman-35"/>
      </g>
     </g>
    </g>
    <g id="xtick_7">
     <g id="line2d_49">
      <path clip-path="url(#p54ce849065)" d="
M393.771 359.056
L393.771 13.4563" style="fill:none;stroke:#000000;stroke-dasharray:1.000000,3.000000;stroke-dashoffset:0.0;stroke-width:0.5;"/>
     </g>
     <g id="line2d_50">
      <g>
       <use style="stroke:#000000;stroke-width:0.5;" x="393.771428571" xlink:href="#m93b0483c22" y="359.056342822"/>
      </g>
     </g>
     <g id="line2d_51">
      <g>
       <use style="stroke:#000000;stroke-width:0.5;" x="393.771428571" xlink:href="#m741efc42ff" y="13.4563428218"/>
      </g>
     </g>
     <g id="text_7">
      <!-- 6 -->
      <defs>
       <path d="
M33.0156 40.375
Q26.375 40.375 22.4844 35.8281
Q18.6094 31.2969 18.6094 23.3906
Q18.6094 15.5312 22.4844 10.9531
Q26.375 6.39062 33.0156 6.39062
Q39.6562 6.39062 43.5312 10.9531
Q47.4062 15.5312 47.4062 23.3906
Q47.4062 31.2969 43.5312 35.8281
Q39.6562 40.375 33.0156 40.375
M52.5938 71.2969
L52.5938 62.3125
Q48.875 64.0625 45.0938 64.9844
Q41.3125 65.9219 37.5938 65.9219
Q27.8281 65.9219 22.6719 59.3281
Q17.5312 52.7344 16.7969 39.4062
Q19.6719 43.6562 24.0156 45.9219
Q28.375 48.1875 33.5938 48.1875
Q44.5781 48.1875 50.9531 41.5156
Q57.3281 34.8594 57.3281 23.3906
Q57.3281 12.1562 50.6875 5.35938
Q44.0469 -1.42188 33.0156 -1.42188
Q20.3594 -1.42188 13.6719 8.26562
Q6.98438 17.9688 6.98438 36.375
Q6.98438 53.6562 15.1875 63.9375
Q23.3906 74.2188 37.2031 74.2188
Q40.9219 74.2188 44.7031 73.4844
Q48.4844 72.75 52.5938 71.2969" id="BitstreamVeraSans-Roman-36"/>
      </defs>
      <g transform="translate(388.737053571 378.253217822)scale(0.2 -0.2)">
       <use xlink:href="#BitstreamVeraSans-Roman-36"/>
      </g>
     </g>
    </g>
    <g id="xtick_8">
     <g id="line2d_52">
      <path clip-path="url(#p54ce849065)" d="
M445.2 359.056
L445.2 13.4563" style="fill:none;stroke:#000000;stroke-dasharray:1.000000,3.000000;stroke-dashoffset:0.0;stroke-width:0.5;"/>
     </g>
     <g id="line2d_53">
      <g>
       <use style="stroke:#000000;stroke-width:0.5;" x="445.2" xlink:href="#m93b0483c22" y="359.056342822"/>
      </g>
     </g>
     <g id="line2d_54">
      <g>
       <use style="stroke:#000000;stroke-width:0.5;" x="445.2" xlink:href="#m741efc42ff" y="13.4563428218"/>
      </g>
     </g>
     <g id="text_8">
      <!-- 7 -->
      <defs>
       <path d="
M8.20312 72.9062
L55.0781 72.9062
L55.0781 68.7031
L28.6094 0
L18.3125 0
L43.2188 64.5938
L8.20312 64.5938
z
" id="BitstreamVeraSans-Roman-37"/>
      </defs>
      <g transform="translate(440.5125 378.253217822)scale(0.2 -0.2)">
       <use xlink:href="#BitstreamVeraSans-Roman-37"/>
      </g>
     </g>
    </g>
    <g id="xtick_9">
     <g id="line2d_55">
      <path clip-path="url(#p54ce849065)" d="
M496.629 359.056
L496.629 13.4563" style="fill:none;stroke:#000000;stroke-dasharray:1.000000,3.000000;stroke-dashoffset:0.0;stroke-width:0.5;"/>
     </g>
     <g id="line2d_56">
      <g>
       <use style="stroke:#000000;stroke-width:0.5;" x="496.628571429" xlink:href="#m93b0483c22" y="359.056342822"/>
      </g>
     </g>
     <g id="line2d_57">
      <g>
       <use style="stroke:#000000;stroke-width:0.5;" x="496.628571429" xlink:href="#m741efc42ff" y="13.4563428218"/>
      </g>
     </g>
     <g id="text_9">
      <!-- 8 -->
      <defs>
       <path d="
M31.7812 34.625
Q24.75 34.625 20.7188 30.8594
Q16.7031 27.0938 16.7031 20.5156
Q16.7031 13.9219 20.7188 10.1562
Q24.75 6.39062 31.7812 6.39062
Q38.8125 6.39062 42.8594 10.1719
Q46.9219 13.9688 46.9219 20.5156
Q46.9219 27.0938 42.8906 30.8594
Q38.875 34.625 31.7812 34.625
M21.9219 38.8125
Q15.5781 40.375 12.0312 44.7188
Q8.5 49.0781 8.5 55.3281
Q8.5 64.0625 14.7188 69.1406
Q20.9531 74.2188 31.7812 74.2188
Q42.6719 74.2188 48.875 69.1406
Q55.0781 64.0625 55.0781 55.3281
Q55.0781 49.0781 51.5312 44.7188
Q48 40.375 41.7031 38.8125
Q48.8281 37.1562 52.7969 32.3125
Q56.7812 27.4844 56.7812 20.5156
Q56.7812 9.90625 50.3125 4.23438
Q43.8438 -1.42188 31.7812 -1.42188
Q19.7344 -1.42188 13.25 4.23438
Q6.78125 9.90625 6.78125 20.5156
Q6.78125 27.4844 10.7812 32.3125
Q14.7969 37.1562 21.9219 38.8125
M18.3125 54.3906
Q18.3125 48.7344 21.8438 45.5625
Q25.3906 42.3906 31.7812 42.3906
Q38.1406 42.3906 41.7188 45.5625
Q45.3125 48.7344 45.3125 54.3906
Q45.3125 60.0625 41.7188 63.2344
Q38.1406 66.4062 31.7812 66.4062
Q25.3906 66.4062 21.8438 63.2344
Q18.3125 60.0625 18.3125 54.3906" id="BitstreamVeraSans-Roman-38"/>
      </defs>
      <g transform="translate(491.628571429 378.253217822)scale(0.2 -0.2)">
       <use xlink:href="#BitstreamVeraSans-Roman-38"/>
      </g>
     </g>
    </g>
    <g id="xtick_10">
     <g id="line2d_58">
      <defs>
       <path d="
M0 0
L0 -2" id="m177f7580d0" style="stroke:#000000;stroke-width:0.5;"/>
      </defs>
      <g>
       <use style="stroke:#000000;stroke-width:0.5;" x="100.681542634" xlink:href="#m177f7580d0" y="359.056342822"/>
      </g>
     </g>
     <g id="line2d_59">
      <defs>
       <path d="
M0 0
L0 2" id="m5284c7e2a0" style="stroke:#000000;stroke-width:0.5;"/>
      </defs>
      <g>
       <use style="stroke:#000000;stroke-width:0.5;" x="100.681542634" xlink:href="#m5284c7e2a0" y="13.4563428218"/>
      </g>
     </g>
    </g>
    <g id="xtick_11">
     <g id="line2d_60">
      <g>
       <use style="stroke:#000000;stroke-width:0.5;" x="116.163085268" xlink:href="#m177f7580d0" y="359.056342822"/>
      </g>
     </g>
     <g id="line2d_61">
      <g>
       <use style="stroke:#000000;stroke-width:0.5;" x="116.163085268" xlink:href="#m5284c7e2a0" y="13.4563428218"/>
      </g>
     </g>
    </g>
    <g id="xtick_12">
     <g id="line2d_62">
      <g>
       <use style="stroke:#000000;stroke-width:0.5;" x="125.219207163" xlink:href="#m177f7580d0" y="359.056342822"/>
      </g>
     </g>
     <g id="line2d_63">
      <g>
       <use style="stroke:#000000;stroke-width:0.5;" x="125.219207163" xlink:href="#m5284c7e2a0" y="13.4563428218"/>
      </g>
     </g>
    </g>
    <g id="xtick_13">
     <g id="line2d_64">
      <g>
       <use style="stroke:#000000;stroke-width:0.5;" x="131.644627902" xlink:href="#m177f7580d0" y="359.056342822"/>
      </g>
     </g>
     <g id="line2d_65">
      <g>
       <use style="stroke:#000000;stroke-width:0.5;" x="131.644627902" xlink:href="#m5284c7e2a0" y="13.4563428218"/>
      </g>
     </g>
    </g>
    <g id="xtick_14">
     <g id="line2d_66">
      <g>
       <use style="stroke:#000000;stroke-width:0.5;" x="152.110114063" xlink:href="#m177f7580d0" y="359.056342822"/>
      </g>
     </g>
     <g id="line2d_67">
      <g>
       <use style="stroke:#000000;stroke-width:0.5;" x="152.110114063" xlink:href="#m5284c7e2a0" y="13.4563428218"/>
      </g>
     </g>
    </g>
    <g id="xtick_15">
     <g id="line2d_68">
      <g>
       <use style="stroke:#000000;stroke-width:0.5;" x="167.591656697" xlink:href="#m177f7580d0" y="359.056342822"/>
      </g>
     </g>
     <g id="line2d_69">
      <g>
       <use style="stroke:#000000;stroke-width:0.5;" x="167.591656697" xlink:href="#m5284c7e2a0" y="13.4563428218"/>
      </g>
     </g>
    </g>
    <g id="xtick_16">
     <g id="line2d_70">
      <g>
       <use style="stroke:#000000;stroke-width:0.5;" x="176.647778591" xlink:href="#m177f7580d0" y="359.056342822"/>
      </g>
     </g>
     <g id="line2d_71">
      <g>
       <use style="stroke:#000000;stroke-width:0.5;" x="176.647778591" xlink:href="#m5284c7e2a0" y="13.4563428218"/>
      </g>
     </g>
    </g>
    <g id="xtick_17">
     <g id="line2d_72">
      <g>
       <use style="stroke:#000000;stroke-width:0.5;" x="183.073199331" xlink:href="#m177f7580d0" y="359.056342822"/>
      </g>
     </g>
     <g id="line2d_73">
      <g>
       <use style="stroke:#000000;stroke-width:0.5;" x="183.073199331" xlink:href="#m5284c7e2a0" y="13.4563428218"/>
      </g>
     </g>
    </g>
    <g id="xtick_18">
     <g id="line2d_74">
      <g>
       <use style="stroke:#000000;stroke-width:0.5;" x="203.538685491" xlink:href="#m177f7580d0" y="359.056342822"/>
      </g>
     </g>
     <g id="line2d_75">
      <g>
       <use style="stroke:#000000;stroke-width:0.5;" x="203.538685491" xlink:href="#m5284c7e2a0" y="13.4563428218"/>
      </g>
     </g>
    </g>
    <g id="xtick_19">
     <g id="line2d_76">
      <g>
       <use style="stroke:#000000;stroke-width:0.5;" x="219.020228125" xlink:href="#m177f7580d0" y="359.056342822"/>
      </g>
     </g>
     <g id="line2d_77">
      <g>
       <use style="stroke:#000000;stroke-width:0.5;" x="219.020228125" xlink:href="#m5284c7e2a0" y="13.4563428218"/>
      </g>
     </g>
    </g>
    <g id="xtick_20">
     <g id="line2d_78">
      <g>
       <use style="stroke:#000000;stroke-width:0.5;" x="228.07635002" xlink:href="#m177f7580d0" y="359.056342822"/>
      </g>
     </g>
     <g id="line2d_79">
      <g>
       <use style="stroke:#000000;stroke-width:0.5;" x="228.07635002" xlink:href="#m5284c7e2a0" y="13.4563428218"/>
      </g>
     </g>
    </g>
    <g id="xtick_21">
     <g id="line2d_80">
      <g>
       <use style="stroke:#000000;stroke-width:0.5;" x="234.50177076" xlink:href="#m177f7580d0" y="359.056342822"/>
      </g>
     </g>
     <g id="line2d_81">
      <g>
       <use style="stroke:#000000;stroke-width:0.5;" x="234.50177076" xlink:href="#m5284c7e2a0" y="13.4563428218"/>
      </g>
     </g>
    </g>
    <g id="xtick_22">
     <g id="line2d_82">
      <g>
       <use style="stroke:#000000;stroke-width:0.5;" x="254.96725692" xlink:href="#m177f7580d0" y="359.056342822"/>
      </g>
     </g>
     <g id="line2d_83">
      <g>
       <use style="stroke:#000000;stroke-width:0.5;" x="254.96725692" xlink:href="#m5284c7e2a0" y="13.4563428218"/>
      </g>
     </g>
    </g>
    <g id="xtick_23">
     <g id="line2d_84">
      <g>
       <use style="stroke:#000000;stroke-width:0.5;" x="270.448799554" xlink:href="#m177f7580d0" y="359.056342822"/>
      </g>
     </g>
     <g id="line2d_85">
      <g>
       <use style="stroke:#000000;stroke-width:0.5;" x="270.448799554" xlink:href="#m5284c7e2a0" y="13.4563428218"/>
      </g>
     </g>
    </g>
    <g id="xtick_24">
     <g id="line2d_86">
      <g>
       <use style="stroke:#000000;stroke-width:0.5;" x="279.504921448" xlink:href="#m177f7580d0" y="359.056342822"/>
      </g>
     </g>
     <g id="line2d_87">
      <g>
       <use style="stroke:#000000;stroke-width:0.5;" x="279.504921448" xlink:href="#m5284c7e2a0" y="13.4563428218"/>
      </g>
     </g>
    </g>
    <g id="xtick_25">
     <g id="line2d_88">
      <g>
       <use style="stroke:#000000;stroke-width:0.5;" x="285.930342188" xlink:href="#m177f7580d0" y="359.056342822"/>
      </g>
     </g>
     <g id="line2d_89">
      <g>
       <use style="stroke:#000000;stroke-width:0.5;" x="285.930342188" xlink:href="#m5284c7e2a0" y="13.4563428218"/>
      </g>
     </g>
    </g>
    <g id="xtick_26">
     <g id="line2d_90">
      <g>
       <use style="stroke:#000000;stroke-width:0.5;" x="306.395828348" xlink:href="#m177f7580d0" y="359.056342822"/>
      </g>
     </g>
     <g id="line2d_91">
      <g>
       <use style="stroke:#000000;stroke-width:0.5;" x="306.395828348" xlink:href="#m5284c7e2a0" y="13.4563428218"/>
      </g>
     </g>
    </g>
    <g id="xtick_27">
     <g id="line2d_92">
      <g>
       <use style="stroke:#000000;stroke-width:0.5;" x="321.877370983" xlink:href="#m177f7580d0" y="359.056342822"/>
      </g>
     </g>
     <g id="line2d_93">
      <g>
       <use style="stroke:#000000;stroke-width:0.5;" x="321.877370983" xlink:href="#m5284c7e2a0" y="13.4563428218"/>
      </g>
     </g>
    </g>
    <g id="xtick_28">
     <g id="line2d_94">
      <g>
       <use style="stroke:#000000;stroke-width:0.5;" x="330.933492877" xlink:href="#m177f7580d0" y="359.056342822"/>
      </g>
     </g>
     <g id="line2d_95">
      <g>
       <use style="stroke:#000000;stroke-width:0.5;" x="330.933492877" xlink:href="#m5284c7e2a0" y="13.4563428218"/>
      </g>
     </g>
    </g>
    <g id="xtick_29">
     <g id="line2d_96">
      <g>
       <use style="stroke:#000000;stroke-width:0.5;" x="337.358913617" xlink:href="#m177f7580d0" y="359.056342822"/>
      </g>
     </g>
     <g id="line2d_97">
      <g>
       <use style="stroke:#000000;stroke-width:0.5;" x="337.358913617" xlink:href="#m5284c7e2a0" y="13.4563428218"/>
      </g>
     </g>
    </g>
    <g id="xtick_30">
     <g id="line2d_98">
      <g>
       <use style="stroke:#000000;stroke-width:0.5;" x="357.824399777" xlink:href="#m177f7580d0" y="359.056342822"/>
      </g>
     </g>
     <g id="line2d_99">
      <g>
       <use style="stroke:#000000;stroke-width:0.5;" x="357.824399777" xlink:href="#m5284c7e2a0" y="13.4563428218"/>
      </g>
     </g>
    </g>
    <g id="xtick_31">
     <g id="line2d_100">
      <g>
       <use style="stroke:#000000;stroke-width:0.5;" x="373.305942411" xlink:href="#m177f7580d0" y="359.056342822"/>
      </g>
     </g>
     <g id="line2d_101">
      <g>
       <use style="stroke:#000000;stroke-width:0.5;" x="373.305942411" xlink:href="#m5284c7e2a0" y="13.4563428218"/>
      </g>
     </g>
    </g>
    <g id="xtick_32">
     <g id="line2d_102">
      <g>
       <use style="stroke:#000000;stroke-width:0.5;" x="382.362064305" xlink:href="#m177f7580d0" y="359.056342822"/>
      </g>
     </g>
     <g id="line2d_103">
      <g>
       <use style="stroke:#000000;stroke-width:0.5;" x="382.362064305" xlink:href="#m5284c7e2a0" y="13.4563428218"/>
      </g>
     </g>
    </g>
    <g id="xtick_33">
     <g id="line2d_104">
      <g>
       <use style="stroke:#000000;stroke-width:0.5;" x="388.787485045" xlink:href="#m177f7580d0" y="359.056342822"/>
      </g>
     </g>
     <g id="line2d_105">
      <g>
       <use style="stroke:#000000;stroke-width:0.5;" x="388.787485045" xlink:href="#m5284c7e2a0" y="13.4563428218"/>
      </g>
     </g>
    </g>
    <g id="xtick_34">
     <g id="line2d_106">
      <g>
       <use style="stroke:#000000;stroke-width:0.5;" x="409.252971206" xlink:href="#m177f7580d0" y="359.056342822"/>
      </g>
     </g>
     <g id="line2d_107">
      <g>
       <use style="stroke:#000000;stroke-width:0.5;" x="409.252971206" xlink:href="#m5284c7e2a0" y="13.4563428218"/>
      </g>
     </g>
    </g>
    <g id="xtick_35">
     <g id="line2d_108">
      <g>
       <use style="stroke:#000000;stroke-width:0.5;" x="424.73451384" xlink:href="#m177f7580d0" y="359.056342822"/>
      </g>
     </g>
     <g id="line2d_109">
      <g>
       <use style="stroke:#000000;stroke-width:0.5;" x="424.73451384" xlink:href="#m5284c7e2a0" y="13.4563428218"/>
      </g>
     </g>
    </g>
    <g id="xtick_36">
     <g id="line2d_110">
      <g>
       <use style="stroke:#000000;stroke-width:0.5;" x="433.790635734" xlink:href="#m177f7580d0" y="359.056342822"/>
      </g>
     </g>
     <g id="line2d_111">
      <g>
       <use style="stroke:#000000;stroke-width:0.5;" x="433.790635734" xlink:href="#m5284c7e2a0" y="13.4563428218"/>
      </g>
     </g>
    </g>
    <g id="xtick_37">
     <g id="line2d_112">
      <g>
       <use style="stroke:#000000;stroke-width:0.5;" x="440.216056474" xlink:href="#m177f7580d0" y="359.056342822"/>
      </g>
     </g>
     <g id="line2d_113">
      <g>
       <use style="stroke:#000000;stroke-width:0.5;" x="440.216056474" xlink:href="#m5284c7e2a0" y="13.4563428218"/>
      </g>
     </g>
    </g>
    <g id="xtick_38">
     <g id="line2d_114">
      <g>
       <use style="stroke:#000000;stroke-width:0.5;" x="460.681542634" xlink:href="#m177f7580d0" y="359.056342822"/>
      </g>
     </g>
     <g id="line2d_115">
      <g>
       <use style="stroke:#000000;stroke-width:0.5;" x="460.681542634" xlink:href="#m5284c7e2a0" y="13.4563428218"/>
      </g>
     </g>
    </g>
    <g id="xtick_39">
     <g id="line2d_116">
      <g>
       <use style="stroke:#000000;stroke-width:0.5;" x="476.163085268" xlink:href="#m177f7580d0" y="359.056342822"/>
      </g>
     </g>
     <g id="line2d_117">
      <g>
       <use style="stroke:#000000;stroke-width:0.5;" x="476.163085268" xlink:href="#m5284c7e2a0" y="13.4563428218"/>
      </g>
     </g>
    </g>
    <g id="xtick_40">
     <g id="line2d_118">
      <g>
       <use style="stroke:#000000;stroke-width:0.5;" x="485.219207163" xlink:href="#m177f7580d0" y="359.056342822"/>
      </g>
     </g>
     <g id="line2d_119">
      <g>
       <use style="stroke:#000000;stroke-width:0.5;" x="485.219207163" xlink:href="#m5284c7e2a0" y="13.4563428218"/>
      </g>
     </g>
    </g>
    <g id="xtick_41">
     <g id="line2d_120">
      <g>
       <use style="stroke:#000000;stroke-width:0.5;" x="491.644627902" xlink:href="#m177f7580d0" y="359.056342822"/>
      </g>
     </g>
     <g id="line2d_121">
      <g>
       <use style="stroke:#000000;stroke-width:0.5;" x="491.644627902" xlink:href="#m5284c7e2a0" y="13.4563428218"/>
      </g>
     </g>
    </g>
    <g id="xtick_42">
     <g id="line2d_122">
      <g>
       <use style="stroke:#000000;stroke-width:0.5;" x="512.110114063" xlink:href="#m177f7580d0" y="359.056342822"/>
      </g>
     </g>
     <g id="line2d_123">
      <g>
       <use style="stroke:#000000;stroke-width:0.5;" x="512.110114063" xlink:href="#m5284c7e2a0" y="13.4563428218"/>
      </g>
     </g>
    </g>
    <g id="xtick_43">
     <g id="line2d_124">
      <g>
       <use style="stroke:#000000;stroke-width:0.5;" x="527.591656697" xlink:href="#m177f7580d0" y="359.056342822"/>
      </g>
     </g>
     <g id="line2d_125">
      <g>
       <use style="stroke:#000000;stroke-width:0.5;" x="527.591656697" xlink:href="#m5284c7e2a0" y="13.4563428218"/>
      </g>
     </g>
    </g>
    <g id="text_10">
     <!-- log10 of (# f-evals / dimension) -->
     <defs>
      <path id="BitstreamVeraSans-Roman-20"/>
      <path d="
M51.125 44
L36.9219 44
L32.8125 27.6875
L47.125 27.6875
z

M43.7969 71.7812
L38.7188 51.5156
L52.9844 51.5156
L58.1094 71.7812
L65.9219 71.7812
L60.8906 51.5156
L76.125 51.5156
L76.125 44
L58.9844 44
L54.9844 27.6875
L70.5156 27.6875
L70.5156 20.2188
L53.0781 20.2188
L48 0
L40.1875 0
L45.2188 20.2188
L30.9062 20.2188
L25.875 0
L18.0156 0
L23.0938 20.2188
L7.71875 20.2188
L7.71875 27.6875
L24.9062 27.6875
L29 44
L13.2812 44
L13.2812 51.5156
L30.9062 51.5156
L35.8906 71.7812
z
" id="BitstreamVeraSans-Roman-23"/>
      <path d="
M52 44.1875
Q55.375 50.25 60.0625 53.125
Q64.75 56 71.0938 56
Q79.6406 56 84.2812 50.0156
Q88.9219 44.0469 88.9219 33.0156
L88.9219 0
L79.8906 0
L79.8906 32.7188
Q79.8906 40.5781 77.0938 44.375
Q74.3125 48.1875 68.6094 48.1875
Q61.625 48.1875 57.5625 43.5469
Q53.5156 38.9219 53.5156 30.9062
L53.5156 0
L44.4844 0
L44.4844 32.7188
Q44.4844 40.625 41.7031 44.4062
Q38.9219 48.1875 33.1094 48.1875
Q26.2188 48.1875 22.1562 43.5312
Q18.1094 38.875 18.1094 30.9062
L18.1094 0
L9.07812 0
L9.07812 54.6875
L18.1094 54.6875
L18.1094 46.1875
Q21.1875 51.2188 25.4844 53.6094
Q29.7812 56 35.6875 56
Q41.6562 56 45.8281 52.9688
Q50 49.9531 52 44.1875" id="BitstreamVeraSans-Roman-6d"/>
      <path d="
M54.8906 33.0156
L54.8906 0
L45.9062 0
L45.9062 32.7188
Q45.9062 40.4844 42.875 44.3281
Q39.8438 48.1875 33.7969 48.1875
Q26.5156 48.1875 22.3125 43.5469
Q18.1094 38.9219 18.1094 30.9062
L18.1094 0
L9.07812 0
L9.07812 54.6875
L18.1094 54.6875
L18.1094 46.1875
Q21.3438 51.125 25.7031 53.5625
Q30.0781 56 35.7969 56
Q45.2188 56 50.0469 50.1719
Q54.8906 44.3438 54.8906 33.0156" id="BitstreamVeraSans-Roman-6e"/>
      <path d="
M31 75.875
Q24.4688 64.6562 21.2812 53.6562
Q18.1094 42.6719 18.1094 31.3906
Q18.1094 20.125 21.3125 9.0625
Q24.5156 -2 31 -13.1875
L23.1875 -13.1875
Q15.875 -1.70312 12.2344 9.375
Q8.59375 20.4531 8.59375 31.3906
Q8.59375 42.2812 12.2031 53.3125
Q15.8281 64.3594 23.1875 75.875
z
" id="BitstreamVeraSans-Roman-28"/>
      <path d="
M30.6094 48.3906
Q23.3906 48.3906 19.1875 42.75
Q14.9844 37.1094 14.9844 27.2969
Q14.9844 17.4844 19.1562 11.8438
Q23.3438 6.20312 30.6094 6.20312
Q37.7969 6.20312 41.9844 11.8594
Q46.1875 17.5312 46.1875 27.2969
Q46.1875 37.0156 41.9844 42.7031
Q37.7969 48.3906 30.6094 48.3906
M30.6094 56
Q42.3281 56 49.0156 48.375
Q55.7188 40.7656 55.7188 27.2969
Q55.7188 13.875 49.0156 6.21875
Q42.3281 -1.42188 30.6094 -1.42188
Q18.8438 -1.42188 12.1719 6.21875
Q5.51562 13.875 5.51562 27.2969
Q5.51562 40.7656 12.1719 48.375
Q18.8438 56 30.6094 56" id="BitstreamVeraSans-Roman-6f"/>
      <path d="
M9.42188 75.9844
L18.4062 75.9844
L18.4062 0
L9.42188 0
z
" id="BitstreamVeraSans-Roman-6c"/>
      <path d="
M2.98438 54.6875
L12.5 54.6875
L29.5938 8.79688
L46.6875 54.6875
L56.2031 54.6875
L35.6875 0
L23.4844 0
z
" id="BitstreamVeraSans-Roman-76"/>
      <path d="
M9.42188 54.6875
L18.4062 54.6875
L18.4062 0
L9.42188 0
z

M9.42188 75.9844
L18.4062 75.9844
L18.4062 64.5938
L9.42188 64.5938
z
" id="BitstreamVeraSans-Roman-69"/>
      <path d="
M4.89062 31.3906
L31.2031 31.3906
L31.2031 23.3906
L4.89062 23.3906
z
" id="BitstreamVeraSans-Roman-2d"/>
      <path d="
M25.3906 72.9062
L33.6875 72.9062
L8.29688 -9.28125
L0 -9.28125
z
" id="BitstreamVeraSans-Roman-2f"/>
      <path d="
M56.2031 29.5938
L56.2031 25.2031
L14.8906 25.2031
Q15.4844 15.9219 20.4844 11.0625
Q25.4844 6.20312 34.4219 6.20312
Q39.5938 6.20312 44.4531 7.46875
Q49.3125 8.73438 54.1094 11.2812
L54.1094 2.78125
Q49.2656 0.734375 44.1875 -0.34375
Q39.1094 -1.42188 33.8906 -1.42188
Q20.7969 -1.42188 13.1562 6.1875
Q5.51562 13.8125 5.51562 26.8125
Q5.51562 40.2344 12.7656 48.1094
Q20.0156 56 32.3281 56
Q43.3594 56 49.7812 48.8906
Q56.2031 41.7969 56.2031 29.5938
M47.2188 32.2344
Q47.125 39.5938 43.0938 43.9844
Q39.0625 48.3906 32.4219 48.3906
Q24.9062 48.3906 20.3906 44.1406
Q15.875 39.8906 15.1875 32.1719
z
" id="BitstreamVeraSans-Roman-65"/>
      <path d="
M45.4062 46.3906
L45.4062 75.9844
L54.3906 75.9844
L54.3906 0
L45.4062 0
L45.4062 8.20312
Q42.5781 3.32812 38.25 0.953125
Q33.9375 -1.42188 27.875 -1.42188
Q17.9688 -1.42188 11.7344 6.48438
Q5.51562 14.4062 5.51562 27.2969
Q5.51562 40.1875 11.7344 48.0938
Q17.9688 56 27.875 56
Q33.9375 56 38.25 53.625
Q42.5781 51.2656 45.4062 46.3906
M14.7969 27.2969
Q14.7969 17.3906 18.875 11.75
Q22.9531 6.10938 30.0781 6.10938
Q37.2031 6.10938 41.2969 11.75
Q45.4062 17.3906 45.4062 27.2969
Q45.4062 37.2031 41.2969 42.8438
Q37.2031 48.4844 30.0781 48.4844
Q22.9531 48.4844 18.875 42.8438
Q14.7969 37.2031 14.7969 27.2969" id="BitstreamVeraSans-Roman-64"/>
      <path d="
M45.4062 27.9844
Q45.4062 37.75 41.375 43.1094
Q37.3594 48.4844 30.0781 48.4844
Q22.8594 48.4844 18.8281 43.1094
Q14.7969 37.75 14.7969 27.9844
Q14.7969 18.2656 18.8281 12.8906
Q22.8594 7.51562 30.0781 7.51562
Q37.3594 7.51562 41.375 12.8906
Q45.4062 18.2656 45.4062 27.9844
M54.3906 6.78125
Q54.3906 -7.17188 48.1875 -13.9844
Q42 -20.7969 29.2031 -20.7969
Q24.4688 -20.7969 20.2656 -20.0938
Q16.0625 -19.3906 12.1094 -17.9219
L12.1094 -9.1875
Q16.0625 -11.3281 19.9219 -12.3438
Q23.7812 -13.375 27.7812 -13.375
Q36.625 -13.375 41.0156 -8.76562
Q45.4062 -4.15625 45.4062 5.17188
L45.4062 9.625
Q42.625 4.78125 38.2812 2.39062
Q33.9375 0 27.875 0
Q17.8281 0 11.6719 7.65625
Q5.51562 15.3281 5.51562 27.9844
Q5.51562 40.6719 11.6719 48.3281
Q17.8281 56 27.875 56
Q33.9375 56 38.2812 53.6094
Q42.625 51.2188 45.4062 46.3906
L45.4062 54.6875
L54.3906 54.6875
z
" id="BitstreamVeraSans-Roman-67"/>
      <path d="
M37.1094 75.9844
L37.1094 68.5
L28.5156 68.5
Q23.6875 68.5 21.7969 66.5469
Q19.9219 64.5938 19.9219 59.5156
L19.9219 54.6875
L34.7188 54.6875
L34.7188 47.7031
L19.9219 47.7031
L19.9219 0
L10.8906 0
L10.8906 47.7031
L2.29688 47.7031
L2.29688 54.6875
L10.8906 54.6875
L10.8906 58.5
Q10.8906 67.625 15.1406 71.7969
Q19.3906 75.9844 28.6094 75.9844
z
" id="BitstreamVeraSans-Roman-66"/>
      <path d="
M34.2812 27.4844
Q23.3906 27.4844 19.1875 25
Q14.9844 22.5156 14.9844 16.5
Q14.9844 11.7188 18.1406 8.90625
Q21.2969 6.10938 26.7031 6.10938
Q34.1875 6.10938 38.7031 11.4062
Q43.2188 16.7031 43.2188 25.4844
L43.2188 27.4844
z

M52.2031 31.2031
L52.2031 0
L43.2188 0
L43.2188 8.29688
Q40.1406 3.32812 35.5469 0.953125
Q30.9531 -1.42188 24.3125 -1.42188
Q15.9219 -1.42188 10.9531 3.29688
Q6 8.01562 6 15.9219
Q6 25.1406 12.1719 29.8281
Q18.3594 34.5156 30.6094 34.5156
L43.2188 34.5156
L43.2188 35.4062
Q43.2188 41.6094 39.1406 45
Q35.0625 48.3906 27.6875 48.3906
Q23 48.3906 18.5469 47.2656
Q14.1094 46.1406 10.0156 43.8906
L10.0156 52.2031
Q14.9375 54.1094 19.5781 55.0469
Q24.2188 56 28.6094 56
Q40.4844 56 46.3438 49.8438
Q52.2031 43.7031 52.2031 31.2031" id="BitstreamVeraSans-Roman-61"/>
      <path d="
M44.2812 53.0781
L44.2812 44.5781
Q40.4844 46.5312 36.375 47.5
Q32.2812 48.4844 27.875 48.4844
Q21.1875 48.4844 17.8438 46.4375
Q14.5 44.3906 14.5 40.2812
Q14.5 37.1562 16.8906 35.375
Q19.2812 33.5938 26.5156 31.9844
L29.5938 31.2969
Q39.1562 29.25 43.1875 25.5156
Q47.2188 21.7812 47.2188 15.0938
Q47.2188 7.46875 41.1875 3.01562
Q35.1562 -1.42188 24.6094 -1.42188
Q20.2188 -1.42188 15.4531 -0.5625
Q10.6875 0.296875 5.42188 2
L5.42188 11.2812
Q10.4062 8.6875 15.2344 7.39062
Q20.0625 6.10938 24.8125 6.10938
Q31.1562 6.10938 34.5625 8.28125
Q37.9844 10.4531 37.9844 14.4062
Q37.9844 18.0625 35.5156 20.0156
Q33.0625 21.9688 24.7031 23.7812
L21.5781 24.5156
Q13.2344 26.2656 9.51562 29.9062
Q5.8125 33.5469 5.8125 39.8906
Q5.8125 47.6094 11.2812 51.7969
Q16.75 56 26.8125 56
Q31.7812 56 36.1719 55.2656
Q40.5781 54.5469 44.2812 53.0781" id="BitstreamVeraSans-Roman-73"/>
      <path d="
M8.01562 75.875
L15.8281 75.875
Q23.1406 64.3594 26.7812 53.3125
Q30.4219 42.2812 30.4219 31.3906
Q30.4219 20.4531 26.7812 9.375
Q23.1406 -1.70312 15.8281 -13.1875
L8.01562 -13.1875
Q14.5 -2 17.7031 9.0625
Q20.9062 20.125 20.9062 31.3906
Q20.9062 42.6719 17.7031 53.6562
Q14.5 64.6562 8.01562 75.875" id="BitstreamVeraSans-Roman-29"/>
     </defs>
     <g transform="translate(167.3165625 401.089780322)scale(0.18 -0.18)">
      <use xlink:href="#BitstreamVeraSans-Roman-6c"/>
      <use x="27.783203125" xlink:href="#BitstreamVeraSans-Roman-6f"/>
      <use x="88.96484375" xlink:href="#BitstreamVeraSans-Roman-67"/>
      <use x="152.44140625" xlink:href="#BitstreamVeraSans-Roman-31"/>
      <use x="216.064453125" xlink:href="#BitstreamVeraSans-Roman-30"/>
      <use x="279.6875" xlink:href="#BitstreamVeraSans-Roman-20"/>
      <use x="311.474609375" xlink:href="#BitstreamVeraSans-Roman-6f"/>
      <use x="372.65625" xlink:href="#BitstreamVeraSans-Roman-66"/>
      <use x="407.861328125" xlink:href="#BitstreamVeraSans-Roman-20"/>
      <use x="439.6484375" xlink:href="#BitstreamVeraSans-Roman-28"/>
      <use x="478.662109375" xlink:href="#BitstreamVeraSans-Roman-23"/>
      <use x="562.451171875" xlink:href="#BitstreamVeraSans-Roman-20"/>
      <use x="594.23828125" xlink:href="#BitstreamVeraSans-Roman-66"/>
      <use x="623.943359375" xlink:href="#BitstreamVeraSans-Roman-2d"/>
      <use x="660.02734375" xlink:href="#BitstreamVeraSans-Roman-65"/>
      <use x="721.55078125" xlink:href="#BitstreamVeraSans-Roman-76"/>
      <use x="780.73046875" xlink:href="#BitstreamVeraSans-Roman-61"/>
      <use x="842.009765625" xlink:href="#BitstreamVeraSans-Roman-6c"/>
      <use x="869.79296875" xlink:href="#BitstreamVeraSans-Roman-73"/>
      <use x="921.892578125" xlink:href="#BitstreamVeraSans-Roman-20"/>
      <use x="953.6796875" xlink:href="#BitstreamVeraSans-Roman-2f"/>
      <use x="987.37109375" xlink:href="#BitstreamVeraSans-Roman-20"/>
      <use x="1019.15820312" xlink:href="#BitstreamVeraSans-Roman-64"/>
      <use x="1082.63476562" xlink:href="#BitstreamVeraSans-Roman-69"/>
      <use x="1110.41796875" xlink:href="#BitstreamVeraSans-Roman-6d"/>
      <use x="1207.83007812" xlink:href="#BitstreamVeraSans-Roman-65"/>
      <use x="1269.35351562" xlink:href="#BitstreamVeraSans-Roman-6e"/>
      <use x="1332.73242188" xlink:href="#BitstreamVeraSans-Roman-73"/>
      <use x="1384.83203125" xlink:href="#BitstreamVeraSans-Roman-69"/>
      <use x="1412.61523438" xlink:href="#BitstreamVeraSans-Roman-6f"/>
      <use x="1473.796875" xlink:href="#BitstreamVeraSans-Roman-6e"/>
      <use x="1537.17578125" xlink:href="#BitstreamVeraSans-Roman-29"/>
     </g>
    </g>
   </g>
   <g id="matplotlib.axis_2">
    <g id="ytick_1">
     <g id="line2d_126">
      <path clip-path="url(#p54ce849065)" d="
M85.2 359.056
L531.6 359.056" style="fill:none;stroke:#000000;stroke-dasharray:1.000000,3.000000;stroke-dashoffset:0.0;stroke-width:0.5;"/>
     </g>
     <g id="line2d_127">
      <defs>
       <path d="
M0 0
L4 0" id="m728421d6d4" style="stroke:#000000;stroke-width:0.5;"/>
      </defs>
      <g>
       <use style="stroke:#000000;stroke-width:0.5;" x="85.2" xlink:href="#m728421d6d4" y="359.056342822"/>
      </g>
     </g>
     <g id="line2d_128">
      <defs>
       <path d="
M0 0
L-4 0" id="mcb0005524f" style="stroke:#000000;stroke-width:0.5;"/>
      </defs>
      <g>
       <use style="stroke:#000000;stroke-width:0.5;" x="531.6" xlink:href="#mcb0005524f" y="359.056342822"/>
      </g>
     </g>
     <g id="text_11">
      <!-- 0.0 -->
      <defs>
       <path d="
M10.6875 12.4062
L21 12.4062
L21 0
L10.6875 0
z
" id="BitstreamVeraSans-Roman-2e"/>
      </defs>
      <g transform="translate(52.040625 364.575092822)scale(0.2 -0.2)">
       <use xlink:href="#BitstreamVeraSans-Roman-30"/>
       <use x="63.623046875" xlink:href="#BitstreamVeraSans-Roman-2e"/>
       <use x="95.41015625" xlink:href="#BitstreamVeraSans-Roman-30"/>
      </g>
     </g>
    </g>
    <g id="ytick_2">
     <g id="line2d_129">
      <path clip-path="url(#p54ce849065)" d="
M85.2 290.621
L531.6 290.621" style="fill:none;stroke:#000000;stroke-dasharray:1.000000,3.000000;stroke-dashoffset:0.0;stroke-width:0.5;"/>
     </g>
     <g id="line2d_130">
      <g>
       <use style="stroke:#000000;stroke-width:0.5;" x="85.2" xlink:href="#m728421d6d4" y="290.620699257"/>
      </g>
     </g>
     <g id="line2d_131">
      <g>
       <use style="stroke:#000000;stroke-width:0.5;" x="531.6" xlink:href="#mcb0005524f" y="290.620699257"/>
      </g>
     </g>
     <g id="text_12">
      <!-- 0.2 -->
      <g transform="translate(52.715625 296.139449257)scale(0.2 -0.2)">
       <use xlink:href="#BitstreamVeraSans-Roman-30"/>
       <use x="63.623046875" xlink:href="#BitstreamVeraSans-Roman-2e"/>
       <use x="95.41015625" xlink:href="#BitstreamVeraSans-Roman-32"/>
      </g>
     </g>
    </g>
    <g id="ytick_3">
     <g id="line2d_132">
      <path clip-path="url(#p54ce849065)" d="
M85.2 222.185
L531.6 222.185" style="fill:none;stroke:#000000;stroke-dasharray:1.000000,3.000000;stroke-dashoffset:0.0;stroke-width:0.5;"/>
     </g>
     <g id="line2d_133">
      <g>
       <use style="stroke:#000000;stroke-width:0.5;" x="85.2" xlink:href="#m728421d6d4" y="222.185055693"/>
      </g>
     </g>
     <g id="line2d_134">
      <g>
       <use style="stroke:#000000;stroke-width:0.5;" x="531.6" xlink:href="#mcb0005524f" y="222.185055693"/>
      </g>
     </g>
     <g id="text_13">
      <!-- 0.4 -->
      <g transform="translate(51.834375 227.703805693)scale(0.2 -0.2)">
       <use xlink:href="#BitstreamVeraSans-Roman-30"/>
       <use x="63.623046875" xlink:href="#BitstreamVeraSans-Roman-2e"/>
       <use x="95.41015625" xlink:href="#BitstreamVeraSans-Roman-34"/>
      </g>
     </g>
    </g>
    <g id="ytick_4">
     <g id="line2d_135">
      <path clip-path="url(#p54ce849065)" d="
M85.2 153.749
L531.6 153.749" style="fill:none;stroke:#000000;stroke-dasharray:1.000000,3.000000;stroke-dashoffset:0.0;stroke-width:0.5;"/>
     </g>
     <g id="line2d_136">
      <g>
       <use style="stroke:#000000;stroke-width:0.5;" x="85.2" xlink:href="#m728421d6d4" y="153.749412129"/>
      </g>
     </g>
     <g id="line2d_137">
      <g>
       <use style="stroke:#000000;stroke-width:0.5;" x="531.6" xlink:href="#mcb0005524f" y="153.749412129"/>
      </g>
     </g>
     <g id="text_14">
      <!-- 0.6 -->
      <g transform="translate(51.971875 159.268162129)scale(0.2 -0.2)">
       <use xlink:href="#BitstreamVeraSans-Roman-30"/>
       <use x="63.623046875" xlink:href="#BitstreamVeraSans-Roman-2e"/>
       <use x="95.41015625" xlink:href="#BitstreamVeraSans-Roman-36"/>
      </g>
     </g>
    </g>
    <g id="ytick_5">
     <g id="line2d_138">
      <path clip-path="url(#p54ce849065)" d="
M85.2 85.3138
L531.6 85.3138" style="fill:none;stroke:#000000;stroke-dasharray:1.000000,3.000000;stroke-dashoffset:0.0;stroke-width:0.5;"/>
     </g>
     <g id="line2d_139">
      <g>
       <use style="stroke:#000000;stroke-width:0.5;" x="85.2" xlink:href="#m728421d6d4" y="85.3137685644"/>
      </g>
     </g>
     <g id="line2d_140">
      <g>
       <use style="stroke:#000000;stroke-width:0.5;" x="531.6" xlink:href="#mcb0005524f" y="85.3137685644"/>
      </g>
     </g>
     <g id="text_15">
      <!-- 0.8 -->
      <g transform="translate(52.08125 90.8325185644)scale(0.2 -0.2)">
       <use xlink:href="#BitstreamVeraSans-Roman-30"/>
       <use x="63.623046875" xlink:href="#BitstreamVeraSans-Roman-2e"/>
       <use x="95.41015625" xlink:href="#BitstreamVeraSans-Roman-38"/>
      </g>
     </g>
    </g>
    <g id="ytick_6">
     <g id="line2d_141">
      <path clip-path="url(#p54ce849065)" d="
M85.2 16.8781
L531.6 16.8781" style="fill:none;stroke:#000000;stroke-dasharray:1.000000,3.000000;stroke-dashoffset:0.0;stroke-width:0.5;"/>
     </g>
     <g id="line2d_142">
      <g>
       <use style="stroke:#000000;stroke-width:0.5;" x="85.2" xlink:href="#m728421d6d4" y="16.878125"/>
      </g>
     </g>
     <g id="line2d_143">
      <g>
       <use style="stroke:#000000;stroke-width:0.5;" x="531.6" xlink:href="#mcb0005524f" y="16.878125"/>
      </g>
     </g>
     <g id="text_16">
      <!-- 1.0 -->
      <g transform="translate(52.91875 22.396875)scale(0.2 -0.2)">
       <use xlink:href="#BitstreamVeraSans-Roman-31"/>
       <use x="63.623046875" xlink:href="#BitstreamVeraSans-Roman-2e"/>
       <use x="95.41015625" xlink:href="#BitstreamVeraSans-Roman-30"/>
      </g>
     </g>
    </g>
    <g id="text_17">
     <!-- Proportion of function+target pairs -->
     <defs>
      <path d="
M19.6719 64.7969
L19.6719 37.4062
L32.0781 37.4062
Q38.9688 37.4062 42.7188 40.9688
Q46.4844 44.5312 46.4844 51.125
Q46.4844 57.6719 42.7188 61.2344
Q38.9688 64.7969 32.0781 64.7969
z

M9.8125 72.9062
L32.0781 72.9062
Q44.3438 72.9062 50.6094 67.3594
Q56.8906 61.8125 56.8906 51.125
Q56.8906 40.3281 50.6094 34.8125
Q44.3438 29.2969 32.0781 29.2969
L19.6719 29.2969
L19.6719 0
L9.8125 0
z
" id="BitstreamVeraSans-Roman-50"/>
      <path d="
M46 62.7031
L46 35.5
L73.1875 35.5
L73.1875 27.2031
L46 27.2031
L46 0
L37.7969 0
L37.7969 27.2031
L10.5938 27.2031
L10.5938 35.5
L37.7969 35.5
L37.7969 62.7031
z
" id="BitstreamVeraSans-Roman-2b"/>
      <path d="
M18.1094 8.20312
L18.1094 -20.7969
L9.07812 -20.7969
L9.07812 54.6875
L18.1094 54.6875
L18.1094 46.3906
Q20.9531 51.2656 25.2656 53.625
Q29.5938 56 35.5938 56
Q45.5625 56 51.7812 48.0938
Q58.0156 40.1875 58.0156 27.2969
Q58.0156 14.4062 51.7812 6.48438
Q45.5625 -1.42188 35.5938 -1.42188
Q29.5938 -1.42188 25.2656 0.953125
Q20.9531 3.32812 18.1094 8.20312
M48.6875 27.2969
Q48.6875 37.2031 44.6094 42.8438
Q40.5312 48.4844 33.4062 48.4844
Q26.2656 48.4844 22.1875 42.8438
Q18.1094 37.2031 18.1094 27.2969
Q18.1094 17.3906 22.1875 11.75
Q26.2656 6.10938 33.4062 6.10938
Q40.5312 6.10938 44.6094 11.75
Q48.6875 17.3906 48.6875 27.2969" id="BitstreamVeraSans-Roman-70"/>
      <path d="
M18.3125 70.2188
L18.3125 54.6875
L36.8125 54.6875
L36.8125 47.7031
L18.3125 47.7031
L18.3125 18.0156
Q18.3125 11.3281 20.1406 9.42188
Q21.9688 7.51562 27.5938 7.51562
L36.8125 7.51562
L36.8125 0
L27.5938 0
Q17.1875 0 13.2344 3.875
Q9.28125 7.76562 9.28125 18.0156
L9.28125 47.7031
L2.6875 47.7031
L2.6875 54.6875
L9.28125 54.6875
L9.28125 70.2188
z
" id="BitstreamVeraSans-Roman-74"/>
      <path d="
M8.5 21.5781
L8.5 54.6875
L17.4844 54.6875
L17.4844 21.9219
Q17.4844 14.1562 20.5 10.2656
Q23.5312 6.39062 29.5938 6.39062
Q36.8594 6.39062 41.0781 11.0312
Q45.3125 15.6719 45.3125 23.6875
L45.3125 54.6875
L54.2969 54.6875
L54.2969 0
L45.3125 0
L45.3125 8.40625
Q42.0469 3.42188 37.7188 1
Q33.4062 -1.42188 27.6875 -1.42188
Q18.2656 -1.42188 13.375 4.4375
Q8.5 10.2969 8.5 21.5781" id="BitstreamVeraSans-Roman-75"/>
      <path d="
M41.1094 46.2969
Q39.5938 47.1719 37.8125 47.5781
Q36.0312 48 33.8906 48
Q26.2656 48 22.1875 43.0469
Q18.1094 38.0938 18.1094 28.8125
L18.1094 0
L9.07812 0
L9.07812 54.6875
L18.1094 54.6875
L18.1094 46.1875
Q20.9531 51.1719 25.4844 53.5781
Q30.0312 56 36.5312 56
Q37.4531 56 38.5781 55.875
Q39.7031 55.7656 41.0625 55.5156
z
" id="BitstreamVeraSans-Roman-72"/>
      <path d="
M48.7812 52.5938
L48.7812 44.1875
Q44.9688 46.2969 41.1406 47.3438
Q37.3125 48.3906 33.4062 48.3906
Q24.6562 48.3906 19.8125 42.8438
Q14.9844 37.3125 14.9844 27.2969
Q14.9844 17.2812 19.8125 11.7344
Q24.6562 6.20312 33.4062 6.20312
Q37.3125 6.20312 41.1406 7.25
Q44.9688 8.29688 48.7812 10.4062
L48.7812 2.09375
Q45.0156 0.34375 40.9844 -0.53125
Q36.9688 -1.42188 32.4219 -1.42188
Q20.0625 -1.42188 12.7812 6.34375
Q5.51562 14.1094 5.51562 27.2969
Q5.51562 40.6719 12.8594 48.3281
Q20.2188 56 33.0156 56
Q37.1562 56 41.1094 55.1406
Q45.0625 54.2969 48.7812 52.5938" id="BitstreamVeraSans-Roman-63"/>
     </defs>
     <g transform="translate(43.0909375 343.295092822)rotate(-90.0)scale(0.18 -0.18)">
      <use xlink:href="#BitstreamVeraSans-Roman-50"/>
      <use x="58.552734375" xlink:href="#BitstreamVeraSans-Roman-72"/>
      <use x="97.416015625" xlink:href="#BitstreamVeraSans-Roman-6f"/>
      <use x="158.59765625" xlink:href="#BitstreamVeraSans-Roman-70"/>
      <use x="222.07421875" xlink:href="#BitstreamVeraSans-Roman-6f"/>
      <use x="283.255859375" xlink:href="#BitstreamVeraSans-Roman-72"/>
      <use x="324.369140625" xlink:href="#BitstreamVeraSans-Roman-74"/>
      <use x="363.578125" xlink:href="#BitstreamVeraSans-Roman-69"/>
      <use x="391.361328125" xlink:href="#BitstreamVeraSans-Roman-6f"/>
      <use x="452.54296875" xlink:href="#BitstreamVeraSans-Roman-6e"/>
      <use x="515.921875" xlink:href="#BitstreamVeraSans-Roman-20"/>
      <use x="547.708984375" xlink:href="#BitstreamVeraSans-Roman-6f"/>
      <use x="608.890625" xlink:href="#BitstreamVeraSans-Roman-66"/>
      <use x="644.095703125" xlink:href="#BitstreamVeraSans-Roman-20"/>
      <use x="675.8828125" xlink:href="#BitstreamVeraSans-Roman-66"/>
      <use x="711.087890625" xlink:href="#BitstreamVeraSans-Roman-75"/>
      <use x="774.466796875" xlink:href="#BitstreamVeraSans-Roman-6e"/>
      <use x="837.845703125" xlink:href="#BitstreamVeraSans-Roman-63"/>
      <use x="892.826171875" xlink:href="#BitstreamVeraSans-Roman-74"/>
      <use x="932.03515625" xlink:href="#BitstreamVeraSans-Roman-69"/>
      <use x="959.818359375" xlink:href="#BitstreamVeraSans-Roman-6f"/>
      <use x="1021.0" xlink:href="#BitstreamVeraSans-Roman-6e"/>
      <use x="1084.37890625" xlink:href="#BitstreamVeraSans-Roman-2b"/>
      <use x="1168.16796875" xlink:href="#BitstreamVeraSans-Roman-74"/>
      <use x="1207.37695312" xlink:href="#BitstreamVeraSans-Roman-61"/>
      <use x="1268.65625" xlink:href="#BitstreamVeraSans-Roman-72"/>
      <use x="1308.01953125" xlink:href="#BitstreamVeraSans-Roman-67"/>
      <use x="1371.49609375" xlink:href="#BitstreamVeraSans-Roman-65"/>
      <use x="1433.01953125" xlink:href="#BitstreamVeraSans-Roman-74"/>
      <use x="1472.22851562" xlink:href="#BitstreamVeraSans-Roman-20"/>
      <use x="1504.015625" xlink:href="#BitstreamVeraSans-Roman-70"/>
      <use x="1567.4921875" xlink:href="#BitstreamVeraSans-Roman-61"/>
      <use x="1628.77148438" xlink:href="#BitstreamVeraSans-Roman-69"/>
      <use x="1656.5546875" xlink:href="#BitstreamVeraSans-Roman-72"/>
      <use x="1697.66796875" xlink:href="#BitstreamVeraSans-Roman-73"/>
     </g>
    </g>
   </g>
   <g id="patch_3">
    <path d="
M85.2 13.4563
L531.6 13.4563" style="fill:none;stroke:#000000;"/>
   </g>
   <g id="patch_4">
    <path d="
M531.6 359.056
L531.6 13.4563" style="fill:none;stroke:#000000;"/>
   </g>
   <g id="patch_5">
    <path d="
M85.2 359.056
L531.6 359.056" style="fill:none;stroke:#000000;"/>
   </g>
   <g id="patch_6">
    <path d="
M85.2 359.056
L85.2 13.4563" style="fill:none;stroke:#000000;"/>
   </g>
   <g id="text_18">
    <!-- f24 -->
    <g transform="translate(492.0 356.351840965)scale(0.15 -0.15)">
     <use xlink:href="#BitstreamVeraSans-Roman-66"/>
     <use x="35.205078125" xlink:href="#BitstreamVeraSans-Roman-32"/>
     <use x="98.828125" xlink:href="#BitstreamVeraSans-Roman-34"/>
    </g>
   </g>
   <g id="text_19">
    <!-- f20 -->
    <g transform="translate(492.0 274.229068688)scale(0.15 -0.15)">
     <use xlink:href="#BitstreamVeraSans-Roman-66"/>
     <use x="35.205078125" xlink:href="#BitstreamVeraSans-Roman-32"/>
     <use x="98.828125" xlink:href="#BitstreamVeraSans-Roman-30"/>
    </g>
   </g>
   <g id="text_20">
    <!-- f23 -->
    <g transform="translate(492.0 192.106296411)scale(0.15 -0.15)">
     <use xlink:href="#BitstreamVeraSans-Roman-66"/>
     <use x="35.205078125" xlink:href="#BitstreamVeraSans-Roman-32"/>
     <use x="98.828125" xlink:href="#BitstreamVeraSans-Roman-33"/>
    </g>
   </g>
   <g id="text_21">
    <!-- f22 -->
    <g transform="translate(492.0 109.983524134)scale(0.15 -0.15)">
     <use xlink:href="#BitstreamVeraSans-Roman-66"/>
     <use x="35.205078125" xlink:href="#BitstreamVeraSans-Roman-32"/>
     <use x="98.828125" xlink:href="#BitstreamVeraSans-Roman-32"/>
    </g>
   </g>
   <g id="text_22">
    <!-- f21 -->
    <g transform="translate(492.0 27.8607518564)scale(0.15 -0.15)">
     <use xlink:href="#BitstreamVeraSans-Roman-66"/>
     <use x="35.205078125" xlink:href="#BitstreamVeraSans-Roman-32"/>
     <use x="98.828125" xlink:href="#BitstreamVeraSans-Roman-31"/>
    </g>
   </g>
   <g id="text_23">
    <!-- bbob -->
    <defs>
     <path d="
M48.6875 27.2969
Q48.6875 37.2031 44.6094 42.8438
Q40.5312 48.4844 33.4062 48.4844
Q26.2656 48.4844 22.1875 42.8438
Q18.1094 37.2031 18.1094 27.2969
Q18.1094 17.3906 22.1875 11.75
Q26.2656 6.10938 33.4062 6.10938
Q40.5312 6.10938 44.6094 11.75
Q48.6875 17.3906 48.6875 27.2969
M18.1094 46.3906
Q20.9531 51.2656 25.2656 53.625
Q29.5938 56 35.5938 56
Q45.5625 56 51.7812 48.0938
Q58.0156 40.1875 58.0156 27.2969
Q58.0156 14.4062 51.7812 6.48438
Q45.5625 -1.42188 35.5938 -1.42188
Q29.5938 -1.42188 25.2656 0.953125
Q20.9531 3.32812 18.1094 8.20312
L18.1094 0
L9.07812 0
L9.07812 75.9844
L18.1094 75.9844
z
" id="BitstreamVeraSans-Roman-62"/>
    </defs>
    <g transform="translate(89.664 33.0273396968)scale(0.1666 -0.1666)">
     <use xlink:href="#BitstreamVeraSans-Roman-62"/>
     <use x="63.4765625" xlink:href="#BitstreamVeraSans-Roman-62"/>
     <use x="126.953125" xlink:href="#BitstreamVeraSans-Roman-6f"/>
     <use x="188.134765625" xlink:href="#BitstreamVeraSans-Roman-62"/>
    </g>
    <!-- Weak structure functions, 2-D -->
    <defs>
     <path d="
M19.6719 64.7969
L19.6719 8.10938
L31.5938 8.10938
Q46.6875 8.10938 53.6875 14.9375
Q60.6875 21.7812 60.6875 36.5312
Q60.6875 51.1719 53.6875 57.9844
Q46.6875 64.7969 31.5938 64.7969
z

M9.8125 72.9062
L30.0781 72.9062
Q51.2656 72.9062 61.1719 64.0938
Q71.0938 55.2812 71.0938 36.5312
Q71.0938 17.6719 61.125 8.82812
Q51.1719 0 30.0781 0
L9.8125 0
z
" id="BitstreamVeraSans-Roman-44"/>
     <path d="
M11.7188 12.4062
L22.0156 12.4062
L22.0156 4
L14.0156 -11.625
L7.71875 -11.625
L11.7188 4
z
" id="BitstreamVeraSans-Roman-2c"/>
     <path d="
M9.07812 75.9844
L18.1094 75.9844
L18.1094 31.1094
L44.9219 54.6875
L56.3906 54.6875
L27.3906 29.1094
L57.625 0
L45.9062 0
L18.1094 26.7031
L18.1094 0
L9.07812 0
z
" id="BitstreamVeraSans-Roman-6b"/>
     <path d="
M3.32812 72.9062
L13.2812 72.9062
L28.6094 11.2812
L43.8906 72.9062
L54.9844 72.9062
L70.3125 11.2812
L85.5938 72.9062
L95.6094 72.9062
L77.2969 0
L64.8906 0
L49.5156 63.2812
L33.9844 0
L21.5781 0
z
" id="BitstreamVeraSans-Roman-57"/>
    </defs>
    <g transform="translate(89.664 51.6828953218)scale(0.1666 -0.1666)">
     <use xlink:href="#BitstreamVeraSans-Roman-57"/>
     <use x="93.001953125" xlink:href="#BitstreamVeraSans-Roman-65"/>
     <use x="154.525390625" xlink:href="#BitstreamVeraSans-Roman-61"/>
     <use x="215.8046875" xlink:href="#BitstreamVeraSans-Roman-6b"/>
     <use x="273.71484375" xlink:href="#BitstreamVeraSans-Roman-20"/>
     <use x="305.501953125" xlink:href="#BitstreamVeraSans-Roman-73"/>
     <use x="357.6015625" xlink:href="#BitstreamVeraSans-Roman-74"/>
     <use x="396.810546875" xlink:href="#BitstreamVeraSans-Roman-72"/>
     <use x="437.923828125" xlink:href="#BitstreamVeraSans-Roman-75"/>
     <use x="501.302734375" xlink:href="#BitstreamVeraSans-Roman-63"/>
     <use x="556.283203125" xlink:href="#BitstreamVeraSans-Roman-74"/>
     <use x="595.4921875" xlink:href="#BitstreamVeraSans-Roman-75"/>
     <use x="658.87109375" xlink:href="#BitstreamVeraSans-Roman-72"/>
     <use x="697.734375" xlink:href="#BitstreamVeraSans-Roman-65"/>
     <use x="759.2578125" xlink:href="#BitstreamVeraSans-Roman-20"/>
     <use x="791.044921875" xlink:href="#BitstreamVeraSans-Roman-66"/>
     <use x="826.25" xlink:href="#BitstreamVeraSans-Roman-75"/>
     <use x="889.62890625" xlink:href="#BitstreamVeraSans-Roman-6e"/>
     <use x="953.0078125" xlink:href="#BitstreamVeraSans-Roman-63"/>
     <use x="1007.98828125" xlink:href="#BitstreamVeraSans-Roman-74"/>
     <use x="1047.19726562" xlink:href="#BitstreamVeraSans-Roman-69"/>
     <use x="1074.98046875" xlink:href="#BitstreamVeraSans-Roman-6f"/>
     <use x="1136.16210938" xlink:href="#BitstreamVeraSans-Roman-6e"/>
     <use x="1199.54101562" xlink:href="#BitstreamVeraSans-Roman-73"/>
     <use x="1251.640625" xlink:href="#BitstreamVeraSans-Roman-2c"/>
     <use x="1283.42773438" xlink:href="#BitstreamVeraSans-Roman-20"/>
     <use x="1315.21484375" xlink:href="#BitstreamVeraSans-Roman-32"/>
     <use x="1378.83789062" xlink:href="#BitstreamVeraSans-Roman-2d"/>
     <use x="1414.921875" xlink:href="#BitstreamVeraSans-Roman-44"/>
    </g>
    <!-- 51 targets in 100..1e-08 -->
    <g transform="translate(89.664 70.3384509468)scale(0.1666 -0.1666)">
     <use xlink:href="#BitstreamVeraSans-Roman-35"/>
     <use x="63.623046875" xlink:href="#BitstreamVeraSans-Roman-31"/>
     <use x="127.24609375" xlink:href="#BitstreamVeraSans-Roman-20"/>
     <use x="159.033203125" xlink:href="#BitstreamVeraSans-Roman-74"/>
     <use x="198.2421875" xlink:href="#BitstreamVeraSans-Roman-61"/>
     <use x="259.521484375" xlink:href="#BitstreamVeraSans-Roman-72"/>
     <use x="298.884765625" xlink:href="#BitstreamVeraSans-Roman-67"/>
     <use x="362.361328125" xlink:href="#BitstreamVeraSans-Roman-65"/>
     <use x="423.884765625" xlink:href="#BitstreamVeraSans-Roman-74"/>
     <use x="463.09375" xlink:href="#BitstreamVeraSans-Roman-73"/>
     <use x="515.193359375" xlink:href="#BitstreamVeraSans-Roman-20"/>
     <use x="546.98046875" xlink:href="#BitstreamVeraSans-Roman-69"/>
     <use x="574.763671875" xlink:href="#BitstreamVeraSans-Roman-6e"/>
     <use x="638.142578125" xlink:href="#BitstreamVeraSans-Roman-20"/>
     <use x="669.9296875" xlink:href="#BitstreamVeraSans-Roman-31"/>
     <use x="733.552734375" xlink:href="#BitstreamVeraSans-Roman-30"/>
     <use x="797.17578125" xlink:href="#BitstreamVeraSans-Roman-30"/>
     <use x="860.798828125" xlink:href="#BitstreamVeraSans-Roman-2e"/>
     <use x="892.5859375" xlink:href="#BitstreamVeraSans-Roman-2e"/>
     <use x="924.373046875" xlink:href="#BitstreamVeraSans-Roman-31"/>
     <use x="987.99609375" xlink:href="#BitstreamVeraSans-Roman-65"/>
     <use x="1049.51953125" xlink:href="#BitstreamVeraSans-Roman-2d"/>
     <use x="1085.60351562" xlink:href="#BitstreamVeraSans-Roman-30"/>
     <use x="1149.2265625" xlink:href="#BitstreamVeraSans-Roman-38"/>
    </g>
    <!-- 15 instances -->
    <g transform="translate(89.664 88.9940065718)scale(0.1666 -0.1666)">
     <use xlink:href="#BitstreamVeraSans-Roman-31"/>
     <use x="63.623046875" xlink:href="#BitstreamVeraSans-Roman-35"/>
     <use x="127.24609375" xlink:href="#BitstreamVeraSans-Roman-20"/>
     <use x="159.033203125" xlink:href="#BitstreamVeraSans-Roman-69"/>
     <use x="186.81640625" xlink:href="#BitstreamVeraSans-Roman-6e"/>
     <use x="250.1953125" xlink:href="#BitstreamVeraSans-Roman-73"/>
     <use x="302.294921875" xlink:href="#BitstreamVeraSans-Roman-74"/>
     <use x="341.50390625" xlink:href="#BitstreamVeraSans-Roman-61"/>
     <use x="402.783203125" xlink:href="#BitstreamVeraSans-Roman-6e"/>
     <use x="466.162109375" xlink:href="#BitstreamVeraSans-Roman-63"/>
     <use x="521.142578125" xlink:href="#BitstreamVeraSans-Roman-65"/>
     <use x="582.666015625" xlink:href="#BitstreamVeraSans-Roman-73"/>
    </g>
   </g>
   <g id="text_24">
    <!-- 0.0.0 -->
    <g style="fill:#808080;" transform="translate(296.33984375 353.520655322)scale(0.1 -0.1)">
     <use xlink:href="#BitstreamVeraSans-Roman-30"/>
     <use x="63.623046875" xlink:href="#BitstreamVeraSans-Roman-2e"/>
     <use x="95.41015625" xlink:href="#BitstreamVeraSans-Roman-30"/>
     <use x="159.033203125" xlink:href="#BitstreamVeraSans-Roman-2e"/>
     <use x="190.8203125" xlink:href="#BitstreamVeraSans-Roman-30"/>
    </g>
   </g>
  </g>
 </g>
 <defs>
  <clipPath id="p54ce849065">
   <rect height="345.6" width="446.4" x="85.2" y="13.4563428218"/>
  </clipPath>
 </defs>
</svg>
