<?xml version="1.0" encoding="utf-8" standalone="no"?>
<!DOCTYPE svg PUBLIC "-//W3C//DTD SVG 1.1//EN"
  "http://www.w3.org/Graphics/SVG/1.1/DTD/svg11.dtd">
<!-- Created with matplotlib (http://matplotlib.org/) -->
<svg height="432pt" version="1.1" viewBox="0 0 573 432" width="573pt" xmlns="http://www.w3.org/2000/svg" xmlns:xlink="http://www.w3.org/1999/xlink">
 <defs>
  <style type="text/css">
*{stroke-linecap:butt;stroke-linejoin:round;}
  </style>
 </defs>
 <g id="figure_1">
  <g id="patch_1">
   <path d="
M0 432.436
L573.534 432.436
L573.534 0
L0 0
z
" style="fill:#ffffff;"/>
  </g>
  <g id="axes_1">
   <g id="patch_2">
    <path d="
M85.2 376.036
L531.6 376.036
L531.6 30.4362
L85.2 30.4362
z
" style="fill:#ffffff;"/>
   </g>
   <g id="line2d_1">
    <path d="
M118.544 376.036
L118.544 375.365
L128.662 375.365
L128.662 374.023
L132.999 374.023
L132.999 373.352
L138.656 373.352
L138.656 372.682
L140.04 372.682
L140.04 371.34
L142.998 371.34
L142.998 369.998
L145.981 369.998
L145.981 369.327
L147.678 369.327
L147.678 367.985
L148.348 367.985
L148.348 366.643
L150.004 366.643
L150.004 364.63
L150.964 364.63
L150.964 363.959
L151.716 363.959
L151.716 363.288
L153.725 363.288
L153.725 362.617
L154.541 362.617
L154.541 360.605
L154.741 360.605
L154.741 359.934
L157.449 359.934
L157.449 359.263
L158.48 359.263
L158.48 358.592
L158.772 358.592
L158.772 356.579
L161.971 356.579
L161.971 355.908
L162.988 355.908
L162.988 354.566
L164.417 354.566
L164.417 353.895
L168.521 353.895
L168.521 352.553
L169.897 352.553
L169.897 351.882
L172.124 351.882
L172.193 350.541
L172.531 350.541
L172.531 349.87
L174.48 349.87
L174.48 348.528
L174.704 348.528
L174.704 347.857
L177.984 347.857
L177.984 347.186
L179.753 347.186
L179.753 346.515
L182.536 346.515
L182.536 345.844
L183.406 345.844
L183.406 344.502
L184.454 344.502
L184.454 343.16
L184.857 343.16
L184.857 341.147
L185.329 341.147
L185.329 340.477
L185.555 340.477
L185.555 339.806
L186.073 339.806
L186.073 339.135
L187.674 339.135
L187.742 337.793
L188.001 337.793
L188.001 337.122
L188.313 337.122
L188.313 336.451
L189.083 336.451
L189.083 335.78
L190.033 335.78
L190.094 334.438
L190.993 334.438
L191.101 331.754
L191.188 331.754
L191.188 331.083
L191.372 331.083
L191.372 329.742
L191.98 329.742
L192.064 327.058
L192.148 327.058
L192.148 326.387
L192.342 326.387
L192.444 323.703
L192.499 323.703
L192.499 323.032
L192.744 323.032
L192.853 319.677
L192.862 319.677
L192.907 317.665
L192.996 317.665
L193.095 316.323
L193.139 316.323
L193.21 312.297
L193.457 312.297
L193.562 308.942
L193.684 308.942
L193.684 308.272
L193.796 308.272
L193.9 305.588
L193.926 305.588
L193.969 302.233
L194.088 302.233
L194.122 298.207
L194.25 298.207
L194.25 296.866
L194.427 296.866
L194.527 294.853
L194.594 294.853
L194.594 293.511
L194.768 293.511
L194.867 285.46
L194.908 285.46
L195.015 280.092
L195.031 280.092
L195.129 276.067
L195.162 276.067
L195.259 272.041
L195.283 272.041
L195.372 268.686
L195.444 268.686
L195.548 263.99
L195.612 263.99
L195.7 255.938
L195.755 255.938
L195.795 253.255
L195.881 253.255
L195.968 245.874
L196.054 245.874
L196.163 241.178
L196.225 241.178
L196.318 237.152
L196.341 237.152
L196.448 233.127
L196.464 233.127
L196.563 225.746
L196.586 225.746
L196.692 221.05
L196.723 221.05
L196.821 218.366
L196.844 218.366
L196.949 211.657
L196.956 211.657
L197.061 205.618
L197.083 205.618
L197.188 202.263
L197.247 202.263
L197.336 196.225
L197.38 196.225
L197.468 191.528
L197.504 191.528
L197.614 176.768
L197.621 176.768
L197.708 171.4
L197.737 171.4
L197.846 164.02
L197.867 164.02
L197.953 158.652
L197.982 158.652
L198.089 153.956
L198.16 153.956
L198.196 151.943
L198.309 151.943
L198.344 150.601
L198.52 150.601
L198.576 147.247
L198.687 147.247
L198.77 145.234
L198.825 145.234
L198.825 143.892
L199.038 143.892
L199.038 142.55
L199.228 142.55
L199.228 140.537
L199.357 140.537
L199.424 135.841
L199.491 135.841
L199.498 134.499
L199.651 134.499
L199.651 133.828
L199.797 133.828
L199.797 131.815
L200.033 131.815
L200.046 128.46
L200.28 128.46
L200.37 127.118
L200.441 127.118
L200.441 126.447
L200.575 126.447
L200.575 125.776
L201.148 125.776
L201.148 125.106
L201.26 125.106
L201.284 122.422
L201.579 122.422
L201.579 121.751
L202.014 121.751
L202.014 120.409
L202.322 120.409
L202.322 119.738
L202.516 119.738
L202.563 118.396
L202.945 118.396
L202.945 117.725
L203.116 117.725
L203.15 116.383
L203.269 116.383
L203.269 115.712
L203.393 115.712
L203.393 115.041
L203.533 115.041
L203.533 113.7
L203.816 113.7
L203.866 112.358
L203.932 112.358
L204.041 109.674
L204.074 109.674
L204.085 108.332
L212.291 108.332
L212.291 106.99
L212.758 106.99
L212.758 106.319
L212.997 106.319
L212.997 105.648
L213.381 105.648
L213.381 104.977
L213.503 104.977
L213.503 104.306
L213.653 104.306
L213.709 102.965
L213.766 102.965
L213.766 102.294
L213.914 102.294
L213.966 100.952
L214.144 100.952
L214.255 98.939
L214.352 98.939
L214.455 97.5971
L214.489 97.5971
L214.574 96.2552
L214.642 96.2552
L214.707 94.2424
L214.801 94.2424
L214.909 90.8877
L214.919 90.8877
L215.019 88.204
L215.049 88.204
L215.126 82.8365
L215.179 82.8365
L215.249 79.4818
L215.292 79.4818
L215.357 76.798
L215.433 76.798
L215.528 73.4434
L215.619 73.4434
L215.619 72.7724
L215.846 72.7724
L215.858 70.7596
L215.98 70.7596
L216.082 69.4177
L216.389 69.4177
L216.389 68.7468
L216.521 68.7468
L216.599 66.734
L216.689 66.734
L216.689 66.063
L216.862 66.063
L216.935 64.7212
L216.996 64.7212
L217.024 62.7084
L217.146 62.7084
L217.222 61.3665
L217.36 61.3665
L217.36 60.6955
L217.495 60.6955
L217.564 58.0118
L217.609 58.0118
L217.609 57.3409
L217.763 57.3409
L217.839 53.9862
L223.162 53.9862
L223.208 52.6443
L223.303 52.6443
L223.409 50.6315
L223.441 50.6315
L223.441 49.9605
L223.594 49.9605
L223.669 48.6187
L223.732 48.6187
L223.791 47.2768
L223.899 47.2768
L223.964 45.9349
L224.055 45.9349
L224.111 43.2512
L224.2 43.2512
L224.282 41.2383
L224.389 41.2383
L224.495 34.529
L224.577 34.529
L224.577 33.858
L445.2 33.858
L445.2 33.858" style="fill:none;stroke:#f5deb3;stroke-linecap:square;stroke-width:6;"/>
   </g>
   <g id="line2d_2"/>
   <g id="line2d_3">
    <path d="
M445.2 33.858
L484.8 40.7016" style="fill:none;stroke:#f5deb3;stroke-linecap:square;stroke-width:6;"/>
    <defs>
     <path d="
M-6.10623e-16 7.77817
L7.77817 0
L1.16573e-15 -7.77817
L-7.77817 -1.77636e-15
z
" id="m2c936259e7" style="stroke:#f5deb3;stroke-linejoin:miter;stroke-width:1.5;"/>
    </defs>
    <g>
     <use style="fill:#f5deb3;stroke:#f5deb3;stroke-linejoin:miter;stroke-width:1.5;" x="445.2" xlink:href="#m2c936259e7" y="33.8580321782"/>
     <use style="fill:#f5deb3;stroke:#f5deb3;stroke-linejoin:miter;stroke-width:1.5;" x="484.8" xlink:href="#m2c936259e7" y="40.7015965347"/>
    </g>
   </g>
   <g id="line2d_4">
    <defs>
     <path d="
M0 1.5
C0.397805 1.5 0.77937 1.34195 1.06066 1.06066
C1.34195 0.77937 1.5 0.397805 1.5 0
C1.5 -0.397805 1.34195 -0.77937 1.06066 -1.06066
C0.77937 -1.34195 0.397805 -1.5 0 -1.5
C-0.397805 -1.5 -0.77937 -1.34195 -1.06066 -1.06066
C-1.34195 -0.77937 -1.5 -0.397805 -1.5 0
C-1.5 0.397805 -1.34195 0.77937 -1.06066 1.06066
C-0.77937 1.34195 -0.397805 1.5 0 1.5
z
" id="m68ae1779e3" style="stroke:#f5deb3;stroke-width:0.5;"/>
    </defs>
    <g>
     <use style="fill:#f5deb3;stroke:#f5deb3;stroke-width:0.5;" x="224.577464491" xlink:href="#m68ae1779e3" y="33.8580321782"/>
     <use style="fill:#f5deb3;stroke:#f5deb3;stroke-width:0.5;" x="224.577464491" xlink:href="#m68ae1779e3" y="33.8580321782"/>
    </g>
   </g>
   <g id="line2d_5">
    <g>
     <use style="fill:#f5deb3;stroke:#f5deb3;stroke-linejoin:miter;stroke-width:1.5;" x="174.704366888" xlink:href="#m2c936259e7" y="348.527805038"/>
     <use style="fill:#f5deb3;stroke:#f5deb3;stroke-linejoin:miter;stroke-width:1.5;" x="199.356795901" xlink:href="#m2c936259e7" y="139.195248253"/>
     <use style="fill:#f5deb3;stroke:#f5deb3;stroke-linejoin:miter;stroke-width:1.5;" x="224.577464491" xlink:href="#m2c936259e7" y="34.5289698602"/>
     <use style="fill:#f5deb3;stroke:#f5deb3;stroke-linejoin:miter;stroke-width:1.5;" x="224.577464491" xlink:href="#m2c936259e7" y="33.8580321782"/>
     <use style="fill:#f5deb3;stroke:#f5deb3;stroke-linejoin:miter;stroke-width:1.5;" x="445.2" xlink:href="#m2c936259e7" y="33.8580321782"/>
    </g>
   </g>
   <g id="line2d_6">
    <defs>
     <path d="
M0 1.5
C0.397805 1.5 0.77937 1.34195 1.06066 1.06066
C1.34195 0.77937 1.5 0.397805 1.5 0
C1.5 -0.397805 1.34195 -0.77937 1.06066 -1.06066
C0.77937 -1.34195 0.397805 -1.5 0 -1.5
C-0.397805 -1.5 -0.77937 -1.34195 -1.06066 -1.06066
C-1.34195 -0.77937 -1.5 -0.397805 -1.5 0
C-1.5 0.397805 -1.34195 0.77937 -1.06066 1.06066
C-0.77937 1.34195 -0.397805 1.5 0 1.5
z
" id="ma8fc8663ec" style="stroke:#000080;stroke-width:0.5;"/>
    </defs>
    <g>
     <use style="fill:#000080;stroke:#000080;stroke-width:0.5;" x="318.418972005" xlink:href="#ma8fc8663ec" y="33.8580321782"/>
     <use style="fill:#000080;stroke:#000080;stroke-width:0.5;" x="318.418972005" xlink:href="#ma8fc8663ec" y="33.8580321782"/>
    </g>
   </g>
   <g id="line2d_7">
    <path d="
M164.417 376.036
L164.417 374.694
L164.8 374.694
L164.8 374.023
L166.269 374.023
L166.269 373.352
L166.969 373.352
L166.969 372.682
L167.675 372.682
L167.675 372.011
L168.007 372.011
L168.007 371.34
L168.252 371.34
L168.252 370.669
L168.946 370.669
L168.946 369.998
L172.17 369.998
L172.17 369.327
L172.974 369.327
L172.974 368.656
L173.105 368.656
L173.105 367.985
L174.439 367.985
L174.439 367.314
L174.927 367.314
L174.927 366.643
L175.286 366.643
L175.286 365.301
L175.91 365.301
L175.91 364.63
L176.235 364.63
L176.235 363.959
L176.704 363.959
L176.704 363.288
L177.362 363.288
L177.362 362.617
L177.613 362.617
L177.613 361.947
L178.726 361.947
L178.726 360.605
L179.345 360.605
L179.345 359.934
L180.455 359.934
L180.455 358.592
L180.982 358.592
L181.028 357.25
L184.545 357.25
L184.584 355.237
L189.961 355.237
L189.961 354.566
L194.393 354.566
L194.393 353.895
L196.232 353.895
L196.232 352.553
L198.666 352.553
L198.666 351.882
L199.411 351.882
L199.411 351.212
L202.881 351.212
L202.881 349.87
L204.697 349.87
L204.697 347.186
L212.52 347.186
L212.52 345.844
L217.489 345.844
L217.489 343.831
L218.406 343.831
L218.406 341.818
L219.842 341.818
L219.842 341.147
L220.842 341.147
L220.842 339.806
L223.292 339.806
L223.292 339.135
L223.901 339.135
L223.901 338.464
L224.374 338.464
L224.374 337.793
L226.443 337.793
L226.443 337.122
L226.704 337.122
L226.704 336.451
L227.903 336.451
L227.903 335.78
L229.07 335.78
L229.07 335.109
L229.495 335.109
L229.495 334.438
L229.737 334.438
L229.785 333.096
L230.345 333.096
L230.345 331.754
L230.647 331.754
L230.691 329.742
L231.17 329.742
L231.201 327.729
L231.511 327.729
L231.54 326.387
L231.825 326.387
L231.893 324.374
L232.055 324.374
L232.055 323.703
L232.335 323.703
L232.335 321.69
L232.521 321.69
L232.521 319.677
L232.67 319.677
L232.67 318.336
L232.93 318.336
L232.93 317.665
L233.127 317.665
L233.204 314.31
L233.259 314.31
L233.259 313.639
L233.409 313.639
L233.409 312.968
L233.629 312.968
L233.632 311.626
L233.826 311.626
L233.826 310.955
L233.981 310.955
L233.981 310.284
L234.273 310.284
L234.336 308.942
L234.412 308.942
L234.475 306.93
L234.623 306.93
L234.623 306.259
L234.892 306.259
L234.892 305.588
L235.004 305.588
L235.03 303.575
L235.359 303.575
L235.359 302.904
L235.504 302.904
L235.504 302.233
L235.641 302.233
L235.641 301.562
L236.558 301.562
L236.558 300.891
L236.825 300.891
L236.887 298.878
L237.302 298.878
L237.409 297.537
L237.57 297.537
L237.57 296.866
L237.789 296.866
L237.789 295.524
L238.111 295.524
L238.111 294.853
L238.89 294.853
L238.89 294.182
L239.112 294.182
L239.112 293.511
L239.412 293.511
L239.51 292.169
L239.918 292.169
L239.918 290.156
L240.225 290.156
L240.225 289.485
L240.338 289.485
L240.338 288.814
L240.517 288.814
L240.618 287.472
L240.675 287.472
L240.675 286.802
L240.832 286.802
L240.935 283.447
L241.13 283.447
L241.13 282.105
L241.393 282.105
L241.447 280.092
L242.741 280.092
L242.794 277.408
L243.355 277.408
L243.355 275.396
L243.745 275.396
L243.808 274.054
L244.305 274.054
L244.305 273.383
L244.701 273.383
L244.701 272.712
L244.863 272.712
L244.863 272.041
L245.17 272.041
L245.17 271.37
L245.353 271.37
L245.353 270.028
L246.282 270.028
L246.373 268.015
L246.763 268.015
L246.802 266.673
L246.897 266.673
L246.897 266.002
L247.104 266.002
L247.104 264.661
L247.37 264.661
L247.37 263.99
L247.507 263.99
L247.507 263.319
L247.626 263.319
L247.655 261.977
L248.122 261.977
L248.122 260.635
L248.416 260.635
L248.416 258.622
L248.566 258.622
L248.566 257.951
L248.681 257.951
L248.681 257.28
L248.794 257.28
L248.794 256.609
L248.906 256.609
L248.906 255.938
L249.255 255.938
L249.35 253.255
L249.484 253.255
L249.484 252.584
L249.662 252.584
L249.662 251.242
L249.845 251.242
L249.949 249.9
L250.033 249.9
L250.033 249.229
L250.182 249.229
L250.186 246.545
L250.473 246.545
L250.571 244.532
L250.632 244.532
L250.632 243.862
L250.769 243.862
L250.875 241.849
L251.101 241.849
L251.101 239.836
L251.326 239.836
L251.343 236.481
L251.53 236.481
L251.575 233.797
L251.79 233.797
L251.79 232.456
L252.099 232.456
L252.143 231.114
L252.264 231.114
L252.289 229.772
L252.415 229.772
L252.415 229.101
L252.616 229.101
L252.616 228.43
L252.804 228.43
L252.837 227.088
L253.136 227.088
L253.243 222.392
L253.312 222.392
L253.354 221.05
L253.569 221.05
L253.569 220.379
L253.953 220.379
L253.993 217.695
L254.121 217.695
L254.132 216.353
L254.317 216.353
L254.317 215.682
L254.616 215.682
L254.616 214.34
L254.774 214.34
L254.861 212.327
L254.918 212.327
L254.918 211.657
L255.168 211.657
L255.168 210.986
L255.428 210.986
L255.428 208.302
L255.558 208.302
L255.562 206.289
L255.745 206.289
L255.847 204.947
L255.862 204.947
L255.97 201.592
L256.007 201.592
L256.08 198.909
L256.178 198.909
L256.226 196.896
L256.46 196.896
L256.46 194.883
L256.681 194.883
L256.756 193.541
L256.928 193.541
L256.943 192.199
L257.18 192.199
L257.288 189.516
L257.725 189.516
L257.807 186.161
L258.29 186.161
L258.29 185.49
L258.448 185.49
L258.448 184.819
L258.596 184.819
L258.609 182.806
L258.76 182.806
L258.853 181.464
L258.908 181.464
L259.006 178.781
L259.036 178.781
L259.078 177.439
L259.177 177.439
L259.286 175.426
L259.455 175.426
L259.562 173.413
L259.573 173.413
L259.67 172.071
L259.826 172.071
L259.914 169.387
L259.972 169.387
L259.972 168.046
L260.263 168.046
L260.361 164.02
L260.475 164.02
L260.51 162.678
L260.599 162.678
L260.601 160.665
L260.723 160.665
L260.812 157.982
L261.069 157.982
L261.154 155.969
L261.2 155.969
L261.206 154.627
L261.494 154.627
L261.572 151.272
L261.724 151.272
L261.807 147.917
L261.848 147.917
L261.944 143.221
L262.184 143.221
L262.278 139.195
L262.399 139.195
L262.399 137.853
L262.624 137.853
L262.712 133.157
L262.777 133.157
L262.812 131.815
L262.922 131.815
L262.965 130.473
L263.059 130.473
L263.136 126.447
L263.238 126.447
L263.238 125.776
L263.411 125.776
L263.447 123.764
L263.588 123.764
L263.65 121.08
L263.847 121.08
L263.847 120.409
L263.964 120.409
L263.964 119.738
L264.079 119.738
L264.105 117.725
L264.215 117.725
L264.215 116.383
L264.347 116.383
L264.347 115.712
L264.461 115.712
L264.461 114.371
L264.838 114.371
L264.838 113.7
L264.954 113.7
L265.004 111.016
L265.124 111.016
L265.182 109.003
L265.24 109.003
L265.35 106.99
L265.397 106.99
L265.495 102.965
L265.546 102.965
L265.557 100.952
L265.723 100.952
L265.812 98.939
L265.929 98.939
L266.037 95.5843
L266.272 95.5843
L266.35 93.5715
L266.425 93.5715
L266.471 91.5587
L266.617 91.5587
L266.722 88.204
L266.744 88.204
L266.817 86.1912
L266.972 86.1912
L266.972 84.8493
L267.175 84.8493
L267.266 81.4946
L267.343 81.4946
L267.343 80.8237
L267.558 80.8237
L267.558 80.1527
L267.716 80.1527
L267.77 78.8109
L267.846 78.8109
L267.914 76.1271
L267.958 76.1271
L267.958 75.4562
L268.104 75.4562
L268.104 74.7852
L268.221 74.7852
L268.323 72.1015
L268.423 72.1015
L268.518 67.4049
L268.646 67.4049
L268.646 66.063
L268.946 66.063
L268.949 64.0502
L269.245 64.0502
L269.311 61.3665
L269.564 61.3665
L269.564 60.0246
L269.716 60.0246
L269.725 58.0118
L269.998 58.0118
L269.998 57.3409
L270.353 57.3409
L270.353 56.6699
L316.896 56.6699
L316.99 54.6571
L317.063 54.6571
L317.112 52.6443
L317.192 52.6443
L317.3 47.2768
L317.371 47.2768
L317.371 45.9349
L317.488 45.9349
L317.598 43.9221
L317.641 43.9221
L317.69 42.5802
L317.912 42.5802
L317.999 39.2255
L318.064 39.2255
L318.142 37.8837
L318.189 37.8837
L318.298 35.1999
L318.379 35.1999
L318.419 33.858
L445.2 33.858
L445.2 33.858" style="fill:none;stroke:#000080;stroke-linecap:square;stroke-width:1.5;"/>
   </g>
   <g id="line2d_8">
    <defs>
     <path d="
M0 6
C1.59122 6 3.11748 5.3678 4.24264 4.24264
C5.3678 3.11748 6 1.59122 6 0
C6 -1.59122 5.3678 -3.11748 4.24264 -4.24264
C3.11748 -5.3678 1.59122 -6 0 -6
C-1.59122 -6 -3.11748 -5.3678 -4.24264 -4.24264
C-5.3678 -3.11748 -6 -1.59122 -6 0
C-6 1.59122 -5.3678 3.11748 -4.24264 4.24264
C-3.11748 5.3678 -1.59122 6 0 6
z
" id="mae466deef1" style="stroke:#000080;stroke-width:1.5;"/>
    </defs>
    <g>
     <use style="fill:none;stroke:#000080;stroke-width:1.5;" x="252.836870898" xlink:href="#mae466deef1" y="227.759022277"/>
     <use style="fill:none;stroke:#000080;stroke-width:1.5;" x="265.929037049" xlink:href="#mae466deef1" y="98.9389873326"/>
     <use style="fill:none;stroke:#000080;stroke-width:1.5;" x="318.418972005" xlink:href="#mae466deef1" y="33.8580321782"/>
     <use style="fill:none;stroke:#000080;stroke-width:1.5;" x="318.418972005" xlink:href="#mae466deef1" y="33.8580321782"/>
     <use style="fill:none;stroke:#000080;stroke-width:1.5;" x="445.2" xlink:href="#mae466deef1" y="33.8580321782"/>
    </g>
   </g>
   <g id="line2d_9"/>
   <g id="line2d_10">
    <path d="
M445.2 33.858
L484.8 369.193" style="fill:none;stroke:#000080;stroke-linecap:square;stroke-width:1.5;"/>
    <g>
     <use style="fill:none;stroke:#000080;stroke-width:1.5;" x="445.2" xlink:href="#mae466deef1" y="33.8580321782"/>
     <use style="fill:none;stroke:#000080;stroke-width:1.5;" x="484.8" xlink:href="#mae466deef1" y="369.192685644"/>
    </g>
   </g>
   <g id="line2d_11">
    <path d="
M445.2 376.036
L445.2 33.858" style="fill:none;stroke:#000000;stroke-linecap:square;"/>
   </g>
   <g id="matplotlib.axis_1">
    <g id="xtick_1">
     <g id="line2d_12">
      <path clip-path="url(#p6ea69091fa)" d="
M85.2 376.036
L85.2 30.4362" style="fill:none;stroke:#000000;stroke-dasharray:1.000000,3.000000;stroke-dashoffset:0.0;stroke-width:0.5;"/>
     </g>
     <g id="line2d_13">
      <defs>
       <path d="
M0 0
L0 -4" id="m93b0483c22" style="stroke:#000000;stroke-width:0.5;"/>
      </defs>
      <g>
       <use style="stroke:#000000;stroke-width:0.5;" x="85.2" xlink:href="#m93b0483c22" y="376.03625"/>
      </g>
     </g>
     <g id="line2d_14">
      <defs>
       <path d="
M0 0
L0 4" id="m741efc42ff" style="stroke:#000000;stroke-width:0.5;"/>
      </defs>
      <g>
       <use style="stroke:#000000;stroke-width:0.5;" x="85.2" xlink:href="#m741efc42ff" y="30.43625"/>
      </g>
     </g>
     <g id="text_1">
      <!-- 0 -->
      <defs>
       <path d="
M31.7812 66.4062
Q24.1719 66.4062 20.3281 58.9062
Q16.5 51.4219 16.5 36.375
Q16.5 21.3906 20.3281 13.8906
Q24.1719 6.39062 31.7812 6.39062
Q39.4531 6.39062 43.2812 13.8906
Q47.125 21.3906 47.125 36.375
Q47.125 51.4219 43.2812 58.9062
Q39.4531 66.4062 31.7812 66.4062
M31.7812 74.2188
Q44.0469 74.2188 50.5156 64.5156
Q56.9844 54.8281 56.9844 36.375
Q56.9844 17.9688 50.5156 8.26562
Q44.0469 -1.42188 31.7812 -1.42188
Q19.5312 -1.42188 13.0625 8.26562
Q6.59375 17.9688 6.59375 36.375
Q6.59375 54.8281 13.0625 64.5156
Q19.5312 74.2188 31.7812 74.2188" id="BitstreamVeraSans-Roman-30"/>
      </defs>
      <g transform="translate(80.1609375 395.233125)scale(0.2 -0.2)">
       <use xlink:href="#BitstreamVeraSans-Roman-30"/>
      </g>
     </g>
    </g>
    <g id="xtick_2">
     <g id="line2d_15">
      <path clip-path="url(#p6ea69091fa)" d="
M136.629 376.036
L136.629 30.4362" style="fill:none;stroke:#000000;stroke-dasharray:1.000000,3.000000;stroke-dashoffset:0.0;stroke-width:0.5;"/>
     </g>
     <g id="line2d_16">
      <g>
       <use style="stroke:#000000;stroke-width:0.5;" x="136.628571429" xlink:href="#m93b0483c22" y="376.03625"/>
      </g>
     </g>
     <g id="line2d_17">
      <g>
       <use style="stroke:#000000;stroke-width:0.5;" x="136.628571429" xlink:href="#m741efc42ff" y="30.43625"/>
      </g>
     </g>
     <g id="text_2">
      <!-- 1 -->
      <defs>
       <path d="
M12.4062 8.29688
L28.5156 8.29688
L28.5156 63.9219
L10.9844 60.4062
L10.9844 69.3906
L28.4219 72.9062
L38.2812 72.9062
L38.2812 8.29688
L54.3906 8.29688
L54.3906 0
L12.4062 0
z
" id="BitstreamVeraSans-Roman-31"/>
      </defs>
      <g transform="translate(132.287946429 395.233125)scale(0.2 -0.2)">
       <use xlink:href="#BitstreamVeraSans-Roman-31"/>
      </g>
     </g>
    </g>
    <g id="xtick_3">
     <g id="line2d_18">
      <path clip-path="url(#p6ea69091fa)" d="
M188.057 376.036
L188.057 30.4362" style="fill:none;stroke:#000000;stroke-dasharray:1.000000,3.000000;stroke-dashoffset:0.0;stroke-width:0.5;"/>
     </g>
     <g id="line2d_19">
      <g>
       <use style="stroke:#000000;stroke-width:0.5;" x="188.057142857" xlink:href="#m93b0483c22" y="376.03625"/>
      </g>
     </g>
     <g id="line2d_20">
      <g>
       <use style="stroke:#000000;stroke-width:0.5;" x="188.057142857" xlink:href="#m741efc42ff" y="30.43625"/>
      </g>
     </g>
     <g id="text_3">
      <!-- 2 -->
      <defs>
       <path d="
M19.1875 8.29688
L53.6094 8.29688
L53.6094 0
L7.32812 0
L7.32812 8.29688
Q12.9375 14.1094 22.625 23.8906
Q32.3281 33.6875 34.8125 36.5312
Q39.5469 41.8438 41.4219 45.5312
Q43.3125 49.2188 43.3125 52.7812
Q43.3125 58.5938 39.2344 62.25
Q35.1562 65.9219 28.6094 65.9219
Q23.9688 65.9219 18.8125 64.3125
Q13.6719 62.7031 7.8125 59.4219
L7.8125 69.3906
Q13.7656 71.7812 18.9375 73
Q24.125 74.2188 28.4219 74.2188
Q39.75 74.2188 46.4844 68.5469
Q53.2188 62.8906 53.2188 53.4219
Q53.2188 48.9219 51.5312 44.8906
Q49.8594 40.875 45.4062 35.4062
Q44.1875 33.9844 37.6406 27.2188
Q31.1094 20.4531 19.1875 8.29688" id="BitstreamVeraSans-Roman-32"/>
      </defs>
      <g transform="translate(183.429017857 395.233125)scale(0.2 -0.2)">
       <use xlink:href="#BitstreamVeraSans-Roman-32"/>
      </g>
     </g>
    </g>
    <g id="xtick_4">
     <g id="line2d_21">
      <path clip-path="url(#p6ea69091fa)" d="
M239.486 376.036
L239.486 30.4362" style="fill:none;stroke:#000000;stroke-dasharray:1.000000,3.000000;stroke-dashoffset:0.0;stroke-width:0.5;"/>
     </g>
     <g id="line2d_22">
      <g>
       <use style="stroke:#000000;stroke-width:0.5;" x="239.485714286" xlink:href="#m93b0483c22" y="376.03625"/>
      </g>
     </g>
     <g id="line2d_23">
      <g>
       <use style="stroke:#000000;stroke-width:0.5;" x="239.485714286" xlink:href="#m741efc42ff" y="30.43625"/>
      </g>
     </g>
     <g id="text_4">
      <!-- 3 -->
      <defs>
       <path d="
M40.5781 39.3125
Q47.6562 37.7969 51.625 33
Q55.6094 28.2188 55.6094 21.1875
Q55.6094 10.4062 48.1875 4.48438
Q40.7656 -1.42188 27.0938 -1.42188
Q22.5156 -1.42188 17.6562 -0.515625
Q12.7969 0.390625 7.625 2.20312
L7.625 11.7188
Q11.7188 9.32812 16.5938 8.10938
Q21.4844 6.89062 26.8125 6.89062
Q36.0781 6.89062 40.9375 10.5469
Q45.7969 14.2031 45.7969 21.1875
Q45.7969 27.6406 41.2812 31.2656
Q36.7656 34.9062 28.7188 34.9062
L20.2188 34.9062
L20.2188 43.0156
L29.1094 43.0156
Q36.375 43.0156 40.2344 45.9219
Q44.0938 48.8281 44.0938 54.2969
Q44.0938 59.9062 40.1094 62.9062
Q36.1406 65.9219 28.7188 65.9219
Q24.6562 65.9219 20.0156 65.0312
Q15.375 64.1562 9.8125 62.3125
L9.8125 71.0938
Q15.4375 72.6562 20.3438 73.4375
Q25.25 74.2188 29.5938 74.2188
Q40.8281 74.2188 47.3594 69.1094
Q53.9062 64.0156 53.9062 55.3281
Q53.9062 49.2656 50.4375 45.0938
Q46.9688 40.9219 40.5781 39.3125" id="BitstreamVeraSans-Roman-33"/>
      </defs>
      <g transform="translate(234.687276786 395.233125)scale(0.2 -0.2)">
       <use xlink:href="#BitstreamVeraSans-Roman-33"/>
      </g>
     </g>
    </g>
    <g id="xtick_5">
     <g id="line2d_24">
      <path clip-path="url(#p6ea69091fa)" d="
M290.914 376.036
L290.914 30.4362" style="fill:none;stroke:#000000;stroke-dasharray:1.000000,3.000000;stroke-dashoffset:0.0;stroke-width:0.5;"/>
     </g>
     <g id="line2d_25">
      <g>
       <use style="stroke:#000000;stroke-width:0.5;" x="290.914285714" xlink:href="#m93b0483c22" y="376.03625"/>
      </g>
     </g>
     <g id="line2d_26">
      <g>
       <use style="stroke:#000000;stroke-width:0.5;" x="290.914285714" xlink:href="#m741efc42ff" y="30.43625"/>
      </g>
     </g>
     <g id="text_5">
      <!-- 4 -->
      <defs>
       <path d="
M37.7969 64.3125
L12.8906 25.3906
L37.7969 25.3906
z

M35.2031 72.9062
L47.6094 72.9062
L47.6094 25.3906
L58.0156 25.3906
L58.0156 17.1875
L47.6094 17.1875
L47.6094 0
L37.7969 0
L37.7969 17.1875
L4.89062 17.1875
L4.89062 26.7031
z
" id="BitstreamVeraSans-Roman-34"/>
      </defs>
      <g transform="translate(285.601785714 395.233125)scale(0.2 -0.2)">
       <use xlink:href="#BitstreamVeraSans-Roman-34"/>
      </g>
     </g>
    </g>
    <g id="xtick_6">
     <g id="line2d_27">
      <path clip-path="url(#p6ea69091fa)" d="
M342.343 376.036
L342.343 30.4362" style="fill:none;stroke:#000000;stroke-dasharray:1.000000,3.000000;stroke-dashoffset:0.0;stroke-width:0.5;"/>
     </g>
     <g id="line2d_28">
      <g>
       <use style="stroke:#000000;stroke-width:0.5;" x="342.342857143" xlink:href="#m93b0483c22" y="376.03625"/>
      </g>
     </g>
     <g id="line2d_29">
      <g>
       <use style="stroke:#000000;stroke-width:0.5;" x="342.342857143" xlink:href="#m741efc42ff" y="30.43625"/>
      </g>
     </g>
     <g id="text_6">
      <!-- 5 -->
      <defs>
       <path d="
M10.7969 72.9062
L49.5156 72.9062
L49.5156 64.5938
L19.8281 64.5938
L19.8281 46.7344
Q21.9688 47.4688 24.1094 47.8281
Q26.2656 48.1875 28.4219 48.1875
Q40.625 48.1875 47.75 41.5
Q54.8906 34.8125 54.8906 23.3906
Q54.8906 11.625 47.5625 5.09375
Q40.2344 -1.42188 26.9062 -1.42188
Q22.3125 -1.42188 17.5469 -0.640625
Q12.7969 0.140625 7.71875 1.70312
L7.71875 11.625
Q12.1094 9.23438 16.7969 8.0625
Q21.4844 6.89062 26.7031 6.89062
Q35.1562 6.89062 40.0781 11.3281
Q45.0156 15.7656 45.0156 23.3906
Q45.0156 31 40.0781 35.4375
Q35.1562 39.8906 26.7031 39.8906
Q22.75 39.8906 18.8125 39.0156
Q14.8906 38.1406 10.7969 36.2812
z
" id="BitstreamVeraSans-Roman-35"/>
      </defs>
      <g transform="translate(337.625669643 395.233125)scale(0.2 -0.2)">
       <use xlink:href="#BitstreamVeraSans-Roman-35"/>
      </g>
     </g>
    </g>
    <g id="xtick_7">
     <g id="line2d_30">
      <path clip-path="url(#p6ea69091fa)" d="
M393.771 376.036
L393.771 30.4362" style="fill:none;stroke:#000000;stroke-dasharray:1.000000,3.000000;stroke-dashoffset:0.0;stroke-width:0.5;"/>
     </g>
     <g id="line2d_31">
      <g>
       <use style="stroke:#000000;stroke-width:0.5;" x="393.771428571" xlink:href="#m93b0483c22" y="376.03625"/>
      </g>
     </g>
     <g id="line2d_32">
      <g>
       <use style="stroke:#000000;stroke-width:0.5;" x="393.771428571" xlink:href="#m741efc42ff" y="30.43625"/>
      </g>
     </g>
     <g id="text_7">
      <!-- 6 -->
      <defs>
       <path d="
M33.0156 40.375
Q26.375 40.375 22.4844 35.8281
Q18.6094 31.2969 18.6094 23.3906
Q18.6094 15.5312 22.4844 10.9531
Q26.375 6.39062 33.0156 6.39062
Q39.6562 6.39062 43.5312 10.9531
Q47.4062 15.5312 47.4062 23.3906
Q47.4062 31.2969 43.5312 35.8281
Q39.6562 40.375 33.0156 40.375
M52.5938 71.2969
L52.5938 62.3125
Q48.875 64.0625 45.0938 64.9844
Q41.3125 65.9219 37.5938 65.9219
Q27.8281 65.9219 22.6719 59.3281
Q17.5312 52.7344 16.7969 39.4062
Q19.6719 43.6562 24.0156 45.9219
Q28.375 48.1875 33.5938 48.1875
Q44.5781 48.1875 50.9531 41.5156
Q57.3281 34.8594 57.3281 23.3906
Q57.3281 12.1562 50.6875 5.35938
Q44.0469 -1.42188 33.0156 -1.42188
Q20.3594 -1.42188 13.6719 8.26562
Q6.98438 17.9688 6.98438 36.375
Q6.98438 53.6562 15.1875 63.9375
Q23.3906 74.2188 37.2031 74.2188
Q40.9219 74.2188 44.7031 73.4844
Q48.4844 72.75 52.5938 71.2969" id="BitstreamVeraSans-Roman-36"/>
      </defs>
      <g transform="translate(388.737053571 395.233125)scale(0.2 -0.2)">
       <use xlink:href="#BitstreamVeraSans-Roman-36"/>
      </g>
     </g>
    </g>
    <g id="xtick_8">
     <g id="line2d_33">
      <path clip-path="url(#p6ea69091fa)" d="
M445.2 376.036
L445.2 30.4362" style="fill:none;stroke:#000000;stroke-dasharray:1.000000,3.000000;stroke-dashoffset:0.0;stroke-width:0.5;"/>
     </g>
     <g id="line2d_34">
      <g>
       <use style="stroke:#000000;stroke-width:0.5;" x="445.2" xlink:href="#m93b0483c22" y="376.03625"/>
      </g>
     </g>
     <g id="line2d_35">
      <g>
       <use style="stroke:#000000;stroke-width:0.5;" x="445.2" xlink:href="#m741efc42ff" y="30.43625"/>
      </g>
     </g>
     <g id="text_8">
      <!-- 7 -->
      <defs>
       <path d="
M8.20312 72.9062
L55.0781 72.9062
L55.0781 68.7031
L28.6094 0
L18.3125 0
L43.2188 64.5938
L8.20312 64.5938
z
" id="BitstreamVeraSans-Roman-37"/>
      </defs>
      <g transform="translate(440.5125 395.233125)scale(0.2 -0.2)">
       <use xlink:href="#BitstreamVeraSans-Roman-37"/>
      </g>
     </g>
    </g>
    <g id="xtick_9">
     <g id="line2d_36">
      <path clip-path="url(#p6ea69091fa)" d="
M496.629 376.036
L496.629 30.4362" style="fill:none;stroke:#000000;stroke-dasharray:1.000000,3.000000;stroke-dashoffset:0.0;stroke-width:0.5;"/>
     </g>
     <g id="line2d_37">
      <g>
       <use style="stroke:#000000;stroke-width:0.5;" x="496.628571429" xlink:href="#m93b0483c22" y="376.03625"/>
      </g>
     </g>
     <g id="line2d_38">
      <g>
       <use style="stroke:#000000;stroke-width:0.5;" x="496.628571429" xlink:href="#m741efc42ff" y="30.43625"/>
      </g>
     </g>
     <g id="text_9">
      <!-- 8 -->
      <defs>
       <path d="
M31.7812 34.625
Q24.75 34.625 20.7188 30.8594
Q16.7031 27.0938 16.7031 20.5156
Q16.7031 13.9219 20.7188 10.1562
Q24.75 6.39062 31.7812 6.39062
Q38.8125 6.39062 42.8594 10.1719
Q46.9219 13.9688 46.9219 20.5156
Q46.9219 27.0938 42.8906 30.8594
Q38.875 34.625 31.7812 34.625
M21.9219 38.8125
Q15.5781 40.375 12.0312 44.7188
Q8.5 49.0781 8.5 55.3281
Q8.5 64.0625 14.7188 69.1406
Q20.9531 74.2188 31.7812 74.2188
Q42.6719 74.2188 48.875 69.1406
Q55.0781 64.0625 55.0781 55.3281
Q55.0781 49.0781 51.5312 44.7188
Q48 40.375 41.7031 38.8125
Q48.8281 37.1562 52.7969 32.3125
Q56.7812 27.4844 56.7812 20.5156
Q56.7812 9.90625 50.3125 4.23438
Q43.8438 -1.42188 31.7812 -1.42188
Q19.7344 -1.42188 13.25 4.23438
Q6.78125 9.90625 6.78125 20.5156
Q6.78125 27.4844 10.7812 32.3125
Q14.7969 37.1562 21.9219 38.8125
M18.3125 54.3906
Q18.3125 48.7344 21.8438 45.5625
Q25.3906 42.3906 31.7812 42.3906
Q38.1406 42.3906 41.7188 45.5625
Q45.3125 48.7344 45.3125 54.3906
Q45.3125 60.0625 41.7188 63.2344
Q38.1406 66.4062 31.7812 66.4062
Q25.3906 66.4062 21.8438 63.2344
Q18.3125 60.0625 18.3125 54.3906" id="BitstreamVeraSans-Roman-38"/>
      </defs>
      <g transform="translate(491.628571429 395.233125)scale(0.2 -0.2)">
       <use xlink:href="#BitstreamVeraSans-Roman-38"/>
      </g>
     </g>
    </g>
    <g id="xtick_10">
     <g id="line2d_39">
      <defs>
       <path d="
M0 0
L0 -2" id="m177f7580d0" style="stroke:#000000;stroke-width:0.5;"/>
      </defs>
      <g>
       <use style="stroke:#000000;stroke-width:0.5;" x="100.681542634" xlink:href="#m177f7580d0" y="376.03625"/>
      </g>
     </g>
     <g id="line2d_40">
      <defs>
       <path d="
M0 0
L0 2" id="m5284c7e2a0" style="stroke:#000000;stroke-width:0.5;"/>
      </defs>
      <g>
       <use style="stroke:#000000;stroke-width:0.5;" x="100.681542634" xlink:href="#m5284c7e2a0" y="30.43625"/>
      </g>
     </g>
    </g>
    <g id="xtick_11">
     <g id="line2d_41">
      <g>
       <use style="stroke:#000000;stroke-width:0.5;" x="116.163085268" xlink:href="#m177f7580d0" y="376.03625"/>
      </g>
     </g>
     <g id="line2d_42">
      <g>
       <use style="stroke:#000000;stroke-width:0.5;" x="116.163085268" xlink:href="#m5284c7e2a0" y="30.43625"/>
      </g>
     </g>
    </g>
    <g id="xtick_12">
     <g id="line2d_43">
      <g>
       <use style="stroke:#000000;stroke-width:0.5;" x="125.219207163" xlink:href="#m177f7580d0" y="376.03625"/>
      </g>
     </g>
     <g id="line2d_44">
      <g>
       <use style="stroke:#000000;stroke-width:0.5;" x="125.219207163" xlink:href="#m5284c7e2a0" y="30.43625"/>
      </g>
     </g>
    </g>
    <g id="xtick_13">
     <g id="line2d_45">
      <g>
       <use style="stroke:#000000;stroke-width:0.5;" x="131.644627902" xlink:href="#m177f7580d0" y="376.03625"/>
      </g>
     </g>
     <g id="line2d_46">
      <g>
       <use style="stroke:#000000;stroke-width:0.5;" x="131.644627902" xlink:href="#m5284c7e2a0" y="30.43625"/>
      </g>
     </g>
    </g>
    <g id="xtick_14">
     <g id="line2d_47">
      <g>
       <use style="stroke:#000000;stroke-width:0.5;" x="152.110114063" xlink:href="#m177f7580d0" y="376.03625"/>
      </g>
     </g>
     <g id="line2d_48">
      <g>
       <use style="stroke:#000000;stroke-width:0.5;" x="152.110114063" xlink:href="#m5284c7e2a0" y="30.43625"/>
      </g>
     </g>
    </g>
    <g id="xtick_15">
     <g id="line2d_49">
      <g>
       <use style="stroke:#000000;stroke-width:0.5;" x="167.591656697" xlink:href="#m177f7580d0" y="376.03625"/>
      </g>
     </g>
     <g id="line2d_50">
      <g>
       <use style="stroke:#000000;stroke-width:0.5;" x="167.591656697" xlink:href="#m5284c7e2a0" y="30.43625"/>
      </g>
     </g>
    </g>
    <g id="xtick_16">
     <g id="line2d_51">
      <g>
       <use style="stroke:#000000;stroke-width:0.5;" x="176.647778591" xlink:href="#m177f7580d0" y="376.03625"/>
      </g>
     </g>
     <g id="line2d_52">
      <g>
       <use style="stroke:#000000;stroke-width:0.5;" x="176.647778591" xlink:href="#m5284c7e2a0" y="30.43625"/>
      </g>
     </g>
    </g>
    <g id="xtick_17">
     <g id="line2d_53">
      <g>
       <use style="stroke:#000000;stroke-width:0.5;" x="183.073199331" xlink:href="#m177f7580d0" y="376.03625"/>
      </g>
     </g>
     <g id="line2d_54">
      <g>
       <use style="stroke:#000000;stroke-width:0.5;" x="183.073199331" xlink:href="#m5284c7e2a0" y="30.43625"/>
      </g>
     </g>
    </g>
    <g id="xtick_18">
     <g id="line2d_55">
      <g>
       <use style="stroke:#000000;stroke-width:0.5;" x="203.538685491" xlink:href="#m177f7580d0" y="376.03625"/>
      </g>
     </g>
     <g id="line2d_56">
      <g>
       <use style="stroke:#000000;stroke-width:0.5;" x="203.538685491" xlink:href="#m5284c7e2a0" y="30.43625"/>
      </g>
     </g>
    </g>
    <g id="xtick_19">
     <g id="line2d_57">
      <g>
       <use style="stroke:#000000;stroke-width:0.5;" x="219.020228125" xlink:href="#m177f7580d0" y="376.03625"/>
      </g>
     </g>
     <g id="line2d_58">
      <g>
       <use style="stroke:#000000;stroke-width:0.5;" x="219.020228125" xlink:href="#m5284c7e2a0" y="30.43625"/>
      </g>
     </g>
    </g>
    <g id="xtick_20">
     <g id="line2d_59">
      <g>
       <use style="stroke:#000000;stroke-width:0.5;" x="228.07635002" xlink:href="#m177f7580d0" y="376.03625"/>
      </g>
     </g>
     <g id="line2d_60">
      <g>
       <use style="stroke:#000000;stroke-width:0.5;" x="228.07635002" xlink:href="#m5284c7e2a0" y="30.43625"/>
      </g>
     </g>
    </g>
    <g id="xtick_21">
     <g id="line2d_61">
      <g>
       <use style="stroke:#000000;stroke-width:0.5;" x="234.50177076" xlink:href="#m177f7580d0" y="376.03625"/>
      </g>
     </g>
     <g id="line2d_62">
      <g>
       <use style="stroke:#000000;stroke-width:0.5;" x="234.50177076" xlink:href="#m5284c7e2a0" y="30.43625"/>
      </g>
     </g>
    </g>
    <g id="xtick_22">
     <g id="line2d_63">
      <g>
       <use style="stroke:#000000;stroke-width:0.5;" x="254.96725692" xlink:href="#m177f7580d0" y="376.03625"/>
      </g>
     </g>
     <g id="line2d_64">
      <g>
       <use style="stroke:#000000;stroke-width:0.5;" x="254.96725692" xlink:href="#m5284c7e2a0" y="30.43625"/>
      </g>
     </g>
    </g>
    <g id="xtick_23">
     <g id="line2d_65">
      <g>
       <use style="stroke:#000000;stroke-width:0.5;" x="270.448799554" xlink:href="#m177f7580d0" y="376.03625"/>
      </g>
     </g>
     <g id="line2d_66">
      <g>
       <use style="stroke:#000000;stroke-width:0.5;" x="270.448799554" xlink:href="#m5284c7e2a0" y="30.43625"/>
      </g>
     </g>
    </g>
    <g id="xtick_24">
     <g id="line2d_67">
      <g>
       <use style="stroke:#000000;stroke-width:0.5;" x="279.504921448" xlink:href="#m177f7580d0" y="376.03625"/>
      </g>
     </g>
     <g id="line2d_68">
      <g>
       <use style="stroke:#000000;stroke-width:0.5;" x="279.504921448" xlink:href="#m5284c7e2a0" y="30.43625"/>
      </g>
     </g>
    </g>
    <g id="xtick_25">
     <g id="line2d_69">
      <g>
       <use style="stroke:#000000;stroke-width:0.5;" x="285.930342188" xlink:href="#m177f7580d0" y="376.03625"/>
      </g>
     </g>
     <g id="line2d_70">
      <g>
       <use style="stroke:#000000;stroke-width:0.5;" x="285.930342188" xlink:href="#m5284c7e2a0" y="30.43625"/>
      </g>
     </g>
    </g>
    <g id="xtick_26">
     <g id="line2d_71">
      <g>
       <use style="stroke:#000000;stroke-width:0.5;" x="306.395828348" xlink:href="#m177f7580d0" y="376.03625"/>
      </g>
     </g>
     <g id="line2d_72">
      <g>
       <use style="stroke:#000000;stroke-width:0.5;" x="306.395828348" xlink:href="#m5284c7e2a0" y="30.43625"/>
      </g>
     </g>
    </g>
    <g id="xtick_27">
     <g id="line2d_73">
      <g>
       <use style="stroke:#000000;stroke-width:0.5;" x="321.877370983" xlink:href="#m177f7580d0" y="376.03625"/>
      </g>
     </g>
     <g id="line2d_74">
      <g>
       <use style="stroke:#000000;stroke-width:0.5;" x="321.877370983" xlink:href="#m5284c7e2a0" y="30.43625"/>
      </g>
     </g>
    </g>
    <g id="xtick_28">
     <g id="line2d_75">
      <g>
       <use style="stroke:#000000;stroke-width:0.5;" x="330.933492877" xlink:href="#m177f7580d0" y="376.03625"/>
      </g>
     </g>
     <g id="line2d_76">
      <g>
       <use style="stroke:#000000;stroke-width:0.5;" x="330.933492877" xlink:href="#m5284c7e2a0" y="30.43625"/>
      </g>
     </g>
    </g>
    <g id="xtick_29">
     <g id="line2d_77">
      <g>
       <use style="stroke:#000000;stroke-width:0.5;" x="337.358913617" xlink:href="#m177f7580d0" y="376.03625"/>
      </g>
     </g>
     <g id="line2d_78">
      <g>
       <use style="stroke:#000000;stroke-width:0.5;" x="337.358913617" xlink:href="#m5284c7e2a0" y="30.43625"/>
      </g>
     </g>
    </g>
    <g id="xtick_30">
     <g id="line2d_79">
      <g>
       <use style="stroke:#000000;stroke-width:0.5;" x="357.824399777" xlink:href="#m177f7580d0" y="376.03625"/>
      </g>
     </g>
     <g id="line2d_80">
      <g>
       <use style="stroke:#000000;stroke-width:0.5;" x="357.824399777" xlink:href="#m5284c7e2a0" y="30.43625"/>
      </g>
     </g>
    </g>
    <g id="xtick_31">
     <g id="line2d_81">
      <g>
       <use style="stroke:#000000;stroke-width:0.5;" x="373.305942411" xlink:href="#m177f7580d0" y="376.03625"/>
      </g>
     </g>
     <g id="line2d_82">
      <g>
       <use style="stroke:#000000;stroke-width:0.5;" x="373.305942411" xlink:href="#m5284c7e2a0" y="30.43625"/>
      </g>
     </g>
    </g>
    <g id="xtick_32">
     <g id="line2d_83">
      <g>
       <use style="stroke:#000000;stroke-width:0.5;" x="382.362064305" xlink:href="#m177f7580d0" y="376.03625"/>
      </g>
     </g>
     <g id="line2d_84">
      <g>
       <use style="stroke:#000000;stroke-width:0.5;" x="382.362064305" xlink:href="#m5284c7e2a0" y="30.43625"/>
      </g>
     </g>
    </g>
    <g id="xtick_33">
     <g id="line2d_85">
      <g>
       <use style="stroke:#000000;stroke-width:0.5;" x="388.787485045" xlink:href="#m177f7580d0" y="376.03625"/>
      </g>
     </g>
     <g id="line2d_86">
      <g>
       <use style="stroke:#000000;stroke-width:0.5;" x="388.787485045" xlink:href="#m5284c7e2a0" y="30.43625"/>
      </g>
     </g>
    </g>
    <g id="xtick_34">
     <g id="line2d_87">
      <g>
       <use style="stroke:#000000;stroke-width:0.5;" x="409.252971206" xlink:href="#m177f7580d0" y="376.03625"/>
      </g>
     </g>
     <g id="line2d_88">
      <g>
       <use style="stroke:#000000;stroke-width:0.5;" x="409.252971206" xlink:href="#m5284c7e2a0" y="30.43625"/>
      </g>
     </g>
    </g>
    <g id="xtick_35">
     <g id="line2d_89">
      <g>
       <use style="stroke:#000000;stroke-width:0.5;" x="424.73451384" xlink:href="#m177f7580d0" y="376.03625"/>
      </g>
     </g>
     <g id="line2d_90">
      <g>
       <use style="stroke:#000000;stroke-width:0.5;" x="424.73451384" xlink:href="#m5284c7e2a0" y="30.43625"/>
      </g>
     </g>
    </g>
    <g id="xtick_36">
     <g id="line2d_91">
      <g>
       <use style="stroke:#000000;stroke-width:0.5;" x="433.790635734" xlink:href="#m177f7580d0" y="376.03625"/>
      </g>
     </g>
     <g id="line2d_92">
      <g>
       <use style="stroke:#000000;stroke-width:0.5;" x="433.790635734" xlink:href="#m5284c7e2a0" y="30.43625"/>
      </g>
     </g>
    </g>
    <g id="xtick_37">
     <g id="line2d_93">
      <g>
       <use style="stroke:#000000;stroke-width:0.5;" x="440.216056474" xlink:href="#m177f7580d0" y="376.03625"/>
      </g>
     </g>
     <g id="line2d_94">
      <g>
       <use style="stroke:#000000;stroke-width:0.5;" x="440.216056474" xlink:href="#m5284c7e2a0" y="30.43625"/>
      </g>
     </g>
    </g>
    <g id="xtick_38">
     <g id="line2d_95">
      <g>
       <use style="stroke:#000000;stroke-width:0.5;" x="460.681542634" xlink:href="#m177f7580d0" y="376.03625"/>
      </g>
     </g>
     <g id="line2d_96">
      <g>
       <use style="stroke:#000000;stroke-width:0.5;" x="460.681542634" xlink:href="#m5284c7e2a0" y="30.43625"/>
      </g>
     </g>
    </g>
    <g id="xtick_39">
     <g id="line2d_97">
      <g>
       <use style="stroke:#000000;stroke-width:0.5;" x="476.163085268" xlink:href="#m177f7580d0" y="376.03625"/>
      </g>
     </g>
     <g id="line2d_98">
      <g>
       <use style="stroke:#000000;stroke-width:0.5;" x="476.163085268" xlink:href="#m5284c7e2a0" y="30.43625"/>
      </g>
     </g>
    </g>
    <g id="xtick_40">
     <g id="line2d_99">
      <g>
       <use style="stroke:#000000;stroke-width:0.5;" x="485.219207163" xlink:href="#m177f7580d0" y="376.03625"/>
      </g>
     </g>
     <g id="line2d_100">
      <g>
       <use style="stroke:#000000;stroke-width:0.5;" x="485.219207163" xlink:href="#m5284c7e2a0" y="30.43625"/>
      </g>
     </g>
    </g>
    <g id="xtick_41">
     <g id="line2d_101">
      <g>
       <use style="stroke:#000000;stroke-width:0.5;" x="491.644627902" xlink:href="#m177f7580d0" y="376.03625"/>
      </g>
     </g>
     <g id="line2d_102">
      <g>
       <use style="stroke:#000000;stroke-width:0.5;" x="491.644627902" xlink:href="#m5284c7e2a0" y="30.43625"/>
      </g>
     </g>
    </g>
    <g id="xtick_42">
     <g id="line2d_103">
      <g>
       <use style="stroke:#000000;stroke-width:0.5;" x="512.110114063" xlink:href="#m177f7580d0" y="376.03625"/>
      </g>
     </g>
     <g id="line2d_104">
      <g>
       <use style="stroke:#000000;stroke-width:0.5;" x="512.110114063" xlink:href="#m5284c7e2a0" y="30.43625"/>
      </g>
     </g>
    </g>
    <g id="xtick_43">
     <g id="line2d_105">
      <g>
       <use style="stroke:#000000;stroke-width:0.5;" x="527.591656697" xlink:href="#m177f7580d0" y="376.03625"/>
      </g>
     </g>
     <g id="line2d_106">
      <g>
       <use style="stroke:#000000;stroke-width:0.5;" x="527.591656697" xlink:href="#m5284c7e2a0" y="30.43625"/>
      </g>
     </g>
    </g>
    <g id="text_10">
     <!-- log10 of (# f-evals / dimension) -->
     <defs>
      <path id="BitstreamVeraSans-Roman-20"/>
      <path d="
M51.125 44
L36.9219 44
L32.8125 27.6875
L47.125 27.6875
z

M43.7969 71.7812
L38.7188 51.5156
L52.9844 51.5156
L58.1094 71.7812
L65.9219 71.7812
L60.8906 51.5156
L76.125 51.5156
L76.125 44
L58.9844 44
L54.9844 27.6875
L70.5156 27.6875
L70.5156 20.2188
L53.0781 20.2188
L48 0
L40.1875 0
L45.2188 20.2188
L30.9062 20.2188
L25.875 0
L18.0156 0
L23.0938 20.2188
L7.71875 20.2188
L7.71875 27.6875
L24.9062 27.6875
L29 44
L13.2812 44
L13.2812 51.5156
L30.9062 51.5156
L35.8906 71.7812
z
" id="BitstreamVeraSans-Roman-23"/>
      <path d="
M52 44.1875
Q55.375 50.25 60.0625 53.125
Q64.75 56 71.0938 56
Q79.6406 56 84.2812 50.0156
Q88.9219 44.0469 88.9219 33.0156
L88.9219 0
L79.8906 0
L79.8906 32.7188
Q79.8906 40.5781 77.0938 44.375
Q74.3125 48.1875 68.6094 48.1875
Q61.625 48.1875 57.5625 43.5469
Q53.5156 38.9219 53.5156 30.9062
L53.5156 0
L44.4844 0
L44.4844 32.7188
Q44.4844 40.625 41.7031 44.4062
Q38.9219 48.1875 33.1094 48.1875
Q26.2188 48.1875 22.1562 43.5312
Q18.1094 38.875 18.1094 30.9062
L18.1094 0
L9.07812 0
L9.07812 54.6875
L18.1094 54.6875
L18.1094 46.1875
Q21.1875 51.2188 25.4844 53.6094
Q29.7812 56 35.6875 56
Q41.6562 56 45.8281 52.9688
Q50 49.9531 52 44.1875" id="BitstreamVeraSans-Roman-6d"/>
      <path d="
M54.8906 33.0156
L54.8906 0
L45.9062 0
L45.9062 32.7188
Q45.9062 40.4844 42.875 44.3281
Q39.8438 48.1875 33.7969 48.1875
Q26.5156 48.1875 22.3125 43.5469
Q18.1094 38.9219 18.1094 30.9062
L18.1094 0
L9.07812 0
L9.07812 54.6875
L18.1094 54.6875
L18.1094 46.1875
Q21.3438 51.125 25.7031 53.5625
Q30.0781 56 35.7969 56
Q45.2188 56 50.0469 50.1719
Q54.8906 44.3438 54.8906 33.0156" id="BitstreamVeraSans-Roman-6e"/>
      <path d="
M31 75.875
Q24.4688 64.6562 21.2812 53.6562
Q18.1094 42.6719 18.1094 31.3906
Q18.1094 20.125 21.3125 9.0625
Q24.5156 -2 31 -13.1875
L23.1875 -13.1875
Q15.875 -1.70312 12.2344 9.375
Q8.59375 20.4531 8.59375 31.3906
Q8.59375 42.2812 12.2031 53.3125
Q15.8281 64.3594 23.1875 75.875
z
" id="BitstreamVeraSans-Roman-28"/>
      <path d="
M30.6094 48.3906
Q23.3906 48.3906 19.1875 42.75
Q14.9844 37.1094 14.9844 27.2969
Q14.9844 17.4844 19.1562 11.8438
Q23.3438 6.20312 30.6094 6.20312
Q37.7969 6.20312 41.9844 11.8594
Q46.1875 17.5312 46.1875 27.2969
Q46.1875 37.0156 41.9844 42.7031
Q37.7969 48.3906 30.6094 48.3906
M30.6094 56
Q42.3281 56 49.0156 48.375
Q55.7188 40.7656 55.7188 27.2969
Q55.7188 13.875 49.0156 6.21875
Q42.3281 -1.42188 30.6094 -1.42188
Q18.8438 -1.42188 12.1719 6.21875
Q5.51562 13.875 5.51562 27.2969
Q5.51562 40.7656 12.1719 48.375
Q18.8438 56 30.6094 56" id="BitstreamVeraSans-Roman-6f"/>
      <path d="
M9.42188 75.9844
L18.4062 75.9844
L18.4062 0
L9.42188 0
z
" id="BitstreamVeraSans-Roman-6c"/>
      <path d="
M2.98438 54.6875
L12.5 54.6875
L29.5938 8.79688
L46.6875 54.6875
L56.2031 54.6875
L35.6875 0
L23.4844 0
z
" id="BitstreamVeraSans-Roman-76"/>
      <path d="
M9.42188 54.6875
L18.4062 54.6875
L18.4062 0
L9.42188 0
z

M9.42188 75.9844
L18.4062 75.9844
L18.4062 64.5938
L9.42188 64.5938
z
" id="BitstreamVeraSans-Roman-69"/>
      <path d="
M4.89062 31.3906
L31.2031 31.3906
L31.2031 23.3906
L4.89062 23.3906
z
" id="BitstreamVeraSans-Roman-2d"/>
      <path d="
M25.3906 72.9062
L33.6875 72.9062
L8.29688 -9.28125
L0 -9.28125
z
" id="BitstreamVeraSans-Roman-2f"/>
      <path d="
M56.2031 29.5938
L56.2031 25.2031
L14.8906 25.2031
Q15.4844 15.9219 20.4844 11.0625
Q25.4844 6.20312 34.4219 6.20312
Q39.5938 6.20312 44.4531 7.46875
Q49.3125 8.73438 54.1094 11.2812
L54.1094 2.78125
Q49.2656 0.734375 44.1875 -0.34375
Q39.1094 -1.42188 33.8906 -1.42188
Q20.7969 -1.42188 13.1562 6.1875
Q5.51562 13.8125 5.51562 26.8125
Q5.51562 40.2344 12.7656 48.1094
Q20.0156 56 32.3281 56
Q43.3594 56 49.7812 48.8906
Q56.2031 41.7969 56.2031 29.5938
M47.2188 32.2344
Q47.125 39.5938 43.0938 43.9844
Q39.0625 48.3906 32.4219 48.3906
Q24.9062 48.3906 20.3906 44.1406
Q15.875 39.8906 15.1875 32.1719
z
" id="BitstreamVeraSans-Roman-65"/>
      <path d="
M45.4062 46.3906
L45.4062 75.9844
L54.3906 75.9844
L54.3906 0
L45.4062 0
L45.4062 8.20312
Q42.5781 3.32812 38.25 0.953125
Q33.9375 -1.42188 27.875 -1.42188
Q17.9688 -1.42188 11.7344 6.48438
Q5.51562 14.4062 5.51562 27.2969
Q5.51562 40.1875 11.7344 48.0938
Q17.9688 56 27.875 56
Q33.9375 56 38.25 53.625
Q42.5781 51.2656 45.4062 46.3906
M14.7969 27.2969
Q14.7969 17.3906 18.875 11.75
Q22.9531 6.10938 30.0781 6.10938
Q37.2031 6.10938 41.2969 11.75
Q45.4062 17.3906 45.4062 27.2969
Q45.4062 37.2031 41.2969 42.8438
Q37.2031 48.4844 30.0781 48.4844
Q22.9531 48.4844 18.875 42.8438
Q14.7969 37.2031 14.7969 27.2969" id="BitstreamVeraSans-Roman-64"/>
      <path d="
M45.4062 27.9844
Q45.4062 37.75 41.375 43.1094
Q37.3594 48.4844 30.0781 48.4844
Q22.8594 48.4844 18.8281 43.1094
Q14.7969 37.75 14.7969 27.9844
Q14.7969 18.2656 18.8281 12.8906
Q22.8594 7.51562 30.0781 7.51562
Q37.3594 7.51562 41.375 12.8906
Q45.4062 18.2656 45.4062 27.9844
M54.3906 6.78125
Q54.3906 -7.17188 48.1875 -13.9844
Q42 -20.7969 29.2031 -20.7969
Q24.4688 -20.7969 20.2656 -20.0938
Q16.0625 -19.3906 12.1094 -17.9219
L12.1094 -9.1875
Q16.0625 -11.3281 19.9219 -12.3438
Q23.7812 -13.375 27.7812 -13.375
Q36.625 -13.375 41.0156 -8.76562
Q45.4062 -4.15625 45.4062 5.17188
L45.4062 9.625
Q42.625 4.78125 38.2812 2.39062
Q33.9375 0 27.875 0
Q17.8281 0 11.6719 7.65625
Q5.51562 15.3281 5.51562 27.9844
Q5.51562 40.6719 11.6719 48.3281
Q17.8281 56 27.875 56
Q33.9375 56 38.2812 53.6094
Q42.625 51.2188 45.4062 46.3906
L45.4062 54.6875
L54.3906 54.6875
z
" id="BitstreamVeraSans-Roman-67"/>
      <path d="
M37.1094 75.9844
L37.1094 68.5
L28.5156 68.5
Q23.6875 68.5 21.7969 66.5469
Q19.9219 64.5938 19.9219 59.5156
L19.9219 54.6875
L34.7188 54.6875
L34.7188 47.7031
L19.9219 47.7031
L19.9219 0
L10.8906 0
L10.8906 47.7031
L2.29688 47.7031
L2.29688 54.6875
L10.8906 54.6875
L10.8906 58.5
Q10.8906 67.625 15.1406 71.7969
Q19.3906 75.9844 28.6094 75.9844
z
" id="BitstreamVeraSans-Roman-66"/>
      <path d="
M34.2812 27.4844
Q23.3906 27.4844 19.1875 25
Q14.9844 22.5156 14.9844 16.5
Q14.9844 11.7188 18.1406 8.90625
Q21.2969 6.10938 26.7031 6.10938
Q34.1875 6.10938 38.7031 11.4062
Q43.2188 16.7031 43.2188 25.4844
L43.2188 27.4844
z

M52.2031 31.2031
L52.2031 0
L43.2188 0
L43.2188 8.29688
Q40.1406 3.32812 35.5469 0.953125
Q30.9531 -1.42188 24.3125 -1.42188
Q15.9219 -1.42188 10.9531 3.29688
Q6 8.01562 6 15.9219
Q6 25.1406 12.1719 29.8281
Q18.3594 34.5156 30.6094 34.5156
L43.2188 34.5156
L43.2188 35.4062
Q43.2188 41.6094 39.1406 45
Q35.0625 48.3906 27.6875 48.3906
Q23 48.3906 18.5469 47.2656
Q14.1094 46.1406 10.0156 43.8906
L10.0156 52.2031
Q14.9375 54.1094 19.5781 55.0469
Q24.2188 56 28.6094 56
Q40.4844 56 46.3438 49.8438
Q52.2031 43.7031 52.2031 31.2031" id="BitstreamVeraSans-Roman-61"/>
      <path d="
M44.2812 53.0781
L44.2812 44.5781
Q40.4844 46.5312 36.375 47.5
Q32.2812 48.4844 27.875 48.4844
Q21.1875 48.4844 17.8438 46.4375
Q14.5 44.3906 14.5 40.2812
Q14.5 37.1562 16.8906 35.375
Q19.2812 33.5938 26.5156 31.9844
L29.5938 31.2969
Q39.1562 29.25 43.1875 25.5156
Q47.2188 21.7812 47.2188 15.0938
Q47.2188 7.46875 41.1875 3.01562
Q35.1562 -1.42188 24.6094 -1.42188
Q20.2188 -1.42188 15.4531 -0.5625
Q10.6875 0.296875 5.42188 2
L5.42188 11.2812
Q10.4062 8.6875 15.2344 7.39062
Q20.0625 6.10938 24.8125 6.10938
Q31.1562 6.10938 34.5625 8.28125
Q37.9844 10.4531 37.9844 14.4062
Q37.9844 18.0625 35.5156 20.0156
Q33.0625 21.9688 24.7031 23.7812
L21.5781 24.5156
Q13.2344 26.2656 9.51562 29.9062
Q5.8125 33.5469 5.8125 39.8906
Q5.8125 47.6094 11.2812 51.7969
Q16.75 56 26.8125 56
Q31.7812 56 36.1719 55.2656
Q40.5781 54.5469 44.2812 53.0781" id="BitstreamVeraSans-Roman-73"/>
      <path d="
M8.01562 75.875
L15.8281 75.875
Q23.1406 64.3594 26.7812 53.3125
Q30.4219 42.2812 30.4219 31.3906
Q30.4219 20.4531 26.7812 9.375
Q23.1406 -1.70312 15.8281 -13.1875
L8.01562 -13.1875
Q14.5 -2 17.7031 9.0625
Q20.9062 20.125 20.9062 31.3906
Q20.9062 42.6719 17.7031 53.6562
Q14.5 64.6562 8.01562 75.875" id="BitstreamVeraSans-Roman-29"/>
     </defs>
     <g transform="translate(167.3165625 418.0696875)scale(0.18 -0.18)">
      <use xlink:href="#BitstreamVeraSans-Roman-6c"/>
      <use x="27.783203125" xlink:href="#BitstreamVeraSans-Roman-6f"/>
      <use x="88.96484375" xlink:href="#BitstreamVeraSans-Roman-67"/>
      <use x="152.44140625" xlink:href="#BitstreamVeraSans-Roman-31"/>
      <use x="216.064453125" xlink:href="#BitstreamVeraSans-Roman-30"/>
      <use x="279.6875" xlink:href="#BitstreamVeraSans-Roman-20"/>
      <use x="311.474609375" xlink:href="#BitstreamVeraSans-Roman-6f"/>
      <use x="372.65625" xlink:href="#BitstreamVeraSans-Roman-66"/>
      <use x="407.861328125" xlink:href="#BitstreamVeraSans-Roman-20"/>
      <use x="439.6484375" xlink:href="#BitstreamVeraSans-Roman-28"/>
      <use x="478.662109375" xlink:href="#BitstreamVeraSans-Roman-23"/>
      <use x="562.451171875" xlink:href="#BitstreamVeraSans-Roman-20"/>
      <use x="594.23828125" xlink:href="#BitstreamVeraSans-Roman-66"/>
      <use x="623.943359375" xlink:href="#BitstreamVeraSans-Roman-2d"/>
      <use x="660.02734375" xlink:href="#BitstreamVeraSans-Roman-65"/>
      <use x="721.55078125" xlink:href="#BitstreamVeraSans-Roman-76"/>
      <use x="780.73046875" xlink:href="#BitstreamVeraSans-Roman-61"/>
      <use x="842.009765625" xlink:href="#BitstreamVeraSans-Roman-6c"/>
      <use x="869.79296875" xlink:href="#BitstreamVeraSans-Roman-73"/>
      <use x="921.892578125" xlink:href="#BitstreamVeraSans-Roman-20"/>
      <use x="953.6796875" xlink:href="#BitstreamVeraSans-Roman-2f"/>
      <use x="987.37109375" xlink:href="#BitstreamVeraSans-Roman-20"/>
      <use x="1019.15820312" xlink:href="#BitstreamVeraSans-Roman-64"/>
      <use x="1082.63476562" xlink:href="#BitstreamVeraSans-Roman-69"/>
      <use x="1110.41796875" xlink:href="#BitstreamVeraSans-Roman-6d"/>
      <use x="1207.83007812" xlink:href="#BitstreamVeraSans-Roman-65"/>
      <use x="1269.35351562" xlink:href="#BitstreamVeraSans-Roman-6e"/>
      <use x="1332.73242188" xlink:href="#BitstreamVeraSans-Roman-73"/>
      <use x="1384.83203125" xlink:href="#BitstreamVeraSans-Roman-69"/>
      <use x="1412.61523438" xlink:href="#BitstreamVeraSans-Roman-6f"/>
      <use x="1473.796875" xlink:href="#BitstreamVeraSans-Roman-6e"/>
      <use x="1537.17578125" xlink:href="#BitstreamVeraSans-Roman-29"/>
     </g>
    </g>
   </g>
   <g id="matplotlib.axis_2">
    <g id="ytick_1">
     <g id="line2d_107">
      <path clip-path="url(#p6ea69091fa)" d="
M85.2 376.036
L531.6 376.036" style="fill:none;stroke:#000000;stroke-dasharray:1.000000,3.000000;stroke-dashoffset:0.0;stroke-width:0.5;"/>
     </g>
     <g id="line2d_108">
      <defs>
       <path d="
M0 0
L4 0" id="m728421d6d4" style="stroke:#000000;stroke-width:0.5;"/>
      </defs>
      <g>
       <use style="stroke:#000000;stroke-width:0.5;" x="85.2" xlink:href="#m728421d6d4" y="376.03625"/>
      </g>
     </g>
     <g id="line2d_109">
      <defs>
       <path d="
M0 0
L-4 0" id="mcb0005524f" style="stroke:#000000;stroke-width:0.5;"/>
      </defs>
      <g>
       <use style="stroke:#000000;stroke-width:0.5;" x="531.6" xlink:href="#mcb0005524f" y="376.03625"/>
      </g>
     </g>
     <g id="text_11">
      <!-- 0.0 -->
      <defs>
       <path d="
M10.6875 12.4062
L21 12.4062
L21 0
L10.6875 0
z
" id="BitstreamVeraSans-Roman-2e"/>
      </defs>
      <g transform="translate(52.040625 381.555)scale(0.2 -0.2)">
       <use xlink:href="#BitstreamVeraSans-Roman-30"/>
       <use x="63.623046875" xlink:href="#BitstreamVeraSans-Roman-2e"/>
       <use x="95.41015625" xlink:href="#BitstreamVeraSans-Roman-30"/>
      </g>
     </g>
    </g>
    <g id="ytick_2">
     <g id="line2d_110">
      <path clip-path="url(#p6ea69091fa)" d="
M85.2 307.601
L531.6 307.601" style="fill:none;stroke:#000000;stroke-dasharray:1.000000,3.000000;stroke-dashoffset:0.0;stroke-width:0.5;"/>
     </g>
     <g id="line2d_111">
      <g>
       <use style="stroke:#000000;stroke-width:0.5;" x="85.2" xlink:href="#m728421d6d4" y="307.600606436"/>
      </g>
     </g>
     <g id="line2d_112">
      <g>
       <use style="stroke:#000000;stroke-width:0.5;" x="531.6" xlink:href="#mcb0005524f" y="307.600606436"/>
      </g>
     </g>
     <g id="text_12">
      <!-- 0.2 -->
      <g transform="translate(52.715625 313.119356436)scale(0.2 -0.2)">
       <use xlink:href="#BitstreamVeraSans-Roman-30"/>
       <use x="63.623046875" xlink:href="#BitstreamVeraSans-Roman-2e"/>
       <use x="95.41015625" xlink:href="#BitstreamVeraSans-Roman-32"/>
      </g>
     </g>
    </g>
    <g id="ytick_3">
     <g id="line2d_113">
      <path clip-path="url(#p6ea69091fa)" d="
M85.2 239.165
L531.6 239.165" style="fill:none;stroke:#000000;stroke-dasharray:1.000000,3.000000;stroke-dashoffset:0.0;stroke-width:0.5;"/>
     </g>
     <g id="line2d_114">
      <g>
       <use style="stroke:#000000;stroke-width:0.5;" x="85.2" xlink:href="#m728421d6d4" y="239.164962871"/>
      </g>
     </g>
     <g id="line2d_115">
      <g>
       <use style="stroke:#000000;stroke-width:0.5;" x="531.6" xlink:href="#mcb0005524f" y="239.164962871"/>
      </g>
     </g>
     <g id="text_13">
      <!-- 0.4 -->
      <g transform="translate(51.834375 244.683712871)scale(0.2 -0.2)">
       <use xlink:href="#BitstreamVeraSans-Roman-30"/>
       <use x="63.623046875" xlink:href="#BitstreamVeraSans-Roman-2e"/>
       <use x="95.41015625" xlink:href="#BitstreamVeraSans-Roman-34"/>
      </g>
     </g>
    </g>
    <g id="ytick_4">
     <g id="line2d_116">
      <path clip-path="url(#p6ea69091fa)" d="
M85.2 170.729
L531.6 170.729" style="fill:none;stroke:#000000;stroke-dasharray:1.000000,3.000000;stroke-dashoffset:0.0;stroke-width:0.5;"/>
     </g>
     <g id="line2d_117">
      <g>
       <use style="stroke:#000000;stroke-width:0.5;" x="85.2" xlink:href="#m728421d6d4" y="170.729319307"/>
      </g>
     </g>
     <g id="line2d_118">
      <g>
       <use style="stroke:#000000;stroke-width:0.5;" x="531.6" xlink:href="#mcb0005524f" y="170.729319307"/>
      </g>
     </g>
     <g id="text_14">
      <!-- 0.6 -->
      <g transform="translate(51.971875 176.248069307)scale(0.2 -0.2)">
       <use xlink:href="#BitstreamVeraSans-Roman-30"/>
       <use x="63.623046875" xlink:href="#BitstreamVeraSans-Roman-2e"/>
       <use x="95.41015625" xlink:href="#BitstreamVeraSans-Roman-36"/>
      </g>
     </g>
    </g>
    <g id="ytick_5">
     <g id="line2d_119">
      <path clip-path="url(#p6ea69091fa)" d="
M85.2 102.294
L531.6 102.294" style="fill:none;stroke:#000000;stroke-dasharray:1.000000,3.000000;stroke-dashoffset:0.0;stroke-width:0.5;"/>
     </g>
     <g id="line2d_120">
      <g>
       <use style="stroke:#000000;stroke-width:0.5;" x="85.2" xlink:href="#m728421d6d4" y="102.293675743"/>
      </g>
     </g>
     <g id="line2d_121">
      <g>
       <use style="stroke:#000000;stroke-width:0.5;" x="531.6" xlink:href="#mcb0005524f" y="102.293675743"/>
      </g>
     </g>
     <g id="text_15">
      <!-- 0.8 -->
      <g transform="translate(52.08125 107.812425743)scale(0.2 -0.2)">
       <use xlink:href="#BitstreamVeraSans-Roman-30"/>
       <use x="63.623046875" xlink:href="#BitstreamVeraSans-Roman-2e"/>
       <use x="95.41015625" xlink:href="#BitstreamVeraSans-Roman-38"/>
      </g>
     </g>
    </g>
    <g id="ytick_6">
     <g id="line2d_122">
      <path clip-path="url(#p6ea69091fa)" d="
M85.2 33.858
L531.6 33.858" style="fill:none;stroke:#000000;stroke-dasharray:1.000000,3.000000;stroke-dashoffset:0.0;stroke-width:0.5;"/>
     </g>
     <g id="line2d_123">
      <g>
       <use style="stroke:#000000;stroke-width:0.5;" x="85.2" xlink:href="#m728421d6d4" y="33.8580321782"/>
      </g>
     </g>
     <g id="line2d_124">
      <g>
       <use style="stroke:#000000;stroke-width:0.5;" x="531.6" xlink:href="#mcb0005524f" y="33.8580321782"/>
      </g>
     </g>
     <g id="text_16">
      <!-- 1.0 -->
      <g transform="translate(52.91875 39.3767821782)scale(0.2 -0.2)">
       <use xlink:href="#BitstreamVeraSans-Roman-31"/>
       <use x="63.623046875" xlink:href="#BitstreamVeraSans-Roman-2e"/>
       <use x="95.41015625" xlink:href="#BitstreamVeraSans-Roman-30"/>
      </g>
     </g>
    </g>
    <g id="text_17">
     <!-- Proportion of function+target pairs -->
     <defs>
      <path d="
M19.6719 64.7969
L19.6719 37.4062
L32.0781 37.4062
Q38.9688 37.4062 42.7188 40.9688
Q46.4844 44.5312 46.4844 51.125
Q46.4844 57.6719 42.7188 61.2344
Q38.9688 64.7969 32.0781 64.7969
z

M9.8125 72.9062
L32.0781 72.9062
Q44.3438 72.9062 50.6094 67.3594
Q56.8906 61.8125 56.8906 51.125
Q56.8906 40.3281 50.6094 34.8125
Q44.3438 29.2969 32.0781 29.2969
L19.6719 29.2969
L19.6719 0
L9.8125 0
z
" id="BitstreamVeraSans-Roman-50"/>
      <path d="
M46 62.7031
L46 35.5
L73.1875 35.5
L73.1875 27.2031
L46 27.2031
L46 0
L37.7969 0
L37.7969 27.2031
L10.5938 27.2031
L10.5938 35.5
L37.7969 35.5
L37.7969 62.7031
z
" id="BitstreamVeraSans-Roman-2b"/>
      <path d="
M18.1094 8.20312
L18.1094 -20.7969
L9.07812 -20.7969
L9.07812 54.6875
L18.1094 54.6875
L18.1094 46.3906
Q20.9531 51.2656 25.2656 53.625
Q29.5938 56 35.5938 56
Q45.5625 56 51.7812 48.0938
Q58.0156 40.1875 58.0156 27.2969
Q58.0156 14.4062 51.7812 6.48438
Q45.5625 -1.42188 35.5938 -1.42188
Q29.5938 -1.42188 25.2656 0.953125
Q20.9531 3.32812 18.1094 8.20312
M48.6875 27.2969
Q48.6875 37.2031 44.6094 42.8438
Q40.5312 48.4844 33.4062 48.4844
Q26.2656 48.4844 22.1875 42.8438
Q18.1094 37.2031 18.1094 27.2969
Q18.1094 17.3906 22.1875 11.75
Q26.2656 6.10938 33.4062 6.10938
Q40.5312 6.10938 44.6094 11.75
Q48.6875 17.3906 48.6875 27.2969" id="BitstreamVeraSans-Roman-70"/>
      <path d="
M18.3125 70.2188
L18.3125 54.6875
L36.8125 54.6875
L36.8125 47.7031
L18.3125 47.7031
L18.3125 18.0156
Q18.3125 11.3281 20.1406 9.42188
Q21.9688 7.51562 27.5938 7.51562
L36.8125 7.51562
L36.8125 0
L27.5938 0
Q17.1875 0 13.2344 3.875
Q9.28125 7.76562 9.28125 18.0156
L9.28125 47.7031
L2.6875 47.7031
L2.6875 54.6875
L9.28125 54.6875
L9.28125 70.2188
z
" id="BitstreamVeraSans-Roman-74"/>
      <path d="
M8.5 21.5781
L8.5 54.6875
L17.4844 54.6875
L17.4844 21.9219
Q17.4844 14.1562 20.5 10.2656
Q23.5312 6.39062 29.5938 6.39062
Q36.8594 6.39062 41.0781 11.0312
Q45.3125 15.6719 45.3125 23.6875
L45.3125 54.6875
L54.2969 54.6875
L54.2969 0
L45.3125 0
L45.3125 8.40625
Q42.0469 3.42188 37.7188 1
Q33.4062 -1.42188 27.6875 -1.42188
Q18.2656 -1.42188 13.375 4.4375
Q8.5 10.2969 8.5 21.5781" id="BitstreamVeraSans-Roman-75"/>
      <path d="
M41.1094 46.2969
Q39.5938 47.1719 37.8125 47.5781
Q36.0312 48 33.8906 48
Q26.2656 48 22.1875 43.0469
Q18.1094 38.0938 18.1094 28.8125
L18.1094 0
L9.07812 0
L9.07812 54.6875
L18.1094 54.6875
L18.1094 46.1875
Q20.9531 51.1719 25.4844 53.5781
Q30.0312 56 36.5312 56
Q37.4531 56 38.5781 55.875
Q39.7031 55.7656 41.0625 55.5156
z
" id="BitstreamVeraSans-Roman-72"/>
      <path d="
M48.7812 52.5938
L48.7812 44.1875
Q44.9688 46.2969 41.1406 47.3438
Q37.3125 48.3906 33.4062 48.3906
Q24.6562 48.3906 19.8125 42.8438
Q14.9844 37.3125 14.9844 27.2969
Q14.9844 17.2812 19.8125 11.7344
Q24.6562 6.20312 33.4062 6.20312
Q37.3125 6.20312 41.1406 7.25
Q44.9688 8.29688 48.7812 10.4062
L48.7812 2.09375
Q45.0156 0.34375 40.9844 -0.53125
Q36.9688 -1.42188 32.4219 -1.42188
Q20.0625 -1.42188 12.7812 6.34375
Q5.51562 14.1094 5.51562 27.2969
Q5.51562 40.6719 12.8594 48.3281
Q20.2188 56 33.0156 56
Q37.1562 56 41.1094 55.1406
Q45.0625 54.2969 48.7812 52.5938" id="BitstreamVeraSans-Roman-63"/>
     </defs>
     <g transform="translate(43.0909375 360.275)rotate(-90.0)scale(0.18 -0.18)">
      <use xlink:href="#BitstreamVeraSans-Roman-50"/>
      <use x="58.552734375" xlink:href="#BitstreamVeraSans-Roman-72"/>
      <use x="97.416015625" xlink:href="#BitstreamVeraSans-Roman-6f"/>
      <use x="158.59765625" xlink:href="#BitstreamVeraSans-Roman-70"/>
      <use x="222.07421875" xlink:href="#BitstreamVeraSans-Roman-6f"/>
      <use x="283.255859375" xlink:href="#BitstreamVeraSans-Roman-72"/>
      <use x="324.369140625" xlink:href="#BitstreamVeraSans-Roman-74"/>
      <use x="363.578125" xlink:href="#BitstreamVeraSans-Roman-69"/>
      <use x="391.361328125" xlink:href="#BitstreamVeraSans-Roman-6f"/>
      <use x="452.54296875" xlink:href="#BitstreamVeraSans-Roman-6e"/>
      <use x="515.921875" xlink:href="#BitstreamVeraSans-Roman-20"/>
      <use x="547.708984375" xlink:href="#BitstreamVeraSans-Roman-6f"/>
      <use x="608.890625" xlink:href="#BitstreamVeraSans-Roman-66"/>
      <use x="644.095703125" xlink:href="#BitstreamVeraSans-Roman-20"/>
      <use x="675.8828125" xlink:href="#BitstreamVeraSans-Roman-66"/>
      <use x="711.087890625" xlink:href="#BitstreamVeraSans-Roman-75"/>
      <use x="774.466796875" xlink:href="#BitstreamVeraSans-Roman-6e"/>
      <use x="837.845703125" xlink:href="#BitstreamVeraSans-Roman-63"/>
      <use x="892.826171875" xlink:href="#BitstreamVeraSans-Roman-74"/>
      <use x="932.03515625" xlink:href="#BitstreamVeraSans-Roman-69"/>
      <use x="959.818359375" xlink:href="#BitstreamVeraSans-Roman-6f"/>
      <use x="1021.0" xlink:href="#BitstreamVeraSans-Roman-6e"/>
      <use x="1084.37890625" xlink:href="#BitstreamVeraSans-Roman-2b"/>
      <use x="1168.16796875" xlink:href="#BitstreamVeraSans-Roman-74"/>
      <use x="1207.37695312" xlink:href="#BitstreamVeraSans-Roman-61"/>
      <use x="1268.65625" xlink:href="#BitstreamVeraSans-Roman-72"/>
      <use x="1308.01953125" xlink:href="#BitstreamVeraSans-Roman-67"/>
      <use x="1371.49609375" xlink:href="#BitstreamVeraSans-Roman-65"/>
      <use x="1433.01953125" xlink:href="#BitstreamVeraSans-Roman-74"/>
      <use x="1472.22851562" xlink:href="#BitstreamVeraSans-Roman-20"/>
      <use x="1504.015625" xlink:href="#BitstreamVeraSans-Roman-70"/>
      <use x="1567.4921875" xlink:href="#BitstreamVeraSans-Roman-61"/>
      <use x="1628.77148438" xlink:href="#BitstreamVeraSans-Roman-69"/>
      <use x="1656.5546875" xlink:href="#BitstreamVeraSans-Roman-72"/>
      <use x="1697.66796875" xlink:href="#BitstreamVeraSans-Roman-73"/>
     </g>
    </g>
   </g>
   <g id="patch_3">
    <path d="
M85.2 30.4362
L531.6 30.4362" style="fill:none;stroke:#000000;"/>
   </g>
   <g id="patch_4">
    <path d="
M531.6 376.036
L531.6 30.4362" style="fill:none;stroke:#000000;"/>
   </g>
   <g id="patch_5">
    <path d="
M85.2 376.036
L531.6 376.036" style="fill:none;stroke:#000000;"/>
   </g>
   <g id="patch_6">
    <path d="
M85.2 376.036
L85.2 30.4362" style="fill:none;stroke:#000000;"/>
   </g>
   <g id="text_18">
    <!-- Generatin -->
    <defs>
     <path d="
M59.5156 10.4062
L59.5156 29.9844
L43.4062 29.9844
L43.4062 38.0938
L69.2812 38.0938
L69.2812 6.78125
Q63.5781 2.73438 56.6875 0.65625
Q49.8125 -1.42188 42 -1.42188
Q24.9062 -1.42188 15.25 8.5625
Q5.60938 18.5625 5.60938 36.375
Q5.60938 54.25 15.25 64.2344
Q24.9062 74.2188 42 74.2188
Q49.125 74.2188 55.5469 72.4531
Q61.9688 70.7031 67.3906 67.2812
L67.3906 56.7812
Q61.9219 61.4219 55.7656 63.7656
Q49.6094 66.1094 42.8281 66.1094
Q29.4375 66.1094 22.7188 58.6406
Q16.0156 51.1719 16.0156 36.375
Q16.0156 21.625 22.7188 14.1562
Q29.4375 6.6875 42.8281 6.6875
Q48.0469 6.6875 52.1406 7.59375
Q56.25 8.5 59.5156 10.4062" id="BitstreamVeraSans-Roman-47"/>
    </defs>
    <g transform="translate(492.0 373.331748144)scale(0.15 -0.15)">
     <use xlink:href="#BitstreamVeraSans-Roman-47"/>
     <use x="77.490234375" xlink:href="#BitstreamVeraSans-Roman-65"/>
     <use x="139.013671875" xlink:href="#BitstreamVeraSans-Roman-6e"/>
     <use x="202.392578125" xlink:href="#BitstreamVeraSans-Roman-65"/>
     <use x="263.916015625" xlink:href="#BitstreamVeraSans-Roman-72"/>
     <use x="305.029296875" xlink:href="#BitstreamVeraSans-Roman-61"/>
     <use x="366.30859375" xlink:href="#BitstreamVeraSans-Roman-74"/>
     <use x="405.517578125" xlink:href="#BitstreamVeraSans-Roman-69"/>
     <use x="433.30078125" xlink:href="#BitstreamVeraSans-Roman-6e"/>
    </g>
   </g>
   <g id="text_19">
    <!-- best 2009 -->
    <defs>
     <path d="
M10.9844 1.51562
L10.9844 10.5
Q14.7031 8.73438 18.5 7.8125
Q22.3125 6.89062 25.9844 6.89062
Q35.75 6.89062 40.8906 13.4531
Q46.0469 20.0156 46.7812 33.4062
Q43.9531 29.2031 39.5938 26.9531
Q35.25 24.7031 29.9844 24.7031
Q19.0469 24.7031 12.6719 31.3125
Q6.29688 37.9375 6.29688 49.4219
Q6.29688 60.6406 12.9375 67.4219
Q19.5781 74.2188 30.6094 74.2188
Q43.2656 74.2188 49.9219 64.5156
Q56.5938 54.8281 56.5938 36.375
Q56.5938 19.1406 48.4062 8.85938
Q40.2344 -1.42188 26.4219 -1.42188
Q22.7031 -1.42188 18.8906 -0.6875
Q15.0938 0.046875 10.9844 1.51562
M30.6094 32.4219
Q37.25 32.4219 41.125 36.9531
Q45.0156 41.5 45.0156 49.4219
Q45.0156 57.2812 41.125 61.8438
Q37.25 66.4062 30.6094 66.4062
Q23.9688 66.4062 20.0938 61.8438
Q16.2188 57.2812 16.2188 49.4219
Q16.2188 41.5 20.0938 36.9531
Q23.9688 32.4219 30.6094 32.4219" id="BitstreamVeraSans-Roman-39"/>
     <path d="
M48.6875 27.2969
Q48.6875 37.2031 44.6094 42.8438
Q40.5312 48.4844 33.4062 48.4844
Q26.2656 48.4844 22.1875 42.8438
Q18.1094 37.2031 18.1094 27.2969
Q18.1094 17.3906 22.1875 11.75
Q26.2656 6.10938 33.4062 6.10938
Q40.5312 6.10938 44.6094 11.75
Q48.6875 17.3906 48.6875 27.2969
M18.1094 46.3906
Q20.9531 51.2656 25.2656 53.625
Q29.5938 56 35.5938 56
Q45.5625 56 51.7812 48.0938
Q58.0156 40.1875 58.0156 27.2969
Q58.0156 14.4062 51.7812 6.48438
Q45.5625 -1.42188 35.5938 -1.42188
Q29.5938 -1.42188 25.2656 0.953125
Q20.9531 3.32812 18.1094 8.20312
L18.1094 0
L9.07812 0
L9.07812 75.9844
L18.1094 75.9844
z
" id="BitstreamVeraSans-Roman-62"/>
    </defs>
    <g transform="translate(492.0 44.8406590347)scale(0.15 -0.15)">
     <use xlink:href="#BitstreamVeraSans-Roman-62"/>
     <use x="63.4765625" xlink:href="#BitstreamVeraSans-Roman-65"/>
     <use x="125.0" xlink:href="#BitstreamVeraSans-Roman-73"/>
     <use x="177.099609375" xlink:href="#BitstreamVeraSans-Roman-74"/>
     <use x="216.30859375" xlink:href="#BitstreamVeraSans-Roman-20"/>
     <use x="248.095703125" xlink:href="#BitstreamVeraSans-Roman-32"/>
     <use x="311.71875" xlink:href="#BitstreamVeraSans-Roman-30"/>
     <use x="375.341796875" xlink:href="#BitstreamVeraSans-Roman-30"/>
     <use x="438.96484375" xlink:href="#BitstreamVeraSans-Roman-39"/>
    </g>
   </g>
   <g id="text_20">
    <!-- bbob - f8, 20-D -->
    <defs>
     <path d="
M11.7188 12.4062
L22.0156 12.4062
L22.0156 4
L14.0156 -11.625
L7.71875 -11.625
L11.7188 4
z
" id="BitstreamVeraSans-Roman-2c"/>
     <path d="
M19.6719 64.7969
L19.6719 8.10938
L31.5938 8.10938
Q46.6875 8.10938 53.6875 14.9375
Q60.6875 21.7812 60.6875 36.5312
Q60.6875 51.1719 53.6875 57.9844
Q46.6875 64.7969 31.5938 64.7969
z

M9.8125 72.9062
L30.0781 72.9062
Q51.2656 72.9062 61.1719 64.0938
Q71.0938 55.2812 71.0938 36.5312
Q71.0938 17.6719 61.125 8.82812
Q51.1719 0 30.0781 0
L9.8125 0
z
" id="BitstreamVeraSans-Roman-44"/>
    </defs>
    <g transform="translate(89.664 50.007246875)scale(0.1666 -0.1666)">
     <use xlink:href="#BitstreamVeraSans-Roman-62"/>
     <use x="63.4765625" xlink:href="#BitstreamVeraSans-Roman-62"/>
     <use x="126.953125" xlink:href="#BitstreamVeraSans-Roman-6f"/>
     <use x="188.134765625" xlink:href="#BitstreamVeraSans-Roman-62"/>
     <use x="251.611328125" xlink:href="#BitstreamVeraSans-Roman-20"/>
     <use x="283.3984375" xlink:href="#BitstreamVeraSans-Roman-2d"/>
     <use x="319.482421875" xlink:href="#BitstreamVeraSans-Roman-20"/>
     <use x="351.26953125" xlink:href="#BitstreamVeraSans-Roman-66"/>
     <use x="386.474609375" xlink:href="#BitstreamVeraSans-Roman-38"/>
     <use x="450.09765625" xlink:href="#BitstreamVeraSans-Roman-2c"/>
     <use x="481.884765625" xlink:href="#BitstreamVeraSans-Roman-20"/>
     <use x="513.671875" xlink:href="#BitstreamVeraSans-Roman-32"/>
     <use x="577.294921875" xlink:href="#BitstreamVeraSans-Roman-30"/>
     <use x="640.91796875" xlink:href="#BitstreamVeraSans-Roman-2d"/>
     <use x="677.001953125" xlink:href="#BitstreamVeraSans-Roman-44"/>
    </g>
    <!-- 51 targets in 100..1e-08 -->
    <g transform="translate(89.664 68.6628025)scale(0.1666 -0.1666)">
     <use xlink:href="#BitstreamVeraSans-Roman-35"/>
     <use x="63.623046875" xlink:href="#BitstreamVeraSans-Roman-31"/>
     <use x="127.24609375" xlink:href="#BitstreamVeraSans-Roman-20"/>
     <use x="159.033203125" xlink:href="#BitstreamVeraSans-Roman-74"/>
     <use x="198.2421875" xlink:href="#BitstreamVeraSans-Roman-61"/>
     <use x="259.521484375" xlink:href="#BitstreamVeraSans-Roman-72"/>
     <use x="298.884765625" xlink:href="#BitstreamVeraSans-Roman-67"/>
     <use x="362.361328125" xlink:href="#BitstreamVeraSans-Roman-65"/>
     <use x="423.884765625" xlink:href="#BitstreamVeraSans-Roman-74"/>
     <use x="463.09375" xlink:href="#BitstreamVeraSans-Roman-73"/>
     <use x="515.193359375" xlink:href="#BitstreamVeraSans-Roman-20"/>
     <use x="546.98046875" xlink:href="#BitstreamVeraSans-Roman-69"/>
     <use x="574.763671875" xlink:href="#BitstreamVeraSans-Roman-6e"/>
     <use x="638.142578125" xlink:href="#BitstreamVeraSans-Roman-20"/>
     <use x="669.9296875" xlink:href="#BitstreamVeraSans-Roman-31"/>
     <use x="733.552734375" xlink:href="#BitstreamVeraSans-Roman-30"/>
     <use x="797.17578125" xlink:href="#BitstreamVeraSans-Roman-30"/>
     <use x="860.798828125" xlink:href="#BitstreamVeraSans-Roman-2e"/>
     <use x="892.5859375" xlink:href="#BitstreamVeraSans-Roman-2e"/>
     <use x="924.373046875" xlink:href="#BitstreamVeraSans-Roman-31"/>
     <use x="987.99609375" xlink:href="#BitstreamVeraSans-Roman-65"/>
     <use x="1049.51953125" xlink:href="#BitstreamVeraSans-Roman-2d"/>
     <use x="1085.60351562" xlink:href="#BitstreamVeraSans-Roman-30"/>
     <use x="1149.2265625" xlink:href="#BitstreamVeraSans-Roman-38"/>
    </g>
    <!-- 15 instances -->
    <g transform="translate(89.664 87.318358125)scale(0.1666 -0.1666)">
     <use xlink:href="#BitstreamVeraSans-Roman-31"/>
     <use x="63.623046875" xlink:href="#BitstreamVeraSans-Roman-35"/>
     <use x="127.24609375" xlink:href="#BitstreamVeraSans-Roman-20"/>
     <use x="159.033203125" xlink:href="#BitstreamVeraSans-Roman-69"/>
     <use x="186.81640625" xlink:href="#BitstreamVeraSans-Roman-6e"/>
     <use x="250.1953125" xlink:href="#BitstreamVeraSans-Roman-73"/>
     <use x="302.294921875" xlink:href="#BitstreamVeraSans-Roman-74"/>
     <use x="341.50390625" xlink:href="#BitstreamVeraSans-Roman-61"/>
     <use x="402.783203125" xlink:href="#BitstreamVeraSans-Roman-6e"/>
     <use x="466.162109375" xlink:href="#BitstreamVeraSans-Roman-63"/>
     <use x="521.142578125" xlink:href="#BitstreamVeraSans-Roman-65"/>
     <use x="582.666015625" xlink:href="#BitstreamVeraSans-Roman-73"/>
    </g>
   </g>
   <g id="text_21">
    <!-- 0.0.0 -->
    <g style="fill:#808080;" transform="translate(296.33984375 370.5005625)scale(0.1 -0.1)">
     <use xlink:href="#BitstreamVeraSans-Roman-30"/>
     <use x="63.623046875" xlink:href="#BitstreamVeraSans-Roman-2e"/>
     <use x="95.41015625" xlink:href="#BitstreamVeraSans-Roman-30"/>
     <use x="159.033203125" xlink:href="#BitstreamVeraSans-Roman-2e"/>
     <use x="190.8203125" xlink:href="#BitstreamVeraSans-Roman-30"/>
    </g>
   </g>
   <g id="text_22">
    <!-- 8 Rosenbrock original -->
    <defs>
     <path d="
M44.3906 34.1875
Q47.5625 33.1094 50.5625 29.5938
Q53.5625 26.0781 56.5938 19.9219
L66.6094 0
L56 0
L46.6875 18.7031
Q43.0625 26.0312 39.6719 28.4219
Q36.2812 30.8125 30.4219 30.8125
L19.6719 30.8125
L19.6719 0
L9.8125 0
L9.8125 72.9062
L32.0781 72.9062
Q44.5781 72.9062 50.7344 67.6719
Q56.8906 62.4531 56.8906 51.9062
Q56.8906 45.0156 53.6875 40.4688
Q50.4844 35.9375 44.3906 34.1875
M19.6719 64.7969
L19.6719 38.9219
L32.0781 38.9219
Q39.2031 38.9219 42.8438 42.2188
Q46.4844 45.5156 46.4844 51.9062
Q46.4844 58.2969 42.8438 61.5469
Q39.2031 64.7969 32.0781 64.7969
z
" id="BitstreamVeraSans-Roman-52"/>
     <path d="
M9.07812 75.9844
L18.1094 75.9844
L18.1094 31.1094
L44.9219 54.6875
L56.3906 54.6875
L27.3906 29.1094
L57.625 0
L45.9062 0
L18.1094 26.7031
L18.1094 0
L9.07812 0
z
" id="BitstreamVeraSans-Roman-6b"/>
    </defs>
    <g transform="translate(179.8575 25.43625)scale(0.24 -0.24)">
     <use xlink:href="#BitstreamVeraSans-Roman-38"/>
     <use x="63.623046875" xlink:href="#BitstreamVeraSans-Roman-20"/>
     <use x="95.41015625" xlink:href="#BitstreamVeraSans-Roman-52"/>
     <use x="160.392578125" xlink:href="#BitstreamVeraSans-Roman-6f"/>
     <use x="221.57421875" xlink:href="#BitstreamVeraSans-Roman-73"/>
     <use x="273.673828125" xlink:href="#BitstreamVeraSans-Roman-65"/>
     <use x="335.197265625" xlink:href="#BitstreamVeraSans-Roman-6e"/>
     <use x="398.576171875" xlink:href="#BitstreamVeraSans-Roman-62"/>
     <use x="462.052734375" xlink:href="#BitstreamVeraSans-Roman-72"/>
     <use x="500.916015625" xlink:href="#BitstreamVeraSans-Roman-6f"/>
     <use x="562.09765625" xlink:href="#BitstreamVeraSans-Roman-63"/>
     <use x="617.078125" xlink:href="#BitstreamVeraSans-Roman-6b"/>
     <use x="674.98828125" xlink:href="#BitstreamVeraSans-Roman-20"/>
     <use x="706.775390625" xlink:href="#BitstreamVeraSans-Roman-6f"/>
     <use x="767.95703125" xlink:href="#BitstreamVeraSans-Roman-72"/>
     <use x="809.0703125" xlink:href="#BitstreamVeraSans-Roman-69"/>
     <use x="836.853515625" xlink:href="#BitstreamVeraSans-Roman-67"/>
     <use x="900.330078125" xlink:href="#BitstreamVeraSans-Roman-69"/>
     <use x="928.11328125" xlink:href="#BitstreamVeraSans-Roman-6e"/>
     <use x="991.4921875" xlink:href="#BitstreamVeraSans-Roman-61"/>
     <use x="1052.77148438" xlink:href="#BitstreamVeraSans-Roman-6c"/>
    </g>
   </g>
  </g>
 </g>
 <defs>
  <clipPath id="p6ea69091fa">
   <rect height="345.6" width="446.4" x="85.2" y="30.43625"/>
  </clipPath>
 </defs>
</svg>
