<?xml version="1.0" encoding="utf-8" standalone="no"?>
<!DOCTYPE svg PUBLIC "-//W3C//DTD SVG 1.1//EN"
  "http://www.w3.org/Graphics/SVG/1.1/DTD/svg11.dtd">
<!-- Created with matplotlib (http://matplotlib.org/) -->
<svg height="407pt" version="1.1" viewBox="0 0 460 407" width="460pt" xmlns="http://www.w3.org/2000/svg" xmlns:xlink="http://www.w3.org/1999/xlink">
 <defs>
  <style type="text/css">
*{stroke-linecap:butt;stroke-linejoin:round;}
  </style>
 </defs>
 <g id="figure_1">
  <g id="patch_1">
   <path d="
M0 407.712
L460.8 407.712
L460.8 0
L0 0
z
" style="fill:#ffffff;"/>
  </g>
  <g id="axes_1">
   <g id="patch_2">
    <path d="
M7.2 352.8
L453.6 352.8
L453.6 7.2
L7.2 7.2
z
" style="fill:#ffffff;"/>
   </g>
   <g id="line2d_1">
    <path clip-path="url(#p99b4b0da67)" d="
M-1 312.879
L0.954781 312.879
L0.954781 311.929
L6.96415 311.929
L6.96415 310.978
L7.0865 310.978
L7.1889 275.81
L11.2687 275.81
L11.2687 274.859
L15.0592 274.859
L15.0592 273.909
L17.4498 273.909
L17.4498 272.958
L18.0192 272.958
L18.0192 272.008
L24.6883 272.008
L24.6883 271.057
L25.4149 271.057
L25.4149 270.107
L26.8624 270.107
L26.8624 269.156
L28.8606 269.156
L28.8606 268.206
L31.2273 268.206
L31.2418 266.305
L35.3913 266.305
L35.3913 265.354
L37.5855 265.354
L37.5855 264.404
L38.9937 264.404
L38.9937 263.453
L39.3215 263.453
L39.3215 262.503
L66.9752 262.503
L66.9752 261.552
L88.9663 261.552
L88.9663 260.602
L92.5173 260.602
L92.5173 259.651
L94.5157 259.651
L94.5157 258.701
L95.0285 258.701
L95.0285 257.75
L97.8066 257.75
L97.8066 256.8
L100.516 256.8
L100.574 253.949
L101.553 253.949
L101.662 252.048
L101.684 252.048
L101.783 249.196
L102.159 249.196
L102.159 248.246
L102.283 248.246
L102.283 247.295
L102.521 247.295
L102.521 246.345
L103.493 246.345
L103.493 245.394
L105.401 245.394
L105.401 244.444
L111.513 244.444
L111.513 243.493
L116.732 243.493
L116.732 242.543
L123.815 242.543
L123.815 241.592
L124.246 241.592
L124.246 240.642
L126.396 240.642
L126.396 239.691
L128.676 239.691
L128.676 238.741
L129.335 238.741
L129.335 237.79
L132.996 237.79
L132.996 236.84
L134.048 236.84
L134.048 235.889
L135.841 235.889
L135.915 233.988
L137.985 233.988
L137.985 233.038
L138.508 233.038
L138.508 232.087
L139.463 232.087
L139.463 231.137
L139.875 231.137
L139.875 230.186
L140.063 230.186
L140.063 229.236
L142.125 229.236
L142.125 228.285
L142.813 228.285
L142.813 227.335
L145.776 227.335
L145.776 226.384
L147.141 226.384
L147.141 225.434
L147.307 225.434
L147.307 224.483
L149.319 224.483
L149.319 223.533
L150.107 223.533
L150.107 222.582
L151.098 222.582
L151.098 221.632
L152.005 221.632
L152.005 220.681
L152.416 220.681
L152.416 219.731
L153.695 219.731
L153.695 218.78
L154.388 218.78
L154.388 217.83
L154.935 217.83
L154.935 216.879
L155.445 216.879
L155.445 215.929
L155.57 215.929
L155.57 214.978
L158.23 214.978
L158.23 214.028
L162.383 214.028
L162.383 213.077
L162.541 213.077
L162.541 212.127
L163.402 212.127
L163.402 211.176
L166.094 211.176
L166.094 210.226
L166.234 210.226
L166.234 209.275
L167.074 209.275
L167.074 208.325
L169.053 208.325
L169.053 207.374
L170.005 207.374
L170.005 206.424
L172.428 206.424
L172.428 205.473
L172.652 205.473
L172.683 203.572
L174.106 203.572
L174.106 202.622
L175.637 202.622
L175.637 201.671
L178.061 201.671
L178.061 200.721
L180.174 200.721
L180.174 199.77
L182.368 199.77
L182.368 198.82
L182.877 198.82
L182.877 197.869
L184.467 197.869
L184.467 196.919
L185.557 196.919
L185.557 195.968
L186.793 195.968
L186.793 195.018
L197.801 195.018
L197.801 194.067
L199.577 194.067
L199.577 193.117
L200.739 193.117
L200.739 192.166
L200.915 192.166
L200.915 191.216
L201.414 191.216
L201.414 176.958
L202.615 176.958
L202.615 176.008
L206.382 176.008
L206.382 175.057
L207.314 175.057
L207.314 174.107
L208.99 174.107
L208.99 173.156
L210.935 173.156
L210.935 172.206
L211.608 172.206
L211.675 170.305
L212.147 170.305
L212.195 168.404
L212.437 168.404
L212.493 166.503
L212.624 166.503
L212.662 164.602
L213.008 164.602
L213.008 161.75
L213.284 161.75
L213.284 160.8
L214.08 160.8
L214.08 158.899
L214.234 158.899
L214.234 157.949
L214.372 157.949
L214.372 156.998
L214.798 156.998
L214.798 156.048
L215.604 156.048
L215.604 155.097
L215.732 155.097
L215.732 154.147
L215.985 154.147
L216.021 151.295
L216.596 151.295
L216.596 150.345
L217.509 150.345
L217.509 149.394
L218.013 149.394
L218.013 148.444
L218.5 148.444
L218.5 147.493
L218.754 147.493
L218.754 146.543
L219.672 146.543
L219.713 144.642
L220.263 144.642
L220.263 143.691
L220.565 143.691
L220.565 142.741
L220.894 142.741
L220.894 141.79
L221.038 141.79
L221.038 140.84
L221.222 140.84
L221.222 139.889
L222.151 139.889
L222.247 137.988
L223.228 137.988
L223.228 137.038
L223.841 137.038
L223.934 135.137
L224.231 135.137
L224.231 134.186
L224.377 134.186
L224.45 132.285
L224.597 132.285
L224.597 131.335
L224.858 131.335
L224.876 124.681
L225.114 124.681
L225.114 123.731
L225.775 123.731
L225.883 121.83
L226.958 121.83
L226.958 120.879
L227.089 120.879
L227.189 118.028
L227.539 118.028
L227.539 117.077
L227.687 117.077
L227.687 116.127
L227.954 116.127
L227.954 115.176
L228.208 115.176
L228.315 112.325
L228.363 112.325
L228.387 110.424
L232.986 110.424
L232.986 109.473
L233.26 109.473
L233.26 108.523
L235.196 108.523
L235.196 107.572
L235.712 107.572
L235.716 103.77
L236.118 103.77
L236.118 102.82
L238.158 102.82
L238.158 101.869
L239.425 101.869
L239.425 100.919
L239.842 100.919
L239.914 99.0178
L241.499 99.0178
L241.499 98.0673
L241.943 98.0673
L241.943 97.1168
L246.411 97.1168
L246.411 96.1663
L248.78 96.1663
L248.78 95.2158
L250.123 95.2158
L250.123 94.2653
L250.362 94.2653
L250.362 93.3149
L251.677 93.3149
L251.677 92.3644
L252.412 92.3644
L252.412 90.4634
L252.919 90.4634
L252.919 88.5624
L253.405 88.5624
L253.405 86.6614
L253.87 86.6614
L253.87 85.7109
L254.038 85.7109
L254.038 84.7604
L254.318 84.7604
L254.318 82.8594
L254.748 82.8594
L254.748 80.9584
L254.933 80.9584
L254.933 80.0079
L255.163 80.0079
L255.163 79.0574
L255.563 79.0574
L255.563 76.2059
L256.296 76.2059
L256.324 73.3545
L256.686 73.3545
L256.686 72.404
L257.037 72.404
L257.037 69.5525
L257.378 69.5525
L257.378 68.602
L257.709 68.602
L257.709 66.701
L258.647 66.701
L258.647 63.8495
L259.232 63.8495
L259.232 61.9485
L259.513 61.9485
L259.513 60.0475
L260.826 60.0475
L260.826 58.1465
L261.311 58.1465
L261.311 54.3446
L261.547 54.3446
L261.547 53.3941
L261.813 53.3941
L261.813 52.4436
L263.665 52.4436
L263.665 51.4931
L264.231 51.4931
L264.231 50.5426
L264.413 50.5426
L264.413 49.5921
L265.369 49.5921
L265.369 48.6416
L266.864 48.6416
L266.864 47.6911
L266.995 47.6911
L266.995 46.7406
L269.91 46.7406
L269.91 45.7901
L270.263 45.7901
L270.263 44.8396
L270.569 44.8396
L270.569 43.8891
L271.118 43.8891
L271.118 42.9386
L271.753 42.9386
L271.753 41.9881
L271.967 41.9881
L272.077 39.1366
L272.285 39.1366
L272.327 36.2851
L272.606 36.2851
L272.606 35.3347
L272.807 35.3347
L272.887 33.4337
L272.972 33.4337
L272.972 32.4832
L273.282 32.4832
L273.282 31.5327
L273.714 31.5327
L273.714 30.5822
L273.957 30.5822
L273.957 29.6317
L274.083 29.6317
L274.083 28.6812
L275.346 28.6812
L275.346 27.7307
L275.895 27.7307
L275.895 26.7802
L276.612 26.7802
L276.612 25.8297
L279.391 25.8297
L279.391 24.8792
L279.918 24.8792
L279.918 23.9287
L281.795 23.9287
L281.795 22.9782
L282.366 22.9782
L282.416 21.0772
L282.727 21.0772
L282.727 20.1267
L283.899 20.1267
L283.899 19.1762
L284.265 19.1762
L284.265 18.2257
L284.837 18.2257
L284.837 17.2752
L284.973 17.2752
L284.973 16.3248
L286.484 16.3248
L286.484 15.3743
L286.944 15.3743
L286.944 14.4238
L287.154 14.4238
L287.154 13.4733
L287.4 13.4733
L287.4 12.5228
L288.98 12.5228
L288.98 11.5723
L291.08 11.5723
L291.08 10.6218
L291.08 10.6218
L453.6 10.6218
L453.6 10.6218" style="fill:none;stroke:#ff0000;stroke-linecap:square;stroke-width:3.0;"/>
   </g>
   <g id="line2d_2">
    <path clip-path="url(#p99b4b0da67)" d="
M201.414 352.8
L201.414 351.85
L201.414 351.85
L201.414 351.85
L201.414 350.899
L201.414 350.899
L201.414 350.899
L201.414 349.949
L201.414 349.949
L201.414 349.949
L201.414 348.998
L201.414 348.998
L201.414 348.998
L201.414 348.048
L201.414 348.048
L201.414 348.048
L201.414 347.097
L201.414 347.097
L201.414 347.097
L201.414 346.147
L201.414 346.147
L201.414 346.147
L201.414 345.196
L201.414 345.196
L201.414 345.196
L201.414 344.246
L201.414 344.246
L201.414 344.246
L201.414 343.295
L201.414 343.295
L201.414 343.295
L201.414 342.345
L201.414 342.345
L201.414 342.345
L201.414 341.394
L201.414 341.394
L201.414 341.394
L201.414 340.444
L201.414 340.444
L201.414 340.444
L201.414 339.493
L201.414 339.493
L201.414 339.493
L201.414 338.543
L235.976 338.543
L235.976 337.592
L236.916 337.592
L236.916 336.642
L238.642 336.642
L238.642 335.691
L238.848 335.691
L238.891 333.79
L241.141 333.79
L241.205 331.889
L241.614 331.889
L241.614 330.939
L242.323 330.939
L242.405 329.038
L242.617 329.038
L242.698 327.137
L242.755 327.137
L242.755 326.186
L243.776 326.186
L243.776 325.236
L243.956 325.236
L243.956 324.285
L244.093 324.285
L244.093 323.335
L244.938 323.335
L244.938 322.384
L245.724 322.384
L245.724 321.434
L246.353 321.434
L246.353 320.483
L246.659 320.483
L246.659 319.533
L246.862 319.533
L246.862 318.582
L247.119 318.582
L247.119 317.632
L248.597 317.632
L248.597 316.681
L249.089 316.681
L249.089 315.731
L250 315.731
L250.05 313.83
L250.358 313.83
L250.358 312.879
L250.595 312.879
L250.595 311.929
L251.12 311.929
L251.12 310.978
L251.364 310.978
L251.364 310.028
L253.51 310.028
L253.561 308.127
L255.356 308.127
L255.356 307.176
L256.725 307.176
L256.725 306.226
L256.942 306.226
L256.942 305.275
L257.263 305.275
L257.263 304.325
L257.997 304.325
L257.997 303.374
L258.229 303.374
L258.339 301.473
L259.563 301.473
L259.645 299.572
L260.407 299.572
L260.407 298.622
L260.519 298.622
L260.519 297.671
L260.731 297.671
L260.837 295.77
L261.127 295.77
L261.127 294.82
L261.462 294.82
L261.571 292.919
L261.79 292.919
L261.889 291.018
L262.013 291.018
L262.027 288.166
L262.486 288.166
L262.486 287.216
L262.829 287.216
L262.931 285.315
L262.994 285.315
L262.994 284.364
L263.191 284.364
L263.191 283.414
L263.525 283.414
L263.525 282.463
L264.228 282.463
L264.228 281.513
L264.498 281.513
L264.581 278.661
L264.843 278.661
L264.887 276.76
L265.031 276.76
L265.031 275.81
L265.212 275.81
L265.273 273.909
L265.326 273.909
L265.387 272.008
L265.487 272.008
L265.487 271.057
L265.802 271.057
L265.802 270.107
L265.99 270.107
L265.99 269.156
L266.365 269.156
L266.365 268.206
L266.508 268.206
L266.508 267.255
L266.627 267.255
L266.736 260.602
L266.777 260.602
L266.858 257.75
L266.894 257.75
L266.94 254.899
L267.065 254.899
L267.085 252.998
L267.264 252.998
L267.319 250.147
L267.448 250.147
L267.557 245.394
L267.587 245.394
L267.666 243.493
L267.709 243.493
L267.811 241.592
L268.511 241.592
L268.511 240.642
L268.898 240.642
L268.898 239.691
L269.032 239.691
L269.032 238.741
L269.242 238.741
L269.242 237.79
L269.47 237.79
L269.47 236.84
L269.856 236.84
L269.856 235.889
L270.056 235.889
L270.137 233.988
L270.203 233.988
L270.203 233.038
L270.961 233.038
L270.986 231.137
L271.294 231.137
L271.294 230.186
L272.092 230.186
L272.149 214.978
L272.218 214.978
L272.272 212.127
L274.11 212.127
L274.11 211.176
L275.354 211.176
L275.354 210.226
L280.07 210.226
L280.07 209.275
L281.101 209.275
L281.101 208.325
L281.236 208.325
L281.236 207.374
L281.698 207.374
L281.808 205.473
L281.948 205.473
L282.019 203.572
L282.206 203.572
L282.206 202.622
L282.412 202.622
L282.451 198.82
L282.534 198.82
L282.582 196.919
L282.761 196.919
L282.761 195.968
L282.881 195.968
L282.94 194.067
L283.019 194.067
L283.019 193.117
L283.139 193.117
L283.149 191.216
L283.776 191.216
L283.776 190.265
L284.023 190.265
L284.124 187.414
L284.145 187.414
L284.145 186.463
L284.32 186.463
L284.425 184.562
L284.484 184.562
L284.484 183.612
L285.053 183.612
L285.056 181.711
L286.85 181.711
L286.85 180.76
L287.244 180.76
L287.244 179.81
L287.956 179.81
L287.956 178.859
L288.175 178.859
L288.175 177.909
L288.508 177.909
L288.602 175.057
L288.71 175.057
L288.71 174.107
L288.986 174.107
L289.039 172.206
L289.308 172.206
L289.308 171.255
L289.461 171.255
L289.48 169.354
L289.642 169.354
L289.642 168.404
L289.777 168.404
L289.777 167.453
L290.052 167.453
L290.086 165.552
L290.354 165.552
L290.465 163.651
L290.517 163.651
L290.623 160.8
L290.968 160.8
L290.968 159.85
L291.132 159.85
L291.181 157.949
L291.314 157.949
L291.314 156.998
L291.6 156.998
L291.676 155.097
L291.792 155.097
L291.861 152.246
L292.135 152.246
L292.245 147.493
L292.292 147.493
L292.327 145.592
L292.615 145.592
L292.668 143.691
L293.083 143.691
L293.152 140.84
L293.359 140.84
L293.359 139.889
L293.626 139.889
L293.626 138.939
L293.892 138.939
L293.892 137.988
L294.929 137.988
L294.939 136.087
L295.062 136.087
L295.081 134.186
L295.305 134.186
L295.39 132.285
L295.7 132.285
L295.741 130.384
L295.886 130.384
L295.886 129.434
L296.027 129.434
L296.027 128.483
L296.443 128.483
L296.443 127.533
L297.646 127.533
L297.646 126.582
L299.117 126.582
L299.117 125.632
L299.848 125.632
L299.848 124.681
L301.147 124.681
L301.173 122.78
L301.343 122.78
L301.343 121.83
L302.546 121.83
L302.546 120.879
L302.659 120.879
L302.659 119.929
L303.056 119.929
L303.056 118.978
L303.358 118.978
L303.358 118.028
L303.497 118.028
L303.497 117.077
L303.634 117.077
L303.634 116.127
L303.754 116.127
L303.754 115.176
L303.988 115.176
L304.02 113.275
L304.714 113.275
L304.714 112.325
L304.94 112.325
L304.94 111.374
L305.108 111.374
L305.108 110.424
L305.452 110.424
L305.452 109.473
L320.347 109.473
L320.347 108.523
L321.817 108.523
L321.817 107.572
L326.976 107.572
L326.976 106.622
L327.365 106.622
L327.365 105.671
L327.551 105.671
L327.551 104.721
L329.178 104.721
L329.178 95.2158
L330.297 95.2158
L330.297 94.2653
L331.63 94.2653
L331.63 93.3149
L333.197 93.3149
L333.197 92.3644
L337.481 92.3644
L337.481 91.4139
L337.853 91.4139
L337.853 90.4634
L340.037 90.4634
L340.082 88.5624
L340.274 88.5624
L340.274 87.6119
L340.484 87.6119
L340.484 86.6614
L340.638 86.6614
L340.638 85.7109
L340.761 85.7109
L340.761 84.7604
L341.337 84.7604
L341.337 83.8099
L341.755 83.8099
L341.755 82.8594
L342.214 82.8594
L342.214 81.9089
L342.847 81.9089
L342.847 80.9584
L343.149 80.9584
L343.149 80.0079
L344.178 80.0079
L344.178 79.0574
L344.525 79.0574
L344.525 78.1069
L344.939 78.1069
L344.939 77.1564
L345.533 77.1564
L345.533 76.2059
L347.398 76.2059
L347.398 75.2554
L349.844 75.2554
L349.844 74.305
L350.071 74.305
L350.071 73.3545
L350.665 73.3545
L350.665 72.404
L358.251 72.404
L358.251 71.4535
L359.965 71.4535
L359.965 70.503
L361.575 70.503
L361.575 69.5525
L361.831 69.5525
L361.831 68.602
L361.952 68.602
L361.952 67.6515
L362.205 67.6515
L362.205 66.701
L363.966 66.701
L363.966 65.7505
L367.088 65.7505
L367.088 64.8
L368.543 64.8
L368.543 63.8495
L368.664 63.8495
L368.664 62.899
L369.28 62.899
L369.28 61.9485
L369.756 61.9485
L369.808 60.0475
L371.886 60.0475
L371.886 59.097
L372.138 59.097
L372.138 58.1465
L372.972 58.1465
L372.972 57.196
L376.03 57.196
L376.03 56.2455
L378.978 56.2455
L378.978 55.295
L379.545 55.295
L379.545 54.3446
L380.954 54.3446
L380.954 53.3941
L382.805 53.3941
L382.805 52.4436
L384.191 52.4436
L384.261 50.5426
L386.759 50.5426
L386.759 49.5921
L387.1 49.5921
L387.1 48.6416
L387.971 48.6416
L387.971 47.6911
L388.186 47.6911
L388.186 46.7406
L388.649 46.7406
L388.649 45.7901
L390.446 45.7901
L390.446 44.8396
L390.747 44.8396
L390.747 43.8891
L392.278 43.8891
L392.278 42.9386
L393.071 42.9386
L393.071 41.9881
L393.202 41.9881
L393.202 41.0376
L393.365 41.0376
L393.365 40.0871
L393.827 40.0871
L393.827 39.1366
L394.825 39.1366
L394.88 37.2356
L395.486 37.2356
L395.486 36.2851
L397.334 36.2851
L397.334 35.3347
L398.196 35.3347
L398.196 34.3842
L398.328 34.3842
L398.328 33.4337
L398.533 33.4337
L398.533 32.4832
L399.164 32.4832
L399.223 30.5822
L399.815 30.5822
L399.815 29.6317
L400.286 29.6317
L400.286 28.6812
L401.535 28.6812
L401.535 27.7307
L402.154 27.7307
L402.154 26.7802
L403.1 26.7802
L403.1 25.8297
L404.096 25.8297
L404.096 24.8792
L426.262 24.8792
L426.262 23.9287
L426.825 23.9287
L426.825 22.9782
L428.185 22.9782
L428.185 22.0277
L428.68 22.0277
L428.68 21.0772
L429.147 21.0772
L429.147 20.1267
L430.007 20.1267
L430.007 19.1762
L430.871 19.1762
L430.871 18.2257
L431.758 18.2257
L431.758 17.2752
L433.197 17.2752
L433.197 16.3248
L434.143 16.3248
L434.167 14.4238
L434.321 14.4238
L434.321 13.4733
L440.793 13.4733
L440.793 12.5228
L442.302 12.5228
L442.302 11.5723
L444.219 11.5723
L444.219 10.6218
L444.219 10.6218
L453.6 10.6218
L453.6 10.6218" style="fill:none;stroke:#00bfbf;stroke-linecap:square;"/>
   </g>
   <g id="line2d_3">
    <path clip-path="url(#p99b4b0da67)" d="
M201.414 352.8
L201.414 351.85
L201.414 351.85
L201.414 351.85
L201.414 350.899
L201.414 350.899
L201.414 350.899
L201.414 349.949
L201.414 349.949
L201.414 349.949
L201.414 348.998
L201.414 348.998
L201.414 348.998
L201.414 348.048
L201.414 348.048
L201.414 348.048
L201.414 347.097
L201.414 347.097
L201.414 347.097
L201.414 346.147
L201.414 346.147
L201.414 346.147
L201.414 345.196
L201.414 345.196
L201.414 345.196
L201.414 344.246
L201.414 344.246
L201.414 344.246
L201.414 343.295
L201.414 343.295
L201.414 343.295
L201.414 342.345
L201.414 342.345
L201.414 342.345
L201.414 341.394
L201.414 341.394
L201.414 341.394
L201.414 340.444
L201.414 340.444
L201.414 340.444
L201.414 339.493
L201.414 339.493
L201.414 339.493
L201.414 338.543
L235.042 338.543
L235.042 337.592
L235.782 337.592
L235.782 336.642
L235.976 336.642
L235.976 335.691
L236.916 335.691
L236.916 334.741
L237.603 334.741
L237.603 333.79
L238.214 333.79
L238.214 332.84
L238.642 332.84
L238.642 331.889
L238.848 331.889
L238.891 329.988
L239.517 329.988
L239.517 329.038
L240.151 329.038
L240.151 328.087
L240.787 328.087
L240.787 327.137
L241.047 327.137
L241.141 325.236
L241.472 325.236
L241.472 324.285
L242.498 324.285
L242.498 323.335
L243.776 323.335
L243.776 322.384
L243.901 322.384
L243.956 320.483
L245.542 320.483
L245.542 319.533
L245.733 319.533
L245.733 318.582
L246.659 318.582
L246.659 317.632
L246.825 317.632
L246.891 315.731
L247.366 315.731
L247.366 314.78
L248.299 314.78
L248.299 313.83
L248.488 313.83
L248.488 312.879
L248.811 312.879
L248.91 310.978
L249.095 310.978
L249.095 310.028
L249.484 310.028
L249.484 309.077
L250.358 309.077
L250.358 308.127
L250.75 308.127
L250.75 307.176
L253.561 307.176
L253.561 306.226
L253.793 306.226
L253.793 305.275
L256.672 305.275
L256.777 303.374
L256.942 303.374
L256.942 302.424
L257.896 302.424
L257.896 301.473
L258.104 301.473
L258.203 299.572
L258.229 299.572
L258.229 298.622
L258.479 298.622
L258.533 295.77
L258.619 295.77
L258.619 294.82
L259.238 294.82
L259.316 292.919
L259.388 292.919
L259.388 291.968
L259.563 291.968
L259.645 290.067
L259.822 290.067
L259.871 288.166
L260.437 288.166
L260.503 286.265
L261.127 286.265
L261.127 285.315
L261.301 285.315
L261.301 284.364
L261.462 284.364
L261.516 282.463
L261.889 282.463
L261.889 281.513
L262.013 281.513
L262.027 279.612
L262.255 279.612
L262.34 277.711
L262.614 277.711
L262.72 274.859
L262.856 274.859
L262.856 273.909
L263.239 273.909
L263.344 272.008
L263.915 272.008
L263.915 271.057
L264.498 271.057
L264.498 270.107
L264.661 270.107
L264.661 269.156
L264.887 269.156
L264.887 268.206
L265.273 268.206
L265.273 267.255
L265.487 267.255
L265.525 265.354
L265.77 265.354
L265.77 264.404
L265.884 264.404
L265.987 262.503
L266.004 262.503
L266.004 261.552
L266.164 261.552
L266.271 256.8
L266.302 256.8
L266.302 255.85
L266.45 255.85
L266.547 251.097
L266.592 251.097
L266.703 247.295
L266.736 247.295
L266.792 245.394
L266.894 245.394
L266.982 241.592
L267.132 241.592
L267.191 239.691
L267.253 239.691
L267.316 234.939
L267.384 234.939
L267.384 233.988
L267.811 233.988
L267.811 233.038
L267.996 233.038
L267.996 232.087
L268.511 232.087
L268.511 231.137
L269.242 231.137
L269.242 230.186
L269.716 230.186
L269.716 229.236
L269.856 229.236
L269.856 228.285
L270.697 228.285
L270.774 226.384
L272.077 226.384
L272.149 211.176
L272.272 211.176
L272.272 210.226
L272.741 210.226
L272.741 209.275
L275.346 209.275
L275.346 208.325
L278.57 208.325
L278.57 207.374
L279.391 207.374
L279.391 206.424
L279.631 206.424
L279.631 205.473
L279.83 205.473
L279.83 204.523
L280.07 204.523
L280.07 203.572
L280.428 203.572
L280.536 201.671
L280.611 201.671
L280.695 199.77
L280.864 199.77
L280.967 197.869
L281.101 197.869
L281.133 195.968
L281.691 195.968
L281.691 195.018
L282.019 195.018
L282.074 193.117
L282.38 193.117
L282.45 191.216
L282.534 191.216
L282.582 189.315
L282.713 189.315
L282.761 187.414
L282.881 187.414
L282.881 185.513
L282.998 185.513
L283.095 181.711
L283.149 181.711
L283.149 180.76
L283.498 180.76
L283.502 178.859
L283.742 178.859
L283.742 177.909
L283.902 177.909
L283.902 176.958
L284.895 176.958
L284.895 176.008
L286.518 176.008
L286.621 172.206
L286.922 172.206
L286.922 171.255
L287.063 171.255
L287.063 170.305
L287.244 170.305
L287.244 169.354
L287.424 169.354
L287.424 168.404
L287.874 168.404
L287.969 165.552
L288.054 165.552
L288.054 164.602
L288.175 164.602
L288.175 163.651
L288.315 163.651
L288.401 161.75
L288.444 161.75
L288.444 160.8
L288.602 160.8
L288.602 159.85
L289.039 159.85
L289.039 158.899
L289.238 158.899
L289.282 156.998
L289.352 156.998
L289.352 156.048
L289.602 156.048
L289.618 154.147
L289.762 154.147
L289.842 151.295
L290.354 151.295
L290.465 147.493
L290.521 147.493
L290.614 143.691
L291.022 143.691
L291.022 142.741
L291.168 142.741
L291.168 141.79
L291.524 141.79
L291.603 138.939
L291.761 138.939
L291.761 137.988
L292.107 137.988
L292.201 136.087
L292.235 136.087
L292.292 134.186
L292.424 134.186
L292.424 133.236
L292.585 133.236
L292.585 132.285
L292.721 132.285
L292.721 131.335
L293.083 131.335
L293.083 130.384
L293.204 130.384
L293.204 129.434
L293.359 129.434
L293.359 128.483
L293.526 128.483
L293.526 127.533
L293.892 127.533
L293.892 126.582
L294.016 126.582
L294.016 125.632
L294.153 125.632
L294.153 124.681
L294.54 124.681
L294.54 123.731
L294.836 123.731
L294.836 122.78
L295.242 122.78
L295.242 121.83
L296.438 121.83
L296.438 120.879
L296.773 120.879
L296.773 119.929
L297.765 119.929
L297.765 118.978
L298.881 118.978
L298.881 118.028
L299.117 118.028
L299.117 117.077
L301.147 117.077
L301.147 116.127
L301.382 116.127
L301.382 115.176
L302.162 115.176
L302.162 114.226
L302.503 114.226
L302.51 112.325
L302.647 112.325
L302.682 110.424
L302.799 110.424
L302.799 109.473
L303.562 109.473
L303.562 108.523
L303.754 108.523
L303.754 107.572
L303.983 107.572
L304.02 105.671
L304.9 105.671
L304.94 103.77
L312.581 103.77
L312.581 102.82
L313.462 102.82
L313.462 101.869
L314.653 101.869
L314.653 100.919
L315.314 100.919
L315.314 99.9683
L316.442 99.9683
L316.442 99.0178
L318.772 99.0178
L318.772 98.0673
L319.245 98.0673
L319.245 97.1168
L319.551 97.1168
L319.551 96.1663
L319.892 96.1663
L319.892 95.2158
L325.877 95.2158
L325.877 94.2653
L326.725 94.2653
L326.732 92.3644
L329.062 92.3644
L329.062 91.4139
L329.178 91.4139
L329.178 85.7109
L329.434 85.7109
L329.434 84.7604
L330.832 84.7604
L330.832 83.8099
L331.63 83.8099
L331.63 82.8594
L334.596 82.8594
L334.596 81.9089
L335.814 81.9089
L335.814 80.9584
L336.307 80.9584
L336.307 80.0079
L336.981 80.0079
L336.981 79.0574
L337.58 79.0574
L337.58 78.1069
L337.853 78.1069
L337.853 77.1564
L340.037 77.1564
L340.037 76.2059
L340.53 76.2059
L340.638 74.305
L340.761 74.305
L340.761 73.3545
L341.337 73.3545
L341.337 72.404
L342.214 72.404
L342.214 71.4535
L342.847 71.4535
L342.847 70.503
L343.149 70.503
L343.149 69.5525
L344.178 69.5525
L344.178 68.602
L344.525 68.602
L344.525 67.6515
L347.515 67.6515
L347.515 66.701
L349.707 66.701
L349.707 65.7505
L353.299 65.7505
L353.299 64.8
L355.898 64.8
L355.898 63.8495
L356.975 63.8495
L357.027 61.9485
L357.337 61.9485
L357.337 60.998
L357.93 60.998
L357.93 60.0475
L367.088 60.0475
L367.088 59.097
L367.355 59.097
L367.355 58.1465
L367.882 58.1465
L367.951 56.2455
L368.505 56.2455
L368.505 55.295
L368.708 55.295
L368.708 54.3446
L369.016 54.3446
L369.016 53.3941
L374.178 53.3941
L374.178 52.4436
L376.03 52.4436
L376.03 51.4931
L378.024 51.4931
L378.024 50.5426
L378.339 50.5426
L378.339 49.5921
L379.35 49.5921
L379.35 48.6416
L379.754 48.6416
L379.754 47.6911
L382.106 47.6911
L382.106 46.7406
L383.243 46.7406
L383.243 45.7901
L385.422 45.7901
L385.422 44.8396
L387.585 44.8396
L387.585 43.8891
L387.714 43.8891
L387.714 42.9386
L387.919 42.9386
L388.022 41.0376
L388.471 41.0376
L388.471 40.0871
L389.541 40.0871
L389.541 39.1366
L389.681 39.1366
L389.681 38.1861
L390.393 38.1861
L390.393 37.2356
L391.176 37.2356
L391.176 36.2851
L391.646 36.2851
L391.646 35.3347
L392.157 35.3347
L392.157 34.3842
L392.499 34.3842
L392.499 33.4337
L392.628 33.4337
L392.628 32.4832
L392.75 32.4832
L392.75 31.5327
L392.873 31.5327
L392.873 30.5822
L393.15 30.5822
L393.15 29.6317
L394.317 29.6317
L394.397 27.7307
L395.863 27.7307
L395.863 26.7802
L398.196 26.7802
L398.196 25.8297
L404.096 25.8297
L404.096 24.8792
L422.78 24.8792
L422.78 23.9287
L425.685 23.9287
L425.685 22.9782
L425.802 22.9782
L425.815 21.0772
L426.771 21.0772
L426.771 20.1267
L427.44 20.1267
L427.44 19.1762
L428.185 19.1762
L428.185 18.2257
L429.464 18.2257
L429.464 17.2752
L430.323 17.2752
L430.323 16.3248
L430.871 16.3248
L430.871 15.3743
L433.393 15.3743
L433.432 13.4733
L433.881 13.4733
L433.881 12.5228
L435.853 12.5228
L435.853 11.5723
L441.491 11.5723
L441.491 10.6218
L441.491 10.6218
L453.6 10.6218
L453.6 10.6218" style="fill:none;stroke:#bf00bf;stroke-linecap:square;"/>
   </g>
   <g id="line2d_4">
    <path clip-path="url(#p99b4b0da67)" d="
M201.414 352.8
L201.414 351.85
L201.414 351.85
L201.414 351.85
L201.414 350.899
L201.414 350.899
L201.414 350.899
L201.414 349.949
L201.414 349.949
L201.414 349.949
L201.414 348.998
L201.414 348.998
L201.414 348.998
L201.414 348.048
L201.414 348.048
L201.414 348.048
L201.414 347.097
L201.414 347.097
L201.414 347.097
L201.414 346.147
L201.414 346.147
L201.414 346.147
L201.414 345.196
L201.414 345.196
L201.414 345.196
L201.414 344.246
L201.414 344.246
L201.414 344.246
L201.414 343.295
L201.414 343.295
L201.414 343.295
L201.414 342.345
L201.414 342.345
L201.414 342.345
L201.414 341.394
L201.414 341.394
L201.414 341.394
L201.414 340.444
L201.414 340.444
L201.414 340.444
L201.414 339.493
L201.414 339.493
L201.414 339.493
L201.414 338.543
L233.848 338.543
L233.848 337.592
L235.042 337.592
L235.042 336.642
L235.219 336.642
L235.219 335.691
L235.782 335.691
L235.782 334.741
L235.976 334.741
L235.976 333.79
L236.262 333.79
L236.326 331.889
L236.885 331.889
L236.916 329.988
L237.591 329.988
L237.603 328.087
L238.202 328.087
L238.214 326.186
L238.504 326.186
L238.504 325.236
L238.689 325.236
L238.689 324.285
L240.151 324.285
L240.151 323.335
L240.944 323.335
L241.047 321.434
L243.704 321.434
L243.776 319.533
L243.819 319.533
L243.901 317.632
L243.956 317.632
L243.956 316.681
L244.289 316.681
L244.289 315.731
L245.065 315.731
L245.065 314.78
L245.809 314.78
L245.809 313.83
L246.029 313.83
L246.029 312.879
L246.315 312.879
L246.315 311.929
L246.474 311.929
L246.474 310.978
L246.891 310.978
L246.911 309.077
L247.602 309.077
L247.701 307.176
L249.7 307.176
L249.7 306.226
L252.032 306.226
L252.032 305.275
L252.394 305.275
L252.394 304.325
L253.416 304.325
L253.416 303.374
L254.275 303.374
L254.275 302.424
L254.797 302.424
L254.805 300.523
L255.386 300.523
L255.463 298.622
L255.662 298.622
L255.662 297.671
L255.775 297.671
L255.775 296.721
L256.119 296.721
L256.169 294.82
L256.861 294.82
L256.861 293.869
L256.982 293.869
L256.982 292.919
L257.527 292.919
L257.605 291.018
L257.883 291.018
L257.962 288.166
L258.092 288.166
L258.092 287.216
L258.474 287.216
L258.497 284.364
L258.619 284.364
L258.619 283.414
L259.238 283.414
L259.316 281.513
L259.563 281.513
L259.645 279.612
L259.799 279.612
L259.871 276.76
L260.125 276.76
L260.208 274.859
L260.245 274.859
L260.245 273.909
L260.395 273.909
L260.459 272.008
L260.996 272.008
L261.105 270.107
L261.151 270.107
L261.155 268.206
L261.945 268.206
L261.945 267.255
L262.65 267.255
L262.65 266.305
L262.856 266.305
L262.962 264.404
L263.359 264.404
L263.448 262.503
L263.668 262.503
L263.668 261.552
L264.039 261.552
L264.039 260.602
L264.322 260.602
L264.322 259.651
L264.444 259.651
L264.498 257.75
L264.718 257.75
L264.729 255.85
L264.945 255.85
L264.945 254.899
L265.114 254.899
L265.114 253.949
L265.278 253.949
L265.278 252.998
L265.409 252.998
L265.409 252.048
L265.534 252.048
L265.641 250.147
L265.649 250.147
L265.705 248.246
L265.867 248.246
L265.978 244.444
L266.058 244.444
L266.168 242.543
L266.21 242.543
L266.236 240.642
L266.372 240.642
L266.473 236.84
L266.537 236.84
L266.614 231.137
L266.683 231.137
L266.683 230.186
L266.82 230.186
L266.82 229.236
L267.027 229.236
L267.104 227.335
L267.552 227.335
L267.552 226.384
L268.004 226.384
L268.004 225.434
L268.354 225.434
L268.354 224.483
L272.077 224.483
L272.149 209.275
L272.641 209.275
L272.641 208.325
L274.324 208.325
L274.324 207.374
L274.527 207.374
L274.527 206.424
L274.956 206.424
L274.956 205.473
L275.346 205.473
L275.346 204.523
L276.285 204.523
L276.285 203.572
L276.538 203.572
L276.538 202.622
L276.918 202.622
L276.918 201.671
L277.03 201.671
L277.061 199.77
L277.567 199.77
L277.567 198.82
L277.7 198.82
L277.7 197.869
L278.231 197.869
L278.231 196.919
L278.401 196.919
L278.442 195.018
L279.391 195.018
L279.391 194.067
L280.007 194.067
L280.07 192.166
L280.228 192.166
L280.287 189.315
L280.347 189.315
L280.428 186.463
L280.546 186.463
L280.546 185.513
L280.864 185.513
L280.864 184.562
L281.101 184.562
L281.101 183.612
L281.519 183.612
L281.519 182.661
L281.691 182.661
L281.691 181.711
L281.974 181.711
L282.019 179.81
L282.264 179.81
L282.264 178.859
L282.45 178.859
L282.534 176.958
L282.582 176.958
L282.663 175.057
L282.698 175.057
L282.761 173.156
L282.881 173.156
L282.881 172.206
L283.411 172.206
L283.411 171.255
L283.581 171.255
L283.581 170.305
L283.717 170.305
L283.717 169.354
L284.203 169.354
L284.276 166.503
L284.967 166.503
L285.048 164.602
L285.344 164.602
L285.344 163.651
L285.717 163.651
L285.717 162.701
L285.841 162.701
L285.841 161.75
L286.269 161.75
L286.306 159.85
L286.566 159.85
L286.566 158.899
L286.724 158.899
L286.778 156.998
L286.922 156.998
L286.961 155.097
L287.063 155.097
L287.153 152.246
L287.244 152.246
L287.244 151.295
L287.53 151.295
L287.53 150.345
L287.717 150.345
L287.805 147.493
L287.868 147.493
L287.969 142.741
L288.145 142.741
L288.175 140.84
L288.35 140.84
L288.407 138.939
L288.641 138.939
L288.641 137.988
L288.821 137.988
L288.886 135.137
L289.015 135.137
L289.015 134.186
L289.238 134.186
L289.257 132.285
L289.352 132.285
L289.352 131.335
L289.492 131.335
L289.602 129.434
L290.115 129.434
L290.222 127.533
L290.266 127.533
L290.32 125.632
L290.521 125.632
L290.521 124.681
L290.714 124.681
L290.714 123.731
L291.006 123.731
L291.006 122.78
L291.128 122.78
L291.128 121.83
L291.603 121.83
L291.646 119.929
L292.563 119.929
L292.563 118.978
L293.204 118.978
L293.204 118.028
L293.359 118.028
L293.359 117.077
L293.524 117.077
L293.524 116.127
L296.438 116.127
L296.438 115.176
L298.881 115.176
L298.881 114.226
L299.788 114.226
L299.884 112.325
L299.985 112.325
L299.985 111.374
L300.214 111.374
L300.214 109.473
L300.402 109.473
L300.402 108.523
L300.831 108.523
L300.847 106.622
L301.223 106.622
L301.328 104.721
L301.596 104.721
L301.596 103.77
L301.918 103.77
L301.918 102.82
L302.293 102.82
L302.293 101.869
L302.503 101.869
L302.503 100.919
L303.702 100.919
L303.702 99.9683
L304.02 99.9683
L304.02 99.0178
L304.375 99.0178
L304.375 98.0673
L309.804 98.0673
L309.804 97.1168
L309.962 97.1168
L309.962 96.1663
L311.181 96.1663
L311.181 95.2158
L311.963 95.2158
L311.963 94.2653
L312.357 94.2653
L312.357 93.3149
L313.554 93.3149
L313.554 92.3644
L315.314 92.3644
L315.314 91.4139
L315.541 91.4139
L315.541 90.4634
L318.226 90.4634
L318.226 89.5129
L318.37 89.5129
L318.37 88.5624
L319.149 88.5624
L319.243 86.6614
L319.551 86.6614
L319.551 85.7109
L323.517 85.7109
L323.517 84.7604
L323.825 84.7604
L323.825 83.8099
L325.947 83.8099
L325.947 82.8594
L326.18 82.8594
L326.18 81.9089
L326.725 81.9089
L326.725 80.9584
L327.231 80.9584
L327.231 80.0079
L329.178 80.0079
L329.178 79.0574
L331.63 79.0574
L331.63 78.1069
L332.164 78.1069
L332.164 77.1564
L333.139 77.1564
L333.139 76.2059
L333.265 76.2059
L333.265 75.2554
L337.094 75.2554
L337.094 74.305
L337.853 74.305
L337.853 73.3545
L338.402 73.3545
L338.402 72.404
L339.04 72.404
L339.04 71.4535
L339.267 71.4535
L339.267 70.503
L339.69 70.503
L339.79 68.602
L340.62 68.602
L340.638 66.701
L341.337 66.701
L341.337 65.7505
L342.847 65.7505
L342.847 64.8
L345.186 64.8
L345.186 63.8495
L345.504 63.8495
L345.504 62.899
L347.883 62.899
L347.883 61.9485
L349.579 61.9485
L349.579 60.998
L350.144 60.998
L350.144 60.0475
L355.528 60.0475
L355.528 59.097
L356.783 59.097
L356.783 58.1465
L358.849 58.1465
L358.849 57.196
L359.096 57.196
L359.096 56.2455
L360.901 56.2455
L360.901 55.295
L361.689 55.295
L361.689 54.3446
L363.332 54.3446
L363.332 53.3941
L364.048 53.3941
L364.048 52.4436
L370.023 52.4436
L370.023 51.4931
L370.893 51.4931
L370.893 50.5426
L372.989 50.5426
L373.016 47.6911
L374 47.6911
L374 46.7406
L374.699 46.7406
L374.699 45.7901
L376.03 45.7901
L376.03 44.8396
L376.81 44.8396
L376.81 43.8891
L377.375 43.8891
L377.375 42.9386
L377.715 42.9386
L377.715 41.9881
L378.064 41.9881
L378.077 40.0871
L378.491 40.0871
L378.491 39.1366
L379.159 39.1366
L379.159 38.1861
L379.35 38.1861
L379.395 36.2851
L379.62 36.2851
L379.62 35.3347
L380.243 35.3347
L380.343 33.4337
L380.508 33.4337
L380.508 32.4832
L380.84 32.4832
L380.84 31.5327
L381.896 31.5327
L381.896 30.5822
L382.257 30.5822
L382.257 29.6317
L382.415 29.6317
L382.415 28.6812
L382.577 28.6812
L382.577 27.7307
L384.456 27.7307
L384.456 26.7802
L386.852 26.7802
L386.852 25.8297
L387.586 25.8297
L387.586 24.8792
L416.773 24.8792
L416.773 23.9287
L419.645 23.9287
L419.741 22.0277
L420.399 22.0277
L420.399 21.0772
L421.071 21.0772
L421.071 20.1267
L421.776 20.1267
L421.776 19.1762
L421.92 19.1762
L421.92 18.2257
L423.169 18.2257
L423.169 17.2752
L424.691 17.2752
L424.691 16.3248
L425.305 16.3248
L425.305 15.3743
L426.771 15.3743
L426.771 14.4238
L428.502 14.4238
L428.502 13.4733
L429.69 13.4733
L429.69 12.5228
L432.159 12.5228
L432.159 11.5723
L433.168 11.5723
L433.168 10.6218
L433.168 10.6218
L453.6 10.6218
L453.6 10.6218" style="fill:none;stroke:#000000;stroke-linecap:square;"/>
   </g>
   <g id="line2d_5">
    <path clip-path="url(#p99b4b0da67)" d="
M201.414 352.8
L201.414 351.85
L201.414 351.85
L201.414 351.85
L201.414 350.899
L201.414 350.899
L201.414 350.899
L201.414 349.949
L201.414 349.949
L201.414 349.949
L201.414 348.998
L201.414 348.998
L201.414 348.998
L201.414 348.048
L201.414 348.048
L201.414 348.048
L201.414 347.097
L201.414 347.097
L201.414 347.097
L201.414 346.147
L201.414 346.147
L201.414 346.147
L201.414 345.196
L201.414 345.196
L201.414 345.196
L201.414 344.246
L201.414 344.246
L201.414 344.246
L201.414 343.295
L201.414 343.295
L201.414 343.295
L201.414 342.345
L201.414 342.345
L201.414 342.345
L201.414 341.394
L201.414 341.394
L201.414 341.394
L201.414 340.444
L201.414 340.444
L201.414 340.444
L201.414 339.493
L201.414 339.493
L201.414 339.493
L201.414 338.543
L232.234 338.543
L232.234 337.592
L233.415 337.592
L233.426 335.691
L233.554 335.691
L233.554 334.741
L233.848 334.741
L233.848 333.79
L234.921 333.79
L234.921 332.84
L235.042 332.84
L235.042 331.889
L235.219 331.889
L235.219 330.939
L235.401 330.939
L235.401 329.988
L235.566 329.988
L235.566 329.038
L235.835 329.038
L235.835 328.087
L236.262 328.087
L236.262 327.137
L236.635 327.137
L236.635 326.186
L236.977 326.186
L237.036 324.285
L237.196 324.285
L237.196 323.335
L238.199 323.335
L238.3 321.434
L238.504 321.434
L238.504 320.483
L238.821 320.483
L238.821 319.533
L240.024 319.533
L240.024 318.582
L241.047 318.582
L241.047 317.632
L241.462 317.632
L241.462 316.681
L241.604 316.681
L241.604 315.731
L242.116 315.731
L242.116 314.78
L242.643 314.78
L242.643 313.83
L243.776 313.83
L243.868 311.929
L243.956 311.929
L243.956 310.978
L244.253 310.978
L244.253 310.028
L244.41 310.028
L244.41 309.077
L244.596 309.077
L244.596 308.127
L245.44 308.127
L245.44 307.176
L245.57 307.176
L245.57 306.226
L245.751 306.226
L245.751 305.275
L246.106 305.275
L246.106 304.325
L246.4 304.325
L246.4 303.374
L246.765 303.374
L246.765 302.424
L246.9 302.424
L246.9 301.473
L247.024 301.473
L247.024 300.523
L247.305 300.523
L247.305 299.572
L248.608 299.572
L248.608 298.622
L249.171 298.622
L249.171 297.671
L249.618 297.671
L249.618 296.721
L249.999 296.721
L249.999 295.77
L251.218 295.77
L251.218 294.82
L251.383 294.82
L251.383 293.869
L251.62 293.869
L251.674 291.968
L252.696 291.968
L252.727 290.067
L253.574 290.067
L253.574 289.117
L254.805 289.117
L254.895 286.265
L255.173 286.265
L255.275 283.414
L255.386 283.414
L255.386 282.463
L255.532 282.463
L255.608 280.562
L255.722 280.562
L255.764 277.711
L255.971 277.711
L256.032 273.909
L256.173 273.909
L256.173 272.958
L256.66 272.958
L256.66 272.008
L256.861 272.008
L256.948 270.107
L257 270.107
L257 269.156
L257.205 269.156
L257.205 268.206
L257.409 268.206
L257.409 267.255
L257.6 267.255
L257.6 266.305
L257.831 266.305
L257.912 262.503
L258.048 262.503
L258.048 261.552
L258.312 261.552
L258.414 257.75
L258.474 257.75
L258.497 254.899
L258.66 254.899
L258.66 253.949
L259.139 253.949
L259.226 251.097
L259.295 251.097
L259.295 250.147
L259.51 250.147
L259.563 248.246
L259.645 248.246
L259.645 247.295
L259.799 247.295
L259.799 246.345
L260.47 246.345
L260.47 245.394
L260.592 245.394
L260.696 243.493
L261.085 243.493
L261.085 242.543
L261.657 242.543
L261.657 241.592
L261.829 241.592
L261.829 240.642
L261.973 240.642
L261.973 239.691
L262.182 239.691
L262.182 238.741
L262.389 238.741
L262.481 236.84
L262.534 236.84
L262.615 234.939
L262.899 234.939
L262.899 233.988
L263.195 233.988
L263.304 231.137
L263.406 231.137
L263.406 230.186
L263.563 230.186
L263.575 228.285
L263.678 228.285
L263.774 225.434
L264.117 225.434
L264.117 224.483
L264.341 224.483
L264.352 222.582
L264.712 222.582
L264.712 221.632
L264.968 221.632
L265.016 217.83
L265.22 217.83
L265.278 215.929
L265.534 215.929
L265.641 214.028
L265.663 214.028
L265.663 213.077
L266.767 213.077
L266.767 212.127
L266.94 212.127
L266.94 211.176
L268.554 211.176
L268.554 210.226
L272.077 210.226
L272.149 195.018
L272.206 195.018
L272.206 194.067
L272.641 194.067
L272.641 193.117
L273.01 193.117
L273.01 192.166
L274.231 192.166
L274.231 191.216
L274.919 191.216
L274.919 190.265
L275.315 190.265
L275.346 188.364
L275.895 188.364
L275.895 187.414
L276.536 187.414
L276.536 186.463
L277.7 186.463
L277.7 185.513
L277.941 185.513
L277.941 184.562
L278.287 184.562
L278.287 183.612
L279.391 183.612
L279.445 181.711
L279.584 181.711
L279.67 179.81
L279.787 179.81
L279.787 178.859
L279.999 178.859
L280.07 176.008
L280.428 176.008
L280.428 175.057
L280.858 175.057
L280.864 173.156
L281.083 173.156
L281.101 171.255
L281.215 171.255
L281.238 169.354
L281.445 169.354
L281.474 167.453
L281.691 167.453
L281.691 166.503
L281.904 166.503
L281.904 165.552
L282.019 165.552
L282.095 162.701
L282.153 162.701
L282.166 160.8
L282.271 160.8
L282.271 159.85
L282.45 159.85
L282.534 156.998
L282.635 156.998
L282.727 154.147
L282.846 154.147
L282.846 153.196
L283.07 153.196
L283.073 151.295
L283.347 151.295
L283.39 149.394
L283.581 149.394
L283.614 146.543
L283.774 146.543
L283.774 145.592
L283.886 145.592
L283.948 142.741
L284.192 142.741
L284.192 141.79
L284.306 141.79
L284.4 139.889
L284.444 139.889
L284.444 138.939
L284.604 138.939
L284.604 137.988
L284.973 137.988
L285.036 136.087
L285.09 136.087
L285.186 133.236
L285.415 133.236
L285.443 130.384
L285.806 130.384
L285.88 128.483
L286.14 128.483
L286.207 126.582
L286.278 126.582
L286.316 124.681
L286.397 124.681
L286.484 121.83
L286.509 121.83
L286.596 118.978
L286.767 118.978
L286.767 118.028
L287.244 118.028
L287.244 117.077
L287.57 117.077
L287.57 116.127
L287.969 116.127
L288.072 114.226
L288.162 114.226
L288.175 112.325
L288.849 112.325
L288.849 111.374
L288.98 111.374
L288.98 110.424
L289.241 110.424
L289.268 108.523
L289.77 108.523
L289.77 107.572
L291.124 107.572
L291.128 105.671
L291.599 105.671
L291.599 104.721
L294.542 104.721
L294.599 102.82
L294.927 102.82
L294.927 101.869
L295.439 101.869
L295.513 99.9683
L295.719 99.9683
L295.719 99.0178
L295.863 99.0178
L295.863 98.0673
L296.437 98.0673
L296.437 97.1168
L296.874 97.1168
L296.874 96.1663
L297.152 96.1663
L297.189 94.2653
L297.502 94.2653
L297.606 92.3644
L297.687 92.3644
L297.687 91.4139
L297.85 91.4139
L297.879 89.5129
L298.042 89.5129
L298.056 87.6119
L298.692 87.6119
L298.692 86.6614
L299.23 86.6614
L299.23 85.7109
L299.884 85.7109
L299.884 84.7604
L300.887 84.7604
L300.887 83.8099
L303.096 83.8099
L303.096 82.8594
L303.537 82.8594
L303.537 81.9089
L305.399 81.9089
L305.482 80.0079
L306.213 80.0079
L306.213 79.0574
L309.778 79.0574
L309.778 78.1069
L310.174 78.1069
L310.174 77.1564
L310.407 77.1564
L310.481 75.2554
L310.797 75.2554
L310.797 74.305
L311.941 74.305
L311.941 73.3545
L314.696 73.3545
L314.696 72.404
L315.083 72.404
L315.083 71.4535
L316.191 71.4535
L316.191 70.503
L316.626 70.503
L316.626 69.5525
L317.6 69.5525
L317.6 68.602
L320.16 68.602
L320.16 67.6515
L320.612 67.6515
L320.612 66.701
L322.932 66.701
L322.932 65.7505
L325.085 65.7505
L325.085 64.8
L326.18 64.8
L326.18 63.8495
L327.021 63.8495
L327.021 62.899
L327.87 62.899
L327.87 61.9485
L328.605 61.9485
L328.605 60.998
L330.098 60.998
L330.098 60.0475
L331.207 60.0475
L331.207 59.097
L331.346 59.097
L331.346 58.1465
L331.704 58.1465
L331.704 57.196
L333.577 57.196
L333.577 56.2455
L335.94 56.2455
L335.94 55.295
L338.402 55.295
L338.402 54.3446
L338.7 54.3446
L338.7 53.3941
L355.74 53.3941
L355.74 52.4436
L358.238 52.4436
L358.238 51.4931
L360.737 51.4931
L360.737 50.5426
L360.906 50.5426
L360.906 49.5921
L361.618 49.5921
L361.618 48.6416
L361.75 48.6416
L361.75 47.6911
L362.729 47.6911
L362.84 45.7901
L362.865 45.7901
L362.865 44.8396
L363.228 44.8396
L363.291 42.9386
L364.048 42.9386
L364.048 41.9881
L364.447 41.9881
L364.447 41.0376
L365.505 41.0376
L365.505 40.0871
L365.968 40.0871
L365.968 39.1366
L366.737 39.1366
L366.772 37.2356
L367.77 37.2356
L367.821 35.3347
L368.379 35.3347
L368.379 34.3842
L368.964 34.3842
L368.964 33.4337
L369.1 33.4337
L369.1 32.4832
L369.639 32.4832
L369.639 31.5327
L369.961 31.5327
L369.961 30.5822
L370.889 30.5822
L370.889 29.6317
L371.328 29.6317
L371.328 28.6812
L371.971 28.6812
L371.971 27.7307
L372.132 27.7307
L372.132 26.7802
L374 26.7802
L374 25.8297
L376.827 25.8297
L376.827 24.8792
L407.596 24.8792
L407.596 23.9287
L409.745 23.9287
L409.745 22.9782
L410.944 22.9782
L410.944 22.0277
L411.704 22.0277
L411.704 21.0772
L412.141 21.0772
L412.141 20.1267
L415.033 20.1267
L415.033 19.1762
L415.651 19.1762
L415.718 17.2752
L416.155 17.2752
L416.155 16.3248
L416.547 16.3248
L416.547 15.3743
L416.664 15.3743
L416.773 13.4733
L417.293 13.4733
L417.293 12.5228
L419.905 12.5228
L419.905 11.5723
L420.027 11.5723
L420.027 10.6218
L420.027 10.6218
L453.6 10.6218
L453.6 10.6218" style="fill:none;stroke:#00bfbf;stroke-linecap:square;"/>
   </g>
   <g id="line2d_6">
    <path clip-path="url(#p99b4b0da67)" d="
M7.0865 352.8
L7.0865 351.85
L7.0865 351.85
L7.0865 351.85
L7.0865 350.899
L7.0865 350.899
L7.0865 350.899
L7.0865 349.949
L7.0865 349.949
L7.0865 349.949
L7.0865 348.998
L7.0865 348.998
L7.0865 348.998
L7.0865 348.048
L7.0865 348.048
L7.0865 348.048
L7.0865 347.097
L7.0865 347.097
L7.0865 347.097
L7.0865 346.147
L7.0865 346.147
L7.0865 346.147
L7.0865 345.196
L7.0865 345.196
L7.0865 345.196
L7.0865 344.246
L7.0865 344.246
L7.0865 344.246
L7.0865 343.295
L7.0865 343.295
L7.0865 343.295
L7.0865 342.345
L7.0865 342.345
L7.0865 342.345
L7.0865 341.394
L7.0865 341.394
L7.0865 341.394
L7.0865 340.444
L7.0865 340.444
L7.0865 340.444
L7.0865 339.493
L7.0865 339.493
L7.0865 339.493
L7.0865 338.543
L201.414 338.543
L201.414 324.285
L225.08 324.285
L225.08 323.335
L229.855 323.335
L229.855 322.384
L230.51 322.384
L230.51 321.434
L230.821 321.434
L230.821 320.483
L231.07 320.483
L231.07 319.533
L231.208 319.533
L231.208 318.582
L231.346 318.582
L231.363 316.681
L231.647 316.681
L231.647 315.731
L231.807 315.731
L231.857 313.83
L232.224 313.83
L232.291 311.929
L232.339 311.929
L232.44 309.077
L232.461 309.077
L232.555 307.176
L232.776 307.176
L232.776 306.226
L232.971 306.226
L232.971 305.275
L233.11 305.275
L233.217 302.424
L233.263 302.424
L233.339 300.523
L233.415 300.523
L233.466 297.671
L233.554 297.671
L233.554 296.721
L233.848 296.721
L233.848 295.77
L234.313 295.77
L234.411 293.869
L234.425 293.869
L234.487 291.018
L234.599 291.018
L234.599 290.067
L234.712 290.067
L234.712 289.117
L234.876 289.117
L234.961 287.216
L235.009 287.216
L235.009 286.265
L235.177 286.265
L235.177 285.315
L235.507 285.315
L235.612 282.463
L236.078 282.463
L236.146 280.562
L236.63 280.562
L236.63 279.612
L237.36 279.612
L237.36 278.661
L237.784 278.661
L237.784 277.711
L238.229 277.711
L238.229 276.76
L238.485 276.76
L238.485 275.81
L239.047 275.81
L239.047 274.859
L239.578 274.859
L239.578 273.909
L239.922 273.909
L239.978 271.057
L240.441 271.057
L240.441 270.107
L240.766 270.107
L240.827 268.206
L241.017 268.206
L241.116 265.354
L241.169 265.354
L241.271 263.453
L241.491 263.453
L241.59 261.552
L241.886 261.552
L241.9 259.651
L242.091 259.651
L242.091 258.701
L242.327 258.701
L242.327 257.75
L242.598 257.75
L242.598 256.8
L242.877 256.8
L242.877 255.85
L243.171 255.85
L243.182 253.949
L243.79 253.949
L243.79 252.998
L244.276 252.998
L244.276 252.048
L244.98 252.048
L244.98 251.097
L245.203 251.097
L245.203 250.147
L245.411 250.147
L245.411 249.196
L245.957 249.196
L245.957 248.246
L246.191 248.246
L246.191 247.295
L246.343 247.295
L246.343 246.345
L247.025 246.345
L247.114 243.493
L247.627 243.493
L247.627 242.543
L248.209 242.543
L248.216 240.642
L248.333 240.642
L248.333 239.691
L248.51 239.691
L248.574 237.79
L248.732 237.79
L248.732 236.84
L249.224 236.84
L249.224 235.889
L249.362 235.889
L249.362 234.939
L250.036 234.939
L250.036 233.988
L250.494 233.988
L250.494 233.038
L250.834 233.038
L250.834 232.087
L251.394 232.087
L251.394 231.137
L251.711 231.137
L251.711 230.186
L251.873 230.186
L251.873 229.236
L252.608 229.236
L252.608 228.285
L253.232 228.285
L253.271 226.384
L253.906 226.384
L253.906 225.434
L254.43 225.434
L254.43 224.483
L254.805 224.483
L254.805 223.533
L255.386 223.533
L255.386 222.582
L255.693 222.582
L255.693 221.632
L255.908 221.632
L255.965 219.731
L256.026 219.731
L256.026 218.78
L256.171 218.78
L256.171 217.83
L256.365 217.83
L256.365 216.879
L256.573 216.879
L256.66 214.978
L256.753 214.978
L256.753 214.028
L256.948 214.028
L256.948 213.077
L257.075 213.077
L257.176 211.176
L257.314 211.176
L257.372 209.275
L257.695 209.275
L257.695 208.325
L257.998 208.325
L257.998 207.374
L258.857 207.374
L258.857 206.424
L259.033 206.424
L259.033 205.473
L259.796 205.473
L259.796 204.523
L260.195 204.523
L260.195 203.572
L260.543 203.572
L260.543 202.622
L260.927 202.622
L260.927 201.671
L261.216 201.671
L261.216 200.721
L262.513 200.721
L262.513 199.77
L264.825 199.77
L264.916 197.869
L264.944 197.869
L264.944 196.919
L265.656 196.919
L265.656 195.968
L265.913 195.968
L265.913 195.018
L266.088 195.018
L266.088 194.067
L266.496 194.067
L266.496 193.117
L266.769 193.117
L266.769 192.166
L267.311 192.166
L267.311 191.216
L267.53 191.216
L267.53 190.265
L268.07 190.265
L268.07 189.315
L268.615 189.315
L268.615 188.364
L268.939 188.364
L268.939 187.414
L269.189 187.414
L269.189 186.463
L271.911 186.463
L271.911 185.513
L272.077 185.513
L272.149 170.305
L274.157 170.305
L274.157 169.354
L274.379 169.354
L274.379 168.404
L274.514 168.404
L274.514 167.453
L275.346 167.453
L275.346 166.503
L275.578 166.503
L275.592 164.602
L275.837 164.602
L275.895 162.701
L275.982 162.701
L275.982 161.75
L276.286 161.75
L276.305 159.85
L276.479 159.85
L276.479 158.899
L276.813 158.899
L276.83 156.998
L276.968 156.998
L277.001 155.097
L277.15 155.097
L277.203 153.196
L277.264 153.196
L277.322 151.295
L277.397 151.295
L277.449 147.493
L277.612 147.493
L277.7 144.642
L277.937 144.642
L278.005 142.741
L278.077 142.741
L278.182 138.939
L278.193 138.939
L278.303 135.137
L278.331 135.137
L278.441 126.582
L278.445 126.582
L278.538 121.83
L278.691 121.83
L278.728 119.929
L278.933 119.929
L279.009 114.226
L279.058 114.226
L279.166 112.325
L279.197 112.325
L279.197 111.374
L279.391 111.374
L279.445 109.473
L279.619 109.473
L279.67 107.572
L279.941 107.572
L279.941 106.622
L280.252 106.622
L280.252 105.671
L280.592 105.671
L280.646 102.82
L280.728 102.82
L280.827 100.919
L280.923 100.919
L281.001 99.0178
L281.042 99.0178
L281.042 98.0673
L281.308 98.0673
L281.308 97.1168
L281.545 97.1168
L281.626 93.3149
L281.928 93.3149
L281.928 92.3644
L282.641 92.3644
L282.727 90.4634
L283.899 90.4634
L283.899 89.5129
L284.837 89.5129
L284.837 88.5624
L284.973 88.5624
L284.973 87.6119
L286.484 87.6119
L286.581 85.7109
L287.065 85.7109
L287.065 84.7604
L287.4 84.7604
L287.407 82.8594
L287.888 82.8594
L287.932 80.9584
L288.162 80.9584
L288.162 80.0079
L288.357 80.0079
L288.357 79.0574
L288.914 79.0574
L288.98 77.1564
L289.03 77.1564
L289.07 75.2554
L289.385 75.2554
L289.434 72.404
L289.932 72.404
L289.932 71.4535
L290.222 71.4535
L290.25 69.5525
L291.359 69.5525
L291.359 68.602
L291.599 68.602
L291.599 67.6515
L297.38 67.6515
L297.38 66.701
L298.247 66.701
L298.247 65.7505
L301.241 65.7505
L301.241 64.8
L301.369 64.8
L301.369 63.8495
L302.723 63.8495
L302.723 62.899
L303.07 62.899
L303.07 61.9485
L303.445 61.9485
L303.445 60.998
L304.616 60.998
L304.616 60.0475
L304.817 60.0475
L304.817 59.097
L305.091 59.097
L305.091 58.1465
L305.266 58.1465
L305.266 57.196
L307.554 57.196
L307.554 56.2455
L310.041 56.2455
L310.041 55.295
L310.173 55.295
L310.173 54.3446
L311.617 54.3446
L311.617 53.3941
L341.328 53.3941
L341.328 52.4436
L343.704 52.4436
L343.704 51.4931
L346.834 51.4931
L346.834 50.5426
L347.251 50.5426
L347.251 49.5921
L348.246 49.5921
L348.25 47.6911
L348.722 47.6911
L348.722 46.7406
L349.612 46.7406
L349.612 45.7901
L350.399 45.7901
L350.399 44.8396
L350.757 44.8396
L350.792 42.9386
L352.127 42.9386
L352.176 41.0376
L353.582 41.0376
L353.582 40.0871
L353.853 40.0871
L353.853 39.1366
L353.965 39.1366
L353.965 38.1861
L354.34 38.1861
L354.34 37.2356
L355.284 37.2356
L355.383 35.3347
L355.656 35.3347
L355.74 33.4337
L356.191 33.4337
L356.191 32.4832
L358.275 32.4832
L358.275 31.5327
L359.188 31.5327
L359.188 30.5822
L359.606 30.5822
L359.698 28.6812
L359.72 28.6812
L359.72 27.7307
L361.334 27.7307
L361.334 26.7802
L364.466 26.7802
L364.466 25.8297
L365.296 25.8297
L365.296 24.8792
L394.744 24.8792
L394.744 23.9287
L396.778 23.9287
L396.778 22.9782
L397.575 22.9782
L397.575 22.0277
L398.114 22.0277
L398.114 21.0772
L398.59 21.0772
L398.59 20.1267
L398.857 20.1267
L398.857 19.1762
L399.363 19.1762
L399.363 18.2257
L399.852 18.2257
L399.852 17.2752
L400.214 17.2752
L400.214 16.3248
L400.652 16.3248
L400.652 15.3743
L400.989 15.3743
L400.989 14.4238
L401.508 14.4238
L401.508 13.4733
L402.29 13.4733
L402.29 12.5228
L403.487 12.5228
L403.487 11.5723
L403.927 11.5723
L403.927 10.6218
L403.927 10.6218
L453.6 10.6218
L453.6 10.6218" style="fill:none;stroke:#bf00bf;stroke-linecap:square;"/>
   </g>
   <g id="line2d_7">
    <path clip-path="url(#p99b4b0da67)" d="
M7.0865 352.8
L7.0865 351.85
L7.0865 351.85
L7.0865 351.85
L7.0865 350.899
L7.0865 350.899
L7.0865 350.899
L7.0865 349.949
L7.0865 349.949
L7.0865 349.949
L7.0865 348.998
L7.0865 348.998
L7.0865 348.998
L7.0865 348.048
L7.0865 348.048
L7.0865 348.048
L7.0865 347.097
L7.0865 347.097
L7.0865 347.097
L7.0865 346.147
L7.0865 346.147
L7.0865 346.147
L7.0865 345.196
L7.0865 345.196
L7.0865 345.196
L7.0865 344.246
L7.0865 344.246
L7.0865 344.246
L7.0865 343.295
L7.0865 343.295
L7.0865 343.295
L7.0865 342.345
L7.0865 342.345
L7.0865 342.345
L7.0865 341.394
L7.0865 341.394
L7.0865 341.394
L7.0865 340.444
L7.0865 340.444
L7.0865 340.444
L7.0865 339.493
L7.0865 339.493
L7.0865 339.493
L7.0865 338.543
L73.7785 338.543
L73.7785 337.592
L81.1898 337.592
L81.1898 336.642
L81.4721 336.642
L81.4721 335.691
L87.4999 335.691
L87.4999 334.741
L88.004 334.741
L88.004 333.79
L142.092 333.79
L142.092 332.84
L143.297 332.84
L143.297 331.889
L144.534 331.889
L144.534 330.939
L146.165 330.939
L146.165 329.988
L146.317 329.988
L146.317 329.038
L146.59 329.038
L146.59 328.087
L146.714 328.087
L146.714 327.137
L147.626 327.137
L147.626 326.186
L148.031 326.186
L148.031 325.236
L148.476 325.236
L148.476 324.285
L149.498 324.285
L149.498 323.335
L150.045 323.335
L150.045 322.384
L151.839 322.384
L151.839 321.434
L152.235 321.434
L152.308 319.533
L163.583 319.533
L163.685 317.632
L163.775 317.632
L163.775 316.681
L164.76 316.681
L164.76 315.731
L165.185 315.731
L165.185 314.78
L165.572 314.78
L165.572 313.83
L166.267 313.83
L166.267 312.879
L166.574 312.879
L166.674 310.978
L166.939 310.978
L166.939 310.028
L168.244 310.028
L168.244 309.077
L169.167 309.077
L169.167 308.127
L169.594 308.127
L169.594 307.176
L172.039 307.176
L172.039 306.226
L172.882 306.226
L172.882 305.275
L199.309 305.275
L199.309 304.325
L200.563 304.325
L200.576 302.424
L201.347 302.424
L201.414 287.216
L201.46 287.216
L201.46 286.265
L201.913 286.265
L201.913 285.315
L202.169 285.315
L202.169 284.364
L202.336 284.364
L202.336 283.414
L202.798 283.414
L202.798 282.463
L203.656 282.463
L203.656 281.513
L204.114 281.513
L204.171 279.612
L204.526 279.612
L204.526 278.661
L206.608 278.661
L206.608 277.711
L207.351 277.711
L207.351 276.76
L209.597 276.76
L209.597 275.81
L213.066 275.81
L213.088 273.909
L214.393 273.909
L214.393 272.958
L215.028 272.958
L215.028 272.008
L215.881 272.008
L215.881 271.057
L217.194 271.057
L217.194 270.107
L218.455 270.107
L218.562 268.206
L218.669 268.206
L218.75 266.305
L218.837 266.305
L218.837 265.354
L219.405 265.354
L219.443 263.453
L219.657 263.453
L219.678 261.552
L219.853 261.552
L219.853 260.602
L220.04 260.602
L220.122 258.701
L220.222 258.701
L220.255 256.8
L220.351 256.8
L220.351 255.85
L220.511 255.85
L220.511 254.899
L220.657 254.899
L220.767 250.147
L220.838 250.147
L220.838 249.196
L221.186 249.196
L221.246 247.295
L221.529 247.295
L221.529 246.345
L221.853 246.345
L221.961 244.444
L222.164 244.444
L222.255 242.543
L222.439 242.543
L222.497 240.642
L222.737 240.642
L222.756 238.741
L223.494 238.741
L223.595 235.889
L223.947 235.889
L224.056 233.988
L224.153 233.988
L224.171 232.087
L224.374 232.087
L224.472 230.186
L224.509 230.186
L224.549 228.285
L224.692 228.285
L224.692 227.335
L224.81 227.335
L224.861 222.582
L224.991 222.582
L225.097 219.731
L225.115 219.731
L225.219 217.83
L225.346 217.83
L225.346 216.879
L225.714 216.879
L225.779 214.978
L225.925 214.978
L225.925 214.028
L227.089 214.028
L227.089 213.077
L227.347 213.077
L227.347 212.127
L227.545 212.127
L227.545 211.176
L228.078 211.176
L228.079 209.275
L228.218 209.275
L228.218 208.325
L228.66 208.325
L228.66 207.374
L229.137 207.374
L229.137 206.424
L229.277 206.424
L229.277 205.473
L229.498 205.473
L229.498 204.523
L229.653 204.523
L229.738 202.622
L229.903 202.622
L229.903 201.671
L230.743 201.671
L230.743 200.721
L230.907 200.721
L230.907 199.77
L231.342 199.77
L231.441 197.869
L231.457 197.869
L231.457 196.919
L231.62 196.919
L231.658 195.018
L232.055 195.018
L232.055 194.067
L235.73 194.067
L235.756 191.216
L238.117 191.216
L238.117 190.265
L238.872 190.265
L238.872 189.315
L239.436 189.315
L239.436 188.364
L241.506 188.364
L241.506 187.414
L241.875 187.414
L241.946 185.513
L242.628 185.513
L242.628 184.562
L243.066 184.562
L243.066 183.612
L244.34 183.612
L244.34 182.661
L244.624 182.661
L244.695 180.76
L245.593 180.76
L245.7 177.909
L245.707 177.909
L245.707 176.958
L245.975 176.958
L245.975 176.008
L246.203 176.008
L246.203 175.057
L246.413 175.057
L246.413 174.107
L246.587 174.107
L246.587 173.156
L247.008 173.156
L247.008 172.206
L247.451 172.206
L247.451 171.255
L247.739 171.255
L247.784 169.354
L247.98 169.354
L247.98 168.404
L248.099 168.404
L248.099 167.453
L248.466 167.453
L248.466 166.503
L248.776 166.503
L248.879 161.75
L248.892 161.75
L248.939 159.85
L249.026 159.85
L249.081 157.949
L249.231 157.949
L249.231 156.998
L249.363 156.998
L249.422 155.097
L249.545 155.097
L249.623 152.246
L249.717 152.246
L249.717 151.295
L249.845 151.295
L249.952 148.444
L250.012 148.444
L250.075 145.592
L250.217 145.592
L250.327 141.79
L250.387 141.79
L250.475 137.988
L250.852 137.988
L250.962 135.137
L251.037 135.137
L251.119 133.236
L251.26 133.236
L251.36 129.434
L251.448 129.434
L251.448 128.483
L251.679 128.483
L251.774 124.681
L252.175 124.681
L252.175 123.731
L252.605 123.731
L252.605 122.78
L252.775 122.78
L252.782 120.879
L253.215 120.879
L253.308 118.978
L253.46 118.978
L253.511 117.077
L253.631 117.077
L253.631 116.127
L254.003 116.127
L254.096 114.226
L254.805 114.226
L254.805 113.275
L256.265 113.275
L256.265 112.325
L259.649 112.325
L259.649 111.374
L267.245 111.374
L267.245 110.424
L268.565 110.424
L268.565 109.473
L269.445 109.473
L269.445 108.523
L269.759 108.523
L269.759 107.572
L269.906 107.572
L269.91 105.671
L270.129 105.671
L270.129 104.721
L270.394 104.721
L270.394 103.77
L270.602 103.77
L270.653 101.869
L271.088 101.869
L271.146 99.0178
L271.221 99.0178
L271.221 98.0673
L271.435 98.0673
L271.473 95.2158
L271.564 95.2158
L271.574 93.3149
L271.715 93.3149
L271.806 90.4634
L271.854 90.4634
L271.965 85.7109
L271.969 85.7109
L272.077 82.8594
L272.231 82.8594
L272.327 79.0574
L272.378 79.0574
L272.382 77.1564
L272.518 77.1564
L272.624 75.2554
L272.745 75.2554
L272.792 72.404
L272.955 72.404
L273.049 68.602
L273.144 68.602
L273.212 65.7505
L273.317 65.7505
L273.421 62.899
L273.542 62.899
L273.609 60.0475
L273.759 60.0475
L273.759 59.097
L274.16 59.097
L274.16 58.1465
L274.492 58.1465
L274.587 54.3446
L274.958 54.3446
L274.958 53.3941
L275.346 53.3941
L275.346 52.4436
L275.71 52.4436
L275.71 51.4931
L275.895 51.4931
L275.895 50.5426
L277.7 50.5426
L277.7 49.5921
L279.391 49.5921
L279.391 48.6416
L282.727 48.6416
L282.727 47.6911
L283.899 47.6911
L283.899 46.7406
L284.837 46.7406
L284.837 45.7901
L284.973 45.7901
L284.973 44.8396
L286.484 44.8396
L286.484 43.8891
L287.4 43.8891
L287.4 42.9386
L288.162 42.9386
L288.162 41.9881
L288.98 41.9881
L288.98 41.0376
L290.25 41.0376
L290.25 40.0871
L291.599 40.0871
L291.599 39.1366
L296.405 39.1366
L296.405 38.1861
L298.623 38.1861
L298.623 37.2356
L299.409 37.2356
L299.409 36.2851
L301.527 36.2851
L301.527 35.3347
L304.162 35.3347
L304.162 34.3842
L304.371 34.3842
L304.371 33.4337
L306.186 33.4337
L306.186 32.4832
L306.548 32.4832
L306.556 30.5822
L306.799 30.5822
L306.799 29.6317
L307.265 29.6317
L307.265 28.6812
L307.393 28.6812
L307.393 27.7307
L307.561 27.7307
L307.561 26.7802
L309.083 26.7802
L309.083 25.8297
L310.54 25.8297
L310.54 24.8792
L318.369 24.8792
L318.369 23.9287
L328.648 23.9287
L328.648 22.9782
L329.65 22.9782
L329.65 22.0277
L329.985 22.0277
L329.985 21.0772
L330.591 21.0772
L330.591 20.1267
L332.462 20.1267
L332.462 19.1762
L333.173 19.1762
L333.238 17.2752
L335.008 17.2752
L335.046 15.3743
L338.644 15.3743
L338.644 14.4238
L339.853 14.4238
L339.853 13.4733
L344.137 13.4733
L344.137 12.5228
L345.308 12.5228
L345.308 11.5723
L345.712 11.5723
L345.712 10.6218
L345.712 10.6218
L453.6 10.6218
L453.6 10.6218" style="fill:none;stroke:#000000;stroke-linecap:square;"/>
   </g>
   <g id="line2d_8">
    <path clip-path="url(#p99b4b0da67)" d="
M-1 312.879
L0.954781 312.879
L0.954781 311.929
L6.96415 311.929
L6.96415 310.978
L7.0865 310.978
L7.1889 275.81
L11.2687 275.81
L11.2687 274.859
L15.0592 274.859
L15.0592 273.909
L17.4498 273.909
L17.4498 272.958
L18.0192 272.958
L18.0192 272.008
L24.6883 272.008
L24.6883 271.057
L25.4149 271.057
L25.4149 270.107
L26.8624 270.107
L26.8624 269.156
L28.8606 269.156
L28.8606 268.206
L31.2273 268.206
L31.2418 266.305
L35.3913 266.305
L35.3913 265.354
L37.5855 265.354
L37.5855 264.404
L38.9937 264.404
L38.9937 263.453
L39.3215 263.453
L39.3215 262.503
L66.9752 262.503
L66.9752 261.552
L88.9663 261.552
L88.9663 260.602
L92.5173 260.602
L92.5173 259.651
L94.5157 259.651
L94.5157 258.701
L95.0285 258.701
L95.0285 257.75
L97.8066 257.75
L97.8066 256.8
L100.516 256.8
L100.574 253.949
L101.553 253.949
L101.662 252.048
L101.684 252.048
L101.786 249.196
L102.159 249.196
L102.159 248.246
L102.283 248.246
L102.283 247.295
L102.521 247.295
L102.521 246.345
L103.493 246.345
L103.493 245.394
L105.401 245.394
L105.401 244.444
L111.513 244.444
L111.513 243.493
L116.732 243.493
L116.732 242.543
L123.815 242.543
L123.815 241.592
L124.246 241.592
L124.246 240.642
L126.396 240.642
L126.396 239.691
L128.676 239.691
L128.676 238.741
L129.335 238.741
L129.335 237.79
L132.996 237.79
L132.996 236.84
L134.048 236.84
L134.048 235.889
L135.841 235.889
L135.915 233.988
L137.985 233.988
L137.985 233.038
L138.508 233.038
L138.508 232.087
L139.463 232.087
L139.463 231.137
L139.875 231.137
L139.875 230.186
L140.063 230.186
L140.063 229.236
L142.125 229.236
L142.125 228.285
L142.813 228.285
L142.813 227.335
L145.776 227.335
L145.776 226.384
L147.141 226.384
L147.141 225.434
L147.307 225.434
L147.307 224.483
L149.319 224.483
L149.319 223.533
L150.107 223.533
L150.107 222.582
L151.098 222.582
L151.098 221.632
L152.005 221.632
L152.005 220.681
L152.416 220.681
L152.416 219.731
L153.695 219.731
L153.695 218.78
L154.389 218.78
L154.389 217.83
L154.935 217.83
L154.935 216.879
L155.445 216.879
L155.445 215.929
L155.57 215.929
L155.57 214.978
L158.23 214.978
L158.23 214.028
L162.383 214.028
L162.383 213.077
L162.541 213.077
L162.541 212.127
L163.402 212.127
L163.402 211.176
L166.094 211.176
L166.094 210.226
L166.234 210.226
L166.234 209.275
L167.074 209.275
L167.074 208.325
L169.053 208.325
L169.053 207.374
L170.005 207.374
L170.005 206.424
L172.428 206.424
L172.428 205.473
L172.652 205.473
L172.683 203.572
L174.106 203.572
L174.106 202.622
L175.637 202.622
L175.637 201.671
L178.061 201.671
L178.061 200.721
L180.174 200.721
L180.174 199.77
L182.368 199.77
L182.368 198.82
L182.877 198.82
L182.877 197.869
L184.467 197.869
L184.467 196.919
L185.557 196.919
L185.557 195.968
L186.793 195.968
L186.793 195.018
L197.801 195.018
L197.801 194.067
L199.577 194.067
L199.577 193.117
L200.739 193.117
L200.739 192.166
L200.915 192.166
L200.915 191.216
L201.414 191.216
L201.414 176.958
L202.615 176.958
L202.615 176.008
L206.382 176.008
L206.382 175.057
L207.314 175.057
L207.314 174.107
L208.99 174.107
L208.99 173.156
L210.935 173.156
L210.935 172.206
L211.608 172.206
L211.675 170.305
L212.147 170.305
L212.195 168.404
L212.437 168.404
L212.493 166.503
L212.624 166.503
L212.662 164.602
L213.008 164.602
L213.008 161.75
L213.284 161.75
L213.284 160.8
L214.08 160.8
L214.08 158.899
L214.234 158.899
L214.234 157.949
L214.372 157.949
L214.372 156.998
L214.798 156.998
L214.798 156.048
L215.604 156.048
L215.604 155.097
L215.732 155.097
L215.732 154.147
L215.985 154.147
L216.021 151.295
L216.596 151.295
L216.596 150.345
L217.509 150.345
L217.509 149.394
L218.013 149.394
L218.013 148.444
L218.5 148.444
L218.5 147.493
L218.754 147.493
L218.754 146.543
L219.672 146.543
L219.713 144.642
L220.263 144.642
L220.263 143.691
L220.565 143.691
L220.565 142.741
L220.894 142.741
L220.894 141.79
L221.038 141.79
L221.038 140.84
L221.222 140.84
L221.222 139.889
L222.151 139.889
L222.247 137.988
L223.228 137.988
L223.228 137.038
L223.841 137.038
L223.934 135.137
L224.231 135.137
L224.231 134.186
L224.377 134.186
L224.45 132.285
L224.597 132.285
L224.597 131.335
L224.858 131.335
L224.876 124.681
L225.114 124.681
L225.114 123.731
L225.775 123.731
L225.883 121.83
L226.958 121.83
L226.958 120.879
L227.089 120.879
L227.189 118.028
L227.539 118.028
L227.539 117.077
L227.687 117.077
L227.687 116.127
L227.954 116.127
L227.954 115.176
L228.208 115.176
L228.315 112.325
L228.363 112.325
L228.387 110.424
L232.986 110.424
L232.986 109.473
L233.26 109.473
L233.26 108.523
L235.196 108.523
L235.196 107.572
L235.712 107.572
L235.716 103.77
L236.118 103.77
L236.118 102.82
L238.158 102.82
L238.158 101.869
L239.425 101.869
L239.425 100.919
L239.842 100.919
L239.914 99.0178
L241.499 99.0178
L241.499 98.0673
L241.943 98.0673
L241.943 97.1168
L246.411 97.1168
L246.411 96.1663
L248.78 96.1663
L248.78 95.2158
L250.123 95.2158
L250.123 94.2653
L250.362 94.2653
L250.362 93.3149
L251.677 93.3149
L251.677 92.3644
L252.412 92.3644
L252.412 90.4634
L252.919 90.4634
L252.919 88.5624
L253.405 88.5624
L253.405 86.6614
L253.87 86.6614
L253.87 85.7109
L254.038 85.7109
L254.038 84.7604
L254.318 84.7604
L254.318 82.8594
L254.748 82.8594
L254.748 80.9584
L254.933 80.9584
L254.933 80.0079
L255.163 80.0079
L255.163 79.0574
L255.563 79.0574
L255.563 76.2059
L256.296 76.2059
L256.324 73.3545
L256.686 73.3545
L256.686 72.404
L257.037 72.404
L257.037 69.5525
L257.378 69.5525
L257.378 68.602
L257.709 68.602
L257.709 66.701
L258.647 66.701
L258.647 63.8495
L259.232 63.8495
L259.232 61.9485
L259.513 61.9485
L259.513 60.0475
L260.826 60.0475
L260.826 58.1465
L261.311 58.1465
L261.311 54.3446
L261.547 54.3446
L261.547 53.3941
L261.813 53.3941
L261.813 52.4436
L263.665 52.4436
L263.665 51.4931
L264.231 51.4931
L264.231 50.5426
L264.413 50.5426
L264.413 49.5921
L265.369 49.5921
L265.369 48.6416
L266.864 48.6416
L266.864 47.6911
L266.995 47.6911
L266.995 46.7406
L269.91 46.7406
L269.91 45.7901
L270.263 45.7901
L270.263 44.8396
L270.569 44.8396
L270.569 43.8891
L271.118 43.8891
L271.118 42.9386
L271.753 42.9386
L271.753 41.9881
L271.967 41.9881
L272.077 39.1366
L272.285 39.1366
L272.327 36.2851
L272.606 36.2851
L272.606 35.3347
L272.807 35.3347
L272.887 33.4337
L272.972 33.4337
L272.972 32.4832
L273.282 32.4832
L273.282 31.5327
L273.714 31.5327
L273.714 30.5822
L273.957 30.5822
L273.957 29.6317
L274.083 29.6317
L274.083 28.6812
L275.346 28.6812
L275.346 27.7307
L275.895 27.7307
L275.895 26.7802
L276.612 26.7802
L276.612 25.8297
L279.391 25.8297
L279.391 24.8792
L279.918 24.8792
L279.918 23.9287
L281.795 23.9287
L281.795 22.9782
L282.366 22.9782
L282.416 21.0772
L282.727 21.0772
L282.727 20.1267
L283.899 20.1267
L283.899 19.1762
L284.265 19.1762
L284.265 18.2257
L284.837 18.2257
L284.837 17.2752
L284.973 17.2752
L284.973 16.3248
L286.484 16.3248
L286.484 15.3743
L286.944 15.3743
L286.944 14.4238
L287.154 14.4238
L287.154 13.4733
L287.4 13.4733
L287.4 12.5228
L288.98 12.5228
L288.98 11.5723
L291.08 11.5723
L291.08 10.6218
L291.08 10.6218
L453.6 10.6218
L453.6 10.6218" style="fill:none;stroke:#00bfbf;stroke-linecap:square;"/>
   </g>
   <g id="matplotlib.axis_1">
    <g id="xtick_1"/>
    <g id="xtick_2">
     <g id="line2d_9">
      <path clip-path="url(#p99b4b0da67)" d="
M59.6175 352.8
L59.6175 7.2" style="fill:none;stroke:#000000;stroke-dasharray:1.000000,3.000000;stroke-dashoffset:0.0;stroke-width:0.5;"/>
     </g>
     <g id="line2d_10">
      <defs>
       <path d="
M0 0
L0 -4" id="m93b0483c22" style="stroke:#000000;stroke-width:0.5;"/>
      </defs>
      <g>
       <use style="stroke:#000000;stroke-width:0.5;" x="59.6174973142" xlink:href="#m93b0483c22" y="352.8"/>
      </g>
     </g>
     <g id="line2d_11">
      <defs>
       <path d="
M0 0
L0 4" id="m741efc42ff" style="stroke:#000000;stroke-width:0.5;"/>
      </defs>
      <g>
       <use style="stroke:#000000;stroke-width:0.5;" x="59.6174973142" xlink:href="#m741efc42ff" y="7.2"/>
      </g>
     </g>
     <g id="text_1">
      <!-- -6 -->
      <defs>
       <path d="
M33.0156 40.375
Q26.375 40.375 22.4844 35.8281
Q18.6094 31.2969 18.6094 23.3906
Q18.6094 15.5312 22.4844 10.9531
Q26.375 6.39062 33.0156 6.39062
Q39.6562 6.39062 43.5312 10.9531
Q47.4062 15.5312 47.4062 23.3906
Q47.4062 31.2969 43.5312 35.8281
Q39.6562 40.375 33.0156 40.375
M52.5938 71.2969
L52.5938 62.3125
Q48.875 64.0625 45.0938 64.9844
Q41.3125 65.9219 37.5938 65.9219
Q27.8281 65.9219 22.6719 59.3281
Q17.5312 52.7344 16.7969 39.4062
Q19.6719 43.6562 24.0156 45.9219
Q28.375 48.1875 33.5938 48.1875
Q44.5781 48.1875 50.9531 41.5156
Q57.3281 34.8594 57.3281 23.3906
Q57.3281 12.1562 50.6875 5.35938
Q44.0469 -1.42188 33.0156 -1.42188
Q20.3594 -1.42188 13.6719 8.26562
Q6.98438 17.9688 6.98438 36.375
Q6.98438 53.6562 15.1875 63.9375
Q23.3906 74.2188 37.2031 74.2188
Q40.9219 74.2188 44.7031 73.4844
Q48.4844 72.75 52.5938 71.2969" id="BitstreamVeraSans-Roman-36"/>
       <path d="
M4.89062 31.3906
L31.2031 31.3906
L31.2031 23.3906
L4.89062 23.3906
z
" id="BitstreamVeraSans-Roman-2d"/>
      </defs>
      <g transform="translate(50.7659348142 371.996875)scale(0.2 -0.2)">
       <use xlink:href="#BitstreamVeraSans-Roman-2d"/>
       <use x="36.083984375" xlink:href="#BitstreamVeraSans-Roman-36"/>
      </g>
     </g>
    </g>
    <g id="xtick_3">
     <g id="line2d_12">
      <path clip-path="url(#p99b4b0da67)" d="
M112.148 352.8
L112.148 7.2" style="fill:none;stroke:#000000;stroke-dasharray:1.000000,3.000000;stroke-dashoffset:0.0;stroke-width:0.5;"/>
     </g>
     <g id="line2d_13">
      <g>
       <use style="stroke:#000000;stroke-width:0.5;" x="112.148497672" xlink:href="#m93b0483c22" y="352.8"/>
      </g>
     </g>
     <g id="line2d_14">
      <g>
       <use style="stroke:#000000;stroke-width:0.5;" x="112.148497672" xlink:href="#m741efc42ff" y="7.2"/>
      </g>
     </g>
     <g id="text_2">
      <!-- -4 -->
      <defs>
       <path d="
M37.7969 64.3125
L12.8906 25.3906
L37.7969 25.3906
z

M35.2031 72.9062
L47.6094 72.9062
L47.6094 25.3906
L58.0156 25.3906
L58.0156 17.1875
L47.6094 17.1875
L47.6094 0
L37.7969 0
L37.7969 17.1875
L4.89062 17.1875
L4.89062 26.7031
z
" id="BitstreamVeraSans-Roman-34"/>
      </defs>
      <g transform="translate(103.228185172 371.996875)scale(0.2 -0.2)">
       <use xlink:href="#BitstreamVeraSans-Roman-2d"/>
       <use x="36.083984375" xlink:href="#BitstreamVeraSans-Roman-34"/>
      </g>
     </g>
    </g>
    <g id="xtick_4">
     <g id="line2d_15">
      <path clip-path="url(#p99b4b0da67)" d="
M164.679 352.8
L164.679 7.2" style="fill:none;stroke:#000000;stroke-dasharray:1.000000,3.000000;stroke-dashoffset:0.0;stroke-width:0.5;"/>
     </g>
     <g id="line2d_16">
      <g>
       <use style="stroke:#000000;stroke-width:0.5;" x="164.67949803" xlink:href="#m93b0483c22" y="352.8"/>
      </g>
     </g>
     <g id="line2d_17">
      <g>
       <use style="stroke:#000000;stroke-width:0.5;" x="164.67949803" xlink:href="#m741efc42ff" y="7.2"/>
      </g>
     </g>
     <g id="text_3">
      <!-- -2 -->
      <defs>
       <path d="
M19.1875 8.29688
L53.6094 8.29688
L53.6094 0
L7.32812 0
L7.32812 8.29688
Q12.9375 14.1094 22.625 23.8906
Q32.3281 33.6875 34.8125 36.5312
Q39.5469 41.8438 41.4219 45.5312
Q43.3125 49.2188 43.3125 52.7812
Q43.3125 58.5938 39.2344 62.25
Q35.1562 65.9219 28.6094 65.9219
Q23.9688 65.9219 18.8125 64.3125
Q13.6719 62.7031 7.8125 59.4219
L7.8125 69.3906
Q13.7656 71.7812 18.9375 73
Q24.125 74.2188 28.4219 74.2188
Q39.75 74.2188 46.4844 68.5469
Q53.2188 62.8906 53.2188 53.4219
Q53.2188 48.9219 51.5312 44.8906
Q49.8594 40.875 45.4062 35.4062
Q44.1875 33.9844 37.6406 27.2188
Q31.1094 20.4531 19.1875 8.29688" id="BitstreamVeraSans-Roman-32"/>
      </defs>
      <g transform="translate(156.19981053 371.996875)scale(0.2 -0.2)">
       <use xlink:href="#BitstreamVeraSans-Roman-2d"/>
       <use x="36.083984375" xlink:href="#BitstreamVeraSans-Roman-32"/>
      </g>
     </g>
    </g>
    <g id="xtick_5">
     <g id="line2d_18">
      <path clip-path="url(#p99b4b0da67)" d="
M217.21 352.8
L217.21 7.2" style="fill:none;stroke:#000000;stroke-dasharray:1.000000,3.000000;stroke-dashoffset:0.0;stroke-width:0.5;"/>
     </g>
     <g id="line2d_19">
      <g>
       <use style="stroke:#000000;stroke-width:0.5;" x="217.210498389" xlink:href="#m93b0483c22" y="352.8"/>
      </g>
     </g>
     <g id="line2d_20">
      <g>
       <use style="stroke:#000000;stroke-width:0.5;" x="217.210498389" xlink:href="#m741efc42ff" y="7.2"/>
      </g>
     </g>
     <g id="text_4">
      <!-- 0 -->
      <defs>
       <path d="
M31.7812 66.4062
Q24.1719 66.4062 20.3281 58.9062
Q16.5 51.4219 16.5 36.375
Q16.5 21.3906 20.3281 13.8906
Q24.1719 6.39062 31.7812 6.39062
Q39.4531 6.39062 43.2812 13.8906
Q47.125 21.3906 47.125 36.375
Q47.125 51.4219 43.2812 58.9062
Q39.4531 66.4062 31.7812 66.4062
M31.7812 74.2188
Q44.0469 74.2188 50.5156 64.5156
Q56.9844 54.8281 56.9844 36.375
Q56.9844 17.9688 50.5156 8.26562
Q44.0469 -1.42188 31.7812 -1.42188
Q19.5312 -1.42188 13.0625 8.26562
Q6.59375 17.9688 6.59375 36.375
Q6.59375 54.8281 13.0625 64.5156
Q19.5312 74.2188 31.7812 74.2188" id="BitstreamVeraSans-Roman-30"/>
      </defs>
      <g transform="translate(212.171435889 371.996875)scale(0.2 -0.2)">
       <use xlink:href="#BitstreamVeraSans-Roman-30"/>
      </g>
     </g>
    </g>
    <g id="xtick_6">
     <g id="line2d_21">
      <path clip-path="url(#p99b4b0da67)" d="
M269.741 352.8
L269.741 7.2" style="fill:none;stroke:#000000;stroke-dasharray:1.000000,3.000000;stroke-dashoffset:0.0;stroke-width:0.5;"/>
     </g>
     <g id="line2d_22">
      <g>
       <use style="stroke:#000000;stroke-width:0.5;" x="269.741498747" xlink:href="#m93b0483c22" y="352.8"/>
      </g>
     </g>
     <g id="line2d_23">
      <g>
       <use style="stroke:#000000;stroke-width:0.5;" x="269.741498747" xlink:href="#m741efc42ff" y="7.2"/>
      </g>
     </g>
     <g id="text_5">
      <!-- 2 -->
      <g transform="translate(265.113373747 371.996875)scale(0.2 -0.2)">
       <use xlink:href="#BitstreamVeraSans-Roman-32"/>
      </g>
     </g>
    </g>
    <g id="xtick_7">
     <g id="line2d_24">
      <path clip-path="url(#p99b4b0da67)" d="
M322.272 352.8
L322.272 7.2" style="fill:none;stroke:#000000;stroke-dasharray:1.000000,3.000000;stroke-dashoffset:0.0;stroke-width:0.5;"/>
     </g>
     <g id="line2d_25">
      <g>
       <use style="stroke:#000000;stroke-width:0.5;" x="322.272499105" xlink:href="#m93b0483c22" y="352.8"/>
      </g>
     </g>
     <g id="line2d_26">
      <g>
       <use style="stroke:#000000;stroke-width:0.5;" x="322.272499105" xlink:href="#m741efc42ff" y="7.2"/>
      </g>
     </g>
     <g id="text_6">
      <!-- 4 -->
      <g transform="translate(316.959999105 371.996875)scale(0.2 -0.2)">
       <use xlink:href="#BitstreamVeraSans-Roman-34"/>
      </g>
     </g>
    </g>
    <g id="xtick_8">
     <g id="line2d_27">
      <path clip-path="url(#p99b4b0da67)" d="
M374.803 352.8
L374.803 7.2" style="fill:none;stroke:#000000;stroke-dasharray:1.000000,3.000000;stroke-dashoffset:0.0;stroke-width:0.5;"/>
     </g>
     <g id="line2d_28">
      <g>
       <use style="stroke:#000000;stroke-width:0.5;" x="374.803499463" xlink:href="#m93b0483c22" y="352.8"/>
      </g>
     </g>
     <g id="line2d_29">
      <g>
       <use style="stroke:#000000;stroke-width:0.5;" x="374.803499463" xlink:href="#m741efc42ff" y="7.2"/>
      </g>
     </g>
     <g id="text_7">
      <!-- 6 -->
      <g transform="translate(369.769124463 371.996875)scale(0.2 -0.2)">
       <use xlink:href="#BitstreamVeraSans-Roman-36"/>
      </g>
     </g>
    </g>
    <g id="xtick_9">
     <g id="line2d_30">
      <path clip-path="url(#p99b4b0da67)" d="
M427.334 352.8
L427.334 7.2" style="fill:none;stroke:#000000;stroke-dasharray:1.000000,3.000000;stroke-dashoffset:0.0;stroke-width:0.5;"/>
     </g>
     <g id="line2d_31">
      <g>
       <use style="stroke:#000000;stroke-width:0.5;" x="427.334499821" xlink:href="#m93b0483c22" y="352.8"/>
      </g>
     </g>
     <g id="line2d_32">
      <g>
       <use style="stroke:#000000;stroke-width:0.5;" x="427.334499821" xlink:href="#m741efc42ff" y="7.2"/>
      </g>
     </g>
     <g id="text_8">
      <!-- 8 -->
      <defs>
       <path d="
M31.7812 34.625
Q24.75 34.625 20.7188 30.8594
Q16.7031 27.0938 16.7031 20.5156
Q16.7031 13.9219 20.7188 10.1562
Q24.75 6.39062 31.7812 6.39062
Q38.8125 6.39062 42.8594 10.1719
Q46.9219 13.9688 46.9219 20.5156
Q46.9219 27.0938 42.8906 30.8594
Q38.875 34.625 31.7812 34.625
M21.9219 38.8125
Q15.5781 40.375 12.0312 44.7188
Q8.5 49.0781 8.5 55.3281
Q8.5 64.0625 14.7188 69.1406
Q20.9531 74.2188 31.7812 74.2188
Q42.6719 74.2188 48.875 69.1406
Q55.0781 64.0625 55.0781 55.3281
Q55.0781 49.0781 51.5312 44.7188
Q48 40.375 41.7031 38.8125
Q48.8281 37.1562 52.7969 32.3125
Q56.7812 27.4844 56.7812 20.5156
Q56.7812 9.90625 50.3125 4.23438
Q43.8438 -1.42188 31.7812 -1.42188
Q19.7344 -1.42188 13.25 4.23438
Q6.78125 9.90625 6.78125 20.5156
Q6.78125 27.4844 10.7812 32.3125
Q14.7969 37.1562 21.9219 38.8125
M18.3125 54.3906
Q18.3125 48.7344 21.8438 45.5625
Q25.3906 42.3906 31.7812 42.3906
Q38.1406 42.3906 41.7188 45.5625
Q45.3125 48.7344 45.3125 54.3906
Q45.3125 60.0625 41.7188 63.2344
Q38.1406 66.4062 31.7812 66.4062
Q25.3906 66.4062 21.8438 63.2344
Q18.3125 60.0625 18.3125 54.3906" id="BitstreamVeraSans-Roman-38"/>
      </defs>
      <g transform="translate(422.334499821 371.996875)scale(0.2 -0.2)">
       <use xlink:href="#BitstreamVeraSans-Roman-38"/>
      </g>
     </g>
    </g>
    <g id="xtick_10"/>
    <g id="xtick_11">
     <g id="line2d_33">
      <defs>
       <path d="
M0 0
L0 -2" id="m177f7580d0" style="stroke:#000000;stroke-width:0.5;"/>
      </defs>
      <g>
       <use style="stroke:#000000;stroke-width:0.5;" x="59.6174973142" xlink:href="#m177f7580d0" y="352.8"/>
      </g>
     </g>
     <g id="line2d_34">
      <defs>
       <path d="
M0 0
L0 2" id="m5284c7e2a0" style="stroke:#000000;stroke-width:0.5;"/>
      </defs>
      <g>
       <use style="stroke:#000000;stroke-width:0.5;" x="59.6174973142" xlink:href="#m5284c7e2a0" y="7.2"/>
      </g>
     </g>
    </g>
    <g id="xtick_12">
     <g id="line2d_35">
      <g>
       <use style="stroke:#000000;stroke-width:0.5;" x="112.148497672" xlink:href="#m177f7580d0" y="352.8"/>
      </g>
     </g>
     <g id="line2d_36">
      <g>
       <use style="stroke:#000000;stroke-width:0.5;" x="112.148497672" xlink:href="#m5284c7e2a0" y="7.2"/>
      </g>
     </g>
    </g>
    <g id="xtick_13">
     <g id="line2d_37">
      <g>
       <use style="stroke:#000000;stroke-width:0.5;" x="164.67949803" xlink:href="#m177f7580d0" y="352.8"/>
      </g>
     </g>
     <g id="line2d_38">
      <g>
       <use style="stroke:#000000;stroke-width:0.5;" x="164.67949803" xlink:href="#m5284c7e2a0" y="7.2"/>
      </g>
     </g>
    </g>
    <g id="xtick_14">
     <g id="line2d_39">
      <g>
       <use style="stroke:#000000;stroke-width:0.5;" x="217.210498389" xlink:href="#m177f7580d0" y="352.8"/>
      </g>
     </g>
     <g id="line2d_40">
      <g>
       <use style="stroke:#000000;stroke-width:0.5;" x="217.210498389" xlink:href="#m5284c7e2a0" y="7.2"/>
      </g>
     </g>
    </g>
    <g id="xtick_15">
     <g id="line2d_41">
      <g>
       <use style="stroke:#000000;stroke-width:0.5;" x="269.741498747" xlink:href="#m177f7580d0" y="352.8"/>
      </g>
     </g>
     <g id="line2d_42">
      <g>
       <use style="stroke:#000000;stroke-width:0.5;" x="269.741498747" xlink:href="#m5284c7e2a0" y="7.2"/>
      </g>
     </g>
    </g>
    <g id="xtick_16">
     <g id="line2d_43">
      <g>
       <use style="stroke:#000000;stroke-width:0.5;" x="322.272499105" xlink:href="#m177f7580d0" y="352.8"/>
      </g>
     </g>
     <g id="line2d_44">
      <g>
       <use style="stroke:#000000;stroke-width:0.5;" x="322.272499105" xlink:href="#m5284c7e2a0" y="7.2"/>
      </g>
     </g>
    </g>
    <g id="xtick_17">
     <g id="line2d_45">
      <g>
       <use style="stroke:#000000;stroke-width:0.5;" x="374.803499463" xlink:href="#m177f7580d0" y="352.8"/>
      </g>
     </g>
     <g id="line2d_46">
      <g>
       <use style="stroke:#000000;stroke-width:0.5;" x="374.803499463" xlink:href="#m5284c7e2a0" y="7.2"/>
      </g>
     </g>
    </g>
    <g id="xtick_18">
     <g id="line2d_47">
      <g>
       <use style="stroke:#000000;stroke-width:0.5;" x="427.334499821" xlink:href="#m177f7580d0" y="352.8"/>
      </g>
     </g>
     <g id="line2d_48">
      <g>
       <use style="stroke:#000000;stroke-width:0.5;" x="427.334499821" xlink:href="#m5284c7e2a0" y="7.2"/>
      </g>
     </g>
    </g>
    <g id="text_9">
     <!-- log10 of Df -->
     <defs>
      <path id="BitstreamVeraSans-Roman-20"/>
      <path d="
M12.4062 8.29688
L28.5156 8.29688
L28.5156 63.9219
L10.9844 60.4062
L10.9844 69.3906
L28.4219 72.9062
L38.2812 72.9062
L38.2812 8.29688
L54.3906 8.29688
L54.3906 0
L12.4062 0
z
" id="BitstreamVeraSans-Roman-31"/>
      <path d="
M30.6094 48.3906
Q23.3906 48.3906 19.1875 42.75
Q14.9844 37.1094 14.9844 27.2969
Q14.9844 17.4844 19.1562 11.8438
Q23.3438 6.20312 30.6094 6.20312
Q37.7969 6.20312 41.9844 11.8594
Q46.1875 17.5312 46.1875 27.2969
Q46.1875 37.0156 41.9844 42.7031
Q37.7969 48.3906 30.6094 48.3906
M30.6094 56
Q42.3281 56 49.0156 48.375
Q55.7188 40.7656 55.7188 27.2969
Q55.7188 13.875 49.0156 6.21875
Q42.3281 -1.42188 30.6094 -1.42188
Q18.8438 -1.42188 12.1719 6.21875
Q5.51562 13.875 5.51562 27.2969
Q5.51562 40.7656 12.1719 48.375
Q18.8438 56 30.6094 56" id="BitstreamVeraSans-Roman-6f"/>
      <path d="
M9.42188 75.9844
L18.4062 75.9844
L18.4062 0
L9.42188 0
z
" id="BitstreamVeraSans-Roman-6c"/>
      <path d="
M19.6719 64.7969
L19.6719 8.10938
L31.5938 8.10938
Q46.6875 8.10938 53.6875 14.9375
Q60.6875 21.7812 60.6875 36.5312
Q60.6875 51.1719 53.6875 57.9844
Q46.6875 64.7969 31.5938 64.7969
z

M9.8125 72.9062
L30.0781 72.9062
Q51.2656 72.9062 61.1719 64.0938
Q71.0938 55.2812 71.0938 36.5312
Q71.0938 17.6719 61.125 8.82812
Q51.1719 0 30.0781 0
L9.8125 0
z
" id="BitstreamVeraSans-Roman-44"/>
      <path d="
M45.4062 27.9844
Q45.4062 37.75 41.375 43.1094
Q37.3594 48.4844 30.0781 48.4844
Q22.8594 48.4844 18.8281 43.1094
Q14.7969 37.75 14.7969 27.9844
Q14.7969 18.2656 18.8281 12.8906
Q22.8594 7.51562 30.0781 7.51562
Q37.3594 7.51562 41.375 12.8906
Q45.4062 18.2656 45.4062 27.9844
M54.3906 6.78125
Q54.3906 -7.17188 48.1875 -13.9844
Q42 -20.7969 29.2031 -20.7969
Q24.4688 -20.7969 20.2656 -20.0938
Q16.0625 -19.3906 12.1094 -17.9219
L12.1094 -9.1875
Q16.0625 -11.3281 19.9219 -12.3438
Q23.7812 -13.375 27.7812 -13.375
Q36.625 -13.375 41.0156 -8.76562
Q45.4062 -4.15625 45.4062 5.17188
L45.4062 9.625
Q42.625 4.78125 38.2812 2.39062
Q33.9375 0 27.875 0
Q17.8281 0 11.6719 7.65625
Q5.51562 15.3281 5.51562 27.9844
Q5.51562 40.6719 11.6719 48.3281
Q17.8281 56 27.875 56
Q33.9375 56 38.2812 53.6094
Q42.625 51.2188 45.4062 46.3906
L45.4062 54.6875
L54.3906 54.6875
z
" id="BitstreamVeraSans-Roman-67"/>
      <path d="
M37.1094 75.9844
L37.1094 68.5
L28.5156 68.5
Q23.6875 68.5 21.7969 66.5469
Q19.9219 64.5938 19.9219 59.5156
L19.9219 54.6875
L34.7188 54.6875
L34.7188 47.7031
L19.9219 47.7031
L19.9219 0
L10.8906 0
L10.8906 47.7031
L2.29688 47.7031
L2.29688 54.6875
L10.8906 54.6875
L10.8906 58.5
Q10.8906 67.625 15.1406 71.7969
Q19.3906 75.9844 28.6094 75.9844
z
" id="BitstreamVeraSans-Roman-66"/>
     </defs>
     <g transform="translate(175.0234375 396.353125)scale(0.2 -0.2)">
      <use xlink:href="#BitstreamVeraSans-Roman-6c"/>
      <use x="27.783203125" xlink:href="#BitstreamVeraSans-Roman-6f"/>
      <use x="88.96484375" xlink:href="#BitstreamVeraSans-Roman-67"/>
      <use x="152.44140625" xlink:href="#BitstreamVeraSans-Roman-31"/>
      <use x="216.064453125" xlink:href="#BitstreamVeraSans-Roman-30"/>
      <use x="279.6875" xlink:href="#BitstreamVeraSans-Roman-20"/>
      <use x="311.474609375" xlink:href="#BitstreamVeraSans-Roman-6f"/>
      <use x="372.65625" xlink:href="#BitstreamVeraSans-Roman-66"/>
      <use x="407.861328125" xlink:href="#BitstreamVeraSans-Roman-20"/>
      <use x="439.6484375" xlink:href="#BitstreamVeraSans-Roman-44"/>
      <use x="516.650390625" xlink:href="#BitstreamVeraSans-Roman-66"/>
     </g>
    </g>
   </g>
   <g id="matplotlib.axis_2">
    <g id="ytick_1">
     <g id="line2d_49">
      <path clip-path="url(#p99b4b0da67)" d="
M7.2 352.8
L453.6 352.8" style="fill:none;stroke:#000000;stroke-dasharray:1.000000,3.000000;stroke-dashoffset:0.0;stroke-width:0.5;"/>
     </g>
     <g id="line2d_50">
      <defs>
       <path d="
M0 0
L4 0" id="m728421d6d4" style="stroke:#000000;stroke-width:0.5;"/>
      </defs>
      <g>
       <use style="stroke:#000000;stroke-width:0.5;" x="7.2" xlink:href="#m728421d6d4" y="352.8"/>
      </g>
     </g>
     <g id="line2d_51">
      <defs>
       <path d="
M0 0
L-4 0" id="mcb0005524f" style="stroke:#000000;stroke-width:0.5;"/>
      </defs>
      <g>
       <use style="stroke:#000000;stroke-width:0.5;" x="453.6" xlink:href="#mcb0005524f" y="352.8"/>
      </g>
     </g>
    </g>
    <g id="ytick_2">
     <g id="line2d_52">
      <path clip-path="url(#p99b4b0da67)" d="
M7.2 284.364
L453.6 284.364" style="fill:none;stroke:#000000;stroke-dasharray:1.000000,3.000000;stroke-dashoffset:0.0;stroke-width:0.5;"/>
     </g>
     <g id="line2d_53">
      <g>
       <use style="stroke:#000000;stroke-width:0.5;" x="7.2" xlink:href="#m728421d6d4" y="284.364356436"/>
      </g>
     </g>
     <g id="line2d_54">
      <g>
       <use style="stroke:#000000;stroke-width:0.5;" x="453.6" xlink:href="#mcb0005524f" y="284.364356436"/>
      </g>
     </g>
    </g>
    <g id="ytick_3">
     <g id="line2d_55">
      <path clip-path="url(#p99b4b0da67)" d="
M7.2 215.929
L453.6 215.929" style="fill:none;stroke:#000000;stroke-dasharray:1.000000,3.000000;stroke-dashoffset:0.0;stroke-width:0.5;"/>
     </g>
     <g id="line2d_56">
      <g>
       <use style="stroke:#000000;stroke-width:0.5;" x="7.2" xlink:href="#m728421d6d4" y="215.928712871"/>
      </g>
     </g>
     <g id="line2d_57">
      <g>
       <use style="stroke:#000000;stroke-width:0.5;" x="453.6" xlink:href="#mcb0005524f" y="215.928712871"/>
      </g>
     </g>
    </g>
    <g id="ytick_4">
     <g id="line2d_58">
      <path clip-path="url(#p99b4b0da67)" d="
M7.2 147.493
L453.6 147.493" style="fill:none;stroke:#000000;stroke-dasharray:1.000000,3.000000;stroke-dashoffset:0.0;stroke-width:0.5;"/>
     </g>
     <g id="line2d_59">
      <g>
       <use style="stroke:#000000;stroke-width:0.5;" x="7.2" xlink:href="#m728421d6d4" y="147.493069307"/>
      </g>
     </g>
     <g id="line2d_60">
      <g>
       <use style="stroke:#000000;stroke-width:0.5;" x="453.6" xlink:href="#mcb0005524f" y="147.493069307"/>
      </g>
     </g>
    </g>
    <g id="ytick_5">
     <g id="line2d_61">
      <path clip-path="url(#p99b4b0da67)" d="
M7.2 79.0574
L453.6 79.0574" style="fill:none;stroke:#000000;stroke-dasharray:1.000000,3.000000;stroke-dashoffset:0.0;stroke-width:0.5;"/>
     </g>
     <g id="line2d_62">
      <g>
       <use style="stroke:#000000;stroke-width:0.5;" x="7.2" xlink:href="#m728421d6d4" y="79.0574257426"/>
      </g>
     </g>
     <g id="line2d_63">
      <g>
       <use style="stroke:#000000;stroke-width:0.5;" x="453.6" xlink:href="#mcb0005524f" y="79.0574257426"/>
      </g>
     </g>
    </g>
    <g id="ytick_6">
     <g id="line2d_64">
      <path clip-path="url(#p99b4b0da67)" d="
M7.2 10.6218
L453.6 10.6218" style="fill:none;stroke:#000000;stroke-dasharray:1.000000,3.000000;stroke-dashoffset:0.0;stroke-width:0.5;"/>
     </g>
     <g id="line2d_65">
      <g>
       <use style="stroke:#000000;stroke-width:0.5;" x="7.2" xlink:href="#m728421d6d4" y="10.6217821782"/>
      </g>
     </g>
     <g id="line2d_66">
      <g>
       <use style="stroke:#000000;stroke-width:0.5;" x="453.6" xlink:href="#mcb0005524f" y="10.6217821782"/>
      </g>
     </g>
    </g>
   </g>
   <g id="patch_3">
    <path d="
M7.2 7.2
L453.6 7.2" style="fill:none;stroke:#000000;"/>
   </g>
   <g id="patch_4">
    <path d="
M453.6 352.8
L453.6 7.2" style="fill:none;stroke:#000000;"/>
   </g>
   <g id="patch_5">
    <path d="
M7.2 352.8
L453.6 352.8" style="fill:none;stroke:#000000;"/>
   </g>
   <g id="patch_6">
    <path d="
M7.2 352.8
L7.2 7.2" style="fill:none;stroke:#000000;"/>
   </g>
   <g id="text_10">
    <!-- {f1-f24}, 20-D -->
    <defs>
     <path d="
M12.5 -9.28125
L15.9219 -9.28125
Q22.75 -9.28125 24.8281 -7.17188
Q26.9062 -5.07812 26.9062 1.90625
L26.9062 14.0156
Q26.9062 21.625 29.0938 25.0938
Q31.2969 28.5625 36.7188 29.8906
Q31.2969 31.1094 29.0938 34.5625
Q26.9062 38.0312 26.9062 45.7031
L26.9062 57.8125
Q26.9062 64.75 24.8281 66.875
Q22.75 69 15.9219 69
L12.5 69
L12.5 75.9844
L15.5781 75.9844
Q27.7344 75.9844 31.8125 72.3906
Q35.8906 68.7969 35.8906 58.0156
L35.8906 46.2969
Q35.8906 39.0156 38.5156 36.2031
Q41.1562 33.4062 48.0938 33.4062
L51.125 33.4062
L51.125 26.4219
L48.0938 26.4219
Q41.1562 26.4219 38.5156 23.5781
Q35.8906 20.75 35.8906 13.375
L35.8906 1.70312
Q35.8906 -9.07812 31.8125 -12.6875
Q27.7344 -16.3125 15.5781 -16.3125
L12.5 -16.3125
z
" id="BitstreamVeraSans-Roman-7d"/>
     <path d="
M51.125 -9.28125
L51.125 -16.3125
L48.0938 -16.3125
Q35.9375 -16.3125 31.8125 -12.6875
Q27.6875 -9.07812 27.6875 1.70312
L27.6875 13.375
Q27.6875 20.75 25.0469 23.5781
Q22.4062 26.4219 15.4844 26.4219
L12.5 26.4219
L12.5 33.4062
L15.4844 33.4062
Q22.4688 33.4062 25.0781 36.2031
Q27.6875 39.0156 27.6875 46.2969
L27.6875 58.0156
Q27.6875 68.7969 31.8125 72.3906
Q35.9375 75.9844 48.0938 75.9844
L51.125 75.9844
L51.125 69
L47.7969 69
Q40.9219 69 38.8125 66.8438
Q36.7188 64.7031 36.7188 57.8125
L36.7188 45.7031
Q36.7188 38.0312 34.5 34.5625
Q32.2812 31.1094 26.9062 29.8906
Q32.3281 28.5625 34.5156 25.0938
Q36.7188 21.625 36.7188 14.0156
L36.7188 1.90625
Q36.7188 -4.98438 38.8125 -7.125
Q40.9219 -9.28125 47.7969 -9.28125
z
" id="BitstreamVeraSans-Roman-7b"/>
     <path d="
M11.7188 12.4062
L22.0156 12.4062
L22.0156 4
L14.0156 -11.625
L7.71875 -11.625
L11.7188 4
z
" id="BitstreamVeraSans-Roman-2c"/>
    </defs>
    <g transform="translate(300.15325 345.888)scale(0.2 -0.2)">
     <use xlink:href="#BitstreamVeraSans-Roman-7b"/>
     <use x="63.623046875" xlink:href="#BitstreamVeraSans-Roman-66"/>
     <use x="98.828125" xlink:href="#BitstreamVeraSans-Roman-31"/>
     <use x="162.451171875" xlink:href="#BitstreamVeraSans-Roman-2d"/>
     <use x="198.53515625" xlink:href="#BitstreamVeraSans-Roman-66"/>
     <use x="233.740234375" xlink:href="#BitstreamVeraSans-Roman-32"/>
     <use x="297.36328125" xlink:href="#BitstreamVeraSans-Roman-34"/>
     <use x="360.986328125" xlink:href="#BitstreamVeraSans-Roman-7d"/>
     <use x="424.609375" xlink:href="#BitstreamVeraSans-Roman-2c"/>
     <use x="456.396484375" xlink:href="#BitstreamVeraSans-Roman-20"/>
     <use x="488.18359375" xlink:href="#BitstreamVeraSans-Roman-32"/>
     <use x="551.806640625" xlink:href="#BitstreamVeraSans-Roman-30"/>
     <use x="615.4296875" xlink:href="#BitstreamVeraSans-Roman-2d"/>
     <use x="651.513671875" xlink:href="#BitstreamVeraSans-Roman-44"/>
    </g>
   </g>
   <g id="text_11">
    <!-- 0.0.0 -->
    <defs>
     <path d="
M10.6875 12.4062
L21 12.4062
L21 0
L10.6875 0
z
" id="BitstreamVeraSans-Roman-2e"/>
    </defs>
    <g style="fill:#808080;" transform="translate(218.33984375 347.2643125)scale(0.1 -0.1)">
     <use xlink:href="#BitstreamVeraSans-Roman-30"/>
     <use x="63.623046875" xlink:href="#BitstreamVeraSans-Roman-2e"/>
     <use x="95.41015625" xlink:href="#BitstreamVeraSans-Roman-30"/>
     <use x="159.033203125" xlink:href="#BitstreamVeraSans-Roman-2e"/>
     <use x="190.8203125" xlink:href="#BitstreamVeraSans-Roman-30"/>
    </g>
   </g>
  </g>
 </g>
 <defs>
  <clipPath id="p99b4b0da67">
   <rect height="345.6" width="446.4" x="7.2" y="7.2"/>
  </clipPath>
 </defs>
</svg>
