<?xml version="1.0" encoding="utf-8" standalone="no"?>
<!DOCTYPE svg PUBLIC "-//W3C//DTD SVG 1.1//EN"
  "http://www.w3.org/Graphics/SVG/1.1/DTD/svg11.dtd">
<!-- Created with matplotlib (http://matplotlib.org/) -->
<svg height="407pt" version="1.1" viewBox="0 0 460 407" width="460pt" xmlns="http://www.w3.org/2000/svg" xmlns:xlink="http://www.w3.org/1999/xlink">
 <defs>
  <style type="text/css">
*{stroke-linecap:butt;stroke-linejoin:round;}
  </style>
 </defs>
 <g id="figure_1">
  <g id="patch_1">
   <path d="
M0 407.712
L460.8 407.712
L460.8 0
L0 0
z
" style="fill:#ffffff;"/>
  </g>
  <g id="axes_1">
   <g id="patch_2">
    <path d="
M7.2 352.8
L453.6 352.8
L453.6 7.2
L7.2 7.2
z
" style="fill:#ffffff;"/>
   </g>
   <g id="line2d_1">
    <path clip-path="url(#p99b4b0da67)" d="
M-84.0873 352.8
M-1 198.82
L0.954781 198.82
L0.954781 193.117
L6.96415 193.117
L6.96415 187.414
L7.1889 187.414
L7.1889 181.711
L11.2687 181.711
L11.2687 176.008
L15.0592 176.008
L15.0592 170.305
L17.4498 170.305
L17.4498 164.602
L18.0192 164.602
L18.0192 158.899
L24.6883 158.899
L24.6883 153.196
L25.4149 153.196
L25.4149 147.493
L26.8624 147.493
L26.8624 141.79
L28.8606 141.79
L28.8606 136.087
L31.2273 136.087
L31.2273 130.384
L31.2418 130.384
L31.2418 124.681
L35.3913 124.681
L35.3913 118.978
L37.5855 118.978
L37.5855 113.275
L38.9937 113.275
L38.9937 107.572
L39.3215 107.572
L39.3215 101.869
L172.428 101.869
L172.428 96.1663
L172.652 96.1663
L172.652 90.4634
L200.739 90.4634
L200.739 84.7604
L200.915 84.7604
L200.915 79.0574
L208.99 79.0574
L208.99 73.3545
L211.675 73.3545
L211.675 67.6515
L212.437 67.6515
L212.437 61.9485
L213.284 61.9485
L213.284 56.2455
L218.5 56.2455
L218.5 50.5426
L219.672 50.5426
L219.672 44.8396
L220.263 44.8396
L220.263 39.1366
L221.038 39.1366
L221.038 33.4337
L222.151 33.4337
L222.151 27.7307
L223.841 27.7307
L223.841 22.0277
L224.377 22.0277
L224.377 16.3248
L232.986 16.3248
L232.986 10.6218
L232.986 10.6218
L232.986 10.6218
L453.6 10.6218" style="fill:none;stroke:#ff0000;stroke-linecap:square;stroke-width:3.0;"/>
   </g>
   <g id="line2d_2">
    <path clip-path="url(#p99b4b0da67)" d="
M272.149 352.8
L272.149 347.097
L272.149 347.097
L272.149 341.394
L272.149 341.394
L272.149 335.691
L272.149 335.691
L272.149 329.988
L272.149 329.988
L272.149 324.285
L272.149 324.285
L272.149 318.582
L272.149 318.582
L272.149 312.879
L272.149 312.879
L272.149 307.176
L272.149 307.176
L272.149 301.473
L272.149 301.473
L272.149 295.77
L272.149 295.77
L272.149 290.067
L272.149 290.067
L272.149 284.364
L272.149 284.364
L272.149 278.661
L272.149 278.661
L272.149 272.958
L272.149 272.958
L272.149 267.255
L288.71 267.255
L288.71 261.552
L288.986 261.552
L288.986 255.85
L289.777 255.85
L289.777 250.147
L290.968 250.147
L290.968 244.444
L291.676 244.444
L291.676 238.741
L293.145 238.741
L293.145 233.038
L293.626 233.038
L293.626 227.335
L293.892 227.335
L293.892 221.632
L294.929 221.632
L294.929 215.929
L294.939 215.929
L294.939 210.226
L295.062 210.226
L295.062 204.523
L295.081 204.523
L295.081 198.82
L296.443 198.82
L296.443 193.117
L299.848 193.117
L299.848 187.414
L301.343 187.414
L301.343 181.711
L331.63 181.711
L331.63 176.008
L333.197 176.008
L333.197 170.305
L337.853 170.305
L337.853 164.602
L340.037 164.602
L340.037 158.899
L340.082 158.899
L340.082 153.196
L340.274 153.196
L340.274 147.493
L340.638 147.493
L340.638 141.79
L340.761 141.79
L340.761 136.087
L341.337 136.087
L341.337 130.384
L341.755 130.384
L341.755 124.681
L342.214 124.681
L342.214 118.978
L342.847 118.978
L342.847 113.275
L343.149 113.275
L343.149 107.572
L344.178 107.572
L344.178 101.869
L344.525 101.869
L344.525 96.1663
L344.939 96.1663
L344.939 90.4634
L350.665 90.4634
L350.665 84.7604
L358.251 84.7604
L358.251 79.0574
L359.965 79.0574
L359.965 73.3545
L361.575 73.3545
L361.575 67.6515
L361.831 67.6515
L361.831 61.9485
L361.952 61.9485
L361.952 56.2455
L362.205 56.2455
L362.205 50.5426
L367.088 50.5426
L367.088 44.8396
L368.664 44.8396
L368.664 39.1366
L369.28 39.1366
L369.28 33.4337
L369.756 33.4337
L369.756 27.7307
L369.808 27.7307
L369.808 22.0277
L371.886 22.0277
L371.886 16.3248
L372.972 16.3248
L372.972 10.6218
L372.972 10.6218
L372.972 10.6218
L453.6 10.6218" style="fill:none;stroke:#00bfbf;stroke-linecap:square;"/>
   </g>
   <g id="line2d_3">
    <path clip-path="url(#p99b4b0da67)" d="
M272.149 352.8
L272.149 347.097
L272.149 347.097
L272.149 341.394
L272.149 341.394
L272.149 335.691
L272.149 335.691
L272.149 329.988
L272.149 329.988
L272.149 324.285
L272.149 324.285
L272.149 318.582
L272.149 318.582
L272.149 312.879
L272.149 312.879
L272.149 307.176
L272.149 307.176
L272.149 301.473
L272.149 301.473
L272.149 295.77
L272.149 295.77
L272.149 290.067
L272.149 290.067
L272.149 284.364
L272.149 284.364
L272.149 278.661
L272.149 278.661
L272.149 272.958
L272.149 272.958
L272.149 267.255
L279.631 267.255
L279.631 261.552
L283.095 261.552
L283.095 255.85
L284.895 255.85
L284.895 250.147
L286.621 250.147
L286.621 244.444
L287.424 244.444
L287.424 238.741
L287.874 238.741
L287.874 233.038
L288.054 233.038
L288.054 227.335
L290.614 227.335
L290.614 221.632
L292.424 221.632
L292.424 215.929
L293.526 215.929
L293.526 210.226
L293.892 210.226
L293.892 204.523
L294.016 204.523
L294.016 198.82
L294.54 198.82
L294.54 193.117
L296.773 193.117
L296.773 187.414
L297.765 187.414
L297.765 181.711
L325.877 181.711
L325.877 176.008
L329.434 176.008
L329.434 170.305
L331.63 170.305
L331.63 164.602
L336.981 164.602
L336.981 158.899
L337.58 158.899
L337.58 153.196
L337.853 153.196
L337.853 147.493
L340.037 147.493
L340.037 141.79
L340.53 141.79
L340.53 136.087
L340.638 136.087
L340.638 130.384
L340.761 130.384
L340.761 124.681
L341.337 124.681
L341.337 118.978
L342.214 118.978
L342.214 113.275
L342.847 113.275
L342.847 107.572
L343.149 107.572
L343.149 101.869
L344.178 101.869
L344.178 96.1663
L344.525 96.1663
L344.525 90.4634
L349.707 90.4634
L349.707 84.7604
L353.299 84.7604
L353.299 79.0574
L355.898 79.0574
L355.898 73.3545
L356.975 73.3545
L356.975 67.6515
L357.027 67.6515
L357.027 61.9485
L357.337 61.9485
L357.337 56.2455
L357.93 56.2455
L357.93 50.5426
L367.088 50.5426
L367.088 44.8396
L367.355 44.8396
L367.355 39.1366
L367.882 39.1366
L367.882 33.4337
L367.951 33.4337
L367.951 27.7307
L368.505 27.7307
L368.505 22.0277
L368.708 22.0277
L368.708 16.3248
L369.016 16.3248
L369.016 10.6218
L369.016 10.6218
L369.016 10.6218
L453.6 10.6218" style="fill:none;stroke:#bf00bf;stroke-linecap:square;"/>
   </g>
   <g id="line2d_4">
    <path clip-path="url(#p99b4b0da67)" d="
M272.149 352.8
L272.149 347.097
L272.149 347.097
L272.149 341.394
L272.149 341.394
L272.149 335.691
L272.149 335.691
L272.149 329.988
L272.149 329.988
L272.149 324.285
L272.149 324.285
L272.149 318.582
L272.149 318.582
L272.149 312.879
L272.149 312.879
L272.149 307.176
L272.149 307.176
L272.149 301.473
L272.149 301.473
L272.149 295.77
L272.149 295.77
L272.149 290.067
L272.149 290.067
L272.149 284.364
L272.149 284.364
L272.149 278.661
L272.149 278.661
L272.149 272.958
L272.149 272.958
L272.149 267.255
L272.641 267.255
L272.641 261.552
L280.228 261.552
L280.228 255.85
L280.287 255.85
L280.287 250.147
L281.974 250.147
L281.974 244.444
L282.264 244.444
L282.264 238.741
L282.698 238.741
L282.698 233.038
L283.411 233.038
L283.411 227.335
L283.717 227.335
L283.717 221.632
L284.203 221.632
L284.203 215.929
L285.841 215.929
L285.841 210.226
L286.961 210.226
L286.961 204.523
L287.53 204.523
L287.53 198.82
L288.407 198.82
L288.407 193.117
L289.015 193.117
L289.015 187.414
L290.714 187.414
L290.714 181.711
L318.226 181.711
L318.226 176.008
L323.517 176.008
L323.517 170.305
L325.947 170.305
L325.947 164.602
L326.18 164.602
L326.18 158.899
L331.63 158.899
L331.63 153.196
L333.139 153.196
L333.139 147.493
L333.265 147.493
L333.265 141.79
L337.094 141.79
L337.094 136.087
L337.853 136.087
L337.853 130.384
L338.402 130.384
L338.402 124.681
L339.04 124.681
L339.04 118.978
L339.267 118.978
L339.267 113.275
L339.69 113.275
L339.69 107.572
L339.79 107.572
L339.79 101.869
L340.62 101.869
L340.62 96.1663
L340.638 96.1663
L340.638 90.4634
L341.337 90.4634
L341.337 84.7604
L342.847 84.7604
L342.847 79.0574
L345.186 79.0574
L345.186 73.3545
L345.504 73.3545
L345.504 67.6515
L347.883 67.6515
L347.883 61.9485
L349.579 61.9485
L349.579 56.2455
L350.144 56.2455
L350.144 50.5426
L355.528 50.5426
L355.528 44.8396
L356.783 44.8396
L356.783 39.1366
L358.849 39.1366
L358.849 33.4337
L359.096 33.4337
L359.096 27.7307
L360.901 27.7307
L360.901 22.0277
L361.689 22.0277
L361.689 16.3248
L363.332 16.3248
L363.332 10.6218
L363.332 10.6218
L363.332 10.6218
L453.6 10.6218" style="fill:none;stroke:#000000;stroke-linecap:square;"/>
   </g>
   <g id="line2d_5">
    <path clip-path="url(#p99b4b0da67)" d="
M268.554 352.8
L268.554 347.097
L272.149 347.097
L272.149 341.394
L272.149 341.394
L272.149 335.691
L272.149 335.691
L272.149 329.988
L272.149 329.988
L272.149 324.285
L272.149 324.285
L272.149 318.582
L272.149 318.582
L272.149 312.879
L272.149 312.879
L272.149 307.176
L272.149 307.176
L272.149 301.473
L272.149 301.473
L272.149 295.77
L272.149 295.77
L272.149 290.067
L272.149 290.067
L272.149 284.364
L272.149 284.364
L272.149 278.661
L272.149 278.661
L272.149 272.958
L272.149 272.958
L272.149 267.255
L272.149 267.255
L272.149 261.552
L272.641 261.552
L272.641 255.85
L273.01 255.85
L273.01 250.147
L274.231 250.147
L274.231 244.444
L274.919 244.444
L274.919 238.741
L275.315 238.741
L275.315 233.038
L276.536 233.038
L276.536 227.335
L277.941 227.335
L277.941 221.632
L278.287 221.632
L278.287 215.929
L279.999 215.929
L279.999 210.226
L280.858 210.226
L280.858 204.523
L281.083 204.523
L281.083 198.82
L281.474 198.82
L281.474 193.117
L283.347 193.117
L283.347 187.414
L283.886 187.414
L283.886 181.711
L285.415 181.711
L285.415 176.008
L285.436 176.008
L285.436 170.305
L286.316 170.305
L286.316 164.602
L286.407 164.602
L286.407 158.899
L289.241 158.899
L289.241 153.196
L291.124 153.196
L291.124 147.493
L294.599 147.493
L294.599 141.79
L297.606 141.79
L297.606 136.087
L300.887 136.087
L300.887 130.384
L310.407 130.384
L310.407 124.681
L310.481 124.681
L310.481 118.978
L310.797 118.978
L310.797 113.275
L314.696 113.275
L314.696 107.572
L316.626 107.572
L316.626 101.869
L320.16 101.869
L320.16 96.1663
L320.612 96.1663
L320.612 90.4634
L322.932 90.4634
L322.932 84.7604
L325.085 84.7604
L325.085 79.0574
L326.18 79.0574
L326.18 73.3545
L327.021 73.3545
L327.021 67.6515
L327.87 67.6515
L327.87 61.9485
L328.605 61.9485
L328.605 56.2455
L330.098 56.2455
L330.098 50.5426
L331.207 50.5426
L331.207 44.8396
L331.346 44.8396
L331.346 39.1366
L331.704 39.1366
L331.704 33.4337
L333.577 33.4337
L333.577 27.7307
L335.94 27.7307
L335.94 22.0277
L338.402 22.0277
L338.402 16.3248
L338.7 16.3248
L338.7 10.6218
L338.7 10.6218
L338.7 10.6218
L453.6 10.6218" style="fill:none;stroke:#00bfbf;stroke-linecap:square;"/>
   </g>
   <g id="line2d_6">
    <path clip-path="url(#p99b4b0da67)" d="
M260.543 352.8
L260.543 347.097
L262.513 347.097
L262.513 341.394
L264.825 341.394
L264.825 335.691
L264.916 335.691
L264.916 329.988
L264.944 329.988
L264.944 324.285
L265.656 324.285
L265.656 318.582
L265.913 318.582
L265.913 312.879
L266.088 312.879
L266.088 307.176
L266.496 307.176
L266.496 301.473
L266.769 301.473
L266.769 295.77
L267.311 295.77
L267.311 290.067
L267.53 290.067
L267.53 284.364
L268.07 284.364
L268.07 278.661
L268.615 278.661
L268.615 272.958
L268.939 272.958
L268.939 267.255
L271.911 267.255
L271.911 261.552
L272.149 261.552
L272.149 255.85
L272.149 255.85
L272.149 250.147
L272.149 250.147
L272.149 244.444
L272.149 244.444
L272.149 238.741
L272.149 238.741
L272.149 233.038
L272.149 233.038
L272.149 227.335
L272.149 227.335
L272.149 221.632
L272.149 221.632
L272.149 215.929
L272.149 215.929
L272.149 210.226
L272.149 210.226
L272.149 204.523
L272.149 204.523
L272.149 198.82
L272.149 198.82
L272.149 193.117
L272.149 193.117
L272.149 187.414
L272.149 187.414
L272.149 181.711
L272.149 181.711
L272.149 176.008
L274.157 176.008
L274.157 170.305
L274.379 170.305
L274.379 164.602
L276.479 164.602
L276.479 158.899
L277.937 158.899
L277.937 153.196
L278.077 153.196
L278.077 147.493
L278.182 147.493
L278.182 141.79
L278.193 141.79
L278.193 136.087
L278.303 136.087
L278.303 130.384
L278.392 130.384
L278.392 124.681
L278.441 124.681
L278.441 118.978
L278.445 118.978
L278.445 113.275
L278.46 113.275
L278.46 107.572
L278.728 107.572
L278.728 101.869
L279.001 101.869
L279.001 96.1663
L297.38 96.1663
L297.38 90.4634
L298.247 90.4634
L298.247 84.7604
L301.241 84.7604
L301.241 79.0574
L301.369 79.0574
L301.369 73.3545
L302.723 73.3545
L302.723 67.6515
L303.07 67.6515
L303.07 61.9485
L303.445 61.9485
L303.445 56.2455
L304.616 56.2455
L304.616 50.5426
L304.817 50.5426
L304.817 44.8396
L305.091 44.8396
L305.091 39.1366
L305.266 39.1366
L305.266 33.4337
L307.554 33.4337
L307.554 27.7307
L310.041 27.7307
L310.041 22.0277
L310.173 22.0277
L310.173 16.3248
L311.617 16.3248
L311.617 10.6218
L311.617 10.6218
L311.617 10.6218
L453.6 10.6218" style="fill:none;stroke:#bf00bf;stroke-linecap:square;"/>
   </g>
   <g id="line2d_7">
    <path clip-path="url(#p99b4b0da67)" d="
M209.597 352.8
L209.597 347.097
L214.393 347.097
L214.393 341.394
L215.028 341.394
L215.028 335.691
L218.455 335.691
L218.455 329.988
L218.75 329.988
L218.75 324.285
L218.837 324.285
L218.837 318.582
L219.678 318.582
L219.678 312.879
L219.853 312.879
L219.853 307.176
L220.122 307.176
L220.122 301.473
L220.351 301.473
L220.351 295.77
L220.511 295.77
L220.511 290.067
L220.657 290.067
L220.657 284.364
L220.665 284.364
L220.665 278.661
L220.691 278.661
L220.691 272.958
L220.744 272.958
L220.744 267.255
L220.767 267.255
L220.767 261.552
L220.838 261.552
L220.838 255.85
L221.529 255.85
L221.529 250.147
L221.853 250.147
L221.853 244.444
L222.756 244.444
L222.756 238.741
L223.494 238.741
L223.494 233.038
L224.374 233.038
L224.374 227.335
L224.509 227.335
L224.509 221.632
L224.692 221.632
L224.692 215.929
L225.022 215.929
L225.022 210.226
L225.219 210.226
L225.219 204.523
L225.925 204.523
L225.925 198.82
L227.347 198.82
L227.347 193.117
L229.277 193.117
L229.277 187.414
L232.055 187.414
L232.055 181.711
L247.739 181.711
L247.739 176.008
L248.879 176.008
L248.879 170.305
L248.892 170.305
L248.892 164.602
L249.026 164.602
L249.026 158.899
L249.081 158.899
L249.081 153.196
L249.231 153.196
L249.231 147.493
L249.363 147.493
L249.363 141.79
L249.422 141.79
L249.422 136.087
L249.545 136.087
L249.545 130.384
L249.623 130.384
L249.623 124.681
L249.717 124.681
L249.717 118.978
L249.852 118.978
L249.852 113.275
L249.952 113.275
L249.952 107.572
L250.012 107.572
L250.012 101.869
L250.033 101.869
L250.033 96.1663
L250.217 96.1663
L250.217 90.4634
L250.269 90.4634
L250.269 84.7604
L250.299 84.7604
L250.299 79.0574
L250.327 79.0574
L250.327 73.3545
L250.399 73.3545
L250.399 67.6515
L250.41 67.6515
L250.41 61.9485
L250.475 61.9485
L250.475 56.2455
L250.883 56.2455
L250.883 50.5426
L250.962 50.5426
L250.962 44.8396
L251.037 44.8396
L251.037 39.1366
L251.119 39.1366
L251.119 33.4337
L251.26 33.4337
L251.26 27.7307
L251.331 27.7307
L251.331 22.0277
L251.36 22.0277
L251.36 16.3248
L267.245 16.3248
L267.245 10.6218
L267.245 10.6218
L267.245 10.6218
L453.6 10.6218" style="fill:none;stroke:#000000;stroke-linecap:square;"/>
   </g>
   <g id="line2d_8">
    <path clip-path="url(#p99b4b0da67)" d="
M-84.0873 352.8
M-1 198.82
L0.954781 198.82
L0.954781 193.117
L6.96415 193.117
L6.96415 187.414
L7.1889 187.414
L7.1889 181.711
L11.2687 181.711
L11.2687 176.008
L15.0592 176.008
L15.0592 170.305
L17.4498 170.305
L17.4498 164.602
L18.0192 164.602
L18.0192 158.899
L24.6883 158.899
L24.6883 153.196
L25.4149 153.196
L25.4149 147.493
L26.8624 147.493
L26.8624 141.79
L28.8606 141.79
L28.8606 136.087
L31.2273 136.087
L31.2273 130.384
L31.2418 130.384
L31.2418 124.681
L35.3913 124.681
L35.3913 118.978
L37.5855 118.978
L37.5855 113.275
L38.9937 113.275
L38.9937 107.572
L39.3215 107.572
L39.3215 101.869
L172.428 101.869
L172.428 96.1663
L172.652 96.1663
L172.652 90.4634
L200.739 90.4634
L200.739 84.7604
L200.915 84.7604
L200.915 79.0574
L208.99 79.0574
L208.99 73.3545
L211.675 73.3545
L211.675 67.6515
L212.437 67.6515
L212.437 61.9485
L213.284 61.9485
L213.284 56.2455
L218.5 56.2455
L218.5 50.5426
L219.672 50.5426
L219.672 44.8396
L220.263 44.8396
L220.263 39.1366
L221.038 39.1366
L221.038 33.4337
L222.151 33.4337
L222.151 27.7307
L223.841 27.7307
L223.841 22.0277
L224.377 22.0277
L224.377 16.3248
L232.986 16.3248
L232.986 10.6218
L232.986 10.6218
L232.986 10.6218
L453.6 10.6218" style="fill:none;stroke:#00bfbf;stroke-linecap:square;"/>
   </g>
   <g id="matplotlib.axis_1">
    <g id="xtick_1"/>
    <g id="xtick_2">
     <g id="line2d_9">
      <path clip-path="url(#p99b4b0da67)" d="
M59.6175 352.8
L59.6175 7.2" style="fill:none;stroke:#000000;stroke-dasharray:1.000000,3.000000;stroke-dashoffset:0.0;stroke-width:0.5;"/>
     </g>
     <g id="line2d_10">
      <defs>
       <path d="
M0 0
L0 -4" id="m93b0483c22" style="stroke:#000000;stroke-width:0.5;"/>
      </defs>
      <g>
       <use style="stroke:#000000;stroke-width:0.5;" x="59.6174973142" xlink:href="#m93b0483c22" y="352.8"/>
      </g>
     </g>
     <g id="line2d_11">
      <defs>
       <path d="
M0 0
L0 4" id="m741efc42ff" style="stroke:#000000;stroke-width:0.5;"/>
      </defs>
      <g>
       <use style="stroke:#000000;stroke-width:0.5;" x="59.6174973142" xlink:href="#m741efc42ff" y="7.2"/>
      </g>
     </g>
     <g id="text_1">
      <!-- -6 -->
      <defs>
       <path d="
M33.0156 40.375
Q26.375 40.375 22.4844 35.8281
Q18.6094 31.2969 18.6094 23.3906
Q18.6094 15.5312 22.4844 10.9531
Q26.375 6.39062 33.0156 6.39062
Q39.6562 6.39062 43.5312 10.9531
Q47.4062 15.5312 47.4062 23.3906
Q47.4062 31.2969 43.5312 35.8281
Q39.6562 40.375 33.0156 40.375
M52.5938 71.2969
L52.5938 62.3125
Q48.875 64.0625 45.0938 64.9844
Q41.3125 65.9219 37.5938 65.9219
Q27.8281 65.9219 22.6719 59.3281
Q17.5312 52.7344 16.7969 39.4062
Q19.6719 43.6562 24.0156 45.9219
Q28.375 48.1875 33.5938 48.1875
Q44.5781 48.1875 50.9531 41.5156
Q57.3281 34.8594 57.3281 23.3906
Q57.3281 12.1562 50.6875 5.35938
Q44.0469 -1.42188 33.0156 -1.42188
Q20.3594 -1.42188 13.6719 8.26562
Q6.98438 17.9688 6.98438 36.375
Q6.98438 53.6562 15.1875 63.9375
Q23.3906 74.2188 37.2031 74.2188
Q40.9219 74.2188 44.7031 73.4844
Q48.4844 72.75 52.5938 71.2969" id="BitstreamVeraSans-Roman-36"/>
       <path d="
M4.89062 31.3906
L31.2031 31.3906
L31.2031 23.3906
L4.89062 23.3906
z
" id="BitstreamVeraSans-Roman-2d"/>
      </defs>
      <g transform="translate(50.7659348142 371.996875)scale(0.2 -0.2)">
       <use xlink:href="#BitstreamVeraSans-Roman-2d"/>
       <use x="36.083984375" xlink:href="#BitstreamVeraSans-Roman-36"/>
      </g>
     </g>
    </g>
    <g id="xtick_3">
     <g id="line2d_12">
      <path clip-path="url(#p99b4b0da67)" d="
M112.148 352.8
L112.148 7.2" style="fill:none;stroke:#000000;stroke-dasharray:1.000000,3.000000;stroke-dashoffset:0.0;stroke-width:0.5;"/>
     </g>
     <g id="line2d_13">
      <g>
       <use style="stroke:#000000;stroke-width:0.5;" x="112.148497672" xlink:href="#m93b0483c22" y="352.8"/>
      </g>
     </g>
     <g id="line2d_14">
      <g>
       <use style="stroke:#000000;stroke-width:0.5;" x="112.148497672" xlink:href="#m741efc42ff" y="7.2"/>
      </g>
     </g>
     <g id="text_2">
      <!-- -4 -->
      <defs>
       <path d="
M37.7969 64.3125
L12.8906 25.3906
L37.7969 25.3906
z

M35.2031 72.9062
L47.6094 72.9062
L47.6094 25.3906
L58.0156 25.3906
L58.0156 17.1875
L47.6094 17.1875
L47.6094 0
L37.7969 0
L37.7969 17.1875
L4.89062 17.1875
L4.89062 26.7031
z
" id="BitstreamVeraSans-Roman-34"/>
      </defs>
      <g transform="translate(103.228185172 371.996875)scale(0.2 -0.2)">
       <use xlink:href="#BitstreamVeraSans-Roman-2d"/>
       <use x="36.083984375" xlink:href="#BitstreamVeraSans-Roman-34"/>
      </g>
     </g>
    </g>
    <g id="xtick_4">
     <g id="line2d_15">
      <path clip-path="url(#p99b4b0da67)" d="
M164.679 352.8
L164.679 7.2" style="fill:none;stroke:#000000;stroke-dasharray:1.000000,3.000000;stroke-dashoffset:0.0;stroke-width:0.5;"/>
     </g>
     <g id="line2d_16">
      <g>
       <use style="stroke:#000000;stroke-width:0.5;" x="164.67949803" xlink:href="#m93b0483c22" y="352.8"/>
      </g>
     </g>
     <g id="line2d_17">
      <g>
       <use style="stroke:#000000;stroke-width:0.5;" x="164.67949803" xlink:href="#m741efc42ff" y="7.2"/>
      </g>
     </g>
     <g id="text_3">
      <!-- -2 -->
      <defs>
       <path d="
M19.1875 8.29688
L53.6094 8.29688
L53.6094 0
L7.32812 0
L7.32812 8.29688
Q12.9375 14.1094 22.625 23.8906
Q32.3281 33.6875 34.8125 36.5312
Q39.5469 41.8438 41.4219 45.5312
Q43.3125 49.2188 43.3125 52.7812
Q43.3125 58.5938 39.2344 62.25
Q35.1562 65.9219 28.6094 65.9219
Q23.9688 65.9219 18.8125 64.3125
Q13.6719 62.7031 7.8125 59.4219
L7.8125 69.3906
Q13.7656 71.7812 18.9375 73
Q24.125 74.2188 28.4219 74.2188
Q39.75 74.2188 46.4844 68.5469
Q53.2188 62.8906 53.2188 53.4219
Q53.2188 48.9219 51.5312 44.8906
Q49.8594 40.875 45.4062 35.4062
Q44.1875 33.9844 37.6406 27.2188
Q31.1094 20.4531 19.1875 8.29688" id="BitstreamVeraSans-Roman-32"/>
      </defs>
      <g transform="translate(156.19981053 371.996875)scale(0.2 -0.2)">
       <use xlink:href="#BitstreamVeraSans-Roman-2d"/>
       <use x="36.083984375" xlink:href="#BitstreamVeraSans-Roman-32"/>
      </g>
     </g>
    </g>
    <g id="xtick_5">
     <g id="line2d_18">
      <path clip-path="url(#p99b4b0da67)" d="
M217.21 352.8
L217.21 7.2" style="fill:none;stroke:#000000;stroke-dasharray:1.000000,3.000000;stroke-dashoffset:0.0;stroke-width:0.5;"/>
     </g>
     <g id="line2d_19">
      <g>
       <use style="stroke:#000000;stroke-width:0.5;" x="217.210498389" xlink:href="#m93b0483c22" y="352.8"/>
      </g>
     </g>
     <g id="line2d_20">
      <g>
       <use style="stroke:#000000;stroke-width:0.5;" x="217.210498389" xlink:href="#m741efc42ff" y="7.2"/>
      </g>
     </g>
     <g id="text_4">
      <!-- 0 -->
      <defs>
       <path d="
M31.7812 66.4062
Q24.1719 66.4062 20.3281 58.9062
Q16.5 51.4219 16.5 36.375
Q16.5 21.3906 20.3281 13.8906
Q24.1719 6.39062 31.7812 6.39062
Q39.4531 6.39062 43.2812 13.8906
Q47.125 21.3906 47.125 36.375
Q47.125 51.4219 43.2812 58.9062
Q39.4531 66.4062 31.7812 66.4062
M31.7812 74.2188
Q44.0469 74.2188 50.5156 64.5156
Q56.9844 54.8281 56.9844 36.375
Q56.9844 17.9688 50.5156 8.26562
Q44.0469 -1.42188 31.7812 -1.42188
Q19.5312 -1.42188 13.0625 8.26562
Q6.59375 17.9688 6.59375 36.375
Q6.59375 54.8281 13.0625 64.5156
Q19.5312 74.2188 31.7812 74.2188" id="BitstreamVeraSans-Roman-30"/>
      </defs>
      <g transform="translate(212.171435889 371.996875)scale(0.2 -0.2)">
       <use xlink:href="#BitstreamVeraSans-Roman-30"/>
      </g>
     </g>
    </g>
    <g id="xtick_6">
     <g id="line2d_21">
      <path clip-path="url(#p99b4b0da67)" d="
M269.741 352.8
L269.741 7.2" style="fill:none;stroke:#000000;stroke-dasharray:1.000000,3.000000;stroke-dashoffset:0.0;stroke-width:0.5;"/>
     </g>
     <g id="line2d_22">
      <g>
       <use style="stroke:#000000;stroke-width:0.5;" x="269.741498747" xlink:href="#m93b0483c22" y="352.8"/>
      </g>
     </g>
     <g id="line2d_23">
      <g>
       <use style="stroke:#000000;stroke-width:0.5;" x="269.741498747" xlink:href="#m741efc42ff" y="7.2"/>
      </g>
     </g>
     <g id="text_5">
      <!-- 2 -->
      <g transform="translate(265.113373747 371.996875)scale(0.2 -0.2)">
       <use xlink:href="#BitstreamVeraSans-Roman-32"/>
      </g>
     </g>
    </g>
    <g id="xtick_7">
     <g id="line2d_24">
      <path clip-path="url(#p99b4b0da67)" d="
M322.272 352.8
L322.272 7.2" style="fill:none;stroke:#000000;stroke-dasharray:1.000000,3.000000;stroke-dashoffset:0.0;stroke-width:0.5;"/>
     </g>
     <g id="line2d_25">
      <g>
       <use style="stroke:#000000;stroke-width:0.5;" x="322.272499105" xlink:href="#m93b0483c22" y="352.8"/>
      </g>
     </g>
     <g id="line2d_26">
      <g>
       <use style="stroke:#000000;stroke-width:0.5;" x="322.272499105" xlink:href="#m741efc42ff" y="7.2"/>
      </g>
     </g>
     <g id="text_6">
      <!-- 4 -->
      <g transform="translate(316.959999105 371.996875)scale(0.2 -0.2)">
       <use xlink:href="#BitstreamVeraSans-Roman-34"/>
      </g>
     </g>
    </g>
    <g id="xtick_8">
     <g id="line2d_27">
      <path clip-path="url(#p99b4b0da67)" d="
M374.803 352.8
L374.803 7.2" style="fill:none;stroke:#000000;stroke-dasharray:1.000000,3.000000;stroke-dashoffset:0.0;stroke-width:0.5;"/>
     </g>
     <g id="line2d_28">
      <g>
       <use style="stroke:#000000;stroke-width:0.5;" x="374.803499463" xlink:href="#m93b0483c22" y="352.8"/>
      </g>
     </g>
     <g id="line2d_29">
      <g>
       <use style="stroke:#000000;stroke-width:0.5;" x="374.803499463" xlink:href="#m741efc42ff" y="7.2"/>
      </g>
     </g>
     <g id="text_7">
      <!-- 6 -->
      <g transform="translate(369.769124463 371.996875)scale(0.2 -0.2)">
       <use xlink:href="#BitstreamVeraSans-Roman-36"/>
      </g>
     </g>
    </g>
    <g id="xtick_9">
     <g id="line2d_30">
      <path clip-path="url(#p99b4b0da67)" d="
M427.334 352.8
L427.334 7.2" style="fill:none;stroke:#000000;stroke-dasharray:1.000000,3.000000;stroke-dashoffset:0.0;stroke-width:0.5;"/>
     </g>
     <g id="line2d_31">
      <g>
       <use style="stroke:#000000;stroke-width:0.5;" x="427.334499821" xlink:href="#m93b0483c22" y="352.8"/>
      </g>
     </g>
     <g id="line2d_32">
      <g>
       <use style="stroke:#000000;stroke-width:0.5;" x="427.334499821" xlink:href="#m741efc42ff" y="7.2"/>
      </g>
     </g>
     <g id="text_8">
      <!-- 8 -->
      <defs>
       <path d="
M31.7812 34.625
Q24.75 34.625 20.7188 30.8594
Q16.7031 27.0938 16.7031 20.5156
Q16.7031 13.9219 20.7188 10.1562
Q24.75 6.39062 31.7812 6.39062
Q38.8125 6.39062 42.8594 10.1719
Q46.9219 13.9688 46.9219 20.5156
Q46.9219 27.0938 42.8906 30.8594
Q38.875 34.625 31.7812 34.625
M21.9219 38.8125
Q15.5781 40.375 12.0312 44.7188
Q8.5 49.0781 8.5 55.3281
Q8.5 64.0625 14.7188 69.1406
Q20.9531 74.2188 31.7812 74.2188
Q42.6719 74.2188 48.875 69.1406
Q55.0781 64.0625 55.0781 55.3281
Q55.0781 49.0781 51.5312 44.7188
Q48 40.375 41.7031 38.8125
Q48.8281 37.1562 52.7969 32.3125
Q56.7812 27.4844 56.7812 20.5156
Q56.7812 9.90625 50.3125 4.23438
Q43.8438 -1.42188 31.7812 -1.42188
Q19.7344 -1.42188 13.25 4.23438
Q6.78125 9.90625 6.78125 20.5156
Q6.78125 27.4844 10.7812 32.3125
Q14.7969 37.1562 21.9219 38.8125
M18.3125 54.3906
Q18.3125 48.7344 21.8438 45.5625
Q25.3906 42.3906 31.7812 42.3906
Q38.1406 42.3906 41.7188 45.5625
Q45.3125 48.7344 45.3125 54.3906
Q45.3125 60.0625 41.7188 63.2344
Q38.1406 66.4062 31.7812 66.4062
Q25.3906 66.4062 21.8438 63.2344
Q18.3125 60.0625 18.3125 54.3906" id="BitstreamVeraSans-Roman-38"/>
      </defs>
      <g transform="translate(422.334499821 371.996875)scale(0.2 -0.2)">
       <use xlink:href="#BitstreamVeraSans-Roman-38"/>
      </g>
     </g>
    </g>
    <g id="xtick_10"/>
    <g id="xtick_11">
     <g id="line2d_33">
      <defs>
       <path d="
M0 0
L0 -2" id="m177f7580d0" style="stroke:#000000;stroke-width:0.5;"/>
      </defs>
      <g>
       <use style="stroke:#000000;stroke-width:0.5;" x="59.6174973142" xlink:href="#m177f7580d0" y="352.8"/>
      </g>
     </g>
     <g id="line2d_34">
      <defs>
       <path d="
M0 0
L0 2" id="m5284c7e2a0" style="stroke:#000000;stroke-width:0.5;"/>
      </defs>
      <g>
       <use style="stroke:#000000;stroke-width:0.5;" x="59.6174973142" xlink:href="#m5284c7e2a0" y="7.2"/>
      </g>
     </g>
    </g>
    <g id="xtick_12">
     <g id="line2d_35">
      <g>
       <use style="stroke:#000000;stroke-width:0.5;" x="112.148497672" xlink:href="#m177f7580d0" y="352.8"/>
      </g>
     </g>
     <g id="line2d_36">
      <g>
       <use style="stroke:#000000;stroke-width:0.5;" x="112.148497672" xlink:href="#m5284c7e2a0" y="7.2"/>
      </g>
     </g>
    </g>
    <g id="xtick_13">
     <g id="line2d_37">
      <g>
       <use style="stroke:#000000;stroke-width:0.5;" x="164.67949803" xlink:href="#m177f7580d0" y="352.8"/>
      </g>
     </g>
     <g id="line2d_38">
      <g>
       <use style="stroke:#000000;stroke-width:0.5;" x="164.67949803" xlink:href="#m5284c7e2a0" y="7.2"/>
      </g>
     </g>
    </g>
    <g id="xtick_14">
     <g id="line2d_39">
      <g>
       <use style="stroke:#000000;stroke-width:0.5;" x="217.210498389" xlink:href="#m177f7580d0" y="352.8"/>
      </g>
     </g>
     <g id="line2d_40">
      <g>
       <use style="stroke:#000000;stroke-width:0.5;" x="217.210498389" xlink:href="#m5284c7e2a0" y="7.2"/>
      </g>
     </g>
    </g>
    <g id="xtick_15">
     <g id="line2d_41">
      <g>
       <use style="stroke:#000000;stroke-width:0.5;" x="269.741498747" xlink:href="#m177f7580d0" y="352.8"/>
      </g>
     </g>
     <g id="line2d_42">
      <g>
       <use style="stroke:#000000;stroke-width:0.5;" x="269.741498747" xlink:href="#m5284c7e2a0" y="7.2"/>
      </g>
     </g>
    </g>
    <g id="xtick_16">
     <g id="line2d_43">
      <g>
       <use style="stroke:#000000;stroke-width:0.5;" x="322.272499105" xlink:href="#m177f7580d0" y="352.8"/>
      </g>
     </g>
     <g id="line2d_44">
      <g>
       <use style="stroke:#000000;stroke-width:0.5;" x="322.272499105" xlink:href="#m5284c7e2a0" y="7.2"/>
      </g>
     </g>
    </g>
    <g id="xtick_17">
     <g id="line2d_45">
      <g>
       <use style="stroke:#000000;stroke-width:0.5;" x="374.803499463" xlink:href="#m177f7580d0" y="352.8"/>
      </g>
     </g>
     <g id="line2d_46">
      <g>
       <use style="stroke:#000000;stroke-width:0.5;" x="374.803499463" xlink:href="#m5284c7e2a0" y="7.2"/>
      </g>
     </g>
    </g>
    <g id="xtick_18">
     <g id="line2d_47">
      <g>
       <use style="stroke:#000000;stroke-width:0.5;" x="427.334499821" xlink:href="#m177f7580d0" y="352.8"/>
      </g>
     </g>
     <g id="line2d_48">
      <g>
       <use style="stroke:#000000;stroke-width:0.5;" x="427.334499821" xlink:href="#m5284c7e2a0" y="7.2"/>
      </g>
     </g>
    </g>
    <g id="text_9">
     <!-- log10 of Df -->
     <defs>
      <path id="BitstreamVeraSans-Roman-20"/>
      <path d="
M12.4062 8.29688
L28.5156 8.29688
L28.5156 63.9219
L10.9844 60.4062
L10.9844 69.3906
L28.4219 72.9062
L38.2812 72.9062
L38.2812 8.29688
L54.3906 8.29688
L54.3906 0
L12.4062 0
z
" id="BitstreamVeraSans-Roman-31"/>
      <path d="
M30.6094 48.3906
Q23.3906 48.3906 19.1875 42.75
Q14.9844 37.1094 14.9844 27.2969
Q14.9844 17.4844 19.1562 11.8438
Q23.3438 6.20312 30.6094 6.20312
Q37.7969 6.20312 41.9844 11.8594
Q46.1875 17.5312 46.1875 27.2969
Q46.1875 37.0156 41.9844 42.7031
Q37.7969 48.3906 30.6094 48.3906
M30.6094 56
Q42.3281 56 49.0156 48.375
Q55.7188 40.7656 55.7188 27.2969
Q55.7188 13.875 49.0156 6.21875
Q42.3281 -1.42188 30.6094 -1.42188
Q18.8438 -1.42188 12.1719 6.21875
Q5.51562 13.875 5.51562 27.2969
Q5.51562 40.7656 12.1719 48.375
Q18.8438 56 30.6094 56" id="BitstreamVeraSans-Roman-6f"/>
      <path d="
M9.42188 75.9844
L18.4062 75.9844
L18.4062 0
L9.42188 0
z
" id="BitstreamVeraSans-Roman-6c"/>
      <path d="
M19.6719 64.7969
L19.6719 8.10938
L31.5938 8.10938
Q46.6875 8.10938 53.6875 14.9375
Q60.6875 21.7812 60.6875 36.5312
Q60.6875 51.1719 53.6875 57.9844
Q46.6875 64.7969 31.5938 64.7969
z

M9.8125 72.9062
L30.0781 72.9062
Q51.2656 72.9062 61.1719 64.0938
Q71.0938 55.2812 71.0938 36.5312
Q71.0938 17.6719 61.125 8.82812
Q51.1719 0 30.0781 0
L9.8125 0
z
" id="BitstreamVeraSans-Roman-44"/>
      <path d="
M45.4062 27.9844
Q45.4062 37.75 41.375 43.1094
Q37.3594 48.4844 30.0781 48.4844
Q22.8594 48.4844 18.8281 43.1094
Q14.7969 37.75 14.7969 27.9844
Q14.7969 18.2656 18.8281 12.8906
Q22.8594 7.51562 30.0781 7.51562
Q37.3594 7.51562 41.375 12.8906
Q45.4062 18.2656 45.4062 27.9844
M54.3906 6.78125
Q54.3906 -7.17188 48.1875 -13.9844
Q42 -20.7969 29.2031 -20.7969
Q24.4688 -20.7969 20.2656 -20.0938
Q16.0625 -19.3906 12.1094 -17.9219
L12.1094 -9.1875
Q16.0625 -11.3281 19.9219 -12.3438
Q23.7812 -13.375 27.7812 -13.375
Q36.625 -13.375 41.0156 -8.76562
Q45.4062 -4.15625 45.4062 5.17188
L45.4062 9.625
Q42.625 4.78125 38.2812 2.39062
Q33.9375 0 27.875 0
Q17.8281 0 11.6719 7.65625
Q5.51562 15.3281 5.51562 27.9844
Q5.51562 40.6719 11.6719 48.3281
Q17.8281 56 27.875 56
Q33.9375 56 38.2812 53.6094
Q42.625 51.2188 45.4062 46.3906
L45.4062 54.6875
L54.3906 54.6875
z
" id="BitstreamVeraSans-Roman-67"/>
      <path d="
M37.1094 75.9844
L37.1094 68.5
L28.5156 68.5
Q23.6875 68.5 21.7969 66.5469
Q19.9219 64.5938 19.9219 59.5156
L19.9219 54.6875
L34.7188 54.6875
L34.7188 47.7031
L19.9219 47.7031
L19.9219 0
L10.8906 0
L10.8906 47.7031
L2.29688 47.7031
L2.29688 54.6875
L10.8906 54.6875
L10.8906 58.5
Q10.8906 67.625 15.1406 71.7969
Q19.3906 75.9844 28.6094 75.9844
z
" id="BitstreamVeraSans-Roman-66"/>
     </defs>
     <g transform="translate(175.0234375 396.353125)scale(0.2 -0.2)">
      <use xlink:href="#BitstreamVeraSans-Roman-6c"/>
      <use x="27.783203125" xlink:href="#BitstreamVeraSans-Roman-6f"/>
      <use x="88.96484375" xlink:href="#BitstreamVeraSans-Roman-67"/>
      <use x="152.44140625" xlink:href="#BitstreamVeraSans-Roman-31"/>
      <use x="216.064453125" xlink:href="#BitstreamVeraSans-Roman-30"/>
      <use x="279.6875" xlink:href="#BitstreamVeraSans-Roman-20"/>
      <use x="311.474609375" xlink:href="#BitstreamVeraSans-Roman-6f"/>
      <use x="372.65625" xlink:href="#BitstreamVeraSans-Roman-66"/>
      <use x="407.861328125" xlink:href="#BitstreamVeraSans-Roman-20"/>
      <use x="439.6484375" xlink:href="#BitstreamVeraSans-Roman-44"/>
      <use x="516.650390625" xlink:href="#BitstreamVeraSans-Roman-66"/>
     </g>
    </g>
   </g>
   <g id="matplotlib.axis_2">
    <g id="ytick_1">
     <g id="line2d_49">
      <path clip-path="url(#p99b4b0da67)" d="
M7.2 352.8
L453.6 352.8" style="fill:none;stroke:#000000;stroke-dasharray:1.000000,3.000000;stroke-dashoffset:0.0;stroke-width:0.5;"/>
     </g>
     <g id="line2d_50">
      <defs>
       <path d="
M0 0
L4 0" id="m728421d6d4" style="stroke:#000000;stroke-width:0.5;"/>
      </defs>
      <g>
       <use style="stroke:#000000;stroke-width:0.5;" x="7.2" xlink:href="#m728421d6d4" y="352.8"/>
      </g>
     </g>
     <g id="line2d_51">
      <defs>
       <path d="
M0 0
L-4 0" id="mcb0005524f" style="stroke:#000000;stroke-width:0.5;"/>
      </defs>
      <g>
       <use style="stroke:#000000;stroke-width:0.5;" x="453.6" xlink:href="#mcb0005524f" y="352.8"/>
      </g>
     </g>
    </g>
    <g id="ytick_2">
     <g id="line2d_52">
      <path clip-path="url(#p99b4b0da67)" d="
M7.2 284.364
L453.6 284.364" style="fill:none;stroke:#000000;stroke-dasharray:1.000000,3.000000;stroke-dashoffset:0.0;stroke-width:0.5;"/>
     </g>
     <g id="line2d_53">
      <g>
       <use style="stroke:#000000;stroke-width:0.5;" x="7.2" xlink:href="#m728421d6d4" y="284.364356436"/>
      </g>
     </g>
     <g id="line2d_54">
      <g>
       <use style="stroke:#000000;stroke-width:0.5;" x="453.6" xlink:href="#mcb0005524f" y="284.364356436"/>
      </g>
     </g>
    </g>
    <g id="ytick_3">
     <g id="line2d_55">
      <path clip-path="url(#p99b4b0da67)" d="
M7.2 215.929
L453.6 215.929" style="fill:none;stroke:#000000;stroke-dasharray:1.000000,3.000000;stroke-dashoffset:0.0;stroke-width:0.5;"/>
     </g>
     <g id="line2d_56">
      <g>
       <use style="stroke:#000000;stroke-width:0.5;" x="7.2" xlink:href="#m728421d6d4" y="215.928712871"/>
      </g>
     </g>
     <g id="line2d_57">
      <g>
       <use style="stroke:#000000;stroke-width:0.5;" x="453.6" xlink:href="#mcb0005524f" y="215.928712871"/>
      </g>
     </g>
    </g>
    <g id="ytick_4">
     <g id="line2d_58">
      <path clip-path="url(#p99b4b0da67)" d="
M7.2 147.493
L453.6 147.493" style="fill:none;stroke:#000000;stroke-dasharray:1.000000,3.000000;stroke-dashoffset:0.0;stroke-width:0.5;"/>
     </g>
     <g id="line2d_59">
      <g>
       <use style="stroke:#000000;stroke-width:0.5;" x="7.2" xlink:href="#m728421d6d4" y="147.493069307"/>
      </g>
     </g>
     <g id="line2d_60">
      <g>
       <use style="stroke:#000000;stroke-width:0.5;" x="453.6" xlink:href="#mcb0005524f" y="147.493069307"/>
      </g>
     </g>
    </g>
    <g id="ytick_5">
     <g id="line2d_61">
      <path clip-path="url(#p99b4b0da67)" d="
M7.2 79.0574
L453.6 79.0574" style="fill:none;stroke:#000000;stroke-dasharray:1.000000,3.000000;stroke-dashoffset:0.0;stroke-width:0.5;"/>
     </g>
     <g id="line2d_62">
      <g>
       <use style="stroke:#000000;stroke-width:0.5;" x="7.2" xlink:href="#m728421d6d4" y="79.0574257426"/>
      </g>
     </g>
     <g id="line2d_63">
      <g>
       <use style="stroke:#000000;stroke-width:0.5;" x="453.6" xlink:href="#mcb0005524f" y="79.0574257426"/>
      </g>
     </g>
    </g>
    <g id="ytick_6">
     <g id="line2d_64">
      <path clip-path="url(#p99b4b0da67)" d="
M7.2 10.6218
L453.6 10.6218" style="fill:none;stroke:#000000;stroke-dasharray:1.000000,3.000000;stroke-dashoffset:0.0;stroke-width:0.5;"/>
     </g>
     <g id="line2d_65">
      <g>
       <use style="stroke:#000000;stroke-width:0.5;" x="7.2" xlink:href="#m728421d6d4" y="10.6217821782"/>
      </g>
     </g>
     <g id="line2d_66">
      <g>
       <use style="stroke:#000000;stroke-width:0.5;" x="453.6" xlink:href="#mcb0005524f" y="10.6217821782"/>
      </g>
     </g>
    </g>
   </g>
   <g id="patch_3">
    <path d="
M7.2 7.2
L453.6 7.2" style="fill:none;stroke:#000000;"/>
   </g>
   <g id="patch_4">
    <path d="
M453.6 352.8
L453.6 7.2" style="fill:none;stroke:#000000;"/>
   </g>
   <g id="patch_5">
    <path d="
M7.2 352.8
L453.6 352.8" style="fill:none;stroke:#000000;"/>
   </g>
   <g id="patch_6">
    <path d="
M7.2 352.8
L7.2 7.2" style="fill:none;stroke:#000000;"/>
   </g>
   <g id="text_10">
    <!-- {f6-f9}, 20-D -->
    <defs>
     <path d="
M12.5 -9.28125
L15.9219 -9.28125
Q22.75 -9.28125 24.8281 -7.17188
Q26.9062 -5.07812 26.9062 1.90625
L26.9062 14.0156
Q26.9062 21.625 29.0938 25.0938
Q31.2969 28.5625 36.7188 29.8906
Q31.2969 31.1094 29.0938 34.5625
Q26.9062 38.0312 26.9062 45.7031
L26.9062 57.8125
Q26.9062 64.75 24.8281 66.875
Q22.75 69 15.9219 69
L12.5 69
L12.5 75.9844
L15.5781 75.9844
Q27.7344 75.9844 31.8125 72.3906
Q35.8906 68.7969 35.8906 58.0156
L35.8906 46.2969
Q35.8906 39.0156 38.5156 36.2031
Q41.1562 33.4062 48.0938 33.4062
L51.125 33.4062
L51.125 26.4219
L48.0938 26.4219
Q41.1562 26.4219 38.5156 23.5781
Q35.8906 20.75 35.8906 13.375
L35.8906 1.70312
Q35.8906 -9.07812 31.8125 -12.6875
Q27.7344 -16.3125 15.5781 -16.3125
L12.5 -16.3125
z
" id="BitstreamVeraSans-Roman-7d"/>
     <path d="
M10.9844 1.51562
L10.9844 10.5
Q14.7031 8.73438 18.5 7.8125
Q22.3125 6.89062 25.9844 6.89062
Q35.75 6.89062 40.8906 13.4531
Q46.0469 20.0156 46.7812 33.4062
Q43.9531 29.2031 39.5938 26.9531
Q35.25 24.7031 29.9844 24.7031
Q19.0469 24.7031 12.6719 31.3125
Q6.29688 37.9375 6.29688 49.4219
Q6.29688 60.6406 12.9375 67.4219
Q19.5781 74.2188 30.6094 74.2188
Q43.2656 74.2188 49.9219 64.5156
Q56.5938 54.8281 56.5938 36.375
Q56.5938 19.1406 48.4062 8.85938
Q40.2344 -1.42188 26.4219 -1.42188
Q22.7031 -1.42188 18.8906 -0.6875
Q15.0938 0.046875 10.9844 1.51562
M30.6094 32.4219
Q37.25 32.4219 41.125 36.9531
Q45.0156 41.5 45.0156 49.4219
Q45.0156 57.2812 41.125 61.8438
Q37.25 66.4062 30.6094 66.4062
Q23.9688 66.4062 20.0938 61.8438
Q16.2188 57.2812 16.2188 49.4219
Q16.2188 41.5 20.0938 36.9531
Q23.9688 32.4219 30.6094 32.4219" id="BitstreamVeraSans-Roman-39"/>
     <path d="
M51.125 -9.28125
L51.125 -16.3125
L48.0938 -16.3125
Q35.9375 -16.3125 31.8125 -12.6875
Q27.6875 -9.07812 27.6875 1.70312
L27.6875 13.375
Q27.6875 20.75 25.0469 23.5781
Q22.4062 26.4219 15.4844 26.4219
L12.5 26.4219
L12.5 33.4062
L15.4844 33.4062
Q22.4688 33.4062 25.0781 36.2031
Q27.6875 39.0156 27.6875 46.2969
L27.6875 58.0156
Q27.6875 68.7969 31.8125 72.3906
Q35.9375 75.9844 48.0938 75.9844
L51.125 75.9844
L51.125 69
L47.7969 69
Q40.9219 69 38.8125 66.8438
Q36.7188 64.7031 36.7188 57.8125
L36.7188 45.7031
Q36.7188 38.0312 34.5 34.5625
Q32.2812 31.1094 26.9062 29.8906
Q32.3281 28.5625 34.5156 25.0938
Q36.7188 21.625 36.7188 14.0156
L36.7188 1.90625
Q36.7188 -4.98438 38.8125 -7.125
Q40.9219 -9.28125 47.7969 -9.28125
z
" id="BitstreamVeraSans-Roman-7b"/>
     <path d="
M11.7188 12.4062
L22.0156 12.4062
L22.0156 4
L14.0156 -11.625
L7.71875 -11.625
L11.7188 4
z
" id="BitstreamVeraSans-Roman-2c"/>
    </defs>
    <g transform="translate(312.87825 345.888)scale(0.2 -0.2)">
     <use xlink:href="#BitstreamVeraSans-Roman-7b"/>
     <use x="63.623046875" xlink:href="#BitstreamVeraSans-Roman-66"/>
     <use x="98.828125" xlink:href="#BitstreamVeraSans-Roman-36"/>
     <use x="162.451171875" xlink:href="#BitstreamVeraSans-Roman-2d"/>
     <use x="198.53515625" xlink:href="#BitstreamVeraSans-Roman-66"/>
     <use x="233.740234375" xlink:href="#BitstreamVeraSans-Roman-39"/>
     <use x="297.36328125" xlink:href="#BitstreamVeraSans-Roman-7d"/>
     <use x="360.986328125" xlink:href="#BitstreamVeraSans-Roman-2c"/>
     <use x="392.7734375" xlink:href="#BitstreamVeraSans-Roman-20"/>
     <use x="424.560546875" xlink:href="#BitstreamVeraSans-Roman-32"/>
     <use x="488.18359375" xlink:href="#BitstreamVeraSans-Roman-30"/>
     <use x="551.806640625" xlink:href="#BitstreamVeraSans-Roman-2d"/>
     <use x="587.890625" xlink:href="#BitstreamVeraSans-Roman-44"/>
    </g>
   </g>
   <g id="text_11">
    <!-- 0.0.0 -->
    <defs>
     <path d="
M10.6875 12.4062
L21 12.4062
L21 0
L10.6875 0
z
" id="BitstreamVeraSans-Roman-2e"/>
    </defs>
    <g style="fill:#808080;" transform="translate(218.33984375 347.2643125)scale(0.1 -0.1)">
     <use xlink:href="#BitstreamVeraSans-Roman-30"/>
     <use x="63.623046875" xlink:href="#BitstreamVeraSans-Roman-2e"/>
     <use x="95.41015625" xlink:href="#BitstreamVeraSans-Roman-30"/>
     <use x="159.033203125" xlink:href="#BitstreamVeraSans-Roman-2e"/>
     <use x="190.8203125" xlink:href="#BitstreamVeraSans-Roman-30"/>
    </g>
   </g>
  </g>
 </g>
 <defs>
  <clipPath id="p99b4b0da67">
   <rect height="345.6" width="446.4" x="7.2" y="7.2"/>
  </clipPath>
 </defs>
</svg>
