<?xml version="1.0" encoding="utf-8" standalone="no"?>
<!DOCTYPE svg PUBLIC "-//W3C//DTD SVG 1.1//EN"
  "http://www.w3.org/Graphics/SVG/1.1/DTD/svg11.dtd">
<!-- Created with matplotlib (http://matplotlib.org/) -->
<svg height="407pt" version="1.1" viewBox="0 0 460 407" width="460pt" xmlns="http://www.w3.org/2000/svg" xmlns:xlink="http://www.w3.org/1999/xlink">
 <defs>
  <style type="text/css">
*{stroke-linecap:butt;stroke-linejoin:round;}
  </style>
 </defs>
 <g id="figure_1">
  <g id="patch_1">
   <path d="
M0 407.712
L460.8 407.712
L460.8 0
L0 0
z
" style="fill:#ffffff;"/>
  </g>
  <g id="axes_1">
   <g id="patch_2">
    <path d="
M7.2 352.8
L453.6 352.8
L453.6 7.2
L7.2 7.2
z
" style="fill:#ffffff;"/>
   </g>
   <g id="line2d_1">
    <path clip-path="url(#p99b4b0da67)" d="
M-1 288.166
L0.449959 288.166
L0.449959 287.216
L4.61296 287.216
L4.61296 286.265
L7.0865 286.265
L7.0865 207.374
L14.3727 207.374
L14.4637 205.473
L19.4125 205.473
L19.4125 204.523
L20.7392 204.523
L20.7392 203.572
L22.6403 203.572
L22.6403 202.622
L23.1569 202.622
L23.1569 201.671
L32.0661 201.671
L32.0661 200.721
L35.9965 200.721
L35.9965 199.77
L38.082 199.77
L38.082 198.82
L39.9474 198.82
L39.9474 197.869
L40.4484 197.869
L40.4484 196.919
L42.2923 196.919
L42.2923 195.968
L45.6696 195.968
L45.6696 195.018
L46.6666 195.018
L46.6666 194.067
L46.9683 194.067
L46.9683 193.117
L66.3794 193.117
L66.3794 192.166
L69.0019 192.166
L69.0019 191.216
L82.1298 191.216
L82.1298 190.265
L87.4345 190.265
L87.4345 189.315
L90.0514 189.315
L90.0514 188.364
L98.0539 188.364
L98.0539 187.414
L99.6406 187.414
L99.6406 186.463
L106.673 186.463
L106.673 185.513
L106.791 185.513
L106.791 184.562
L108.2 184.562
L108.2 183.612
L110.091 183.612
L110.091 182.661
L116.596 182.661
L116.596 181.711
L120.495 181.711
L120.495 180.76
L122.496 180.76
L122.496 179.81
L129.699 179.81
L129.699 178.859
L130.119 178.859
L130.119 177.909
L130.735 177.909
L130.735 176.958
L133.248 176.958
L133.248 176.008
L133.799 176.008
L133.799 175.057
L138.662 175.057
L138.662 174.107
L142.631 174.107
L142.631 173.156
L145.666 173.156
L145.666 172.206
L146.507 172.206
L146.507 171.255
L148.978 171.255
L148.978 170.305
L151.989 170.305
L151.989 169.354
L158.2 169.354
L158.2 168.404
L161.825 168.404
L161.825 167.453
L165.83 167.453
L165.83 166.503
L167.163 166.503
L167.163 165.552
L167.86 165.552
L167.86 164.602
L170.892 164.602
L170.892 163.651
L174.942 163.651
L174.942 162.701
L175.333 162.701
L175.333 161.75
L175.536 161.75
L175.536 160.8
L176.343 160.8
L176.343 159.85
L182.363 159.85
L182.363 158.899
L182.691 158.899
L182.691 157.949
L186.832 157.949
L186.832 156.998
L188.507 156.998
L188.603 155.097
L189.328 155.097
L189.328 154.147
L190.927 154.147
L190.927 153.196
L191.455 153.196
L191.458 151.295
L195.434 151.295
L195.434 150.345
L196.259 150.345
L196.259 149.394
L196.492 149.394
L196.492 148.444
L196.876 148.444
L196.876 147.493
L199.222 147.493
L199.222 146.543
L201.414 146.543
L201.414 133.236
L203.395 133.236
L203.395 132.285
L205.203 132.285
L205.203 131.335
L205.901 131.335
L205.901 130.384
L207.127 130.384
L207.127 129.434
L207.696 129.434
L207.696 127.533
L207.808 127.533
L207.808 126.582
L208.689 126.582
L208.689 125.632
L209.069 125.632
L209.069 124.681
L211.9 124.681
L211.9 123.731
L212.012 123.731
L212.066 121.83
L212.186 121.83
L212.186 120.879
L212.662 120.879
L212.662 119.929
L213.008 119.929
L213.008 118.028
L213.176 118.028
L213.286 113.275
L213.314 113.275
L213.314 111.374
L213.888 111.374
L213.888 110.424
L214.016 110.424
L214.016 109.473
L214.882 109.473
L214.882 108.523
L215.073 108.523
L215.073 106.622
L216.11 106.622
L216.11 105.671
L216.998 105.671
L216.998 104.721
L217.153 104.721
L217.153 102.82
L218.354 102.82
L218.354 100.919
L218.546 100.919
L218.546 99.9683
L218.754 99.9683
L218.754 99.0178
L219.606 99.0178
L219.713 95.2158
L220.142 95.2158
L220.142 94.2653
L220.309 94.2653
L220.309 93.3149
L220.9 93.3149
L220.9 92.3644
L221.592 92.3644
L221.592 91.4139
L223.691 91.4139
L223.691 90.4634
L224.443 90.4634
L224.443 89.5129
L224.756 89.5129
L224.858 87.6119
L225.06 87.6119
L225.06 83.8099
L225.364 83.8099
L225.364 81.9089
L225.775 81.9089
L225.775 80.9584
L226.23 80.9584
L226.23 80.0079
L226.49 80.0079
L226.49 79.0574
L226.935 79.0574
L226.935 78.1069
L229.685 78.1069
L229.685 76.2059
L230.096 76.2059
L230.096 75.2554
L230.37 75.2554
L230.37 74.305
L231.142 74.305
L231.142 73.3545
L231.941 73.3545
L231.941 72.404
L232.473 72.404
L232.527 70.503
L232.643 70.503
L232.643 69.5525
L232.966 69.5525
L232.966 63.8495
L235.512 63.8495
L235.536 59.097
L235.712 59.097
L235.712 54.3446
L235.991 54.3446
L235.991 53.3941
L236.389 53.3941
L236.389 52.4436
L236.847 52.4436
L236.847 51.4931
L237.125 51.4931
L237.225 49.5921
L237.562 49.5921
L237.602 44.8396
L238.252 44.8396
L238.308 42.9386
L238.734 42.9386
L238.786 41.0376
L239.079 41.0376
L239.079 40.0871
L239.425 40.0871
L239.442 38.1861
L239.842 38.1861
L239.842 37.2356
L240.191 37.2356
L240.191 36.2851
L240.633 36.2851
L240.664 34.3842
L240.941 34.3842
L240.941 33.4337
L241.093 33.4337
L241.181 31.5327
L241.229 31.5327
L241.229 30.5822
L241.407 30.5822
L241.407 29.6317
L241.92 29.6317
L241.92 28.6812
L242.216 28.6812
L242.216 27.7307
L242.358 27.7307
L242.358 26.7802
L242.51 26.7802
L242.51 25.8297
L243.506 25.8297
L243.506 24.8792
L244.409 24.8792
L244.506 22.0277
L244.535 22.0277
L244.535 21.0772
L244.829 21.0772
L244.9 19.1762
L245.498 19.1762
L245.555 17.2752
L245.921 17.2752
L246.018 15.3743
L246.677 15.3743
L246.677 14.4238
L247.548 14.4238
L247.548 13.4733
L247.781 13.4733
L247.781 12.5228
L249.642 12.5228
L249.642 11.5723
L250.362 11.5723
L250.362 10.6218
L250.362 10.6218
L453.6 10.6218
L453.6 10.6218" style="fill:none;stroke:#ff0000;stroke-linecap:square;stroke-width:3.0;"/>
   </g>
   <g id="line2d_2">
    <path clip-path="url(#p99b4b0da67)" d="
M201.414 352.8
L201.414 351.85
L201.414 351.85
L201.414 351.85
L201.414 350.899
L201.414 350.899
L201.414 350.899
L201.414 349.949
L201.414 349.949
L201.414 349.949
L201.414 348.998
L201.414 348.998
L201.414 348.998
L201.414 348.048
L201.414 348.048
L201.414 348.048
L201.414 347.097
L201.414 347.097
L201.414 347.097
L201.414 346.147
L201.414 346.147
L201.414 346.147
L201.414 345.196
L201.414 345.196
L201.414 345.196
L201.414 344.246
L201.414 344.246
L201.414 344.246
L201.414 343.295
L201.414 343.295
L201.414 343.295
L201.414 342.345
L201.414 342.345
L201.414 342.345
L201.414 341.394
L201.414 341.394
L201.414 341.394
L201.414 340.444
L201.414 340.444
L201.414 340.444
L201.414 339.493
L201.414 339.493
L201.414 339.493
L201.414 338.543
L214.023 338.543
L214.023 337.592
L224.232 337.592
L224.232 336.642
L231.646 336.642
L231.646 335.691
L231.981 335.691
L231.981 334.741
L236.926 334.741
L236.926 333.79
L238.329 333.79
L238.329 332.84
L238.937 332.84
L238.977 330.939
L240.002 330.939
L240.002 329.988
L240.157 329.988
L240.157 329.038
L240.276 329.038
L240.276 328.087
L241.077 328.087
L241.077 327.137
L241.682 327.137
L241.682 326.186
L242.069 326.186
L242.069 325.236
L242.881 325.236
L242.881 324.285
L243.09 324.285
L243.198 322.384
L243.971 322.384
L243.971 321.434
L244.165 321.434
L244.237 319.533
L244.669 319.533
L244.669 318.582
L245.318 318.582
L245.318 317.632
L245.452 317.632
L245.452 316.681
L246.311 316.681
L246.313 314.78
L246.569 314.78
L246.636 312.879
L246.963 312.879
L247.03 310.978
L247.14 310.978
L247.209 309.077
L248.33 309.077
L248.33 308.127
L248.545 308.127
L248.545 307.176
L249.398 307.176
L249.454 304.325
L249.619 304.325
L249.619 303.374
L250.409 303.374
L250.409 302.424
L250.896 302.424
L250.896 301.473
L251.491 301.473
L251.491 300.523
L251.666 300.523
L251.666 299.572
L252.31 299.572
L252.31 298.622
L252.68 298.622
L252.749 296.721
L253.905 296.721
L253.905 295.77
L254.375 295.77
L254.416 280.562
L254.676 280.562
L254.779 278.661
L255.202 278.661
L255.202 277.711
L255.327 277.711
L255.413 274.859
L255.481 274.859
L255.481 273.909
L256.002 273.909
L256.002 272.958
L256.306 272.958
L256.379 271.057
L256.528 271.057
L256.528 270.107
L256.986 270.107
L256.986 269.156
L257.428 269.156
L257.511 267.255
L257.571 267.255
L257.617 265.354
L258.411 265.354
L258.411 264.404
L258.525 264.404
L258.525 263.453
L258.757 263.453
L258.757 262.503
L258.872 262.503
L258.872 261.552
L259.077 261.552
L259.077 260.602
L259.251 260.602
L259.274 258.701
L260.152 258.701
L260.152 257.75
L260.431 257.75
L260.452 255.85
L260.785 255.85
L260.785 254.899
L261.013 254.899
L261.076 251.097
L261.869 251.097
L261.869 250.147
L262.189 250.147
L262.189 249.196
L262.483 249.196
L262.483 248.246
L262.713 248.246
L262.713 247.295
L263.082 247.295
L263.082 246.345
L263.432 246.345
L263.536 243.493
L263.656 243.493
L263.665 241.592
L263.862 241.592
L263.872 239.691
L264.036 239.691
L264.036 238.741
L264.172 238.741
L264.271 235.889
L264.29 235.889
L264.325 233.038
L264.437 233.038
L264.507 228.285
L264.685 228.285
L264.748 225.434
L264.886 225.434
L264.993 223.533
L265.034 223.533
L265.135 220.681
L265.211 220.681
L265.234 218.78
L265.328 218.78
L265.328 217.83
L265.485 217.83
L265.551 214.978
L265.664 214.978
L265.755 213.077
L265.902 213.077
L265.918 211.176
L266.042 211.176
L266.146 208.325
L266.196 208.325
L266.196 207.374
L266.473 207.374
L266.475 205.473
L266.672 205.473
L266.759 203.572
L266.866 203.572
L266.866 202.622
L267.014 202.622
L267.014 201.671
L267.132 201.671
L267.156 198.82
L267.648 198.82
L267.648 197.869
L267.764 197.869
L267.764 196.919
L267.924 196.919
L268.006 195.018
L268.109 195.018
L268.114 193.117
L268.465 193.117
L268.465 192.166
L268.767 192.166
L268.767 191.216
L269.067 191.216
L269.12 189.315
L269.301 189.315
L269.31 187.414
L269.434 187.414
L269.499 185.513
L269.592 185.513
L269.592 184.562
L269.802 184.562
L269.802 183.612
L269.973 183.612
L270.045 181.711
L270.368 181.711
L270.409 178.859
L270.512 178.859
L270.6 172.206
L270.648 172.206
L270.648 171.255
L271.25 171.255
L271.325 169.354
L271.382 169.354
L271.382 168.404
L271.648 168.404
L271.726 166.503
L271.969 166.503
L271.972 164.602
L272.204 164.602
L272.204 163.651
L272.448 163.651
L272.448 162.701
L273.382 162.701
L273.382 161.75
L273.581 161.75
L273.66 159.85
L273.753 159.85
L273.857 156.048
L274.557 156.048
L274.557 155.097
L274.751 155.097
L274.751 154.147
L275.367 154.147
L275.367 153.196
L277.176 153.196
L277.176 152.246
L277.423 152.246
L277.423 151.295
L277.67 151.295
L277.67 150.345
L278.461 150.345
L278.461 149.394
L278.61 149.394
L278.61 148.444
L278.823 148.444
L278.913 146.543
L279.225 146.543
L279.225 145.592
L279.608 145.592
L279.608 144.642
L279.735 144.642
L279.735 143.691
L279.997 143.691
L280.082 141.79
L280.205 141.79
L280.205 140.84
L280.557 140.84
L280.655 137.038
L281.072 137.038
L281.072 136.087
L281.212 136.087
L281.305 134.186
L282.414 134.186
L282.414 133.236
L282.529 133.236
L282.529 132.285
L284.057 132.285
L284.057 131.335
L284.272 131.335
L284.272 130.384
L285.069 130.384
L285.069 129.434
L285.822 129.434
L285.822 128.483
L286.385 128.483
L286.439 126.582
L286.849 126.582
L286.849 125.632
L287.259 125.632
L287.259 124.681
L289.177 124.681
L289.177 123.731
L289.878 123.731
L289.878 122.78
L290.14 122.78
L290.14 121.83
L290.387 121.83
L290.387 120.879
L291.159 120.879
L291.159 119.929
L291.87 119.929
L291.87 118.978
L293.24 118.978
L293.306 117.077
L293.814 117.077
L293.814 116.127
L294.112 116.127
L294.112 115.176
L295.214 115.176
L295.214 114.226
L295.454 114.226
L295.454 113.275
L296.265 113.275
L296.265 112.325
L296.543 112.325
L296.543 111.374
L297.986 111.374
L297.986 110.424
L298.402 110.424
L298.402 109.473
L299.148 109.473
L299.235 107.572
L300.971 107.572
L300.971 106.622
L301.084 106.622
L301.084 105.671
L303.415 105.671
L303.415 104.721
L305.942 104.721
L305.942 103.77
L307.42 103.77
L307.42 102.82
L312.49 102.82
L312.49 101.869
L313.154 101.869
L313.154 100.919
L314.8 100.919
L314.8 99.9683
L317.52 99.9683
L317.52 88.5624
L320.546 88.5624
L320.546 87.6119
L321.288 87.6119
L321.288 86.6614
L323.372 86.6614
L323.372 85.7109
L323.837 85.7109
L323.837 84.7604
L325.214 84.7604
L325.214 83.8099
L325.945 83.8099
L325.945 82.8594
L326.099 82.8594
L326.099 81.9089
L326.488 81.9089
L326.5 80.0079
L329.102 80.0079
L329.139 78.1069
L332.26 78.1069
L332.26 77.1564
L337.239 77.1564
L337.239 76.2059
L339.301 76.2059
L339.301 75.2554
L341.732 75.2554
L341.801 73.3545
L342.482 73.3545
L342.482 72.404
L343.219 72.404
L343.219 71.4535
L344.693 71.4535
L344.693 70.503
L346.057 70.503
L346.057 69.5525
L346.3 69.5525
L346.3 68.602
L348.22 68.602
L348.263 66.701
L348.434 66.701
L348.434 65.7505
L348.98 65.7505
L348.98 64.8
L349.417 64.8
L349.417 63.8495
L349.879 63.8495
L349.879 62.899
L352.588 62.899
L352.588 61.9485
L357.341 61.9485
L357.341 60.998
L358.088 60.998
L358.088 60.0475
L360.665 60.0475
L360.665 59.097
L361.497 59.097
L361.497 58.1465
L362.449 58.1465
L362.449 57.196
L363.861 57.196
L363.861 56.2455
L365.314 56.2455
L365.314 55.295
L368.564 55.295
L368.564 54.3446
L372.017 54.3446
L372.017 53.3941
L374.334 53.3941
L374.334 52.4436
L378.497 52.4436
L378.497 51.4931
L380.547 51.4931
L380.547 50.5426
L381.092 50.5426
L381.154 48.6416
L382.727 48.6416
L382.727 47.6911
L382.934 47.6911
L382.934 46.7406
L384.465 46.7406
L384.465 45.7901
L385.103 45.7901
L385.103 44.8396
L387.099 44.8396
L387.099 43.8891
L388.205 43.8891
L388.205 42.9386
L388.707 42.9386
L388.707 41.9881
L389.649 41.9881
L389.649 41.0376
L395.03 41.0376
L395.082 39.1366
L395.312 39.1366
L395.312 38.1861
L395.512 38.1861
L395.585 36.2851
L396.109 36.2851
L396.109 35.3347
L398.14 35.3347
L398.14 34.3842
L399.09 34.3842
L399.09 33.4337
L400.16 33.4337
L400.16 32.4832
L401.031 32.4832
L401.031 31.5327
L401.176 31.5327
L401.176 30.5822
L402.587 30.5822
L402.628 28.6812
L403.154 28.6812
L403.154 27.7307
L403.816 27.7307
L403.816 26.7802
L404.038 26.7802
L404.038 25.8297
L404.582 25.8297
L404.582 24.8792
L406.019 24.8792
L406.019 23.9287
L407.139 23.9287
L407.139 22.9782
L407.838 22.9782
L407.838 22.0277
L408.629 22.0277
L408.629 21.0772
L411.322 21.0772
L411.346 19.1762
L414.445 19.1762
L414.545 17.2752
L414.924 17.2752
L414.924 16.3248
L417.094 16.3248
L417.094 15.3743
L417.701 15.3743
L417.701 14.4238
L421.474 14.4238
L421.474 13.4733
L424.223 13.4733
L424.223 12.5228
L432.131 12.5228
L432.131 11.5723
L441.332 11.5723
L441.332 10.6218
L441.332 10.6218
L453.6 10.6218
L453.6 10.6218" style="fill:none;stroke:#00bfbf;stroke-linecap:square;"/>
   </g>
   <g id="line2d_3">
    <path clip-path="url(#p99b4b0da67)" d="
M201.414 352.8
L201.414 351.85
L201.414 351.85
L201.414 351.85
L201.414 350.899
L201.414 350.899
L201.414 350.899
L201.414 349.949
L201.414 349.949
L201.414 349.949
L201.414 348.998
L201.414 348.998
L201.414 348.998
L201.414 348.048
L201.414 348.048
L201.414 348.048
L201.414 347.097
L201.414 347.097
L201.414 347.097
L201.414 346.147
L201.414 346.147
L201.414 346.147
L201.414 345.196
L201.414 345.196
L201.414 345.196
L201.414 344.246
L201.414 344.246
L201.414 344.246
L201.414 343.295
L201.414 343.295
L201.414 343.295
L201.414 342.345
L201.414 342.345
L201.414 342.345
L201.414 341.394
L201.414 341.394
L201.414 341.394
L201.414 340.444
L201.414 340.444
L201.414 340.444
L201.414 339.493
L201.414 339.493
L201.414 339.493
L201.414 338.543
L214.023 338.543
L214.023 337.592
L224.232 337.592
L224.232 336.642
L226.432 336.642
L226.432 335.691
L229.228 335.691
L229.228 334.741
L231.646 334.741
L231.725 332.84
L232.39 332.84
L232.39 331.889
L233.714 331.889
L233.731 329.988
L236.926 329.988
L236.926 329.038
L238.329 329.038
L238.329 328.087
L238.829 328.087
L238.937 326.186
L238.977 326.186
L238.977 325.236
L239.294 325.236
L239.294 324.285
L240.002 324.285
L240.002 323.335
L240.157 323.335
L240.184 321.434
L240.325 321.434
L240.325 320.483
L241.077 320.483
L241.133 318.582
L241.249 318.582
L241.249 317.632
L242.069 317.632
L242.069 316.681
L242.475 316.681
L242.475 315.731
L242.881 315.731
L242.881 314.78
L243.019 314.78
L243.065 312.879
L243.198 312.879
L243.21 310.978
L243.529 310.978
L243.529 310.028
L243.971 310.028
L243.971 309.077
L244.187 309.077
L244.187 308.127
L244.532 308.127
L244.583 306.226
L244.669 306.226
L244.669 305.275
L244.853 305.275
L244.853 304.325
L245.221 304.325
L245.221 303.374
L245.453 303.374
L245.453 302.424
L245.724 302.424
L245.724 301.473
L245.951 301.473
L245.951 300.523
L246.304 300.523
L246.313 298.622
L246.569 298.622
L246.675 295.77
L247.062 295.77
L247.062 294.82
L247.588 294.82
L247.588 293.869
L248.273 293.869
L248.273 292.919
L248.745 292.919
L248.827 291.018
L249.167 291.018
L249.167 290.067
L249.287 290.067
L249.287 289.117
L249.981 289.117
L249.981 288.166
L250.896 288.166
L250.896 287.216
L251.491 287.216
L251.491 286.265
L251.765 286.265
L251.765 285.315
L252.026 285.315
L252.026 284.364
L253.251 284.364
L253.301 282.463
L253.811 282.463
L253.905 280.562
L254.08 280.562
L254.102 278.661
L254.375 278.661
L254.416 263.453
L254.647 263.453
L254.647 262.503
L254.779 262.503
L254.779 261.552
L255.342 261.552
L255.342 260.602
L255.472 260.602
L255.484 258.701
L255.853 258.701
L255.911 256.8
L256.25 256.8
L256.25 255.85
L256.528 255.85
L256.528 254.899
L257.045 254.899
L257.045 253.949
L257.246 253.949
L257.246 252.998
L257.424 252.998
L257.511 251.097
L257.557 251.097
L257.557 250.147
L257.828 250.147
L257.925 246.345
L257.991 246.345
L257.991 245.394
L258.332 245.394
L258.417 243.493
L258.623 243.493
L258.623 242.543
L258.757 242.543
L258.757 241.592
L259.02 241.592
L259.077 239.691
L259.351 239.691
L259.351 238.741
L259.575 238.741
L259.575 237.79
L259.846 237.79
L259.899 235.889
L260.101 235.889
L260.152 233.988
L260.557 233.988
L260.585 232.087
L260.772 232.087
L260.785 230.186
L260.953 230.186
L261.062 228.285
L261.134 228.285
L261.134 227.335
L261.498 227.335
L261.509 225.434
L261.869 225.434
L261.971 223.533
L262.061 223.533
L262.061 222.582
L262.189 222.582
L262.189 221.632
L262.626 221.632
L262.713 218.78
L262.76 218.78
L262.763 216.879
L262.97 216.879
L262.97 215.929
L263.182 215.929
L263.182 214.978
L263.332 214.978
L263.332 214.028
L263.573 214.028
L263.656 212.127
L263.847 212.127
L263.872 208.325
L264.002 208.325
L264.036 206.424
L264.161 206.424
L264.161 205.473
L264.3 205.473
L264.325 203.572
L264.437 203.572
L264.507 201.671
L264.651 201.671
L264.689 199.77
L264.886 199.77
L264.983 196.919
L265.034 196.919
L265.034 195.968
L265.211 195.968
L265.234 194.067
L265.342 194.067
L265.342 193.117
L265.485 193.117
L265.522 191.216
L265.639 191.216
L265.709 187.414
L265.755 187.414
L265.755 186.463
L265.902 186.463
L265.902 185.513
L266.196 185.513
L266.196 184.562
L266.724 184.562
L266.814 182.661
L266.864 182.661
L266.968 180.76
L267.014 180.76
L267.014 179.81
L267.132 179.81
L267.156 177.909
L267.55 177.909
L267.627 175.057
L267.92 175.057
L267.977 172.206
L268.087 172.206
L268.087 171.255
L268.322 171.255
L268.322 170.305
L268.465 170.305
L268.465 169.354
L268.767 169.354
L268.767 168.404
L269.001 168.404
L269.067 165.552
L269.499 165.552
L269.499 164.602
L269.685 164.602
L269.685 163.651
L269.912 163.651
L269.912 162.701
L270.512 162.701
L270.6 160.8
L270.811 160.8
L270.877 158.899
L271.128 158.899
L271.128 157.949
L271.25 157.949
L271.311 156.048
L271.972 156.048
L271.984 154.147
L272.204 154.147
L272.204 153.196
L272.448 153.196
L272.448 152.246
L273.669 152.246
L273.753 150.345
L273.809 150.345
L273.825 148.444
L274.867 148.444
L274.867 147.493
L276.045 147.493
L276.07 145.592
L276.232 145.592
L276.232 144.642
L276.479 144.642
L276.479 143.691
L276.729 143.691
L276.729 142.741
L277.176 142.741
L277.207 140.84
L277.423 140.84
L277.423 139.889
L277.705 139.889
L277.705 138.939
L278.131 138.939
L278.131 137.988
L278.269 137.988
L278.269 137.038
L278.428 137.038
L278.428 136.087
L278.61 136.087
L278.718 134.186
L278.823 134.186
L278.823 133.236
L279.211 133.236
L279.211 132.285
L279.997 132.285
L279.997 131.335
L280.205 131.335
L280.24 129.434
L280.362 129.434
L280.362 128.483
L280.655 128.483
L280.655 127.533
L280.767 127.533
L280.767 126.582
L281.17 126.582
L281.17 125.632
L281.922 125.632
L281.922 124.681
L282.414 124.681
L282.414 123.731
L285.822 123.731
L285.822 122.78
L286.133 122.78
L286.133 121.83
L286.849 121.83
L286.849 120.879
L287.259 120.879
L287.259 119.929
L287.554 119.929
L287.63 118.028
L287.849 118.028
L287.849 117.077
L288.815 117.077
L288.815 116.127
L289.552 116.127
L289.552 115.176
L289.815 115.176
L289.815 114.226
L290.14 114.226
L290.14 113.275
L291.6 113.275
L291.6 112.325
L291.87 112.325
L291.87 111.374
L292.921 111.374
L292.921 110.424
L293.306 110.424
L293.306 109.473
L293.681 109.473
L293.681 108.523
L293.814 108.523
L293.814 107.572
L294.42 107.572
L294.42 106.622
L296.265 106.622
L296.348 104.721
L297.995 104.721
L297.995 103.77
L298.402 103.77
L298.457 101.869
L299.802 101.869
L299.802 100.919
L300.971 100.919
L300.971 99.9683
L301.499 99.9683
L301.499 99.0178
L305.942 99.0178
L305.942 98.0673
L306.274 98.0673
L306.274 97.1168
L307.42 97.1168
L307.42 96.1663
L307.963 96.1663
L308.05 94.2653
L310.939 94.2653
L310.939 93.3149
L312.49 93.3149
L312.49 92.3644
L313.154 92.3644
L313.154 91.4139
L314.312 91.4139
L314.312 90.4634
L314.635 90.4634
L314.635 89.5129
L315.497 89.5129
L315.497 88.5624
L315.885 88.5624
L315.885 87.6119
L317.52 87.6119
L317.52 82.8594
L318.715 82.8594
L318.715 81.9089
L319.83 81.9089
L319.83 80.9584
L320.546 80.9584
L320.546 80.0079
L321.288 80.0079
L321.288 79.0574
L321.614 79.0574
L321.614 78.1069
L323.372 78.1069
L323.372 77.1564
L323.837 77.1564
L323.837 76.2059
L324.214 76.2059
L324.214 75.2554
L325.945 75.2554
L325.945 74.305
L328.298 74.305
L328.298 73.3545
L329.139 73.3545
L329.139 72.404
L334.869 72.404
L334.869 71.4535
L335.51 71.4535
L335.51 70.503
L336.472 70.503
L336.472 69.5525
L336.95 69.5525
L336.95 68.602
L337.239 68.602
L337.239 67.6515
L339.301 67.6515
L339.301 66.701
L342.196 66.701
L342.219 64.8
L342.482 64.8
L342.482 63.8495
L343.147 63.8495
L343.147 62.899
L345.503 62.899
L345.503 61.9485
L345.798 61.9485
L345.857 60.0475
L346.057 60.0475
L346.057 59.097
L348.067 59.097
L348.067 58.1465
L348.22 58.1465
L348.263 56.2455
L348.434 56.2455
L348.434 55.295
L349.417 55.295
L349.417 54.3446
L349.879 54.3446
L349.879 53.3941
L350.001 53.3941
L350.05 51.4931
L357.341 51.4931
L357.437 49.5921
L359.781 49.5921
L359.781 48.6416
L361.497 48.6416
L361.497 47.6911
L361.759 47.6911
L361.759 46.7406
L361.98 46.7406
L361.98 45.7901
L362.449 45.7901
L362.449 44.8396
L364.392 44.8396
L364.392 43.8891
L365.314 43.8891
L365.314 42.9386
L370.412 42.9386
L370.412 41.9881
L370.681 41.9881
L370.721 40.0871
L372.969 40.0871
L372.969 39.1366
L378.668 39.1366
L378.668 38.1861
L383.453 38.1861
L383.453 37.2356
L383.621 37.2356
L383.621 36.2851
L384.607 36.2851
L384.607 35.3347
L386.122 35.3347
L386.122 34.3842
L387.873 34.3842
L387.873 33.4337
L388.15 33.4337
L388.15 32.4832
L389.253 32.4832
L389.253 31.5327
L393.115 31.5327
L393.115 30.5822
L394.068 30.5822
L394.068 29.6317
L394.215 29.6317
L394.215 28.6812
L394.943 28.6812
L394.943 27.7307
L395.082 27.7307
L395.082 26.7802
L395.585 26.7802
L395.585 25.8297
L397.735 25.8297
L397.735 24.8792
L400.507 24.8792
L400.507 23.9287
L401.176 23.9287
L401.176 22.9782
L403.146 22.9782
L403.146 22.0277
L404.411 22.0277
L404.411 21.0772
L406.019 21.0772
L406.019 20.1267
L408.629 20.1267
L408.629 19.1762
L409.284 19.1762
L409.284 18.2257
L409.898 18.2257
L409.898 17.2752
L411.322 17.2752
L411.322 16.3248
L411.661 16.3248
L411.661 15.3743
L413.402 15.3743
L413.402 14.4238
L415.074 14.4238
L415.074 13.4733
L418.326 13.4733
L418.326 12.5228
L421.898 12.5228
L421.898 11.5723
L424.982 11.5723
L424.982 10.6218
L424.982 10.6218
L453.6 10.6218
L453.6 10.6218" style="fill:none;stroke:#bf00bf;stroke-linecap:square;"/>
   </g>
   <g id="line2d_4">
    <path clip-path="url(#p99b4b0da67)" d="
M201.414 352.8
L201.414 351.85
L201.414 351.85
L201.414 351.85
L201.414 350.899
L201.414 350.899
L201.414 350.899
L201.414 349.949
L201.414 349.949
L201.414 349.949
L201.414 348.998
L201.414 348.998
L201.414 348.998
L201.414 348.048
L201.414 348.048
L201.414 348.048
L201.414 347.097
L201.414 347.097
L201.414 347.097
L201.414 346.147
L201.414 346.147
L201.414 346.147
L201.414 345.196
L201.414 345.196
L201.414 345.196
L201.414 344.246
L201.414 344.246
L201.414 344.246
L201.414 343.295
L201.414 343.295
L201.414 343.295
L201.414 342.345
L201.414 342.345
L201.414 342.345
L201.414 341.394
L201.414 341.394
L201.414 341.394
L201.414 340.444
L201.414 340.444
L201.414 340.444
L201.414 339.493
L201.414 339.493
L201.414 339.493
L201.414 338.543
L214.023 338.543
L214.023 337.592
L216.995 337.592
L216.995 336.642
L221.164 336.642
L221.164 335.691
L226.432 335.691
L226.432 334.741
L228.349 334.741
L228.367 332.84
L229.228 332.84
L229.228 331.889
L229.542 331.889
L229.542 330.939
L230.848 330.939
L230.848 329.988
L231.438 329.988
L231.438 329.038
L231.8 329.038
L231.8 328.087
L231.982 328.087
L231.982 327.137
L232.332 327.137
L232.332 326.186
L233.479 326.186
L233.479 325.236
L233.731 325.236
L233.731 324.285
L234.303 324.285
L234.303 323.335
L234.482 323.335
L234.482 322.384
L235.413 322.384
L235.516 320.483
L236.051 320.483
L236.051 319.533
L236.567 319.533
L236.567 318.582
L237.119 318.582
L237.119 317.632
L237.322 317.632
L237.322 316.681
L237.831 316.681
L237.831 315.731
L237.957 315.731
L237.957 314.78
L238.329 314.78
L238.329 313.83
L238.558 313.83
L238.558 312.879
L238.829 312.879
L238.937 310.978
L238.977 310.978
L238.977 310.028
L240.002 310.028
L240.002 309.077
L240.157 309.077
L240.257 306.226
L240.304 306.226
L240.404 304.325
L241.077 304.325
L241.123 302.424
L241.249 302.424
L241.28 300.523
L241.445 300.523
L241.445 299.572
L241.785 299.572
L241.785 298.622
L242.196 298.622
L242.196 297.671
L242.432 297.671
L242.432 296.721
L242.788 296.721
L242.881 294.82
L243.062 294.82
L243.109 292.919
L243.174 292.919
L243.21 290.067
L243.971 290.067
L243.991 288.166
L244.093 288.166
L244.093 287.216
L244.853 287.216
L244.853 286.265
L245.065 286.265
L245.065 285.315
L245.504 285.315
L245.504 284.364
L246.313 284.364
L246.313 283.414
L246.569 283.414
L246.636 281.513
L247.001 281.513
L247.001 280.562
L247.396 280.562
L247.396 279.612
L248.273 279.612
L248.273 278.661
L248.564 278.661
L248.564 277.711
L248.745 277.711
L248.745 276.76
L248.869 276.76
L248.869 275.81
L249.131 275.81
L249.167 273.909
L249.25 273.909
L249.251 272.008
L249.559 272.008
L249.559 271.057
L251.734 271.057
L251.737 269.156
L252.026 269.156
L252.095 267.255
L252.153 267.255
L252.159 265.354
L252.778 265.354
L252.783 263.453
L253.058 263.453
L253.058 262.503
L253.251 262.503
L253.251 261.552
L253.484 261.552
L253.484 260.602
L253.607 260.602
L253.607 259.651
L253.811 259.651
L253.868 257.75
L254.017 257.75
L254.08 255.85
L254.13 255.85
L254.13 254.899
L254.375 254.899
L254.375 240.642
L254.647 240.642
L254.749 238.741
L255.023 238.741
L255.023 237.79
L255.148 237.79
L255.248 235.889
L255.472 235.889
L255.472 234.939
L255.911 234.939
L255.911 233.988
L256.241 233.988
L256.343 231.137
L256.456 231.137
L256.553 229.236
L256.649 229.236
L256.649 228.285
L256.997 228.285
L257.045 226.384
L257.245 226.384
L257.341 222.582
L257.557 222.582
L257.575 219.731
L257.818 219.731
L257.859 216.879
L258.508 216.879
L258.592 214.028
L258.7 214.028
L258.722 212.127
L259.02 212.127
L259.02 211.176
L259.351 211.176
L259.351 210.226
L260.461 210.226
L260.572 207.374
L260.585 207.374
L260.684 205.473
L261.025 205.473
L261.025 204.523
L261.329 204.523
L261.329 203.572
L261.443 203.572
L261.509 201.671
L261.582 201.671
L261.582 200.721
L261.869 200.721
L261.971 198.82
L262.218 198.82
L262.222 196.919
L262.34 196.919
L262.34 195.968
L262.689 195.968
L262.798 194.067
L262.901 194.067
L262.97 192.166
L263.08 192.166
L263.182 189.315
L263.332 189.315
L263.332 188.364
L263.519 188.364
L263.519 187.414
L263.654 187.414
L263.723 185.513
L263.861 185.513
L263.862 183.612
L264.413 183.612
L264.413 182.661
L264.534 182.661
L264.534 181.711
L264.668 181.711
L264.767 179.81
L264.801 179.81
L264.886 176.958
L264.971 176.958
L265.072 175.057
L265.13 175.057
L265.211 172.206
L265.419 172.206
L265.485 170.305
L265.707 170.305
L265.762 168.404
L266.047 168.404
L266.047 167.453
L266.161 167.453
L266.204 165.552
L266.277 165.552
L266.277 164.602
L266.814 164.602
L266.864 162.701
L266.956 162.701
L266.956 161.75
L267.55 161.75
L267.62 158.899
L267.781 158.899
L267.781 157.949
L267.983 157.949
L268.028 156.048
L268.305 156.048
L268.373 154.147
L268.472 154.147
L268.517 152.246
L268.742 152.246
L268.767 150.345
L269.592 150.345
L269.592 149.394
L269.902 149.394
L269.902 148.444
L270.026 148.444
L270.026 147.493
L270.544 147.493
L270.544 146.543
L271.329 146.543
L271.329 145.592
L271.577 145.592
L271.577 144.642
L272.023 144.642
L272.086 142.741
L272.204 142.741
L272.245 140.84
L272.349 140.84
L272.349 139.889
L272.679 139.889
L272.679 138.939
L272.961 138.939
L272.961 137.988
L273.093 137.988
L273.093 137.038
L273.217 137.038
L273.217 136.087
L273.347 136.087
L273.347 135.137
L274.011 135.137
L274.089 133.236
L274.201 133.236
L274.201 132.285
L274.671 132.285
L274.671 131.335
L274.867 131.335
L274.867 130.384
L275.52 130.384
L275.613 128.483
L276.045 128.483
L276.045 127.533
L276.23 127.533
L276.23 126.582
L276.353 126.582
L276.353 125.632
L276.932 125.632
L276.932 124.681
L277.207 124.681
L277.26 122.78
L277.494 122.78
L277.494 121.83
L278.33 121.83
L278.33 120.879
L280.655 120.879
L280.655 119.929
L281.489 119.929
L281.489 118.978
L281.81 118.978
L281.881 117.077
L282.736 117.077
L282.736 116.127
L284.169 116.127
L284.169 115.176
L285.368 115.176
L285.368 114.226
L285.822 114.226
L285.822 113.275
L286.133 113.275
L286.133 112.325
L287.554 112.325
L287.554 111.374
L288.128 111.374
L288.128 110.424
L288.36 110.424
L288.36 109.473
L288.815 109.473
L288.815 108.523
L289.642 108.523
L289.642 107.572
L290.127 107.572
L290.181 105.671
L291.501 105.671
L291.569 103.77
L291.742 103.77
L291.742 102.82
L292.921 102.82
L292.921 101.869
L293.533 101.869
L293.616 99.9683
L293.814 99.9683
L293.83 98.0673
L294.42 98.0673
L294.42 97.1168
L295.323 97.1168
L295.323 96.1663
L296.075 96.1663
L296.075 95.2158
L297.944 95.2158
L297.995 93.3149
L299.248 93.3149
L299.299 91.4139
L300.971 91.4139
L300.971 90.4634
L301.204 90.4634
L301.204 89.5129
L301.499 89.5129
L301.499 88.5624
L304.096 88.5624
L304.096 87.6119
L305.319 87.6119
L305.319 86.6614
L307.003 86.6614
L307.003 85.7109
L307.578 85.7109
L307.578 84.7604
L308.05 84.7604
L308.05 83.8099
L308.286 83.8099
L308.286 82.8594
L308.52 82.8594
L308.52 81.9089
L310.939 81.9089
L310.939 80.9584
L311.479 80.9584
L311.56 78.1069
L312.49 78.1069
L312.49 77.1564
L313.737 77.1564
L313.737 76.2059
L315.705 76.2059
L315.705 75.2554
L319.52 75.2554
L319.52 74.305
L320.38 74.305
L320.38 73.3545
L320.546 73.3545
L320.546 72.404
L321.051 72.404
L321.051 71.4535
L321.288 71.4535
L321.288 70.503
L323.837 70.503
L323.837 69.5525
L325.641 69.5525
L325.641 68.602
L325.939 68.602
L325.939 67.6515
L326.648 67.6515
L326.648 66.701
L328.298 66.701
L328.298 65.7505
L328.804 65.7505
L328.804 64.8
L329.218 64.8
L329.218 63.8495
L330.013 63.8495
L330.121 61.9485
L331.122 61.9485
L331.122 60.998
L333.005 60.998
L333.005 60.0475
L334.243 60.0475
L334.243 59.097
L334.369 59.097
L334.369 58.1465
L334.902 58.1465
L334.902 57.196
L335.51 57.196
L335.51 56.2455
L336.746 56.2455
L336.746 55.295
L336.95 55.295
L336.95 54.3446
L339.644 54.3446
L339.644 53.3941
L340.808 53.3941
L340.808 52.4436
L341.018 52.4436
L341.018 51.4931
L342.224 51.4931
L342.224 50.5426
L342.482 50.5426
L342.482 49.5921
L342.787 49.5921
L342.787 48.6416
L344.907 48.6416
L344.907 47.6911
L345.503 47.6911
L345.503 46.7406
L345.798 46.7406
L345.857 44.8396
L348.22 44.8396
L348.22 43.8891
L349.417 43.8891
L349.417 42.9386
L349.622 42.9386
L349.622 41.9881
L350.001 41.9881
L350.001 41.0376
L350.962 41.0376
L350.962 40.0871
L352.607 40.0871
L352.607 39.1366
L352.959 39.1366
L352.959 38.1861
L353.672 38.1861
L353.672 37.2356
L353.994 37.2356
L353.994 36.2851
L357.665 36.2851
L357.665 35.3347
L361.497 35.3347
L361.497 34.3842
L362.571 34.3842
L362.571 33.4337
L364.392 33.4337
L364.392 32.4832
L366.247 32.4832
L366.247 31.5327
L366.526 31.5327
L366.526 30.5822
L370.342 30.5822
L370.342 29.6317
L372.969 29.6317
L372.969 28.6812
L373.8 28.6812
L373.8 27.7307
L385.181 27.7307
L385.181 26.7802
L386.76 26.7802
L386.76 25.8297
L387.873 25.8297
L387.961 23.9287
L392.187 23.9287
L392.187 22.9782
L392.32 22.9782
L392.32 22.0277
L392.831 22.0277
L392.831 21.0772
L393.603 21.0772
L393.603 20.1267
L397.487 20.1267
L397.487 19.1762
L399.879 19.1762
L399.879 18.2257
L400.057 18.2257
L400.057 17.2752
L400.98 17.2752
L400.98 16.3248
L401.499 16.3248
L401.499 15.3743
L409.353 15.3743
L409.353 14.4238
L411.322 14.4238
L411.322 13.4733
L412.757 13.4733
L412.757 12.5228
L413.069 12.5228
L413.069 11.5723
L418.377 11.5723
L418.377 10.6218
L418.377 10.6218
L453.6 10.6218
L453.6 10.6218" style="fill:none;stroke:#000000;stroke-linecap:square;"/>
   </g>
   <g id="line2d_5">
    <path clip-path="url(#p99b4b0da67)" d="
M7.0865 352.8
L7.0865 351.85
L201.414 351.85
L201.414 337.592
L212.434 337.592
L212.434 336.642
L214.023 336.642
L214.023 335.691
L216.363 335.691
L216.363 334.741
L217.304 334.741
L217.405 331.889
L217.696 331.889
L217.696 330.939
L219.939 330.939
L219.939 329.988
L221.486 329.988
L221.486 329.038
L222.676 329.038
L222.676 328.087
L223.094 328.087
L223.094 327.137
L223.876 327.137
L223.876 326.186
L224.313 326.186
L224.366 324.285
L225.548 324.285
L225.548 323.335
L225.808 323.335
L225.894 321.434
L226.027 321.434
L226.027 320.483
L226.432 320.483
L226.432 319.533
L228.385 319.533
L228.385 318.582
L228.771 318.582
L228.821 316.681
L228.902 316.681
L228.902 315.731
L229.026 315.731
L229.026 314.78
L229.173 314.78
L229.228 312.879
L229.487 312.879
L229.487 311.929
L229.715 311.929
L229.715 310.978
L230.287 310.978
L230.287 310.028
L230.464 310.028
L230.464 309.077
L230.614 309.077
L230.683 307.176
L230.742 307.176
L230.848 305.275
L230.86 305.275
L230.86 304.325
L231.151 304.325
L231.151 303.374
L231.418 303.374
L231.418 302.424
L231.847 302.424
L231.847 301.473
L232.086 301.473
L232.094 299.572
L232.465 299.572
L232.465 298.622
L232.588 298.622
L232.692 295.77
L232.757 295.77
L232.757 294.82
L232.915 294.82
L233.021 291.018
L233.585 291.018
L233.585 290.067
L233.71 290.067
L233.731 288.166
L233.858 288.166
L233.858 287.216
L234.149 287.216
L234.258 284.364
L234.342 284.364
L234.408 282.463
L234.52 282.463
L234.52 281.513
L235.087 281.513
L235.19 279.612
L235.516 279.612
L235.611 277.711
L235.754 277.711
L235.782 275.81
L236.014 275.81
L236.014 274.859
L236.426 274.859
L236.426 273.909
L236.567 273.909
L236.653 272.008
L236.937 272.008
L237.038 270.107
L237.81 270.107
L237.81 269.156
L238.225 269.156
L238.225 268.206
L238.477 268.206
L238.562 266.305
L238.691 266.305
L238.691 265.354
L238.937 265.354
L238.937 264.404
L239.085 264.404
L239.085 263.453
L239.404 263.453
L239.404 262.503
L239.534 262.503
L239.534 261.552
L240.184 261.552
L240.257 257.75
L240.664 257.75
L240.664 256.8
L240.987 256.8
L240.987 255.85
L241.539 255.85
L241.616 252.998
L241.718 252.998
L241.718 252.048
L241.845 252.048
L241.868 250.147
L242.032 250.147
L242.032 249.196
L242.81 249.196
L242.881 247.295
L242.944 247.295
L242.944 246.345
L243.109 246.345
L243.109 245.394
L243.883 245.394
L243.991 242.543
L244.184 242.543
L244.184 241.592
L244.564 241.592
L244.564 240.642
L244.845 240.642
L244.853 238.741
L245.065 238.741
L245.065 237.79
L245.193 237.79
L245.193 236.84
L245.473 236.84
L245.473 235.889
L245.631 235.889
L245.631 234.939
L246.049 234.939
L246.049 233.988
L246.492 233.988
L246.492 233.038
L246.792 233.038
L246.792 232.087
L247.001 232.087
L247.001 231.137
L247.261 231.137
L247.261 230.186
L247.396 230.186
L247.396 229.236
L247.699 229.236
L247.699 228.285
L247.925 228.285
L248.01 226.384
L248.081 226.384
L248.081 225.434
L248.745 225.434
L248.745 224.483
L248.917 224.483
L249.011 221.632
L249.131 221.632
L249.131 220.681
L249.3 220.681
L249.3 219.731
L249.6 219.731
L249.68 217.83
L250.489 217.83
L250.515 215.929
L250.738 215.929
L250.738 214.978
L251.028 214.978
L251.055 213.077
L251.231 213.077
L251.306 210.226
L251.737 210.226
L251.744 208.325
L251.939 208.325
L251.961 206.424
L252.061 206.424
L252.061 205.473
L252.311 205.473
L252.311 204.523
L252.568 204.523
L252.568 203.572
L253.491 203.572
L253.53 201.671
L253.674 201.671
L253.773 199.77
L253.868 199.77
L253.868 198.82
L254.182 198.82
L254.182 197.869
L254.375 197.869
L254.375 183.612
L254.742 183.612
L254.756 181.711
L255.063 181.711
L255.063 180.76
L255.227 180.76
L255.238 178.859
L255.569 178.859
L255.569 177.909
L255.871 177.909
L255.871 176.958
L256.201 176.958
L256.201 176.008
L256.337 176.008
L256.337 175.057
L256.469 175.057
L256.469 174.107
L256.753 174.107
L256.753 173.156
L257.045 173.156
L257.045 172.206
L257.546 172.206
L257.546 171.255
L257.859 171.255
L257.859 170.305
L258.35 170.305
L258.35 169.354
L258.469 169.354
L258.573 166.503
L258.596 166.503
L258.705 164.602
L259.671 164.602
L259.729 162.701
L259.824 162.701
L259.931 158.899
L259.937 158.899
L259.977 156.998
L260.118 156.998
L260.138 155.097
L260.392 155.097
L260.392 154.147
L260.557 154.147
L260.612 151.295
L260.877 151.295
L260.944 149.394
L260.999 149.394
L261.004 147.493
L261.443 147.493
L261.464 144.642
L261.586 144.642
L261.586 143.691
L262.216 143.691
L262.216 142.741
L262.352 142.741
L262.453 140.84
L262.596 140.84
L262.682 138.939
L262.938 138.939
L262.984 137.038
L263.232 137.038
L263.311 135.137
L263.614 135.137
L263.696 133.236
L263.826 133.236
L263.852 131.335
L263.973 131.335
L264.032 129.434
L264.146 129.434
L264.146 128.483
L264.512 128.483
L264.512 127.533
L264.74 127.533
L264.756 125.632
L264.886 125.632
L264.886 124.681
L265.069 124.681
L265.069 123.731
L265.215 123.731
L265.289 121.83
L265.671 121.83
L265.762 119.929
L266.09 119.929
L266.09 118.978
L266.271 118.978
L266.362 117.077
L266.415 117.077
L266.453 115.176
L266.567 115.176
L266.567 114.226
L266.815 114.226
L266.834 112.325
L267.205 112.325
L267.304 110.424
L267.43 110.424
L267.523 107.572
L268.059 107.572
L268.059 106.622
L268.517 106.622
L268.517 105.671
L269.278 105.671
L269.278 104.721
L269.519 104.721
L269.578 102.82
L270.233 102.82
L270.233 101.869
L271.056 101.869
L271.056 100.919
L271.326 100.919
L271.326 99.9683
L271.732 99.9683
L271.795 97.1168
L272.2 97.1168
L272.2 96.1663
L273.471 96.1663
L273.532 94.2653
L273.976 94.2653
L273.976 93.3149
L274.83 93.3149
L274.83 92.3644
L275.023 92.3644
L275.023 91.4139
L276.045 91.4139
L276.045 90.4634
L276.195 90.4634
L276.195 89.5129
L277.248 89.5129
L277.248 88.5624
L277.432 88.5624
L277.432 87.6119
L277.589 87.6119
L277.589 86.6614
L277.96 86.6614
L277.96 85.7109
L278.212 85.7109
L278.212 84.7604
L278.497 84.7604
L278.497 83.8099
L280.265 83.8099
L280.265 82.8594
L280.839 82.8594
L280.839 81.9089
L281.369 81.9089
L281.369 80.9584
L281.906 80.9584
L281.906 80.0079
L282.106 80.0079
L282.106 79.0574
L282.697 79.0574
L282.697 78.1069
L284.102 78.1069
L284.102 77.1564
L285.228 77.1564
L285.228 76.2059
L285.469 76.2059
L285.469 75.2554
L285.822 75.2554
L285.884 73.3545
L286.234 73.3545
L286.234 72.404
L287.304 72.404
L287.327 70.503
L288.438 70.503
L288.438 69.5525
L288.561 69.5525
L288.561 68.602
L291.077 68.602
L291.077 67.6515
L293.814 67.6515
L293.814 66.701
L294.825 66.701
L294.825 65.7505
L299.459 65.7505
L299.459 64.8
L301.204 64.8
L301.204 63.8495
L302.79 63.8495
L302.79 62.899
L308.05 62.899
L308.05 61.9485
L308.224 61.9485
L308.286 60.0475
L314.132 60.0475
L314.132 59.097
L315.464 59.097
L315.539 57.196
L317.448 57.196
L317.448 56.2455
L320.38 56.2455
L320.38 55.295
L321.051 55.295
L321.051 54.3446
L321.288 54.3446
L321.288 53.3941
L321.448 53.3941
L321.448 52.4436
L323.561 52.4436
L323.561 51.4931
L324.552 51.4931
L324.552 50.5426
L325.293 50.5426
L325.293 49.5921
L325.641 49.5921
L325.641 48.6416
L325.948 48.6416
L325.948 47.6911
L326.199 47.6911
L326.199 46.7406
L327.57 46.7406
L327.57 45.7901
L328.257 45.7901
L328.345 42.9386
L329.073 42.9386
L329.073 41.9881
L329.897 41.9881
L329.897 41.0376
L330.121 41.0376
L330.121 40.0871
L330.752 40.0871
L330.752 39.1366
L331.968 39.1366
L331.968 38.1861
L332.38 38.1861
L332.399 36.2851
L336.004 36.2851
L336.004 35.3347
L336.592 35.3347
L336.592 34.3842
L338.177 34.3842
L338.177 33.4337
L339.233 33.4337
L339.233 32.4832
L339.525 32.4832
L339.525 31.5327
L340.707 31.5327
L340.808 29.6317
L344.033 29.6317
L344.033 28.6812
L344.586 28.6812
L344.586 27.7307
L344.796 27.7307
L344.796 26.7802
L345.857 26.7802
L345.857 25.8297
L346.8 25.8297
L346.8 24.8792
L350.962 24.8792
L350.962 23.9287
L361.111 23.9287
L361.111 22.9782
L372.848 22.9782
L372.848 22.0277
L375.775 22.0277
L375.775 21.0772
L376.272 21.0772
L376.272 20.1267
L376.976 20.1267
L376.976 19.1762
L378.965 19.1762
L378.965 18.2257
L379.082 18.2257
L379.082 17.2752
L382.459 17.2752
L382.459 16.3248
L383.368 16.3248
L383.368 15.3743
L385.181 15.3743
L385.181 14.4238
L389.563 14.4238
L389.563 13.4733
L396.042 13.4733
L396.042 12.5228
L399.846 12.5228
L399.846 11.5723
L400.365 11.5723
L400.365 10.6218
L400.365 10.6218
L453.6 10.6218
L453.6 10.6218" style="fill:none;stroke:#00bfbf;stroke-linecap:square;"/>
   </g>
   <g id="line2d_6">
    <path clip-path="url(#p99b4b0da67)" d="
M7.0865 352.8
L7.0865 351.85
L7.0865 351.85
L7.0865 351.85
L7.0865 350.899
L7.0865 350.899
L7.0865 350.899
L7.0865 349.949
L7.0865 349.949
L7.0865 349.949
L7.0865 348.998
L7.0865 348.998
L7.0865 348.998
L7.0865 348.048
L7.0865 348.048
L7.0865 348.048
L7.0865 347.097
L7.0865 347.097
L7.0865 347.097
L7.0865 346.147
L7.0865 346.147
L7.0865 346.147
L7.0865 345.196
L7.0865 345.196
L7.0865 345.196
L7.0865 344.246
L7.0865 344.246
L7.0865 344.246
L7.0865 343.295
L7.0865 343.295
L7.0865 343.295
L7.0865 342.345
L7.0865 342.345
L7.0865 342.345
L7.0865 341.394
L7.0865 341.394
L7.0865 341.394
L7.0865 340.444
L7.0865 340.444
L7.0865 340.444
L7.0865 339.493
L7.0865 339.493
L7.0865 339.493
L7.0865 338.543
L168.096 338.543
L168.096 337.592
L176.102 337.592
L176.102 336.642
L176.654 336.642
L176.654 335.691
L181.495 335.691
L181.495 334.741
L183.169 334.741
L183.169 333.79
L184.177 333.79
L184.177 332.84
L190.368 332.84
L190.42 330.939
L192.098 330.939
L192.098 329.988
L192.812 329.988
L192.812 329.038
L193.032 329.038
L193.101 327.137
L193.214 327.137
L193.214 326.186
L194.135 326.186
L194.135 325.236
L194.753 325.236
L194.753 324.285
L195.063 324.285
L195.063 323.335
L195.2 323.335
L195.286 321.434
L195.379 321.434
L195.379 320.483
L196.113 320.483
L196.113 319.533
L196.416 319.533
L196.416 318.582
L196.67 318.582
L196.67 317.632
L197.797 317.632
L197.797 316.681
L198.432 316.681
L198.432 315.731
L199.894 315.731
L199.894 314.78
L200.033 314.78
L200.067 312.879
L200.663 312.879
L200.663 311.929
L200.781 311.929
L200.781 310.978
L201.346 310.978
L201.414 295.77
L202.738 295.77
L202.738 294.82
L203.677 294.82
L203.677 293.869
L203.95 293.869
L203.95 292.919
L205.015 292.919
L205.015 291.968
L205.928 291.968
L205.928 291.018
L208.181 291.018
L208.181 290.067
L208.895 290.067
L208.895 289.117
L209.255 289.117
L209.255 288.166
L210.003 288.166
L210.003 287.216
L210.542 287.216
L210.542 286.265
L211.125 286.265
L211.125 285.315
L211.638 285.315
L211.638 284.364
L212.218 284.364
L212.218 283.414
L213.041 283.414
L213.06 281.513
L213.849 281.513
L213.849 280.562
L214.153 280.562
L214.153 279.612
L214.31 279.612
L214.31 278.661
L214.834 278.661
L214.834 277.711
L215.179 277.711
L215.179 276.76
L215.949 276.76
L215.949 275.81
L216.445 275.81
L216.445 274.859
L216.681 274.859
L216.681 273.909
L217.899 273.909
L217.899 272.958
L218.318 272.958
L218.344 271.057
L219.319 271.057
L219.319 270.107
L219.759 270.107
L219.759 269.156
L219.888 269.156
L219.888 268.206
L220.855 268.206
L220.855 267.255
L221.4 267.255
L221.4 266.305
L223.298 266.305
L223.298 265.354
L224.091 265.354
L224.186 263.453
L224.369 263.453
L224.414 261.552
L224.631 261.552
L224.631 260.602
L225.117 260.602
L225.173 257.75
L225.295 257.75
L225.36 254.899
L225.862 254.899
L225.925 251.097
L225.995 251.097
L225.995 250.147
L226.181 250.147
L226.284 246.345
L226.309 246.345
L226.4 243.493
L226.55 243.493
L226.55 242.543
L226.666 242.543
L226.666 241.592
L227.005 241.592
L227.005 240.642
L227.504 240.642
L227.544 238.741
L227.648 238.741
L227.648 237.79
L227.76 237.79
L227.818 235.889
L228.098 235.889
L228.204 233.038
L228.317 233.038
L228.317 232.087
L228.902 232.087
L228.961 230.186
L229.027 230.186
L229.053 228.285
L229.194 228.285
L229.299 224.483
L229.428 224.483
L229.428 223.533
L229.677 223.533
L229.677 222.582
L230.507 222.582
L230.507 221.632
L231.315 221.632
L231.315 220.681
L231.488 220.681
L231.488 219.731
L231.772 219.731
L231.782 217.83
L232.314 217.83
L232.409 215.929
L232.496 215.929
L232.579 214.028
L232.668 214.028
L232.668 213.077
L232.842 213.077
L232.842 212.127
L233.115 212.127
L233.115 211.176
L233.232 211.176
L233.232 210.226
L233.885 210.226
L233.923 208.325
L234.011 208.325
L234.086 205.473
L234.466 205.473
L234.466 204.523
L234.777 204.523
L234.777 203.572
L234.96 203.572
L235.054 201.671
L235.999 201.671
L235.999 200.721
L236.13 200.721
L236.13 199.77
L236.498 199.77
L236.602 197.869
L236.708 197.869
L236.729 195.968
L236.875 195.968
L236.875 195.018
L237.056 195.018
L237.056 194.067
L237.265 194.067
L237.265 193.117
L238.114 193.117
L238.114 192.166
L238.418 192.166
L238.472 190.265
L238.616 190.265
L238.655 188.364
L238.826 188.364
L238.826 187.414
L239.085 187.414
L239.165 185.513
L239.283 185.513
L239.283 184.562
L240.184 184.562
L240.259 182.661
L240.487 182.661
L240.592 180.76
L240.664 180.76
L240.664 179.81
L240.977 179.81
L241.027 177.909
L241.288 177.909
L241.288 176.958
L241.547 176.958
L241.621 174.107
L241.696 174.107
L241.696 173.156
L242.2 173.156
L242.256 170.305
L242.344 170.305
L242.399 167.453
L242.61 167.453
L242.61 166.503
L242.881 166.503
L242.93 164.602
L243.03 164.602
L243.03 163.651
L243.371 163.651
L243.371 162.701
L243.85 162.701
L243.85 161.75
L245.18 161.75
L245.18 160.8
L245.555 160.8
L245.555 159.85
L246.245 159.85
L246.245 158.899
L246.484 158.899
L246.484 157.949
L246.786 157.949
L246.852 156.048
L247.044 156.048
L247.145 154.147
L247.308 154.147
L247.376 152.246
L247.441 152.246
L247.441 151.295
L247.696 151.295
L247.696 150.345
L247.857 150.345
L247.857 149.394
L248.364 149.394
L248.364 148.444
L248.527 148.444
L248.623 146.543
L249.075 146.543
L249.134 144.642
L249.456 144.642
L249.508 141.79
L249.593 141.79
L249.593 140.84
L249.812 140.84
L249.89 138.939
L250.033 138.939
L250.061 137.038
L250.221 137.038
L250.221 136.087
L250.442 136.087
L250.474 134.186
L250.634 134.186
L250.672 132.285
L250.863 132.285
L250.863 131.335
L251.136 131.335
L251.136 130.384
L251.306 130.384
L251.397 128.483
L251.456 128.483
L251.523 125.632
L251.699 125.632
L251.699 124.681
L251.873 124.681
L251.873 123.731
L251.994 123.731
L252.093 119.929
L252.363 119.929
L252.385 116.127
L252.596 116.127
L252.695 114.226
L252.756 114.226
L252.756 113.275
L252.907 113.275
L252.92 110.424
L253.201 110.424
L253.201 109.473
L253.338 109.473
L253.441 106.622
L253.473 106.622
L253.473 105.671
L253.589 105.671
L253.647 102.82
L253.967 102.82
L253.967 101.869
L254.275 101.869
L254.38 95.2158
L254.465 95.2158
L254.523 93.3149
L254.59 93.3149
L254.593 91.4139
L254.914 91.4139
L254.952 88.5624
L255.093 88.5624
L255.093 87.6119
L255.416 87.6119
L255.481 85.7109
L255.653 85.7109
L255.653 84.7604
L255.899 84.7604
L255.975 81.9089
L256.118 81.9089
L256.118 80.9584
L256.613 80.9584
L256.685 79.0574
L256.979 79.0574
L256.979 78.1069
L257.951 78.1069
L257.951 77.1564
L258.121 77.1564
L258.121 76.2059
L258.242 76.2059
L258.335 74.305
L259.174 74.305
L259.174 73.3545
L261.019 73.3545
L261.019 72.404
L261.935 72.404
L261.935 71.4535
L262.539 71.4535
L262.539 70.503
L264.061 70.503
L264.061 69.5525
L264.238 69.5525
L264.287 67.6515
L265.049 67.6515
L265.144 65.7505
L265.289 65.7505
L265.289 64.8
L265.648 64.8
L265.648 63.8495
L266.56 63.8495
L266.56 62.899
L266.697 62.899
L266.697 61.9485
L267.182 61.9485
L267.182 60.998
L268.14 60.998
L268.207 59.097
L270.044 59.097
L270.044 58.1465
L270.237 58.1465
L270.237 57.196
L271.085 57.196
L271.085 56.2455
L276.585 56.2455
L276.585 55.295
L277.068 55.295
L277.068 54.3446
L277.344 54.3446
L277.344 53.3941
L287.321 53.3941
L287.321 52.4436
L289.867 52.4436
L289.867 51.4931
L290.54 51.4931
L290.54 50.5426
L292.046 50.5426
L292.046 49.5921
L294.175 49.5921
L294.175 48.6416
L294.517 48.6416
L294.517 47.6911
L295.389 47.6911
L295.389 46.7406
L299.21 46.7406
L299.21 45.7901
L299.491 45.7901
L299.491 44.8396
L299.992 44.8396
L299.992 43.8891
L300.663 43.8891
L300.663 42.9386
L301.164 42.9386
L301.164 41.9881
L301.582 41.9881
L301.582 41.0376
L301.999 41.0376
L301.999 40.0871
L303.384 40.0871
L303.384 39.1366
L304.694 39.1366
L304.694 38.1861
L304.955 38.1861
L304.955 37.2356
L305.825 37.2356
L305.825 36.2851
L307.59 36.2851
L307.59 35.3347
L307.956 35.3347
L307.956 34.3842
L310.443 34.3842
L310.443 33.4337
L311.205 33.4337
L311.265 31.5327
L311.529 31.5327
L311.529 30.5822
L312.778 30.5822
L312.778 29.6317
L315.154 29.6317
L315.154 28.6812
L317.328 28.6812
L317.328 27.7307
L318.422 27.7307
L318.422 26.7802
L318.625 26.7802
L318.625 25.8297
L334.497 25.8297
L334.497 24.8792
L336.776 24.8792
L336.776 23.9287
L339.635 23.9287
L339.635 22.9782
L341.13 22.9782
L341.13 22.0277
L342.531 22.0277
L342.531 21.0772
L344.151 21.0772
L344.203 19.1762
L346.559 19.1762
L346.559 18.2257
L346.761 18.2257
L346.761 17.2752
L347.33 17.2752
L347.33 16.3248
L349.64 16.3248
L349.64 15.3743
L350.112 15.3743
L350.174 13.4733
L351.245 13.4733
L351.245 12.5228
L354.441 12.5228
L354.441 11.5723
L355.053 11.5723
L355.053 10.6218
L355.053 10.6218
L453.6 10.6218
L453.6 10.6218" style="fill:none;stroke:#bf00bf;stroke-linecap:square;"/>
   </g>
   <g id="line2d_7">
    <path clip-path="url(#p99b4b0da67)" d="
M-1 341.394
L6.91587 341.394
L6.91587 340.444
L7.0865 340.444
L7.0865 326.186
L15.6342 326.186
L15.6342 325.236
L19.3463 325.236
L19.4125 323.335
L19.9997 323.335
L19.9997 322.384
L20.3565 322.384
L20.4551 320.483
L21.7137 320.483
L21.7807 318.582
L21.9452 318.582
L21.9452 317.632
L25.7549 317.632
L25.7549 316.681
L26.0697 316.681
L26.0697 315.731
L28.6376 315.731
L28.6376 314.78
L28.9095 314.78
L28.9713 311.929
L32.6867 311.929
L32.6867 310.978
L33.8817 310.978
L33.8817 310.028
L34.2398 310.028
L34.2398 309.077
L43.0074 309.077
L43.0074 308.127
L95.2016 308.127
L95.2016 307.176
L103.243 307.176
L103.243 306.226
L109.568 306.226
L109.568 305.275
L110.513 305.275
L110.513 304.325
L111.047 304.325
L111.047 303.374
L111.729 303.374
L111.729 302.424
L112.887 302.424
L112.887 301.473
L113.486 301.473
L113.486 300.523
L114.7 300.523
L114.7 299.572
L115.3 299.572
L115.3 298.622
L115.906 298.622
L115.906 297.671
L116.108 297.671
L116.108 296.721
L116.649 296.721
L116.649 295.77
L117.478 295.77
L117.478 294.82
L117.636 294.82
L117.636 293.869
L118.642 293.869
L118.642 292.919
L120.761 292.919
L120.869 291.018
L121.199 291.018
L121.199 290.067
L121.933 290.067
L121.933 289.117
L122.232 289.117
L122.232 288.166
L122.365 288.166
L122.365 287.216
L122.873 287.216
L122.879 284.364
L123.33 284.364
L123.33 283.414
L123.491 283.414
L123.491 282.463
L128.388 282.463
L128.48 280.562
L129.729 280.562
L129.729 279.612
L130.533 279.612
L130.533 278.661
L137.502 278.661
L137.502 277.711
L138.967 277.711
L138.967 276.76
L143.176 276.76
L143.176 275.81
L145.208 275.81
L145.208 274.859
L146.593 274.859
L146.593 273.909
L151.014 273.909
L151.014 272.958
L151.872 272.958
L151.872 272.008
L151.989 272.008
L151.989 271.057
L154.65 271.057
L154.65 270.107
L154.948 270.107
L154.948 269.156
L155.174 269.156
L155.174 268.206
L155.783 268.206
L155.783 267.255
L156.332 267.255
L156.332 266.305
L157.616 266.305
L157.616 265.354
L158.81 265.354
L158.81 264.404
L159.216 264.404
L159.216 263.453
L160.108 263.453
L160.111 261.552
L160.365 261.552
L160.365 260.602
L161.462 260.602
L161.462 259.651
L162.162 259.651
L162.25 257.75
L164.012 257.75
L164.012 256.8
L164.324 256.8
L164.324 255.85
L164.711 255.85
L164.74 253.949
L165.72 253.949
L165.72 252.998
L165.946 252.998
L165.946 252.048
L166.671 252.048
L166.744 250.147
L167.268 250.147
L167.268 249.196
L170.667 249.196
L170.667 248.246
L171.2 248.246
L171.2 247.295
L172.079 247.295
L172.079 246.345
L172.671 246.345
L172.671 245.394
L173.956 245.394
L173.956 244.444
L174.496 244.444
L174.496 243.493
L175.508 243.493
L175.508 242.543
L175.72 242.543
L175.72 241.592
L176.844 241.592
L176.844 240.642
L177.893 240.642
L177.893 239.691
L179.125 239.691
L179.125 238.741
L179.329 238.741
L179.337 236.84
L180.305 236.84
L180.305 235.889
L181.167 235.889
L181.247 233.988
L182.691 233.988
L182.691 233.038
L182.883 233.038
L182.883 232.087
L183.518 232.087
L183.518 231.137
L183.907 231.137
L183.907 230.186
L184.082 230.186
L184.082 229.236
L185.316 229.236
L185.316 228.285
L186.168 228.285
L186.168 227.335
L186.315 227.335
L186.315 226.384
L186.832 226.384
L186.832 225.434
L187.099 225.434
L187.099 224.483
L187.252 224.483
L187.252 223.533
L188.146 223.533
L188.146 222.582
L188.336 222.582
L188.336 221.632
L188.833 221.632
L188.833 220.681
L188.994 220.681
L188.994 219.731
L189.162 219.731
L189.162 218.78
L190.027 218.78
L190.027 217.83
L191.406 217.83
L191.406 216.879
L191.731 216.879
L191.731 215.929
L192.101 215.929
L192.138 214.028
L192.843 214.028
L192.843 213.077
L193.556 213.077
L193.556 212.127
L193.748 212.127
L193.748 211.176
L194.221 211.176
L194.238 209.275
L195.191 209.275
L195.191 208.325
L195.309 208.325
L195.373 206.424
L196.077 206.424
L196.106 204.523
L196.492 204.523
L196.492 203.572
L197.077 203.572
L197.077 202.622
L197.802 202.622
L197.822 200.721
L199.034 200.721
L199.034 199.77
L199.598 199.77
L199.598 198.82
L201.414 198.82
L201.414 184.562
L202.685 184.562
L202.685 183.612
L203.747 183.612
L203.747 182.661
L206.995 182.661
L206.995 181.711
L207.698 181.711
L207.707 179.81
L207.816 179.81
L207.816 178.859
L208.691 178.859
L208.691 177.909
L208.971 177.909
L208.971 176.958
L209.65 176.958
L209.65 176.008
L210.298 176.008
L210.298 175.057
L211.555 175.057
L211.555 174.107
L212.662 174.107
L212.662 173.156
L213.009 173.156
L213.009 171.255
L213.194 171.255
L213.286 169.354
L213.314 169.354
L213.422 166.503
L213.519 166.503
L213.519 165.552
L214.528 165.552
L214.528 164.602
L215.073 164.602
L215.079 162.701
L215.962 162.701
L215.967 160.8
L216.111 160.8
L216.111 159.85
L216.24 159.85
L216.24 158.899
L216.6 158.899
L216.6 157.949
L217.185 157.949
L217.22 156.048
L217.415 156.048
L217.415 155.097
L218.021 155.097
L218.021 154.147
L218.355 154.147
L218.355 152.246
L218.468 152.246
L218.468 151.295
L218.756 151.295
L218.835 149.394
L219.13 149.394
L219.13 148.444
L219.713 148.444
L219.734 145.592
L220.699 145.592
L220.778 142.741
L220.85 142.741
L220.901 140.84
L221.115 140.84
L221.115 139.889
L221.4 139.889
L221.4 138.939
L221.592 138.939
L221.592 137.988
L221.82 137.988
L221.82 137.038
L222.591 137.038
L222.606 135.137
L222.855 135.137
L222.855 134.186
L223.302 134.186
L223.302 133.236
L224.365 133.236
L224.443 131.335
L224.756 131.335
L224.858 128.483
L225.247 128.483
L225.247 127.533
L225.364 127.533
L225.429 123.731
L225.722 123.731
L225.775 121.83
L226.067 121.83
L226.067 120.879
L226.49 120.879
L226.49 119.929
L226.935 119.929
L226.935 118.978
L227.422 118.978
L227.429 117.077
L230.37 117.077
L230.37 116.127
L230.506 116.127
L230.506 115.176
L230.847 115.176
L230.847 114.226
L230.976 114.226
L230.976 113.275
L231.142 113.275
L231.142 112.325
L231.563 112.325
L231.563 111.374
L231.941 111.374
L231.941 110.424
L232.473 110.424
L232.527 108.523
L232.643 108.523
L232.643 107.572
L233.002 107.572
L233.002 106.622
L233.158 106.622
L233.158 105.671
L233.409 105.671
L233.409 104.721
L233.564 104.721
L233.564 103.77
L233.768 103.77
L233.768 102.82
L234.664 102.82
L234.664 101.869
L235.621 101.869
L235.712 96.1663
L236.389 96.1663
L236.389 95.2158
L236.621 95.2158
L236.621 94.2653
L237.225 94.2653
L237.272 92.3644
L237.562 92.3644
L237.614 89.5129
L238.076 89.5129
L238.084 87.6119
L238.252 87.6119
L238.308 85.7109
L238.619 85.7109
L238.619 84.7604
L238.734 84.7604
L238.786 82.8594
L239.079 82.8594
L239.079 81.9089
L239.425 81.9089
L239.442 80.0079
L239.842 80.0079
L239.842 79.0574
L240.266 79.0574
L240.266 78.1069
L240.633 78.1069
L240.664 76.2059
L241.093 76.2059
L241.195 73.3545
L241.407 73.3545
L241.407 72.404
L241.92 72.404
L241.92 71.4535
L242.354 71.4535
L242.354 70.503
L242.51 70.503
L242.51 69.5525
L242.922 69.5525
L242.922 68.602
L243.082 68.602
L243.082 67.6515
L243.506 67.6515
L243.506 66.701
L243.687 66.701
L243.687 65.7505
L243.958 65.7505
L243.958 64.8
L244.121 64.8
L244.228 61.9485
L244.41 61.9485
L244.515 60.0475
L244.535 60.0475
L244.535 59.097
L244.829 59.097
L244.9 57.196
L245.112 57.196
L245.112 56.2455
L245.555 56.2455
L245.562 54.3446
L245.921 54.3446
L245.921 53.3941
L246.067 53.3941
L246.106 51.4931
L246.677 51.4931
L246.677 50.5426
L247.781 50.5426
L247.781 49.5921
L249.241 49.5921
L249.254 47.6911
L249.642 47.6911
L249.642 46.7406
L250.362 46.7406
L250.362 45.7901
L251.269 45.7901
L251.269 44.8396
L252.108 44.8396
L252.108 43.8891
L253.605 43.8891
L253.605 42.9386
L253.759 42.9386
L253.759 41.9881
L254.113 41.9881
L254.113 41.0376
L254.289 41.0376
L254.289 40.0871
L255.724 40.0871
L255.724 39.1366
L255.864 39.1366
L255.864 38.1861
L255.975 38.1861
L255.975 37.2356
L257.951 37.2356
L257.951 36.2851
L259.413 36.2851
L259.413 35.3347
L260.696 35.3347
L260.696 34.3842
L262.539 34.3842
L262.539 33.4337
L264.061 33.4337
L264.061 32.4832
L264.94 32.4832
L264.94 31.5327
L265.289 31.5327
L265.289 30.5822
L265.888 30.5822
L265.888 29.6317
L267.332 29.6317
L267.332 28.6812
L268.14 28.6812
L268.14 27.7307
L268.673 27.7307
L268.673 26.7802
L268.817 26.7802
L268.817 25.8297
L270.237 25.8297
L270.237 24.8792
L271.085 24.8792
L271.14 22.9782
L276.585 22.9782
L276.585 22.0277
L277.068 22.0277
L277.07 20.1267
L277.344 20.1267
L277.344 19.1762
L280.946 19.1762
L280.946 18.2257
L283.583 18.2257
L283.583 17.2752
L286.46 17.2752
L286.46 16.3248
L288.883 16.3248
L288.883 15.3743
L289.463 15.3743
L289.463 14.4238
L291.893 14.4238
L291.893 13.4733
L299.635 13.4733
L299.635 12.5228
L299.992 12.5228
L299.992 11.5723
L305.77 11.5723
L305.77 10.6218
L305.77 10.6218
L453.6 10.6218
L453.6 10.6218" style="fill:none;stroke:#000000;stroke-linecap:square;"/>
   </g>
   <g id="line2d_8">
    <path clip-path="url(#p99b4b0da67)" d="
M-1 305.275
L7.0865 305.275
L7.0865 226.384
L19.4125 226.384
L19.4125 225.434
L26.9286 225.434
L26.9286 224.483
L32.2717 224.483
L32.3398 222.582
L32.9998 222.582
L32.9998 221.632
L33.3049 221.632
L33.3049 220.681
L38.8259 220.681
L38.8259 219.731
L39.6165 219.731
L39.6165 218.78
L41.7748 218.78
L41.7748 217.83
L44.7831 217.83
L44.7831 216.879
L48.2558 216.879
L48.2558 215.929
L49.9633 215.929
L49.9633 214.978
L52.3184 214.978
L52.3184 214.028
L54.7591 214.028
L54.7591 213.077
L59.9029 213.077
L59.9029 212.127
L60.1392 212.127
L60.1392 211.176
L65.4993 211.176
L65.4993 210.226
L66.3794 210.226
L66.3794 209.275
L67.5986 209.275
L67.5986 208.325
L68.2514 208.325
L68.2514 207.374
L73.4704 207.374
L73.4704 206.424
L82.1298 206.424
L82.1298 205.473
L85.7803 205.473
L85.7803 204.523
L90.0514 204.523
L90.0514 203.572
L91.4104 203.572
L91.4104 202.622
L97.5288 202.622
L97.5288 201.671
L98.0539 201.671
L98.0539 200.721
L99.0825 200.721
L99.0825 199.77
L103.158 199.77
L103.158 198.82
L106.673 198.82
L106.673 197.869
L106.791 197.869
L106.791 196.919
L111.966 196.919
L111.966 195.968
L120.495 195.968
L120.54 194.067
L122.496 194.067
L122.496 193.117
L129.699 193.117
L129.699 192.166
L130.119 192.166
L130.119 191.216
L130.735 191.216
L130.735 190.265
L133.248 190.265
L133.248 189.315
L133.799 189.315
L133.799 188.364
L138.662 188.364
L138.662 187.414
L139.447 187.414
L139.447 186.463
L142.631 186.463
L142.631 185.513
L145.666 185.513
L145.666 184.562
L145.778 184.562
L145.778 183.612
L146.326 183.612
L146.326 182.661
L146.507 182.661
L146.507 181.711
L148.982 181.711
L148.982 180.76
L151.661 180.76
L151.661 179.81
L151.989 179.81
L152.094 177.909
L155.15 177.909
L155.15 176.958
L158.2 176.958
L158.2 176.008
L161.825 176.008
L161.825 175.057
L165.83 175.057
L165.83 174.107
L167.163 174.107
L167.163 173.156
L167.86 173.156
L167.86 172.206
L170.892 172.206
L170.892 171.255
L174.942 171.255
L174.942 170.305
L175.333 170.305
L175.333 169.354
L175.536 169.354
L175.536 168.404
L176.631 168.404
L176.631 167.453
L182.429 167.453
L182.429 166.503
L182.691 166.503
L182.691 165.552
L186.789 165.552
L186.832 163.651
L188.507 163.651
L188.507 162.701
L190.608 162.701
L190.622 160.8
L191.116 160.8
L191.116 159.85
L191.455 159.85
L191.458 157.949
L193.703 157.949
L193.703 156.998
L195.495 156.998
L195.495 156.048
L196.259 156.048
L196.259 155.097
L196.492 155.097
L196.492 154.147
L201.414 154.147
L201.414 140.84
L201.742 140.84
L201.742 139.889
L202.043 139.889
L202.043 138.939
L203.395 138.939
L203.395 137.988
L205.203 137.988
L205.203 137.038
L205.901 137.038
L205.901 136.087
L207.127 136.087
L207.127 135.137
L207.696 135.137
L207.696 133.236
L207.808 133.236
L207.808 132.285
L208.689 132.285
L208.689 131.335
L211.9 131.335
L211.9 130.384
L212.012 130.384
L212.066 128.483
L212.186 128.483
L212.186 127.533
L212.36 127.533
L212.36 126.582
L212.662 126.582
L212.662 125.632
L213.008 125.632
L213.008 123.731
L213.176 123.731
L213.286 118.978
L213.314 118.978
L213.386 116.127
L214.016 116.127
L214.016 115.176
L214.467 115.176
L214.467 114.226
L214.882 114.226
L214.882 113.275
L215.026 113.275
L215.073 110.424
L215.923 110.424
L215.923 109.473
L216.11 109.473
L216.11 108.523
L216.998 108.523
L216.998 107.572
L217.153 107.572
L217.153 105.671
L217.465 105.671
L217.465 104.721
L217.579 104.721
L217.579 103.77
L217.846 103.77
L217.846 102.82
L218.354 102.82
L218.354 100.919
L218.546 100.919
L218.546 99.9683
L218.754 99.9683
L218.754 99.0178
L219.606 99.0178
L219.713 95.2158
L220.142 95.2158
L220.142 94.2653
L220.309 94.2653
L220.309 93.3149
L220.9 93.3149
L220.9 92.3644
L221.592 92.3644
L221.592 91.4139
L223.691 91.4139
L223.691 90.4634
L224.443 90.4634
L224.443 89.5129
L224.756 89.5129
L224.858 87.6119
L225.06 87.6119
L225.06 83.8099
L225.364 83.8099
L225.364 81.9089
L225.775 81.9089
L225.775 80.9584
L226.23 80.9584
L226.23 80.0079
L226.49 80.0079
L226.49 79.0574
L226.935 79.0574
L226.935 78.1069
L229.685 78.1069
L229.685 76.2059
L230.096 76.2059
L230.096 75.2554
L230.37 75.2554
L230.37 74.305
L231.142 74.305
L231.142 73.3545
L231.941 73.3545
L231.941 72.404
L232.473 72.404
L232.527 70.503
L232.643 70.503
L232.643 69.5525
L232.966 69.5525
L232.966 63.8495
L235.512 63.8495
L235.536 59.097
L235.712 59.097
L235.712 54.3446
L235.991 54.3446
L235.991 53.3941
L236.389 53.3941
L236.389 52.4436
L236.847 52.4436
L236.847 51.4931
L237.125 51.4931
L237.225 49.5921
L237.562 49.5921
L237.602 44.8396
L238.252 44.8396
L238.308 42.9386
L238.734 42.9386
L238.786 41.0376
L239.079 41.0376
L239.079 40.0871
L239.425 40.0871
L239.442 38.1861
L239.842 38.1861
L239.842 37.2356
L240.191 37.2356
L240.191 36.2851
L240.633 36.2851
L240.664 34.3842
L240.941 34.3842
L240.941 33.4337
L241.093 33.4337
L241.181 31.5327
L241.407 31.5327
L241.407 30.5822
L241.92 30.5822
L241.92 29.6317
L242.216 29.6317
L242.216 28.6812
L242.358 28.6812
L242.358 27.7307
L242.51 27.7307
L242.51 26.7802
L243.506 26.7802
L243.506 25.8297
L243.687 25.8297
L243.687 24.8792
L244.409 24.8792
L244.506 22.0277
L244.535 22.0277
L244.535 21.0772
L244.829 21.0772
L244.9 19.1762
L245.498 19.1762
L245.555 17.2752
L245.921 17.2752
L246.018 15.3743
L246.677 15.3743
L246.677 14.4238
L247.548 14.4238
L247.548 13.4733
L247.781 13.4733
L247.781 12.5228
L249.642 12.5228
L249.642 11.5723
L250.362 11.5723
L250.362 10.6218
L250.362 10.6218
L453.6 10.6218
L453.6 10.6218" style="fill:none;stroke:#00bfbf;stroke-linecap:square;"/>
   </g>
   <g id="matplotlib.axis_1">
    <g id="xtick_1"/>
    <g id="xtick_2">
     <g id="line2d_9">
      <path clip-path="url(#p99b4b0da67)" d="
M59.6175 352.8
L59.6175 7.2" style="fill:none;stroke:#000000;stroke-dasharray:1.000000,3.000000;stroke-dashoffset:0.0;stroke-width:0.5;"/>
     </g>
     <g id="line2d_10">
      <defs>
       <path d="
M0 0
L0 -4" id="m93b0483c22" style="stroke:#000000;stroke-width:0.5;"/>
      </defs>
      <g>
       <use style="stroke:#000000;stroke-width:0.5;" x="59.6174973142" xlink:href="#m93b0483c22" y="352.8"/>
      </g>
     </g>
     <g id="line2d_11">
      <defs>
       <path d="
M0 0
L0 4" id="m741efc42ff" style="stroke:#000000;stroke-width:0.5;"/>
      </defs>
      <g>
       <use style="stroke:#000000;stroke-width:0.5;" x="59.6174973142" xlink:href="#m741efc42ff" y="7.2"/>
      </g>
     </g>
     <g id="text_1">
      <!-- -6 -->
      <defs>
       <path d="
M33.0156 40.375
Q26.375 40.375 22.4844 35.8281
Q18.6094 31.2969 18.6094 23.3906
Q18.6094 15.5312 22.4844 10.9531
Q26.375 6.39062 33.0156 6.39062
Q39.6562 6.39062 43.5312 10.9531
Q47.4062 15.5312 47.4062 23.3906
Q47.4062 31.2969 43.5312 35.8281
Q39.6562 40.375 33.0156 40.375
M52.5938 71.2969
L52.5938 62.3125
Q48.875 64.0625 45.0938 64.9844
Q41.3125 65.9219 37.5938 65.9219
Q27.8281 65.9219 22.6719 59.3281
Q17.5312 52.7344 16.7969 39.4062
Q19.6719 43.6562 24.0156 45.9219
Q28.375 48.1875 33.5938 48.1875
Q44.5781 48.1875 50.9531 41.5156
Q57.3281 34.8594 57.3281 23.3906
Q57.3281 12.1562 50.6875 5.35938
Q44.0469 -1.42188 33.0156 -1.42188
Q20.3594 -1.42188 13.6719 8.26562
Q6.98438 17.9688 6.98438 36.375
Q6.98438 53.6562 15.1875 63.9375
Q23.3906 74.2188 37.2031 74.2188
Q40.9219 74.2188 44.7031 73.4844
Q48.4844 72.75 52.5938 71.2969" id="BitstreamVeraSans-Roman-36"/>
       <path d="
M4.89062 31.3906
L31.2031 31.3906
L31.2031 23.3906
L4.89062 23.3906
z
" id="BitstreamVeraSans-Roman-2d"/>
      </defs>
      <g transform="translate(50.7659348142 371.996875)scale(0.2 -0.2)">
       <use xlink:href="#BitstreamVeraSans-Roman-2d"/>
       <use x="36.083984375" xlink:href="#BitstreamVeraSans-Roman-36"/>
      </g>
     </g>
    </g>
    <g id="xtick_3">
     <g id="line2d_12">
      <path clip-path="url(#p99b4b0da67)" d="
M112.148 352.8
L112.148 7.2" style="fill:none;stroke:#000000;stroke-dasharray:1.000000,3.000000;stroke-dashoffset:0.0;stroke-width:0.5;"/>
     </g>
     <g id="line2d_13">
      <g>
       <use style="stroke:#000000;stroke-width:0.5;" x="112.148497672" xlink:href="#m93b0483c22" y="352.8"/>
      </g>
     </g>
     <g id="line2d_14">
      <g>
       <use style="stroke:#000000;stroke-width:0.5;" x="112.148497672" xlink:href="#m741efc42ff" y="7.2"/>
      </g>
     </g>
     <g id="text_2">
      <!-- -4 -->
      <defs>
       <path d="
M37.7969 64.3125
L12.8906 25.3906
L37.7969 25.3906
z

M35.2031 72.9062
L47.6094 72.9062
L47.6094 25.3906
L58.0156 25.3906
L58.0156 17.1875
L47.6094 17.1875
L47.6094 0
L37.7969 0
L37.7969 17.1875
L4.89062 17.1875
L4.89062 26.7031
z
" id="BitstreamVeraSans-Roman-34"/>
      </defs>
      <g transform="translate(103.228185172 371.996875)scale(0.2 -0.2)">
       <use xlink:href="#BitstreamVeraSans-Roman-2d"/>
       <use x="36.083984375" xlink:href="#BitstreamVeraSans-Roman-34"/>
      </g>
     </g>
    </g>
    <g id="xtick_4">
     <g id="line2d_15">
      <path clip-path="url(#p99b4b0da67)" d="
M164.679 352.8
L164.679 7.2" style="fill:none;stroke:#000000;stroke-dasharray:1.000000,3.000000;stroke-dashoffset:0.0;stroke-width:0.5;"/>
     </g>
     <g id="line2d_16">
      <g>
       <use style="stroke:#000000;stroke-width:0.5;" x="164.67949803" xlink:href="#m93b0483c22" y="352.8"/>
      </g>
     </g>
     <g id="line2d_17">
      <g>
       <use style="stroke:#000000;stroke-width:0.5;" x="164.67949803" xlink:href="#m741efc42ff" y="7.2"/>
      </g>
     </g>
     <g id="text_3">
      <!-- -2 -->
      <defs>
       <path d="
M19.1875 8.29688
L53.6094 8.29688
L53.6094 0
L7.32812 0
L7.32812 8.29688
Q12.9375 14.1094 22.625 23.8906
Q32.3281 33.6875 34.8125 36.5312
Q39.5469 41.8438 41.4219 45.5312
Q43.3125 49.2188 43.3125 52.7812
Q43.3125 58.5938 39.2344 62.25
Q35.1562 65.9219 28.6094 65.9219
Q23.9688 65.9219 18.8125 64.3125
Q13.6719 62.7031 7.8125 59.4219
L7.8125 69.3906
Q13.7656 71.7812 18.9375 73
Q24.125 74.2188 28.4219 74.2188
Q39.75 74.2188 46.4844 68.5469
Q53.2188 62.8906 53.2188 53.4219
Q53.2188 48.9219 51.5312 44.8906
Q49.8594 40.875 45.4062 35.4062
Q44.1875 33.9844 37.6406 27.2188
Q31.1094 20.4531 19.1875 8.29688" id="BitstreamVeraSans-Roman-32"/>
      </defs>
      <g transform="translate(156.19981053 371.996875)scale(0.2 -0.2)">
       <use xlink:href="#BitstreamVeraSans-Roman-2d"/>
       <use x="36.083984375" xlink:href="#BitstreamVeraSans-Roman-32"/>
      </g>
     </g>
    </g>
    <g id="xtick_5">
     <g id="line2d_18">
      <path clip-path="url(#p99b4b0da67)" d="
M217.21 352.8
L217.21 7.2" style="fill:none;stroke:#000000;stroke-dasharray:1.000000,3.000000;stroke-dashoffset:0.0;stroke-width:0.5;"/>
     </g>
     <g id="line2d_19">
      <g>
       <use style="stroke:#000000;stroke-width:0.5;" x="217.210498389" xlink:href="#m93b0483c22" y="352.8"/>
      </g>
     </g>
     <g id="line2d_20">
      <g>
       <use style="stroke:#000000;stroke-width:0.5;" x="217.210498389" xlink:href="#m741efc42ff" y="7.2"/>
      </g>
     </g>
     <g id="text_4">
      <!-- 0 -->
      <defs>
       <path d="
M31.7812 66.4062
Q24.1719 66.4062 20.3281 58.9062
Q16.5 51.4219 16.5 36.375
Q16.5 21.3906 20.3281 13.8906
Q24.1719 6.39062 31.7812 6.39062
Q39.4531 6.39062 43.2812 13.8906
Q47.125 21.3906 47.125 36.375
Q47.125 51.4219 43.2812 58.9062
Q39.4531 66.4062 31.7812 66.4062
M31.7812 74.2188
Q44.0469 74.2188 50.5156 64.5156
Q56.9844 54.8281 56.9844 36.375
Q56.9844 17.9688 50.5156 8.26562
Q44.0469 -1.42188 31.7812 -1.42188
Q19.5312 -1.42188 13.0625 8.26562
Q6.59375 17.9688 6.59375 36.375
Q6.59375 54.8281 13.0625 64.5156
Q19.5312 74.2188 31.7812 74.2188" id="BitstreamVeraSans-Roman-30"/>
      </defs>
      <g transform="translate(212.171435889 371.996875)scale(0.2 -0.2)">
       <use xlink:href="#BitstreamVeraSans-Roman-30"/>
      </g>
     </g>
    </g>
    <g id="xtick_6">
     <g id="line2d_21">
      <path clip-path="url(#p99b4b0da67)" d="
M269.741 352.8
L269.741 7.2" style="fill:none;stroke:#000000;stroke-dasharray:1.000000,3.000000;stroke-dashoffset:0.0;stroke-width:0.5;"/>
     </g>
     <g id="line2d_22">
      <g>
       <use style="stroke:#000000;stroke-width:0.5;" x="269.741498747" xlink:href="#m93b0483c22" y="352.8"/>
      </g>
     </g>
     <g id="line2d_23">
      <g>
       <use style="stroke:#000000;stroke-width:0.5;" x="269.741498747" xlink:href="#m741efc42ff" y="7.2"/>
      </g>
     </g>
     <g id="text_5">
      <!-- 2 -->
      <g transform="translate(265.113373747 371.996875)scale(0.2 -0.2)">
       <use xlink:href="#BitstreamVeraSans-Roman-32"/>
      </g>
     </g>
    </g>
    <g id="xtick_7">
     <g id="line2d_24">
      <path clip-path="url(#p99b4b0da67)" d="
M322.272 352.8
L322.272 7.2" style="fill:none;stroke:#000000;stroke-dasharray:1.000000,3.000000;stroke-dashoffset:0.0;stroke-width:0.5;"/>
     </g>
     <g id="line2d_25">
      <g>
       <use style="stroke:#000000;stroke-width:0.5;" x="322.272499105" xlink:href="#m93b0483c22" y="352.8"/>
      </g>
     </g>
     <g id="line2d_26">
      <g>
       <use style="stroke:#000000;stroke-width:0.5;" x="322.272499105" xlink:href="#m741efc42ff" y="7.2"/>
      </g>
     </g>
     <g id="text_6">
      <!-- 4 -->
      <g transform="translate(316.959999105 371.996875)scale(0.2 -0.2)">
       <use xlink:href="#BitstreamVeraSans-Roman-34"/>
      </g>
     </g>
    </g>
    <g id="xtick_8">
     <g id="line2d_27">
      <path clip-path="url(#p99b4b0da67)" d="
M374.803 352.8
L374.803 7.2" style="fill:none;stroke:#000000;stroke-dasharray:1.000000,3.000000;stroke-dashoffset:0.0;stroke-width:0.5;"/>
     </g>
     <g id="line2d_28">
      <g>
       <use style="stroke:#000000;stroke-width:0.5;" x="374.803499463" xlink:href="#m93b0483c22" y="352.8"/>
      </g>
     </g>
     <g id="line2d_29">
      <g>
       <use style="stroke:#000000;stroke-width:0.5;" x="374.803499463" xlink:href="#m741efc42ff" y="7.2"/>
      </g>
     </g>
     <g id="text_7">
      <!-- 6 -->
      <g transform="translate(369.769124463 371.996875)scale(0.2 -0.2)">
       <use xlink:href="#BitstreamVeraSans-Roman-36"/>
      </g>
     </g>
    </g>
    <g id="xtick_9">
     <g id="line2d_30">
      <path clip-path="url(#p99b4b0da67)" d="
M427.334 352.8
L427.334 7.2" style="fill:none;stroke:#000000;stroke-dasharray:1.000000,3.000000;stroke-dashoffset:0.0;stroke-width:0.5;"/>
     </g>
     <g id="line2d_31">
      <g>
       <use style="stroke:#000000;stroke-width:0.5;" x="427.334499821" xlink:href="#m93b0483c22" y="352.8"/>
      </g>
     </g>
     <g id="line2d_32">
      <g>
       <use style="stroke:#000000;stroke-width:0.5;" x="427.334499821" xlink:href="#m741efc42ff" y="7.2"/>
      </g>
     </g>
     <g id="text_8">
      <!-- 8 -->
      <defs>
       <path d="
M31.7812 34.625
Q24.75 34.625 20.7188 30.8594
Q16.7031 27.0938 16.7031 20.5156
Q16.7031 13.9219 20.7188 10.1562
Q24.75 6.39062 31.7812 6.39062
Q38.8125 6.39062 42.8594 10.1719
Q46.9219 13.9688 46.9219 20.5156
Q46.9219 27.0938 42.8906 30.8594
Q38.875 34.625 31.7812 34.625
M21.9219 38.8125
Q15.5781 40.375 12.0312 44.7188
Q8.5 49.0781 8.5 55.3281
Q8.5 64.0625 14.7188 69.1406
Q20.9531 74.2188 31.7812 74.2188
Q42.6719 74.2188 48.875 69.1406
Q55.0781 64.0625 55.0781 55.3281
Q55.0781 49.0781 51.5312 44.7188
Q48 40.375 41.7031 38.8125
Q48.8281 37.1562 52.7969 32.3125
Q56.7812 27.4844 56.7812 20.5156
Q56.7812 9.90625 50.3125 4.23438
Q43.8438 -1.42188 31.7812 -1.42188
Q19.7344 -1.42188 13.25 4.23438
Q6.78125 9.90625 6.78125 20.5156
Q6.78125 27.4844 10.7812 32.3125
Q14.7969 37.1562 21.9219 38.8125
M18.3125 54.3906
Q18.3125 48.7344 21.8438 45.5625
Q25.3906 42.3906 31.7812 42.3906
Q38.1406 42.3906 41.7188 45.5625
Q45.3125 48.7344 45.3125 54.3906
Q45.3125 60.0625 41.7188 63.2344
Q38.1406 66.4062 31.7812 66.4062
Q25.3906 66.4062 21.8438 63.2344
Q18.3125 60.0625 18.3125 54.3906" id="BitstreamVeraSans-Roman-38"/>
      </defs>
      <g transform="translate(422.334499821 371.996875)scale(0.2 -0.2)">
       <use xlink:href="#BitstreamVeraSans-Roman-38"/>
      </g>
     </g>
    </g>
    <g id="xtick_10"/>
    <g id="xtick_11">
     <g id="line2d_33">
      <defs>
       <path d="
M0 0
L0 -2" id="m177f7580d0" style="stroke:#000000;stroke-width:0.5;"/>
      </defs>
      <g>
       <use style="stroke:#000000;stroke-width:0.5;" x="59.6174973142" xlink:href="#m177f7580d0" y="352.8"/>
      </g>
     </g>
     <g id="line2d_34">
      <defs>
       <path d="
M0 0
L0 2" id="m5284c7e2a0" style="stroke:#000000;stroke-width:0.5;"/>
      </defs>
      <g>
       <use style="stroke:#000000;stroke-width:0.5;" x="59.6174973142" xlink:href="#m5284c7e2a0" y="7.2"/>
      </g>
     </g>
    </g>
    <g id="xtick_12">
     <g id="line2d_35">
      <g>
       <use style="stroke:#000000;stroke-width:0.5;" x="112.148497672" xlink:href="#m177f7580d0" y="352.8"/>
      </g>
     </g>
     <g id="line2d_36">
      <g>
       <use style="stroke:#000000;stroke-width:0.5;" x="112.148497672" xlink:href="#m5284c7e2a0" y="7.2"/>
      </g>
     </g>
    </g>
    <g id="xtick_13">
     <g id="line2d_37">
      <g>
       <use style="stroke:#000000;stroke-width:0.5;" x="164.67949803" xlink:href="#m177f7580d0" y="352.8"/>
      </g>
     </g>
     <g id="line2d_38">
      <g>
       <use style="stroke:#000000;stroke-width:0.5;" x="164.67949803" xlink:href="#m5284c7e2a0" y="7.2"/>
      </g>
     </g>
    </g>
    <g id="xtick_14">
     <g id="line2d_39">
      <g>
       <use style="stroke:#000000;stroke-width:0.5;" x="217.210498389" xlink:href="#m177f7580d0" y="352.8"/>
      </g>
     </g>
     <g id="line2d_40">
      <g>
       <use style="stroke:#000000;stroke-width:0.5;" x="217.210498389" xlink:href="#m5284c7e2a0" y="7.2"/>
      </g>
     </g>
    </g>
    <g id="xtick_15">
     <g id="line2d_41">
      <g>
       <use style="stroke:#000000;stroke-width:0.5;" x="269.741498747" xlink:href="#m177f7580d0" y="352.8"/>
      </g>
     </g>
     <g id="line2d_42">
      <g>
       <use style="stroke:#000000;stroke-width:0.5;" x="269.741498747" xlink:href="#m5284c7e2a0" y="7.2"/>
      </g>
     </g>
    </g>
    <g id="xtick_16">
     <g id="line2d_43">
      <g>
       <use style="stroke:#000000;stroke-width:0.5;" x="322.272499105" xlink:href="#m177f7580d0" y="352.8"/>
      </g>
     </g>
     <g id="line2d_44">
      <g>
       <use style="stroke:#000000;stroke-width:0.5;" x="322.272499105" xlink:href="#m5284c7e2a0" y="7.2"/>
      </g>
     </g>
    </g>
    <g id="xtick_17">
     <g id="line2d_45">
      <g>
       <use style="stroke:#000000;stroke-width:0.5;" x="374.803499463" xlink:href="#m177f7580d0" y="352.8"/>
      </g>
     </g>
     <g id="line2d_46">
      <g>
       <use style="stroke:#000000;stroke-width:0.5;" x="374.803499463" xlink:href="#m5284c7e2a0" y="7.2"/>
      </g>
     </g>
    </g>
    <g id="xtick_18">
     <g id="line2d_47">
      <g>
       <use style="stroke:#000000;stroke-width:0.5;" x="427.334499821" xlink:href="#m177f7580d0" y="352.8"/>
      </g>
     </g>
     <g id="line2d_48">
      <g>
       <use style="stroke:#000000;stroke-width:0.5;" x="427.334499821" xlink:href="#m5284c7e2a0" y="7.2"/>
      </g>
     </g>
    </g>
    <g id="text_9">
     <!-- log10 of Df -->
     <defs>
      <path id="BitstreamVeraSans-Roman-20"/>
      <path d="
M12.4062 8.29688
L28.5156 8.29688
L28.5156 63.9219
L10.9844 60.4062
L10.9844 69.3906
L28.4219 72.9062
L38.2812 72.9062
L38.2812 8.29688
L54.3906 8.29688
L54.3906 0
L12.4062 0
z
" id="BitstreamVeraSans-Roman-31"/>
      <path d="
M30.6094 48.3906
Q23.3906 48.3906 19.1875 42.75
Q14.9844 37.1094 14.9844 27.2969
Q14.9844 17.4844 19.1562 11.8438
Q23.3438 6.20312 30.6094 6.20312
Q37.7969 6.20312 41.9844 11.8594
Q46.1875 17.5312 46.1875 27.2969
Q46.1875 37.0156 41.9844 42.7031
Q37.7969 48.3906 30.6094 48.3906
M30.6094 56
Q42.3281 56 49.0156 48.375
Q55.7188 40.7656 55.7188 27.2969
Q55.7188 13.875 49.0156 6.21875
Q42.3281 -1.42188 30.6094 -1.42188
Q18.8438 -1.42188 12.1719 6.21875
Q5.51562 13.875 5.51562 27.2969
Q5.51562 40.7656 12.1719 48.375
Q18.8438 56 30.6094 56" id="BitstreamVeraSans-Roman-6f"/>
      <path d="
M9.42188 75.9844
L18.4062 75.9844
L18.4062 0
L9.42188 0
z
" id="BitstreamVeraSans-Roman-6c"/>
      <path d="
M19.6719 64.7969
L19.6719 8.10938
L31.5938 8.10938
Q46.6875 8.10938 53.6875 14.9375
Q60.6875 21.7812 60.6875 36.5312
Q60.6875 51.1719 53.6875 57.9844
Q46.6875 64.7969 31.5938 64.7969
z

M9.8125 72.9062
L30.0781 72.9062
Q51.2656 72.9062 61.1719 64.0938
Q71.0938 55.2812 71.0938 36.5312
Q71.0938 17.6719 61.125 8.82812
Q51.1719 0 30.0781 0
L9.8125 0
z
" id="BitstreamVeraSans-Roman-44"/>
      <path d="
M45.4062 27.9844
Q45.4062 37.75 41.375 43.1094
Q37.3594 48.4844 30.0781 48.4844
Q22.8594 48.4844 18.8281 43.1094
Q14.7969 37.75 14.7969 27.9844
Q14.7969 18.2656 18.8281 12.8906
Q22.8594 7.51562 30.0781 7.51562
Q37.3594 7.51562 41.375 12.8906
Q45.4062 18.2656 45.4062 27.9844
M54.3906 6.78125
Q54.3906 -7.17188 48.1875 -13.9844
Q42 -20.7969 29.2031 -20.7969
Q24.4688 -20.7969 20.2656 -20.0938
Q16.0625 -19.3906 12.1094 -17.9219
L12.1094 -9.1875
Q16.0625 -11.3281 19.9219 -12.3438
Q23.7812 -13.375 27.7812 -13.375
Q36.625 -13.375 41.0156 -8.76562
Q45.4062 -4.15625 45.4062 5.17188
L45.4062 9.625
Q42.625 4.78125 38.2812 2.39062
Q33.9375 0 27.875 0
Q17.8281 0 11.6719 7.65625
Q5.51562 15.3281 5.51562 27.9844
Q5.51562 40.6719 11.6719 48.3281
Q17.8281 56 27.875 56
Q33.9375 56 38.2812 53.6094
Q42.625 51.2188 45.4062 46.3906
L45.4062 54.6875
L54.3906 54.6875
z
" id="BitstreamVeraSans-Roman-67"/>
      <path d="
M37.1094 75.9844
L37.1094 68.5
L28.5156 68.5
Q23.6875 68.5 21.7969 66.5469
Q19.9219 64.5938 19.9219 59.5156
L19.9219 54.6875
L34.7188 54.6875
L34.7188 47.7031
L19.9219 47.7031
L19.9219 0
L10.8906 0
L10.8906 47.7031
L2.29688 47.7031
L2.29688 54.6875
L10.8906 54.6875
L10.8906 58.5
Q10.8906 67.625 15.1406 71.7969
Q19.3906 75.9844 28.6094 75.9844
z
" id="BitstreamVeraSans-Roman-66"/>
     </defs>
     <g transform="translate(175.0234375 396.353125)scale(0.2 -0.2)">
      <use xlink:href="#BitstreamVeraSans-Roman-6c"/>
      <use x="27.783203125" xlink:href="#BitstreamVeraSans-Roman-6f"/>
      <use x="88.96484375" xlink:href="#BitstreamVeraSans-Roman-67"/>
      <use x="152.44140625" xlink:href="#BitstreamVeraSans-Roman-31"/>
      <use x="216.064453125" xlink:href="#BitstreamVeraSans-Roman-30"/>
      <use x="279.6875" xlink:href="#BitstreamVeraSans-Roman-20"/>
      <use x="311.474609375" xlink:href="#BitstreamVeraSans-Roman-6f"/>
      <use x="372.65625" xlink:href="#BitstreamVeraSans-Roman-66"/>
      <use x="407.861328125" xlink:href="#BitstreamVeraSans-Roman-20"/>
      <use x="439.6484375" xlink:href="#BitstreamVeraSans-Roman-44"/>
      <use x="516.650390625" xlink:href="#BitstreamVeraSans-Roman-66"/>
     </g>
    </g>
   </g>
   <g id="matplotlib.axis_2">
    <g id="ytick_1">
     <g id="line2d_49">
      <path clip-path="url(#p99b4b0da67)" d="
M7.2 352.8
L453.6 352.8" style="fill:none;stroke:#000000;stroke-dasharray:1.000000,3.000000;stroke-dashoffset:0.0;stroke-width:0.5;"/>
     </g>
     <g id="line2d_50">
      <defs>
       <path d="
M0 0
L4 0" id="m728421d6d4" style="stroke:#000000;stroke-width:0.5;"/>
      </defs>
      <g>
       <use style="stroke:#000000;stroke-width:0.5;" x="7.2" xlink:href="#m728421d6d4" y="352.8"/>
      </g>
     </g>
     <g id="line2d_51">
      <defs>
       <path d="
M0 0
L-4 0" id="mcb0005524f" style="stroke:#000000;stroke-width:0.5;"/>
      </defs>
      <g>
       <use style="stroke:#000000;stroke-width:0.5;" x="453.6" xlink:href="#mcb0005524f" y="352.8"/>
      </g>
     </g>
    </g>
    <g id="ytick_2">
     <g id="line2d_52">
      <path clip-path="url(#p99b4b0da67)" d="
M7.2 284.364
L453.6 284.364" style="fill:none;stroke:#000000;stroke-dasharray:1.000000,3.000000;stroke-dashoffset:0.0;stroke-width:0.5;"/>
     </g>
     <g id="line2d_53">
      <g>
       <use style="stroke:#000000;stroke-width:0.5;" x="7.2" xlink:href="#m728421d6d4" y="284.364356436"/>
      </g>
     </g>
     <g id="line2d_54">
      <g>
       <use style="stroke:#000000;stroke-width:0.5;" x="453.6" xlink:href="#mcb0005524f" y="284.364356436"/>
      </g>
     </g>
    </g>
    <g id="ytick_3">
     <g id="line2d_55">
      <path clip-path="url(#p99b4b0da67)" d="
M7.2 215.929
L453.6 215.929" style="fill:none;stroke:#000000;stroke-dasharray:1.000000,3.000000;stroke-dashoffset:0.0;stroke-width:0.5;"/>
     </g>
     <g id="line2d_56">
      <g>
       <use style="stroke:#000000;stroke-width:0.5;" x="7.2" xlink:href="#m728421d6d4" y="215.928712871"/>
      </g>
     </g>
     <g id="line2d_57">
      <g>
       <use style="stroke:#000000;stroke-width:0.5;" x="453.6" xlink:href="#mcb0005524f" y="215.928712871"/>
      </g>
     </g>
    </g>
    <g id="ytick_4">
     <g id="line2d_58">
      <path clip-path="url(#p99b4b0da67)" d="
M7.2 147.493
L453.6 147.493" style="fill:none;stroke:#000000;stroke-dasharray:1.000000,3.000000;stroke-dashoffset:0.0;stroke-width:0.5;"/>
     </g>
     <g id="line2d_59">
      <g>
       <use style="stroke:#000000;stroke-width:0.5;" x="7.2" xlink:href="#m728421d6d4" y="147.493069307"/>
      </g>
     </g>
     <g id="line2d_60">
      <g>
       <use style="stroke:#000000;stroke-width:0.5;" x="453.6" xlink:href="#mcb0005524f" y="147.493069307"/>
      </g>
     </g>
    </g>
    <g id="ytick_5">
     <g id="line2d_61">
      <path clip-path="url(#p99b4b0da67)" d="
M7.2 79.0574
L453.6 79.0574" style="fill:none;stroke:#000000;stroke-dasharray:1.000000,3.000000;stroke-dashoffset:0.0;stroke-width:0.5;"/>
     </g>
     <g id="line2d_62">
      <g>
       <use style="stroke:#000000;stroke-width:0.5;" x="7.2" xlink:href="#m728421d6d4" y="79.0574257426"/>
      </g>
     </g>
     <g id="line2d_63">
      <g>
       <use style="stroke:#000000;stroke-width:0.5;" x="453.6" xlink:href="#mcb0005524f" y="79.0574257426"/>
      </g>
     </g>
    </g>
    <g id="ytick_6">
     <g id="line2d_64">
      <path clip-path="url(#p99b4b0da67)" d="
M7.2 10.6218
L453.6 10.6218" style="fill:none;stroke:#000000;stroke-dasharray:1.000000,3.000000;stroke-dashoffset:0.0;stroke-width:0.5;"/>
     </g>
     <g id="line2d_65">
      <g>
       <use style="stroke:#000000;stroke-width:0.5;" x="7.2" xlink:href="#m728421d6d4" y="10.6217821782"/>
      </g>
     </g>
     <g id="line2d_66">
      <g>
       <use style="stroke:#000000;stroke-width:0.5;" x="453.6" xlink:href="#mcb0005524f" y="10.6217821782"/>
      </g>
     </g>
    </g>
   </g>
   <g id="patch_3">
    <path d="
M7.2 7.2
L453.6 7.2" style="fill:none;stroke:#000000;"/>
   </g>
   <g id="patch_4">
    <path d="
M453.6 352.8
L453.6 7.2" style="fill:none;stroke:#000000;"/>
   </g>
   <g id="patch_5">
    <path d="
M7.2 352.8
L453.6 352.8" style="fill:none;stroke:#000000;"/>
   </g>
   <g id="patch_6">
    <path d="
M7.2 352.8
L7.2 7.2" style="fill:none;stroke:#000000;"/>
   </g>
   <g id="text_10">
    <!-- {f1-f24}, 5-D -->
    <defs>
     <path d="
M12.5 -9.28125
L15.9219 -9.28125
Q22.75 -9.28125 24.8281 -7.17188
Q26.9062 -5.07812 26.9062 1.90625
L26.9062 14.0156
Q26.9062 21.625 29.0938 25.0938
Q31.2969 28.5625 36.7188 29.8906
Q31.2969 31.1094 29.0938 34.5625
Q26.9062 38.0312 26.9062 45.7031
L26.9062 57.8125
Q26.9062 64.75 24.8281 66.875
Q22.75 69 15.9219 69
L12.5 69
L12.5 75.9844
L15.5781 75.9844
Q27.7344 75.9844 31.8125 72.3906
Q35.8906 68.7969 35.8906 58.0156
L35.8906 46.2969
Q35.8906 39.0156 38.5156 36.2031
Q41.1562 33.4062 48.0938 33.4062
L51.125 33.4062
L51.125 26.4219
L48.0938 26.4219
Q41.1562 26.4219 38.5156 23.5781
Q35.8906 20.75 35.8906 13.375
L35.8906 1.70312
Q35.8906 -9.07812 31.8125 -12.6875
Q27.7344 -16.3125 15.5781 -16.3125
L12.5 -16.3125
z
" id="BitstreamVeraSans-Roman-7d"/>
     <path d="
M51.125 -9.28125
L51.125 -16.3125
L48.0938 -16.3125
Q35.9375 -16.3125 31.8125 -12.6875
Q27.6875 -9.07812 27.6875 1.70312
L27.6875 13.375
Q27.6875 20.75 25.0469 23.5781
Q22.4062 26.4219 15.4844 26.4219
L12.5 26.4219
L12.5 33.4062
L15.4844 33.4062
Q22.4688 33.4062 25.0781 36.2031
Q27.6875 39.0156 27.6875 46.2969
L27.6875 58.0156
Q27.6875 68.7969 31.8125 72.3906
Q35.9375 75.9844 48.0938 75.9844
L51.125 75.9844
L51.125 69
L47.7969 69
Q40.9219 69 38.8125 66.8438
Q36.7188 64.7031 36.7188 57.8125
L36.7188 45.7031
Q36.7188 38.0312 34.5 34.5625
Q32.2812 31.1094 26.9062 29.8906
Q32.3281 28.5625 34.5156 25.0938
Q36.7188 21.625 36.7188 14.0156
L36.7188 1.90625
Q36.7188 -4.98438 38.8125 -7.125
Q40.9219 -9.28125 47.7969 -9.28125
z
" id="BitstreamVeraSans-Roman-7b"/>
     <path d="
M11.7188 12.4062
L22.0156 12.4062
L22.0156 4
L14.0156 -11.625
L7.71875 -11.625
L11.7188 4
z
" id="BitstreamVeraSans-Roman-2c"/>
     <path d="
M10.7969 72.9062
L49.5156 72.9062
L49.5156 64.5938
L19.8281 64.5938
L19.8281 46.7344
Q21.9688 47.4688 24.1094 47.8281
Q26.2656 48.1875 28.4219 48.1875
Q40.625 48.1875 47.75 41.5
Q54.8906 34.8125 54.8906 23.3906
Q54.8906 11.625 47.5625 5.09375
Q40.2344 -1.42188 26.9062 -1.42188
Q22.3125 -1.42188 17.5469 -0.640625
Q12.7969 0.140625 7.71875 1.70312
L7.71875 11.625
Q12.1094 9.23438 16.7969 8.0625
Q21.4844 6.89062 26.7031 6.89062
Q35.1562 6.89062 40.0781 11.3281
Q45.0156 15.7656 45.0156 23.3906
Q45.0156 31 40.0781 35.4375
Q35.1562 39.8906 26.7031 39.8906
Q22.75 39.8906 18.8125 39.0156
Q14.8906 38.1406 10.7969 36.2812
z
" id="BitstreamVeraSans-Roman-35"/>
    </defs>
    <g transform="translate(312.87825 345.888)scale(0.2 -0.2)">
     <use xlink:href="#BitstreamVeraSans-Roman-7b"/>
     <use x="63.623046875" xlink:href="#BitstreamVeraSans-Roman-66"/>
     <use x="98.828125" xlink:href="#BitstreamVeraSans-Roman-31"/>
     <use x="162.451171875" xlink:href="#BitstreamVeraSans-Roman-2d"/>
     <use x="198.53515625" xlink:href="#BitstreamVeraSans-Roman-66"/>
     <use x="233.740234375" xlink:href="#BitstreamVeraSans-Roman-32"/>
     <use x="297.36328125" xlink:href="#BitstreamVeraSans-Roman-34"/>
     <use x="360.986328125" xlink:href="#BitstreamVeraSans-Roman-7d"/>
     <use x="424.609375" xlink:href="#BitstreamVeraSans-Roman-2c"/>
     <use x="456.396484375" xlink:href="#BitstreamVeraSans-Roman-20"/>
     <use x="488.18359375" xlink:href="#BitstreamVeraSans-Roman-35"/>
     <use x="551.806640625" xlink:href="#BitstreamVeraSans-Roman-2d"/>
     <use x="587.890625" xlink:href="#BitstreamVeraSans-Roman-44"/>
    </g>
   </g>
   <g id="text_11">
    <!-- 0.0.0 -->
    <defs>
     <path d="
M10.6875 12.4062
L21 12.4062
L21 0
L10.6875 0
z
" id="BitstreamVeraSans-Roman-2e"/>
    </defs>
    <g style="fill:#808080;" transform="translate(218.33984375 347.2643125)scale(0.1 -0.1)">
     <use xlink:href="#BitstreamVeraSans-Roman-30"/>
     <use x="63.623046875" xlink:href="#BitstreamVeraSans-Roman-2e"/>
     <use x="95.41015625" xlink:href="#BitstreamVeraSans-Roman-30"/>
     <use x="159.033203125" xlink:href="#BitstreamVeraSans-Roman-2e"/>
     <use x="190.8203125" xlink:href="#BitstreamVeraSans-Roman-30"/>
    </g>
   </g>
  </g>
 </g>
 <defs>
  <clipPath id="p99b4b0da67">
   <rect height="345.6" width="446.4" x="7.2" y="7.2"/>
  </clipPath>
 </defs>
</svg>
