<?xml version="1.0" encoding="utf-8" standalone="no"?>
<!DOCTYPE svg PUBLIC "-//W3C//DTD SVG 1.1//EN"
  "http://www.w3.org/Graphics/SVG/1.1/DTD/svg11.dtd">
<!-- Created with matplotlib (http://matplotlib.org/) -->
<svg height="407pt" version="1.1" viewBox="0 0 460 407" width="460pt" xmlns="http://www.w3.org/2000/svg" xmlns:xlink="http://www.w3.org/1999/xlink">
 <defs>
  <style type="text/css">
*{stroke-linecap:butt;stroke-linejoin:round;}
  </style>
 </defs>
 <g id="figure_1">
  <g id="patch_1">
   <path d="
M0 407.712
L460.8 407.712
L460.8 0
L0 0
z
" style="fill:#ffffff;"/>
  </g>
  <g id="axes_1">
   <g id="patch_2">
    <path d="
M7.2 352.8
L453.6 352.8
L453.6 7.2
L7.2 7.2
z
" style="fill:#ffffff;"/>
   </g>
   <g id="line2d_1">
    <path clip-path="url(#p99b4b0da67)" d="
M-1 183.992
L0.449959 183.992
L0.449959 179.43
L4.61296 179.43
L4.61296 174.867
L14.3727 174.867
L14.4637 165.743
L20.7392 165.743
L20.7392 161.18
L22.6403 161.18
L22.6403 156.618
L23.1569 156.618
L23.1569 152.055
L32.0661 152.055
L32.0661 147.493
L35.9965 147.493
L35.9965 142.931
L38.082 142.931
L38.082 138.368
L39.9474 138.368
L39.9474 133.806
L40.4484 133.806
L40.4484 129.244
L42.2923 129.244
L42.2923 124.681
L45.6696 124.681
L45.6696 120.119
L46.6666 120.119
L46.6666 115.556
L46.9683 115.556
L46.9683 110.994
L69.0019 110.994
L69.0019 106.432
L87.4345 106.432
L87.4345 101.869
L99.6406 101.869
L99.6406 97.3069
L108.2 97.3069
L108.2 92.7446
L116.596 92.7446
L116.596 88.1822
L145.666 88.1822
L145.666 83.6198
L176.343 83.6198
L176.343 79.0574
L189.328 79.0574
L189.328 74.495
L191.458 74.495
L191.458 69.9327
L196.259 69.9327
L196.259 65.3703
L203.395 65.3703
L203.395 60.8079
L205.901 60.8079
L205.901 56.2455
L207.808 56.2455
L207.808 51.6832
L211.9 51.6832
L211.9 47.1208
L212.012 47.1208
L212.066 37.996
L212.186 37.996
L212.186 33.4337
L213.255 33.4337
L213.255 28.8713
L216.998 28.8713
L216.998 24.3089
L223.691 24.3089
L223.691 19.7465
L226.23 19.7465
L226.23 15.1842
L237.602 15.1842
L237.602 10.6218
L237.602 10.6218
L453.6 10.6218
L453.6 10.6218" style="fill:none;stroke:#ff0000;stroke-linecap:square;stroke-width:3.0;"/>
   </g>
   <g id="line2d_2">
    <path clip-path="url(#p99b4b0da67)" d="
M214.023 352.8
L214.023 348.238
L231.646 348.238
L231.646 343.675
L231.981 343.675
L231.981 339.113
L236.926 339.113
L236.926 334.55
L241.682 334.55
L241.682 329.988
L243.09 329.988
L243.09 325.426
L244.669 325.426
L244.669 320.863
L252.31 320.863
L252.31 316.301
L252.749 316.301
L252.749 311.739
L254.416 311.739
L254.416 307.176
L254.676 307.176
L254.676 302.614
L257.428 302.614
L257.428 298.051
L261.031 298.051
L261.031 293.489
L267.648 293.489
L267.648 288.927
L270.045 288.927
L270.045 284.364
L285.822 284.364
L285.822 279.802
L289.177 279.802
L289.177 275.24
L290.14 275.24
L290.14 270.677
L291.159 270.677
L291.159 266.115
L291.87 266.115
L291.87 261.552
L293.24 261.552
L293.306 252.428
L293.814 252.428
L293.814 247.865
L294.112 247.865
L294.112 243.303
L295.214 243.303
L295.214 238.741
L296.265 238.741
L296.265 234.178
L296.543 234.178
L296.543 229.616
L297.986 229.616
L297.986 225.053
L298.402 225.053
L298.402 220.491
L299.148 220.491
L299.148 215.929
L301.084 215.929
L301.084 211.366
L303.415 211.366
L303.415 206.804
L321.288 206.804
L321.288 202.242
L342.482 202.242
L342.482 197.679
L348.263 197.679
L348.263 193.117
L348.434 193.117
L348.434 188.554
L348.98 188.554
L348.98 183.992
L361.497 183.992
L361.497 179.43
L374.334 179.43
L374.334 174.867
L378.497 174.867
L378.497 170.305
L380.547 170.305
L380.547 165.743
L381.092 165.743
L381.154 156.618
L382.727 156.618
L382.727 152.055
L384.465 152.055
L384.465 147.493
L385.103 147.493
L385.103 142.931
L387.099 142.931
L387.099 138.368
L388.205 138.368
L388.205 133.806
L388.707 133.806
L388.707 129.244
L395.082 129.244
L395.082 124.681
L395.312 124.681
L395.312 120.119
L395.585 120.119
L395.585 115.556
L398.14 115.556
L398.14 110.994
L399.09 110.994
L399.09 106.432
L401.176 106.432
L401.176 101.869
L402.587 101.869
L402.587 97.3069
L403.154 97.3069
L403.154 92.7446
L403.816 92.7446
L403.816 88.1822
L404.038 88.1822
L404.038 83.6198
L404.582 83.6198
L404.582 79.0574
L406.019 79.0574
L406.019 74.495
L407.139 74.495
L407.139 69.9327
L407.838 69.9327
L407.838 65.3703
L408.629 65.3703
L408.629 60.8079
L411.322 60.8079
L411.346 51.6832
L414.445 51.6832
L414.545 42.5584
L414.924 42.5584
L414.924 37.996
L417.094 37.996
L417.094 33.4337
L417.701 33.4337
L417.701 28.8713
L421.474 28.8713
L421.474 24.3089
L424.223 24.3089
L424.223 19.7465
L432.131 19.7465
L432.131 15.1842
L441.332 15.1842
L441.332 10.6218
L441.332 10.6218
L453.6 10.6218
L453.6 10.6218" style="fill:none;stroke:#00bfbf;stroke-linecap:square;"/>
   </g>
   <g id="line2d_3">
    <path clip-path="url(#p99b4b0da67)" d="
M214.023 352.8
L214.023 348.238
L231.646 348.238
L231.725 339.113
L232.39 339.113
L232.39 334.55
L236.926 334.55
L236.926 329.988
L238.829 329.988
L238.829 325.426
L239.294 325.426
L239.294 320.863
L243.019 320.863
L243.019 316.301
L244.532 316.301
L244.532 311.739
L244.669 311.739
L244.669 307.176
L247.062 307.176
L247.062 302.614
L254.102 302.614
L254.102 298.051
L254.416 298.051
L254.416 293.489
L257.991 293.489
L257.991 288.927
L262.763 288.927
L262.763 284.364
L276.045 284.364
L276.045 279.802
L285.822 279.802
L285.822 275.24
L287.554 275.24
L287.554 270.677
L287.849 270.677
L287.849 266.115
L288.815 266.115
L288.815 261.552
L289.552 261.552
L289.552 256.99
L289.815 256.99
L289.815 252.428
L290.14 252.428
L290.14 247.865
L291.87 247.865
L291.87 243.303
L293.306 243.303
L293.306 238.741
L293.681 238.741
L293.681 234.178
L293.814 234.178
L293.814 229.616
L294.42 229.616
L294.42 225.053
L296.265 225.053
L296.348 215.929
L298.402 215.929
L298.457 206.804
L299.802 206.804
L299.802 202.242
L308.05 202.242
L308.05 197.679
L321.288 197.679
L321.288 193.117
L334.869 193.117
L334.869 188.554
L342.482 188.554
L342.482 183.992
L345.503 183.992
L345.503 179.43
L345.798 179.43
L345.857 170.305
L348.067 170.305
L348.067 165.743
L348.263 165.743
L348.263 161.18
L348.434 161.18
L348.434 156.618
L350.001 156.618
L350.001 152.055
L357.437 152.055
L357.437 147.493
L359.781 147.493
L359.781 142.931
L361.497 142.931
L361.497 138.368
L370.412 138.368
L370.412 133.806
L370.681 133.806
L370.721 124.681
L372.969 124.681
L372.969 120.119
L383.453 120.119
L383.453 115.556
L383.621 115.556
L383.621 110.994
L384.607 110.994
L384.607 106.432
L388.15 106.432
L388.15 101.869
L389.253 101.869
L389.253 97.3069
L393.115 97.3069
L393.115 92.7446
L395.082 92.7446
L395.082 88.1822
L395.585 88.1822
L395.585 83.6198
L397.735 83.6198
L397.735 79.0574
L400.507 79.0574
L400.507 74.495
L401.176 74.495
L401.176 69.9327
L403.146 69.9327
L403.146 65.3703
L404.411 65.3703
L404.411 60.8079
L406.019 60.8079
L406.019 56.2455
L408.629 56.2455
L408.629 51.6832
L409.284 51.6832
L409.284 47.1208
L409.898 47.1208
L409.898 42.5584
L411.322 42.5584
L411.322 37.996
L411.661 37.996
L411.661 33.4337
L413.402 33.4337
L413.402 28.8713
L415.074 28.8713
L415.074 24.3089
L418.326 24.3089
L418.326 19.7465
L421.898 19.7465
L421.898 15.1842
L424.982 15.1842
L424.982 10.6218
L424.982 10.6218
L453.6 10.6218
L453.6 10.6218" style="fill:none;stroke:#bf00bf;stroke-linecap:square;"/>
   </g>
   <g id="line2d_4">
    <path clip-path="url(#p99b4b0da67)" d="
M214.023 352.8
L214.023 348.238
L216.995 348.238
L216.995 343.675
L228.349 343.675
L228.367 334.55
L229.542 334.55
L229.542 329.988
L231.438 329.988
L231.438 325.426
L232.332 325.426
L232.332 320.863
L236.051 320.863
L236.051 316.301
L237.322 316.301
L237.322 311.739
L238.829 311.739
L238.829 307.176
L240.404 307.176
L240.404 302.614
L243.174 302.614
L243.174 298.051
L249.25 298.051
L249.251 288.927
L253.607 288.927
L253.607 284.364
L276.045 284.364
L276.045 279.802
L282.736 279.802
L282.736 275.24
L284.169 275.24
L284.169 270.677
L285.368 270.677
L285.368 266.115
L285.822 266.115
L285.822 261.552
L287.554 261.552
L287.554 256.99
L288.36 256.99
L288.36 252.428
L288.815 252.428
L288.815 247.865
L290.127 247.865
L290.181 238.741
L291.501 238.741
L291.569 229.616
L293.814 229.616
L293.83 220.491
L294.42 220.491
L294.42 215.929
L295.323 215.929
L295.323 211.366
L297.944 211.366
L297.944 206.804
L299.299 206.804
L299.299 202.242
L301.204 202.242
L301.204 197.679
L308.05 197.679
L308.05 193.117
L308.286 193.117
L308.286 188.554
L321.288 188.554
L321.288 183.992
L328.804 183.992
L328.804 179.43
L330.013 179.43
L330.013 174.867
L333.005 174.867
L333.005 170.305
L334.243 170.305
L334.243 165.743
L334.902 165.743
L334.902 161.18
L339.644 161.18
L339.644 156.618
L340.808 156.618
L340.808 152.055
L341.018 152.055
L341.018 147.493
L342.482 147.493
L342.482 142.931
L345.503 142.931
L345.503 138.368
L345.798 138.368
L345.857 129.244
L350.001 129.244
L350.001 124.681
L350.962 124.681
L350.962 120.119
L357.665 120.119
L357.665 115.556
L361.497 115.556
L361.497 110.994
L366.247 110.994
L366.247 106.432
L366.526 106.432
L366.526 101.869
L370.342 101.869
L370.342 97.3069
L372.969 97.3069
L372.969 92.7446
L373.8 92.7446
L373.8 88.1822
L385.181 88.1822
L385.181 83.6198
L386.76 83.6198
L386.76 79.0574
L387.961 79.0574
L387.961 74.495
L392.187 74.495
L392.187 69.9327
L392.32 69.9327
L392.32 65.3703
L392.831 65.3703
L392.831 60.8079
L393.603 60.8079
L393.603 56.2455
L397.487 56.2455
L397.487 51.6832
L399.879 51.6832
L399.879 47.1208
L400.057 47.1208
L400.057 42.5584
L400.98 42.5584
L400.98 37.996
L401.499 37.996
L401.499 33.4337
L409.353 33.4337
L409.353 28.8713
L411.322 28.8713
L411.322 24.3089
L412.757 24.3089
L412.757 19.7465
L413.069 19.7465
L413.069 15.1842
L418.377 15.1842
L418.377 10.6218
L418.377 10.6218
L453.6 10.6218
L453.6 10.6218" style="fill:none;stroke:#000000;stroke-linecap:square;"/>
   </g>
   <g id="line2d_5">
    <path clip-path="url(#p99b4b0da67)" d="
M214.023 352.8
L214.023 348.238
L216.363 348.238
L216.363 343.675
L217.696 343.675
L217.696 339.113
L219.939 339.113
L219.939 334.55
L221.486 334.55
L221.486 329.988
L224.313 329.988
L224.366 320.863
L225.808 320.863
L225.808 316.301
L226.027 316.301
L226.027 311.739
L232.094 311.739
L232.094 307.176
L232.692 307.176
L232.692 302.614
L232.967 302.614
L232.967 298.051
L233.585 298.051
L233.585 293.489
L233.71 293.489
L233.71 288.927
L238.477 288.927
L238.477 284.364
L265.289 284.364
L265.289 279.802
L267.304 279.802
L267.304 275.24
L273.532 275.24
L273.532 270.677
L276.045 270.677
L276.045 266.115
L276.195 266.115
L276.195 261.552
L277.432 261.552
L277.432 256.99
L278.212 256.99
L278.212 252.428
L278.497 252.428
L278.497 247.865
L280.839 247.865
L280.839 243.303
L281.369 243.303
L281.369 238.741
L281.906 238.741
L281.906 234.178
L282.697 234.178
L282.697 229.616
L284.102 229.616
L284.102 225.053
L285.822 225.053
L285.822 220.491
L286.234 220.491
L286.234 215.929
L287.304 215.929
L287.327 206.804
L288.438 206.804
L288.438 202.242
L288.561 202.242
L288.561 197.679
L291.077 197.679
L291.077 193.117
L293.814 193.117
L293.814 188.554
L299.459 188.554
L299.459 183.992
L301.204 183.992
L301.204 179.43
L308.05 179.43
L308.05 174.867
L308.286 174.867
L308.286 170.305
L314.132 170.305
L314.132 165.743
L315.464 165.743
L315.539 156.618
L317.448 156.618
L317.448 152.055
L321.288 152.055
L321.288 147.493
L321.448 147.493
L321.448 142.931
L323.561 142.931
L323.561 138.368
L324.552 138.368
L324.552 133.806
L325.293 133.806
L325.293 129.244
L326.199 129.244
L326.199 124.681
L327.57 124.681
L327.57 120.119
L328.345 120.119
L328.345 115.556
L331.968 115.556
L331.968 110.994
L336.592 110.994
L336.592 106.432
L339.233 106.432
L339.233 101.869
L339.525 101.869
L339.525 97.3069
L340.808 97.3069
L340.808 92.7446
L344.586 92.7446
L344.586 88.1822
L345.857 88.1822
L345.857 83.6198
L346.8 83.6198
L346.8 79.0574
L350.962 79.0574
L350.962 74.495
L361.111 74.495
L361.111 69.9327
L372.848 69.9327
L372.848 65.3703
L375.775 65.3703
L375.775 60.8079
L376.272 60.8079
L376.272 56.2455
L376.976 56.2455
L376.976 51.6832
L378.965 51.6832
L378.965 47.1208
L379.082 47.1208
L379.082 42.5584
L382.459 42.5584
L382.459 37.996
L383.368 37.996
L383.368 33.4337
L385.181 33.4337
L385.181 28.8713
L389.563 28.8713
L389.563 24.3089
L396.042 24.3089
L396.042 19.7465
L399.846 19.7465
L399.846 15.1842
L400.365 15.1842
L400.365 10.6218
L400.365 10.6218
L453.6 10.6218
L453.6 10.6218" style="fill:none;stroke:#00bfbf;stroke-linecap:square;"/>
   </g>
   <g id="line2d_6">
    <path clip-path="url(#p99b4b0da67)" d="
M181.495 352.8
L181.495 348.238
L183.169 348.238
L183.169 343.675
L184.177 343.675
L184.177 339.113
L193.032 339.113
L193.032 334.55
L193.214 334.55
L193.214 329.988
L194.135 329.988
L194.135 325.426
L195.063 325.426
L195.063 320.863
L195.2 320.863
L195.286 311.739
L196.416 311.739
L196.416 307.176
L197.797 307.176
L197.797 302.614
L200.033 302.614
L200.067 293.489
L201.346 293.489
L201.346 288.927
L203.95 288.927
L203.95 284.364
L247.376 284.364
L247.376 279.802
L253.605 279.802
L253.605 275.24
L254.289 275.24
L254.289 270.677
L255.975 270.677
L255.975 266.115
L256.613 266.115
L256.613 261.552
L257.951 261.552
L257.951 256.99
L258.242 256.99
L258.335 247.865
L259.174 247.865
L259.174 243.303
L261.019 243.303
L261.019 238.741
L261.935 238.741
L261.935 234.178
L262.539 234.178
L262.539 229.616
L264.061 229.616
L264.061 225.053
L264.238 225.053
L264.287 215.929
L265.049 215.929
L265.144 206.804
L265.289 206.804
L265.289 202.242
L265.648 202.242
L265.648 197.679
L266.56 197.679
L266.56 193.117
L266.697 193.117
L266.697 188.554
L267.182 188.554
L267.182 183.992
L268.14 183.992
L268.207 174.867
L270.044 174.867
L270.044 170.305
L270.237 170.305
L270.237 165.743
L271.085 165.743
L271.085 161.18
L276.585 161.18
L276.585 156.618
L277.068 156.618
L277.068 152.055
L277.344 152.055
L277.344 147.493
L292.046 147.493
L292.046 142.931
L294.175 142.931
L294.175 138.368
L299.992 138.368
L299.992 133.806
L300.663 133.806
L300.663 129.244
L301.582 129.244
L301.582 124.681
L304.694 124.681
L304.694 120.119
L305.825 120.119
L305.825 115.556
L310.443 115.556
L310.443 110.994
L311.205 110.994
L311.205 106.432
L311.529 106.432
L311.529 101.869
L312.778 101.869
L312.778 97.3069
L315.154 97.3069
L315.154 92.7446
L317.328 92.7446
L317.328 88.1822
L318.625 88.1822
L318.625 83.6198
L334.497 83.6198
L334.497 79.0574
L336.776 79.0574
L336.776 74.495
L339.635 74.495
L339.635 69.9327
L341.13 69.9327
L341.13 65.3703
L342.531 65.3703
L342.531 60.8079
L344.151 60.8079
L344.203 51.6832
L346.559 51.6832
L346.559 47.1208
L346.761 47.1208
L346.761 42.5584
L347.33 42.5584
L347.33 37.996
L349.64 37.996
L349.64 33.4337
L350.112 33.4337
L350.174 24.3089
L351.245 24.3089
L351.245 19.7465
L354.441 19.7465
L354.441 15.1842
L355.053 15.1842
L355.053 10.6218
L355.053 10.6218
L453.6 10.6218
L453.6 10.6218" style="fill:none;stroke:#bf00bf;stroke-linecap:square;"/>
   </g>
   <g id="line2d_7">
    <path clip-path="url(#p99b4b0da67)" d="
M95.2016 352.8
L95.2016 348.238
L113.486 348.238
L113.486 343.675
L114.7 343.675
L114.7 339.113
L115.906 339.113
L115.906 334.55
L116.649 334.55
L116.649 329.988
L117.636 329.988
L117.636 325.426
L118.642 325.426
L118.642 320.863
L120.869 320.863
L120.869 316.301
L121.199 316.301
L121.199 311.739
L121.933 311.739
L121.933 307.176
L122.873 307.176
L122.873 302.614
L123.33 302.614
L123.33 298.051
L128.388 298.051
L128.48 288.927
L129.729 288.927
L129.729 284.364
L196.077 284.364
L196.077 279.802
L197.802 279.802
L197.802 275.24
L199.034 275.24
L199.034 270.677
L203.747 270.677
L203.747 266.115
L207.816 266.115
L207.816 261.552
L208.971 261.552
L208.971 256.99
L209.65 256.99
L209.65 252.428
L210.298 252.428
L210.298 247.865
L211.555 247.865
L211.555 243.303
L213.422 243.303
L213.519 234.178
L214.528 234.178
L214.528 229.616
L216.24 229.616
L216.24 225.053
L216.6 225.053
L216.6 220.491
L217.185 220.491
L217.185 215.929
L218.021 215.929
L218.021 211.366
L224.838 211.366
L224.838 206.804
L226.067 206.804
L226.067 202.242
L227.429 202.242
L227.429 197.679
L233.564 197.679
L233.564 193.117
L238.084 193.117
L238.084 188.554
L238.619 188.554
L238.619 183.992
L243.082 183.992
L243.082 179.43
L243.958 179.43
L243.958 174.867
L252.108 174.867
L252.108 170.305
L253.605 170.305
L253.605 165.743
L253.759 165.743
L253.759 161.18
L254.113 161.18
L254.113 156.618
L254.289 156.618
L254.289 152.055
L255.724 152.055
L255.724 147.493
L255.864 147.493
L255.864 142.931
L255.975 142.931
L255.975 138.368
L257.951 138.368
L257.951 133.806
L259.413 133.806
L259.413 129.244
L260.696 129.244
L260.696 124.681
L262.539 124.681
L262.539 120.119
L264.061 120.119
L264.061 115.556
L264.94 115.556
L264.94 110.994
L265.289 110.994
L265.289 106.432
L265.888 106.432
L265.888 101.869
L267.332 101.869
L267.332 97.3069
L268.14 97.3069
L268.14 92.7446
L268.673 92.7446
L268.673 88.1822
L268.817 88.1822
L268.817 83.6198
L270.237 83.6198
L270.237 79.0574
L271.085 79.0574
L271.14 69.9327
L276.585 69.9327
L276.585 65.3703
L277.068 65.3703
L277.07 56.2455
L277.344 56.2455
L277.344 51.6832
L280.946 51.6832
L280.946 47.1208
L283.583 47.1208
L283.583 42.5584
L286.46 42.5584
L286.46 37.996
L288.883 37.996
L288.883 33.4337
L289.463 33.4337
L289.463 28.8713
L291.893 28.8713
L291.893 24.3089
L299.635 24.3089
L299.635 19.7465
L299.992 19.7465
L299.992 15.1842
L305.77 15.1842
L305.77 10.6218
L305.77 10.6218
L453.6 10.6218
L453.6 10.6218" style="fill:none;stroke:#000000;stroke-linecap:square;"/>
   </g>
   <g id="line2d_8">
    <path clip-path="url(#p99b4b0da67)" d="
M-1 256.99
L26.9286 256.99
L26.9286 252.428
L32.2717 252.428
L32.3398 243.303
L32.9998 243.303
L32.9998 238.741
L33.3049 238.741
L33.3049 234.178
L38.8259 234.178
L38.8259 229.616
L39.6165 229.616
L39.6165 225.053
L41.7748 225.053
L41.7748 220.491
L44.7831 220.491
L44.7831 215.929
L48.2558 215.929
L48.2558 211.366
L49.9633 211.366
L49.9633 206.804
L52.3184 206.804
L52.3184 202.242
L54.7591 202.242
L54.7591 197.679
L59.9029 197.679
L59.9029 193.117
L60.1392 193.117
L60.1392 188.554
L65.4993 188.554
L65.4993 183.992
L67.5986 183.992
L67.5986 179.43
L68.2514 179.43
L68.2514 174.867
L73.4704 174.867
L73.4704 170.305
L85.7803 170.305
L85.7803 165.743
L91.4104 165.743
L91.4104 161.18
L97.5288 161.18
L97.5288 156.618
L99.0825 156.618
L99.0825 152.055
L103.158 152.055
L103.158 147.493
L111.966 147.493
L111.966 142.931
L120.54 142.931
L120.54 138.368
L139.447 138.368
L139.447 133.806
L145.666 133.806
L145.666 129.244
L145.778 129.244
L145.778 124.681
L146.326 124.681
L146.326 120.119
L151.661 120.119
L151.661 115.556
L152.094 115.556
L152.094 110.994
L155.15 110.994
L155.15 106.432
L176.631 106.432
L176.631 101.869
L186.789 101.869
L186.789 97.3069
L190.608 97.3069
L190.622 88.1822
L191.458 88.1822
L191.458 83.6198
L196.259 83.6198
L196.259 79.0574
L201.742 79.0574
L201.742 74.495
L202.043 74.495
L202.043 69.9327
L203.395 69.9327
L203.395 65.3703
L205.901 65.3703
L205.901 60.8079
L207.808 60.8079
L207.808 56.2455
L211.9 56.2455
L211.9 51.6832
L212.012 51.6832
L212.066 42.5584
L212.186 42.5584
L212.186 37.996
L212.36 37.996
L212.36 33.4337
L213.255 33.4337
L213.255 28.8713
L216.998 28.8713
L216.998 24.3089
L223.691 24.3089
L223.691 19.7465
L226.23 19.7465
L226.23 15.1842
L237.602 15.1842
L237.602 10.6218
L237.602 10.6218
L453.6 10.6218
L453.6 10.6218" style="fill:none;stroke:#00bfbf;stroke-linecap:square;"/>
   </g>
   <g id="matplotlib.axis_1">
    <g id="xtick_1"/>
    <g id="xtick_2">
     <g id="line2d_9">
      <path clip-path="url(#p99b4b0da67)" d="
M59.6175 352.8
L59.6175 7.2" style="fill:none;stroke:#000000;stroke-dasharray:1.000000,3.000000;stroke-dashoffset:0.0;stroke-width:0.5;"/>
     </g>
     <g id="line2d_10">
      <defs>
       <path d="
M0 0
L0 -4" id="m93b0483c22" style="stroke:#000000;stroke-width:0.5;"/>
      </defs>
      <g>
       <use style="stroke:#000000;stroke-width:0.5;" x="59.6174973142" xlink:href="#m93b0483c22" y="352.8"/>
      </g>
     </g>
     <g id="line2d_11">
      <defs>
       <path d="
M0 0
L0 4" id="m741efc42ff" style="stroke:#000000;stroke-width:0.5;"/>
      </defs>
      <g>
       <use style="stroke:#000000;stroke-width:0.5;" x="59.6174973142" xlink:href="#m741efc42ff" y="7.2"/>
      </g>
     </g>
     <g id="text_1">
      <!-- -6 -->
      <defs>
       <path d="
M33.0156 40.375
Q26.375 40.375 22.4844 35.8281
Q18.6094 31.2969 18.6094 23.3906
Q18.6094 15.5312 22.4844 10.9531
Q26.375 6.39062 33.0156 6.39062
Q39.6562 6.39062 43.5312 10.9531
Q47.4062 15.5312 47.4062 23.3906
Q47.4062 31.2969 43.5312 35.8281
Q39.6562 40.375 33.0156 40.375
M52.5938 71.2969
L52.5938 62.3125
Q48.875 64.0625 45.0938 64.9844
Q41.3125 65.9219 37.5938 65.9219
Q27.8281 65.9219 22.6719 59.3281
Q17.5312 52.7344 16.7969 39.4062
Q19.6719 43.6562 24.0156 45.9219
Q28.375 48.1875 33.5938 48.1875
Q44.5781 48.1875 50.9531 41.5156
Q57.3281 34.8594 57.3281 23.3906
Q57.3281 12.1562 50.6875 5.35938
Q44.0469 -1.42188 33.0156 -1.42188
Q20.3594 -1.42188 13.6719 8.26562
Q6.98438 17.9688 6.98438 36.375
Q6.98438 53.6562 15.1875 63.9375
Q23.3906 74.2188 37.2031 74.2188
Q40.9219 74.2188 44.7031 73.4844
Q48.4844 72.75 52.5938 71.2969" id="BitstreamVeraSans-Roman-36"/>
       <path d="
M4.89062 31.3906
L31.2031 31.3906
L31.2031 23.3906
L4.89062 23.3906
z
" id="BitstreamVeraSans-Roman-2d"/>
      </defs>
      <g transform="translate(50.7659348142 371.996875)scale(0.2 -0.2)">
       <use xlink:href="#BitstreamVeraSans-Roman-2d"/>
       <use x="36.083984375" xlink:href="#BitstreamVeraSans-Roman-36"/>
      </g>
     </g>
    </g>
    <g id="xtick_3">
     <g id="line2d_12">
      <path clip-path="url(#p99b4b0da67)" d="
M112.148 352.8
L112.148 7.2" style="fill:none;stroke:#000000;stroke-dasharray:1.000000,3.000000;stroke-dashoffset:0.0;stroke-width:0.5;"/>
     </g>
     <g id="line2d_13">
      <g>
       <use style="stroke:#000000;stroke-width:0.5;" x="112.148497672" xlink:href="#m93b0483c22" y="352.8"/>
      </g>
     </g>
     <g id="line2d_14">
      <g>
       <use style="stroke:#000000;stroke-width:0.5;" x="112.148497672" xlink:href="#m741efc42ff" y="7.2"/>
      </g>
     </g>
     <g id="text_2">
      <!-- -4 -->
      <defs>
       <path d="
M37.7969 64.3125
L12.8906 25.3906
L37.7969 25.3906
z

M35.2031 72.9062
L47.6094 72.9062
L47.6094 25.3906
L58.0156 25.3906
L58.0156 17.1875
L47.6094 17.1875
L47.6094 0
L37.7969 0
L37.7969 17.1875
L4.89062 17.1875
L4.89062 26.7031
z
" id="BitstreamVeraSans-Roman-34"/>
      </defs>
      <g transform="translate(103.228185172 371.996875)scale(0.2 -0.2)">
       <use xlink:href="#BitstreamVeraSans-Roman-2d"/>
       <use x="36.083984375" xlink:href="#BitstreamVeraSans-Roman-34"/>
      </g>
     </g>
    </g>
    <g id="xtick_4">
     <g id="line2d_15">
      <path clip-path="url(#p99b4b0da67)" d="
M164.679 352.8
L164.679 7.2" style="fill:none;stroke:#000000;stroke-dasharray:1.000000,3.000000;stroke-dashoffset:0.0;stroke-width:0.5;"/>
     </g>
     <g id="line2d_16">
      <g>
       <use style="stroke:#000000;stroke-width:0.5;" x="164.67949803" xlink:href="#m93b0483c22" y="352.8"/>
      </g>
     </g>
     <g id="line2d_17">
      <g>
       <use style="stroke:#000000;stroke-width:0.5;" x="164.67949803" xlink:href="#m741efc42ff" y="7.2"/>
      </g>
     </g>
     <g id="text_3">
      <!-- -2 -->
      <defs>
       <path d="
M19.1875 8.29688
L53.6094 8.29688
L53.6094 0
L7.32812 0
L7.32812 8.29688
Q12.9375 14.1094 22.625 23.8906
Q32.3281 33.6875 34.8125 36.5312
Q39.5469 41.8438 41.4219 45.5312
Q43.3125 49.2188 43.3125 52.7812
Q43.3125 58.5938 39.2344 62.25
Q35.1562 65.9219 28.6094 65.9219
Q23.9688 65.9219 18.8125 64.3125
Q13.6719 62.7031 7.8125 59.4219
L7.8125 69.3906
Q13.7656 71.7812 18.9375 73
Q24.125 74.2188 28.4219 74.2188
Q39.75 74.2188 46.4844 68.5469
Q53.2188 62.8906 53.2188 53.4219
Q53.2188 48.9219 51.5312 44.8906
Q49.8594 40.875 45.4062 35.4062
Q44.1875 33.9844 37.6406 27.2188
Q31.1094 20.4531 19.1875 8.29688" id="BitstreamVeraSans-Roman-32"/>
      </defs>
      <g transform="translate(156.19981053 371.996875)scale(0.2 -0.2)">
       <use xlink:href="#BitstreamVeraSans-Roman-2d"/>
       <use x="36.083984375" xlink:href="#BitstreamVeraSans-Roman-32"/>
      </g>
     </g>
    </g>
    <g id="xtick_5">
     <g id="line2d_18">
      <path clip-path="url(#p99b4b0da67)" d="
M217.21 352.8
L217.21 7.2" style="fill:none;stroke:#000000;stroke-dasharray:1.000000,3.000000;stroke-dashoffset:0.0;stroke-width:0.5;"/>
     </g>
     <g id="line2d_19">
      <g>
       <use style="stroke:#000000;stroke-width:0.5;" x="217.210498389" xlink:href="#m93b0483c22" y="352.8"/>
      </g>
     </g>
     <g id="line2d_20">
      <g>
       <use style="stroke:#000000;stroke-width:0.5;" x="217.210498389" xlink:href="#m741efc42ff" y="7.2"/>
      </g>
     </g>
     <g id="text_4">
      <!-- 0 -->
      <defs>
       <path d="
M31.7812 66.4062
Q24.1719 66.4062 20.3281 58.9062
Q16.5 51.4219 16.5 36.375
Q16.5 21.3906 20.3281 13.8906
Q24.1719 6.39062 31.7812 6.39062
Q39.4531 6.39062 43.2812 13.8906
Q47.125 21.3906 47.125 36.375
Q47.125 51.4219 43.2812 58.9062
Q39.4531 66.4062 31.7812 66.4062
M31.7812 74.2188
Q44.0469 74.2188 50.5156 64.5156
Q56.9844 54.8281 56.9844 36.375
Q56.9844 17.9688 50.5156 8.26562
Q44.0469 -1.42188 31.7812 -1.42188
Q19.5312 -1.42188 13.0625 8.26562
Q6.59375 17.9688 6.59375 36.375
Q6.59375 54.8281 13.0625 64.5156
Q19.5312 74.2188 31.7812 74.2188" id="BitstreamVeraSans-Roman-30"/>
      </defs>
      <g transform="translate(212.171435889 371.996875)scale(0.2 -0.2)">
       <use xlink:href="#BitstreamVeraSans-Roman-30"/>
      </g>
     </g>
    </g>
    <g id="xtick_6">
     <g id="line2d_21">
      <path clip-path="url(#p99b4b0da67)" d="
M269.741 352.8
L269.741 7.2" style="fill:none;stroke:#000000;stroke-dasharray:1.000000,3.000000;stroke-dashoffset:0.0;stroke-width:0.5;"/>
     </g>
     <g id="line2d_22">
      <g>
       <use style="stroke:#000000;stroke-width:0.5;" x="269.741498747" xlink:href="#m93b0483c22" y="352.8"/>
      </g>
     </g>
     <g id="line2d_23">
      <g>
       <use style="stroke:#000000;stroke-width:0.5;" x="269.741498747" xlink:href="#m741efc42ff" y="7.2"/>
      </g>
     </g>
     <g id="text_5">
      <!-- 2 -->
      <g transform="translate(265.113373747 371.996875)scale(0.2 -0.2)">
       <use xlink:href="#BitstreamVeraSans-Roman-32"/>
      </g>
     </g>
    </g>
    <g id="xtick_7">
     <g id="line2d_24">
      <path clip-path="url(#p99b4b0da67)" d="
M322.272 352.8
L322.272 7.2" style="fill:none;stroke:#000000;stroke-dasharray:1.000000,3.000000;stroke-dashoffset:0.0;stroke-width:0.5;"/>
     </g>
     <g id="line2d_25">
      <g>
       <use style="stroke:#000000;stroke-width:0.5;" x="322.272499105" xlink:href="#m93b0483c22" y="352.8"/>
      </g>
     </g>
     <g id="line2d_26">
      <g>
       <use style="stroke:#000000;stroke-width:0.5;" x="322.272499105" xlink:href="#m741efc42ff" y="7.2"/>
      </g>
     </g>
     <g id="text_6">
      <!-- 4 -->
      <g transform="translate(316.959999105 371.996875)scale(0.2 -0.2)">
       <use xlink:href="#BitstreamVeraSans-Roman-34"/>
      </g>
     </g>
    </g>
    <g id="xtick_8">
     <g id="line2d_27">
      <path clip-path="url(#p99b4b0da67)" d="
M374.803 352.8
L374.803 7.2" style="fill:none;stroke:#000000;stroke-dasharray:1.000000,3.000000;stroke-dashoffset:0.0;stroke-width:0.5;"/>
     </g>
     <g id="line2d_28">
      <g>
       <use style="stroke:#000000;stroke-width:0.5;" x="374.803499463" xlink:href="#m93b0483c22" y="352.8"/>
      </g>
     </g>
     <g id="line2d_29">
      <g>
       <use style="stroke:#000000;stroke-width:0.5;" x="374.803499463" xlink:href="#m741efc42ff" y="7.2"/>
      </g>
     </g>
     <g id="text_7">
      <!-- 6 -->
      <g transform="translate(369.769124463 371.996875)scale(0.2 -0.2)">
       <use xlink:href="#BitstreamVeraSans-Roman-36"/>
      </g>
     </g>
    </g>
    <g id="xtick_9">
     <g id="line2d_30">
      <path clip-path="url(#p99b4b0da67)" d="
M427.334 352.8
L427.334 7.2" style="fill:none;stroke:#000000;stroke-dasharray:1.000000,3.000000;stroke-dashoffset:0.0;stroke-width:0.5;"/>
     </g>
     <g id="line2d_31">
      <g>
       <use style="stroke:#000000;stroke-width:0.5;" x="427.334499821" xlink:href="#m93b0483c22" y="352.8"/>
      </g>
     </g>
     <g id="line2d_32">
      <g>
       <use style="stroke:#000000;stroke-width:0.5;" x="427.334499821" xlink:href="#m741efc42ff" y="7.2"/>
      </g>
     </g>
     <g id="text_8">
      <!-- 8 -->
      <defs>
       <path d="
M31.7812 34.625
Q24.75 34.625 20.7188 30.8594
Q16.7031 27.0938 16.7031 20.5156
Q16.7031 13.9219 20.7188 10.1562
Q24.75 6.39062 31.7812 6.39062
Q38.8125 6.39062 42.8594 10.1719
Q46.9219 13.9688 46.9219 20.5156
Q46.9219 27.0938 42.8906 30.8594
Q38.875 34.625 31.7812 34.625
M21.9219 38.8125
Q15.5781 40.375 12.0312 44.7188
Q8.5 49.0781 8.5 55.3281
Q8.5 64.0625 14.7188 69.1406
Q20.9531 74.2188 31.7812 74.2188
Q42.6719 74.2188 48.875 69.1406
Q55.0781 64.0625 55.0781 55.3281
Q55.0781 49.0781 51.5312 44.7188
Q48 40.375 41.7031 38.8125
Q48.8281 37.1562 52.7969 32.3125
Q56.7812 27.4844 56.7812 20.5156
Q56.7812 9.90625 50.3125 4.23438
Q43.8438 -1.42188 31.7812 -1.42188
Q19.7344 -1.42188 13.25 4.23438
Q6.78125 9.90625 6.78125 20.5156
Q6.78125 27.4844 10.7812 32.3125
Q14.7969 37.1562 21.9219 38.8125
M18.3125 54.3906
Q18.3125 48.7344 21.8438 45.5625
Q25.3906 42.3906 31.7812 42.3906
Q38.1406 42.3906 41.7188 45.5625
Q45.3125 48.7344 45.3125 54.3906
Q45.3125 60.0625 41.7188 63.2344
Q38.1406 66.4062 31.7812 66.4062
Q25.3906 66.4062 21.8438 63.2344
Q18.3125 60.0625 18.3125 54.3906" id="BitstreamVeraSans-Roman-38"/>
      </defs>
      <g transform="translate(422.334499821 371.996875)scale(0.2 -0.2)">
       <use xlink:href="#BitstreamVeraSans-Roman-38"/>
      </g>
     </g>
    </g>
    <g id="xtick_10"/>
    <g id="xtick_11">
     <g id="line2d_33">
      <defs>
       <path d="
M0 0
L0 -2" id="m177f7580d0" style="stroke:#000000;stroke-width:0.5;"/>
      </defs>
      <g>
       <use style="stroke:#000000;stroke-width:0.5;" x="59.6174973142" xlink:href="#m177f7580d0" y="352.8"/>
      </g>
     </g>
     <g id="line2d_34">
      <defs>
       <path d="
M0 0
L0 2" id="m5284c7e2a0" style="stroke:#000000;stroke-width:0.5;"/>
      </defs>
      <g>
       <use style="stroke:#000000;stroke-width:0.5;" x="59.6174973142" xlink:href="#m5284c7e2a0" y="7.2"/>
      </g>
     </g>
    </g>
    <g id="xtick_12">
     <g id="line2d_35">
      <g>
       <use style="stroke:#000000;stroke-width:0.5;" x="112.148497672" xlink:href="#m177f7580d0" y="352.8"/>
      </g>
     </g>
     <g id="line2d_36">
      <g>
       <use style="stroke:#000000;stroke-width:0.5;" x="112.148497672" xlink:href="#m5284c7e2a0" y="7.2"/>
      </g>
     </g>
    </g>
    <g id="xtick_13">
     <g id="line2d_37">
      <g>
       <use style="stroke:#000000;stroke-width:0.5;" x="164.67949803" xlink:href="#m177f7580d0" y="352.8"/>
      </g>
     </g>
     <g id="line2d_38">
      <g>
       <use style="stroke:#000000;stroke-width:0.5;" x="164.67949803" xlink:href="#m5284c7e2a0" y="7.2"/>
      </g>
     </g>
    </g>
    <g id="xtick_14">
     <g id="line2d_39">
      <g>
       <use style="stroke:#000000;stroke-width:0.5;" x="217.210498389" xlink:href="#m177f7580d0" y="352.8"/>
      </g>
     </g>
     <g id="line2d_40">
      <g>
       <use style="stroke:#000000;stroke-width:0.5;" x="217.210498389" xlink:href="#m5284c7e2a0" y="7.2"/>
      </g>
     </g>
    </g>
    <g id="xtick_15">
     <g id="line2d_41">
      <g>
       <use style="stroke:#000000;stroke-width:0.5;" x="269.741498747" xlink:href="#m177f7580d0" y="352.8"/>
      </g>
     </g>
     <g id="line2d_42">
      <g>
       <use style="stroke:#000000;stroke-width:0.5;" x="269.741498747" xlink:href="#m5284c7e2a0" y="7.2"/>
      </g>
     </g>
    </g>
    <g id="xtick_16">
     <g id="line2d_43">
      <g>
       <use style="stroke:#000000;stroke-width:0.5;" x="322.272499105" xlink:href="#m177f7580d0" y="352.8"/>
      </g>
     </g>
     <g id="line2d_44">
      <g>
       <use style="stroke:#000000;stroke-width:0.5;" x="322.272499105" xlink:href="#m5284c7e2a0" y="7.2"/>
      </g>
     </g>
    </g>
    <g id="xtick_17">
     <g id="line2d_45">
      <g>
       <use style="stroke:#000000;stroke-width:0.5;" x="374.803499463" xlink:href="#m177f7580d0" y="352.8"/>
      </g>
     </g>
     <g id="line2d_46">
      <g>
       <use style="stroke:#000000;stroke-width:0.5;" x="374.803499463" xlink:href="#m5284c7e2a0" y="7.2"/>
      </g>
     </g>
    </g>
    <g id="xtick_18">
     <g id="line2d_47">
      <g>
       <use style="stroke:#000000;stroke-width:0.5;" x="427.334499821" xlink:href="#m177f7580d0" y="352.8"/>
      </g>
     </g>
     <g id="line2d_48">
      <g>
       <use style="stroke:#000000;stroke-width:0.5;" x="427.334499821" xlink:href="#m5284c7e2a0" y="7.2"/>
      </g>
     </g>
    </g>
    <g id="text_9">
     <!-- log10 of Df -->
     <defs>
      <path id="BitstreamVeraSans-Roman-20"/>
      <path d="
M12.4062 8.29688
L28.5156 8.29688
L28.5156 63.9219
L10.9844 60.4062
L10.9844 69.3906
L28.4219 72.9062
L38.2812 72.9062
L38.2812 8.29688
L54.3906 8.29688
L54.3906 0
L12.4062 0
z
" id="BitstreamVeraSans-Roman-31"/>
      <path d="
M30.6094 48.3906
Q23.3906 48.3906 19.1875 42.75
Q14.9844 37.1094 14.9844 27.2969
Q14.9844 17.4844 19.1562 11.8438
Q23.3438 6.20312 30.6094 6.20312
Q37.7969 6.20312 41.9844 11.8594
Q46.1875 17.5312 46.1875 27.2969
Q46.1875 37.0156 41.9844 42.7031
Q37.7969 48.3906 30.6094 48.3906
M30.6094 56
Q42.3281 56 49.0156 48.375
Q55.7188 40.7656 55.7188 27.2969
Q55.7188 13.875 49.0156 6.21875
Q42.3281 -1.42188 30.6094 -1.42188
Q18.8438 -1.42188 12.1719 6.21875
Q5.51562 13.875 5.51562 27.2969
Q5.51562 40.7656 12.1719 48.375
Q18.8438 56 30.6094 56" id="BitstreamVeraSans-Roman-6f"/>
      <path d="
M9.42188 75.9844
L18.4062 75.9844
L18.4062 0
L9.42188 0
z
" id="BitstreamVeraSans-Roman-6c"/>
      <path d="
M19.6719 64.7969
L19.6719 8.10938
L31.5938 8.10938
Q46.6875 8.10938 53.6875 14.9375
Q60.6875 21.7812 60.6875 36.5312
Q60.6875 51.1719 53.6875 57.9844
Q46.6875 64.7969 31.5938 64.7969
z

M9.8125 72.9062
L30.0781 72.9062
Q51.2656 72.9062 61.1719 64.0938
Q71.0938 55.2812 71.0938 36.5312
Q71.0938 17.6719 61.125 8.82812
Q51.1719 0 30.0781 0
L9.8125 0
z
" id="BitstreamVeraSans-Roman-44"/>
      <path d="
M45.4062 27.9844
Q45.4062 37.75 41.375 43.1094
Q37.3594 48.4844 30.0781 48.4844
Q22.8594 48.4844 18.8281 43.1094
Q14.7969 37.75 14.7969 27.9844
Q14.7969 18.2656 18.8281 12.8906
Q22.8594 7.51562 30.0781 7.51562
Q37.3594 7.51562 41.375 12.8906
Q45.4062 18.2656 45.4062 27.9844
M54.3906 6.78125
Q54.3906 -7.17188 48.1875 -13.9844
Q42 -20.7969 29.2031 -20.7969
Q24.4688 -20.7969 20.2656 -20.0938
Q16.0625 -19.3906 12.1094 -17.9219
L12.1094 -9.1875
Q16.0625 -11.3281 19.9219 -12.3438
Q23.7812 -13.375 27.7812 -13.375
Q36.625 -13.375 41.0156 -8.76562
Q45.4062 -4.15625 45.4062 5.17188
L45.4062 9.625
Q42.625 4.78125 38.2812 2.39062
Q33.9375 0 27.875 0
Q17.8281 0 11.6719 7.65625
Q5.51562 15.3281 5.51562 27.9844
Q5.51562 40.6719 11.6719 48.3281
Q17.8281 56 27.875 56
Q33.9375 56 38.2812 53.6094
Q42.625 51.2188 45.4062 46.3906
L45.4062 54.6875
L54.3906 54.6875
z
" id="BitstreamVeraSans-Roman-67"/>
      <path d="
M37.1094 75.9844
L37.1094 68.5
L28.5156 68.5
Q23.6875 68.5 21.7969 66.5469
Q19.9219 64.5938 19.9219 59.5156
L19.9219 54.6875
L34.7188 54.6875
L34.7188 47.7031
L19.9219 47.7031
L19.9219 0
L10.8906 0
L10.8906 47.7031
L2.29688 47.7031
L2.29688 54.6875
L10.8906 54.6875
L10.8906 58.5
Q10.8906 67.625 15.1406 71.7969
Q19.3906 75.9844 28.6094 75.9844
z
" id="BitstreamVeraSans-Roman-66"/>
     </defs>
     <g transform="translate(175.0234375 396.353125)scale(0.2 -0.2)">
      <use xlink:href="#BitstreamVeraSans-Roman-6c"/>
      <use x="27.783203125" xlink:href="#BitstreamVeraSans-Roman-6f"/>
      <use x="88.96484375" xlink:href="#BitstreamVeraSans-Roman-67"/>
      <use x="152.44140625" xlink:href="#BitstreamVeraSans-Roman-31"/>
      <use x="216.064453125" xlink:href="#BitstreamVeraSans-Roman-30"/>
      <use x="279.6875" xlink:href="#BitstreamVeraSans-Roman-20"/>
      <use x="311.474609375" xlink:href="#BitstreamVeraSans-Roman-6f"/>
      <use x="372.65625" xlink:href="#BitstreamVeraSans-Roman-66"/>
      <use x="407.861328125" xlink:href="#BitstreamVeraSans-Roman-20"/>
      <use x="439.6484375" xlink:href="#BitstreamVeraSans-Roman-44"/>
      <use x="516.650390625" xlink:href="#BitstreamVeraSans-Roman-66"/>
     </g>
    </g>
   </g>
   <g id="matplotlib.axis_2">
    <g id="ytick_1">
     <g id="line2d_49">
      <path clip-path="url(#p99b4b0da67)" d="
M7.2 352.8
L453.6 352.8" style="fill:none;stroke:#000000;stroke-dasharray:1.000000,3.000000;stroke-dashoffset:0.0;stroke-width:0.5;"/>
     </g>
     <g id="line2d_50">
      <defs>
       <path d="
M0 0
L4 0" id="m728421d6d4" style="stroke:#000000;stroke-width:0.5;"/>
      </defs>
      <g>
       <use style="stroke:#000000;stroke-width:0.5;" x="7.2" xlink:href="#m728421d6d4" y="352.8"/>
      </g>
     </g>
     <g id="line2d_51">
      <defs>
       <path d="
M0 0
L-4 0" id="mcb0005524f" style="stroke:#000000;stroke-width:0.5;"/>
      </defs>
      <g>
       <use style="stroke:#000000;stroke-width:0.5;" x="453.6" xlink:href="#mcb0005524f" y="352.8"/>
      </g>
     </g>
    </g>
    <g id="ytick_2">
     <g id="line2d_52">
      <path clip-path="url(#p99b4b0da67)" d="
M7.2 284.364
L453.6 284.364" style="fill:none;stroke:#000000;stroke-dasharray:1.000000,3.000000;stroke-dashoffset:0.0;stroke-width:0.5;"/>
     </g>
     <g id="line2d_53">
      <g>
       <use style="stroke:#000000;stroke-width:0.5;" x="7.2" xlink:href="#m728421d6d4" y="284.364356436"/>
      </g>
     </g>
     <g id="line2d_54">
      <g>
       <use style="stroke:#000000;stroke-width:0.5;" x="453.6" xlink:href="#mcb0005524f" y="284.364356436"/>
      </g>
     </g>
    </g>
    <g id="ytick_3">
     <g id="line2d_55">
      <path clip-path="url(#p99b4b0da67)" d="
M7.2 215.929
L453.6 215.929" style="fill:none;stroke:#000000;stroke-dasharray:1.000000,3.000000;stroke-dashoffset:0.0;stroke-width:0.5;"/>
     </g>
     <g id="line2d_56">
      <g>
       <use style="stroke:#000000;stroke-width:0.5;" x="7.2" xlink:href="#m728421d6d4" y="215.928712871"/>
      </g>
     </g>
     <g id="line2d_57">
      <g>
       <use style="stroke:#000000;stroke-width:0.5;" x="453.6" xlink:href="#mcb0005524f" y="215.928712871"/>
      </g>
     </g>
    </g>
    <g id="ytick_4">
     <g id="line2d_58">
      <path clip-path="url(#p99b4b0da67)" d="
M7.2 147.493
L453.6 147.493" style="fill:none;stroke:#000000;stroke-dasharray:1.000000,3.000000;stroke-dashoffset:0.0;stroke-width:0.5;"/>
     </g>
     <g id="line2d_59">
      <g>
       <use style="stroke:#000000;stroke-width:0.5;" x="7.2" xlink:href="#m728421d6d4" y="147.493069307"/>
      </g>
     </g>
     <g id="line2d_60">
      <g>
       <use style="stroke:#000000;stroke-width:0.5;" x="453.6" xlink:href="#mcb0005524f" y="147.493069307"/>
      </g>
     </g>
    </g>
    <g id="ytick_5">
     <g id="line2d_61">
      <path clip-path="url(#p99b4b0da67)" d="
M7.2 79.0574
L453.6 79.0574" style="fill:none;stroke:#000000;stroke-dasharray:1.000000,3.000000;stroke-dashoffset:0.0;stroke-width:0.5;"/>
     </g>
     <g id="line2d_62">
      <g>
       <use style="stroke:#000000;stroke-width:0.5;" x="7.2" xlink:href="#m728421d6d4" y="79.0574257426"/>
      </g>
     </g>
     <g id="line2d_63">
      <g>
       <use style="stroke:#000000;stroke-width:0.5;" x="453.6" xlink:href="#mcb0005524f" y="79.0574257426"/>
      </g>
     </g>
    </g>
    <g id="ytick_6">
     <g id="line2d_64">
      <path clip-path="url(#p99b4b0da67)" d="
M7.2 10.6218
L453.6 10.6218" style="fill:none;stroke:#000000;stroke-dasharray:1.000000,3.000000;stroke-dashoffset:0.0;stroke-width:0.5;"/>
     </g>
     <g id="line2d_65">
      <g>
       <use style="stroke:#000000;stroke-width:0.5;" x="7.2" xlink:href="#m728421d6d4" y="10.6217821782"/>
      </g>
     </g>
     <g id="line2d_66">
      <g>
       <use style="stroke:#000000;stroke-width:0.5;" x="453.6" xlink:href="#mcb0005524f" y="10.6217821782"/>
      </g>
     </g>
    </g>
   </g>
   <g id="patch_3">
    <path d="
M7.2 7.2
L453.6 7.2" style="fill:none;stroke:#000000;"/>
   </g>
   <g id="patch_4">
    <path d="
M453.6 352.8
L453.6 7.2" style="fill:none;stroke:#000000;"/>
   </g>
   <g id="patch_5">
    <path d="
M7.2 352.8
L453.6 352.8" style="fill:none;stroke:#000000;"/>
   </g>
   <g id="patch_6">
    <path d="
M7.2 352.8
L7.2 7.2" style="fill:none;stroke:#000000;"/>
   </g>
   <g id="text_10">
    <!-- {f10-f14}, 5-D -->
    <defs>
     <path d="
M12.5 -9.28125
L15.9219 -9.28125
Q22.75 -9.28125 24.8281 -7.17188
Q26.9062 -5.07812 26.9062 1.90625
L26.9062 14.0156
Q26.9062 21.625 29.0938 25.0938
Q31.2969 28.5625 36.7188 29.8906
Q31.2969 31.1094 29.0938 34.5625
Q26.9062 38.0312 26.9062 45.7031
L26.9062 57.8125
Q26.9062 64.75 24.8281 66.875
Q22.75 69 15.9219 69
L12.5 69
L12.5 75.9844
L15.5781 75.9844
Q27.7344 75.9844 31.8125 72.3906
Q35.8906 68.7969 35.8906 58.0156
L35.8906 46.2969
Q35.8906 39.0156 38.5156 36.2031
Q41.1562 33.4062 48.0938 33.4062
L51.125 33.4062
L51.125 26.4219
L48.0938 26.4219
Q41.1562 26.4219 38.5156 23.5781
Q35.8906 20.75 35.8906 13.375
L35.8906 1.70312
Q35.8906 -9.07812 31.8125 -12.6875
Q27.7344 -16.3125 15.5781 -16.3125
L12.5 -16.3125
z
" id="BitstreamVeraSans-Roman-7d"/>
     <path d="
M51.125 -9.28125
L51.125 -16.3125
L48.0938 -16.3125
Q35.9375 -16.3125 31.8125 -12.6875
Q27.6875 -9.07812 27.6875 1.70312
L27.6875 13.375
Q27.6875 20.75 25.0469 23.5781
Q22.4062 26.4219 15.4844 26.4219
L12.5 26.4219
L12.5 33.4062
L15.4844 33.4062
Q22.4688 33.4062 25.0781 36.2031
Q27.6875 39.0156 27.6875 46.2969
L27.6875 58.0156
Q27.6875 68.7969 31.8125 72.3906
Q35.9375 75.9844 48.0938 75.9844
L51.125 75.9844
L51.125 69
L47.7969 69
Q40.9219 69 38.8125 66.8438
Q36.7188 64.7031 36.7188 57.8125
L36.7188 45.7031
Q36.7188 38.0312 34.5 34.5625
Q32.2812 31.1094 26.9062 29.8906
Q32.3281 28.5625 34.5156 25.0938
Q36.7188 21.625 36.7188 14.0156
L36.7188 1.90625
Q36.7188 -4.98438 38.8125 -7.125
Q40.9219 -9.28125 47.7969 -9.28125
z
" id="BitstreamVeraSans-Roman-7b"/>
     <path d="
M11.7188 12.4062
L22.0156 12.4062
L22.0156 4
L14.0156 -11.625
L7.71875 -11.625
L11.7188 4
z
" id="BitstreamVeraSans-Roman-2c"/>
     <path d="
M10.7969 72.9062
L49.5156 72.9062
L49.5156 64.5938
L19.8281 64.5938
L19.8281 46.7344
Q21.9688 47.4688 24.1094 47.8281
Q26.2656 48.1875 28.4219 48.1875
Q40.625 48.1875 47.75 41.5
Q54.8906 34.8125 54.8906 23.3906
Q54.8906 11.625 47.5625 5.09375
Q40.2344 -1.42188 26.9062 -1.42188
Q22.3125 -1.42188 17.5469 -0.640625
Q12.7969 0.140625 7.71875 1.70312
L7.71875 11.625
Q12.1094 9.23438 16.7969 8.0625
Q21.4844 6.89062 26.7031 6.89062
Q35.1562 6.89062 40.0781 11.3281
Q45.0156 15.7656 45.0156 23.3906
Q45.0156 31 40.0781 35.4375
Q35.1562 39.8906 26.7031 39.8906
Q22.75 39.8906 18.8125 39.0156
Q14.8906 38.1406 10.7969 36.2812
z
" id="BitstreamVeraSans-Roman-35"/>
    </defs>
    <g transform="translate(300.15325 345.888)scale(0.2 -0.2)">
     <use xlink:href="#BitstreamVeraSans-Roman-7b"/>
     <use x="63.623046875" xlink:href="#BitstreamVeraSans-Roman-66"/>
     <use x="98.828125" xlink:href="#BitstreamVeraSans-Roman-31"/>
     <use x="162.451171875" xlink:href="#BitstreamVeraSans-Roman-30"/>
     <use x="226.07421875" xlink:href="#BitstreamVeraSans-Roman-2d"/>
     <use x="262.158203125" xlink:href="#BitstreamVeraSans-Roman-66"/>
     <use x="297.36328125" xlink:href="#BitstreamVeraSans-Roman-31"/>
     <use x="360.986328125" xlink:href="#BitstreamVeraSans-Roman-34"/>
     <use x="424.609375" xlink:href="#BitstreamVeraSans-Roman-7d"/>
     <use x="488.232421875" xlink:href="#BitstreamVeraSans-Roman-2c"/>
     <use x="520.01953125" xlink:href="#BitstreamVeraSans-Roman-20"/>
     <use x="551.806640625" xlink:href="#BitstreamVeraSans-Roman-35"/>
     <use x="615.4296875" xlink:href="#BitstreamVeraSans-Roman-2d"/>
     <use x="651.513671875" xlink:href="#BitstreamVeraSans-Roman-44"/>
    </g>
   </g>
   <g id="text_11">
    <!-- 0.0.0 -->
    <defs>
     <path d="
M10.6875 12.4062
L21 12.4062
L21 0
L10.6875 0
z
" id="BitstreamVeraSans-Roman-2e"/>
    </defs>
    <g style="fill:#808080;" transform="translate(218.33984375 347.2643125)scale(0.1 -0.1)">
     <use xlink:href="#BitstreamVeraSans-Roman-30"/>
     <use x="63.623046875" xlink:href="#BitstreamVeraSans-Roman-2e"/>
     <use x="95.41015625" xlink:href="#BitstreamVeraSans-Roman-30"/>
     <use x="159.033203125" xlink:href="#BitstreamVeraSans-Roman-2e"/>
     <use x="190.8203125" xlink:href="#BitstreamVeraSans-Roman-30"/>
    </g>
   </g>
  </g>
 </g>
 <defs>
  <clipPath id="p99b4b0da67">
   <rect height="345.6" width="446.4" x="7.2" y="7.2"/>
  </clipPath>
 </defs>
</svg>
