<?xml version="1.0" encoding="utf-8" standalone="no"?>
<!DOCTYPE svg PUBLIC "-//W3C//DTD SVG 1.1//EN"
  "http://www.w3.org/Graphics/SVG/1.1/DTD/svg11.dtd">
<!-- Created with matplotlib (http://matplotlib.org/) -->
<svg height="407pt" version="1.1" viewBox="0 0 460 407" width="460pt" xmlns="http://www.w3.org/2000/svg" xmlns:xlink="http://www.w3.org/1999/xlink">
 <defs>
  <style type="text/css">
*{stroke-linecap:butt;stroke-linejoin:round;}
  </style>
 </defs>
 <g id="figure_1">
  <g id="patch_1">
   <path d="
M0 407.712
L460.8 407.712
L460.8 0
L0 0
z
" style="fill:#ffffff;"/>
  </g>
  <g id="axes_1">
   <g id="patch_2">
    <path d="
M7.2 352.8
L453.6 352.8
L453.6 7.2
L7.2 7.2
z
" style="fill:#ffffff;"/>
   </g>
   <g id="line2d_1">
    <path clip-path="url(#p99b4b0da67)" d="
M-1 343.675
L7.0865 343.675
L7.0865 311.739
L110.091 311.739
L110.091 307.176
L148.978 307.176
L148.978 302.614
L188.603 302.614
L188.603 298.051
L196.876 298.051
L196.876 293.489
L199.222 293.489
L199.222 288.927
L207.127 288.927
L207.127 284.364
L207.696 284.364
L207.696 275.24
L208.689 275.24
L208.689 270.677
L209.069 270.677
L209.069 266.115
L212.662 266.115
L212.662 261.552
L213.008 261.552
L213.008 252.428
L213.176 252.428
L213.286 238.741
L213.314 238.741
L213.314 229.616
L213.888 229.616
L213.888 225.053
L214.016 225.053
L214.016 220.491
L215.073 220.491
L215.073 211.366
L216.11 211.366
L216.11 206.804
L218.354 206.804
L218.354 197.679
L218.546 197.679
L218.546 193.117
L218.754 193.117
L218.754 188.554
L219.606 188.554
L219.713 174.867
L220.9 174.867
L220.9 170.305
L224.756 170.305
L224.858 161.18
L225.364 161.18
L225.364 152.055
L225.775 152.055
L225.775 147.493
L226.49 147.493
L226.49 142.931
L230.37 142.931
L230.37 138.368
L231.941 138.368
L231.941 133.806
L235.712 133.806
L235.712 110.994
L235.991 110.994
L235.991 106.432
L237.125 106.432
L237.225 97.3069
L239.425 97.3069
L239.425 92.7446
L239.842 92.7446
L239.842 88.1822
L240.191 88.1822
L240.191 83.6198
L240.664 83.6198
L240.664 79.0574
L240.941 79.0574
L240.941 74.495
L241.093 74.495
L241.181 65.3703
L241.229 65.3703
L241.229 60.8079
L241.92 60.8079
L241.92 56.2455
L242.358 56.2455
L242.358 51.6832
L244.409 51.6832
L244.409 47.1208
L244.535 47.1208
L244.535 42.5584
L245.555 42.5584
L245.555 37.996
L245.921 37.996
L246.018 28.8713
L246.677 28.8713
L246.677 24.3089
L247.548 24.3089
L247.548 19.7465
L247.781 19.7465
L247.781 15.1842
L250.362 15.1842
L250.362 10.6218
L250.362 10.6218
L453.6 10.6218
L453.6 10.6218" style="fill:none;stroke:#ff0000;stroke-linecap:square;stroke-width:3.0;"/>
   </g>
   <g id="line2d_2">
    <path clip-path="url(#p99b4b0da67)" d="
M238.937 352.8
L238.937 348.238
L242.069 348.238
L242.069 343.675
L244.165 343.675
L244.165 339.113
L245.452 339.113
L245.452 334.55
L246.311 334.55
L246.311 329.988
L246.636 329.988
L246.636 325.426
L246.963 325.426
L247.03 316.301
L247.209 316.301
L247.209 311.739
L248.545 311.739
L248.545 307.176
L249.398 307.176
L249.398 302.614
L250.409 302.614
L250.409 298.051
L250.896 298.051
L250.896 293.489
L251.491 293.489
L251.491 288.927
L255.202 288.927
L255.202 284.364
L255.342 284.364
L255.413 275.24
L255.481 275.24
L255.481 270.677
L257.617 270.677
L257.617 266.115
L258.525 266.115
L258.525 261.552
L259.077 261.552
L259.077 256.99
L259.274 256.99
L259.274 252.428
L260.431 252.428
L260.452 243.303
L261.076 243.303
L261.076 238.741
L262.189 238.741
L262.189 234.178
L262.483 234.178
L262.483 229.616
L263.082 229.616
L263.082 225.053
L263.656 225.053
L263.665 215.929
L263.862 215.929
L263.862 211.366
L264.172 211.366
L264.27 202.242
L264.29 202.242
L264.315 193.117
L264.437 193.117
L264.484 179.43
L264.685 179.43
L264.748 165.743
L265.034 165.743
L265.135 152.055
L265.211 152.055
L265.211 147.493
L265.328 147.493
L265.328 142.931
L265.485 142.931
L265.551 133.806
L265.664 133.806
L265.755 124.681
L265.918 124.681
L265.918 120.119
L266.196 120.119
L266.196 115.556
L266.473 115.556
L266.473 110.994
L266.866 110.994
L266.866 106.432
L267.132 106.432
L267.153 97.3069
L267.764 97.3069
L267.764 92.7446
L268.114 92.7446
L268.114 88.1822
L269.301 88.1822
L269.31 79.0574
L270.375 79.0574
L270.375 74.495
L305.942 74.495
L305.942 69.9327
L313.154 69.9327
L313.154 65.3703
L317.52 65.3703
L317.52 10.6218
L317.52 10.6218
L453.6 10.6218
L453.6 10.6218" style="fill:none;stroke:#00bfbf;stroke-linecap:square;"/>
   </g>
   <g id="line2d_3">
    <path clip-path="url(#p99b4b0da67)" d="
M229.228 352.8
L229.228 348.238
L233.714 348.238
L233.714 343.675
L238.937 343.675
L238.937 339.113
L240.184 339.113
L240.184 334.55
L240.325 334.55
L240.325 329.988
L242.069 329.988
L242.069 325.426
L243.065 325.426
L243.065 320.863
L243.21 320.863
L243.21 316.301
L243.529 316.301
L243.529 311.739
L244.853 311.739
L244.853 307.176
L245.221 307.176
L245.221 302.614
L245.951 302.614
L245.951 298.051
L246.304 298.051
L246.304 293.489
L246.636 293.489
L246.675 284.364
L247.588 284.364
L247.588 279.802
L248.745 279.802
L248.827 270.677
L250.896 270.677
L250.896 266.115
L251.491 266.115
L251.491 261.552
L252.026 261.552
L252.026 256.99
L255.342 256.99
L255.342 252.428
L255.853 252.428
L255.853 247.865
L256.25 247.865
L256.25 243.303
L257.045 243.303
L257.045 238.741
L257.246 238.741
L257.246 234.178
L257.828 234.178
L257.828 229.616
L259.02 229.616
L259.077 220.491
L259.575 220.491
L259.575 215.929
L259.899 215.929
L259.899 211.366
L260.101 211.366
L260.101 206.804
L260.557 206.804
L260.557 202.242
L260.953 202.242
L260.953 197.679
L261.134 197.679
L261.134 193.117
L261.498 193.117
L261.498 188.554
L261.971 188.554
L261.971 183.992
L262.189 183.992
L262.189 179.43
L262.626 179.43
L262.626 174.867
L262.76 174.867
L262.76 170.305
L262.97 170.305
L262.97 165.743
L263.573 165.743
L263.656 156.618
L263.861 156.618
L263.862 147.493
L264.437 147.493
L264.437 142.931
L264.651 142.931
L264.689 133.806
L264.971 133.806
L265.034 120.119
L265.211 120.119
L265.211 115.556
L265.342 115.556
L265.342 110.994
L265.485 110.994
L265.485 106.432
L265.664 106.432
L265.755 97.3069
L266.196 97.3069
L266.196 92.7446
L266.724 92.7446
L266.724 88.1822
L266.968 88.1822
L266.968 83.6198
L267.132 83.6198
L267.132 79.0574
L267.92 79.0574
L267.965 69.9327
L292.921 69.9327
L292.921 65.3703
L301.499 65.3703
L301.499 60.8079
L305.942 60.8079
L305.942 56.2455
L307.963 56.2455
L307.963 51.6832
L313.154 51.6832
L313.154 47.1208
L314.312 47.1208
L314.312 42.5584
L315.497 42.5584
L315.497 37.996
L315.885 37.996
L315.885 33.4337
L317.52 33.4337
L317.52 10.6218
L317.52 10.6218
L453.6 10.6218
L453.6 10.6218" style="fill:none;stroke:#bf00bf;stroke-linecap:square;"/>
   </g>
   <g id="line2d_4">
    <path clip-path="url(#p99b4b0da67)" d="
M229.228 352.8
L229.228 348.238
L230.848 348.238
L230.848 343.675
L231.8 343.675
L231.8 339.113
L234.303 339.113
L234.303 334.55
L234.482 334.55
L234.482 329.988
L235.516 329.988
L235.516 325.426
L236.567 325.426
L236.567 320.863
L238.558 320.863
L238.558 316.301
L238.937 316.301
L238.937 311.739
L240.184 311.739
L240.184 307.176
L240.304 307.176
L240.304 302.614
L241.123 302.614
L241.123 298.051
L241.445 298.051
L241.445 293.489
L241.785 293.489
L241.785 288.927
L242.788 288.927
L242.788 284.364
L243.062 284.364
L243.109 275.24
L243.21 275.24
L243.21 270.677
L243.991 270.677
L244.093 261.552
L244.853 261.552
L244.853 256.99
L245.065 256.99
L245.065 252.428
L246.636 252.428
L246.636 247.865
L248.745 247.865
L248.745 243.303
L249.559 243.303
L249.559 238.741
L252.026 238.741
L252.026 234.178
L254.017 234.178
L254.017 229.616
L254.13 229.616
L254.13 225.053
L255.023 225.053
L255.023 220.491
L255.148 220.491
L255.148 215.929
L256.343 215.929
L256.343 211.366
L257.045 211.366
L257.045 206.804
L257.245 206.804
L257.246 197.679
L257.859 197.679
L257.859 193.117
L258.508 193.117
L258.568 183.992
L258.7 183.992
L258.722 174.867
L259.02 174.867
L259.02 170.305
L260.557 170.305
L260.557 165.743
L261.025 165.743
L261.025 161.18
L261.582 161.18
L261.582 156.618
L261.971 156.618
L261.971 152.055
L262.218 152.055
L262.222 142.931
L262.34 142.931
L262.34 138.368
L262.798 138.368
L262.798 133.806
L262.97 133.806
L262.97 129.244
L263.519 129.244
L263.519 124.681
L263.723 124.681
L263.723 120.119
L263.861 120.119
L263.862 110.994
L264.413 110.994
L264.413 106.432
L264.534 106.432
L264.534 101.869
L264.668 101.869
L264.767 92.7446
L264.801 92.7446
L264.801 88.1822
L264.971 88.1822
L265.072 79.0574
L265.211 79.0574
L265.211 74.495
L265.485 74.495
L265.485 69.9327
L266.956 69.9327
L266.956 65.3703
L288.128 65.3703
L288.128 60.8079
L289.642 60.8079
L289.642 56.2455
L292.921 56.2455
L292.921 51.6832
L293.533 51.6832
L293.616 42.5584
L299.248 42.5584
L299.248 37.996
L301.499 37.996
L301.499 33.4337
L307.003 33.4337
L307.003 28.8713
L307.578 28.8713
L307.578 24.3089
L308.52 24.3089
L308.52 19.7465
L311.56 19.7465
L311.56 15.1842
L315.705 15.1842
L315.705 10.6218
L315.705 10.6218
L453.6 10.6218
L453.6 10.6218" style="fill:none;stroke:#000000;stroke-linecap:square;"/>
   </g>
   <g id="line2d_5">
    <path clip-path="url(#p99b4b0da67)" d="
M225.548 352.8
L225.548 348.238
L225.894 348.238
L225.894 343.675
L228.771 343.675
L228.821 334.55
L228.902 334.55
L228.902 329.988
L229.173 329.988
L229.228 320.863
L229.487 320.863
L229.487 316.301
L229.715 316.301
L229.715 311.739
L230.614 311.739
L230.683 302.614
L230.742 302.614
L230.848 293.489
L230.86 293.489
L230.86 288.927
L231.151 288.927
L231.151 284.364
L231.418 284.364
L231.418 279.802
L231.847 279.802
L231.847 275.24
L232.588 275.24
L232.588 270.677
L232.757 270.677
L232.757 266.115
L233.858 266.115
L233.858 261.552
L234.149 261.552
L234.258 252.428
L235.516 252.428
L235.516 247.865
L236.014 247.865
L236.014 243.303
L236.567 243.303
L236.653 234.178
L236.937 234.178
L236.937 229.616
L238.225 229.616
L238.225 225.053
L238.562 225.053
L238.562 220.491
L238.937 220.491
L238.937 215.929
L239.534 215.929
L239.534 211.366
L240.184 211.366
L240.184 206.804
L240.664 206.804
L240.664 202.242
L240.987 202.242
L240.987 197.679
L241.545 197.679
L241.545 193.117
L241.845 193.117
L241.845 188.554
L242.032 188.554
L242.032 183.992
L242.81 183.992
L242.81 179.43
L243.109 179.43
L243.109 174.867
L243.991 174.867
L243.991 170.305
L244.853 170.305
L244.853 165.743
L245.065 165.743
L245.065 161.18
L246.049 161.18
L246.049 156.618
L246.792 156.618
L246.792 152.055
L247.699 152.055
L247.699 147.493
L248.745 147.493
L248.745 142.931
L248.972 142.931
L248.972 138.368
L249.6 138.368
L249.6 133.806
L250.489 133.806
L250.489 129.244
L251.028 129.244
L251.055 120.119
L251.231 120.119
L251.231 115.556
L251.961 115.556
L251.961 110.994
L253.674 110.994
L253.674 106.432
L254.182 106.432
L254.182 101.869
L254.742 101.869
L254.756 92.7446
L255.063 92.7446
L255.063 88.1822
L256.201 88.1822
L256.201 83.6198
L256.469 83.6198
L256.469 79.0574
L257.045 79.0574
L257.045 74.495
L257.859 74.495
L257.859 69.9327
L258.551 69.9327
L258.551 65.3703
L259.931 65.3703
L259.977 56.2455
L260.138 56.2455
L260.138 51.6832
L260.392 51.6832
L260.392 47.1208
L260.557 47.1208
L260.595 37.996
L260.877 37.996
L260.944 28.8713
L262.453 28.8713
L262.453 24.3089
L263.232 24.3089
L263.232 19.7465
L263.826 19.7465
L263.826 15.1842
L302.79 15.1842
L302.79 10.6218
L302.79 10.6218
L453.6 10.6218
L453.6 10.6218" style="fill:none;stroke:#00bfbf;stroke-linecap:square;"/>
   </g>
   <g id="line2d_6">
    <path clip-path="url(#p99b4b0da67)" d="
M168.096 352.8
L168.096 348.238
L176.102 348.238
L176.102 343.675
L192.812 343.675
L192.812 339.113
L196.67 339.113
L196.67 334.55
L203.677 334.55
L203.677 329.988
L214.31 329.988
L214.31 325.426
L218.344 325.426
L218.344 320.863
L221.4 320.863
L221.4 316.301
L223.298 316.301
L223.298 311.739
L224.091 311.739
L224.186 302.614
L224.369 302.614
L224.369 298.051
L225.117 298.051
L225.173 284.364
L225.295 284.364
L225.36 270.677
L225.862 270.677
L225.925 256.99
L225.995 256.99
L225.995 252.428
L226.235 252.428
L226.312 234.178
L226.4 234.178
L226.4 229.616
L226.55 229.616
L226.55 225.053
L226.666 225.053
L226.666 220.491
L227.504 220.491
L227.504 215.929
L227.648 215.929
L227.648 211.366
L227.818 211.366
L227.818 206.804
L228.204 206.804
L228.204 202.242
L228.902 202.242
L228.961 193.117
L229.053 193.117
L229.053 188.554
L229.228 188.554
L229.251 179.43
L229.428 179.43
L229.428 174.867
L231.488 174.867
L231.488 170.305
L231.772 170.305
L231.782 161.18
L232.314 161.18
L232.409 152.055
L232.579 152.055
L232.579 147.493
L233.115 147.493
L233.115 142.931
L234.96 142.931
L235.054 133.806
L236.13 133.806
L236.13 129.244
L236.498 129.244
L236.498 124.681
L237.265 124.681
L237.265 120.119
L238.655 120.119
L238.655 115.556
L239.283 115.556
L239.283 110.994
L240.184 110.994
L240.259 101.869
L240.592 101.869
L240.664 92.7446
L242.256 92.7446
L242.256 88.1822
L245.555 88.1822
L245.555 83.6198
L249.134 83.6198
L249.134 79.0574
L250.033 79.0574
L250.033 74.495
L250.221 74.495
L250.221 69.9327
L250.634 69.9327
L250.672 60.8079
L250.863 60.8079
L250.863 56.2455
L251.873 56.2455
L251.873 51.6832
L251.994 51.6832
L252.057 42.5584
L252.381 42.5584
L252.381 37.996
L252.695 37.996
L252.695 33.4337
L252.907 33.4337
L252.907 28.8713
L253.473 28.8713
L253.473 24.3089
L254.59 24.3089
L254.593 15.1842
L255.481 15.1842
L255.481 10.6218
L255.481 10.6218
L453.6 10.6218
L453.6 10.6218" style="fill:none;stroke:#bf00bf;stroke-linecap:square;"/>
   </g>
   <g id="line2d_7">
    <path clip-path="url(#p99b4b0da67)" d="
M-1 343.675
L6.91587 343.675
L6.91587 339.113
L21.7807 339.113
L21.7807 334.55
L21.9452 334.55
L21.9452 329.988
L33.8817 329.988
L33.8817 325.426
L122.232 325.426
L122.232 320.863
L207.698 320.863
L207.707 311.739
L208.691 311.739
L208.691 307.176
L212.662 307.176
L212.662 302.614
L213.009 302.614
L213.009 293.489
L213.194 293.489
L213.286 284.364
L213.314 284.364
L213.315 275.24
L215.073 275.24
L215.079 266.115
L216.111 266.115
L216.111 261.552
L218.355 261.552
L218.355 252.428
L218.468 252.428
L218.468 247.865
L218.756 247.865
L218.835 238.741
L219.713 238.741
L219.734 225.053
L220.699 225.053
L220.778 211.366
L220.85 211.366
L220.901 202.242
L221.115 202.242
L221.115 197.679
L221.4 197.679
L221.4 193.117
L222.855 193.117
L222.855 188.554
L223.302 188.554
L223.302 183.992
L224.365 183.992
L224.365 179.43
L224.756 179.43
L224.858 170.305
L225.247 170.305
L225.247 165.743
L225.364 165.743
L225.373 152.055
L225.775 152.055
L225.775 147.493
L226.49 147.493
L226.49 142.931
L230.37 142.931
L230.37 138.368
L231.941 138.368
L231.941 133.806
L235.712 133.806
L235.712 110.994
L237.225 110.994
L237.225 106.432
L239.425 106.432
L239.425 101.869
L239.842 101.869
L239.842 97.3069
L240.664 97.3069
L240.664 92.7446
L241.093 92.7446
L241.181 83.6198
L241.92 83.6198
L241.92 79.0574
L243.687 79.0574
L243.687 74.495
L244.121 74.495
L244.228 65.3703
L244.535 65.3703
L244.535 60.8079
L245.112 60.8079
L245.112 56.2455
L245.555 56.2455
L245.555 51.6832
L245.921 51.6832
L245.921 47.1208
L246.067 47.1208
L246.106 37.996
L246.677 37.996
L246.677 33.4337
L247.781 33.4337
L247.781 28.8713
L249.241 28.8713
L249.254 19.7465
L250.362 19.7465
L250.362 15.1842
L251.269 15.1842
L251.269 10.6218
L251.269 10.6218
L453.6 10.6218
L453.6 10.6218" style="fill:none;stroke:#000000;stroke-linecap:square;"/>
   </g>
   <g id="line2d_8">
    <path clip-path="url(#p99b4b0da67)" d="
M7.0865 352.8
L7.0865 348.238
L7.0865 348.238
L7.0865 348.238
L7.0865 343.675
L7.0865 343.675
L7.0865 343.675
L7.0865 339.113
L7.0865 339.113
L7.0865 339.113
L7.0865 334.55
L7.0865 334.55
L7.0865 334.55
L7.0865 329.988
L7.0865 329.988
L7.0865 329.988
L7.0865 325.426
L7.0865 325.426
L7.0865 325.426
L7.0865 320.863
L148.982 320.863
L148.982 316.301
L193.703 316.301
L193.703 311.739
L207.127 311.739
L207.127 307.176
L207.696 307.176
L207.696 298.051
L208.689 298.051
L208.689 293.489
L212.662 293.489
L212.662 288.927
L213.008 288.927
L213.008 279.802
L213.176 279.802
L213.286 266.115
L213.314 266.115
L213.386 252.428
L214.016 252.428
L214.016 247.865
L214.467 247.865
L214.467 243.303
L215.026 243.303
L215.073 229.616
L215.923 229.616
L215.923 225.053
L216.11 225.053
L216.11 220.491
L217.465 220.491
L217.465 215.929
L217.579 215.929
L217.579 211.366
L217.846 211.366
L217.846 206.804
L218.354 206.804
L218.354 197.679
L218.546 197.679
L218.546 193.117
L218.754 193.117
L218.754 188.554
L219.606 188.554
L219.713 174.867
L220.9 174.867
L220.9 170.305
L224.756 170.305
L224.858 161.18
L225.364 161.18
L225.364 152.055
L225.775 152.055
L225.775 147.493
L226.49 147.493
L226.49 142.931
L230.37 142.931
L230.37 138.368
L231.941 138.368
L231.941 133.806
L235.712 133.806
L235.712 110.994
L235.991 110.994
L235.991 106.432
L237.125 106.432
L237.225 97.3069
L239.425 97.3069
L239.425 92.7446
L239.842 92.7446
L239.842 88.1822
L240.191 88.1822
L240.191 83.6198
L240.664 83.6198
L240.664 79.0574
L240.941 79.0574
L240.941 74.495
L241.093 74.495
L241.181 65.3703
L241.92 65.3703
L241.92 60.8079
L242.358 60.8079
L242.358 56.2455
L243.687 56.2455
L243.687 51.6832
L244.409 51.6832
L244.409 47.1208
L244.535 47.1208
L244.535 42.5584
L245.555 42.5584
L245.555 37.996
L245.921 37.996
L246.018 28.8713
L246.677 28.8713
L246.677 24.3089
L247.548 24.3089
L247.548 19.7465
L247.781 19.7465
L247.781 15.1842
L250.362 15.1842
L250.362 10.6218
L250.362 10.6218
L453.6 10.6218
L453.6 10.6218" style="fill:none;stroke:#00bfbf;stroke-linecap:square;"/>
   </g>
   <g id="matplotlib.axis_1">
    <g id="xtick_1"/>
    <g id="xtick_2">
     <g id="line2d_9">
      <path clip-path="url(#p99b4b0da67)" d="
M59.6175 352.8
L59.6175 7.2" style="fill:none;stroke:#000000;stroke-dasharray:1.000000,3.000000;stroke-dashoffset:0.0;stroke-width:0.5;"/>
     </g>
     <g id="line2d_10">
      <defs>
       <path d="
M0 0
L0 -4" id="m93b0483c22" style="stroke:#000000;stroke-width:0.5;"/>
      </defs>
      <g>
       <use style="stroke:#000000;stroke-width:0.5;" x="59.6174973142" xlink:href="#m93b0483c22" y="352.8"/>
      </g>
     </g>
     <g id="line2d_11">
      <defs>
       <path d="
M0 0
L0 4" id="m741efc42ff" style="stroke:#000000;stroke-width:0.5;"/>
      </defs>
      <g>
       <use style="stroke:#000000;stroke-width:0.5;" x="59.6174973142" xlink:href="#m741efc42ff" y="7.2"/>
      </g>
     </g>
     <g id="text_1">
      <!-- -6 -->
      <defs>
       <path d="
M33.0156 40.375
Q26.375 40.375 22.4844 35.8281
Q18.6094 31.2969 18.6094 23.3906
Q18.6094 15.5312 22.4844 10.9531
Q26.375 6.39062 33.0156 6.39062
Q39.6562 6.39062 43.5312 10.9531
Q47.4062 15.5312 47.4062 23.3906
Q47.4062 31.2969 43.5312 35.8281
Q39.6562 40.375 33.0156 40.375
M52.5938 71.2969
L52.5938 62.3125
Q48.875 64.0625 45.0938 64.9844
Q41.3125 65.9219 37.5938 65.9219
Q27.8281 65.9219 22.6719 59.3281
Q17.5312 52.7344 16.7969 39.4062
Q19.6719 43.6562 24.0156 45.9219
Q28.375 48.1875 33.5938 48.1875
Q44.5781 48.1875 50.9531 41.5156
Q57.3281 34.8594 57.3281 23.3906
Q57.3281 12.1562 50.6875 5.35938
Q44.0469 -1.42188 33.0156 -1.42188
Q20.3594 -1.42188 13.6719 8.26562
Q6.98438 17.9688 6.98438 36.375
Q6.98438 53.6562 15.1875 63.9375
Q23.3906 74.2188 37.2031 74.2188
Q40.9219 74.2188 44.7031 73.4844
Q48.4844 72.75 52.5938 71.2969" id="BitstreamVeraSans-Roman-36"/>
       <path d="
M4.89062 31.3906
L31.2031 31.3906
L31.2031 23.3906
L4.89062 23.3906
z
" id="BitstreamVeraSans-Roman-2d"/>
      </defs>
      <g transform="translate(50.7659348142 371.996875)scale(0.2 -0.2)">
       <use xlink:href="#BitstreamVeraSans-Roman-2d"/>
       <use x="36.083984375" xlink:href="#BitstreamVeraSans-Roman-36"/>
      </g>
     </g>
    </g>
    <g id="xtick_3">
     <g id="line2d_12">
      <path clip-path="url(#p99b4b0da67)" d="
M112.148 352.8
L112.148 7.2" style="fill:none;stroke:#000000;stroke-dasharray:1.000000,3.000000;stroke-dashoffset:0.0;stroke-width:0.5;"/>
     </g>
     <g id="line2d_13">
      <g>
       <use style="stroke:#000000;stroke-width:0.5;" x="112.148497672" xlink:href="#m93b0483c22" y="352.8"/>
      </g>
     </g>
     <g id="line2d_14">
      <g>
       <use style="stroke:#000000;stroke-width:0.5;" x="112.148497672" xlink:href="#m741efc42ff" y="7.2"/>
      </g>
     </g>
     <g id="text_2">
      <!-- -4 -->
      <defs>
       <path d="
M37.7969 64.3125
L12.8906 25.3906
L37.7969 25.3906
z

M35.2031 72.9062
L47.6094 72.9062
L47.6094 25.3906
L58.0156 25.3906
L58.0156 17.1875
L47.6094 17.1875
L47.6094 0
L37.7969 0
L37.7969 17.1875
L4.89062 17.1875
L4.89062 26.7031
z
" id="BitstreamVeraSans-Roman-34"/>
      </defs>
      <g transform="translate(103.228185172 371.996875)scale(0.2 -0.2)">
       <use xlink:href="#BitstreamVeraSans-Roman-2d"/>
       <use x="36.083984375" xlink:href="#BitstreamVeraSans-Roman-34"/>
      </g>
     </g>
    </g>
    <g id="xtick_4">
     <g id="line2d_15">
      <path clip-path="url(#p99b4b0da67)" d="
M164.679 352.8
L164.679 7.2" style="fill:none;stroke:#000000;stroke-dasharray:1.000000,3.000000;stroke-dashoffset:0.0;stroke-width:0.5;"/>
     </g>
     <g id="line2d_16">
      <g>
       <use style="stroke:#000000;stroke-width:0.5;" x="164.67949803" xlink:href="#m93b0483c22" y="352.8"/>
      </g>
     </g>
     <g id="line2d_17">
      <g>
       <use style="stroke:#000000;stroke-width:0.5;" x="164.67949803" xlink:href="#m741efc42ff" y="7.2"/>
      </g>
     </g>
     <g id="text_3">
      <!-- -2 -->
      <defs>
       <path d="
M19.1875 8.29688
L53.6094 8.29688
L53.6094 0
L7.32812 0
L7.32812 8.29688
Q12.9375 14.1094 22.625 23.8906
Q32.3281 33.6875 34.8125 36.5312
Q39.5469 41.8438 41.4219 45.5312
Q43.3125 49.2188 43.3125 52.7812
Q43.3125 58.5938 39.2344 62.25
Q35.1562 65.9219 28.6094 65.9219
Q23.9688 65.9219 18.8125 64.3125
Q13.6719 62.7031 7.8125 59.4219
L7.8125 69.3906
Q13.7656 71.7812 18.9375 73
Q24.125 74.2188 28.4219 74.2188
Q39.75 74.2188 46.4844 68.5469
Q53.2188 62.8906 53.2188 53.4219
Q53.2188 48.9219 51.5312 44.8906
Q49.8594 40.875 45.4062 35.4062
Q44.1875 33.9844 37.6406 27.2188
Q31.1094 20.4531 19.1875 8.29688" id="BitstreamVeraSans-Roman-32"/>
      </defs>
      <g transform="translate(156.19981053 371.996875)scale(0.2 -0.2)">
       <use xlink:href="#BitstreamVeraSans-Roman-2d"/>
       <use x="36.083984375" xlink:href="#BitstreamVeraSans-Roman-32"/>
      </g>
     </g>
    </g>
    <g id="xtick_5">
     <g id="line2d_18">
      <path clip-path="url(#p99b4b0da67)" d="
M217.21 352.8
L217.21 7.2" style="fill:none;stroke:#000000;stroke-dasharray:1.000000,3.000000;stroke-dashoffset:0.0;stroke-width:0.5;"/>
     </g>
     <g id="line2d_19">
      <g>
       <use style="stroke:#000000;stroke-width:0.5;" x="217.210498389" xlink:href="#m93b0483c22" y="352.8"/>
      </g>
     </g>
     <g id="line2d_20">
      <g>
       <use style="stroke:#000000;stroke-width:0.5;" x="217.210498389" xlink:href="#m741efc42ff" y="7.2"/>
      </g>
     </g>
     <g id="text_4">
      <!-- 0 -->
      <defs>
       <path d="
M31.7812 66.4062
Q24.1719 66.4062 20.3281 58.9062
Q16.5 51.4219 16.5 36.375
Q16.5 21.3906 20.3281 13.8906
Q24.1719 6.39062 31.7812 6.39062
Q39.4531 6.39062 43.2812 13.8906
Q47.125 21.3906 47.125 36.375
Q47.125 51.4219 43.2812 58.9062
Q39.4531 66.4062 31.7812 66.4062
M31.7812 74.2188
Q44.0469 74.2188 50.5156 64.5156
Q56.9844 54.8281 56.9844 36.375
Q56.9844 17.9688 50.5156 8.26562
Q44.0469 -1.42188 31.7812 -1.42188
Q19.5312 -1.42188 13.0625 8.26562
Q6.59375 17.9688 6.59375 36.375
Q6.59375 54.8281 13.0625 64.5156
Q19.5312 74.2188 31.7812 74.2188" id="BitstreamVeraSans-Roman-30"/>
      </defs>
      <g transform="translate(212.171435889 371.996875)scale(0.2 -0.2)">
       <use xlink:href="#BitstreamVeraSans-Roman-30"/>
      </g>
     </g>
    </g>
    <g id="xtick_6">
     <g id="line2d_21">
      <path clip-path="url(#p99b4b0da67)" d="
M269.741 352.8
L269.741 7.2" style="fill:none;stroke:#000000;stroke-dasharray:1.000000,3.000000;stroke-dashoffset:0.0;stroke-width:0.5;"/>
     </g>
     <g id="line2d_22">
      <g>
       <use style="stroke:#000000;stroke-width:0.5;" x="269.741498747" xlink:href="#m93b0483c22" y="352.8"/>
      </g>
     </g>
     <g id="line2d_23">
      <g>
       <use style="stroke:#000000;stroke-width:0.5;" x="269.741498747" xlink:href="#m741efc42ff" y="7.2"/>
      </g>
     </g>
     <g id="text_5">
      <!-- 2 -->
      <g transform="translate(265.113373747 371.996875)scale(0.2 -0.2)">
       <use xlink:href="#BitstreamVeraSans-Roman-32"/>
      </g>
     </g>
    </g>
    <g id="xtick_7">
     <g id="line2d_24">
      <path clip-path="url(#p99b4b0da67)" d="
M322.272 352.8
L322.272 7.2" style="fill:none;stroke:#000000;stroke-dasharray:1.000000,3.000000;stroke-dashoffset:0.0;stroke-width:0.5;"/>
     </g>
     <g id="line2d_25">
      <g>
       <use style="stroke:#000000;stroke-width:0.5;" x="322.272499105" xlink:href="#m93b0483c22" y="352.8"/>
      </g>
     </g>
     <g id="line2d_26">
      <g>
       <use style="stroke:#000000;stroke-width:0.5;" x="322.272499105" xlink:href="#m741efc42ff" y="7.2"/>
      </g>
     </g>
     <g id="text_6">
      <!-- 4 -->
      <g transform="translate(316.959999105 371.996875)scale(0.2 -0.2)">
       <use xlink:href="#BitstreamVeraSans-Roman-34"/>
      </g>
     </g>
    </g>
    <g id="xtick_8">
     <g id="line2d_27">
      <path clip-path="url(#p99b4b0da67)" d="
M374.803 352.8
L374.803 7.2" style="fill:none;stroke:#000000;stroke-dasharray:1.000000,3.000000;stroke-dashoffset:0.0;stroke-width:0.5;"/>
     </g>
     <g id="line2d_28">
      <g>
       <use style="stroke:#000000;stroke-width:0.5;" x="374.803499463" xlink:href="#m93b0483c22" y="352.8"/>
      </g>
     </g>
     <g id="line2d_29">
      <g>
       <use style="stroke:#000000;stroke-width:0.5;" x="374.803499463" xlink:href="#m741efc42ff" y="7.2"/>
      </g>
     </g>
     <g id="text_7">
      <!-- 6 -->
      <g transform="translate(369.769124463 371.996875)scale(0.2 -0.2)">
       <use xlink:href="#BitstreamVeraSans-Roman-36"/>
      </g>
     </g>
    </g>
    <g id="xtick_9">
     <g id="line2d_30">
      <path clip-path="url(#p99b4b0da67)" d="
M427.334 352.8
L427.334 7.2" style="fill:none;stroke:#000000;stroke-dasharray:1.000000,3.000000;stroke-dashoffset:0.0;stroke-width:0.5;"/>
     </g>
     <g id="line2d_31">
      <g>
       <use style="stroke:#000000;stroke-width:0.5;" x="427.334499821" xlink:href="#m93b0483c22" y="352.8"/>
      </g>
     </g>
     <g id="line2d_32">
      <g>
       <use style="stroke:#000000;stroke-width:0.5;" x="427.334499821" xlink:href="#m741efc42ff" y="7.2"/>
      </g>
     </g>
     <g id="text_8">
      <!-- 8 -->
      <defs>
       <path d="
M31.7812 34.625
Q24.75 34.625 20.7188 30.8594
Q16.7031 27.0938 16.7031 20.5156
Q16.7031 13.9219 20.7188 10.1562
Q24.75 6.39062 31.7812 6.39062
Q38.8125 6.39062 42.8594 10.1719
Q46.9219 13.9688 46.9219 20.5156
Q46.9219 27.0938 42.8906 30.8594
Q38.875 34.625 31.7812 34.625
M21.9219 38.8125
Q15.5781 40.375 12.0312 44.7188
Q8.5 49.0781 8.5 55.3281
Q8.5 64.0625 14.7188 69.1406
Q20.9531 74.2188 31.7812 74.2188
Q42.6719 74.2188 48.875 69.1406
Q55.0781 64.0625 55.0781 55.3281
Q55.0781 49.0781 51.5312 44.7188
Q48 40.375 41.7031 38.8125
Q48.8281 37.1562 52.7969 32.3125
Q56.7812 27.4844 56.7812 20.5156
Q56.7812 9.90625 50.3125 4.23438
Q43.8438 -1.42188 31.7812 -1.42188
Q19.7344 -1.42188 13.25 4.23438
Q6.78125 9.90625 6.78125 20.5156
Q6.78125 27.4844 10.7812 32.3125
Q14.7969 37.1562 21.9219 38.8125
M18.3125 54.3906
Q18.3125 48.7344 21.8438 45.5625
Q25.3906 42.3906 31.7812 42.3906
Q38.1406 42.3906 41.7188 45.5625
Q45.3125 48.7344 45.3125 54.3906
Q45.3125 60.0625 41.7188 63.2344
Q38.1406 66.4062 31.7812 66.4062
Q25.3906 66.4062 21.8438 63.2344
Q18.3125 60.0625 18.3125 54.3906" id="BitstreamVeraSans-Roman-38"/>
      </defs>
      <g transform="translate(422.334499821 371.996875)scale(0.2 -0.2)">
       <use xlink:href="#BitstreamVeraSans-Roman-38"/>
      </g>
     </g>
    </g>
    <g id="xtick_10"/>
    <g id="xtick_11">
     <g id="line2d_33">
      <defs>
       <path d="
M0 0
L0 -2" id="m177f7580d0" style="stroke:#000000;stroke-width:0.5;"/>
      </defs>
      <g>
       <use style="stroke:#000000;stroke-width:0.5;" x="59.6174973142" xlink:href="#m177f7580d0" y="352.8"/>
      </g>
     </g>
     <g id="line2d_34">
      <defs>
       <path d="
M0 0
L0 2" id="m5284c7e2a0" style="stroke:#000000;stroke-width:0.5;"/>
      </defs>
      <g>
       <use style="stroke:#000000;stroke-width:0.5;" x="59.6174973142" xlink:href="#m5284c7e2a0" y="7.2"/>
      </g>
     </g>
    </g>
    <g id="xtick_12">
     <g id="line2d_35">
      <g>
       <use style="stroke:#000000;stroke-width:0.5;" x="112.148497672" xlink:href="#m177f7580d0" y="352.8"/>
      </g>
     </g>
     <g id="line2d_36">
      <g>
       <use style="stroke:#000000;stroke-width:0.5;" x="112.148497672" xlink:href="#m5284c7e2a0" y="7.2"/>
      </g>
     </g>
    </g>
    <g id="xtick_13">
     <g id="line2d_37">
      <g>
       <use style="stroke:#000000;stroke-width:0.5;" x="164.67949803" xlink:href="#m177f7580d0" y="352.8"/>
      </g>
     </g>
     <g id="line2d_38">
      <g>
       <use style="stroke:#000000;stroke-width:0.5;" x="164.67949803" xlink:href="#m5284c7e2a0" y="7.2"/>
      </g>
     </g>
    </g>
    <g id="xtick_14">
     <g id="line2d_39">
      <g>
       <use style="stroke:#000000;stroke-width:0.5;" x="217.210498389" xlink:href="#m177f7580d0" y="352.8"/>
      </g>
     </g>
     <g id="line2d_40">
      <g>
       <use style="stroke:#000000;stroke-width:0.5;" x="217.210498389" xlink:href="#m5284c7e2a0" y="7.2"/>
      </g>
     </g>
    </g>
    <g id="xtick_15">
     <g id="line2d_41">
      <g>
       <use style="stroke:#000000;stroke-width:0.5;" x="269.741498747" xlink:href="#m177f7580d0" y="352.8"/>
      </g>
     </g>
     <g id="line2d_42">
      <g>
       <use style="stroke:#000000;stroke-width:0.5;" x="269.741498747" xlink:href="#m5284c7e2a0" y="7.2"/>
      </g>
     </g>
    </g>
    <g id="xtick_16">
     <g id="line2d_43">
      <g>
       <use style="stroke:#000000;stroke-width:0.5;" x="322.272499105" xlink:href="#m177f7580d0" y="352.8"/>
      </g>
     </g>
     <g id="line2d_44">
      <g>
       <use style="stroke:#000000;stroke-width:0.5;" x="322.272499105" xlink:href="#m5284c7e2a0" y="7.2"/>
      </g>
     </g>
    </g>
    <g id="xtick_17">
     <g id="line2d_45">
      <g>
       <use style="stroke:#000000;stroke-width:0.5;" x="374.803499463" xlink:href="#m177f7580d0" y="352.8"/>
      </g>
     </g>
     <g id="line2d_46">
      <g>
       <use style="stroke:#000000;stroke-width:0.5;" x="374.803499463" xlink:href="#m5284c7e2a0" y="7.2"/>
      </g>
     </g>
    </g>
    <g id="xtick_18">
     <g id="line2d_47">
      <g>
       <use style="stroke:#000000;stroke-width:0.5;" x="427.334499821" xlink:href="#m177f7580d0" y="352.8"/>
      </g>
     </g>
     <g id="line2d_48">
      <g>
       <use style="stroke:#000000;stroke-width:0.5;" x="427.334499821" xlink:href="#m5284c7e2a0" y="7.2"/>
      </g>
     </g>
    </g>
    <g id="text_9">
     <!-- log10 of Df -->
     <defs>
      <path id="BitstreamVeraSans-Roman-20"/>
      <path d="
M12.4062 8.29688
L28.5156 8.29688
L28.5156 63.9219
L10.9844 60.4062
L10.9844 69.3906
L28.4219 72.9062
L38.2812 72.9062
L38.2812 8.29688
L54.3906 8.29688
L54.3906 0
L12.4062 0
z
" id="BitstreamVeraSans-Roman-31"/>
      <path d="
M30.6094 48.3906
Q23.3906 48.3906 19.1875 42.75
Q14.9844 37.1094 14.9844 27.2969
Q14.9844 17.4844 19.1562 11.8438
Q23.3438 6.20312 30.6094 6.20312
Q37.7969 6.20312 41.9844 11.8594
Q46.1875 17.5312 46.1875 27.2969
Q46.1875 37.0156 41.9844 42.7031
Q37.7969 48.3906 30.6094 48.3906
M30.6094 56
Q42.3281 56 49.0156 48.375
Q55.7188 40.7656 55.7188 27.2969
Q55.7188 13.875 49.0156 6.21875
Q42.3281 -1.42188 30.6094 -1.42188
Q18.8438 -1.42188 12.1719 6.21875
Q5.51562 13.875 5.51562 27.2969
Q5.51562 40.7656 12.1719 48.375
Q18.8438 56 30.6094 56" id="BitstreamVeraSans-Roman-6f"/>
      <path d="
M9.42188 75.9844
L18.4062 75.9844
L18.4062 0
L9.42188 0
z
" id="BitstreamVeraSans-Roman-6c"/>
      <path d="
M19.6719 64.7969
L19.6719 8.10938
L31.5938 8.10938
Q46.6875 8.10938 53.6875 14.9375
Q60.6875 21.7812 60.6875 36.5312
Q60.6875 51.1719 53.6875 57.9844
Q46.6875 64.7969 31.5938 64.7969
z

M9.8125 72.9062
L30.0781 72.9062
Q51.2656 72.9062 61.1719 64.0938
Q71.0938 55.2812 71.0938 36.5312
Q71.0938 17.6719 61.125 8.82812
Q51.1719 0 30.0781 0
L9.8125 0
z
" id="BitstreamVeraSans-Roman-44"/>
      <path d="
M45.4062 27.9844
Q45.4062 37.75 41.375 43.1094
Q37.3594 48.4844 30.0781 48.4844
Q22.8594 48.4844 18.8281 43.1094
Q14.7969 37.75 14.7969 27.9844
Q14.7969 18.2656 18.8281 12.8906
Q22.8594 7.51562 30.0781 7.51562
Q37.3594 7.51562 41.375 12.8906
Q45.4062 18.2656 45.4062 27.9844
M54.3906 6.78125
Q54.3906 -7.17188 48.1875 -13.9844
Q42 -20.7969 29.2031 -20.7969
Q24.4688 -20.7969 20.2656 -20.0938
Q16.0625 -19.3906 12.1094 -17.9219
L12.1094 -9.1875
Q16.0625 -11.3281 19.9219 -12.3438
Q23.7812 -13.375 27.7812 -13.375
Q36.625 -13.375 41.0156 -8.76562
Q45.4062 -4.15625 45.4062 5.17188
L45.4062 9.625
Q42.625 4.78125 38.2812 2.39062
Q33.9375 0 27.875 0
Q17.8281 0 11.6719 7.65625
Q5.51562 15.3281 5.51562 27.9844
Q5.51562 40.6719 11.6719 48.3281
Q17.8281 56 27.875 56
Q33.9375 56 38.2812 53.6094
Q42.625 51.2188 45.4062 46.3906
L45.4062 54.6875
L54.3906 54.6875
z
" id="BitstreamVeraSans-Roman-67"/>
      <path d="
M37.1094 75.9844
L37.1094 68.5
L28.5156 68.5
Q23.6875 68.5 21.7969 66.5469
Q19.9219 64.5938 19.9219 59.5156
L19.9219 54.6875
L34.7188 54.6875
L34.7188 47.7031
L19.9219 47.7031
L19.9219 0
L10.8906 0
L10.8906 47.7031
L2.29688 47.7031
L2.29688 54.6875
L10.8906 54.6875
L10.8906 58.5
Q10.8906 67.625 15.1406 71.7969
Q19.3906 75.9844 28.6094 75.9844
z
" id="BitstreamVeraSans-Roman-66"/>
     </defs>
     <g transform="translate(175.0234375 396.353125)scale(0.2 -0.2)">
      <use xlink:href="#BitstreamVeraSans-Roman-6c"/>
      <use x="27.783203125" xlink:href="#BitstreamVeraSans-Roman-6f"/>
      <use x="88.96484375" xlink:href="#BitstreamVeraSans-Roman-67"/>
      <use x="152.44140625" xlink:href="#BitstreamVeraSans-Roman-31"/>
      <use x="216.064453125" xlink:href="#BitstreamVeraSans-Roman-30"/>
      <use x="279.6875" xlink:href="#BitstreamVeraSans-Roman-20"/>
      <use x="311.474609375" xlink:href="#BitstreamVeraSans-Roman-6f"/>
      <use x="372.65625" xlink:href="#BitstreamVeraSans-Roman-66"/>
      <use x="407.861328125" xlink:href="#BitstreamVeraSans-Roman-20"/>
      <use x="439.6484375" xlink:href="#BitstreamVeraSans-Roman-44"/>
      <use x="516.650390625" xlink:href="#BitstreamVeraSans-Roman-66"/>
     </g>
    </g>
   </g>
   <g id="matplotlib.axis_2">
    <g id="ytick_1">
     <g id="line2d_49">
      <path clip-path="url(#p99b4b0da67)" d="
M7.2 352.8
L453.6 352.8" style="fill:none;stroke:#000000;stroke-dasharray:1.000000,3.000000;stroke-dashoffset:0.0;stroke-width:0.5;"/>
     </g>
     <g id="line2d_50">
      <defs>
       <path d="
M0 0
L4 0" id="m728421d6d4" style="stroke:#000000;stroke-width:0.5;"/>
      </defs>
      <g>
       <use style="stroke:#000000;stroke-width:0.5;" x="7.2" xlink:href="#m728421d6d4" y="352.8"/>
      </g>
     </g>
     <g id="line2d_51">
      <defs>
       <path d="
M0 0
L-4 0" id="mcb0005524f" style="stroke:#000000;stroke-width:0.5;"/>
      </defs>
      <g>
       <use style="stroke:#000000;stroke-width:0.5;" x="453.6" xlink:href="#mcb0005524f" y="352.8"/>
      </g>
     </g>
    </g>
    <g id="ytick_2">
     <g id="line2d_52">
      <path clip-path="url(#p99b4b0da67)" d="
M7.2 284.364
L453.6 284.364" style="fill:none;stroke:#000000;stroke-dasharray:1.000000,3.000000;stroke-dashoffset:0.0;stroke-width:0.5;"/>
     </g>
     <g id="line2d_53">
      <g>
       <use style="stroke:#000000;stroke-width:0.5;" x="7.2" xlink:href="#m728421d6d4" y="284.364356436"/>
      </g>
     </g>
     <g id="line2d_54">
      <g>
       <use style="stroke:#000000;stroke-width:0.5;" x="453.6" xlink:href="#mcb0005524f" y="284.364356436"/>
      </g>
     </g>
    </g>
    <g id="ytick_3">
     <g id="line2d_55">
      <path clip-path="url(#p99b4b0da67)" d="
M7.2 215.929
L453.6 215.929" style="fill:none;stroke:#000000;stroke-dasharray:1.000000,3.000000;stroke-dashoffset:0.0;stroke-width:0.5;"/>
     </g>
     <g id="line2d_56">
      <g>
       <use style="stroke:#000000;stroke-width:0.5;" x="7.2" xlink:href="#m728421d6d4" y="215.928712871"/>
      </g>
     </g>
     <g id="line2d_57">
      <g>
       <use style="stroke:#000000;stroke-width:0.5;" x="453.6" xlink:href="#mcb0005524f" y="215.928712871"/>
      </g>
     </g>
    </g>
    <g id="ytick_4">
     <g id="line2d_58">
      <path clip-path="url(#p99b4b0da67)" d="
M7.2 147.493
L453.6 147.493" style="fill:none;stroke:#000000;stroke-dasharray:1.000000,3.000000;stroke-dashoffset:0.0;stroke-width:0.5;"/>
     </g>
     <g id="line2d_59">
      <g>
       <use style="stroke:#000000;stroke-width:0.5;" x="7.2" xlink:href="#m728421d6d4" y="147.493069307"/>
      </g>
     </g>
     <g id="line2d_60">
      <g>
       <use style="stroke:#000000;stroke-width:0.5;" x="453.6" xlink:href="#mcb0005524f" y="147.493069307"/>
      </g>
     </g>
    </g>
    <g id="ytick_5">
     <g id="line2d_61">
      <path clip-path="url(#p99b4b0da67)" d="
M7.2 79.0574
L453.6 79.0574" style="fill:none;stroke:#000000;stroke-dasharray:1.000000,3.000000;stroke-dashoffset:0.0;stroke-width:0.5;"/>
     </g>
     <g id="line2d_62">
      <g>
       <use style="stroke:#000000;stroke-width:0.5;" x="7.2" xlink:href="#m728421d6d4" y="79.0574257426"/>
      </g>
     </g>
     <g id="line2d_63">
      <g>
       <use style="stroke:#000000;stroke-width:0.5;" x="453.6" xlink:href="#mcb0005524f" y="79.0574257426"/>
      </g>
     </g>
    </g>
    <g id="ytick_6">
     <g id="line2d_64">
      <path clip-path="url(#p99b4b0da67)" d="
M7.2 10.6218
L453.6 10.6218" style="fill:none;stroke:#000000;stroke-dasharray:1.000000,3.000000;stroke-dashoffset:0.0;stroke-width:0.5;"/>
     </g>
     <g id="line2d_65">
      <g>
       <use style="stroke:#000000;stroke-width:0.5;" x="7.2" xlink:href="#m728421d6d4" y="10.6217821782"/>
      </g>
     </g>
     <g id="line2d_66">
      <g>
       <use style="stroke:#000000;stroke-width:0.5;" x="453.6" xlink:href="#mcb0005524f" y="10.6217821782"/>
      </g>
     </g>
    </g>
   </g>
   <g id="patch_3">
    <path d="
M7.2 7.2
L453.6 7.2" style="fill:none;stroke:#000000;"/>
   </g>
   <g id="patch_4">
    <path d="
M453.6 352.8
L453.6 7.2" style="fill:none;stroke:#000000;"/>
   </g>
   <g id="patch_5">
    <path d="
M7.2 352.8
L453.6 352.8" style="fill:none;stroke:#000000;"/>
   </g>
   <g id="patch_6">
    <path d="
M7.2 352.8
L7.2 7.2" style="fill:none;stroke:#000000;"/>
   </g>
   <g id="text_10">
    <!-- {f20-f24}, 5-D -->
    <defs>
     <path d="
M12.5 -9.28125
L15.9219 -9.28125
Q22.75 -9.28125 24.8281 -7.17188
Q26.9062 -5.07812 26.9062 1.90625
L26.9062 14.0156
Q26.9062 21.625 29.0938 25.0938
Q31.2969 28.5625 36.7188 29.8906
Q31.2969 31.1094 29.0938 34.5625
Q26.9062 38.0312 26.9062 45.7031
L26.9062 57.8125
Q26.9062 64.75 24.8281 66.875
Q22.75 69 15.9219 69
L12.5 69
L12.5 75.9844
L15.5781 75.9844
Q27.7344 75.9844 31.8125 72.3906
Q35.8906 68.7969 35.8906 58.0156
L35.8906 46.2969
Q35.8906 39.0156 38.5156 36.2031
Q41.1562 33.4062 48.0938 33.4062
L51.125 33.4062
L51.125 26.4219
L48.0938 26.4219
Q41.1562 26.4219 38.5156 23.5781
Q35.8906 20.75 35.8906 13.375
L35.8906 1.70312
Q35.8906 -9.07812 31.8125 -12.6875
Q27.7344 -16.3125 15.5781 -16.3125
L12.5 -16.3125
z
" id="BitstreamVeraSans-Roman-7d"/>
     <path d="
M51.125 -9.28125
L51.125 -16.3125
L48.0938 -16.3125
Q35.9375 -16.3125 31.8125 -12.6875
Q27.6875 -9.07812 27.6875 1.70312
L27.6875 13.375
Q27.6875 20.75 25.0469 23.5781
Q22.4062 26.4219 15.4844 26.4219
L12.5 26.4219
L12.5 33.4062
L15.4844 33.4062
Q22.4688 33.4062 25.0781 36.2031
Q27.6875 39.0156 27.6875 46.2969
L27.6875 58.0156
Q27.6875 68.7969 31.8125 72.3906
Q35.9375 75.9844 48.0938 75.9844
L51.125 75.9844
L51.125 69
L47.7969 69
Q40.9219 69 38.8125 66.8438
Q36.7188 64.7031 36.7188 57.8125
L36.7188 45.7031
Q36.7188 38.0312 34.5 34.5625
Q32.2812 31.1094 26.9062 29.8906
Q32.3281 28.5625 34.5156 25.0938
Q36.7188 21.625 36.7188 14.0156
L36.7188 1.90625
Q36.7188 -4.98438 38.8125 -7.125
Q40.9219 -9.28125 47.7969 -9.28125
z
" id="BitstreamVeraSans-Roman-7b"/>
     <path d="
M11.7188 12.4062
L22.0156 12.4062
L22.0156 4
L14.0156 -11.625
L7.71875 -11.625
L11.7188 4
z
" id="BitstreamVeraSans-Roman-2c"/>
     <path d="
M10.7969 72.9062
L49.5156 72.9062
L49.5156 64.5938
L19.8281 64.5938
L19.8281 46.7344
Q21.9688 47.4688 24.1094 47.8281
Q26.2656 48.1875 28.4219 48.1875
Q40.625 48.1875 47.75 41.5
Q54.8906 34.8125 54.8906 23.3906
Q54.8906 11.625 47.5625 5.09375
Q40.2344 -1.42188 26.9062 -1.42188
Q22.3125 -1.42188 17.5469 -0.640625
Q12.7969 0.140625 7.71875 1.70312
L7.71875 11.625
Q12.1094 9.23438 16.7969 8.0625
Q21.4844 6.89062 26.7031 6.89062
Q35.1562 6.89062 40.0781 11.3281
Q45.0156 15.7656 45.0156 23.3906
Q45.0156 31 40.0781 35.4375
Q35.1562 39.8906 26.7031 39.8906
Q22.75 39.8906 18.8125 39.0156
Q14.8906 38.1406 10.7969 36.2812
z
" id="BitstreamVeraSans-Roman-35"/>
    </defs>
    <g transform="translate(300.15325 345.888)scale(0.2 -0.2)">
     <use xlink:href="#BitstreamVeraSans-Roman-7b"/>
     <use x="63.623046875" xlink:href="#BitstreamVeraSans-Roman-66"/>
     <use x="98.828125" xlink:href="#BitstreamVeraSans-Roman-32"/>
     <use x="162.451171875" xlink:href="#BitstreamVeraSans-Roman-30"/>
     <use x="226.07421875" xlink:href="#BitstreamVeraSans-Roman-2d"/>
     <use x="262.158203125" xlink:href="#BitstreamVeraSans-Roman-66"/>
     <use x="297.36328125" xlink:href="#BitstreamVeraSans-Roman-32"/>
     <use x="360.986328125" xlink:href="#BitstreamVeraSans-Roman-34"/>
     <use x="424.609375" xlink:href="#BitstreamVeraSans-Roman-7d"/>
     <use x="488.232421875" xlink:href="#BitstreamVeraSans-Roman-2c"/>
     <use x="520.01953125" xlink:href="#BitstreamVeraSans-Roman-20"/>
     <use x="551.806640625" xlink:href="#BitstreamVeraSans-Roman-35"/>
     <use x="615.4296875" xlink:href="#BitstreamVeraSans-Roman-2d"/>
     <use x="651.513671875" xlink:href="#BitstreamVeraSans-Roman-44"/>
    </g>
   </g>
   <g id="text_11">
    <!-- 0.0.0 -->
    <defs>
     <path d="
M10.6875 12.4062
L21 12.4062
L21 0
L10.6875 0
z
" id="BitstreamVeraSans-Roman-2e"/>
    </defs>
    <g style="fill:#808080;" transform="translate(218.33984375 347.2643125)scale(0.1 -0.1)">
     <use xlink:href="#BitstreamVeraSans-Roman-30"/>
     <use x="63.623046875" xlink:href="#BitstreamVeraSans-Roman-2e"/>
     <use x="95.41015625" xlink:href="#BitstreamVeraSans-Roman-30"/>
     <use x="159.033203125" xlink:href="#BitstreamVeraSans-Roman-2e"/>
     <use x="190.8203125" xlink:href="#BitstreamVeraSans-Roman-30"/>
    </g>
   </g>
  </g>
 </g>
 <defs>
  <clipPath id="p99b4b0da67">
   <rect height="345.6" width="446.4" x="7.2" y="7.2"/>
  </clipPath>
 </defs>
</svg>
