<?xml version="1.0" encoding="utf-8" standalone="no"?>
<!DOCTYPE svg PUBLIC "-//W3C//DTD SVG 1.1//EN"
  "http://www.w3.org/Graphics/SVG/1.1/DTD/svg11.dtd">
<!-- Created with matplotlib (http://matplotlib.org/) -->
<svg height="407pt" version="1.1" viewBox="0 0 460 407" width="460pt" xmlns="http://www.w3.org/2000/svg" xmlns:xlink="http://www.w3.org/1999/xlink">
 <defs>
  <style type="text/css">
*{stroke-linecap:butt;stroke-linejoin:round;}
  </style>
 </defs>
 <g id="figure_1">
  <g id="patch_1">
   <path d="
M0 407.712
L460.8 407.712
L460.8 0
L0 0
z
" style="fill:#ffffff;"/>
  </g>
  <g id="axes_1">
   <g id="patch_2">
    <path d="
M7.2 352.8
L453.6 352.8
L453.6 7.2
L7.2 7.2
z
" style="fill:#ffffff;"/>
   </g>
   <g id="line2d_1">
    <path clip-path="url(#p99b4b0da67)" d="
M7.0865 352.8
L7.0865 348.238
L7.0865 348.238
L7.0865 348.238
L7.0865 343.675
L7.0865 343.675
L7.0865 343.675
L7.0865 339.113
L7.0865 339.113
L7.0865 339.113
L7.0865 334.55
L7.0865 334.55
L7.0865 334.55
L7.0865 329.988
L7.0865 329.988
L7.0865 329.988
L7.0865 325.426
L211.608 325.426
L211.608 320.863
L212.147 320.863
L212.147 316.301
L212.493 316.301
L212.493 311.739
L212.662 311.739
L212.662 307.176
L213.008 307.176
L213.008 293.489
L214.08 293.489
L214.08 284.364
L214.372 284.364
L214.372 279.802
L214.798 279.802
L214.798 275.24
L215.604 275.24
L215.604 270.677
L215.732 270.677
L215.732 266.115
L215.985 266.115
L215.985 256.99
L216.596 256.99
L216.596 252.428
L217.509 252.428
L217.509 247.865
L218.754 247.865
L218.754 243.303
L219.713 243.303
L219.713 238.741
L222.247 238.741
L222.247 234.178
L223.934 234.178
L223.934 229.616
L224.231 229.616
L224.231 225.053
L224.45 225.053
L224.45 220.491
L224.858 220.491
L224.858 193.117
L225.114 193.117
L225.114 188.554
L225.775 188.554
L225.883 179.43
L226.958 179.43
L226.958 174.867
L227.089 174.867
L227.189 161.18
L227.539 161.18
L227.539 156.618
L227.687 156.618
L227.687 152.055
L227.954 152.055
L227.954 147.493
L228.208 147.493
L228.315 133.806
L228.363 133.806
L228.387 124.681
L235.712 124.681
L235.712 110.994
L239.425 110.994
L239.425 106.432
L239.842 106.432
L239.914 97.3069
L241.499 97.3069
L241.499 92.7446
L241.943 92.7446
L241.943 88.1822
L250.362 88.1822
L250.362 83.6198
L251.677 83.6198
L251.677 79.0574
L269.91 79.0574
L269.91 74.495
L270.569 74.495
L270.569 69.9327
L271.753 69.9327
L271.753 65.3703
L271.967 65.3703
L272.018 56.2455
L272.285 56.2455
L272.327 42.5584
L272.606 42.5584
L272.606 37.996
L272.807 37.996
L272.887 28.8713
L272.972 28.8713
L272.972 24.3089
L273.282 24.3089
L273.282 19.7465
L273.957 19.7465
L273.957 15.1842
L274.083 15.1842
L274.083 10.6218
L274.083 10.6218
L453.6 10.6218
L453.6 10.6218" style="fill:none;stroke:#ff0000;stroke-linecap:square;stroke-width:3.0;"/>
   </g>
   <g id="line2d_2">
    <path clip-path="url(#p99b4b0da67)" d="
M235.976 352.8
L235.976 348.238
L236.916 348.238
L236.916 343.675
L238.642 343.675
L238.642 339.113
L238.848 339.113
L238.891 329.988
L241.141 329.988
L241.205 320.863
L241.614 320.863
L241.614 316.301
L242.323 316.301
L242.323 311.739
L242.617 311.739
L242.698 302.614
L242.755 302.614
L242.755 298.051
L244.093 298.051
L244.093 293.489
L244.938 293.489
L244.938 288.927
L247.119 288.927
L247.119 284.364
L264.498 284.364
L264.498 279.802
L265.273 279.802
L265.273 275.24
L265.802 275.24
L265.802 270.677
L266.365 270.677
L266.365 266.115
L266.627 266.115
L266.736 234.178
L266.777 234.178
L266.858 220.491
L266.894 220.491
L266.94 206.804
L267.065 206.804
L267.085 197.679
L267.264 197.679
L267.319 183.992
L267.448 183.992
L267.557 161.18
L267.587 161.18
L267.666 152.055
L267.709 152.055
L267.709 147.493
L280.07 147.493
L280.07 142.931
L281.101 142.931
L281.101 138.368
L281.698 138.368
L281.698 133.806
L282.019 133.806
L282.019 129.244
L282.412 129.244
L282.45 120.119
L282.534 120.119
L282.582 110.994
L282.761 110.994
L282.761 106.432
L282.881 106.432
L282.94 97.3069
L283.019 97.3069
L283.019 92.7446
L283.149 92.7446
L283.149 88.1822
L283.776 88.1822
L283.776 83.6198
L284.023 83.6198
L284.023 79.0574
L299.117 79.0574
L299.117 74.495
L320.347 74.495
L320.347 69.9327
L321.817 69.9327
L321.817 65.3703
L326.976 65.3703
L326.976 60.8079
L327.365 60.8079
L327.365 56.2455
L329.178 56.2455
L329.178 10.6218
L329.178 10.6218
L453.6 10.6218
L453.6 10.6218" style="fill:none;stroke:#00bfbf;stroke-linecap:square;"/>
   </g>
   <g id="line2d_3">
    <path clip-path="url(#p99b4b0da67)" d="
M235.042 352.8
L235.042 348.238
L235.782 348.238
L235.782 343.675
L235.976 343.675
L235.976 339.113
L236.916 339.113
L236.916 334.55
L237.603 334.55
L237.603 329.988
L238.214 329.988
L238.214 325.426
L238.642 325.426
L238.642 320.863
L238.848 320.863
L238.891 311.739
L239.517 311.739
L239.517 307.176
L240.151 307.176
L240.151 302.614
L240.787 302.614
L240.787 298.051
L241.141 298.051
L241.141 293.489
L241.472 293.489
L241.472 288.927
L242.498 288.927
L242.498 284.364
L264.498 284.364
L264.498 279.802
L265.273 279.802
L265.273 275.24
L265.525 275.24
L265.525 270.677
L265.77 270.677
L265.77 266.115
L265.987 266.115
L266.004 256.99
L266.164 256.99
L266.271 238.741
L266.451 238.741
L266.547 220.491
L266.592 220.491
L266.703 202.242
L266.736 202.242
L266.792 193.117
L266.894 193.117
L266.982 179.43
L267.132 179.43
L267.191 170.305
L267.253 170.305
L267.316 152.055
L267.384 152.055
L267.384 147.493
L280.07 147.493
L280.07 142.931
L280.428 142.931
L280.428 138.368
L280.864 138.368
L280.864 133.806
L281.101 133.806
L281.101 129.244
L281.691 129.244
L281.691 124.681
L282.019 124.681
L282.074 115.556
L282.45 115.556
L282.534 106.432
L282.582 106.432
L282.582 101.869
L282.761 101.869
L282.761 97.3069
L282.881 97.3069
L282.881 92.7446
L283.013 92.7446
L283.013 88.1822
L283.149 88.1822
L283.149 83.6198
L283.498 83.6198
L283.498 79.0574
L299.117 79.0574
L299.117 74.495
L312.581 74.495
L312.581 69.9327
L315.314 69.9327
L315.314 65.3703
L319.245 65.3703
L319.245 60.8079
L319.551 60.8079
L319.551 56.2455
L319.892 56.2455
L319.892 51.6832
L326.725 51.6832
L326.732 42.5584
L329.062 42.5584
L329.062 37.996
L329.178 37.996
L329.178 10.6218
L329.178 10.6218
L453.6 10.6218
L453.6 10.6218" style="fill:none;stroke:#bf00bf;stroke-linecap:square;"/>
   </g>
   <g id="line2d_4">
    <path clip-path="url(#p99b4b0da67)" d="
M233.848 352.8
L233.848 348.238
L235.042 348.238
L235.042 343.675
L235.219 343.675
L235.219 339.113
L235.782 339.113
L235.782 334.55
L235.976 334.55
L235.976 329.988
L236.262 329.988
L236.326 320.863
L236.885 320.863
L236.916 311.739
L237.591 311.739
L237.603 302.614
L238.202 302.614
L238.214 293.489
L238.504 293.489
L238.504 288.927
L240.151 288.927
L240.151 284.364
L262.65 284.364
L262.65 279.802
L263.448 279.802
L263.448 275.24
L264.322 275.24
L264.322 270.677
L264.498 270.677
L264.498 266.115
L264.945 266.115
L264.945 261.552
L265.114 261.552
L265.114 256.99
L265.278 256.99
L265.278 252.428
L265.409 252.428
L265.409 247.865
L265.534 247.865
L265.641 238.741
L265.705 238.741
L265.705 234.178
L265.867 234.178
L265.977 220.491
L266.058 220.491
L266.168 211.366
L266.21 211.366
L266.236 202.242
L266.372 202.242
L266.473 183.992
L266.537 183.992
L266.614 161.18
L266.683 161.18
L266.683 156.618
L266.82 156.618
L266.82 152.055
L267.104 152.055
L267.104 147.493
L280.007 147.493
L280.07 138.368
L280.273 138.368
L280.273 133.806
L280.428 133.806
L280.428 129.244
L280.864 129.244
L280.864 124.681
L281.101 124.681
L281.101 120.119
L281.519 120.119
L281.519 115.556
L281.691 115.556
L281.691 110.994
L282.019 110.994
L282.019 106.432
L282.45 106.432
L282.534 97.3069
L282.582 97.3069
L282.663 88.1822
L282.761 88.1822
L282.761 83.6198
L282.881 83.6198
L282.881 79.0574
L291.128 79.0574
L291.128 74.495
L299.884 74.495
L299.884 69.9327
L304.375 69.9327
L304.375 65.3703
L309.804 65.3703
L309.804 60.8079
L312.357 60.8079
L312.357 56.2455
L313.554 56.2455
L313.554 51.6832
L315.314 51.6832
L315.314 47.1208
L318.37 47.1208
L318.37 42.5584
L319.149 42.5584
L319.243 33.4337
L319.551 33.4337
L319.551 28.8713
L323.825 28.8713
L323.825 24.3089
L326.725 24.3089
L326.725 19.7465
L327.231 19.7465
L327.231 15.1842
L329.178 15.1842
L329.178 10.6218
L329.178 10.6218
L453.6 10.6218
L453.6 10.6218" style="fill:none;stroke:#000000;stroke-linecap:square;"/>
   </g>
   <g id="line2d_5">
    <path clip-path="url(#p99b4b0da67)" d="
M232.234 352.8
L232.234 348.238
L233.415 348.238
L233.426 339.113
L233.554 339.113
L233.554 334.55
L233.848 334.55
L233.848 329.988
L234.921 329.988
L234.921 325.426
L235.042 325.426
L235.042 320.863
L235.219 320.863
L235.219 316.301
L235.566 316.301
L235.566 311.739
L235.835 311.739
L235.835 307.176
L236.262 307.176
L236.262 302.614
L236.635 302.614
L236.635 298.051
L237.036 298.051
L237.036 293.489
L237.196 293.489
L237.196 288.927
L238.504 288.927
L238.504 284.364
L249.999 284.364
L249.999 279.802
L255.19 279.802
L255.19 275.24
L257.888 275.24
L257.888 270.677
L258.414 270.677
L258.414 266.115
L259.51 266.115
L259.51 261.552
L260.592 261.552
L260.696 252.428
L261.085 252.428
L261.085 247.865
L261.657 247.865
L261.657 243.303
L261.829 243.303
L261.829 238.741
L261.973 238.741
L261.973 234.178
L262.182 234.178
L262.182 229.616
L262.481 229.616
L262.534 220.491
L263.195 220.491
L263.304 206.804
L263.575 206.804
L263.678 197.679
L263.774 197.679
L263.774 193.117
L264.117 193.117
L264.117 188.554
L264.968 188.554
L265.016 170.305
L265.22 170.305
L265.278 161.18
L265.534 161.18
L265.641 152.055
L265.663 152.055
L265.663 147.493
L279.584 147.493
L279.584 142.931
L280.007 142.931
L280.07 133.806
L280.428 133.806
L280.428 129.244
L280.864 129.244
L280.864 124.681
L281.101 124.681
L281.101 120.119
L281.238 120.119
L281.238 115.556
L281.445 115.556
L281.445 110.994
L281.691 110.994
L281.691 106.432
L282.019 106.432
L282.019 101.869
L282.271 101.869
L282.271 97.3069
L282.45 97.3069
L282.534 83.6198
L282.635 83.6198
L282.635 79.0574
L289.77 79.0574
L289.77 74.495
L291.128 74.495
L291.128 69.9327
L295.719 69.9327
L295.719 65.3703
L299.884 65.3703
L299.884 60.8079
L303.096 60.8079
L303.096 56.2455
L303.537 56.2455
L303.537 51.6832
L305.399 51.6832
L305.482 42.5584
L306.213 42.5584
L306.213 37.996
L309.778 37.996
L309.778 33.4337
L310.174 33.4337
L310.174 28.8713
L311.941 28.8713
L311.941 24.3089
L315.083 24.3089
L315.083 19.7465
L316.191 19.7465
L316.191 15.1842
L317.6 15.1842
L317.6 10.6218
L317.6 10.6218
L453.6 10.6218
L453.6 10.6218" style="fill:none;stroke:#00bfbf;stroke-linecap:square;"/>
   </g>
   <g id="line2d_6">
    <path clip-path="url(#p99b4b0da67)" d="
M230.821 352.8
L230.821 348.238
L231.647 348.238
L231.647 343.675
L231.807 343.675
L231.807 339.113
L232.224 339.113
L232.224 334.55
L232.346 334.55
L232.44 325.426
L232.776 325.426
L232.776 320.863
L232.971 320.863
L232.971 316.301
L233.11 316.301
L233.217 307.176
L233.263 307.176
L233.263 302.614
L233.415 302.614
L233.426 293.489
L233.554 293.489
L233.554 288.927
L233.848 288.927
L233.848 284.364
L234.599 284.364
L234.599 279.802
L234.712 279.802
L234.712 275.24
L236.146 275.24
L236.146 270.677
L238.229 270.677
L238.229 266.115
L239.578 266.115
L239.578 261.552
L239.922 261.552
L239.922 256.99
L240.441 256.99
L240.441 252.428
L240.766 252.428
L240.766 247.865
L241.073 247.865
L241.073 243.303
L241.271 243.303
L241.271 238.741
L241.491 238.741
L241.491 234.178
L241.886 234.178
L241.9 225.053
L242.091 225.053
L242.091 220.491
L242.877 220.491
L242.877 215.929
L243.171 215.929
L243.182 206.804
L244.98 206.804
L244.98 202.242
L245.411 202.242
L245.411 197.679
L245.957 197.679
L245.957 193.117
L247.042 193.117
L247.042 188.554
L247.627 188.554
L247.627 183.992
L248.51 183.992
L248.51 179.43
L250.494 179.43
L250.494 174.867
L251.394 174.867
L251.394 170.305
L251.873 170.305
L251.873 165.743
L252.608 165.743
L252.608 161.18
L253.271 161.18
L253.271 156.618
L253.906 156.618
L253.906 152.055
L254.43 152.055
L254.43 147.493
L255.693 147.493
L255.693 142.931
L255.965 142.931
L255.965 138.368
L256.171 138.368
L256.171 133.806
L256.365 133.806
L256.365 129.244
L258.857 129.244
L258.857 124.681
L259.796 124.681
L259.796 120.119
L260.195 120.119
L260.195 115.556
L260.927 115.556
L260.927 110.994
L261.216 110.994
L261.216 106.432
L269.189 106.432
L269.189 101.869
L274.514 101.869
L274.514 97.3069
L275.592 97.3069
L275.592 92.7446
L275.982 92.7446
L275.982 88.1822
L276.305 88.1822
L276.305 83.6198
L276.968 83.6198
L276.968 79.0574
L277.203 79.0574
L277.203 74.495
L277.322 74.495
L277.322 69.9327
L278.124 69.9327
L278.213 60.8079
L278.372 60.8079
L278.465 37.996
L278.538 37.996
L278.538 33.4337
L278.933 33.4337
L279.009 24.3089
L279.166 24.3089
L279.166 19.7465
L280.252 19.7465
L280.252 15.1842
L280.646 15.1842
L280.646 10.6218
L280.646 10.6218
L453.6 10.6218
L453.6 10.6218" style="fill:none;stroke:#bf00bf;stroke-linecap:square;"/>
   </g>
   <g id="line2d_7">
    <path clip-path="url(#p99b4b0da67)" d="
M73.7785 352.8
L73.7785 348.238
L81.1898 348.238
L81.1898 343.675
L81.4721 343.675
L81.4721 339.113
L87.4999 339.113
L87.4999 334.55
L88.004 334.55
L88.004 329.988
L213.066 329.988
L213.088 320.863
L220.255 320.863
L220.255 316.301
L221.186 316.301
L221.246 307.176
L221.961 307.176
L221.961 302.614
L222.164 302.614
L222.255 293.489
L222.439 293.489
L222.439 288.927
L222.737 288.927
L222.737 284.364
L223.557 284.364
L223.557 279.802
L223.947 279.802
L224.056 270.677
L224.153 270.677
L224.171 261.552
L224.472 261.552
L224.472 256.99
L224.86 256.99
L224.861 238.741
L224.991 238.741
L224.991 234.178
L225.115 234.178
L225.115 229.616
L225.346 229.616
L225.346 225.053
L225.779 225.053
L225.779 220.491
L227.089 220.491
L227.089 215.929
L227.545 215.929
L227.545 211.366
L228.078 211.366
L228.079 202.242
L228.218 202.242
L228.218 197.679
L228.66 197.679
L228.66 193.117
L229.137 193.117
L229.137 188.554
L229.498 188.554
L229.498 183.992
L229.653 183.992
L229.738 174.867
L229.903 174.867
L229.903 170.305
L230.743 170.305
L230.743 165.743
L230.907 165.743
L230.907 161.18
L231.342 161.18
L231.441 152.055
L231.457 152.055
L231.457 147.493
L231.62 147.493
L231.658 138.368
L235.73 138.368
L235.756 124.681
L238.117 124.681
L238.117 120.119
L238.872 120.119
L238.872 115.556
L239.436 115.556
L239.436 110.994
L241.506 110.994
L241.506 106.432
L241.946 106.432
L241.946 101.869
L244.695 101.869
L244.695 97.3069
L247.784 97.3069
L247.784 92.7446
L250.075 92.7446
L250.075 88.1822
L250.387 88.1822
L250.387 83.6198
L251.679 83.6198
L251.679 79.0574
L269.91 79.0574
L269.91 74.495
L272.285 74.495
L272.378 56.2455
L272.792 56.2455
L272.792 51.6832
L272.972 51.6832
L272.972 47.1208
L273.542 47.1208
L273.542 42.5584
L274.16 42.5584
L274.16 37.996
L274.492 37.996
L274.587 19.7465
L274.958 19.7465
L274.958 15.1842
L275.71 15.1842
L275.71 10.6218
L275.71 10.6218
L453.6 10.6218
L453.6 10.6218" style="fill:none;stroke:#000000;stroke-linecap:square;"/>
   </g>
   <g id="line2d_8">
    <path clip-path="url(#p99b4b0da67)" d="
M7.0865 352.8
L7.0865 348.238
L7.0865 348.238
L7.0865 348.238
L7.0865 343.675
L7.0865 343.675
L7.0865 343.675
L7.0865 339.113
L7.0865 339.113
L7.0865 339.113
L7.0865 334.55
L7.0865 334.55
L7.0865 334.55
L7.0865 329.988
L7.0865 329.988
L7.0865 329.988
L7.0865 325.426
L211.608 325.426
L211.608 320.863
L212.147 320.863
L212.147 316.301
L212.493 316.301
L212.493 311.739
L212.662 311.739
L212.662 307.176
L213.008 307.176
L213.008 293.489
L214.08 293.489
L214.08 284.364
L214.372 284.364
L214.372 279.802
L214.798 279.802
L214.798 275.24
L215.604 275.24
L215.604 270.677
L215.732 270.677
L215.732 266.115
L215.985 266.115
L215.985 256.99
L216.596 256.99
L216.596 252.428
L217.509 252.428
L217.509 247.865
L218.754 247.865
L218.754 243.303
L219.713 243.303
L219.713 238.741
L222.247 238.741
L222.247 234.178
L223.934 234.178
L223.934 229.616
L224.231 229.616
L224.231 225.053
L224.45 225.053
L224.45 220.491
L224.858 220.491
L224.858 193.117
L225.114 193.117
L225.114 188.554
L225.775 188.554
L225.883 179.43
L226.958 179.43
L226.958 174.867
L227.089 174.867
L227.189 161.18
L227.539 161.18
L227.539 156.618
L227.687 156.618
L227.687 152.055
L227.954 152.055
L227.954 147.493
L228.208 147.493
L228.315 133.806
L228.363 133.806
L228.387 124.681
L235.712 124.681
L235.712 110.994
L239.425 110.994
L239.425 106.432
L239.842 106.432
L239.914 97.3069
L241.499 97.3069
L241.499 92.7446
L241.943 92.7446
L241.943 88.1822
L250.362 88.1822
L250.362 83.6198
L251.677 83.6198
L251.677 79.0574
L269.91 79.0574
L269.91 74.495
L270.569 74.495
L270.569 69.9327
L271.753 69.9327
L271.753 65.3703
L271.967 65.3703
L272.018 56.2455
L272.285 56.2455
L272.327 42.5584
L272.606 42.5584
L272.606 37.996
L272.807 37.996
L272.887 28.8713
L272.972 28.8713
L272.972 24.3089
L273.282 24.3089
L273.282 19.7465
L273.957 19.7465
L273.957 15.1842
L274.083 15.1842
L274.083 10.6218
L274.083 10.6218
L453.6 10.6218
L453.6 10.6218" style="fill:none;stroke:#00bfbf;stroke-linecap:square;"/>
   </g>
   <g id="matplotlib.axis_1">
    <g id="xtick_1"/>
    <g id="xtick_2">
     <g id="line2d_9">
      <path clip-path="url(#p99b4b0da67)" d="
M59.6175 352.8
L59.6175 7.2" style="fill:none;stroke:#000000;stroke-dasharray:1.000000,3.000000;stroke-dashoffset:0.0;stroke-width:0.5;"/>
     </g>
     <g id="line2d_10">
      <defs>
       <path d="
M0 0
L0 -4" id="m93b0483c22" style="stroke:#000000;stroke-width:0.5;"/>
      </defs>
      <g>
       <use style="stroke:#000000;stroke-width:0.5;" x="59.6174973142" xlink:href="#m93b0483c22" y="352.8"/>
      </g>
     </g>
     <g id="line2d_11">
      <defs>
       <path d="
M0 0
L0 4" id="m741efc42ff" style="stroke:#000000;stroke-width:0.5;"/>
      </defs>
      <g>
       <use style="stroke:#000000;stroke-width:0.5;" x="59.6174973142" xlink:href="#m741efc42ff" y="7.2"/>
      </g>
     </g>
     <g id="text_1">
      <!-- -6 -->
      <defs>
       <path d="
M33.0156 40.375
Q26.375 40.375 22.4844 35.8281
Q18.6094 31.2969 18.6094 23.3906
Q18.6094 15.5312 22.4844 10.9531
Q26.375 6.39062 33.0156 6.39062
Q39.6562 6.39062 43.5312 10.9531
Q47.4062 15.5312 47.4062 23.3906
Q47.4062 31.2969 43.5312 35.8281
Q39.6562 40.375 33.0156 40.375
M52.5938 71.2969
L52.5938 62.3125
Q48.875 64.0625 45.0938 64.9844
Q41.3125 65.9219 37.5938 65.9219
Q27.8281 65.9219 22.6719 59.3281
Q17.5312 52.7344 16.7969 39.4062
Q19.6719 43.6562 24.0156 45.9219
Q28.375 48.1875 33.5938 48.1875
Q44.5781 48.1875 50.9531 41.5156
Q57.3281 34.8594 57.3281 23.3906
Q57.3281 12.1562 50.6875 5.35938
Q44.0469 -1.42188 33.0156 -1.42188
Q20.3594 -1.42188 13.6719 8.26562
Q6.98438 17.9688 6.98438 36.375
Q6.98438 53.6562 15.1875 63.9375
Q23.3906 74.2188 37.2031 74.2188
Q40.9219 74.2188 44.7031 73.4844
Q48.4844 72.75 52.5938 71.2969" id="BitstreamVeraSans-Roman-36"/>
       <path d="
M4.89062 31.3906
L31.2031 31.3906
L31.2031 23.3906
L4.89062 23.3906
z
" id="BitstreamVeraSans-Roman-2d"/>
      </defs>
      <g transform="translate(50.7659348142 371.996875)scale(0.2 -0.2)">
       <use xlink:href="#BitstreamVeraSans-Roman-2d"/>
       <use x="36.083984375" xlink:href="#BitstreamVeraSans-Roman-36"/>
      </g>
     </g>
    </g>
    <g id="xtick_3">
     <g id="line2d_12">
      <path clip-path="url(#p99b4b0da67)" d="
M112.148 352.8
L112.148 7.2" style="fill:none;stroke:#000000;stroke-dasharray:1.000000,3.000000;stroke-dashoffset:0.0;stroke-width:0.5;"/>
     </g>
     <g id="line2d_13">
      <g>
       <use style="stroke:#000000;stroke-width:0.5;" x="112.148497672" xlink:href="#m93b0483c22" y="352.8"/>
      </g>
     </g>
     <g id="line2d_14">
      <g>
       <use style="stroke:#000000;stroke-width:0.5;" x="112.148497672" xlink:href="#m741efc42ff" y="7.2"/>
      </g>
     </g>
     <g id="text_2">
      <!-- -4 -->
      <defs>
       <path d="
M37.7969 64.3125
L12.8906 25.3906
L37.7969 25.3906
z

M35.2031 72.9062
L47.6094 72.9062
L47.6094 25.3906
L58.0156 25.3906
L58.0156 17.1875
L47.6094 17.1875
L47.6094 0
L37.7969 0
L37.7969 17.1875
L4.89062 17.1875
L4.89062 26.7031
z
" id="BitstreamVeraSans-Roman-34"/>
      </defs>
      <g transform="translate(103.228185172 371.996875)scale(0.2 -0.2)">
       <use xlink:href="#BitstreamVeraSans-Roman-2d"/>
       <use x="36.083984375" xlink:href="#BitstreamVeraSans-Roman-34"/>
      </g>
     </g>
    </g>
    <g id="xtick_4">
     <g id="line2d_15">
      <path clip-path="url(#p99b4b0da67)" d="
M164.679 352.8
L164.679 7.2" style="fill:none;stroke:#000000;stroke-dasharray:1.000000,3.000000;stroke-dashoffset:0.0;stroke-width:0.5;"/>
     </g>
     <g id="line2d_16">
      <g>
       <use style="stroke:#000000;stroke-width:0.5;" x="164.67949803" xlink:href="#m93b0483c22" y="352.8"/>
      </g>
     </g>
     <g id="line2d_17">
      <g>
       <use style="stroke:#000000;stroke-width:0.5;" x="164.67949803" xlink:href="#m741efc42ff" y="7.2"/>
      </g>
     </g>
     <g id="text_3">
      <!-- -2 -->
      <defs>
       <path d="
M19.1875 8.29688
L53.6094 8.29688
L53.6094 0
L7.32812 0
L7.32812 8.29688
Q12.9375 14.1094 22.625 23.8906
Q32.3281 33.6875 34.8125 36.5312
Q39.5469 41.8438 41.4219 45.5312
Q43.3125 49.2188 43.3125 52.7812
Q43.3125 58.5938 39.2344 62.25
Q35.1562 65.9219 28.6094 65.9219
Q23.9688 65.9219 18.8125 64.3125
Q13.6719 62.7031 7.8125 59.4219
L7.8125 69.3906
Q13.7656 71.7812 18.9375 73
Q24.125 74.2188 28.4219 74.2188
Q39.75 74.2188 46.4844 68.5469
Q53.2188 62.8906 53.2188 53.4219
Q53.2188 48.9219 51.5312 44.8906
Q49.8594 40.875 45.4062 35.4062
Q44.1875 33.9844 37.6406 27.2188
Q31.1094 20.4531 19.1875 8.29688" id="BitstreamVeraSans-Roman-32"/>
      </defs>
      <g transform="translate(156.19981053 371.996875)scale(0.2 -0.2)">
       <use xlink:href="#BitstreamVeraSans-Roman-2d"/>
       <use x="36.083984375" xlink:href="#BitstreamVeraSans-Roman-32"/>
      </g>
     </g>
    </g>
    <g id="xtick_5">
     <g id="line2d_18">
      <path clip-path="url(#p99b4b0da67)" d="
M217.21 352.8
L217.21 7.2" style="fill:none;stroke:#000000;stroke-dasharray:1.000000,3.000000;stroke-dashoffset:0.0;stroke-width:0.5;"/>
     </g>
     <g id="line2d_19">
      <g>
       <use style="stroke:#000000;stroke-width:0.5;" x="217.210498389" xlink:href="#m93b0483c22" y="352.8"/>
      </g>
     </g>
     <g id="line2d_20">
      <g>
       <use style="stroke:#000000;stroke-width:0.5;" x="217.210498389" xlink:href="#m741efc42ff" y="7.2"/>
      </g>
     </g>
     <g id="text_4">
      <!-- 0 -->
      <defs>
       <path d="
M31.7812 66.4062
Q24.1719 66.4062 20.3281 58.9062
Q16.5 51.4219 16.5 36.375
Q16.5 21.3906 20.3281 13.8906
Q24.1719 6.39062 31.7812 6.39062
Q39.4531 6.39062 43.2812 13.8906
Q47.125 21.3906 47.125 36.375
Q47.125 51.4219 43.2812 58.9062
Q39.4531 66.4062 31.7812 66.4062
M31.7812 74.2188
Q44.0469 74.2188 50.5156 64.5156
Q56.9844 54.8281 56.9844 36.375
Q56.9844 17.9688 50.5156 8.26562
Q44.0469 -1.42188 31.7812 -1.42188
Q19.5312 -1.42188 13.0625 8.26562
Q6.59375 17.9688 6.59375 36.375
Q6.59375 54.8281 13.0625 64.5156
Q19.5312 74.2188 31.7812 74.2188" id="BitstreamVeraSans-Roman-30"/>
      </defs>
      <g transform="translate(212.171435889 371.996875)scale(0.2 -0.2)">
       <use xlink:href="#BitstreamVeraSans-Roman-30"/>
      </g>
     </g>
    </g>
    <g id="xtick_6">
     <g id="line2d_21">
      <path clip-path="url(#p99b4b0da67)" d="
M269.741 352.8
L269.741 7.2" style="fill:none;stroke:#000000;stroke-dasharray:1.000000,3.000000;stroke-dashoffset:0.0;stroke-width:0.5;"/>
     </g>
     <g id="line2d_22">
      <g>
       <use style="stroke:#000000;stroke-width:0.5;" x="269.741498747" xlink:href="#m93b0483c22" y="352.8"/>
      </g>
     </g>
     <g id="line2d_23">
      <g>
       <use style="stroke:#000000;stroke-width:0.5;" x="269.741498747" xlink:href="#m741efc42ff" y="7.2"/>
      </g>
     </g>
     <g id="text_5">
      <!-- 2 -->
      <g transform="translate(265.113373747 371.996875)scale(0.2 -0.2)">
       <use xlink:href="#BitstreamVeraSans-Roman-32"/>
      </g>
     </g>
    </g>
    <g id="xtick_7">
     <g id="line2d_24">
      <path clip-path="url(#p99b4b0da67)" d="
M322.272 352.8
L322.272 7.2" style="fill:none;stroke:#000000;stroke-dasharray:1.000000,3.000000;stroke-dashoffset:0.0;stroke-width:0.5;"/>
     </g>
     <g id="line2d_25">
      <g>
       <use style="stroke:#000000;stroke-width:0.5;" x="322.272499105" xlink:href="#m93b0483c22" y="352.8"/>
      </g>
     </g>
     <g id="line2d_26">
      <g>
       <use style="stroke:#000000;stroke-width:0.5;" x="322.272499105" xlink:href="#m741efc42ff" y="7.2"/>
      </g>
     </g>
     <g id="text_6">
      <!-- 4 -->
      <g transform="translate(316.959999105 371.996875)scale(0.2 -0.2)">
       <use xlink:href="#BitstreamVeraSans-Roman-34"/>
      </g>
     </g>
    </g>
    <g id="xtick_8">
     <g id="line2d_27">
      <path clip-path="url(#p99b4b0da67)" d="
M374.803 352.8
L374.803 7.2" style="fill:none;stroke:#000000;stroke-dasharray:1.000000,3.000000;stroke-dashoffset:0.0;stroke-width:0.5;"/>
     </g>
     <g id="line2d_28">
      <g>
       <use style="stroke:#000000;stroke-width:0.5;" x="374.803499463" xlink:href="#m93b0483c22" y="352.8"/>
      </g>
     </g>
     <g id="line2d_29">
      <g>
       <use style="stroke:#000000;stroke-width:0.5;" x="374.803499463" xlink:href="#m741efc42ff" y="7.2"/>
      </g>
     </g>
     <g id="text_7">
      <!-- 6 -->
      <g transform="translate(369.769124463 371.996875)scale(0.2 -0.2)">
       <use xlink:href="#BitstreamVeraSans-Roman-36"/>
      </g>
     </g>
    </g>
    <g id="xtick_9">
     <g id="line2d_30">
      <path clip-path="url(#p99b4b0da67)" d="
M427.334 352.8
L427.334 7.2" style="fill:none;stroke:#000000;stroke-dasharray:1.000000,3.000000;stroke-dashoffset:0.0;stroke-width:0.5;"/>
     </g>
     <g id="line2d_31">
      <g>
       <use style="stroke:#000000;stroke-width:0.5;" x="427.334499821" xlink:href="#m93b0483c22" y="352.8"/>
      </g>
     </g>
     <g id="line2d_32">
      <g>
       <use style="stroke:#000000;stroke-width:0.5;" x="427.334499821" xlink:href="#m741efc42ff" y="7.2"/>
      </g>
     </g>
     <g id="text_8">
      <!-- 8 -->
      <defs>
       <path d="
M31.7812 34.625
Q24.75 34.625 20.7188 30.8594
Q16.7031 27.0938 16.7031 20.5156
Q16.7031 13.9219 20.7188 10.1562
Q24.75 6.39062 31.7812 6.39062
Q38.8125 6.39062 42.8594 10.1719
Q46.9219 13.9688 46.9219 20.5156
Q46.9219 27.0938 42.8906 30.8594
Q38.875 34.625 31.7812 34.625
M21.9219 38.8125
Q15.5781 40.375 12.0312 44.7188
Q8.5 49.0781 8.5 55.3281
Q8.5 64.0625 14.7188 69.1406
Q20.9531 74.2188 31.7812 74.2188
Q42.6719 74.2188 48.875 69.1406
Q55.0781 64.0625 55.0781 55.3281
Q55.0781 49.0781 51.5312 44.7188
Q48 40.375 41.7031 38.8125
Q48.8281 37.1562 52.7969 32.3125
Q56.7812 27.4844 56.7812 20.5156
Q56.7812 9.90625 50.3125 4.23438
Q43.8438 -1.42188 31.7812 -1.42188
Q19.7344 -1.42188 13.25 4.23438
Q6.78125 9.90625 6.78125 20.5156
Q6.78125 27.4844 10.7812 32.3125
Q14.7969 37.1562 21.9219 38.8125
M18.3125 54.3906
Q18.3125 48.7344 21.8438 45.5625
Q25.3906 42.3906 31.7812 42.3906
Q38.1406 42.3906 41.7188 45.5625
Q45.3125 48.7344 45.3125 54.3906
Q45.3125 60.0625 41.7188 63.2344
Q38.1406 66.4062 31.7812 66.4062
Q25.3906 66.4062 21.8438 63.2344
Q18.3125 60.0625 18.3125 54.3906" id="BitstreamVeraSans-Roman-38"/>
      </defs>
      <g transform="translate(422.334499821 371.996875)scale(0.2 -0.2)">
       <use xlink:href="#BitstreamVeraSans-Roman-38"/>
      </g>
     </g>
    </g>
    <g id="xtick_10"/>
    <g id="xtick_11">
     <g id="line2d_33">
      <defs>
       <path d="
M0 0
L0 -2" id="m177f7580d0" style="stroke:#000000;stroke-width:0.5;"/>
      </defs>
      <g>
       <use style="stroke:#000000;stroke-width:0.5;" x="59.6174973142" xlink:href="#m177f7580d0" y="352.8"/>
      </g>
     </g>
     <g id="line2d_34">
      <defs>
       <path d="
M0 0
L0 2" id="m5284c7e2a0" style="stroke:#000000;stroke-width:0.5;"/>
      </defs>
      <g>
       <use style="stroke:#000000;stroke-width:0.5;" x="59.6174973142" xlink:href="#m5284c7e2a0" y="7.2"/>
      </g>
     </g>
    </g>
    <g id="xtick_12">
     <g id="line2d_35">
      <g>
       <use style="stroke:#000000;stroke-width:0.5;" x="112.148497672" xlink:href="#m177f7580d0" y="352.8"/>
      </g>
     </g>
     <g id="line2d_36">
      <g>
       <use style="stroke:#000000;stroke-width:0.5;" x="112.148497672" xlink:href="#m5284c7e2a0" y="7.2"/>
      </g>
     </g>
    </g>
    <g id="xtick_13">
     <g id="line2d_37">
      <g>
       <use style="stroke:#000000;stroke-width:0.5;" x="164.67949803" xlink:href="#m177f7580d0" y="352.8"/>
      </g>
     </g>
     <g id="line2d_38">
      <g>
       <use style="stroke:#000000;stroke-width:0.5;" x="164.67949803" xlink:href="#m5284c7e2a0" y="7.2"/>
      </g>
     </g>
    </g>
    <g id="xtick_14">
     <g id="line2d_39">
      <g>
       <use style="stroke:#000000;stroke-width:0.5;" x="217.210498389" xlink:href="#m177f7580d0" y="352.8"/>
      </g>
     </g>
     <g id="line2d_40">
      <g>
       <use style="stroke:#000000;stroke-width:0.5;" x="217.210498389" xlink:href="#m5284c7e2a0" y="7.2"/>
      </g>
     </g>
    </g>
    <g id="xtick_15">
     <g id="line2d_41">
      <g>
       <use style="stroke:#000000;stroke-width:0.5;" x="269.741498747" xlink:href="#m177f7580d0" y="352.8"/>
      </g>
     </g>
     <g id="line2d_42">
      <g>
       <use style="stroke:#000000;stroke-width:0.5;" x="269.741498747" xlink:href="#m5284c7e2a0" y="7.2"/>
      </g>
     </g>
    </g>
    <g id="xtick_16">
     <g id="line2d_43">
      <g>
       <use style="stroke:#000000;stroke-width:0.5;" x="322.272499105" xlink:href="#m177f7580d0" y="352.8"/>
      </g>
     </g>
     <g id="line2d_44">
      <g>
       <use style="stroke:#000000;stroke-width:0.5;" x="322.272499105" xlink:href="#m5284c7e2a0" y="7.2"/>
      </g>
     </g>
    </g>
    <g id="xtick_17">
     <g id="line2d_45">
      <g>
       <use style="stroke:#000000;stroke-width:0.5;" x="374.803499463" xlink:href="#m177f7580d0" y="352.8"/>
      </g>
     </g>
     <g id="line2d_46">
      <g>
       <use style="stroke:#000000;stroke-width:0.5;" x="374.803499463" xlink:href="#m5284c7e2a0" y="7.2"/>
      </g>
     </g>
    </g>
    <g id="xtick_18">
     <g id="line2d_47">
      <g>
       <use style="stroke:#000000;stroke-width:0.5;" x="427.334499821" xlink:href="#m177f7580d0" y="352.8"/>
      </g>
     </g>
     <g id="line2d_48">
      <g>
       <use style="stroke:#000000;stroke-width:0.5;" x="427.334499821" xlink:href="#m5284c7e2a0" y="7.2"/>
      </g>
     </g>
    </g>
    <g id="text_9">
     <!-- log10 of Df -->
     <defs>
      <path id="BitstreamVeraSans-Roman-20"/>
      <path d="
M12.4062 8.29688
L28.5156 8.29688
L28.5156 63.9219
L10.9844 60.4062
L10.9844 69.3906
L28.4219 72.9062
L38.2812 72.9062
L38.2812 8.29688
L54.3906 8.29688
L54.3906 0
L12.4062 0
z
" id="BitstreamVeraSans-Roman-31"/>
      <path d="
M30.6094 48.3906
Q23.3906 48.3906 19.1875 42.75
Q14.9844 37.1094 14.9844 27.2969
Q14.9844 17.4844 19.1562 11.8438
Q23.3438 6.20312 30.6094 6.20312
Q37.7969 6.20312 41.9844 11.8594
Q46.1875 17.5312 46.1875 27.2969
Q46.1875 37.0156 41.9844 42.7031
Q37.7969 48.3906 30.6094 48.3906
M30.6094 56
Q42.3281 56 49.0156 48.375
Q55.7188 40.7656 55.7188 27.2969
Q55.7188 13.875 49.0156 6.21875
Q42.3281 -1.42188 30.6094 -1.42188
Q18.8438 -1.42188 12.1719 6.21875
Q5.51562 13.875 5.51562 27.2969
Q5.51562 40.7656 12.1719 48.375
Q18.8438 56 30.6094 56" id="BitstreamVeraSans-Roman-6f"/>
      <path d="
M9.42188 75.9844
L18.4062 75.9844
L18.4062 0
L9.42188 0
z
" id="BitstreamVeraSans-Roman-6c"/>
      <path d="
M19.6719 64.7969
L19.6719 8.10938
L31.5938 8.10938
Q46.6875 8.10938 53.6875 14.9375
Q60.6875 21.7812 60.6875 36.5312
Q60.6875 51.1719 53.6875 57.9844
Q46.6875 64.7969 31.5938 64.7969
z

M9.8125 72.9062
L30.0781 72.9062
Q51.2656 72.9062 61.1719 64.0938
Q71.0938 55.2812 71.0938 36.5312
Q71.0938 17.6719 61.125 8.82812
Q51.1719 0 30.0781 0
L9.8125 0
z
" id="BitstreamVeraSans-Roman-44"/>
      <path d="
M45.4062 27.9844
Q45.4062 37.75 41.375 43.1094
Q37.3594 48.4844 30.0781 48.4844
Q22.8594 48.4844 18.8281 43.1094
Q14.7969 37.75 14.7969 27.9844
Q14.7969 18.2656 18.8281 12.8906
Q22.8594 7.51562 30.0781 7.51562
Q37.3594 7.51562 41.375 12.8906
Q45.4062 18.2656 45.4062 27.9844
M54.3906 6.78125
Q54.3906 -7.17188 48.1875 -13.9844
Q42 -20.7969 29.2031 -20.7969
Q24.4688 -20.7969 20.2656 -20.0938
Q16.0625 -19.3906 12.1094 -17.9219
L12.1094 -9.1875
Q16.0625 -11.3281 19.9219 -12.3438
Q23.7812 -13.375 27.7812 -13.375
Q36.625 -13.375 41.0156 -8.76562
Q45.4062 -4.15625 45.4062 5.17188
L45.4062 9.625
Q42.625 4.78125 38.2812 2.39062
Q33.9375 0 27.875 0
Q17.8281 0 11.6719 7.65625
Q5.51562 15.3281 5.51562 27.9844
Q5.51562 40.6719 11.6719 48.3281
Q17.8281 56 27.875 56
Q33.9375 56 38.2812 53.6094
Q42.625 51.2188 45.4062 46.3906
L45.4062 54.6875
L54.3906 54.6875
z
" id="BitstreamVeraSans-Roman-67"/>
      <path d="
M37.1094 75.9844
L37.1094 68.5
L28.5156 68.5
Q23.6875 68.5 21.7969 66.5469
Q19.9219 64.5938 19.9219 59.5156
L19.9219 54.6875
L34.7188 54.6875
L34.7188 47.7031
L19.9219 47.7031
L19.9219 0
L10.8906 0
L10.8906 47.7031
L2.29688 47.7031
L2.29688 54.6875
L10.8906 54.6875
L10.8906 58.5
Q10.8906 67.625 15.1406 71.7969
Q19.3906 75.9844 28.6094 75.9844
z
" id="BitstreamVeraSans-Roman-66"/>
     </defs>
     <g transform="translate(175.0234375 396.353125)scale(0.2 -0.2)">
      <use xlink:href="#BitstreamVeraSans-Roman-6c"/>
      <use x="27.783203125" xlink:href="#BitstreamVeraSans-Roman-6f"/>
      <use x="88.96484375" xlink:href="#BitstreamVeraSans-Roman-67"/>
      <use x="152.44140625" xlink:href="#BitstreamVeraSans-Roman-31"/>
      <use x="216.064453125" xlink:href="#BitstreamVeraSans-Roman-30"/>
      <use x="279.6875" xlink:href="#BitstreamVeraSans-Roman-20"/>
      <use x="311.474609375" xlink:href="#BitstreamVeraSans-Roman-6f"/>
      <use x="372.65625" xlink:href="#BitstreamVeraSans-Roman-66"/>
      <use x="407.861328125" xlink:href="#BitstreamVeraSans-Roman-20"/>
      <use x="439.6484375" xlink:href="#BitstreamVeraSans-Roman-44"/>
      <use x="516.650390625" xlink:href="#BitstreamVeraSans-Roman-66"/>
     </g>
    </g>
   </g>
   <g id="matplotlib.axis_2">
    <g id="ytick_1">
     <g id="line2d_49">
      <path clip-path="url(#p99b4b0da67)" d="
M7.2 352.8
L453.6 352.8" style="fill:none;stroke:#000000;stroke-dasharray:1.000000,3.000000;stroke-dashoffset:0.0;stroke-width:0.5;"/>
     </g>
     <g id="line2d_50">
      <defs>
       <path d="
M0 0
L4 0" id="m728421d6d4" style="stroke:#000000;stroke-width:0.5;"/>
      </defs>
      <g>
       <use style="stroke:#000000;stroke-width:0.5;" x="7.2" xlink:href="#m728421d6d4" y="352.8"/>
      </g>
     </g>
     <g id="line2d_51">
      <defs>
       <path d="
M0 0
L-4 0" id="mcb0005524f" style="stroke:#000000;stroke-width:0.5;"/>
      </defs>
      <g>
       <use style="stroke:#000000;stroke-width:0.5;" x="453.6" xlink:href="#mcb0005524f" y="352.8"/>
      </g>
     </g>
    </g>
    <g id="ytick_2">
     <g id="line2d_52">
      <path clip-path="url(#p99b4b0da67)" d="
M7.2 284.364
L453.6 284.364" style="fill:none;stroke:#000000;stroke-dasharray:1.000000,3.000000;stroke-dashoffset:0.0;stroke-width:0.5;"/>
     </g>
     <g id="line2d_53">
      <g>
       <use style="stroke:#000000;stroke-width:0.5;" x="7.2" xlink:href="#m728421d6d4" y="284.364356436"/>
      </g>
     </g>
     <g id="line2d_54">
      <g>
       <use style="stroke:#000000;stroke-width:0.5;" x="453.6" xlink:href="#mcb0005524f" y="284.364356436"/>
      </g>
     </g>
    </g>
    <g id="ytick_3">
     <g id="line2d_55">
      <path clip-path="url(#p99b4b0da67)" d="
M7.2 215.929
L453.6 215.929" style="fill:none;stroke:#000000;stroke-dasharray:1.000000,3.000000;stroke-dashoffset:0.0;stroke-width:0.5;"/>
     </g>
     <g id="line2d_56">
      <g>
       <use style="stroke:#000000;stroke-width:0.5;" x="7.2" xlink:href="#m728421d6d4" y="215.928712871"/>
      </g>
     </g>
     <g id="line2d_57">
      <g>
       <use style="stroke:#000000;stroke-width:0.5;" x="453.6" xlink:href="#mcb0005524f" y="215.928712871"/>
      </g>
     </g>
    </g>
    <g id="ytick_4">
     <g id="line2d_58">
      <path clip-path="url(#p99b4b0da67)" d="
M7.2 147.493
L453.6 147.493" style="fill:none;stroke:#000000;stroke-dasharray:1.000000,3.000000;stroke-dashoffset:0.0;stroke-width:0.5;"/>
     </g>
     <g id="line2d_59">
      <g>
       <use style="stroke:#000000;stroke-width:0.5;" x="7.2" xlink:href="#m728421d6d4" y="147.493069307"/>
      </g>
     </g>
     <g id="line2d_60">
      <g>
       <use style="stroke:#000000;stroke-width:0.5;" x="453.6" xlink:href="#mcb0005524f" y="147.493069307"/>
      </g>
     </g>
    </g>
    <g id="ytick_5">
     <g id="line2d_61">
      <path clip-path="url(#p99b4b0da67)" d="
M7.2 79.0574
L453.6 79.0574" style="fill:none;stroke:#000000;stroke-dasharray:1.000000,3.000000;stroke-dashoffset:0.0;stroke-width:0.5;"/>
     </g>
     <g id="line2d_62">
      <g>
       <use style="stroke:#000000;stroke-width:0.5;" x="7.2" xlink:href="#m728421d6d4" y="79.0574257426"/>
      </g>
     </g>
     <g id="line2d_63">
      <g>
       <use style="stroke:#000000;stroke-width:0.5;" x="453.6" xlink:href="#mcb0005524f" y="79.0574257426"/>
      </g>
     </g>
    </g>
    <g id="ytick_6">
     <g id="line2d_64">
      <path clip-path="url(#p99b4b0da67)" d="
M7.2 10.6218
L453.6 10.6218" style="fill:none;stroke:#000000;stroke-dasharray:1.000000,3.000000;stroke-dashoffset:0.0;stroke-width:0.5;"/>
     </g>
     <g id="line2d_65">
      <g>
       <use style="stroke:#000000;stroke-width:0.5;" x="7.2" xlink:href="#m728421d6d4" y="10.6217821782"/>
      </g>
     </g>
     <g id="line2d_66">
      <g>
       <use style="stroke:#000000;stroke-width:0.5;" x="453.6" xlink:href="#mcb0005524f" y="10.6217821782"/>
      </g>
     </g>
    </g>
   </g>
   <g id="patch_3">
    <path d="
M7.2 7.2
L453.6 7.2" style="fill:none;stroke:#000000;"/>
   </g>
   <g id="patch_4">
    <path d="
M453.6 352.8
L453.6 7.2" style="fill:none;stroke:#000000;"/>
   </g>
   <g id="patch_5">
    <path d="
M7.2 352.8
L453.6 352.8" style="fill:none;stroke:#000000;"/>
   </g>
   <g id="patch_6">
    <path d="
M7.2 352.8
L7.2 7.2" style="fill:none;stroke:#000000;"/>
   </g>
   <g id="text_10">
    <!-- {f20-f24}, 20-D -->
    <defs>
     <path d="
M12.5 -9.28125
L15.9219 -9.28125
Q22.75 -9.28125 24.8281 -7.17188
Q26.9062 -5.07812 26.9062 1.90625
L26.9062 14.0156
Q26.9062 21.625 29.0938 25.0938
Q31.2969 28.5625 36.7188 29.8906
Q31.2969 31.1094 29.0938 34.5625
Q26.9062 38.0312 26.9062 45.7031
L26.9062 57.8125
Q26.9062 64.75 24.8281 66.875
Q22.75 69 15.9219 69
L12.5 69
L12.5 75.9844
L15.5781 75.9844
Q27.7344 75.9844 31.8125 72.3906
Q35.8906 68.7969 35.8906 58.0156
L35.8906 46.2969
Q35.8906 39.0156 38.5156 36.2031
Q41.1562 33.4062 48.0938 33.4062
L51.125 33.4062
L51.125 26.4219
L48.0938 26.4219
Q41.1562 26.4219 38.5156 23.5781
Q35.8906 20.75 35.8906 13.375
L35.8906 1.70312
Q35.8906 -9.07812 31.8125 -12.6875
Q27.7344 -16.3125 15.5781 -16.3125
L12.5 -16.3125
z
" id="BitstreamVeraSans-Roman-7d"/>
     <path d="
M51.125 -9.28125
L51.125 -16.3125
L48.0938 -16.3125
Q35.9375 -16.3125 31.8125 -12.6875
Q27.6875 -9.07812 27.6875 1.70312
L27.6875 13.375
Q27.6875 20.75 25.0469 23.5781
Q22.4062 26.4219 15.4844 26.4219
L12.5 26.4219
L12.5 33.4062
L15.4844 33.4062
Q22.4688 33.4062 25.0781 36.2031
Q27.6875 39.0156 27.6875 46.2969
L27.6875 58.0156
Q27.6875 68.7969 31.8125 72.3906
Q35.9375 75.9844 48.0938 75.9844
L51.125 75.9844
L51.125 69
L47.7969 69
Q40.9219 69 38.8125 66.8438
Q36.7188 64.7031 36.7188 57.8125
L36.7188 45.7031
Q36.7188 38.0312 34.5 34.5625
Q32.2812 31.1094 26.9062 29.8906
Q32.3281 28.5625 34.5156 25.0938
Q36.7188 21.625 36.7188 14.0156
L36.7188 1.90625
Q36.7188 -4.98438 38.8125 -7.125
Q40.9219 -9.28125 47.7969 -9.28125
z
" id="BitstreamVeraSans-Roman-7b"/>
     <path d="
M11.7188 12.4062
L22.0156 12.4062
L22.0156 4
L14.0156 -11.625
L7.71875 -11.625
L11.7188 4
z
" id="BitstreamVeraSans-Roman-2c"/>
    </defs>
    <g transform="translate(287.42825 345.888)scale(0.2 -0.2)">
     <use xlink:href="#BitstreamVeraSans-Roman-7b"/>
     <use x="63.623046875" xlink:href="#BitstreamVeraSans-Roman-66"/>
     <use x="98.828125" xlink:href="#BitstreamVeraSans-Roman-32"/>
     <use x="162.451171875" xlink:href="#BitstreamVeraSans-Roman-30"/>
     <use x="226.07421875" xlink:href="#BitstreamVeraSans-Roman-2d"/>
     <use x="262.158203125" xlink:href="#BitstreamVeraSans-Roman-66"/>
     <use x="297.36328125" xlink:href="#BitstreamVeraSans-Roman-32"/>
     <use x="360.986328125" xlink:href="#BitstreamVeraSans-Roman-34"/>
     <use x="424.609375" xlink:href="#BitstreamVeraSans-Roman-7d"/>
     <use x="488.232421875" xlink:href="#BitstreamVeraSans-Roman-2c"/>
     <use x="520.01953125" xlink:href="#BitstreamVeraSans-Roman-20"/>
     <use x="551.806640625" xlink:href="#BitstreamVeraSans-Roman-32"/>
     <use x="615.4296875" xlink:href="#BitstreamVeraSans-Roman-30"/>
     <use x="679.052734375" xlink:href="#BitstreamVeraSans-Roman-2d"/>
     <use x="715.13671875" xlink:href="#BitstreamVeraSans-Roman-44"/>
    </g>
   </g>
   <g id="text_11">
    <!-- 0.0.0 -->
    <defs>
     <path d="
M10.6875 12.4062
L21 12.4062
L21 0
L10.6875 0
z
" id="BitstreamVeraSans-Roman-2e"/>
    </defs>
    <g style="fill:#808080;" transform="translate(218.33984375 347.2643125)scale(0.1 -0.1)">
     <use xlink:href="#BitstreamVeraSans-Roman-30"/>
     <use x="63.623046875" xlink:href="#BitstreamVeraSans-Roman-2e"/>
     <use x="95.41015625" xlink:href="#BitstreamVeraSans-Roman-30"/>
     <use x="159.033203125" xlink:href="#BitstreamVeraSans-Roman-2e"/>
     <use x="190.8203125" xlink:href="#BitstreamVeraSans-Roman-30"/>
    </g>
   </g>
  </g>
 </g>
 <defs>
  <clipPath id="p99b4b0da67">
   <rect height="345.6" width="446.4" x="7.2" y="7.2"/>
  </clipPath>
 </defs>
</svg>
