<?xml version="1.0" encoding="utf-8" standalone="no"?>
<!DOCTYPE svg PUBLIC "-//W3C//DTD SVG 1.1//EN"
  "http://www.w3.org/Graphics/SVG/1.1/DTD/svg11.dtd">
<!-- Created with matplotlib (http://matplotlib.org/) -->
<svg height="413pt" version="1.1" viewBox="0 0 523 413" width="523pt" xmlns="http://www.w3.org/2000/svg" xmlns:xlink="http://www.w3.org/1999/xlink">
 <defs>
  <style type="text/css">
*{stroke-linecap:butt;stroke-linejoin:round;}
  </style>
 </defs>
 <g id="figure_1">
  <g id="patch_1">
   <path d="
M0 413.969
L523.834 413.969
L523.834 0
L0 0
z
" style="fill:#ffffff;"/>
  </g>
  <g id="axes_1">
   <g id="patch_2">
    <path d="
M64.9219 359.056
L511.322 359.056
L511.322 13.4563
L64.9219 13.4563
z
" style="fill:#ffffff;"/>
   </g>
   <g id="line2d_1">
    <path clip-path="url(#p4b24e7e61f)" d="
M319.599 359.056
L319.599 353.353
L323.431 353.353
L323.431 347.65
L324.882 347.65
L324.882 341.947
L324.882 341.947
L324.882 336.244
L325.592 336.244
L325.592 330.541
L325.827 330.541
L325.827 324.839
L326.06 324.839
L326.06 319.136
L327.209 319.136
L327.209 313.433
L327.886 313.433
L327.886 307.73
L328.11 307.73
L328.11 302.027
L328.11 302.027
L328.11 296.324
L328.332 296.324
L328.332 290.621
L328.332 290.621
L328.332 284.918
L328.994 284.918
L328.994 279.215
L328.994 279.215
L328.994 273.512
L330.503 273.512
L330.503 267.809
L330.925 267.809
L330.925 262.106
L331.135 262.106
L331.135 256.403
L331.344 256.403
L331.344 250.7
L331.553 250.7
L331.553 244.997
L332.172 244.997
L332.172 239.294
L332.172 239.294
L332.172 233.591
L332.376 233.591
L332.376 227.888
L335.92 227.888
L335.92 222.185
L337.781 222.185
L337.781 216.482
L338.145 216.482
L338.145 210.779
L360.309 210.779
L360.309 205.076
L364.304 205.076
L364.304 199.373
L368.62 199.373
L368.62 193.67
L378.178 193.67
L378.178 187.967
L378.178 187.967
L378.178 187.967
L511.322 187.967" style="fill:none;stroke:#f5deb3;stroke-linecap:square;"/>
   </g>
   <g id="line2d_2"/>
   <g id="line2d_3">
    <path clip-path="url(#p4b24e7e61f)" d="
M320.377 359.056
L320.377 353.353
L328.522 353.353
L328.522 347.65
L332.473 347.65
L332.473 341.947
L338.789 341.947
L338.789 336.244
L339.549 336.244
L339.549 330.541
L339.942 330.541
L339.942 324.839
L339.975 324.839
L339.975 319.136
L340.108 319.136
L340.108 313.433
L341.206 313.433
L341.206 307.73
L341.994 307.73
L341.994 302.027
L342.217 302.027
L342.217 296.324
L342.62 296.324
L342.62 290.621
L342.871 290.621
L342.871 284.918
L342.934 284.918
L342.934 279.215
L342.973 279.215
L342.973 273.512
L343.012 273.512
L343.012 267.809
L343.137 267.809
L343.137 262.106
L345.255 262.106
L345.255 256.403
L346.002 256.403
L346.002 250.7
L346.717 250.7
L346.717 244.997
L347.32 244.997
L347.32 239.294
L348.527 239.294
L348.527 233.591
L349.074 233.591
L349.074 227.888
L357.86 227.888
L357.86 222.185
L358.76 222.185
L358.76 216.482
L359.304 216.482
L359.304 210.779
L360.145 210.779
L360.145 205.076
L360.227 205.076
L360.227 199.373
L360.26 199.373
L360.26 193.67
L361.922 193.67
L361.922 187.967
L362.085 187.967
L362.085 182.264
L363.339 182.264
L363.339 176.561
L364.093 176.561
L364.093 170.858
L364.229 170.858
L364.229 165.155
L365.133 165.155
L365.133 159.452
L365.796 159.452
L365.796 153.749
L367.281 153.749
L367.281 148.046
L370.197 148.046
L370.197 142.343
L372.554 142.343
L372.554 136.641
L381.172 136.641
L381.172 130.938
L384.634 130.938
L384.634 125.235
L384.868 125.235
L384.868 119.532
L386.177 119.532
L386.177 113.829
L386.567 113.829
L386.567 108.126
L387.142 108.126
L387.142 102.423
L387.142 102.423
L387.142 102.423
L511.322 102.423" style="fill:none;stroke:#f5deb3;stroke-linecap:square;"/>
   </g>
   <g id="line2d_4">
    <path clip-path="url(#p4b24e7e61f)" d="
M382.209 359.056
L382.209 353.353
L387.912 353.353
L387.912 347.65
L391.352 347.65
L391.352 341.947
L391.953 341.947
L391.953 336.244
L395.914 336.244
L395.914 330.541
L395.938 330.541
L395.938 324.839
L397.965 324.839
L397.965 319.136
L398.836 319.136
L398.836 313.433
L398.856 313.433
L398.856 307.73
L399.379 307.73
L399.379 302.027
L400.062 302.027
L400.062 296.324
L400.536 296.324
L400.536 290.621
L401.955 290.621
L401.955 284.918
L402.456 284.918
L402.456 279.215
L402.676 279.215
L402.676 273.512
L405.443 273.512
L405.443 267.809
L407.011 267.809
L407.011 262.106
L407.672 262.106
L407.672 256.403
L408.108 256.403
L408.108 250.7
L411.845 250.7
L411.845 244.997
L422.089 244.997
L422.089 239.294
L425.603 239.294
L425.603 233.591
L429.882 233.591
L429.882 227.888
L432.74 227.888
L432.74 222.185
L434.486 222.185
L434.486 216.482
L438.248 216.482
L438.248 210.779
L442.188 210.779
L442.188 205.076
L447.671 205.076
L447.671 199.373
L448.436 199.373
L448.436 193.67
L450.587 193.67
L450.587 187.967
L450.587 187.967
L450.587 187.967
L511.322 187.967" style="fill:none;stroke:#f5deb3;stroke-linecap:square;"/>
   </g>
   <g id="line2d_5">
    <path clip-path="url(#p4b24e7e61f)" d="
M368.251 359.056
L368.251 353.353
L371.01 353.353
L371.01 347.65
L373.749 347.65
L373.749 341.947
L373.963 341.947
L373.963 336.244
L375.959 336.244
L375.959 330.541
L376.486 330.541
L376.486 324.839
L378.633 324.839
L378.633 319.136
L379.159 319.136
L379.159 313.433
L379.236 313.433
L379.236 307.73
L379.295 307.73
L379.295 302.027
L380.036 302.027
L380.036 296.324
L382.038 296.324
L382.038 290.621
L382.396 290.621
L382.396 284.918
L383.016 284.918
L383.016 279.215
L383.023 279.215
L383.023 273.512
L383.354 273.512
L383.354 267.809
L383.486 267.809
L383.486 262.106
L384.011 262.106
L384.011 256.403
L384.162 256.403
L384.162 250.7
L384.442 250.7
L384.442 244.997
L384.488 244.997
L384.488 239.294
L384.584 239.294
L384.584 233.591
L385.082 233.591
L385.082 227.888
L385.219 227.888
L385.219 222.185
L385.743 222.185
L385.743 216.482
L387.264 216.482
L387.264 210.779
L387.782 210.779
L387.782 205.076
L387.902 205.076
L387.902 199.373
L388.152 199.373
L388.152 193.67
L388.663 193.67
L388.663 187.967
L390.626 187.967
L390.626 182.264
L391.616 182.264
L391.616 176.561
L391.765 176.561
L391.765 170.858
L392.726 170.858
L392.726 165.155
L393.047 165.155
L393.047 159.452
L396.643 159.452
L396.643 153.749
L396.728 153.749
L396.728 148.046
L397.345 148.046
L397.345 142.343
L421.987 142.343
L421.987 136.641
L423.135 136.641
L423.135 130.938
L436.331 130.938
L436.331 125.235
L437.379 125.235
L437.379 119.532
L443.053 119.532
L443.053 113.829
L445.842 113.829
L445.842 108.126
L452.733 108.126
L452.733 102.423
L452.733 102.423
L452.733 102.423
L511.322 102.423" style="fill:none;stroke:#f5deb3;stroke-linecap:square;"/>
   </g>
   <g id="line2d_6"/>
   <g id="line2d_7">
    <path clip-path="url(#p4b24e7e61f)" d="
M363.625 359.056
L363.625 353.353
L364.163 353.353
L364.163 347.65
L366.421 347.65
L366.421 341.947
L367.115 341.947
L367.115 336.244
L367.503 336.244
L367.503 330.541
L367.836 330.541
L367.836 324.839
L368.685 324.839
L368.685 319.136
L369.092 319.136
L369.092 313.433
L369.451 313.433
L369.451 307.73
L370.715 307.73
L370.715 302.027
L370.786 302.027
L370.786 296.324
L371.831 296.324
L371.831 290.621
L373.566 290.621
L373.566 284.918
L373.757 284.918
L373.757 279.215
L376.03 279.215
L376.03 273.512
L401.091 273.512
L401.091 267.809
L403.384 267.809
L403.384 262.106
L404.005 262.106
L404.005 256.403
L405.238 256.403
L405.238 250.7
L405.383 250.7
L405.383 244.997
L406.17 244.997
L406.17 239.294
L406.419 239.294
L406.419 233.591
L408.453 233.591
L408.453 227.888
L408.918 227.888
L408.918 222.185
L410.024 222.185
L410.024 216.482
L410.128 216.482
L410.128 210.779
L410.249 210.779
L410.249 205.076
L410.317 205.076
L410.317 199.373
L412.146 199.373
L412.146 193.67
L413.069 193.67
L413.069 187.967
L413.357 187.967
L413.357 182.264
L414.861 182.264
L414.861 176.561
L415.066 176.561
L415.066 170.858
L415.708 170.858
L415.708 165.155
L415.873 165.155
L415.873 159.452
L416.428 159.452
L416.428 153.749
L417.175 153.749
L417.175 148.046
L418.196 148.046
L418.196 142.343
L418.448 142.343
L418.448 136.641
L419.71 136.641
L419.71 130.938
L420.131 130.938
L420.131 125.235
L420.444 125.235
L420.444 119.532
L421.187 119.532
L421.187 113.829
L454.873 113.829
L454.873 108.126
L486.482 108.126
L486.482 102.423
L524.834 102.423" style="fill:none;stroke:#f5deb3;stroke-linecap:square;"/>
   </g>
   <g id="line2d_8">
    <path clip-path="url(#p4b24e7e61f)" d="
M520.887 359.056
L520.887 353.353
L520.973 353.353
L520.973 347.65
L521.039 347.65
L521.039 341.947
L521.607 341.947
L521.607 336.244
L521.625 336.244
L521.625 330.541
L521.663 330.541
L521.663 324.839
L521.745 324.839
L521.745 319.136
L521.747 319.136
L521.747 313.433
L521.77 313.433
L521.77 307.73
L521.887 307.73
L521.887 302.027
L521.95 302.027
L521.95 296.324
L522.525 296.324
L522.525 290.621
L522.527 290.621
L522.527 284.918
L522.758 284.918
L522.758 279.215
L524.165 279.215
L524.165 273.512
L524.165 273.512" style="fill:none;stroke:#f5deb3;stroke-linecap:square;"/>
   </g>
   <g id="line2d_9">
    <path clip-path="url(#p4b24e7e61f)" d="
M362.421 359.056
L362.421 353.353
L365.271 353.353
L365.271 347.65
L365.443 347.65
L365.443 341.947
L367.719 341.947
L367.719 336.244
L368.055 336.244
L368.055 330.541
L368.153 330.541
L368.153 324.839
L368.496 324.839
L368.496 319.136
L368.983 319.136
L368.983 313.433
L369.852 313.433
L369.852 307.73
L370.031 307.73
L370.031 302.027
L370.445 302.027
L370.445 296.324
L372.422 296.324
L372.422 290.621
L372.913 290.621
L372.913 284.918
L374.136 284.918
L374.136 279.215
L376.88 279.215
L376.88 273.512
L377.996 273.512
L377.996 267.809
L396.686 267.809
L396.686 262.106
L396.959 262.106
L396.959 256.403
L397.606 256.403
L397.606 250.7
L397.612 250.7
L397.612 244.997
L398.358 244.997
L398.358 239.294
L398.47 239.294
L398.47 233.591
L399.797 233.591
L399.797 227.888
L400.28 227.888
L400.28 222.185
L400.379 222.185
L400.379 216.482
L400.474 216.482
L400.474 210.779
L400.529 210.779
L400.529 205.076
L400.71 205.076
L400.71 199.373
L401.017 199.373
L401.017 193.67
L401.697 193.67
L401.697 187.967
L401.85 187.967
L401.85 182.264
L402.55 182.264
L402.55 176.561
L403.121 176.561
L403.121 170.858
L403.7 170.858
L403.7 165.155
L403.74 165.155
L403.74 159.452
L404.228 159.452
L404.228 153.749
L404.884 153.749
L404.884 148.046
L406.314 148.046
L406.314 142.343
L406.957 142.343
L406.957 136.641
L408.122 136.641
L408.122 130.938
L408.786 130.938
L408.786 125.235
L411.117 125.235
L411.117 119.532
L412.093 119.532
L412.093 113.829
L412.138 113.829
L412.138 108.126
L420.594 108.126
L420.594 102.423
L423.039 102.423
L423.039 96.7197
L424.761 96.7197
L424.761 91.0167
L425.042 91.0167
L425.042 85.3138
L425.41 85.3138
L425.41 79.6108
L425.697 79.6108
L425.697 73.9078
L427.512 73.9078
L427.512 68.2049
L428.237 68.2049
L428.237 62.5019
L429.561 62.5019
L429.561 56.7989
L430.581 56.7989
L430.581 51.0959
L432.142 51.0959
L432.142 45.393
L433.557 45.393
L433.557 39.69
L433.879 39.69
L433.879 33.987
L434.805 33.987
L434.805 28.2841
L434.942 28.2841
L434.942 22.5811
L443.499 22.5811
L443.499 16.8781
L443.499 16.8781
L443.499 16.8781
L511.322 16.8781" style="fill:none;stroke:#f5deb3;stroke-linecap:square;"/>
   </g>
   <g id="line2d_10">
    <path clip-path="url(#p4b24e7e61f)" d="
M607.015 359.056" style="fill:none;stroke:#f5deb3;stroke-linecap:square;"/>
   </g>
   <g id="line2d_11">
    <path clip-path="url(#p4b24e7e61f)" d="
M375.673 359.056
L375.673 353.353
L379.539 353.353
L379.539 347.65
L385.006 347.65
L385.006 341.947
L393.189 341.947
L393.189 336.244
L394.367 336.244
L394.367 330.541
L394.98 330.541
L394.98 324.839
L399.117 324.839
L399.117 319.136
L399.181 319.136
L399.181 313.433
L399.864 313.433
L399.864 307.73
L413.355 307.73
L413.355 302.027
L414.042 302.027
L414.042 296.324
L417.631 296.324
L417.631 290.621
L419.848 290.621
L419.848 284.918
L436.377 284.918
L436.377 279.215
L524.834 279.215" style="fill:none;stroke:#f5deb3;stroke-linecap:square;"/>
   </g>
   <g id="line2d_12">
    <path clip-path="url(#p4b24e7e61f)" d="
M323.36 359.056
L323.36 353.353
L329.367 353.353
L329.367 347.65
L329.584 347.65
L329.584 341.947
L331.493 341.947
L331.493 336.244
L331.907 336.244
L331.907 330.541
L332.725 330.541
L332.725 324.839
L333.33 324.839
L333.33 319.136
L333.33 319.136
L333.33 313.433
L333.728 313.433
L333.728 307.73
L333.728 307.73
L333.728 302.027
L333.927 302.027
L333.927 296.324
L334.124 296.324
L334.124 290.621
L334.321 290.621
L334.321 284.918
L334.516 284.918
L334.516 279.215
L334.516 279.215
L334.516 273.512
L335.099 273.512
L335.099 267.809
L335.099 267.809
L335.099 262.106
L335.099 262.106
L335.099 256.403
L335.675 256.403
L335.675 250.7
L335.675 250.7
L335.675 244.997
L335.675 244.997
L335.675 239.294
L336.244 239.294
L336.244 233.591
L336.432 233.591
L336.432 227.888
L339.7 227.888
L339.7 222.185
L345.33 222.185
L345.33 216.482
L366.01 216.482
L366.01 210.779
L369.456 210.779
L369.456 205.076
L369.928 205.076
L369.928 199.373
L370.49 199.373
L370.49 193.67
L382.462 193.67
L382.462 187.967
L382.462 187.967
L382.462 187.967
L511.322 187.967" style="fill:none;stroke:#f5deb3;stroke-linecap:square;"/>
   </g>
   <g id="line2d_13"/>
   <g id="line2d_14"/>
   <g id="line2d_15"/>
   <g id="line2d_16">
    <path clip-path="url(#p4b24e7e61f)" d="
M500.205 359.056
L500.205 353.353
L501.278 353.353
L501.278 347.65
L508.575 347.65
L508.575 341.947
L524.834 341.947" style="fill:none;stroke:#f5deb3;stroke-linecap:square;"/>
   </g>
   <g id="line2d_17">
    <path clip-path="url(#p4b24e7e61f)" d="
M502.964 359.056
L502.964 353.353
L506.13 353.353
L506.13 347.65
L508.57 347.65
L508.57 341.947
L508.845 341.947
L508.845 336.244
L513.756 336.244
L513.756 330.541
L514.867 330.541
L514.867 324.839
L514.94 324.839
L514.94 319.136
L521.006 319.136
L521.006 313.433
L521.878 313.433
L521.878 307.73
L521.975 307.73
L521.975 302.027
L524.225 302.027
L524.225 296.324
L524.834 296.324" style="fill:none;stroke:#f5deb3;stroke-linecap:square;"/>
   </g>
   <g id="line2d_18">
    <path clip-path="url(#p4b24e7e61f)" d="
M293.701 359.056
L293.701 353.353
L304.706 353.353
L304.706 347.65
L304.895 347.65
L304.895 341.947
L305.626 341.947
L305.626 336.244
L305.896 336.244
L305.896 330.541
L309.128 330.541
L309.128 324.839
L309.237 324.839
L309.237 319.136
L309.347 319.136
L309.347 313.433
L309.41 313.433
L309.41 307.73
L309.922 307.73
L309.922 302.027
L310.307 302.027
L310.307 296.324
L310.46 296.324
L310.46 290.621
L310.506 290.621
L310.506 284.918
L310.735 284.918
L310.735 279.215
L311.113 279.215
L311.113 273.512
L311.294 273.512
L311.294 267.809
L312.627 267.809
L312.627 262.106
L313.035 262.106
L313.035 256.403
L313.064 256.403
L313.064 250.7
L313.136 250.7
L313.136 244.997
L314.181 244.997
L314.181 239.294
L316.825 239.294
L316.825 233.591
L317.159 233.591
L317.159 227.888
L323.149 227.888
L323.149 222.185
L340.241 222.185
L340.241 216.482
L345.641 216.482
L345.641 210.779
L347.733 210.779
L347.733 205.076
L348.936 205.076
L348.936 199.373
L350.94 199.373
L350.94 193.67
L351.382 193.67
L351.382 187.967
L352.235 187.967
L352.235 182.264
L352.749 182.264
L352.749 176.561
L353.935 176.561
L353.935 170.858
L356.099 170.858
L356.099 165.155
L361.438 165.155
L361.438 159.452
L363.615 159.452
L363.615 153.749
L366.839 153.749
L366.839 148.046
L367.371 148.046
L367.371 142.343
L371.394 142.343
L371.394 136.641
L371.792 136.641
L371.792 130.938
L373.951 130.938
L373.951 125.235
L381.66 125.235
L381.66 119.532
L395.728 119.532
L395.728 113.829
L398.155 113.829
L398.155 108.126
L406.466 108.126
L406.466 102.423
L406.466 102.423
L406.466 102.423
L511.322 102.423" style="fill:none;stroke:#f5deb3;stroke-linecap:square;"/>
   </g>
   <g id="line2d_19"/>
   <g id="line2d_20">
    <path clip-path="url(#p4b24e7e61f)" d="
M391.907 359.056
L391.907 353.353
L396.658 353.353
L396.658 347.65
L401.836 347.65
L401.836 341.947
L406.829 341.947
L406.829 336.244
L409.194 336.244
L409.194 330.541
L411.002 330.541
L411.002 324.839
L413.306 324.839
L413.306 319.136
L414.335 319.136
L414.335 313.433
L415.969 313.433
L415.969 307.73
L416.419 307.73
L416.419 302.027
L416.683 302.027
L416.683 296.324
L420.523 296.324
L420.523 290.621
L420.587 290.621
L420.587 284.918
L422.515 284.918
L422.515 279.215
L423.187 279.215
L423.187 273.512
L424.405 273.512
L424.405 267.809
L426.824 267.809
L426.824 262.106
L426.999 262.106
L426.999 256.403
L429.645 256.403
L429.645 250.7
L433.299 250.7
L433.299 244.997
L439.799 244.997
L439.799 239.294
L442.659 239.294
L442.659 233.591
L456.325 233.591
L456.325 227.888
L468.126 227.888
L468.126 222.185
L472.217 222.185
L472.217 216.482
L472.281 216.482
L472.281 210.779
L474.242 210.779
L474.242 205.076
L478.609 205.076
L478.609 199.373
L514.978 199.373
L514.978 193.67
L515.941 193.67
L515.941 187.967
L515.941 187.967" style="fill:none;stroke:#f5deb3;stroke-linecap:square;"/>
   </g>
   <g id="line2d_21"/>
   <g id="line2d_22">
    <path clip-path="url(#p4b24e7e61f)" d="
M397.302 359.056
L397.302 353.353
L397.594 353.353
L397.594 347.65
L399.183 347.65
L399.183 341.947
L400.259 341.947
L400.259 336.244
L400.734 336.244
L400.734 330.541
L400.838 330.541
L400.838 324.839
L401.377 324.839
L401.377 319.136
L401.846 319.136
L401.846 313.433
L402.511 313.433
L402.511 307.73
L402.994 307.73
L402.994 302.027
L404.06 302.027
L404.06 296.324
L405.147 296.324
L405.147 290.621
L405.262 290.621
L405.262 284.918
L406.758 284.918
L406.758 279.215
L407.113 279.215
L407.113 273.512
L407.795 273.512
L407.795 267.809
L407.83 267.809
L407.83 262.106
L408.134 262.106
L408.134 256.403
L409.134 256.403
L409.134 250.7
L410.173 250.7
L410.173 244.997
L410.649 244.997
L410.649 239.294
L411.163 239.294
L411.163 233.591
L411.986 233.591
L411.986 227.888
L413.941 227.888
L413.941 222.185
L415.293 222.185
L415.293 216.482
L416.402 216.482
L416.402 210.779
L416.407 210.779
L416.407 205.076
L420.227 205.076
L420.227 199.373
L421.409 199.373
L421.409 193.67
L422.857 193.67
L422.857 187.967
L440.51 187.967
L440.51 182.264
L444.083 182.264
L444.083 176.561
L445.127 176.561
L445.127 170.858
L445.803 170.858
L445.803 165.155
L447.778 165.155
L447.778 159.452
L448.743 159.452
L448.743 153.749
L449.475 153.749
L449.475 148.046
L465.343 148.046
L465.343 142.343
L468.161 142.343
L468.161 136.641
L474.615 136.641
L474.615 130.938
L479.909 130.938
L479.909 125.235
L489.962 125.235
L489.962 119.532
L497.418 119.532
L497.418 113.829
L506.77 113.829
L506.77 108.126
L506.77 108.126
L506.77 108.126
L511.322 108.126" style="fill:none;stroke:#f5deb3;stroke-linecap:square;"/>
   </g>
   <g id="line2d_23">
    <path clip-path="url(#p4b24e7e61f)" d="
M564.643 359.056" style="fill:none;stroke:#f5deb3;stroke-linecap:square;"/>
   </g>
   <g id="line2d_24">
    <path clip-path="url(#p4b24e7e61f)" d="
M375.076 359.056
L375.076 353.353
L385.92 353.353
L385.92 347.65
L387.831 347.65
L387.831 341.947
L390.133 341.947
L390.133 336.244
L390.177 336.244
L390.177 330.541
L391.089 330.541
L391.089 324.839
L392.007 324.839
L392.007 319.136
L396.248 319.136
L396.248 313.433
L397.284 313.433
L397.284 307.73
L397.652 307.73
L397.652 302.027
L398.908 302.027
L398.908 296.324
L399.435 296.324
L399.435 290.621
L399.454 290.621
L399.454 284.918
L401.697 284.918
L401.697 279.215
L401.904 279.215
L401.904 273.512
L471.094 273.512
L471.094 267.809
L471.369 267.809
L471.369 262.106
L471.892 262.106
L471.892 256.403
L473.603 256.403
L473.603 250.7
L473.634 250.7
L473.634 244.997
L474.081 244.997
L474.081 239.294
L474.683 239.294
L474.683 233.591
L474.922 233.591
L474.922 227.888
L475.086 227.888
L475.086 222.185
L475.164 222.185
L475.164 216.482
L475.911 216.482
L475.911 210.779
L476.278 210.779
L476.278 205.076
L476.285 205.076
L476.285 199.373
L476.4 199.373
L476.4 193.67
L476.534 193.67
L476.534 187.967
L476.542 187.967
L476.542 182.264
L476.776 182.264
L476.776 176.561
L476.848 176.561
L476.848 170.858
L477.127 170.858
L477.127 165.155
L477.311 165.155
L477.311 159.452
L477.354 159.452
L477.354 153.749
L477.476 153.749
L477.476 148.046
L478.009 148.046
L478.009 142.343
L478.274 142.343
L478.274 136.641
L479.263 136.641
L479.263 130.938
L479.925 130.938
L479.925 125.235
L480.402 125.235
L480.402 119.532
L481.042 119.532
L481.042 113.829
L483.307 113.829
L483.307 108.126
L484.95 108.126
L484.95 102.423
L491.428 102.423
L491.428 96.7197
L494.336 96.7197
L494.336 91.0167
L495.211 91.0167
L495.211 85.3138
L495.504 85.3138
L495.504 79.6108
L496.053 79.6108
L496.053 73.9078
L496.252 73.9078
L496.252 68.2049
L497.553 68.2049
L497.553 62.5019
L498.9 62.5019
L498.9 56.7989
L498.974 56.7989
L498.974 51.0959
L499.52 51.0959
L499.52 45.393
L499.874 45.393
L499.874 39.69
L500.646 39.69
L500.646 33.987
L501.33 33.987
L501.33 28.2841
L501.919 28.2841
L501.919 22.5811
L502.993 22.5811
L502.993 16.8781
L502.993 16.8781
L502.993 16.8781
L511.322 16.8781" style="fill:none;stroke:#f5deb3;stroke-linecap:square;"/>
   </g>
   <g id="line2d_25">
    <path clip-path="url(#p4b24e7e61f)" d="
M528.386 359.056" style="fill:none;stroke:#f5deb3;stroke-linecap:square;"/>
   </g>
   <g id="line2d_26">
    <path clip-path="url(#p4b24e7e61f)" d="
M415.416 359.056
L415.416 353.353
L420.173 353.353
L420.173 347.65
L421.792 347.65
L421.792 341.947
L423.117 341.947
L423.117 336.244
L423.596 336.244
L423.596 330.541
L424.661 330.541
L424.661 324.839
L424.902 324.839
L424.902 319.136
L426.475 319.136
L426.475 313.433
L428.744 313.433
L428.744 307.73
L429.189 307.73
L429.189 302.027
L431.255 302.027
L431.255 296.324
L432.777 296.324
L432.777 290.621
L434.836 290.621
L434.836 284.918
L435.091 284.918
L435.091 279.215
L437.174 279.215
L437.174 273.512
L437.194 273.512
L437.194 267.809
L438.531 267.809
L438.531 262.106
L439.461 262.106
L439.461 256.403
L440.623 256.403
L440.623 250.7
L444.729 250.7
L444.729 244.997
L445.653 244.997
L445.653 239.294
L446.339 239.294
L446.339 233.591
L446.396 233.591
L446.396 227.888
L447.349 227.888
L447.349 222.185
L447.444 222.185
L447.444 216.482
L448.329 216.482
L448.329 210.779
L448.381 210.779
L448.381 205.076
L449.011 205.076
L449.011 199.373
L449.284 199.373
L449.284 193.67
L450.004 193.67
L450.004 187.967
L451.477 187.967
L451.477 182.264
L451.516 182.264
L451.516 176.561
L451.594 176.561
L451.594 170.858
L451.637 170.858
L451.637 165.155
L451.8 165.155
L451.8 159.452
L452.608 159.452
L452.608 153.749
L453.11 153.749
L453.11 148.046
L454.121 148.046
L454.121 142.343
L458.49 142.343
L458.49 136.641
L501.882 136.641
L501.882 130.938
L515.114 130.938
L515.114 125.235
L515.957 125.235
L515.957 119.532
L516.602 119.532
L516.602 113.829
L520.953 113.829
L520.953 108.126
L524.834 108.126" style="fill:none;stroke:#f5deb3;stroke-linecap:square;"/>
   </g>
   <g id="line2d_27"/>
   <g id="line2d_28">
    <path clip-path="url(#p4b24e7e61f)" d="
M346.426 359.056
L346.426 353.353
L348.999 353.353
L348.999 347.65
L350.191 347.65
L350.191 341.947
L350.8 341.947
L350.8 336.244
L353.402 336.244
L353.402 330.541
L353.654 330.541
L353.654 324.839
L354.122 324.839
L354.122 319.136
L354.567 319.136
L354.567 313.433
L416.817 313.433
L416.817 307.73
L416.891 307.73
L416.891 302.027
L417.121 302.027
L417.121 296.324
L417.27 296.324
L417.27 290.621
L417.732 290.621
L417.732 284.918
L430.501 284.918
L430.501 279.215
L432.563 279.215
L432.563 273.512
L432.904 273.512
L432.904 267.809
L433.006 267.809
L433.006 262.106
L433.161 262.106
L433.161 256.403
L433.683 256.403
L433.683 250.7
L434.434 250.7
L434.434 244.997
L435.055 244.997
L435.055 239.294
L435.32 239.294
L435.32 233.591
L435.997 233.591
L435.997 227.888
L436.553 227.888
L436.553 222.185
L436.653 222.185
L436.653 216.482
L436.696 216.482
L436.696 210.779
L437.432 210.779
L437.432 205.076
L437.788 205.076
L437.788 199.373
L437.837 199.373
L437.837 193.67
L438.045 193.67
L438.045 187.967
L439.005 187.967
L439.005 182.264
L439.352 182.264
L439.352 176.561
L439.497 176.561
L439.497 170.858
L439.58 170.858
L439.58 165.155
L439.613 165.155
L439.613 159.452
L440.621 159.452
L440.621 153.749
L441.063 153.749
L441.063 148.046
L441.135 148.046
L441.135 142.343
L441.209 142.343
L441.209 136.641
L441.329 136.641
L441.329 130.938
L441.463 130.938
L441.463 125.235
L442.015 125.235
L442.015 119.532
L443.928 119.532
L443.928 113.829
L445.685 113.829
L445.685 108.126
L445.874 108.126
L445.874 102.423
L448.219 102.423
L448.219 96.7197
L448.318 96.7197
L448.318 91.0167
L448.641 91.0167
L448.641 85.3138
L449.393 85.3138
L449.393 79.6108
L450.722 79.6108
L450.722 73.9078
L451.44 73.9078
L451.44 68.2049
L452.683 68.2049
L452.683 62.5019
L453.103 62.5019
L453.103 56.7989
L454.297 56.7989
L454.297 51.0959
L455.763 51.0959
L455.763 45.393
L459.228 45.393
L459.228 39.69
L460.916 39.69
L460.916 33.987
L461.42 33.987
L461.42 28.2841
L485.245 28.2841
L485.245 22.5811
L487.019 22.5811
L487.019 16.8781
L487.019 16.8781
L487.019 16.8781
L511.322 16.8781" style="fill:none;stroke:#f5deb3;stroke-linecap:square;"/>
   </g>
   <g id="line2d_29">
    <path clip-path="url(#p4b24e7e61f)" d="
M301.431 359.056
L301.431 353.353
L301.431 353.353
L301.431 347.65
L301.431 347.65
L301.431 341.947
L315.452 341.947
L315.452 336.244
L315.452 336.244
L315.452 330.541
L315.452 330.541
L315.452 324.839
L338.197 324.839
L338.197 319.136
L338.197 319.136
L338.197 313.433
L338.197 313.433
L338.197 307.73
L339.018 307.73
L339.018 302.027
L339.018 302.027
L339.018 296.324
L339.018 296.324
L339.018 290.621
L353.704 290.621
L353.704 284.918
L353.704 284.918
L353.704 279.215
L353.704 279.215
L353.704 273.512
L355.625 273.512
L355.625 267.809
L355.625 267.809
L355.625 262.106
L355.625 262.106
L355.625 256.403
L356.033 256.403
L356.033 250.7
L356.033 250.7
L356.033 244.997
L356.033 244.997
L356.033 239.294
L357.393 239.294
L357.393 233.591
L357.393 233.591
L357.393 227.888
L357.393 227.888
L357.393 222.185
L357.462 222.185
L357.462 216.482
L357.462 216.482
L357.462 210.779
L357.462 210.779
L357.462 205.076
L382.486 205.076
L382.486 199.373
L382.486 199.373
L382.486 193.67
L382.486 193.67
L382.486 187.967
L382.486 187.967
L382.486 187.967
L511.322 187.967" style="fill:none;stroke:#f5deb3;stroke-linecap:square;"/>
   </g>
   <g id="line2d_30"/>
   <g id="line2d_31">
    <path clip-path="url(#p4b24e7e61f)" d="
M349.342 359.056
L349.342 353.353
L351.801 353.353
L351.801 347.65
L356.348 347.65
L356.348 341.947
L359.193 341.947
L359.193 336.244
L359.594 336.244
L359.594 330.541
L360.277 330.541
L360.277 324.839
L361.635 324.839
L361.635 319.136
L362.364 319.136
L362.364 313.433
L363.579 313.433
L363.579 307.73
L364.365 307.73
L364.365 302.027
L364.465 302.027
L364.465 296.324
L365.374 296.324
L365.374 290.621
L366.083 290.621
L366.083 284.918
L372.787 284.918
L372.787 279.215
L374.079 279.215
L374.079 273.512
L374.858 273.512
L374.858 267.809
L374.866 267.809
L374.866 262.106
L374.911 262.106
L374.911 256.403
L375.096 256.403
L375.096 250.7
L375.601 250.7
L375.601 244.997
L376.152 244.997
L376.152 239.294
L377.182 239.294
L377.182 233.591
L378.585 233.591
L378.585 227.888
L378.906 227.888
L378.906 222.185
L379.325 222.185
L379.325 216.482
L379.689 216.482
L379.689 210.779
L379.759 210.779
L379.759 205.076
L380.822 205.076
L380.822 199.373
L382.216 199.373
L382.216 193.67
L383.394 193.67
L383.394 187.967
L418.183 187.967
L418.183 182.264
L418.427 182.264
L418.427 176.561
L418.891 176.561
L418.891 170.858
L419.509 170.858
L419.509 165.155
L419.638 165.155
L419.638 159.452
L420.208 159.452
L420.208 153.749
L420.439 153.749
L420.439 148.046
L420.616 148.046
L420.616 142.343
L420.649 142.343
L420.649 136.641
L420.726 136.641
L420.726 130.938
L421.319 130.938
L421.319 125.235
L421.446 125.235
L421.446 119.532
L421.838 119.532
L421.838 113.829
L422.095 113.829
L422.095 108.126
L422.127 108.126
L422.127 102.423
L422.171 102.423
L422.171 96.7197
L422.225 96.7197
L422.225 91.0167
L422.415 91.0167
L422.415 85.3138
L422.453 85.3138
L422.453 79.6108
L422.538 79.6108
L422.538 73.9078
L422.568 73.9078
L422.568 68.2049
L422.575 68.2049
L422.575 62.5019
L422.669 62.5019
L422.669 56.7989
L422.787 56.7989
L422.787 51.0959
L422.802 51.0959
L422.802 45.393
L422.964 45.393
L422.964 39.69
L423.058 39.69
L423.058 33.987
L427.77 33.987
L427.77 28.2841
L429.502 28.2841
L429.502 22.5811
L429.892 22.5811
L429.892 16.8781
L429.892 16.8781
L429.892 16.8781
L511.322 16.8781" style="fill:none;stroke:#000000;stroke-linecap:square;"/>
   </g>
   <g id="line2d_32"/>
   <g id="line2d_33">
    <path clip-path="url(#p4b24e7e61f)" d="
M414.458 359.056
L414.458 353.353
L415.72 353.353
L415.72 347.65
L415.828 347.65
L415.828 341.947
L416.1 341.947
L416.1 336.244
L416.631 336.244
L416.631 330.541
L417.23 330.541
L417.23 324.839
L417.44 324.839
L417.44 319.136
L417.454 319.136
L417.454 313.433
L417.46 313.433
L417.46 307.73
L417.616 307.73
L417.616 302.027
L417.705 302.027
L417.705 296.324
L417.96 296.324
L417.96 290.621
L419.674 290.621
L419.674 284.918
L420.1 284.918
L420.1 279.215
L420.327 279.215
L420.327 273.512
L430.207 273.512
L430.207 267.809
L432.652 267.809
L432.652 262.106
L432.908 262.106
L432.908 256.403
L435.351 256.403
L435.351 250.7
L435.537 250.7
L435.537 244.997
L436.855 244.997
L436.855 239.294
L437.039 239.294
L437.039 233.591
L437.185 233.591
L437.185 227.888
L437.393 227.888
L437.393 222.185
L437.429 222.185
L437.429 216.482
L438.24 216.482
L438.24 210.779
L438.276 210.779
L438.276 205.076
L438.575 205.076
L438.575 199.373
L438.998 199.373
L438.998 193.67
L440.045 193.67
L440.045 187.967
L440.905 187.967
L440.905 182.264
L441.294 182.264
L441.294 176.561
L441.34 176.561
L441.34 170.858
L441.346 170.858
L441.346 165.155
L441.404 165.155
L441.404 159.452
L441.65 159.452
L441.65 153.749
L441.822 153.749
L441.822 148.046
L442.515 148.046
L442.515 142.343
L442.934 142.343
L442.934 136.641
L443.93 136.641
L443.93 130.938
L446.194 130.938
L446.194 125.235
L488.211 125.235
L488.211 119.532
L489.283 119.532
L489.283 113.829
L494.528 113.829
L494.528 108.126
L495.236 108.126
L495.236 102.423
L496.504 102.423
L496.504 96.7197
L496.504 96.7197
L496.504 96.7197
L511.322 96.7197" style="fill:none;stroke:#00bfbf;stroke-linecap:square;"/>
   </g>
   <g id="line2d_34"/>
   <g id="line2d_35">
    <path clip-path="url(#p4b24e7e61f)" d="
M445.206 359.056
L445.206 353.353
L445.714 353.353
L445.714 347.65
L445.906 347.65
L445.906 341.947
L446.167 341.947
L446.167 336.244
L446.31 336.244
L446.31 330.541
L446.939 330.541
L446.939 324.839
L447.246 324.839
L447.246 319.136
L448.383 319.136
L448.383 313.433
L448.393 313.433
L448.393 307.73
L448.441 307.73
L448.441 302.027
L448.511 302.027
L448.511 296.324
L448.755 296.324
L448.755 290.621
L449.298 290.621
L449.298 284.918
L449.782 284.918
L449.782 279.215
L450.491 279.215
L450.491 273.512
L450.561 273.512
L450.561 267.809
L453.959 267.809
L453.959 262.106
L454.052 262.106
L454.052 256.403
L454.33 256.403
L454.33 250.7
L454.514 250.7
L454.514 244.997
L456.768 244.997
L456.768 239.294
L456.953 239.294
L456.953 233.591
L457.056 233.591
L457.056 227.888
L457.197 227.888
L457.197 222.185
L457.218 222.185
L457.218 216.482
L457.988 216.482
L457.988 210.779
L458.65 210.779
L458.65 205.076
L458.732 205.076
L458.732 199.373
L458.859 199.373
L458.859 193.67
L460.144 193.67
L460.144 187.967
L460.258 187.967
L460.258 182.264
L460.972 182.264
L460.972 176.561
L461.504 176.561
L461.504 170.858
L461.724 170.858
L461.724 165.155
L461.77 165.155
L461.77 159.452
L462.536 159.452
L462.536 153.749
L462.669 153.749
L462.669 148.046
L463.126 148.046
L463.126 142.343
L463.616 142.343
L463.616 136.641
L463.768 136.641
L463.768 130.938
L464.829 130.938
L464.829 125.235
L500.863 125.235
L500.863 119.532
L503.263 119.532
L503.263 113.829
L504.414 113.829
L504.414 108.126
L504.414 108.126
L504.414 108.126
L511.322 108.126" style="fill:none;stroke:#bf00bf;stroke-linecap:square;"/>
   </g>
   <g id="line2d_36"/>
   <g id="line2d_37">
    <path clip-path="url(#p4b24e7e61f)" d="
M468.52 359.056
L468.52 353.353
L468.68 353.353
L468.68 347.65
L468.722 347.65
L468.722 341.947
L469.388 341.947
L469.388 336.244
L469.396 336.244
L469.396 330.541
L469.533 330.541
L469.533 324.839
L469.605 324.839
L469.605 319.136
L470.009 319.136
L470.009 313.433
L470.019 313.433
L470.019 307.73
L470.686 307.73
L470.686 302.027
L470.794 302.027
L470.794 296.324
L470.904 296.324
L470.904 290.621
L471.007 290.621
L471.007 284.918
L471.135 284.918
L471.135 279.215
L471.306 279.215
L471.306 273.512
L471.527 273.512
L471.527 267.809
L471.713 267.809
L471.713 262.106
L471.822 262.106
L471.822 256.403
L472.457 256.403
L472.457 250.7
L472.724 250.7
L472.724 244.997
L472.733 244.997
L472.733 239.294
L474.35 239.294
L474.35 233.591
L474.566 233.591
L474.566 227.888
L476.491 227.888
L476.491 222.185
L477.671 222.185
L477.671 216.482
L508.964 216.482
L508.964 210.779
L509.538 210.779
L509.538 205.076
L509.641 205.076
L509.641 199.373
L511.174 199.373
L511.174 193.67
L511.174 193.67
L511.174 193.67
L511.322 193.67" style="fill:none;stroke:#ff0000;stroke-linecap:square;stroke-width:3.0;"/>
   </g>
   <g id="line2d_38"/>
   <g id="line2d_39">
    <path clip-path="url(#p4b24e7e61f)" d="
M511.322 359.056
L511.322 13.4563" style="fill:none;stroke:#000000;stroke-linecap:square;"/>
   </g>
   <g id="matplotlib.axis_1">
    <g id="xtick_1">
     <g id="line2d_40">
      <path clip-path="url(#p4b24e7e61f)" d="
M176.522 359.056
L176.522 13.4563" style="fill:none;stroke:#000000;stroke-dasharray:1.000000,3.000000;stroke-dashoffset:0.0;stroke-width:0.5;"/>
     </g>
     <g id="line2d_41">
      <defs>
       <path d="
M0 0
L0 -4" id="m93b0483c22" style="stroke:#000000;stroke-width:0.5;"/>
      </defs>
      <g>
       <use style="stroke:#000000;stroke-width:0.5;" x="176.521753833" xlink:href="#m93b0483c22" y="359.056342822"/>
      </g>
     </g>
     <g id="line2d_42">
      <defs>
       <path d="
M0 0
L0 4" id="m741efc42ff" style="stroke:#000000;stroke-width:0.5;"/>
      </defs>
      <g>
       <use style="stroke:#000000;stroke-width:0.5;" x="176.521753833" xlink:href="#m741efc42ff" y="13.4563428218"/>
      </g>
     </g>
     <g id="text_1">
      <!-- 1 -->
      <defs>
       <path d="
M12.4062 8.29688
L28.5156 8.29688
L28.5156 63.9219
L10.9844 60.4062
L10.9844 69.3906
L28.4219 72.9062
L38.2812 72.9062
L38.2812 8.29688
L54.3906 8.29688
L54.3906 0
L12.4062 0
z
" id="BitstreamVeraSans-Roman-31"/>
      </defs>
      <g transform="translate(172.181128833 378.253217822)scale(0.2 -0.2)">
       <use xlink:href="#BitstreamVeraSans-Roman-31"/>
      </g>
     </g>
    </g>
    <g id="xtick_2">
     <g id="line2d_43">
      <path clip-path="url(#p4b24e7e61f)" d="
M288.122 359.056
L288.122 13.4563" style="fill:none;stroke:#000000;stroke-dasharray:1.000000,3.000000;stroke-dashoffset:0.0;stroke-width:0.5;"/>
     </g>
     <g id="line2d_44">
      <g>
       <use style="stroke:#000000;stroke-width:0.5;" x="288.121632665" xlink:href="#m93b0483c22" y="359.056342822"/>
      </g>
     </g>
     <g id="line2d_45">
      <g>
       <use style="stroke:#000000;stroke-width:0.5;" x="288.121632665" xlink:href="#m741efc42ff" y="13.4563428218"/>
      </g>
     </g>
     <g id="text_2">
      <!-- 2 -->
      <defs>
       <path d="
M19.1875 8.29688
L53.6094 8.29688
L53.6094 0
L7.32812 0
L7.32812 8.29688
Q12.9375 14.1094 22.625 23.8906
Q32.3281 33.6875 34.8125 36.5312
Q39.5469 41.8438 41.4219 45.5312
Q43.3125 49.2188 43.3125 52.7812
Q43.3125 58.5938 39.2344 62.25
Q35.1562 65.9219 28.6094 65.9219
Q23.9688 65.9219 18.8125 64.3125
Q13.6719 62.7031 7.8125 59.4219
L7.8125 69.3906
Q13.7656 71.7812 18.9375 73
Q24.125 74.2188 28.4219 74.2188
Q39.75 74.2188 46.4844 68.5469
Q53.2188 62.8906 53.2188 53.4219
Q53.2188 48.9219 51.5312 44.8906
Q49.8594 40.875 45.4062 35.4062
Q44.1875 33.9844 37.6406 27.2188
Q31.1094 20.4531 19.1875 8.29688" id="BitstreamVeraSans-Roman-32"/>
      </defs>
      <g transform="translate(283.493507665 378.253217822)scale(0.2 -0.2)">
       <use xlink:href="#BitstreamVeraSans-Roman-32"/>
      </g>
     </g>
    </g>
    <g id="xtick_3">
     <g id="line2d_46">
      <path clip-path="url(#p4b24e7e61f)" d="
M399.722 359.056
L399.722 13.4563" style="fill:none;stroke:#000000;stroke-dasharray:1.000000,3.000000;stroke-dashoffset:0.0;stroke-width:0.5;"/>
     </g>
     <g id="line2d_47">
      <g>
       <use style="stroke:#000000;stroke-width:0.5;" x="399.721511498" xlink:href="#m93b0483c22" y="359.056342822"/>
      </g>
     </g>
     <g id="line2d_48">
      <g>
       <use style="stroke:#000000;stroke-width:0.5;" x="399.721511498" xlink:href="#m741efc42ff" y="13.4563428218"/>
      </g>
     </g>
     <g id="text_3">
      <!-- 3 -->
      <defs>
       <path d="
M40.5781 39.3125
Q47.6562 37.7969 51.625 33
Q55.6094 28.2188 55.6094 21.1875
Q55.6094 10.4062 48.1875 4.48438
Q40.7656 -1.42188 27.0938 -1.42188
Q22.5156 -1.42188 17.6562 -0.515625
Q12.7969 0.390625 7.625 2.20312
L7.625 11.7188
Q11.7188 9.32812 16.5938 8.10938
Q21.4844 6.89062 26.8125 6.89062
Q36.0781 6.89062 40.9375 10.5469
Q45.7969 14.2031 45.7969 21.1875
Q45.7969 27.6406 41.2812 31.2656
Q36.7656 34.9062 28.7188 34.9062
L20.2188 34.9062
L20.2188 43.0156
L29.1094 43.0156
Q36.375 43.0156 40.2344 45.9219
Q44.0938 48.8281 44.0938 54.2969
Q44.0938 59.9062 40.1094 62.9062
Q36.1406 65.9219 28.7188 65.9219
Q24.6562 65.9219 20.0156 65.0312
Q15.375 64.1562 9.8125 62.3125
L9.8125 71.0938
Q15.4375 72.6562 20.3438 73.4375
Q25.25 74.2188 29.5938 74.2188
Q40.8281 74.2188 47.3594 69.1094
Q53.9062 64.0156 53.9062 55.3281
Q53.9062 49.2656 50.4375 45.0938
Q46.9688 40.9219 40.5781 39.3125" id="BitstreamVeraSans-Roman-33"/>
      </defs>
      <g transform="translate(394.923073998 378.253217822)scale(0.2 -0.2)">
       <use xlink:href="#BitstreamVeraSans-Roman-33"/>
      </g>
     </g>
    </g>
    <g id="xtick_4">
     <g id="line2d_49">
      <path clip-path="url(#p4b24e7e61f)" d="
M511.321 359.056
L511.321 13.4563" style="fill:none;stroke:#000000;stroke-dasharray:1.000000,3.000000;stroke-dashoffset:0.0;stroke-width:0.5;"/>
     </g>
     <g id="line2d_50">
      <g>
       <use style="stroke:#000000;stroke-width:0.5;" x="511.32139033" xlink:href="#m93b0483c22" y="359.056342822"/>
      </g>
     </g>
     <g id="line2d_51">
      <g>
       <use style="stroke:#000000;stroke-width:0.5;" x="511.32139033" xlink:href="#m741efc42ff" y="13.4563428218"/>
      </g>
     </g>
     <g id="text_4">
      <!-- 4 -->
      <defs>
       <path d="
M37.7969 64.3125
L12.8906 25.3906
L37.7969 25.3906
z

M35.2031 72.9062
L47.6094 72.9062
L47.6094 25.3906
L58.0156 25.3906
L58.0156 17.1875
L47.6094 17.1875
L47.6094 0
L37.7969 0
L37.7969 17.1875
L4.89062 17.1875
L4.89062 26.7031
z
" id="BitstreamVeraSans-Roman-34"/>
      </defs>
      <g transform="translate(506.00889033 378.253217822)scale(0.2 -0.2)">
       <use xlink:href="#BitstreamVeraSans-Roman-34"/>
      </g>
     </g>
    </g>
    <g id="xtick_5">
     <g id="line2d_52">
      <defs>
       <path d="
M0 0
L0 -2" id="m177f7580d0" style="stroke:#000000;stroke-width:0.5;"/>
      </defs>
      <g>
       <use style="stroke:#000000;stroke-width:0.5;" x="98.5167860411" xlink:href="#m177f7580d0" y="359.056342822"/>
      </g>
     </g>
     <g id="line2d_53">
      <defs>
       <path d="
M0 0
L0 2" id="m5284c7e2a0" style="stroke:#000000;stroke-width:0.5;"/>
      </defs>
      <g>
       <use style="stroke:#000000;stroke-width:0.5;" x="98.5167860411" xlink:href="#m5284c7e2a0" y="13.4563428218"/>
      </g>
     </g>
    </g>
    <g id="xtick_6">
     <g id="line2d_54">
      <g>
       <use style="stroke:#000000;stroke-width:0.5;" x="118.168549215" xlink:href="#m177f7580d0" y="359.056342822"/>
      </g>
     </g>
     <g id="line2d_55">
      <g>
       <use style="stroke:#000000;stroke-width:0.5;" x="118.168549215" xlink:href="#m5284c7e2a0" y="13.4563428218"/>
      </g>
     </g>
    </g>
    <g id="xtick_7">
     <g id="line2d_56">
      <g>
       <use style="stroke:#000000;stroke-width:0.5;" x="132.111697082" xlink:href="#m177f7580d0" y="359.056342822"/>
      </g>
     </g>
     <g id="line2d_57">
      <g>
       <use style="stroke:#000000;stroke-width:0.5;" x="132.111697082" xlink:href="#m5284c7e2a0" y="13.4563428218"/>
      </g>
     </g>
    </g>
    <g id="xtick_8">
     <g id="line2d_58">
      <g>
       <use style="stroke:#000000;stroke-width:0.5;" x="142.926842792" xlink:href="#m177f7580d0" y="359.056342822"/>
      </g>
     </g>
     <g id="line2d_59">
      <g>
       <use style="stroke:#000000;stroke-width:0.5;" x="142.926842792" xlink:href="#m5284c7e2a0" y="13.4563428218"/>
      </g>
     </g>
    </g>
    <g id="xtick_9">
     <g id="line2d_60">
      <g>
       <use style="stroke:#000000;stroke-width:0.5;" x="151.763460256" xlink:href="#m177f7580d0" y="359.056342822"/>
      </g>
     </g>
     <g id="line2d_61">
      <g>
       <use style="stroke:#000000;stroke-width:0.5;" x="151.763460256" xlink:href="#m5284c7e2a0" y="13.4563428218"/>
      </g>
     </g>
    </g>
    <g id="xtick_10">
     <g id="line2d_62">
      <g>
       <use style="stroke:#000000;stroke-width:0.5;" x="159.234713867" xlink:href="#m177f7580d0" y="359.056342822"/>
      </g>
     </g>
     <g id="line2d_63">
      <g>
       <use style="stroke:#000000;stroke-width:0.5;" x="159.234713867" xlink:href="#m5284c7e2a0" y="13.4563428218"/>
      </g>
     </g>
    </g>
    <g id="xtick_11">
     <g id="line2d_64">
      <g>
       <use style="stroke:#000000;stroke-width:0.5;" x="165.706608123" xlink:href="#m177f7580d0" y="359.056342822"/>
      </g>
     </g>
     <g id="line2d_65">
      <g>
       <use style="stroke:#000000;stroke-width:0.5;" x="165.706608123" xlink:href="#m5284c7e2a0" y="13.4563428218"/>
      </g>
     </g>
    </g>
    <g id="xtick_12">
     <g id="line2d_66">
      <g>
       <use style="stroke:#000000;stroke-width:0.5;" x="171.41522343" xlink:href="#m177f7580d0" y="359.056342822"/>
      </g>
     </g>
     <g id="line2d_67">
      <g>
       <use style="stroke:#000000;stroke-width:0.5;" x="171.41522343" xlink:href="#m5284c7e2a0" y="13.4563428218"/>
      </g>
     </g>
    </g>
    <g id="xtick_13">
     <g id="line2d_68">
      <g>
       <use style="stroke:#000000;stroke-width:0.5;" x="210.116664874" xlink:href="#m177f7580d0" y="359.056342822"/>
      </g>
     </g>
     <g id="line2d_69">
      <g>
       <use style="stroke:#000000;stroke-width:0.5;" x="210.116664874" xlink:href="#m5284c7e2a0" y="13.4563428218"/>
      </g>
     </g>
    </g>
    <g id="xtick_14">
     <g id="line2d_70">
      <g>
       <use style="stroke:#000000;stroke-width:0.5;" x="229.768428048" xlink:href="#m177f7580d0" y="359.056342822"/>
      </g>
     </g>
     <g id="line2d_71">
      <g>
       <use style="stroke:#000000;stroke-width:0.5;" x="229.768428048" xlink:href="#m5284c7e2a0" y="13.4563428218"/>
      </g>
     </g>
    </g>
    <g id="xtick_15">
     <g id="line2d_72">
      <g>
       <use style="stroke:#000000;stroke-width:0.5;" x="243.711575915" xlink:href="#m177f7580d0" y="359.056342822"/>
      </g>
     </g>
     <g id="line2d_73">
      <g>
       <use style="stroke:#000000;stroke-width:0.5;" x="243.711575915" xlink:href="#m5284c7e2a0" y="13.4563428218"/>
      </g>
     </g>
    </g>
    <g id="xtick_16">
     <g id="line2d_74">
      <g>
       <use style="stroke:#000000;stroke-width:0.5;" x="254.526721624" xlink:href="#m177f7580d0" y="359.056342822"/>
      </g>
     </g>
     <g id="line2d_75">
      <g>
       <use style="stroke:#000000;stroke-width:0.5;" x="254.526721624" xlink:href="#m5284c7e2a0" y="13.4563428218"/>
      </g>
     </g>
    </g>
    <g id="xtick_17">
     <g id="line2d_76">
      <g>
       <use style="stroke:#000000;stroke-width:0.5;" x="263.363339089" xlink:href="#m177f7580d0" y="359.056342822"/>
      </g>
     </g>
     <g id="line2d_77">
      <g>
       <use style="stroke:#000000;stroke-width:0.5;" x="263.363339089" xlink:href="#m5284c7e2a0" y="13.4563428218"/>
      </g>
     </g>
    </g>
    <g id="xtick_18">
     <g id="line2d_78">
      <g>
       <use style="stroke:#000000;stroke-width:0.5;" x="270.8345927" xlink:href="#m177f7580d0" y="359.056342822"/>
      </g>
     </g>
     <g id="line2d_79">
      <g>
       <use style="stroke:#000000;stroke-width:0.5;" x="270.8345927" xlink:href="#m5284c7e2a0" y="13.4563428218"/>
      </g>
     </g>
    </g>
    <g id="xtick_19">
     <g id="line2d_80">
      <g>
       <use style="stroke:#000000;stroke-width:0.5;" x="277.306486956" xlink:href="#m177f7580d0" y="359.056342822"/>
      </g>
     </g>
     <g id="line2d_81">
      <g>
       <use style="stroke:#000000;stroke-width:0.5;" x="277.306486956" xlink:href="#m5284c7e2a0" y="13.4563428218"/>
      </g>
     </g>
    </g>
    <g id="xtick_20">
     <g id="line2d_82">
      <g>
       <use style="stroke:#000000;stroke-width:0.5;" x="283.015102263" xlink:href="#m177f7580d0" y="359.056342822"/>
      </g>
     </g>
     <g id="line2d_83">
      <g>
       <use style="stroke:#000000;stroke-width:0.5;" x="283.015102263" xlink:href="#m5284c7e2a0" y="13.4563428218"/>
      </g>
     </g>
    </g>
    <g id="xtick_21">
     <g id="line2d_84">
      <g>
       <use style="stroke:#000000;stroke-width:0.5;" x="321.716543706" xlink:href="#m177f7580d0" y="359.056342822"/>
      </g>
     </g>
     <g id="line2d_85">
      <g>
       <use style="stroke:#000000;stroke-width:0.5;" x="321.716543706" xlink:href="#m5284c7e2a0" y="13.4563428218"/>
      </g>
     </g>
    </g>
    <g id="xtick_22">
     <g id="line2d_86">
      <g>
       <use style="stroke:#000000;stroke-width:0.5;" x="341.36830688" xlink:href="#m177f7580d0" y="359.056342822"/>
      </g>
     </g>
     <g id="line2d_87">
      <g>
       <use style="stroke:#000000;stroke-width:0.5;" x="341.36830688" xlink:href="#m5284c7e2a0" y="13.4563428218"/>
      </g>
     </g>
    </g>
    <g id="xtick_23">
     <g id="line2d_88">
      <g>
       <use style="stroke:#000000;stroke-width:0.5;" x="355.311454747" xlink:href="#m177f7580d0" y="359.056342822"/>
      </g>
     </g>
     <g id="line2d_89">
      <g>
       <use style="stroke:#000000;stroke-width:0.5;" x="355.311454747" xlink:href="#m5284c7e2a0" y="13.4563428218"/>
      </g>
     </g>
    </g>
    <g id="xtick_24">
     <g id="line2d_90">
      <g>
       <use style="stroke:#000000;stroke-width:0.5;" x="366.126600457" xlink:href="#m177f7580d0" y="359.056342822"/>
      </g>
     </g>
     <g id="line2d_91">
      <g>
       <use style="stroke:#000000;stroke-width:0.5;" x="366.126600457" xlink:href="#m5284c7e2a0" y="13.4563428218"/>
      </g>
     </g>
    </g>
    <g id="xtick_25">
     <g id="line2d_92">
      <g>
       <use style="stroke:#000000;stroke-width:0.5;" x="374.963217921" xlink:href="#m177f7580d0" y="359.056342822"/>
      </g>
     </g>
     <g id="line2d_93">
      <g>
       <use style="stroke:#000000;stroke-width:0.5;" x="374.963217921" xlink:href="#m5284c7e2a0" y="13.4563428218"/>
      </g>
     </g>
    </g>
    <g id="xtick_26">
     <g id="line2d_94">
      <g>
       <use style="stroke:#000000;stroke-width:0.5;" x="382.434471532" xlink:href="#m177f7580d0" y="359.056342822"/>
      </g>
     </g>
     <g id="line2d_95">
      <g>
       <use style="stroke:#000000;stroke-width:0.5;" x="382.434471532" xlink:href="#m5284c7e2a0" y="13.4563428218"/>
      </g>
     </g>
    </g>
    <g id="xtick_27">
     <g id="line2d_96">
      <g>
       <use style="stroke:#000000;stroke-width:0.5;" x="388.906365788" xlink:href="#m177f7580d0" y="359.056342822"/>
      </g>
     </g>
     <g id="line2d_97">
      <g>
       <use style="stroke:#000000;stroke-width:0.5;" x="388.906365788" xlink:href="#m5284c7e2a0" y="13.4563428218"/>
      </g>
     </g>
    </g>
    <g id="xtick_28">
     <g id="line2d_98">
      <g>
       <use style="stroke:#000000;stroke-width:0.5;" x="394.614981095" xlink:href="#m177f7580d0" y="359.056342822"/>
      </g>
     </g>
     <g id="line2d_99">
      <g>
       <use style="stroke:#000000;stroke-width:0.5;" x="394.614981095" xlink:href="#m5284c7e2a0" y="13.4563428218"/>
      </g>
     </g>
    </g>
    <g id="xtick_29">
     <g id="line2d_100">
      <g>
       <use style="stroke:#000000;stroke-width:0.5;" x="433.316422539" xlink:href="#m177f7580d0" y="359.056342822"/>
      </g>
     </g>
     <g id="line2d_101">
      <g>
       <use style="stroke:#000000;stroke-width:0.5;" x="433.316422539" xlink:href="#m5284c7e2a0" y="13.4563428218"/>
      </g>
     </g>
    </g>
    <g id="xtick_30">
     <g id="line2d_102">
      <g>
       <use style="stroke:#000000;stroke-width:0.5;" x="452.968185713" xlink:href="#m177f7580d0" y="359.056342822"/>
      </g>
     </g>
     <g id="line2d_103">
      <g>
       <use style="stroke:#000000;stroke-width:0.5;" x="452.968185713" xlink:href="#m5284c7e2a0" y="13.4563428218"/>
      </g>
     </g>
    </g>
    <g id="xtick_31">
     <g id="line2d_104">
      <g>
       <use style="stroke:#000000;stroke-width:0.5;" x="466.91133358" xlink:href="#m177f7580d0" y="359.056342822"/>
      </g>
     </g>
     <g id="line2d_105">
      <g>
       <use style="stroke:#000000;stroke-width:0.5;" x="466.91133358" xlink:href="#m5284c7e2a0" y="13.4563428218"/>
      </g>
     </g>
    </g>
    <g id="xtick_32">
     <g id="line2d_106">
      <g>
       <use style="stroke:#000000;stroke-width:0.5;" x="477.726479289" xlink:href="#m177f7580d0" y="359.056342822"/>
      </g>
     </g>
     <g id="line2d_107">
      <g>
       <use style="stroke:#000000;stroke-width:0.5;" x="477.726479289" xlink:href="#m5284c7e2a0" y="13.4563428218"/>
      </g>
     </g>
    </g>
    <g id="xtick_33">
     <g id="line2d_108">
      <g>
       <use style="stroke:#000000;stroke-width:0.5;" x="486.563096754" xlink:href="#m177f7580d0" y="359.056342822"/>
      </g>
     </g>
     <g id="line2d_109">
      <g>
       <use style="stroke:#000000;stroke-width:0.5;" x="486.563096754" xlink:href="#m5284c7e2a0" y="13.4563428218"/>
      </g>
     </g>
    </g>
    <g id="xtick_34">
     <g id="line2d_110">
      <g>
       <use style="stroke:#000000;stroke-width:0.5;" x="494.034350365" xlink:href="#m177f7580d0" y="359.056342822"/>
      </g>
     </g>
     <g id="line2d_111">
      <g>
       <use style="stroke:#000000;stroke-width:0.5;" x="494.034350365" xlink:href="#m5284c7e2a0" y="13.4563428218"/>
      </g>
     </g>
    </g>
    <g id="xtick_35">
     <g id="line2d_112">
      <g>
       <use style="stroke:#000000;stroke-width:0.5;" x="500.506244621" xlink:href="#m177f7580d0" y="359.056342822"/>
      </g>
     </g>
     <g id="line2d_113">
      <g>
       <use style="stroke:#000000;stroke-width:0.5;" x="500.506244621" xlink:href="#m5284c7e2a0" y="13.4563428218"/>
      </g>
     </g>
    </g>
    <g id="xtick_36">
     <g id="line2d_114">
      <g>
       <use style="stroke:#000000;stroke-width:0.5;" x="506.214859928" xlink:href="#m177f7580d0" y="359.056342822"/>
      </g>
     </g>
     <g id="line2d_115">
      <g>
       <use style="stroke:#000000;stroke-width:0.5;" x="506.214859928" xlink:href="#m5284c7e2a0" y="13.4563428218"/>
      </g>
     </g>
    </g>
    <g id="text_5">
     <!-- log10 of FEvals / DIM -->
     <defs>
      <path id="BitstreamVeraSans-Roman-20"/>
      <path d="
M31.7812 66.4062
Q24.1719 66.4062 20.3281 58.9062
Q16.5 51.4219 16.5 36.375
Q16.5 21.3906 20.3281 13.8906
Q24.1719 6.39062 31.7812 6.39062
Q39.4531 6.39062 43.2812 13.8906
Q47.125 21.3906 47.125 36.375
Q47.125 51.4219 43.2812 58.9062
Q39.4531 66.4062 31.7812 66.4062
M31.7812 74.2188
Q44.0469 74.2188 50.5156 64.5156
Q56.9844 54.8281 56.9844 36.375
Q56.9844 17.9688 50.5156 8.26562
Q44.0469 -1.42188 31.7812 -1.42188
Q19.5312 -1.42188 13.0625 8.26562
Q6.59375 17.9688 6.59375 36.375
Q6.59375 54.8281 13.0625 64.5156
Q19.5312 74.2188 31.7812 74.2188" id="BitstreamVeraSans-Roman-30"/>
      <path d="
M9.8125 72.9062
L24.5156 72.9062
L43.1094 23.2969
L61.8125 72.9062
L76.5156 72.9062
L76.5156 0
L66.8906 0
L66.8906 64.0156
L48.0938 14.0156
L38.1875 14.0156
L19.3906 64.0156
L19.3906 0
L9.8125 0
z
" id="BitstreamVeraSans-Roman-4d"/>
      <path d="
M30.6094 48.3906
Q23.3906 48.3906 19.1875 42.75
Q14.9844 37.1094 14.9844 27.2969
Q14.9844 17.4844 19.1562 11.8438
Q23.3438 6.20312 30.6094 6.20312
Q37.7969 6.20312 41.9844 11.8594
Q46.1875 17.5312 46.1875 27.2969
Q46.1875 37.0156 41.9844 42.7031
Q37.7969 48.3906 30.6094 48.3906
M30.6094 56
Q42.3281 56 49.0156 48.375
Q55.7188 40.7656 55.7188 27.2969
Q55.7188 13.875 49.0156 6.21875
Q42.3281 -1.42188 30.6094 -1.42188
Q18.8438 -1.42188 12.1719 6.21875
Q5.51562 13.875 5.51562 27.2969
Q5.51562 40.7656 12.1719 48.375
Q18.8438 56 30.6094 56" id="BitstreamVeraSans-Roman-6f"/>
      <path d="
M9.42188 75.9844
L18.4062 75.9844
L18.4062 0
L9.42188 0
z
" id="BitstreamVeraSans-Roman-6c"/>
      <path d="
M9.8125 72.9062
L51.7031 72.9062
L51.7031 64.5938
L19.6719 64.5938
L19.6719 43.1094
L48.5781 43.1094
L48.5781 34.8125
L19.6719 34.8125
L19.6719 0
L9.8125 0
z
" id="BitstreamVeraSans-Roman-46"/>
      <path d="
M9.8125 72.9062
L55.9062 72.9062
L55.9062 64.5938
L19.6719 64.5938
L19.6719 43.0156
L54.3906 43.0156
L54.3906 34.7188
L19.6719 34.7188
L19.6719 8.29688
L56.7812 8.29688
L56.7812 0
L9.8125 0
z
" id="BitstreamVeraSans-Roman-45"/>
      <path d="
M19.6719 64.7969
L19.6719 8.10938
L31.5938 8.10938
Q46.6875 8.10938 53.6875 14.9375
Q60.6875 21.7812 60.6875 36.5312
Q60.6875 51.1719 53.6875 57.9844
Q46.6875 64.7969 31.5938 64.7969
z

M9.8125 72.9062
L30.0781 72.9062
Q51.2656 72.9062 61.1719 64.0938
Q71.0938 55.2812 71.0938 36.5312
Q71.0938 17.6719 61.125 8.82812
Q51.1719 0 30.0781 0
L9.8125 0
z
" id="BitstreamVeraSans-Roman-44"/>
      <path d="
M25.3906 72.9062
L33.6875 72.9062
L8.29688 -9.28125
L0 -9.28125
z
" id="BitstreamVeraSans-Roman-2f"/>
      <path d="
M2.98438 54.6875
L12.5 54.6875
L29.5938 8.79688
L46.6875 54.6875
L56.2031 54.6875
L35.6875 0
L23.4844 0
z
" id="BitstreamVeraSans-Roman-76"/>
      <path d="
M45.4062 27.9844
Q45.4062 37.75 41.375 43.1094
Q37.3594 48.4844 30.0781 48.4844
Q22.8594 48.4844 18.8281 43.1094
Q14.7969 37.75 14.7969 27.9844
Q14.7969 18.2656 18.8281 12.8906
Q22.8594 7.51562 30.0781 7.51562
Q37.3594 7.51562 41.375 12.8906
Q45.4062 18.2656 45.4062 27.9844
M54.3906 6.78125
Q54.3906 -7.17188 48.1875 -13.9844
Q42 -20.7969 29.2031 -20.7969
Q24.4688 -20.7969 20.2656 -20.0938
Q16.0625 -19.3906 12.1094 -17.9219
L12.1094 -9.1875
Q16.0625 -11.3281 19.9219 -12.3438
Q23.7812 -13.375 27.7812 -13.375
Q36.625 -13.375 41.0156 -8.76562
Q45.4062 -4.15625 45.4062 5.17188
L45.4062 9.625
Q42.625 4.78125 38.2812 2.39062
Q33.9375 0 27.875 0
Q17.8281 0 11.6719 7.65625
Q5.51562 15.3281 5.51562 27.9844
Q5.51562 40.6719 11.6719 48.3281
Q17.8281 56 27.875 56
Q33.9375 56 38.2812 53.6094
Q42.625 51.2188 45.4062 46.3906
L45.4062 54.6875
L54.3906 54.6875
z
" id="BitstreamVeraSans-Roman-67"/>
      <path d="
M37.1094 75.9844
L37.1094 68.5
L28.5156 68.5
Q23.6875 68.5 21.7969 66.5469
Q19.9219 64.5938 19.9219 59.5156
L19.9219 54.6875
L34.7188 54.6875
L34.7188 47.7031
L19.9219 47.7031
L19.9219 0
L10.8906 0
L10.8906 47.7031
L2.29688 47.7031
L2.29688 54.6875
L10.8906 54.6875
L10.8906 58.5
Q10.8906 67.625 15.1406 71.7969
Q19.3906 75.9844 28.6094 75.9844
z
" id="BitstreamVeraSans-Roman-66"/>
      <path d="
M34.2812 27.4844
Q23.3906 27.4844 19.1875 25
Q14.9844 22.5156 14.9844 16.5
Q14.9844 11.7188 18.1406 8.90625
Q21.2969 6.10938 26.7031 6.10938
Q34.1875 6.10938 38.7031 11.4062
Q43.2188 16.7031 43.2188 25.4844
L43.2188 27.4844
z

M52.2031 31.2031
L52.2031 0
L43.2188 0
L43.2188 8.29688
Q40.1406 3.32812 35.5469 0.953125
Q30.9531 -1.42188 24.3125 -1.42188
Q15.9219 -1.42188 10.9531 3.29688
Q6 8.01562 6 15.9219
Q6 25.1406 12.1719 29.8281
Q18.3594 34.5156 30.6094 34.5156
L43.2188 34.5156
L43.2188 35.4062
Q43.2188 41.6094 39.1406 45
Q35.0625 48.3906 27.6875 48.3906
Q23 48.3906 18.5469 47.2656
Q14.1094 46.1406 10.0156 43.8906
L10.0156 52.2031
Q14.9375 54.1094 19.5781 55.0469
Q24.2188 56 28.6094 56
Q40.4844 56 46.3438 49.8438
Q52.2031 43.7031 52.2031 31.2031" id="BitstreamVeraSans-Roman-61"/>
      <path d="
M44.2812 53.0781
L44.2812 44.5781
Q40.4844 46.5312 36.375 47.5
Q32.2812 48.4844 27.875 48.4844
Q21.1875 48.4844 17.8438 46.4375
Q14.5 44.3906 14.5 40.2812
Q14.5 37.1562 16.8906 35.375
Q19.2812 33.5938 26.5156 31.9844
L29.5938 31.2969
Q39.1562 29.25 43.1875 25.5156
Q47.2188 21.7812 47.2188 15.0938
Q47.2188 7.46875 41.1875 3.01562
Q35.1562 -1.42188 24.6094 -1.42188
Q20.2188 -1.42188 15.4531 -0.5625
Q10.6875 0.296875 5.42188 2
L5.42188 11.2812
Q10.4062 8.6875 15.2344 7.39062
Q20.0625 6.10938 24.8125 6.10938
Q31.1562 6.10938 34.5625 8.28125
Q37.9844 10.4531 37.9844 14.4062
Q37.9844 18.0625 35.5156 20.0156
Q33.0625 21.9688 24.7031 23.7812
L21.5781 24.5156
Q13.2344 26.2656 9.51562 29.9062
Q5.8125 33.5469 5.8125 39.8906
Q5.8125 47.6094 11.2812 51.7969
Q16.75 56 26.8125 56
Q31.7812 56 36.1719 55.2656
Q40.5781 54.5469 44.2812 53.0781" id="BitstreamVeraSans-Roman-73"/>
      <path d="
M9.8125 72.9062
L19.6719 72.9062
L19.6719 0
L9.8125 0
z
" id="BitstreamVeraSans-Roman-49"/>
     </defs>
     <g transform="translate(184.025 402.609467822)scale(0.2 -0.2)">
      <use xlink:href="#BitstreamVeraSans-Roman-6c"/>
      <use x="27.783203125" xlink:href="#BitstreamVeraSans-Roman-6f"/>
      <use x="88.96484375" xlink:href="#BitstreamVeraSans-Roman-67"/>
      <use x="152.44140625" xlink:href="#BitstreamVeraSans-Roman-31"/>
      <use x="216.064453125" xlink:href="#BitstreamVeraSans-Roman-30"/>
      <use x="279.6875" xlink:href="#BitstreamVeraSans-Roman-20"/>
      <use x="311.474609375" xlink:href="#BitstreamVeraSans-Roman-6f"/>
      <use x="372.65625" xlink:href="#BitstreamVeraSans-Roman-66"/>
      <use x="407.861328125" xlink:href="#BitstreamVeraSans-Roman-20"/>
      <use x="439.6484375" xlink:href="#BitstreamVeraSans-Roman-46"/>
      <use x="497.16796875" xlink:href="#BitstreamVeraSans-Roman-45"/>
      <use x="560.3515625" xlink:href="#BitstreamVeraSans-Roman-76"/>
      <use x="619.53125" xlink:href="#BitstreamVeraSans-Roman-61"/>
      <use x="680.810546875" xlink:href="#BitstreamVeraSans-Roman-6c"/>
      <use x="708.59375" xlink:href="#BitstreamVeraSans-Roman-73"/>
      <use x="760.693359375" xlink:href="#BitstreamVeraSans-Roman-20"/>
      <use x="792.48046875" xlink:href="#BitstreamVeraSans-Roman-2f"/>
      <use x="826.171875" xlink:href="#BitstreamVeraSans-Roman-20"/>
      <use x="857.958984375" xlink:href="#BitstreamVeraSans-Roman-44"/>
      <use x="934.9609375" xlink:href="#BitstreamVeraSans-Roman-49"/>
      <use x="964.453125" xlink:href="#BitstreamVeraSans-Roman-4d"/>
     </g>
    </g>
   </g>
   <g id="matplotlib.axis_2">
    <g id="ytick_1">
     <g id="line2d_116">
      <path clip-path="url(#p4b24e7e61f)" d="
M64.9219 359.056
L511.322 359.056" style="fill:none;stroke:#000000;stroke-dasharray:1.000000,3.000000;stroke-dashoffset:0.0;stroke-width:0.5;"/>
     </g>
     <g id="line2d_117">
      <defs>
       <path d="
M0 0
L4 0" id="m728421d6d4" style="stroke:#000000;stroke-width:0.5;"/>
      </defs>
      <g>
       <use style="stroke:#000000;stroke-width:0.5;" x="64.921875" xlink:href="#m728421d6d4" y="359.056342822"/>
      </g>
     </g>
     <g id="line2d_118">
      <defs>
       <path d="
M0 0
L-4 0" id="mcb0005524f" style="stroke:#000000;stroke-width:0.5;"/>
      </defs>
      <g>
       <use style="stroke:#000000;stroke-width:0.5;" x="511.321875" xlink:href="#mcb0005524f" y="359.056342822"/>
      </g>
     </g>
     <g id="text_6">
      <!-- 0.0 -->
      <defs>
       <path d="
M10.6875 12.4062
L21 12.4062
L21 0
L10.6875 0
z
" id="BitstreamVeraSans-Roman-2e"/>
      </defs>
      <g transform="translate(31.7625 364.575092822)scale(0.2 -0.2)">
       <use xlink:href="#BitstreamVeraSans-Roman-30"/>
       <use x="63.623046875" xlink:href="#BitstreamVeraSans-Roman-2e"/>
       <use x="95.41015625" xlink:href="#BitstreamVeraSans-Roman-30"/>
      </g>
     </g>
    </g>
    <g id="ytick_2">
     <g id="line2d_119">
      <path clip-path="url(#p4b24e7e61f)" d="
M64.9219 290.621
L511.322 290.621" style="fill:none;stroke:#000000;stroke-dasharray:1.000000,3.000000;stroke-dashoffset:0.0;stroke-width:0.5;"/>
     </g>
     <g id="line2d_120">
      <g>
       <use style="stroke:#000000;stroke-width:0.5;" x="64.921875" xlink:href="#m728421d6d4" y="290.620699257"/>
      </g>
     </g>
     <g id="line2d_121">
      <g>
       <use style="stroke:#000000;stroke-width:0.5;" x="511.321875" xlink:href="#mcb0005524f" y="290.620699257"/>
      </g>
     </g>
     <g id="text_7">
      <!-- 0.2 -->
      <g transform="translate(32.4375 296.139449257)scale(0.2 -0.2)">
       <use xlink:href="#BitstreamVeraSans-Roman-30"/>
       <use x="63.623046875" xlink:href="#BitstreamVeraSans-Roman-2e"/>
       <use x="95.41015625" xlink:href="#BitstreamVeraSans-Roman-32"/>
      </g>
     </g>
    </g>
    <g id="ytick_3">
     <g id="line2d_122">
      <path clip-path="url(#p4b24e7e61f)" d="
M64.9219 222.185
L511.322 222.185" style="fill:none;stroke:#000000;stroke-dasharray:1.000000,3.000000;stroke-dashoffset:0.0;stroke-width:0.5;"/>
     </g>
     <g id="line2d_123">
      <g>
       <use style="stroke:#000000;stroke-width:0.5;" x="64.921875" xlink:href="#m728421d6d4" y="222.185055693"/>
      </g>
     </g>
     <g id="line2d_124">
      <g>
       <use style="stroke:#000000;stroke-width:0.5;" x="511.321875" xlink:href="#mcb0005524f" y="222.185055693"/>
      </g>
     </g>
     <g id="text_8">
      <!-- 0.4 -->
      <g transform="translate(31.55625 227.703805693)scale(0.2 -0.2)">
       <use xlink:href="#BitstreamVeraSans-Roman-30"/>
       <use x="63.623046875" xlink:href="#BitstreamVeraSans-Roman-2e"/>
       <use x="95.41015625" xlink:href="#BitstreamVeraSans-Roman-34"/>
      </g>
     </g>
    </g>
    <g id="ytick_4">
     <g id="line2d_125">
      <path clip-path="url(#p4b24e7e61f)" d="
M64.9219 153.749
L511.322 153.749" style="fill:none;stroke:#000000;stroke-dasharray:1.000000,3.000000;stroke-dashoffset:0.0;stroke-width:0.5;"/>
     </g>
     <g id="line2d_126">
      <g>
       <use style="stroke:#000000;stroke-width:0.5;" x="64.921875" xlink:href="#m728421d6d4" y="153.749412129"/>
      </g>
     </g>
     <g id="line2d_127">
      <g>
       <use style="stroke:#000000;stroke-width:0.5;" x="511.321875" xlink:href="#mcb0005524f" y="153.749412129"/>
      </g>
     </g>
     <g id="text_9">
      <!-- 0.6 -->
      <defs>
       <path d="
M33.0156 40.375
Q26.375 40.375 22.4844 35.8281
Q18.6094 31.2969 18.6094 23.3906
Q18.6094 15.5312 22.4844 10.9531
Q26.375 6.39062 33.0156 6.39062
Q39.6562 6.39062 43.5312 10.9531
Q47.4062 15.5312 47.4062 23.3906
Q47.4062 31.2969 43.5312 35.8281
Q39.6562 40.375 33.0156 40.375
M52.5938 71.2969
L52.5938 62.3125
Q48.875 64.0625 45.0938 64.9844
Q41.3125 65.9219 37.5938 65.9219
Q27.8281 65.9219 22.6719 59.3281
Q17.5312 52.7344 16.7969 39.4062
Q19.6719 43.6562 24.0156 45.9219
Q28.375 48.1875 33.5938 48.1875
Q44.5781 48.1875 50.9531 41.5156
Q57.3281 34.8594 57.3281 23.3906
Q57.3281 12.1562 50.6875 5.35938
Q44.0469 -1.42188 33.0156 -1.42188
Q20.3594 -1.42188 13.6719 8.26562
Q6.98438 17.9688 6.98438 36.375
Q6.98438 53.6562 15.1875 63.9375
Q23.3906 74.2188 37.2031 74.2188
Q40.9219 74.2188 44.7031 73.4844
Q48.4844 72.75 52.5938 71.2969" id="BitstreamVeraSans-Roman-36"/>
      </defs>
      <g transform="translate(31.69375 159.268162129)scale(0.2 -0.2)">
       <use xlink:href="#BitstreamVeraSans-Roman-30"/>
       <use x="63.623046875" xlink:href="#BitstreamVeraSans-Roman-2e"/>
       <use x="95.41015625" xlink:href="#BitstreamVeraSans-Roman-36"/>
      </g>
     </g>
    </g>
    <g id="ytick_5">
     <g id="line2d_128">
      <path clip-path="url(#p4b24e7e61f)" d="
M64.9219 85.3138
L511.322 85.3138" style="fill:none;stroke:#000000;stroke-dasharray:1.000000,3.000000;stroke-dashoffset:0.0;stroke-width:0.5;"/>
     </g>
     <g id="line2d_129">
      <g>
       <use style="stroke:#000000;stroke-width:0.5;" x="64.921875" xlink:href="#m728421d6d4" y="85.3137685644"/>
      </g>
     </g>
     <g id="line2d_130">
      <g>
       <use style="stroke:#000000;stroke-width:0.5;" x="511.321875" xlink:href="#mcb0005524f" y="85.3137685644"/>
      </g>
     </g>
     <g id="text_10">
      <!-- 0.8 -->
      <defs>
       <path d="
M31.7812 34.625
Q24.75 34.625 20.7188 30.8594
Q16.7031 27.0938 16.7031 20.5156
Q16.7031 13.9219 20.7188 10.1562
Q24.75 6.39062 31.7812 6.39062
Q38.8125 6.39062 42.8594 10.1719
Q46.9219 13.9688 46.9219 20.5156
Q46.9219 27.0938 42.8906 30.8594
Q38.875 34.625 31.7812 34.625
M21.9219 38.8125
Q15.5781 40.375 12.0312 44.7188
Q8.5 49.0781 8.5 55.3281
Q8.5 64.0625 14.7188 69.1406
Q20.9531 74.2188 31.7812 74.2188
Q42.6719 74.2188 48.875 69.1406
Q55.0781 64.0625 55.0781 55.3281
Q55.0781 49.0781 51.5312 44.7188
Q48 40.375 41.7031 38.8125
Q48.8281 37.1562 52.7969 32.3125
Q56.7812 27.4844 56.7812 20.5156
Q56.7812 9.90625 50.3125 4.23438
Q43.8438 -1.42188 31.7812 -1.42188
Q19.7344 -1.42188 13.25 4.23438
Q6.78125 9.90625 6.78125 20.5156
Q6.78125 27.4844 10.7812 32.3125
Q14.7969 37.1562 21.9219 38.8125
M18.3125 54.3906
Q18.3125 48.7344 21.8438 45.5625
Q25.3906 42.3906 31.7812 42.3906
Q38.1406 42.3906 41.7188 45.5625
Q45.3125 48.7344 45.3125 54.3906
Q45.3125 60.0625 41.7188 63.2344
Q38.1406 66.4062 31.7812 66.4062
Q25.3906 66.4062 21.8438 63.2344
Q18.3125 60.0625 18.3125 54.3906" id="BitstreamVeraSans-Roman-38"/>
      </defs>
      <g transform="translate(31.803125 90.8325185644)scale(0.2 -0.2)">
       <use xlink:href="#BitstreamVeraSans-Roman-30"/>
       <use x="63.623046875" xlink:href="#BitstreamVeraSans-Roman-2e"/>
       <use x="95.41015625" xlink:href="#BitstreamVeraSans-Roman-38"/>
      </g>
     </g>
    </g>
    <g id="ytick_6">
     <g id="line2d_131">
      <path clip-path="url(#p4b24e7e61f)" d="
M64.9219 16.8781
L511.322 16.8781" style="fill:none;stroke:#000000;stroke-dasharray:1.000000,3.000000;stroke-dashoffset:0.0;stroke-width:0.5;"/>
     </g>
     <g id="line2d_132">
      <g>
       <use style="stroke:#000000;stroke-width:0.5;" x="64.921875" xlink:href="#m728421d6d4" y="16.878125"/>
      </g>
     </g>
     <g id="line2d_133">
      <g>
       <use style="stroke:#000000;stroke-width:0.5;" x="511.321875" xlink:href="#mcb0005524f" y="16.878125"/>
      </g>
     </g>
     <g id="text_11">
      <!-- 1.0 -->
      <g transform="translate(32.640625 22.396875)scale(0.2 -0.2)">
       <use xlink:href="#BitstreamVeraSans-Roman-31"/>
       <use x="63.623046875" xlink:href="#BitstreamVeraSans-Roman-2e"/>
       <use x="95.41015625" xlink:href="#BitstreamVeraSans-Roman-30"/>
      </g>
     </g>
    </g>
    <g id="text_12">
     <!-- proportion of trials -->
     <defs>
      <path d="
M54.8906 33.0156
L54.8906 0
L45.9062 0
L45.9062 32.7188
Q45.9062 40.4844 42.875 44.3281
Q39.8438 48.1875 33.7969 48.1875
Q26.5156 48.1875 22.3125 43.5469
Q18.1094 38.9219 18.1094 30.9062
L18.1094 0
L9.07812 0
L9.07812 54.6875
L18.1094 54.6875
L18.1094 46.1875
Q21.3438 51.125 25.7031 53.5625
Q30.0781 56 35.7969 56
Q45.2188 56 50.0469 50.1719
Q54.8906 44.3438 54.8906 33.0156" id="BitstreamVeraSans-Roman-6e"/>
      <path d="
M9.42188 54.6875
L18.4062 54.6875
L18.4062 0
L9.42188 0
z

M9.42188 75.9844
L18.4062 75.9844
L18.4062 64.5938
L9.42188 64.5938
z
" id="BitstreamVeraSans-Roman-69"/>
      <path d="
M18.3125 70.2188
L18.3125 54.6875
L36.8125 54.6875
L36.8125 47.7031
L18.3125 47.7031
L18.3125 18.0156
Q18.3125 11.3281 20.1406 9.42188
Q21.9688 7.51562 27.5938 7.51562
L36.8125 7.51562
L36.8125 0
L27.5938 0
Q17.1875 0 13.2344 3.875
Q9.28125 7.76562 9.28125 18.0156
L9.28125 47.7031
L2.6875 47.7031
L2.6875 54.6875
L9.28125 54.6875
L9.28125 70.2188
z
" id="BitstreamVeraSans-Roman-74"/>
      <path d="
M41.1094 46.2969
Q39.5938 47.1719 37.8125 47.5781
Q36.0312 48 33.8906 48
Q26.2656 48 22.1875 43.0469
Q18.1094 38.0938 18.1094 28.8125
L18.1094 0
L9.07812 0
L9.07812 54.6875
L18.1094 54.6875
L18.1094 46.1875
Q20.9531 51.1719 25.4844 53.5781
Q30.0312 56 36.5312 56
Q37.4531 56 38.5781 55.875
Q39.7031 55.7656 41.0625 55.5156
z
" id="BitstreamVeraSans-Roman-72"/>
      <path d="
M18.1094 8.20312
L18.1094 -20.7969
L9.07812 -20.7969
L9.07812 54.6875
L18.1094 54.6875
L18.1094 46.3906
Q20.9531 51.2656 25.2656 53.625
Q29.5938 56 35.5938 56
Q45.5625 56 51.7812 48.0938
Q58.0156 40.1875 58.0156 27.2969
Q58.0156 14.4062 51.7812 6.48438
Q45.5625 -1.42188 35.5938 -1.42188
Q29.5938 -1.42188 25.2656 0.953125
Q20.9531 3.32812 18.1094 8.20312
M48.6875 27.2969
Q48.6875 37.2031 44.6094 42.8438
Q40.5312 48.4844 33.4062 48.4844
Q26.2656 48.4844 22.1875 42.8438
Q18.1094 37.2031 18.1094 27.2969
Q18.1094 17.3906 22.1875 11.75
Q26.2656 6.10938 33.4062 6.10938
Q40.5312 6.10938 44.6094 11.75
Q48.6875 17.3906 48.6875 27.2969" id="BitstreamVeraSans-Roman-70"/>
     </defs>
     <g transform="translate(22.396875 278.775092822)rotate(-90.0)scale(0.2 -0.2)">
      <use xlink:href="#BitstreamVeraSans-Roman-70"/>
      <use x="63.4765625" xlink:href="#BitstreamVeraSans-Roman-72"/>
      <use x="102.33984375" xlink:href="#BitstreamVeraSans-Roman-6f"/>
      <use x="163.521484375" xlink:href="#BitstreamVeraSans-Roman-70"/>
      <use x="226.998046875" xlink:href="#BitstreamVeraSans-Roman-6f"/>
      <use x="288.1796875" xlink:href="#BitstreamVeraSans-Roman-72"/>
      <use x="329.29296875" xlink:href="#BitstreamVeraSans-Roman-74"/>
      <use x="368.501953125" xlink:href="#BitstreamVeraSans-Roman-69"/>
      <use x="396.28515625" xlink:href="#BitstreamVeraSans-Roman-6f"/>
      <use x="457.466796875" xlink:href="#BitstreamVeraSans-Roman-6e"/>
      <use x="520.845703125" xlink:href="#BitstreamVeraSans-Roman-20"/>
      <use x="552.6328125" xlink:href="#BitstreamVeraSans-Roman-6f"/>
      <use x="613.814453125" xlink:href="#BitstreamVeraSans-Roman-66"/>
      <use x="649.01953125" xlink:href="#BitstreamVeraSans-Roman-20"/>
      <use x="680.806640625" xlink:href="#BitstreamVeraSans-Roman-74"/>
      <use x="720.015625" xlink:href="#BitstreamVeraSans-Roman-72"/>
      <use x="761.12890625" xlink:href="#BitstreamVeraSans-Roman-69"/>
      <use x="788.912109375" xlink:href="#BitstreamVeraSans-Roman-61"/>
      <use x="850.19140625" xlink:href="#BitstreamVeraSans-Roman-6c"/>
      <use x="877.974609375" xlink:href="#BitstreamVeraSans-Roman-73"/>
     </g>
    </g>
   </g>
   <g id="patch_3">
    <path d="
M64.9219 13.4563
L511.322 13.4563" style="fill:none;stroke:#000000;"/>
   </g>
   <g id="patch_4">
    <path d="
M511.322 359.056
L511.322 13.4563" style="fill:none;stroke:#000000;"/>
   </g>
   <g id="patch_5">
    <path d="
M64.9219 359.056
L511.322 359.056" style="fill:none;stroke:#000000;"/>
   </g>
   <g id="patch_6">
    <path d="
M64.9219 359.056
L64.9219 13.4563" style="fill:none;stroke:#000000;"/>
   </g>
   <g id="text_13">
    <!-- {f6-f9}, 20-D -->
    <defs>
     <path d="
M11.7188 12.4062
L22.0156 12.4062
L22.0156 4
L14.0156 -11.625
L7.71875 -11.625
L11.7188 4
z
" id="BitstreamVeraSans-Roman-2c"/>
     <path d="
M12.5 -9.28125
L15.9219 -9.28125
Q22.75 -9.28125 24.8281 -7.17188
Q26.9062 -5.07812 26.9062 1.90625
L26.9062 14.0156
Q26.9062 21.625 29.0938 25.0938
Q31.2969 28.5625 36.7188 29.8906
Q31.2969 31.1094 29.0938 34.5625
Q26.9062 38.0312 26.9062 45.7031
L26.9062 57.8125
Q26.9062 64.75 24.8281 66.875
Q22.75 69 15.9219 69
L12.5 69
L12.5 75.9844
L15.5781 75.9844
Q27.7344 75.9844 31.8125 72.3906
Q35.8906 68.7969 35.8906 58.0156
L35.8906 46.2969
Q35.8906 39.0156 38.5156 36.2031
Q41.1562 33.4062 48.0938 33.4062
L51.125 33.4062
L51.125 26.4219
L48.0938 26.4219
Q41.1562 26.4219 38.5156 23.5781
Q35.8906 20.75 35.8906 13.375
L35.8906 1.70312
Q35.8906 -9.07812 31.8125 -12.6875
Q27.7344 -16.3125 15.5781 -16.3125
L12.5 -16.3125
z
" id="BitstreamVeraSans-Roman-7d"/>
     <path d="
M10.9844 1.51562
L10.9844 10.5
Q14.7031 8.73438 18.5 7.8125
Q22.3125 6.89062 25.9844 6.89062
Q35.75 6.89062 40.8906 13.4531
Q46.0469 20.0156 46.7812 33.4062
Q43.9531 29.2031 39.5938 26.9531
Q35.25 24.7031 29.9844 24.7031
Q19.0469 24.7031 12.6719 31.3125
Q6.29688 37.9375 6.29688 49.4219
Q6.29688 60.6406 12.9375 67.4219
Q19.5781 74.2188 30.6094 74.2188
Q43.2656 74.2188 49.9219 64.5156
Q56.5938 54.8281 56.5938 36.375
Q56.5938 19.1406 48.4062 8.85938
Q40.2344 -1.42188 26.4219 -1.42188
Q22.7031 -1.42188 18.8906 -0.6875
Q15.0938 0.046875 10.9844 1.51562
M30.6094 32.4219
Q37.25 32.4219 41.125 36.9531
Q45.0156 41.5 45.0156 49.4219
Q45.0156 57.2812 41.125 61.8438
Q37.25 66.4062 30.6094 66.4062
Q23.9688 66.4062 20.0938 61.8438
Q16.2188 57.2812 16.2188 49.4219
Q16.2188 41.5 20.0938 36.9531
Q23.9688 32.4219 30.6094 32.4219" id="BitstreamVeraSans-Roman-39"/>
     <path d="
M51.125 -9.28125
L51.125 -16.3125
L48.0938 -16.3125
Q35.9375 -16.3125 31.8125 -12.6875
Q27.6875 -9.07812 27.6875 1.70312
L27.6875 13.375
Q27.6875 20.75 25.0469 23.5781
Q22.4062 26.4219 15.4844 26.4219
L12.5 26.4219
L12.5 33.4062
L15.4844 33.4062
Q22.4688 33.4062 25.0781 36.2031
Q27.6875 39.0156 27.6875 46.2969
L27.6875 58.0156
Q27.6875 68.7969 31.8125 72.3906
Q35.9375 75.9844 48.0938 75.9844
L51.125 75.9844
L51.125 69
L47.7969 69
Q40.9219 69 38.8125 66.8438
Q36.7188 64.7031 36.7188 57.8125
L36.7188 45.7031
Q36.7188 38.0312 34.5 34.5625
Q32.2812 31.1094 26.9062 29.8906
Q32.3281 28.5625 34.5156 25.0938
Q36.7188 21.625 36.7188 14.0156
L36.7188 1.90625
Q36.7188 -4.98438 38.8125 -7.125
Q40.9219 -9.28125 47.7969 -9.28125
z
" id="BitstreamVeraSans-Roman-7b"/>
     <path d="
M4.89062 31.3906
L31.2031 31.3906
L31.2031 23.3906
L4.89062 23.3906
z
" id="BitstreamVeraSans-Roman-2d"/>
    </defs>
    <g transform="translate(222.225 35.5652178218)scale(0.2 -0.2)">
     <use xlink:href="#BitstreamVeraSans-Roman-7b"/>
     <use x="63.623046875" xlink:href="#BitstreamVeraSans-Roman-66"/>
     <use x="98.828125" xlink:href="#BitstreamVeraSans-Roman-36"/>
     <use x="162.451171875" xlink:href="#BitstreamVeraSans-Roman-2d"/>
     <use x="198.53515625" xlink:href="#BitstreamVeraSans-Roman-66"/>
     <use x="233.740234375" xlink:href="#BitstreamVeraSans-Roman-39"/>
     <use x="297.36328125" xlink:href="#BitstreamVeraSans-Roman-7d"/>
     <use x="360.986328125" xlink:href="#BitstreamVeraSans-Roman-2c"/>
     <use x="392.7734375" xlink:href="#BitstreamVeraSans-Roman-20"/>
     <use x="424.560546875" xlink:href="#BitstreamVeraSans-Roman-32"/>
     <use x="488.18359375" xlink:href="#BitstreamVeraSans-Roman-30"/>
     <use x="551.806640625" xlink:href="#BitstreamVeraSans-Roman-2d"/>
     <use x="587.890625" xlink:href="#BitstreamVeraSans-Roman-44"/>
    </g>
   </g>
   <g id="text_14">
    <!-- absolute targets -->
    <defs>
     <path d="
M56.2031 29.5938
L56.2031 25.2031
L14.8906 25.2031
Q15.4844 15.9219 20.4844 11.0625
Q25.4844 6.20312 34.4219 6.20312
Q39.5938 6.20312 44.4531 7.46875
Q49.3125 8.73438 54.1094 11.2812
L54.1094 2.78125
Q49.2656 0.734375 44.1875 -0.34375
Q39.1094 -1.42188 33.8906 -1.42188
Q20.7969 -1.42188 13.1562 6.1875
Q5.51562 13.8125 5.51562 26.8125
Q5.51562 40.2344 12.7656 48.1094
Q20.0156 56 32.3281 56
Q43.3594 56 49.7812 48.8906
Q56.2031 41.7969 56.2031 29.5938
M47.2188 32.2344
Q47.125 39.5938 43.0938 43.9844
Q39.0625 48.3906 32.4219 48.3906
Q24.9062 48.3906 20.3906 44.1406
Q15.875 39.8906 15.1875 32.1719
z
" id="BitstreamVeraSans-Roman-65"/>
     <path d="
M8.5 21.5781
L8.5 54.6875
L17.4844 54.6875
L17.4844 21.9219
Q17.4844 14.1562 20.5 10.2656
Q23.5312 6.39062 29.5938 6.39062
Q36.8594 6.39062 41.0781 11.0312
Q45.3125 15.6719 45.3125 23.6875
L45.3125 54.6875
L54.2969 54.6875
L54.2969 0
L45.3125 0
L45.3125 8.40625
Q42.0469 3.42188 37.7188 1
Q33.4062 -1.42188 27.6875 -1.42188
Q18.2656 -1.42188 13.375 4.4375
Q8.5 10.2969 8.5 21.5781" id="BitstreamVeraSans-Roman-75"/>
     <path d="
M48.6875 27.2969
Q48.6875 37.2031 44.6094 42.8438
Q40.5312 48.4844 33.4062 48.4844
Q26.2656 48.4844 22.1875 42.8438
Q18.1094 37.2031 18.1094 27.2969
Q18.1094 17.3906 22.1875 11.75
Q26.2656 6.10938 33.4062 6.10938
Q40.5312 6.10938 44.6094 11.75
Q48.6875 17.3906 48.6875 27.2969
M18.1094 46.3906
Q20.9531 51.2656 25.2656 53.625
Q29.5938 56 35.5938 56
Q45.5625 56 51.7812 48.0938
Q58.0156 40.1875 58.0156 27.2969
Q58.0156 14.4062 51.7812 6.48438
Q45.5625 -1.42188 35.5938 -1.42188
Q29.5938 -1.42188 25.2656 0.953125
Q20.9531 3.32812 18.1094 8.20312
L18.1094 0
L9.07812 0
L9.07812 75.9844
L18.1094 75.9844
z
" id="BitstreamVeraSans-Roman-62"/>
    </defs>
    <g transform="translate(64.921875 359.056342822)scale(0.14 -0.14)">
     <use xlink:href="#BitstreamVeraSans-Roman-61"/>
     <use x="61.279296875" xlink:href="#BitstreamVeraSans-Roman-62"/>
     <use x="124.755859375" xlink:href="#BitstreamVeraSans-Roman-73"/>
     <use x="176.85546875" xlink:href="#BitstreamVeraSans-Roman-6f"/>
     <use x="238.037109375" xlink:href="#BitstreamVeraSans-Roman-6c"/>
     <use x="265.8203125" xlink:href="#BitstreamVeraSans-Roman-75"/>
     <use x="329.19921875" xlink:href="#BitstreamVeraSans-Roman-74"/>
     <use x="368.408203125" xlink:href="#BitstreamVeraSans-Roman-65"/>
     <use x="429.931640625" xlink:href="#BitstreamVeraSans-Roman-20"/>
     <use x="461.71875" xlink:href="#BitstreamVeraSans-Roman-74"/>
     <use x="500.927734375" xlink:href="#BitstreamVeraSans-Roman-61"/>
     <use x="562.20703125" xlink:href="#BitstreamVeraSans-Roman-72"/>
     <use x="601.5703125" xlink:href="#BitstreamVeraSans-Roman-67"/>
     <use x="665.046875" xlink:href="#BitstreamVeraSans-Roman-65"/>
     <use x="726.5703125" xlink:href="#BitstreamVeraSans-Roman-74"/>
     <use x="765.779296875" xlink:href="#BitstreamVeraSans-Roman-73"/>
    </g>
   </g>
   <g id="text_15">
    <!-- 0.0.0 -->
    <g style="fill:#808080;" transform="translate(276.06171875 353.520655322)scale(0.1 -0.1)">
     <use xlink:href="#BitstreamVeraSans-Roman-30"/>
     <use x="63.623046875" xlink:href="#BitstreamVeraSans-Roman-2e"/>
     <use x="95.41015625" xlink:href="#BitstreamVeraSans-Roman-30"/>
     <use x="159.033203125" xlink:href="#BitstreamVeraSans-Roman-2e"/>
     <use x="190.8203125" xlink:href="#BitstreamVeraSans-Roman-30"/>
    </g>
   </g>
   <g id="legend_1">
    <g id="patch_7">
     <path d="
M74.9219 146.881
L211.022 146.881
L211.022 23.4563
L74.9219 23.4563
L74.9219 146.881
z
" style="fill:#ffffff;opacity:0.2;stroke:#000000;"/>
    </g>
    <g id="line2d_134">
     <path d="
M88.9219 39.6532
L116.922 39.6532" style="fill:none;stroke:#000000;stroke-linecap:square;"/>
    </g>
    <g id="line2d_135"/>
    <g id="text_16">
     <!-- 1: 4/4 -->
     <defs>
      <path d="
M11.7188 12.4062
L22.0156 12.4062
L22.0156 0
L11.7188 0
z

M11.7188 51.7031
L22.0156 51.7031
L22.0156 39.3125
L11.7188 39.3125
z
" id="BitstreamVeraSans-Roman-3a"/>
     </defs>
     <g transform="translate(138.921875 46.6532178218)scale(0.2 -0.2)">
      <use xlink:href="#BitstreamVeraSans-Roman-31"/>
      <use x="63.623046875" xlink:href="#BitstreamVeraSans-Roman-3a"/>
      <use x="97.314453125" xlink:href="#BitstreamVeraSans-Roman-20"/>
      <use x="129.1015625" xlink:href="#BitstreamVeraSans-Roman-34"/>
      <use x="192.724609375" xlink:href="#BitstreamVeraSans-Roman-2f"/>
      <use x="226.416015625" xlink:href="#BitstreamVeraSans-Roman-34"/>
     </g>
    </g>
    <g id="line2d_136">
     <path d="
M88.9219 69.0095
L116.922 69.0095" style="fill:none;stroke:#00bfbf;stroke-linecap:square;"/>
    </g>
    <g id="line2d_137"/>
    <g id="text_17">
     <!-- -1: 4/4 -->
     <g transform="translate(138.921875 76.0094678218)scale(0.2 -0.2)">
      <use xlink:href="#BitstreamVeraSans-Roman-2d"/>
      <use x="36.083984375" xlink:href="#BitstreamVeraSans-Roman-31"/>
      <use x="99.70703125" xlink:href="#BitstreamVeraSans-Roman-3a"/>
      <use x="133.3984375" xlink:href="#BitstreamVeraSans-Roman-20"/>
      <use x="165.185546875" xlink:href="#BitstreamVeraSans-Roman-34"/>
      <use x="228.80859375" xlink:href="#BitstreamVeraSans-Roman-2f"/>
      <use x="262.5" xlink:href="#BitstreamVeraSans-Roman-34"/>
     </g>
    </g>
    <g id="line2d_138">
     <path d="
M88.9219 98.3657
L116.922 98.3657" style="fill:none;stroke:#bf00bf;stroke-linecap:square;"/>
    </g>
    <g id="line2d_139"/>
    <g id="text_18">
     <!-- -4: 3/4 -->
     <g transform="translate(138.921875 105.365717822)scale(0.2 -0.2)">
      <use xlink:href="#BitstreamVeraSans-Roman-2d"/>
      <use x="36.083984375" xlink:href="#BitstreamVeraSans-Roman-34"/>
      <use x="99.70703125" xlink:href="#BitstreamVeraSans-Roman-3a"/>
      <use x="133.3984375" xlink:href="#BitstreamVeraSans-Roman-20"/>
      <use x="165.185546875" xlink:href="#BitstreamVeraSans-Roman-33"/>
      <use x="228.80859375" xlink:href="#BitstreamVeraSans-Roman-2f"/>
      <use x="262.5" xlink:href="#BitstreamVeraSans-Roman-34"/>
     </g>
    </g>
    <g id="line2d_140">
     <path d="
M88.9219 127.722
L116.922 127.722" style="fill:none;stroke:#ff0000;stroke-linecap:square;stroke-width:3.0;"/>
    </g>
    <g id="line2d_141"/>
    <g id="text_19">
     <!-- -8: 3/4 -->
     <g transform="translate(138.921875 134.721967822)scale(0.2 -0.2)">
      <use xlink:href="#BitstreamVeraSans-Roman-2d"/>
      <use x="36.083984375" xlink:href="#BitstreamVeraSans-Roman-38"/>
      <use x="99.70703125" xlink:href="#BitstreamVeraSans-Roman-3a"/>
      <use x="133.3984375" xlink:href="#BitstreamVeraSans-Roman-20"/>
      <use x="165.185546875" xlink:href="#BitstreamVeraSans-Roman-33"/>
      <use x="228.80859375" xlink:href="#BitstreamVeraSans-Roman-2f"/>
      <use x="262.5" xlink:href="#BitstreamVeraSans-Roman-34"/>
     </g>
    </g>
   </g>
  </g>
 </g>
 <defs>
  <clipPath id="p4b24e7e61f">
   <rect height="345.6" width="446.4" x="64.921875" y="13.4563428218"/>
  </clipPath>
 </defs>
</svg>
