<?xml version="1.0" encoding="utf-8" standalone="no"?>
<!DOCTYPE svg PUBLIC "-//W3C//DTD SVG 1.1//EN"
  "http://www.w3.org/Graphics/SVG/1.1/DTD/svg11.dtd">
<!-- Created with matplotlib (http://matplotlib.org/) -->
<svg height="413pt" version="1.1" viewBox="0 0 518 413" width="518pt" xmlns="http://www.w3.org/2000/svg" xmlns:xlink="http://www.w3.org/1999/xlink">
 <defs>
  <style type="text/css">
*{stroke-linecap:butt;stroke-linejoin:round;}
  </style>
 </defs>
 <g id="figure_1">
  <g id="patch_1">
   <path d="
M0 413.969
L518.522 413.969
L518.522 0
L0 0
z
" style="fill:#ffffff;"/>
  </g>
  <g id="axes_1">
   <g id="patch_2">
    <path d="
M64.9219 359.056
L511.322 359.056
L511.322 13.4563
L64.9219 13.4563
z
" style="fill:#ffffff;"/>
   </g>
   <g id="line2d_1">
    <path clip-path="url(#p4b24e7e61f)" d="
M294.467 359.056
L294.467 354.494
L297.879 354.494
L297.879 349.932
L299.094 349.932
L299.094 345.369
L299.542 345.369
L299.542 340.807
L299.936 340.807
L299.936 336.244
L300.714 336.244
L300.714 331.682
L300.762 331.682
L300.762 327.12
L301.05 327.12
L301.05 322.557
L302.971 322.557
L302.971 317.995
L304.147 317.995
L304.147 313.433
L304.636 313.433
L304.636 308.87
L304.944 308.87
L304.944 304.308
L320.086 304.308
L320.086 299.745
L326.124 299.745
L326.124 295.183
L326.452 295.183
L326.452 290.621
L331.375 290.621
L331.375 286.058
L331.74 286.058
L331.74 281.496
L337.826 281.496
L337.826 276.934
L348.88 276.934
L348.88 272.371
L349.407 272.371
L349.407 267.809
L352.947 267.809
L352.947 263.246
L363.93 263.246
L363.93 258.684
L372.989 258.684
L372.989 254.122
L395.798 254.122
L395.798 249.559
L399.544 249.559
L399.544 244.997
L405.249 244.997
L405.249 240.435
L428.339 240.435
L428.339 235.872
L439.236 235.872
L439.236 231.31
L444.775 231.31
L444.775 226.747
L444.775 226.747
L444.775 226.747
L511.322 226.747" style="fill:none;stroke:#f5deb3;stroke-linecap:square;"/>
   </g>
   <g id="line2d_2"/>
   <g id="line2d_3">
    <path clip-path="url(#p4b24e7e61f)" d="
M183.877 359.056
L183.877 354.494
L185.147 354.494
L185.147 349.932
L196.683 349.932
L196.683 345.369
L271.405 345.369
L271.405 340.807
L290.293 340.807
L290.293 336.244
L330.884 336.244
L330.884 331.682
L341.929 331.682
L341.929 327.12
L347.535 327.12
L347.535 322.557
L359.393 322.557
L359.393 317.995
L361.482 317.995
L361.482 313.433
L367.156 313.433
L367.156 308.87
L374.109 308.87
L374.109 304.308
L379.607 304.308
L379.607 299.745
L382.116 299.745
L382.116 295.183
L387.148 295.183
L387.148 290.621
L410.176 290.621
L410.176 286.058
L412.689 286.058
L412.689 281.496
L414.16 281.496
L414.16 276.934
L414.559 276.934
L414.559 272.371
L415.279 272.371
L415.279 267.809
L415.551 267.809
L415.551 263.246
L417.163 263.246
L417.163 258.684
L417.283 258.684
L417.283 254.122
L419.021 254.122
L419.021 249.559
L419.181 249.559
L419.181 244.997
L421.946 244.997
L421.946 240.435
L422.515 240.435
L422.515 235.872
L423.026 235.872
L423.026 231.31
L423.071 231.31
L423.071 226.747
L424.15 226.747
L424.15 222.185
L424.399 222.185
L424.399 217.623
L425.857 217.623
L425.857 213.06
L434.431 213.06
L434.431 208.498
L436.317 208.498
L436.317 203.936
L441.268 203.936
L441.268 199.373
L445.627 199.373
L445.627 194.811
L457.138 194.811
L457.138 190.248
L466.821 190.248
L466.821 185.686
L471.748 185.686
L471.748 181.124
L475.119 181.124
L475.119 176.561
L475.119 176.561
L475.119 176.561
L511.322 176.561" style="fill:none;stroke:#f5deb3;stroke-linecap:square;"/>
   </g>
   <g id="line2d_4">
    <path clip-path="url(#p4b24e7e61f)" d="
M307.296 359.056
L307.296 354.494
L313.621 354.494
L313.621 349.932
L314.835 349.932
L314.941 340.807
L315.081 340.807
L315.081 336.244
L316.902 336.244
L316.902 331.682
L317.67 331.682
L317.67 327.12
L319.263 327.12
L319.263 322.557
L319.518 322.557
L319.518 317.995
L321.14 317.995
L321.14 313.433
L322.23 313.433
L322.23 308.87
L322.883 308.87
L322.883 304.308
L323.585 304.308
L323.585 299.745
L323.788 299.745
L323.788 295.183
L324.19 295.183
L324.19 290.621
L324.476 290.621
L324.561 281.496
L324.59 281.496
L324.59 276.934
L324.901 276.934
L324.901 272.371
L325.013 272.371
L325.013 267.809
L325.238 267.809
L325.238 263.246
L326.316 263.246
L326.316 258.684
L327.182 258.684
L327.182 254.122
L327.529 254.122
L327.529 249.559
L327.688 249.559
L327.688 244.997
L328.424 244.997
L328.528 235.872
L330.288 235.872
L330.288 231.31
L330.736 231.31
L330.736 226.747
L331.081 226.747
L331.081 222.185
L331.522 222.185
L331.522 217.623
L332.198 217.623
L332.294 208.498
L332.556 208.498
L332.556 203.936
L333.358 203.936
L333.358 199.373
L334.053 199.373
L334.053 194.811
L334.42 194.811
L334.42 190.248
L334.534 190.248
L334.58 181.124
L334.942 181.124
L334.965 171.999
L335.614 171.999
L335.68 162.874
L336.056 162.874
L336.1 153.749
L336.733 153.749
L336.755 144.625
L337.014 144.625
L337.057 135.5
L337.804 135.5
L337.804 130.938
L338.1 130.938
L338.1 126.375
L340.476 126.375
L340.476 121.813
L343.261 121.813
L343.261 117.25
L344.865 117.25
L344.865 112.688
L346.378 112.688
L346.378 108.126
L350.761 108.126
L350.761 103.563
L359.655 103.563
L359.655 99.0009
L360.031 99.0009
L360.031 94.4385
L361.469 94.4385
L361.469 89.8761
L361.98 89.8761
L361.98 85.3138
L362.264 85.3138
L362.264 80.7514
L365.641 80.7514
L365.641 76.189
L369.291 76.189
L369.291 71.6266
L378.419 71.6266
L378.419 67.0643
L383.397 67.0643
L383.397 62.5019
L389.622 62.5019
L389.622 57.9395
L389.829 57.9395
L389.829 53.3771
L394.541 53.3771
L394.541 48.8148
L401.183 48.8148
L401.183 44.2524
L404.546 44.2524
L404.546 39.69
L418.895 39.69
L418.895 35.1276
L425.477 35.1276
L425.477 30.5653
L429.013 30.5653
L429.013 26.0029
L431.099 26.0029
L431.099 21.4405
L440.457 21.4405
L440.457 16.8781
L440.457 16.8781
L511.322 16.8781
L511.322 16.8781" style="fill:none;stroke:#f5deb3;stroke-linecap:square;"/>
   </g>
   <g id="line2d_5">
    <path clip-path="url(#p4b24e7e61f)" d="
M359.34 359.056
L359.34 354.494
L360.647 354.494
L360.647 349.932
L372.765 349.932
L372.765 345.369
L373.519 345.369
L373.519 340.807
L373.834 340.807
L373.834 336.244
L382.51 336.244
L382.51 331.682
L390.202 331.682
L390.202 327.12
L399.909 327.12
L399.909 322.557
L400.323 322.557
L400.323 317.995
L402.143 317.995
L402.143 313.433
L408.478 313.433
L408.478 308.87
L409.434 308.87
L409.434 304.308
L413.738 304.308
L413.738 299.745
L415.532 299.745
L415.532 295.183
L424.944 295.183
L424.944 290.621
L474.809 290.621
L474.809 286.058
L479.622 286.058
L479.622 281.496
L479.622 281.496
L479.622 276.934
L480.481 276.934
L480.481 272.371
L484.343 272.371
L484.343 267.809
L489.091 267.809
L489.091 263.246
L490.525 263.246
L490.525 258.684
L491.17 258.684
L491.17 254.122
L496.127 254.122
L496.127 249.559
L496.604 249.559
L496.604 244.997
L497.643 244.997
L497.643 240.435
L499.411 240.435
L499.411 235.872
L503.849 235.872
L503.849 231.31
L504.621 231.31
L504.621 226.747
L505.378 226.747
L505.378 222.185
L506.045 222.185
L506.045 217.623
L507.8 217.623
L507.8 213.06
L508.969 213.06
L508.969 208.498
L510.017 208.498
L510.017 203.936
L512.063 203.936
L512.063 199.373
L513.172 199.373
L513.172 194.811
L513.627 194.811
L513.627 190.248
L513.645 190.248
L513.645 185.686
L514.242 185.686
L514.242 181.124
L518.198 181.124
L518.198 176.561
L518.552 176.561
L518.552 171.999
L519.522 171.999" style="fill:none;stroke:#f5deb3;stroke-linecap:square;"/>
   </g>
   <g id="line2d_6"/>
   <g id="line2d_7">
    <path clip-path="url(#p4b24e7e61f)" d="
M338.352 359.056
L338.352 354.494
L339.078 354.494
L339.078 349.932
L339.711 349.932
L339.711 345.369
L340.376 345.369
L340.376 340.807
L340.516 340.807
L340.516 336.244
L342.676 336.244
L342.676 331.682
L342.847 331.682
L342.847 327.12
L343.523 327.12
L343.523 322.557
L343.932 322.557
L343.969 313.433
L344.208 313.433
L344.282 299.745
L344.373 299.745
L344.483 290.621
L344.865 290.621
L344.937 281.496
L345.009 281.496
L345.063 272.371
L345.243 272.371
L345.297 254.122
L345.885 254.122
L345.885 249.559
L346.061 249.559
L346.061 244.997
L346.395 244.997
L346.395 240.435
L347.176 240.435
L347.176 235.872
L347.45 235.872
L347.45 231.31
L347.74 231.31
L347.774 222.185
L347.909 222.185
L347.909 217.623
L348.061 217.623
L348.061 213.06
L348.447 213.06
L348.531 203.936
L349.095 203.936
L349.111 194.811
L349.374 194.811
L349.374 190.248
L350.394 190.248
L350.394 185.686
L351.078 185.686
L351.078 181.124
L351.626 181.124
L351.735 171.999
L351.766 171.999
L351.766 167.437
L351.983 167.437
L351.983 162.874
L352.199 162.874
L352.199 158.312
L353.263 158.312
L353.338 149.187
L354.288 149.187
L354.288 144.625
L357.778 144.625
L357.778 140.062
L358.076 140.062
L358.076 135.5
L362.558 135.5
L362.558 130.938
L362.729 130.938
L362.729 126.375
L364.718 126.375
L364.718 121.813
L366.039 121.813
L366.039 117.25
L366.208 117.25
L366.208 112.688
L367.53 112.688
L367.618 103.563
L368.344 103.563
L368.344 99.0009
L368.526 99.0009
L368.569 89.8761
L369.428 89.8761
L369.428 85.3138
L370.762 85.3138
L370.762 80.7514
L371.188 80.7514
L371.188 76.189
L372.687 76.189
L372.687 71.6266
L375.369 71.6266
L375.369 67.0643
L376.018 67.0643
L376.018 62.5019
L378.437 62.5019
L378.437 57.9395
L380.985 57.9395
L380.985 53.3771
L387.76 53.3771
L387.76 48.8148
L396.293 48.8148
L396.293 44.2524
L406.897 44.2524
L406.897 39.69
L409.607 39.69
L409.607 35.1276
L413.348 35.1276
L413.348 30.5653
L414.075 30.5653
L414.075 26.0029
L424.333 26.0029
L424.333 21.4405
L471.957 21.4405
L471.957 16.8781
L471.957 16.8781
L511.322 16.8781
L511.322 16.8781" style="fill:none;stroke:#f5deb3;stroke-linecap:square;"/>
   </g>
   <g id="line2d_8">
    <path clip-path="url(#p4b24e7e61f)" d="
M575.28 359.056" style="fill:none;stroke:#f5deb3;stroke-linecap:square;"/>
   </g>
   <g id="line2d_9">
    <path clip-path="url(#p4b24e7e61f)" d="
M332.556 359.056
L332.556 354.494
L333.684 354.494
L333.684 349.932
L334.557 349.932
L334.557 345.369
L335.99 345.369
L335.99 340.807
L336.363 340.807
L336.363 336.244
L336.494 336.244
L336.494 331.682
L337.208 331.682
L337.208 327.12
L337.974 327.12
L337.974 322.557
L338.477 322.557
L338.477 317.995
L338.727 317.995
L338.809 308.87
L338.851 308.87
L338.872 299.745
L339.528 299.745
L339.528 295.183
L339.792 295.183
L339.792 290.621
L339.995 290.621
L340.015 281.496
L340.176 281.496
L340.176 276.934
L340.316 276.934
L340.316 272.371
L340.596 272.371
L340.695 263.246
L341.287 263.246
L341.287 258.684
L341.774 258.684
L341.774 254.122
L342.006 254.122
L342.006 249.559
L342.199 249.559
L342.199 244.997
L342.505 244.997
L342.6 231.31
L342.866 231.31
L342.96 208.498
L343.017 208.498
L343.017 203.936
L343.318 203.936
L343.318 199.373
L343.598 199.373
L343.616 190.248
L344.3 190.248
L344.355 181.124
L344.883 181.124
L344.883 176.561
L345.279 176.561
L345.369 167.437
L345.867 167.437
L345.973 158.312
L346.272 158.312
L346.272 153.749
L347.399 153.749
L347.501 140.062
L348.631 140.062
L348.631 135.5
L349.407 135.5
L349.407 130.938
L355.262 130.938
L355.262 126.375
L356.003 126.375
L356.003 121.813
L356.816 121.813
L356.816 117.25
L358.17 117.25
L358.17 112.688
L358.439 112.688
L358.439 108.126
L360.031 108.126
L360.031 103.563
L361.731 103.563
L361.731 99.0009
L361.967 99.0009
L361.967 94.4385
L362.374 94.4385
L362.374 89.8761
L364.484 89.8761
L364.484 85.3138
L365.595 85.3138
L365.595 80.7514
L366.332 80.7514
L366.332 76.189
L368.995 76.189
L368.995 71.6266
L377.481 71.6266
L377.481 67.0643
L377.674 67.0643
L377.674 62.5019
L378.762 62.5019
L378.762 57.9395
L384.709 57.9395
L384.709 53.3771
L390.957 53.3771
L390.957 48.8148
L392.43 48.8148
L392.43 44.2524
L393.415 44.2524
L393.415 39.69
L393.814 39.69
L393.814 35.1276
L395.346 35.1276
L395.346 30.5653
L397.299 30.5653
L397.299 26.0029
L401.198 26.0029
L401.198 21.4405
L404.13 21.4405
L404.13 16.8781
L404.13 16.8781
L511.322 16.8781
L511.322 16.8781" style="fill:none;stroke:#f5deb3;stroke-linecap:square;"/>
   </g>
   <g id="line2d_10">
    <path clip-path="url(#p4b24e7e61f)" d="
M562.623 359.056" style="fill:none;stroke:#f5deb3;stroke-linecap:square;"/>
   </g>
   <g id="line2d_11">
    <path clip-path="url(#p4b24e7e61f)" d="
M653.89 359.056" style="fill:none;stroke:#f5deb3;stroke-linecap:square;"/>
   </g>
   <g id="line2d_12">
    <path clip-path="url(#p4b24e7e61f)" d="
M295.615 359.056
L295.615 354.494
L349.814 354.494
L349.814 349.932
L352.552 349.932
L352.552 345.369
L416.203 345.369
L416.203 340.807
L425.974 340.807
L425.974 336.244
L452.803 336.244
L452.803 331.682
L467.834 331.682
L467.834 327.12
L472.267 327.12
L472.267 322.557
L475.414 322.557
L475.414 317.995
L495.273 317.995
L495.273 313.433
L495.273 313.433
L495.273 313.433
L511.322 313.433" style="fill:none;stroke:#f5deb3;stroke-linecap:square;"/>
   </g>
   <g id="line2d_13"/>
   <g id="line2d_14">
    <path clip-path="url(#p4b24e7e61f)" d="
M325.711 359.056
L325.711 354.494
L331.789 354.494
L331.789 349.932
L344.446 349.932
L344.446 345.369
L345.973 345.369
L345.973 340.807
L351.314 340.807
L351.314 336.244
L351.689 336.244
L351.689 331.682
L354.654 331.682
L354.654 327.12
L358.251 327.12
L358.251 322.557
L359.209 322.557
L359.209 317.995
L364.32 317.995
L364.32 313.433
L365.446 313.433
L365.446 308.87
L367.035 308.87
L367.035 304.308
L368.128 304.308
L368.128 299.745
L373.008 299.745
L373.008 295.183
L376.889 295.183
L376.889 290.621
L377.419 290.621
L377.419 286.058
L378.83 286.058
L378.83 281.496
L379.431 281.496
L379.431 276.934
L388.618 276.934
L388.618 272.371
L389.763 272.371
L389.763 267.809
L394.33 267.809
L394.33 263.246
L397.727 263.246
L397.727 258.684
L398.383 258.684
L398.383 254.122
L400.708 254.122
L400.708 249.559
L403.247 249.559
L403.247 244.997
L405.121 244.997
L405.121 240.435
L406.215 240.435
L406.215 235.872
L409.4 235.872
L409.4 231.31
L410.252 231.31
L410.252 226.747
L418.982 226.747
L418.982 222.185
L420.65 222.185
L420.65 217.623
L422.994 217.623
L422.994 213.06
L438.086 213.06
L438.086 208.498
L453.959 208.498
L453.959 203.936
L456.604 203.936
L456.604 199.373
L461.85 199.373
L461.85 194.811
L467.229 194.811
L467.229 190.248
L476.07 190.248
L476.07 185.686
L476.667 185.686
L476.667 181.124
L476.667 181.124
L476.667 181.124
L511.322 181.124" style="fill:none;stroke:#f5deb3;stroke-linecap:square;"/>
   </g>
   <g id="line2d_15"/>
   <g id="line2d_16"/>
   <g id="line2d_17">
    <path clip-path="url(#p4b24e7e61f)" d="
M399.706 359.056
L399.706 354.494
L401.167 354.494
L401.167 349.932
L402.487 349.932
L402.487 345.369
L402.998 345.369
L402.998 340.807
L405.182 340.807
L405.182 336.244
L405.692 336.244
L405.692 331.682
L405.866 331.682
L405.866 327.12
L406.159 327.12
L406.159 322.557
L406.947 322.557
L407.002 313.433
L407.936 313.433
L408.003 295.183
L409.439 295.183
L409.486 286.058
L409.732 286.058
L409.753 276.934
L410.133 276.934
L410.133 272.371
L410.396 272.371
L410.396 267.809
L410.864 267.809
L410.864 263.246
L411.172 263.246
L411.172 258.684
L411.697 258.684
L411.697 254.122
L412.037 254.122
L412.037 249.559
L413.065 249.559
L413.065 244.997
L413.304 244.997
L413.304 240.435
L413.525 240.435
L413.525 235.872
L413.683 235.872
L413.742 226.747
L413.965 226.747
L414.028 217.623
L414.207 217.623
L414.207 213.06
L414.717 213.06
L414.717 208.498
L414.962 208.498
L414.962 203.936
L415.642 203.936
L415.642 199.373
L416.195 199.373
L416.195 194.811
L416.359 194.811
L416.436 185.686
L417.529 185.686
L417.529 181.124
L418.384 181.124
L418.384 176.561
L418.586 176.561
L418.586 171.999
L418.989 171.999
L418.989 167.437
L420.21 167.437
L420.21 162.874
L422.924 162.874
L422.924 158.312
L423.452 158.312
L423.452 153.749
L427.493 153.749
L427.51 144.625
L429.803 144.625
L429.803 140.062
L431.556 140.062
L431.556 135.5
L431.951 135.5
L431.991 126.375
L433.167 126.375
L433.167 121.813
L433.809 121.813
L433.809 117.25
L434.513 117.25
L434.527 108.126
L434.956 108.126
L434.956 103.563
L435.103 103.563
L435.103 99.0009
L435.747 99.0009
L435.747 94.4385
L438.496 94.4385
L438.496 89.8761
L438.67 89.8761
L438.67 85.3138
L438.987 85.3138
L438.987 80.7514
L439.191 80.7514
L439.191 76.189
L440.717 76.189
L440.717 71.6266
L442.157 71.6266
L442.157 67.0643
L444.492 67.0643
L444.492 62.5019
L444.621 62.5019
L444.621 57.9395
L447.094 57.9395
L447.094 53.3771
L450.254 53.3771
L450.254 48.8148
L452.643 48.8148
L452.643 44.2524
L454.432 44.2524
L454.432 39.69
L457.258 39.69
L457.258 35.1276
L462.341 35.1276
L462.341 30.5653
L462.483 30.5653
L462.483 26.0029
L465.477 26.0029
L465.477 21.4405
L468.472 21.4405
L468.472 16.8781
L468.472 16.8781
L511.322 16.8781
L511.322 16.8781" style="fill:none;stroke:#f5deb3;stroke-linecap:square;"/>
   </g>
   <g id="line2d_18">
    <path clip-path="url(#p4b24e7e61f)" d="
M250.807 359.056
L250.807 354.494
L282.269 354.494
L282.269 349.932
L283.697 349.932
L283.697 345.369
L291.254 345.369
L291.254 340.807
L292.138 340.807
L292.138 336.244
L305.986 336.244
L305.986 331.682
L309.807 331.682
L309.807 327.12
L325.041 327.12
L325.041 322.557
L328.762 322.557
L328.762 317.995
L343.654 317.995
L343.654 313.433
L344.226 313.433
L344.226 308.87
L350.904 308.87
L350.904 304.308
L355.031 304.308
L355.031 299.745
L356.802 299.745
L356.802 295.183
L356.982 295.183
L356.982 290.621
L357.093 290.621
L357.093 286.058
L362.054 286.058
L362.054 281.496
L362.875 281.496
L362.875 276.934
L363.49 276.934
L363.49 272.371
L363.609 272.371
L363.609 267.809
L364.214 267.809
L364.214 263.246
L364.893 263.246
L364.893 258.684
L369.721 258.684
L369.721 254.122
L374.421 254.122
L374.421 249.559
L374.608 249.559
L374.608 244.997
L378.394 244.997
L378.394 240.435
L379.949 240.435
L379.949 235.872
L381.228 235.872
L381.228 231.31
L394.948 231.31
L394.948 226.747
L399.415 226.747
L399.415 222.185
L414.354 222.185
L414.354 217.623
L418.702 217.623
L418.702 213.06
L421.67 213.06
L421.67 208.498
L427.732 208.498
L427.732 203.936
L432.558 203.936
L432.558 199.373
L434.047 199.373
L434.047 194.811
L436.255 194.811
L436.255 190.248
L441.434 190.248
L441.434 185.686
L452.24 185.686
L452.24 181.124
L467.056 181.124
L467.056 176.561
L470.864 176.561
L470.864 171.999
L477.465 171.999
L477.465 167.437
L478.413 167.437
L478.413 162.874
L478.876 162.874
L478.876 158.312
L498.126 158.312
L498.126 153.749
L498.126 153.749
L498.126 153.749
L511.322 153.749" style="fill:none;stroke:#f5deb3;stroke-linecap:square;"/>
   </g>
   <g id="line2d_19">
    <path clip-path="url(#p4b24e7e61f)" d="
M677.266 359.056" style="fill:none;stroke:#f5deb3;stroke-linecap:square;"/>
   </g>
   <g id="line2d_20">
    <path clip-path="url(#p4b24e7e61f)" d="
M267.348 359.056
L267.348 354.494
L272.319 354.494
L272.319 349.932
L276.219 349.932
L276.219 345.369
L277.123 345.369
L277.123 340.807
L278.956 340.807
L278.956 331.682
L279.268 331.682
L279.268 327.12
L280.037 327.12
L280.037 322.557
L280.416 322.557
L280.416 317.995
L281.977 317.995
L282.05 308.87
L283.202 308.87
L283.202 304.308
L284.117 304.308
L284.117 299.745
L287.018 299.745
L287.018 295.183
L287.987 295.183
L287.987 286.058
L290.232 286.058
L290.232 281.496
L292.312 281.496
L292.312 276.934
L295.561 276.934
L295.561 267.809
L295.938 267.809
L295.938 263.246
L296.577 263.246
L296.577 258.684
L297.05 258.684
L297.05 254.122
L297.827 254.122
L297.827 249.559
L300.132 249.559
L300.132 244.997
L300.858 244.997
L300.858 240.435
L301.715 240.435
L301.715 235.872
L302.602 235.872
L302.602 231.31
L305.468 231.31
L305.468 226.747
L305.598 226.747
L305.641 217.623
L306.071 217.623
L306.071 213.06
L307.045 213.06
L307.087 203.936
L309.012 203.936
L309.012 199.373
L312.186 199.373
L312.186 194.811
L312.67 194.811
L312.67 190.248
L314.659 190.248
L314.765 181.124
L319.929 181.124
L319.929 176.561
L320.616 176.561
L320.616 171.999
L320.771 171.999
L320.771 167.437
L321.536 167.437
L321.536 162.874
L321.93 162.874
L322.02 153.749
L328.787 153.749
L328.787 149.187
L334.352 149.187
L334.352 144.625
L335.055 144.625
L335.055 140.062
L337.507 140.062
L337.507 135.5
L341.987 135.5
L341.987 130.938
L342.6 130.938
L342.6 126.375
L344.919 126.375
L344.919 121.813
L349.554 121.813
L349.554 117.25
L352.06 117.25
L352.06 112.688
L354.494 112.688
L354.494 108.126
L354.901 108.126
L354.901 103.563
L358.958 103.563
L358.958 99.0009
L359.156 99.0009
L359.156 94.4385
L360.813 94.4385
L360.813 89.8761
L362.399 89.8761
L362.399 85.3138
L364.132 85.3138
L364.132 80.7514
L366.084 80.7514
L366.084 76.189
L377.287 76.189
L377.287 71.6266
L381.195 71.6266
L381.195 67.0643
L381.71 67.0643
L381.71 62.5019
L387.969 62.5019
L387.969 57.9395
L393.575 57.9395
L393.575 53.3771
L400.286 53.3771
L400.286 48.8148
L412.184 48.8148
L412.184 44.2524
L417.918 44.2524
L417.918 39.69
L419.22 39.69
L419.22 35.1276
L421.382 35.1276
L421.382 30.5653
L423.89 30.5653
L423.89 26.0029
L446.286 26.0029
L446.286 21.4405
L477.713 21.4405
L477.713 16.8781
L477.713 16.8781
L511.322 16.8781
L511.322 16.8781" style="fill:none;stroke:#f5deb3;stroke-linecap:square;"/>
   </g>
   <g id="line2d_21"/>
   <g id="line2d_22">
    <path clip-path="url(#p4b24e7e61f)" d="
M265.806 359.056
L265.806 354.494
L268.05 354.494
L268.05 349.932
L272.769 349.932
L272.769 345.369
L273.304 345.369
L273.304 340.807
L274.007 340.807
L274.007 336.244
L274.181 336.244
L274.181 331.682
L274.613 331.682
L274.613 327.12
L275.126 327.12
L275.211 317.995
L276.219 317.995
L276.219 313.433
L277.204 313.433
L277.204 308.87
L278.956 308.87
L278.956 304.308
L280.189 304.308
L280.189 299.745
L281.611 299.745
L281.611 295.183
L282.269 295.183
L282.269 290.621
L282.414 290.621
L282.414 286.058
L282.702 286.058
L282.702 281.496
L285.15 281.496
L285.15 276.934
L286.293 276.934
L286.293 272.371
L287.148 272.371
L287.148 267.809
L288.179 267.809
L288.179 263.246
L295.345 263.246
L295.345 258.684
L295.938 258.684
L295.938 254.122
L296.524 254.122
L296.524 249.559
L298.794 249.559
L298.794 244.997
L300.666 244.997
L300.666 240.435
L303.016 240.435
L303.016 235.872
L304.103 235.872
L304.103 231.31
L305.986 231.31
L305.986 226.747
L309.847 226.747
L309.847 222.185
L311.471 222.185
L311.471 217.623
L311.999 217.623
L311.999 213.06
L312.854 213.06
L312.854 208.498
L313.148 208.498
L313.148 203.936
L314.73 203.936
L314.73 199.373
L315.708 199.373
L315.708 194.811
L319.006 194.811
L319.006 190.248
L323.147 190.248
L323.147 185.686
L323.903 185.686
L323.903 181.124
L324.561 181.124
L324.561 176.561
L326.778 176.561
L326.778 171.999
L328.994 171.999
L328.994 167.437
L331.4 167.437
L331.4 162.874
L332.485 162.874
L332.485 158.312
L333.661 158.312
L333.661 153.749
L334.965 153.749
L335.055 144.625
L335.122 144.625
L335.122 140.062
L336.144 140.062
L336.144 135.5
L336.863 135.5
L336.863 130.938
L337.72 130.938
L337.72 126.375
L341.521 126.375
L341.541 117.25
L344.282 117.25
L344.282 112.688
L345.619 112.688
L345.619 108.126
L346.132 108.126
L346.132 103.563
L348.814 103.563
L348.814 99.0009
L349.472 99.0009
L349.472 94.4385
L349.96 94.4385
L349.96 89.8761
L350.314 89.8761
L350.314 85.3138
L350.586 85.3138
L350.586 80.7514
L351.03 80.7514
L351.093 71.6266
L354.082 71.6266
L354.082 67.0643
L361.155 67.0643
L361.155 62.5019
L362.399 62.5019
L362.399 57.9395
L367.486 57.9395
L367.486 53.3771
L367.923 53.3771
L367.923 48.8148
L370.935 48.8148
L370.935 44.2524
L371.71 44.2524
L371.71 39.69
L373.047 39.69
L373.047 35.1276
L381.074 35.1276
L381.074 30.5653
L381.766 30.5653
L381.766 26.0029
L395.693 26.0029
L395.693 21.4405
L405.721 21.4405
L405.721 16.8781
L405.721 16.8781
L511.322 16.8781
L511.322 16.8781" style="fill:none;stroke:#f5deb3;stroke-linecap:square;"/>
   </g>
   <g id="line2d_23">
    <path clip-path="url(#p4b24e7e61f)" d="
M570.737 359.056" style="fill:none;stroke:#f5deb3;stroke-linecap:square;"/>
   </g>
   <g id="line2d_24">
    <path clip-path="url(#p4b24e7e61f)" d="
M317.868 359.056
L317.868 354.494
L319.96 354.494
L319.96 349.932
L325.266 349.932
L325.266 345.369
L325.904 345.369
L326.014 336.244
L326.152 336.244
L326.152 331.682
L326.697 331.682
L326.697 327.12
L327.128 327.12
L327.128 322.557
L330.188 322.557
L330.213 313.433
L330.587 313.433
L330.587 308.87
L330.958 308.87
L330.958 304.308
L331.473 304.308
L331.473 299.745
L332.27 299.745
L332.27 295.183
L332.722 295.183
L332.722 290.621
L333.753 290.621
L333.753 286.058
L334.168 286.058
L334.168 281.496
L335.458 281.496
L335.458 276.934
L336.298 276.934
L336.363 267.809
L337.741 267.809
L337.741 263.246
L339.057 263.246
L339.057 258.684
L339.833 258.684
L339.833 254.122
L341.365 254.122
L341.365 249.559
L341.56 249.559
L341.658 240.435
L341.948 240.435
L341.948 235.872
L342.524 235.872
L342.524 231.31
L342.638 231.31
L342.638 226.747
L342.941 226.747
L343.017 217.623
L343.598 217.623
L343.598 213.06
L344.318 213.06
L344.318 208.498
L344.574 208.498
L344.574 203.936
L345.654 203.936
L345.654 199.373
L346.535 199.373
L346.535 194.811
L346.865 194.811
L346.934 185.686
L348.297 185.686
L348.297 181.124
L349.57 181.124
L349.57 176.561
L350.137 176.561
L350.137 171.999
L351.141 171.999
L351.141 167.437
L351.689 167.437
L351.689 162.874
L351.828 162.874
L351.828 158.312
L354.185 158.312
L354.185 153.749
L354.973 153.749
L354.973 149.187
L356.83 149.187
L356.83 144.625
L357.436 144.625
L357.436 140.062
L358.062 140.062
L358.062 135.5
L358.786 135.5
L358.786 130.938
L359.156 130.938
L359.156 126.375
L359.537 126.375
L359.537 121.813
L361.155 121.813
L361.155 117.25
L362.484 117.25
L362.521 108.126
L362.631 108.126
L362.631 103.563
L363.225 103.563
L363.225 99.0009
L363.824 99.0009
L363.824 94.4385
L364.776 94.4385
L364.776 89.8761
L365.078 89.8761
L365.078 85.3138
L365.993 85.3138
L365.993 80.7514
L366.107 80.7514
L366.107 76.189
L370.711 76.189
L370.711 71.6266
L372.196 71.6266
L372.196 67.0643
L373.423 67.0643
L373.423 62.5019
L373.872 62.5019
L373.872 57.9395
L382.956 57.9395
L382.956 53.3771
L387.027 53.3771
L387.027 48.8148
L392.719 48.8148
L392.719 44.2524
L406.396 44.2524
L406.396 39.69
L406.548 39.69
L406.548 35.1276
L410.354 35.1276
L410.354 30.5653
L413.867 30.5653
L413.867 26.0029
L434.631 26.0029
L434.631 21.4405
L436.847 21.4405
L436.847 16.8781
L436.847 16.8781
L511.322 16.8781
L511.322 16.8781" style="fill:none;stroke:#f5deb3;stroke-linecap:square;"/>
   </g>
   <g id="line2d_25"/>
   <g id="line2d_26">
    <path clip-path="url(#p4b24e7e61f)" d="
M373.076 359.056
L373.076 354.494
L374.683 354.494
L374.683 349.932
L375.681 349.932
L375.763 340.807
L375.808 340.807
L375.808 336.244
L375.954 336.244
L375.954 331.682
L376.081 331.682
L376.081 327.12
L380.691 327.12
L380.724 317.995
L380.944 317.995
L380.944 313.433
L381.397 313.433
L381.397 308.87
L381.51 308.87
L381.51 304.308
L381.758 304.308
L381.846 295.183
L381.949 295.183
L381.949 290.621
L382.108 290.621
L382.171 281.496
L382.408 281.496
L382.51 272.371
L382.839 272.371
L382.839 267.809
L383.002 267.809
L383.002 263.246
L383.157 263.246
L383.157 258.684
L383.504 258.684
L383.55 244.997
L383.833 244.997
L383.833 240.435
L384.153 240.435
L384.251 222.185
L388.004 222.185
L388.052 208.498
L388.364 208.498
L388.433 199.373
L388.871 199.373
L388.871 194.811
L389.103 194.811
L389.17 185.686
L389.769 185.686
L389.769 181.124
L390.162 181.124
L390.162 176.561
L390.754 176.561
L390.754 171.999
L394.667 171.999
L394.667 167.437
L395.257 167.437
L395.269 158.312
L395.664 158.312
L395.664 153.749
L395.991 153.749
L395.991 149.187
L400.529 149.187
L400.529 144.625
L401.832 144.625
L401.837 135.5
L402.005 135.5
L402.041 121.813
L402.386 121.813
L402.386 117.25
L405.329 117.25
L405.329 112.688
L405.922 112.688
L405.922 108.126
L406.262 108.126
L406.359 94.4385
L407.12 94.4385
L407.12 89.8761
L409.95 89.8761
L410.057 80.7514
L410.523 80.7514
L410.523 76.189
L411.23 76.189
L411.247 67.0643
L415.233 67.0643
L415.233 62.5019
L418.1 62.5019
L418.1 57.9395
L426.772 57.9395
L426.772 53.3771
L427.574 53.3771
L427.582 44.2524
L427.698 44.2524
L427.698 39.69
L428.948 39.69
L428.948 35.1276
L430.08 35.1276
L430.08 30.5653
L435.313 30.5653
L435.313 26.0029
L438.555 26.0029
L438.555 21.4405
L456.918 21.4405
L456.918 16.8781
L456.918 16.8781
L511.322 16.8781
L511.322 16.8781" style="fill:none;stroke:#f5deb3;stroke-linecap:square;"/>
   </g>
   <g id="line2d_27"/>
   <g id="line2d_28">
    <path clip-path="url(#p4b24e7e61f)" d="
M310.666 359.056
L310.666 354.494
L311.128 354.494
L311.128 349.932
L312.298 349.932
L312.298 345.369
L314.232 345.369
L314.232 340.807
L314.553 340.807
L314.553 336.244
L315.011 336.244
L315.011 331.682
L316.564 331.682
L316.564 327.12
L318.359 327.12
L318.359 322.557
L318.522 322.557
L318.522 317.995
L319.929 317.995
L319.929 313.433
L320.492 313.433
L320.492 308.87
L320.74 308.87
L320.74 304.308
L321.869 304.308
L321.869 299.745
L322.883 299.745
L322.883 295.183
L323.059 295.183
L323.059 290.621
L323.41 290.621
L323.41 286.058
L323.585 286.058
L323.585 281.496
L324.018 281.496
L324.018 276.934
L324.362 276.934
L324.362 272.371
L324.675 272.371
L324.675 267.809
L324.872 267.809
L324.872 263.246
L325.6 263.246
L325.6 258.684
L325.821 258.684
L325.821 254.122
L325.987 254.122
L325.987 249.559
L327.101 249.559
L327.101 244.997
L327.715 244.997
L327.715 240.435
L327.926 240.435
L327.926 235.872
L329.045 235.872
L329.045 231.31
L329.835 231.31
L329.835 226.747
L330.81 226.747
L330.81 222.185
L331.278 222.185
L331.278 217.623
L332.246 217.623
L332.246 213.06
L333.544 213.06
L333.544 208.498
L334.122 208.498
L334.122 203.936
L334.397 203.936
L334.397 199.373
L334.602 199.373
L334.602 194.811
L335.99 194.811
L335.99 190.248
L336.166 190.248
L336.166 185.686
L336.69 185.686
L336.69 181.124
L336.863 181.124
L336.863 176.561
L337.293 176.561
L337.293 171.999
L337.507 171.999
L337.507 167.437
L337.677 167.437
L337.677 162.874
L338.205 162.874
L338.205 158.312
L338.995 158.312
L338.995 153.749
L339.488 153.749
L339.488 149.187
L339.894 149.187
L339.894 144.625
L340.015 144.625
L340.095 130.938
L340.893 130.938
L340.893 126.375
L341.987 126.375
L341.987 121.813
L343.13 121.813
L343.13 117.25
L343.467 117.25
L343.467 112.688
L344.263 112.688
L344.263 108.126
L344.519 108.126
L344.519 103.563
L345.92 103.563
L345.92 99.0009
L346.657 99.0009
L346.657 94.4385
L347.09 94.4385
L347.09 89.8761
L347.433 89.8761
L347.433 85.3138
L348.714 85.3138
L348.714 80.7514
L349.095 80.7514
L349.095 76.189
L349.521 76.189
L349.521 71.6266
L350.057 71.6266
L350.057 67.0643
L350.41 67.0643
L350.41 62.5019
L351.408 62.5019
L351.408 57.9395
L353.338 57.9395
L353.338 53.3771
L353.712 53.3771
L353.712 48.8148
L354.2 48.8148
L354.2 44.2524
L369.96 44.2524
L369.96 39.69
L370.752 39.69
L370.752 35.1276
L373.768 35.1276
L373.768 30.5653
L376.433 30.5653
L376.433 26.0029
L379.051 26.0029
L379.051 21.4405
L393.704 21.4405
L393.704 16.8781
L393.704 16.8781
L511.322 16.8781
L511.322 16.8781" style="fill:none;stroke:#f5deb3;stroke-linecap:square;"/>
   </g>
   <g id="line2d_29">
    <path clip-path="url(#p4b24e7e61f)" d="
M384.814 359.056
L384.814 354.494
L384.814 354.494
L384.814 349.932
L384.814 349.932
L384.814 345.369
L414.644 345.369
L414.644 340.807
L414.644 340.807
L414.644 336.244
L414.644 336.244
L414.644 331.682
L414.644 331.682
L414.644 331.682
L511.322 331.682" style="fill:none;stroke:#f5deb3;stroke-linecap:square;"/>
   </g>
   <g id="line2d_30"/>
   <g id="line2d_31">
    <path clip-path="url(#p4b24e7e61f)" d="
M-1 331.682
L64.9219 331.682
L64.9219 327.12
L73.14 327.12
L73.14 322.557
L86.1073 322.557
L86.1073 317.995
L104.384 317.995
L104.384 313.433
L107.992 313.433
L107.992 308.87
L114.442 308.87
L114.442 304.308
L137.467 304.308
L137.467 299.745
L151.327 299.745
L151.327 295.183
L157.511 295.183
L157.511 290.621
L322.379 290.621
L322.379 286.058
L322.587 286.058
L322.587 281.496
L328.32 281.496
L328.32 276.934
L329.122 276.934
L329.122 272.371
L331.18 272.371
L331.278 263.246
L333.006 263.246
L333.006 258.684
L334.237 258.684
L334.237 254.122
L335.658 254.122
L335.703 244.997
L337.571 244.997
L337.571 240.435
L341.832 240.435
L341.832 235.872
L343.486 235.872
L343.486 231.31
L343.969 231.31
L343.969 226.747
L345.583 226.747
L345.583 222.185
L353.413 222.185
L353.413 217.623
L357.669 217.623
L357.669 213.06
L358.586 213.06
L358.586 208.498
L358.799 208.498
L358.799 203.936
L361.955 203.936
L361.955 199.373
L368.096 199.373
L368.096 194.811
L373.882 194.811
L373.882 190.248
L375.516 190.248
L375.516 185.686
L383.049 185.686
L383.049 181.124
L402.613 181.124
L402.613 176.561
L404.82 176.561
L404.83 167.437
L405.917 167.437
L405.917 162.874
L406.617 162.874
L406.617 158.312
L408.738 158.312
L408.738 153.749
L409.568 153.749
L409.568 149.187
L410.704 149.187
L410.704 144.625
L411.812 144.625
L411.812 140.062
L412.163 140.062
L412.163 135.5
L412.862 135.5
L412.862 130.938
L415.608 130.938
L415.608 126.375
L416.377 126.375
L416.377 121.813
L417.265 121.813
L417.265 117.25
L417.598 117.25
L417.598 112.688
L418.139 112.688
L418.139 108.126
L423.629 108.126
L423.724 99.0009
L426.663 99.0009
L426.663 94.4385
L427.391 94.4385
L427.391 89.8761
L432.335 89.8761
L432.335 85.3138
L432.736 85.3138
L432.736 80.7514
L433.708 80.7514
L433.708 76.189
L434.346 76.189
L434.346 71.6266
L434.802 71.6266
L434.802 67.0643
L439.008 67.0643
L439.008 62.5019
L441.003 62.5019
L441.003 57.9395
L441.521 57.9395
L441.521 53.3771
L441.981 53.3771
L441.981 48.8148
L442.128 48.8148
L442.128 44.2524
L442.793 44.2524
L442.793 39.69
L447.855 39.69
L447.855 35.1276
L450.334 35.1276
L450.334 30.5653
L456.122 30.5653
L456.122 26.0029
L457.551 26.0029
L457.551 21.4405
L464.711 21.4405
L464.711 16.8781
L464.711 16.8781
L511.322 16.8781
L511.322 16.8781" style="fill:none;stroke:#000000;stroke-linecap:square;"/>
   </g>
   <g id="line2d_32"/>
   <g id="line2d_33">
    <path clip-path="url(#p4b24e7e61f)" d="
M256.551 359.056
L256.551 354.494
L266.015 354.494
L266.015 349.932
L268.446 349.932
L268.446 345.369
L278.721 345.369
L278.721 340.807
L283.908 340.807
L283.908 336.244
L284.048 336.244
L284.048 331.682
L287.473 331.682
L287.473 327.12
L288.936 327.12
L288.936 322.557
L290.171 322.557
L290.171 317.995
L293.629 317.995
L293.629 313.433
L293.854 313.433
L293.854 308.87
L293.91 308.87
L293.91 304.308
L294.134 304.308
L294.134 299.745
L297.206 299.745
L297.206 295.183
L301.668 295.183
L301.668 290.621
L379.924 290.621
L379.924 286.058
L382.792 286.058
L382.792 281.496
L408.527 281.496
L408.527 276.934
L409.144 276.934
L409.144 272.371
L411.151 272.371
L411.151 267.809
L411.475 267.809
L411.475 263.246
L411.824 263.246
L411.824 258.684
L413.446 258.684
L413.446 254.122
L414.501 254.122
L414.501 249.559
L416.525 249.559
L416.525 244.997
L417.85 244.997
L417.85 240.435
L421.133 240.435
L421.133 235.872
L421.538 235.872
L421.538 231.31
L422.269 231.31
L422.269 226.747
L424.606 226.747
L424.606 222.185
L425.685 222.185
L425.685 217.623
L431.051 217.623
L431.051 213.06
L433.287 213.06
L433.287 208.498
L436.209 208.498
L436.209 203.936
L438.204 203.936
L438.204 199.373
L440.949 199.373
L440.949 194.811
L441.939 194.811
L441.939 190.248
L442.542 190.248
L442.542 185.686
L443.508 185.686
L443.508 181.124
L443.955 181.124
L443.955 176.561
L444.027 176.561
L444.027 171.999
L445.074 171.999
L445.074 167.437
L451.124 167.437
L451.124 162.874
L455.853 162.874
L455.853 158.312
L456.194 158.312
L456.194 153.749
L456.301 153.749
L456.301 149.187
L456.424 149.187
L456.424 144.625
L458.843 144.625
L458.843 140.062
L459.709 140.062
L459.709 135.5
L461.295 135.5
L461.295 130.938
L461.634 130.938
L461.634 126.375
L462.347 126.375
L462.347 121.813
L469.118 121.813
L469.118 117.25
L472.861 117.25
L472.861 112.688
L473.068 112.688
L473.068 108.126
L476.125 108.126
L476.125 103.563
L479.139 103.563
L479.139 99.0009
L480.045 99.0009
L480.045 94.4385
L483.374 94.4385
L483.374 89.8761
L491.066 89.8761
L491.066 85.3138
L501.835 85.3138
L501.835 80.7514
L501.835 80.7514
L501.835 80.7514
L511.322 80.7514" style="fill:none;stroke:#00bfbf;stroke-linecap:square;"/>
   </g>
   <g id="line2d_34"/>
   <g id="line2d_35">
    <path clip-path="url(#p4b24e7e61f)" d="
M371.54 359.056
L371.54 354.494
L379.991 354.494
L379.991 349.932
L380.016 349.932
L380.016 345.369
L380.148 345.369
L380.148 340.807
L382.612 340.807
L382.612 336.244
L382.636 336.244
L382.636 331.682
L385.267 331.682
L385.267 327.12
L387.465 327.12
L387.465 322.557
L388.274 322.557
L388.274 317.995
L390.63 317.995
L390.63 313.433
L392.101 313.433
L392.101 308.87
L393.642 308.87
L393.642 304.308
L394.209 304.308
L394.209 299.745
L395.534 299.745
L395.534 295.183
L402.713 295.183
L402.713 290.621
L431.166 290.621
L431.166 286.058
L432.411 286.058
L432.411 281.496
L433.206 281.496
L433.206 276.934
L434.408 276.934
L434.408 272.371
L436.336 272.371
L436.336 267.809
L437.14 267.809
L437.14 263.246
L437.757 263.246
L437.757 258.684
L439.124 258.684
L439.124 254.122
L442.195 254.122
L442.195 249.559
L442.947 249.559
L442.947 244.997
L443.072 244.997
L443.072 240.435
L445.007 240.435
L445.007 235.872
L446.829 235.872
L446.829 231.31
L450.312 231.31
L450.312 226.747
L452.585 226.747
L452.585 222.185
L453.577 222.185
L453.577 217.623
L455.383 217.623
L455.383 213.06
L456.053 213.06
L456.053 208.498
L456.911 208.498
L456.911 203.936
L458.256 203.936
L458.256 199.373
L459.399 199.373
L459.399 194.811
L460.036 194.811
L460.036 190.248
L463.302 190.248
L463.302 185.686
L464.668 185.686
L464.668 181.124
L466.337 181.124
L466.337 176.561
L472.491 176.561
L472.491 171.999
L474.084 171.999
L474.084 167.437
L476.403 167.437
L476.403 162.874
L476.581 162.874
L476.581 158.312
L478.828 158.312
L478.828 153.749
L479.638 153.749
L479.638 149.187
L482.28 149.187
L482.28 144.625
L485.966 144.625
L485.966 140.062
L486.975 140.062
L486.975 135.5
L489.469 135.5
L489.469 130.938
L489.797 130.938
L489.797 126.375
L496.291 126.375
L496.291 121.813
L496.537 121.813
L496.537 117.25
L497.543 117.25
L497.543 112.688
L500.807 112.688
L500.807 108.126
L500.929 108.126
L500.929 103.563
L508.493 103.563
L508.493 99.0009
L508.493 99.0009
L508.493 99.0009
L511.322 99.0009" style="fill:none;stroke:#bf00bf;stroke-linecap:square;"/>
   </g>
   <g id="line2d_36"/>
   <g id="line2d_37">
    <path clip-path="url(#p4b24e7e61f)" d="
M448.314 359.056
L448.314 354.494
L450.501 354.494
L450.501 349.932
L452.515 349.932
L452.515 345.369
L453.179 345.369
L453.179 340.807
L453.878 340.807
L453.878 336.244
L455.156 336.244
L455.156 331.682
L455.311 331.682
L455.311 327.12
L456.69 327.12
L456.69 322.557
L457.6 322.557
L457.6 317.995
L457.855 317.995
L457.855 313.433
L457.921 313.433
L457.921 308.87
L457.941 308.87
L457.941 304.308
L462.536 304.308
L462.536 299.745
L462.731 299.745
L462.731 295.183
L465.934 295.183
L465.934 290.621
L468.33 290.621
L468.33 286.058
L471.529 286.058
L471.529 281.496
L475.454 281.496
L475.454 276.934
L476.262 276.934
L476.262 272.371
L476.778 272.371
L476.778 267.809
L478.098 267.809
L478.098 263.246
L484.1 263.246
L484.1 258.684
L488.34 258.684
L488.34 254.122
L490.96 254.122
L490.96 249.559
L492.308 249.559
L492.308 244.997
L492.479 244.997
L492.479 240.435
L492.978 240.435
L492.978 235.872
L493.132 235.872
L493.132 231.31
L493.151 231.31
L493.151 226.747
L493.702 226.747
L493.702 222.185
L494.61 222.185
L494.61 217.623
L495.813 217.623
L495.813 213.06
L497.697 213.06
L497.697 208.498
L497.722 208.498
L497.722 203.936
L500.785 203.936
L500.785 199.373
L502.698 199.373
L502.698 194.811
L504.92 194.811
L504.92 190.248
L509.974 190.248
L509.974 185.686
L510.736 185.686
L510.736 181.124
L510.736 181.124
L510.736 181.124
L511.322 181.124" style="fill:none;stroke:#ff0000;stroke-linecap:square;stroke-width:3.0;"/>
   </g>
   <g id="line2d_38"/>
   <g id="line2d_39">
    <path clip-path="url(#p4b24e7e61f)" d="
M511.322 359.056
L511.322 13.4563" style="fill:none;stroke:#000000;stroke-linecap:square;"/>
   </g>
   <g id="matplotlib.axis_1">
    <g id="xtick_1">
     <g id="line2d_40">
      <path clip-path="url(#p4b24e7e61f)" d="
M64.9219 359.056
L64.9219 13.4563" style="fill:none;stroke:#000000;stroke-dasharray:1.000000,3.000000;stroke-dashoffset:0.0;stroke-width:0.5;"/>
     </g>
     <g id="line2d_41">
      <defs>
       <path d="
M0 0
L0 -4" id="m93b0483c22" style="stroke:#000000;stroke-width:0.5;"/>
      </defs>
      <g>
       <use style="stroke:#000000;stroke-width:0.5;" x="64.921875" xlink:href="#m93b0483c22" y="359.056342822"/>
      </g>
     </g>
     <g id="line2d_42">
      <defs>
       <path d="
M0 0
L0 4" id="m741efc42ff" style="stroke:#000000;stroke-width:0.5;"/>
      </defs>
      <g>
       <use style="stroke:#000000;stroke-width:0.5;" x="64.921875" xlink:href="#m741efc42ff" y="13.4563428218"/>
      </g>
     </g>
     <g id="text_1">
      <!-- 0 -->
      <defs>
       <path d="
M31.7812 66.4062
Q24.1719 66.4062 20.3281 58.9062
Q16.5 51.4219 16.5 36.375
Q16.5 21.3906 20.3281 13.8906
Q24.1719 6.39062 31.7812 6.39062
Q39.4531 6.39062 43.2812 13.8906
Q47.125 21.3906 47.125 36.375
Q47.125 51.4219 43.2812 58.9062
Q39.4531 66.4062 31.7812 66.4062
M31.7812 74.2188
Q44.0469 74.2188 50.5156 64.5156
Q56.9844 54.8281 56.9844 36.375
Q56.9844 17.9688 50.5156 8.26562
Q44.0469 -1.42188 31.7812 -1.42188
Q19.5312 -1.42188 13.0625 8.26562
Q6.59375 17.9688 6.59375 36.375
Q6.59375 54.8281 13.0625 64.5156
Q19.5312 74.2188 31.7812 74.2188" id="BitstreamVeraSans-Roman-30"/>
      </defs>
      <g transform="translate(59.8828125 378.253217822)scale(0.2 -0.2)">
       <use xlink:href="#BitstreamVeraSans-Roman-30"/>
      </g>
     </g>
    </g>
    <g id="xtick_2">
     <g id="line2d_43">
      <path clip-path="url(#p4b24e7e61f)" d="
M168.711 359.056
L168.711 13.4563" style="fill:none;stroke:#000000;stroke-dasharray:1.000000,3.000000;stroke-dashoffset:0.0;stroke-width:0.5;"/>
     </g>
     <g id="line2d_44">
      <g>
       <use style="stroke:#000000;stroke-width:0.5;" x="168.710862685" xlink:href="#m93b0483c22" y="359.056342822"/>
      </g>
     </g>
     <g id="line2d_45">
      <g>
       <use style="stroke:#000000;stroke-width:0.5;" x="168.710862685" xlink:href="#m741efc42ff" y="13.4563428218"/>
      </g>
     </g>
     <g id="text_2">
      <!-- 1 -->
      <defs>
       <path d="
M12.4062 8.29688
L28.5156 8.29688
L28.5156 63.9219
L10.9844 60.4062
L10.9844 69.3906
L28.4219 72.9062
L38.2812 72.9062
L38.2812 8.29688
L54.3906 8.29688
L54.3906 0
L12.4062 0
z
" id="BitstreamVeraSans-Roman-31"/>
      </defs>
      <g transform="translate(164.370237685 378.253217822)scale(0.2 -0.2)">
       <use xlink:href="#BitstreamVeraSans-Roman-31"/>
      </g>
     </g>
    </g>
    <g id="xtick_3">
     <g id="line2d_46">
      <path clip-path="url(#p4b24e7e61f)" d="
M272.5 359.056
L272.5 13.4563" style="fill:none;stroke:#000000;stroke-dasharray:1.000000,3.000000;stroke-dashoffset:0.0;stroke-width:0.5;"/>
     </g>
     <g id="line2d_47">
      <g>
       <use style="stroke:#000000;stroke-width:0.5;" x="272.49985037" xlink:href="#m93b0483c22" y="359.056342822"/>
      </g>
     </g>
     <g id="line2d_48">
      <g>
       <use style="stroke:#000000;stroke-width:0.5;" x="272.49985037" xlink:href="#m741efc42ff" y="13.4563428218"/>
      </g>
     </g>
     <g id="text_3">
      <!-- 2 -->
      <defs>
       <path d="
M19.1875 8.29688
L53.6094 8.29688
L53.6094 0
L7.32812 0
L7.32812 8.29688
Q12.9375 14.1094 22.625 23.8906
Q32.3281 33.6875 34.8125 36.5312
Q39.5469 41.8438 41.4219 45.5312
Q43.3125 49.2188 43.3125 52.7812
Q43.3125 58.5938 39.2344 62.25
Q35.1562 65.9219 28.6094 65.9219
Q23.9688 65.9219 18.8125 64.3125
Q13.6719 62.7031 7.8125 59.4219
L7.8125 69.3906
Q13.7656 71.7812 18.9375 73
Q24.125 74.2188 28.4219 74.2188
Q39.75 74.2188 46.4844 68.5469
Q53.2188 62.8906 53.2188 53.4219
Q53.2188 48.9219 51.5312 44.8906
Q49.8594 40.875 45.4062 35.4062
Q44.1875 33.9844 37.6406 27.2188
Q31.1094 20.4531 19.1875 8.29688" id="BitstreamVeraSans-Roman-32"/>
      </defs>
      <g transform="translate(267.87172537 378.253217822)scale(0.2 -0.2)">
       <use xlink:href="#BitstreamVeraSans-Roman-32"/>
      </g>
     </g>
    </g>
    <g id="xtick_4">
     <g id="line2d_49">
      <path clip-path="url(#p4b24e7e61f)" d="
M376.289 359.056
L376.289 13.4563" style="fill:none;stroke:#000000;stroke-dasharray:1.000000,3.000000;stroke-dashoffset:0.0;stroke-width:0.5;"/>
     </g>
     <g id="line2d_50">
      <g>
       <use style="stroke:#000000;stroke-width:0.5;" x="376.288838055" xlink:href="#m93b0483c22" y="359.056342822"/>
      </g>
     </g>
     <g id="line2d_51">
      <g>
       <use style="stroke:#000000;stroke-width:0.5;" x="376.288838055" xlink:href="#m741efc42ff" y="13.4563428218"/>
      </g>
     </g>
     <g id="text_4">
      <!-- 3 -->
      <defs>
       <path d="
M40.5781 39.3125
Q47.6562 37.7969 51.625 33
Q55.6094 28.2188 55.6094 21.1875
Q55.6094 10.4062 48.1875 4.48438
Q40.7656 -1.42188 27.0938 -1.42188
Q22.5156 -1.42188 17.6562 -0.515625
Q12.7969 0.390625 7.625 2.20312
L7.625 11.7188
Q11.7188 9.32812 16.5938 8.10938
Q21.4844 6.89062 26.8125 6.89062
Q36.0781 6.89062 40.9375 10.5469
Q45.7969 14.2031 45.7969 21.1875
Q45.7969 27.6406 41.2812 31.2656
Q36.7656 34.9062 28.7188 34.9062
L20.2188 34.9062
L20.2188 43.0156
L29.1094 43.0156
Q36.375 43.0156 40.2344 45.9219
Q44.0938 48.8281 44.0938 54.2969
Q44.0938 59.9062 40.1094 62.9062
Q36.1406 65.9219 28.7188 65.9219
Q24.6562 65.9219 20.0156 65.0312
Q15.375 64.1562 9.8125 62.3125
L9.8125 71.0938
Q15.4375 72.6562 20.3438 73.4375
Q25.25 74.2188 29.5938 74.2188
Q40.8281 74.2188 47.3594 69.1094
Q53.9062 64.0156 53.9062 55.3281
Q53.9062 49.2656 50.4375 45.0938
Q46.9688 40.9219 40.5781 39.3125" id="BitstreamVeraSans-Roman-33"/>
      </defs>
      <g transform="translate(371.490400555 378.253217822)scale(0.2 -0.2)">
       <use xlink:href="#BitstreamVeraSans-Roman-33"/>
      </g>
     </g>
    </g>
    <g id="xtick_5">
     <g id="line2d_52">
      <path clip-path="url(#p4b24e7e61f)" d="
M480.078 359.056
L480.078 13.4563" style="fill:none;stroke:#000000;stroke-dasharray:1.000000,3.000000;stroke-dashoffset:0.0;stroke-width:0.5;"/>
     </g>
     <g id="line2d_53">
      <g>
       <use style="stroke:#000000;stroke-width:0.5;" x="480.07782574" xlink:href="#m93b0483c22" y="359.056342822"/>
      </g>
     </g>
     <g id="line2d_54">
      <g>
       <use style="stroke:#000000;stroke-width:0.5;" x="480.07782574" xlink:href="#m741efc42ff" y="13.4563428218"/>
      </g>
     </g>
     <g id="text_5">
      <!-- 4 -->
      <defs>
       <path d="
M37.7969 64.3125
L12.8906 25.3906
L37.7969 25.3906
z

M35.2031 72.9062
L47.6094 72.9062
L47.6094 25.3906
L58.0156 25.3906
L58.0156 17.1875
L47.6094 17.1875
L47.6094 0
L37.7969 0
L37.7969 17.1875
L4.89062 17.1875
L4.89062 26.7031
z
" id="BitstreamVeraSans-Roman-34"/>
      </defs>
      <g transform="translate(474.76532574 378.253217822)scale(0.2 -0.2)">
       <use xlink:href="#BitstreamVeraSans-Roman-34"/>
      </g>
     </g>
    </g>
    <g id="xtick_6">
     <g id="line2d_55">
      <defs>
       <path d="
M0 0
L0 -2" id="m177f7580d0" style="stroke:#000000;stroke-width:0.5;"/>
      </defs>
      <g>
       <use style="stroke:#000000;stroke-width:0.5;" x="96.1654735128" xlink:href="#m177f7580d0" y="359.056342822"/>
      </g>
     </g>
     <g id="line2d_56">
      <defs>
       <path d="
M0 0
L0 2" id="m5284c7e2a0" style="stroke:#000000;stroke-width:0.5;"/>
      </defs>
      <g>
       <use style="stroke:#000000;stroke-width:0.5;" x="96.1654735128" xlink:href="#m5284c7e2a0" y="13.4563428218"/>
      </g>
     </g>
    </g>
    <g id="xtick_7">
     <g id="line2d_57">
      <g>
       <use style="stroke:#000000;stroke-width:0.5;" x="114.44180703" xlink:href="#m177f7580d0" y="359.056342822"/>
      </g>
     </g>
     <g id="line2d_58">
      <g>
       <use style="stroke:#000000;stroke-width:0.5;" x="114.44180703" xlink:href="#m5284c7e2a0" y="13.4563428218"/>
      </g>
     </g>
    </g>
    <g id="xtick_8">
     <g id="line2d_59">
      <g>
       <use style="stroke:#000000;stroke-width:0.5;" x="127.409072026" xlink:href="#m177f7580d0" y="359.056342822"/>
      </g>
     </g>
     <g id="line2d_60">
      <g>
       <use style="stroke:#000000;stroke-width:0.5;" x="127.409072026" xlink:href="#m5284c7e2a0" y="13.4563428218"/>
      </g>
     </g>
    </g>
    <g id="xtick_9">
     <g id="line2d_61">
      <g>
       <use style="stroke:#000000;stroke-width:0.5;" x="137.467264172" xlink:href="#m177f7580d0" y="359.056342822"/>
      </g>
     </g>
     <g id="line2d_62">
      <g>
       <use style="stroke:#000000;stroke-width:0.5;" x="137.467264172" xlink:href="#m5284c7e2a0" y="13.4563428218"/>
      </g>
     </g>
    </g>
    <g id="xtick_10">
     <g id="line2d_63">
      <g>
       <use style="stroke:#000000;stroke-width:0.5;" x="145.685405543" xlink:href="#m177f7580d0" y="359.056342822"/>
      </g>
     </g>
     <g id="line2d_64">
      <g>
       <use style="stroke:#000000;stroke-width:0.5;" x="145.685405543" xlink:href="#m5284c7e2a0" y="13.4563428218"/>
      </g>
     </g>
    </g>
    <g id="xtick_11">
     <g id="line2d_65">
      <g>
       <use style="stroke:#000000;stroke-width:0.5;" x="152.633745068" xlink:href="#m177f7580d0" y="359.056342822"/>
      </g>
     </g>
     <g id="line2d_66">
      <g>
       <use style="stroke:#000000;stroke-width:0.5;" x="152.633745068" xlink:href="#m5284c7e2a0" y="13.4563428218"/>
      </g>
     </g>
    </g>
    <g id="xtick_12">
     <g id="line2d_67">
      <g>
       <use style="stroke:#000000;stroke-width:0.5;" x="158.652670538" xlink:href="#m177f7580d0" y="359.056342822"/>
      </g>
     </g>
     <g id="line2d_68">
      <g>
       <use style="stroke:#000000;stroke-width:0.5;" x="158.652670538" xlink:href="#m5284c7e2a0" y="13.4563428218"/>
      </g>
     </g>
    </g>
    <g id="xtick_13">
     <g id="line2d_69">
      <g>
       <use style="stroke:#000000;stroke-width:0.5;" x="163.961739061" xlink:href="#m177f7580d0" y="359.056342822"/>
      </g>
     </g>
     <g id="line2d_70">
      <g>
       <use style="stroke:#000000;stroke-width:0.5;" x="163.961739061" xlink:href="#m5284c7e2a0" y="13.4563428218"/>
      </g>
     </g>
    </g>
    <g id="xtick_14">
     <g id="line2d_71">
      <g>
       <use style="stroke:#000000;stroke-width:0.5;" x="199.954461198" xlink:href="#m177f7580d0" y="359.056342822"/>
      </g>
     </g>
     <g id="line2d_72">
      <g>
       <use style="stroke:#000000;stroke-width:0.5;" x="199.954461198" xlink:href="#m5284c7e2a0" y="13.4563428218"/>
      </g>
     </g>
    </g>
    <g id="xtick_15">
     <g id="line2d_73">
      <g>
       <use style="stroke:#000000;stroke-width:0.5;" x="218.230794715" xlink:href="#m177f7580d0" y="359.056342822"/>
      </g>
     </g>
     <g id="line2d_74">
      <g>
       <use style="stroke:#000000;stroke-width:0.5;" x="218.230794715" xlink:href="#m5284c7e2a0" y="13.4563428218"/>
      </g>
     </g>
    </g>
    <g id="xtick_16">
     <g id="line2d_75">
      <g>
       <use style="stroke:#000000;stroke-width:0.5;" x="231.19805971" xlink:href="#m177f7580d0" y="359.056342822"/>
      </g>
     </g>
     <g id="line2d_76">
      <g>
       <use style="stroke:#000000;stroke-width:0.5;" x="231.19805971" xlink:href="#m5284c7e2a0" y="13.4563428218"/>
      </g>
     </g>
    </g>
    <g id="xtick_17">
     <g id="line2d_77">
      <g>
       <use style="stroke:#000000;stroke-width:0.5;" x="241.256251857" xlink:href="#m177f7580d0" y="359.056342822"/>
      </g>
     </g>
     <g id="line2d_78">
      <g>
       <use style="stroke:#000000;stroke-width:0.5;" x="241.256251857" xlink:href="#m5284c7e2a0" y="13.4563428218"/>
      </g>
     </g>
    </g>
    <g id="xtick_18">
     <g id="line2d_79">
      <g>
       <use style="stroke:#000000;stroke-width:0.5;" x="249.474393228" xlink:href="#m177f7580d0" y="359.056342822"/>
      </g>
     </g>
     <g id="line2d_80">
      <g>
       <use style="stroke:#000000;stroke-width:0.5;" x="249.474393228" xlink:href="#m5284c7e2a0" y="13.4563428218"/>
      </g>
     </g>
    </g>
    <g id="xtick_19">
     <g id="line2d_81">
      <g>
       <use style="stroke:#000000;stroke-width:0.5;" x="256.422732752" xlink:href="#m177f7580d0" y="359.056342822"/>
      </g>
     </g>
     <g id="line2d_82">
      <g>
       <use style="stroke:#000000;stroke-width:0.5;" x="256.422732752" xlink:href="#m5284c7e2a0" y="13.4563428218"/>
      </g>
     </g>
    </g>
    <g id="xtick_20">
     <g id="line2d_83">
      <g>
       <use style="stroke:#000000;stroke-width:0.5;" x="262.441658223" xlink:href="#m177f7580d0" y="359.056342822"/>
      </g>
     </g>
     <g id="line2d_84">
      <g>
       <use style="stroke:#000000;stroke-width:0.5;" x="262.441658223" xlink:href="#m5284c7e2a0" y="13.4563428218"/>
      </g>
     </g>
    </g>
    <g id="xtick_21">
     <g id="line2d_85">
      <g>
       <use style="stroke:#000000;stroke-width:0.5;" x="267.750726746" xlink:href="#m177f7580d0" y="359.056342822"/>
      </g>
     </g>
     <g id="line2d_86">
      <g>
       <use style="stroke:#000000;stroke-width:0.5;" x="267.750726746" xlink:href="#m5284c7e2a0" y="13.4563428218"/>
      </g>
     </g>
    </g>
    <g id="xtick_22">
     <g id="line2d_87">
      <g>
       <use style="stroke:#000000;stroke-width:0.5;" x="303.743448883" xlink:href="#m177f7580d0" y="359.056342822"/>
      </g>
     </g>
     <g id="line2d_88">
      <g>
       <use style="stroke:#000000;stroke-width:0.5;" x="303.743448883" xlink:href="#m5284c7e2a0" y="13.4563428218"/>
      </g>
     </g>
    </g>
    <g id="xtick_23">
     <g id="line2d_89">
      <g>
       <use style="stroke:#000000;stroke-width:0.5;" x="322.0197824" xlink:href="#m177f7580d0" y="359.056342822"/>
      </g>
     </g>
     <g id="line2d_90">
      <g>
       <use style="stroke:#000000;stroke-width:0.5;" x="322.0197824" xlink:href="#m5284c7e2a0" y="13.4563428218"/>
      </g>
     </g>
    </g>
    <g id="xtick_24">
     <g id="line2d_91">
      <g>
       <use style="stroke:#000000;stroke-width:0.5;" x="334.987047395" xlink:href="#m177f7580d0" y="359.056342822"/>
      </g>
     </g>
     <g id="line2d_92">
      <g>
       <use style="stroke:#000000;stroke-width:0.5;" x="334.987047395" xlink:href="#m5284c7e2a0" y="13.4563428218"/>
      </g>
     </g>
    </g>
    <g id="xtick_25">
     <g id="line2d_93">
      <g>
       <use style="stroke:#000000;stroke-width:0.5;" x="345.045239542" xlink:href="#m177f7580d0" y="359.056342822"/>
      </g>
     </g>
     <g id="line2d_94">
      <g>
       <use style="stroke:#000000;stroke-width:0.5;" x="345.045239542" xlink:href="#m5284c7e2a0" y="13.4563428218"/>
      </g>
     </g>
    </g>
    <g id="xtick_26">
     <g id="line2d_95">
      <g>
       <use style="stroke:#000000;stroke-width:0.5;" x="353.263380913" xlink:href="#m177f7580d0" y="359.056342822"/>
      </g>
     </g>
     <g id="line2d_96">
      <g>
       <use style="stroke:#000000;stroke-width:0.5;" x="353.263380913" xlink:href="#m5284c7e2a0" y="13.4563428218"/>
      </g>
     </g>
    </g>
    <g id="xtick_27">
     <g id="line2d_97">
      <g>
       <use style="stroke:#000000;stroke-width:0.5;" x="360.211720437" xlink:href="#m177f7580d0" y="359.056342822"/>
      </g>
     </g>
     <g id="line2d_98">
      <g>
       <use style="stroke:#000000;stroke-width:0.5;" x="360.211720437" xlink:href="#m5284c7e2a0" y="13.4563428218"/>
      </g>
     </g>
    </g>
    <g id="xtick_28">
     <g id="line2d_99">
      <g>
       <use style="stroke:#000000;stroke-width:0.5;" x="366.230645908" xlink:href="#m177f7580d0" y="359.056342822"/>
      </g>
     </g>
     <g id="line2d_100">
      <g>
       <use style="stroke:#000000;stroke-width:0.5;" x="366.230645908" xlink:href="#m5284c7e2a0" y="13.4563428218"/>
      </g>
     </g>
    </g>
    <g id="xtick_29">
     <g id="line2d_101">
      <g>
       <use style="stroke:#000000;stroke-width:0.5;" x="371.53971443" xlink:href="#m177f7580d0" y="359.056342822"/>
      </g>
     </g>
     <g id="line2d_102">
      <g>
       <use style="stroke:#000000;stroke-width:0.5;" x="371.53971443" xlink:href="#m5284c7e2a0" y="13.4563428218"/>
      </g>
     </g>
    </g>
    <g id="xtick_30">
     <g id="line2d_103">
      <g>
       <use style="stroke:#000000;stroke-width:0.5;" x="407.532436567" xlink:href="#m177f7580d0" y="359.056342822"/>
      </g>
     </g>
     <g id="line2d_104">
      <g>
       <use style="stroke:#000000;stroke-width:0.5;" x="407.532436567" xlink:href="#m5284c7e2a0" y="13.4563428218"/>
      </g>
     </g>
    </g>
    <g id="xtick_31">
     <g id="line2d_105">
      <g>
       <use style="stroke:#000000;stroke-width:0.5;" x="425.808770085" xlink:href="#m177f7580d0" y="359.056342822"/>
      </g>
     </g>
     <g id="line2d_106">
      <g>
       <use style="stroke:#000000;stroke-width:0.5;" x="425.808770085" xlink:href="#m5284c7e2a0" y="13.4563428218"/>
      </g>
     </g>
    </g>
    <g id="xtick_32">
     <g id="line2d_107">
      <g>
       <use style="stroke:#000000;stroke-width:0.5;" x="438.77603508" xlink:href="#m177f7580d0" y="359.056342822"/>
      </g>
     </g>
     <g id="line2d_108">
      <g>
       <use style="stroke:#000000;stroke-width:0.5;" x="438.77603508" xlink:href="#m5284c7e2a0" y="13.4563428218"/>
      </g>
     </g>
    </g>
    <g id="xtick_33">
     <g id="line2d_109">
      <g>
       <use style="stroke:#000000;stroke-width:0.5;" x="448.834227227" xlink:href="#m177f7580d0" y="359.056342822"/>
      </g>
     </g>
     <g id="line2d_110">
      <g>
       <use style="stroke:#000000;stroke-width:0.5;" x="448.834227227" xlink:href="#m5284c7e2a0" y="13.4563428218"/>
      </g>
     </g>
    </g>
    <g id="xtick_34">
     <g id="line2d_111">
      <g>
       <use style="stroke:#000000;stroke-width:0.5;" x="457.052368598" xlink:href="#m177f7580d0" y="359.056342822"/>
      </g>
     </g>
     <g id="line2d_112">
      <g>
       <use style="stroke:#000000;stroke-width:0.5;" x="457.052368598" xlink:href="#m5284c7e2a0" y="13.4563428218"/>
      </g>
     </g>
    </g>
    <g id="xtick_35">
     <g id="line2d_113">
      <g>
       <use style="stroke:#000000;stroke-width:0.5;" x="464.000708122" xlink:href="#m177f7580d0" y="359.056342822"/>
      </g>
     </g>
     <g id="line2d_114">
      <g>
       <use style="stroke:#000000;stroke-width:0.5;" x="464.000708122" xlink:href="#m5284c7e2a0" y="13.4563428218"/>
      </g>
     </g>
    </g>
    <g id="xtick_36">
     <g id="line2d_115">
      <g>
       <use style="stroke:#000000;stroke-width:0.5;" x="470.019633593" xlink:href="#m177f7580d0" y="359.056342822"/>
      </g>
     </g>
     <g id="line2d_116">
      <g>
       <use style="stroke:#000000;stroke-width:0.5;" x="470.019633593" xlink:href="#m5284c7e2a0" y="13.4563428218"/>
      </g>
     </g>
    </g>
    <g id="xtick_37">
     <g id="line2d_117">
      <g>
       <use style="stroke:#000000;stroke-width:0.5;" x="475.328702115" xlink:href="#m177f7580d0" y="359.056342822"/>
      </g>
     </g>
     <g id="line2d_118">
      <g>
       <use style="stroke:#000000;stroke-width:0.5;" x="475.328702115" xlink:href="#m5284c7e2a0" y="13.4563428218"/>
      </g>
     </g>
    </g>
    <g id="xtick_38">
     <g id="line2d_119">
      <g>
       <use style="stroke:#000000;stroke-width:0.5;" x="511.321424252" xlink:href="#m177f7580d0" y="359.056342822"/>
      </g>
     </g>
     <g id="line2d_120">
      <g>
       <use style="stroke:#000000;stroke-width:0.5;" x="511.321424252" xlink:href="#m5284c7e2a0" y="13.4563428218"/>
      </g>
     </g>
    </g>
    <g id="text_6">
     <!-- log10 of FEvals / DIM -->
     <defs>
      <path id="BitstreamVeraSans-Roman-20"/>
      <path d="
M9.8125 72.9062
L24.5156 72.9062
L43.1094 23.2969
L61.8125 72.9062
L76.5156 72.9062
L76.5156 0
L66.8906 0
L66.8906 64.0156
L48.0938 14.0156
L38.1875 14.0156
L19.3906 64.0156
L19.3906 0
L9.8125 0
z
" id="BitstreamVeraSans-Roman-4d"/>
      <path d="
M30.6094 48.3906
Q23.3906 48.3906 19.1875 42.75
Q14.9844 37.1094 14.9844 27.2969
Q14.9844 17.4844 19.1562 11.8438
Q23.3438 6.20312 30.6094 6.20312
Q37.7969 6.20312 41.9844 11.8594
Q46.1875 17.5312 46.1875 27.2969
Q46.1875 37.0156 41.9844 42.7031
Q37.7969 48.3906 30.6094 48.3906
M30.6094 56
Q42.3281 56 49.0156 48.375
Q55.7188 40.7656 55.7188 27.2969
Q55.7188 13.875 49.0156 6.21875
Q42.3281 -1.42188 30.6094 -1.42188
Q18.8438 -1.42188 12.1719 6.21875
Q5.51562 13.875 5.51562 27.2969
Q5.51562 40.7656 12.1719 48.375
Q18.8438 56 30.6094 56" id="BitstreamVeraSans-Roman-6f"/>
      <path d="
M9.42188 75.9844
L18.4062 75.9844
L18.4062 0
L9.42188 0
z
" id="BitstreamVeraSans-Roman-6c"/>
      <path d="
M9.8125 72.9062
L51.7031 72.9062
L51.7031 64.5938
L19.6719 64.5938
L19.6719 43.1094
L48.5781 43.1094
L48.5781 34.8125
L19.6719 34.8125
L19.6719 0
L9.8125 0
z
" id="BitstreamVeraSans-Roman-46"/>
      <path d="
M9.8125 72.9062
L55.9062 72.9062
L55.9062 64.5938
L19.6719 64.5938
L19.6719 43.0156
L54.3906 43.0156
L54.3906 34.7188
L19.6719 34.7188
L19.6719 8.29688
L56.7812 8.29688
L56.7812 0
L9.8125 0
z
" id="BitstreamVeraSans-Roman-45"/>
      <path d="
M19.6719 64.7969
L19.6719 8.10938
L31.5938 8.10938
Q46.6875 8.10938 53.6875 14.9375
Q60.6875 21.7812 60.6875 36.5312
Q60.6875 51.1719 53.6875 57.9844
Q46.6875 64.7969 31.5938 64.7969
z

M9.8125 72.9062
L30.0781 72.9062
Q51.2656 72.9062 61.1719 64.0938
Q71.0938 55.2812 71.0938 36.5312
Q71.0938 17.6719 61.125 8.82812
Q51.1719 0 30.0781 0
L9.8125 0
z
" id="BitstreamVeraSans-Roman-44"/>
      <path d="
M25.3906 72.9062
L33.6875 72.9062
L8.29688 -9.28125
L0 -9.28125
z
" id="BitstreamVeraSans-Roman-2f"/>
      <path d="
M2.98438 54.6875
L12.5 54.6875
L29.5938 8.79688
L46.6875 54.6875
L56.2031 54.6875
L35.6875 0
L23.4844 0
z
" id="BitstreamVeraSans-Roman-76"/>
      <path d="
M45.4062 27.9844
Q45.4062 37.75 41.375 43.1094
Q37.3594 48.4844 30.0781 48.4844
Q22.8594 48.4844 18.8281 43.1094
Q14.7969 37.75 14.7969 27.9844
Q14.7969 18.2656 18.8281 12.8906
Q22.8594 7.51562 30.0781 7.51562
Q37.3594 7.51562 41.375 12.8906
Q45.4062 18.2656 45.4062 27.9844
M54.3906 6.78125
Q54.3906 -7.17188 48.1875 -13.9844
Q42 -20.7969 29.2031 -20.7969
Q24.4688 -20.7969 20.2656 -20.0938
Q16.0625 -19.3906 12.1094 -17.9219
L12.1094 -9.1875
Q16.0625 -11.3281 19.9219 -12.3438
Q23.7812 -13.375 27.7812 -13.375
Q36.625 -13.375 41.0156 -8.76562
Q45.4062 -4.15625 45.4062 5.17188
L45.4062 9.625
Q42.625 4.78125 38.2812 2.39062
Q33.9375 0 27.875 0
Q17.8281 0 11.6719 7.65625
Q5.51562 15.3281 5.51562 27.9844
Q5.51562 40.6719 11.6719 48.3281
Q17.8281 56 27.875 56
Q33.9375 56 38.2812 53.6094
Q42.625 51.2188 45.4062 46.3906
L45.4062 54.6875
L54.3906 54.6875
z
" id="BitstreamVeraSans-Roman-67"/>
      <path d="
M37.1094 75.9844
L37.1094 68.5
L28.5156 68.5
Q23.6875 68.5 21.7969 66.5469
Q19.9219 64.5938 19.9219 59.5156
L19.9219 54.6875
L34.7188 54.6875
L34.7188 47.7031
L19.9219 47.7031
L19.9219 0
L10.8906 0
L10.8906 47.7031
L2.29688 47.7031
L2.29688 54.6875
L10.8906 54.6875
L10.8906 58.5
Q10.8906 67.625 15.1406 71.7969
Q19.3906 75.9844 28.6094 75.9844
z
" id="BitstreamVeraSans-Roman-66"/>
      <path d="
M34.2812 27.4844
Q23.3906 27.4844 19.1875 25
Q14.9844 22.5156 14.9844 16.5
Q14.9844 11.7188 18.1406 8.90625
Q21.2969 6.10938 26.7031 6.10938
Q34.1875 6.10938 38.7031 11.4062
Q43.2188 16.7031 43.2188 25.4844
L43.2188 27.4844
z

M52.2031 31.2031
L52.2031 0
L43.2188 0
L43.2188 8.29688
Q40.1406 3.32812 35.5469 0.953125
Q30.9531 -1.42188 24.3125 -1.42188
Q15.9219 -1.42188 10.9531 3.29688
Q6 8.01562 6 15.9219
Q6 25.1406 12.1719 29.8281
Q18.3594 34.5156 30.6094 34.5156
L43.2188 34.5156
L43.2188 35.4062
Q43.2188 41.6094 39.1406 45
Q35.0625 48.3906 27.6875 48.3906
Q23 48.3906 18.5469 47.2656
Q14.1094 46.1406 10.0156 43.8906
L10.0156 52.2031
Q14.9375 54.1094 19.5781 55.0469
Q24.2188 56 28.6094 56
Q40.4844 56 46.3438 49.8438
Q52.2031 43.7031 52.2031 31.2031" id="BitstreamVeraSans-Roman-61"/>
      <path d="
M44.2812 53.0781
L44.2812 44.5781
Q40.4844 46.5312 36.375 47.5
Q32.2812 48.4844 27.875 48.4844
Q21.1875 48.4844 17.8438 46.4375
Q14.5 44.3906 14.5 40.2812
Q14.5 37.1562 16.8906 35.375
Q19.2812 33.5938 26.5156 31.9844
L29.5938 31.2969
Q39.1562 29.25 43.1875 25.5156
Q47.2188 21.7812 47.2188 15.0938
Q47.2188 7.46875 41.1875 3.01562
Q35.1562 -1.42188 24.6094 -1.42188
Q20.2188 -1.42188 15.4531 -0.5625
Q10.6875 0.296875 5.42188 2
L5.42188 11.2812
Q10.4062 8.6875 15.2344 7.39062
Q20.0625 6.10938 24.8125 6.10938
Q31.1562 6.10938 34.5625 8.28125
Q37.9844 10.4531 37.9844 14.4062
Q37.9844 18.0625 35.5156 20.0156
Q33.0625 21.9688 24.7031 23.7812
L21.5781 24.5156
Q13.2344 26.2656 9.51562 29.9062
Q5.8125 33.5469 5.8125 39.8906
Q5.8125 47.6094 11.2812 51.7969
Q16.75 56 26.8125 56
Q31.7812 56 36.1719 55.2656
Q40.5781 54.5469 44.2812 53.0781" id="BitstreamVeraSans-Roman-73"/>
      <path d="
M9.8125 72.9062
L19.6719 72.9062
L19.6719 0
L9.8125 0
z
" id="BitstreamVeraSans-Roman-49"/>
     </defs>
     <g transform="translate(184.025 402.609467822)scale(0.2 -0.2)">
      <use xlink:href="#BitstreamVeraSans-Roman-6c"/>
      <use x="27.783203125" xlink:href="#BitstreamVeraSans-Roman-6f"/>
      <use x="88.96484375" xlink:href="#BitstreamVeraSans-Roman-67"/>
      <use x="152.44140625" xlink:href="#BitstreamVeraSans-Roman-31"/>
      <use x="216.064453125" xlink:href="#BitstreamVeraSans-Roman-30"/>
      <use x="279.6875" xlink:href="#BitstreamVeraSans-Roman-20"/>
      <use x="311.474609375" xlink:href="#BitstreamVeraSans-Roman-6f"/>
      <use x="372.65625" xlink:href="#BitstreamVeraSans-Roman-66"/>
      <use x="407.861328125" xlink:href="#BitstreamVeraSans-Roman-20"/>
      <use x="439.6484375" xlink:href="#BitstreamVeraSans-Roman-46"/>
      <use x="497.16796875" xlink:href="#BitstreamVeraSans-Roman-45"/>
      <use x="560.3515625" xlink:href="#BitstreamVeraSans-Roman-76"/>
      <use x="619.53125" xlink:href="#BitstreamVeraSans-Roman-61"/>
      <use x="680.810546875" xlink:href="#BitstreamVeraSans-Roman-6c"/>
      <use x="708.59375" xlink:href="#BitstreamVeraSans-Roman-73"/>
      <use x="760.693359375" xlink:href="#BitstreamVeraSans-Roman-20"/>
      <use x="792.48046875" xlink:href="#BitstreamVeraSans-Roman-2f"/>
      <use x="826.171875" xlink:href="#BitstreamVeraSans-Roman-20"/>
      <use x="857.958984375" xlink:href="#BitstreamVeraSans-Roman-44"/>
      <use x="934.9609375" xlink:href="#BitstreamVeraSans-Roman-49"/>
      <use x="964.453125" xlink:href="#BitstreamVeraSans-Roman-4d"/>
     </g>
    </g>
   </g>
   <g id="matplotlib.axis_2">
    <g id="ytick_1">
     <g id="line2d_121">
      <path clip-path="url(#p4b24e7e61f)" d="
M64.9219 359.056
L511.322 359.056" style="fill:none;stroke:#000000;stroke-dasharray:1.000000,3.000000;stroke-dashoffset:0.0;stroke-width:0.5;"/>
     </g>
     <g id="line2d_122">
      <defs>
       <path d="
M0 0
L4 0" id="m728421d6d4" style="stroke:#000000;stroke-width:0.5;"/>
      </defs>
      <g>
       <use style="stroke:#000000;stroke-width:0.5;" x="64.921875" xlink:href="#m728421d6d4" y="359.056342822"/>
      </g>
     </g>
     <g id="line2d_123">
      <defs>
       <path d="
M0 0
L-4 0" id="mcb0005524f" style="stroke:#000000;stroke-width:0.5;"/>
      </defs>
      <g>
       <use style="stroke:#000000;stroke-width:0.5;" x="511.321875" xlink:href="#mcb0005524f" y="359.056342822"/>
      </g>
     </g>
     <g id="text_7">
      <!-- 0.0 -->
      <defs>
       <path d="
M10.6875 12.4062
L21 12.4062
L21 0
L10.6875 0
z
" id="BitstreamVeraSans-Roman-2e"/>
      </defs>
      <g transform="translate(31.7625 364.575092822)scale(0.2 -0.2)">
       <use xlink:href="#BitstreamVeraSans-Roman-30"/>
       <use x="63.623046875" xlink:href="#BitstreamVeraSans-Roman-2e"/>
       <use x="95.41015625" xlink:href="#BitstreamVeraSans-Roman-30"/>
      </g>
     </g>
    </g>
    <g id="ytick_2">
     <g id="line2d_124">
      <path clip-path="url(#p4b24e7e61f)" d="
M64.9219 290.621
L511.322 290.621" style="fill:none;stroke:#000000;stroke-dasharray:1.000000,3.000000;stroke-dashoffset:0.0;stroke-width:0.5;"/>
     </g>
     <g id="line2d_125">
      <g>
       <use style="stroke:#000000;stroke-width:0.5;" x="64.921875" xlink:href="#m728421d6d4" y="290.620699257"/>
      </g>
     </g>
     <g id="line2d_126">
      <g>
       <use style="stroke:#000000;stroke-width:0.5;" x="511.321875" xlink:href="#mcb0005524f" y="290.620699257"/>
      </g>
     </g>
     <g id="text_8">
      <!-- 0.2 -->
      <g transform="translate(32.4375 296.139449257)scale(0.2 -0.2)">
       <use xlink:href="#BitstreamVeraSans-Roman-30"/>
       <use x="63.623046875" xlink:href="#BitstreamVeraSans-Roman-2e"/>
       <use x="95.41015625" xlink:href="#BitstreamVeraSans-Roman-32"/>
      </g>
     </g>
    </g>
    <g id="ytick_3">
     <g id="line2d_127">
      <path clip-path="url(#p4b24e7e61f)" d="
M64.9219 222.185
L511.322 222.185" style="fill:none;stroke:#000000;stroke-dasharray:1.000000,3.000000;stroke-dashoffset:0.0;stroke-width:0.5;"/>
     </g>
     <g id="line2d_128">
      <g>
       <use style="stroke:#000000;stroke-width:0.5;" x="64.921875" xlink:href="#m728421d6d4" y="222.185055693"/>
      </g>
     </g>
     <g id="line2d_129">
      <g>
       <use style="stroke:#000000;stroke-width:0.5;" x="511.321875" xlink:href="#mcb0005524f" y="222.185055693"/>
      </g>
     </g>
     <g id="text_9">
      <!-- 0.4 -->
      <g transform="translate(31.55625 227.703805693)scale(0.2 -0.2)">
       <use xlink:href="#BitstreamVeraSans-Roman-30"/>
       <use x="63.623046875" xlink:href="#BitstreamVeraSans-Roman-2e"/>
       <use x="95.41015625" xlink:href="#BitstreamVeraSans-Roman-34"/>
      </g>
     </g>
    </g>
    <g id="ytick_4">
     <g id="line2d_130">
      <path clip-path="url(#p4b24e7e61f)" d="
M64.9219 153.749
L511.322 153.749" style="fill:none;stroke:#000000;stroke-dasharray:1.000000,3.000000;stroke-dashoffset:0.0;stroke-width:0.5;"/>
     </g>
     <g id="line2d_131">
      <g>
       <use style="stroke:#000000;stroke-width:0.5;" x="64.921875" xlink:href="#m728421d6d4" y="153.749412129"/>
      </g>
     </g>
     <g id="line2d_132">
      <g>
       <use style="stroke:#000000;stroke-width:0.5;" x="511.321875" xlink:href="#mcb0005524f" y="153.749412129"/>
      </g>
     </g>
     <g id="text_10">
      <!-- 0.6 -->
      <defs>
       <path d="
M33.0156 40.375
Q26.375 40.375 22.4844 35.8281
Q18.6094 31.2969 18.6094 23.3906
Q18.6094 15.5312 22.4844 10.9531
Q26.375 6.39062 33.0156 6.39062
Q39.6562 6.39062 43.5312 10.9531
Q47.4062 15.5312 47.4062 23.3906
Q47.4062 31.2969 43.5312 35.8281
Q39.6562 40.375 33.0156 40.375
M52.5938 71.2969
L52.5938 62.3125
Q48.875 64.0625 45.0938 64.9844
Q41.3125 65.9219 37.5938 65.9219
Q27.8281 65.9219 22.6719 59.3281
Q17.5312 52.7344 16.7969 39.4062
Q19.6719 43.6562 24.0156 45.9219
Q28.375 48.1875 33.5938 48.1875
Q44.5781 48.1875 50.9531 41.5156
Q57.3281 34.8594 57.3281 23.3906
Q57.3281 12.1562 50.6875 5.35938
Q44.0469 -1.42188 33.0156 -1.42188
Q20.3594 -1.42188 13.6719 8.26562
Q6.98438 17.9688 6.98438 36.375
Q6.98438 53.6562 15.1875 63.9375
Q23.3906 74.2188 37.2031 74.2188
Q40.9219 74.2188 44.7031 73.4844
Q48.4844 72.75 52.5938 71.2969" id="BitstreamVeraSans-Roman-36"/>
      </defs>
      <g transform="translate(31.69375 159.268162129)scale(0.2 -0.2)">
       <use xlink:href="#BitstreamVeraSans-Roman-30"/>
       <use x="63.623046875" xlink:href="#BitstreamVeraSans-Roman-2e"/>
       <use x="95.41015625" xlink:href="#BitstreamVeraSans-Roman-36"/>
      </g>
     </g>
    </g>
    <g id="ytick_5">
     <g id="line2d_133">
      <path clip-path="url(#p4b24e7e61f)" d="
M64.9219 85.3138
L511.322 85.3138" style="fill:none;stroke:#000000;stroke-dasharray:1.000000,3.000000;stroke-dashoffset:0.0;stroke-width:0.5;"/>
     </g>
     <g id="line2d_134">
      <g>
       <use style="stroke:#000000;stroke-width:0.5;" x="64.921875" xlink:href="#m728421d6d4" y="85.3137685644"/>
      </g>
     </g>
     <g id="line2d_135">
      <g>
       <use style="stroke:#000000;stroke-width:0.5;" x="511.321875" xlink:href="#mcb0005524f" y="85.3137685644"/>
      </g>
     </g>
     <g id="text_11">
      <!-- 0.8 -->
      <defs>
       <path d="
M31.7812 34.625
Q24.75 34.625 20.7188 30.8594
Q16.7031 27.0938 16.7031 20.5156
Q16.7031 13.9219 20.7188 10.1562
Q24.75 6.39062 31.7812 6.39062
Q38.8125 6.39062 42.8594 10.1719
Q46.9219 13.9688 46.9219 20.5156
Q46.9219 27.0938 42.8906 30.8594
Q38.875 34.625 31.7812 34.625
M21.9219 38.8125
Q15.5781 40.375 12.0312 44.7188
Q8.5 49.0781 8.5 55.3281
Q8.5 64.0625 14.7188 69.1406
Q20.9531 74.2188 31.7812 74.2188
Q42.6719 74.2188 48.875 69.1406
Q55.0781 64.0625 55.0781 55.3281
Q55.0781 49.0781 51.5312 44.7188
Q48 40.375 41.7031 38.8125
Q48.8281 37.1562 52.7969 32.3125
Q56.7812 27.4844 56.7812 20.5156
Q56.7812 9.90625 50.3125 4.23438
Q43.8438 -1.42188 31.7812 -1.42188
Q19.7344 -1.42188 13.25 4.23438
Q6.78125 9.90625 6.78125 20.5156
Q6.78125 27.4844 10.7812 32.3125
Q14.7969 37.1562 21.9219 38.8125
M18.3125 54.3906
Q18.3125 48.7344 21.8438 45.5625
Q25.3906 42.3906 31.7812 42.3906
Q38.1406 42.3906 41.7188 45.5625
Q45.3125 48.7344 45.3125 54.3906
Q45.3125 60.0625 41.7188 63.2344
Q38.1406 66.4062 31.7812 66.4062
Q25.3906 66.4062 21.8438 63.2344
Q18.3125 60.0625 18.3125 54.3906" id="BitstreamVeraSans-Roman-38"/>
      </defs>
      <g transform="translate(31.803125 90.8325185644)scale(0.2 -0.2)">
       <use xlink:href="#BitstreamVeraSans-Roman-30"/>
       <use x="63.623046875" xlink:href="#BitstreamVeraSans-Roman-2e"/>
       <use x="95.41015625" xlink:href="#BitstreamVeraSans-Roman-38"/>
      </g>
     </g>
    </g>
    <g id="ytick_6">
     <g id="line2d_136">
      <path clip-path="url(#p4b24e7e61f)" d="
M64.9219 16.8781
L511.322 16.8781" style="fill:none;stroke:#000000;stroke-dasharray:1.000000,3.000000;stroke-dashoffset:0.0;stroke-width:0.5;"/>
     </g>
     <g id="line2d_137">
      <g>
       <use style="stroke:#000000;stroke-width:0.5;" x="64.921875" xlink:href="#m728421d6d4" y="16.878125"/>
      </g>
     </g>
     <g id="line2d_138">
      <g>
       <use style="stroke:#000000;stroke-width:0.5;" x="511.321875" xlink:href="#mcb0005524f" y="16.878125"/>
      </g>
     </g>
     <g id="text_12">
      <!-- 1.0 -->
      <g transform="translate(32.640625 22.396875)scale(0.2 -0.2)">
       <use xlink:href="#BitstreamVeraSans-Roman-31"/>
       <use x="63.623046875" xlink:href="#BitstreamVeraSans-Roman-2e"/>
       <use x="95.41015625" xlink:href="#BitstreamVeraSans-Roman-30"/>
      </g>
     </g>
    </g>
    <g id="text_13">
     <!-- proportion of trials -->
     <defs>
      <path d="
M54.8906 33.0156
L54.8906 0
L45.9062 0
L45.9062 32.7188
Q45.9062 40.4844 42.875 44.3281
Q39.8438 48.1875 33.7969 48.1875
Q26.5156 48.1875 22.3125 43.5469
Q18.1094 38.9219 18.1094 30.9062
L18.1094 0
L9.07812 0
L9.07812 54.6875
L18.1094 54.6875
L18.1094 46.1875
Q21.3438 51.125 25.7031 53.5625
Q30.0781 56 35.7969 56
Q45.2188 56 50.0469 50.1719
Q54.8906 44.3438 54.8906 33.0156" id="BitstreamVeraSans-Roman-6e"/>
      <path d="
M9.42188 54.6875
L18.4062 54.6875
L18.4062 0
L9.42188 0
z

M9.42188 75.9844
L18.4062 75.9844
L18.4062 64.5938
L9.42188 64.5938
z
" id="BitstreamVeraSans-Roman-69"/>
      <path d="
M18.3125 70.2188
L18.3125 54.6875
L36.8125 54.6875
L36.8125 47.7031
L18.3125 47.7031
L18.3125 18.0156
Q18.3125 11.3281 20.1406 9.42188
Q21.9688 7.51562 27.5938 7.51562
L36.8125 7.51562
L36.8125 0
L27.5938 0
Q17.1875 0 13.2344 3.875
Q9.28125 7.76562 9.28125 18.0156
L9.28125 47.7031
L2.6875 47.7031
L2.6875 54.6875
L9.28125 54.6875
L9.28125 70.2188
z
" id="BitstreamVeraSans-Roman-74"/>
      <path d="
M41.1094 46.2969
Q39.5938 47.1719 37.8125 47.5781
Q36.0312 48 33.8906 48
Q26.2656 48 22.1875 43.0469
Q18.1094 38.0938 18.1094 28.8125
L18.1094 0
L9.07812 0
L9.07812 54.6875
L18.1094 54.6875
L18.1094 46.1875
Q20.9531 51.1719 25.4844 53.5781
Q30.0312 56 36.5312 56
Q37.4531 56 38.5781 55.875
Q39.7031 55.7656 41.0625 55.5156
z
" id="BitstreamVeraSans-Roman-72"/>
      <path d="
M18.1094 8.20312
L18.1094 -20.7969
L9.07812 -20.7969
L9.07812 54.6875
L18.1094 54.6875
L18.1094 46.3906
Q20.9531 51.2656 25.2656 53.625
Q29.5938 56 35.5938 56
Q45.5625 56 51.7812 48.0938
Q58.0156 40.1875 58.0156 27.2969
Q58.0156 14.4062 51.7812 6.48438
Q45.5625 -1.42188 35.5938 -1.42188
Q29.5938 -1.42188 25.2656 0.953125
Q20.9531 3.32812 18.1094 8.20312
M48.6875 27.2969
Q48.6875 37.2031 44.6094 42.8438
Q40.5312 48.4844 33.4062 48.4844
Q26.2656 48.4844 22.1875 42.8438
Q18.1094 37.2031 18.1094 27.2969
Q18.1094 17.3906 22.1875 11.75
Q26.2656 6.10938 33.4062 6.10938
Q40.5312 6.10938 44.6094 11.75
Q48.6875 17.3906 48.6875 27.2969" id="BitstreamVeraSans-Roman-70"/>
     </defs>
     <g transform="translate(22.396875 278.775092822)rotate(-90.0)scale(0.2 -0.2)">
      <use xlink:href="#BitstreamVeraSans-Roman-70"/>
      <use x="63.4765625" xlink:href="#BitstreamVeraSans-Roman-72"/>
      <use x="102.33984375" xlink:href="#BitstreamVeraSans-Roman-6f"/>
      <use x="163.521484375" xlink:href="#BitstreamVeraSans-Roman-70"/>
      <use x="226.998046875" xlink:href="#BitstreamVeraSans-Roman-6f"/>
      <use x="288.1796875" xlink:href="#BitstreamVeraSans-Roman-72"/>
      <use x="329.29296875" xlink:href="#BitstreamVeraSans-Roman-74"/>
      <use x="368.501953125" xlink:href="#BitstreamVeraSans-Roman-69"/>
      <use x="396.28515625" xlink:href="#BitstreamVeraSans-Roman-6f"/>
      <use x="457.466796875" xlink:href="#BitstreamVeraSans-Roman-6e"/>
      <use x="520.845703125" xlink:href="#BitstreamVeraSans-Roman-20"/>
      <use x="552.6328125" xlink:href="#BitstreamVeraSans-Roman-6f"/>
      <use x="613.814453125" xlink:href="#BitstreamVeraSans-Roman-66"/>
      <use x="649.01953125" xlink:href="#BitstreamVeraSans-Roman-20"/>
      <use x="680.806640625" xlink:href="#BitstreamVeraSans-Roman-74"/>
      <use x="720.015625" xlink:href="#BitstreamVeraSans-Roman-72"/>
      <use x="761.12890625" xlink:href="#BitstreamVeraSans-Roman-69"/>
      <use x="788.912109375" xlink:href="#BitstreamVeraSans-Roman-61"/>
      <use x="850.19140625" xlink:href="#BitstreamVeraSans-Roman-6c"/>
      <use x="877.974609375" xlink:href="#BitstreamVeraSans-Roman-73"/>
     </g>
    </g>
   </g>
   <g id="patch_3">
    <path d="
M64.9219 13.4563
L511.322 13.4563" style="fill:none;stroke:#000000;"/>
   </g>
   <g id="patch_4">
    <path d="
M511.322 359.056
L511.322 13.4563" style="fill:none;stroke:#000000;"/>
   </g>
   <g id="patch_5">
    <path d="
M64.9219 359.056
L511.322 359.056" style="fill:none;stroke:#000000;"/>
   </g>
   <g id="patch_6">
    <path d="
M64.9219 359.056
L64.9219 13.4563" style="fill:none;stroke:#000000;"/>
   </g>
   <g id="text_14">
    <!-- {f10-f14}, 5-D -->
    <defs>
     <path d="
M11.7188 12.4062
L22.0156 12.4062
L22.0156 4
L14.0156 -11.625
L7.71875 -11.625
L11.7188 4
z
" id="BitstreamVeraSans-Roman-2c"/>
     <path d="
M12.5 -9.28125
L15.9219 -9.28125
Q22.75 -9.28125 24.8281 -7.17188
Q26.9062 -5.07812 26.9062 1.90625
L26.9062 14.0156
Q26.9062 21.625 29.0938 25.0938
Q31.2969 28.5625 36.7188 29.8906
Q31.2969 31.1094 29.0938 34.5625
Q26.9062 38.0312 26.9062 45.7031
L26.9062 57.8125
Q26.9062 64.75 24.8281 66.875
Q22.75 69 15.9219 69
L12.5 69
L12.5 75.9844
L15.5781 75.9844
Q27.7344 75.9844 31.8125 72.3906
Q35.8906 68.7969 35.8906 58.0156
L35.8906 46.2969
Q35.8906 39.0156 38.5156 36.2031
Q41.1562 33.4062 48.0938 33.4062
L51.125 33.4062
L51.125 26.4219
L48.0938 26.4219
Q41.1562 26.4219 38.5156 23.5781
Q35.8906 20.75 35.8906 13.375
L35.8906 1.70312
Q35.8906 -9.07812 31.8125 -12.6875
Q27.7344 -16.3125 15.5781 -16.3125
L12.5 -16.3125
z
" id="BitstreamVeraSans-Roman-7d"/>
     <path d="
M51.125 -9.28125
L51.125 -16.3125
L48.0938 -16.3125
Q35.9375 -16.3125 31.8125 -12.6875
Q27.6875 -9.07812 27.6875 1.70312
L27.6875 13.375
Q27.6875 20.75 25.0469 23.5781
Q22.4062 26.4219 15.4844 26.4219
L12.5 26.4219
L12.5 33.4062
L15.4844 33.4062
Q22.4688 33.4062 25.0781 36.2031
Q27.6875 39.0156 27.6875 46.2969
L27.6875 58.0156
Q27.6875 68.7969 31.8125 72.3906
Q35.9375 75.9844 48.0938 75.9844
L51.125 75.9844
L51.125 69
L47.7969 69
Q40.9219 69 38.8125 66.8438
Q36.7188 64.7031 36.7188 57.8125
L36.7188 45.7031
Q36.7188 38.0312 34.5 34.5625
Q32.2812 31.1094 26.9062 29.8906
Q32.3281 28.5625 34.5156 25.0938
Q36.7188 21.625 36.7188 14.0156
L36.7188 1.90625
Q36.7188 -4.98438 38.8125 -7.125
Q40.9219 -9.28125 47.7969 -9.28125
z
" id="BitstreamVeraSans-Roman-7b"/>
     <path d="
M4.89062 31.3906
L31.2031 31.3906
L31.2031 23.3906
L4.89062 23.3906
z
" id="BitstreamVeraSans-Roman-2d"/>
     <path d="
M10.7969 72.9062
L49.5156 72.9062
L49.5156 64.5938
L19.8281 64.5938
L19.8281 46.7344
Q21.9688 47.4688 24.1094 47.8281
Q26.2656 48.1875 28.4219 48.1875
Q40.625 48.1875 47.75 41.5
Q54.8906 34.8125 54.8906 23.3906
Q54.8906 11.625 47.5625 5.09375
Q40.2344 -1.42188 26.9062 -1.42188
Q22.3125 -1.42188 17.5469 -0.640625
Q12.7969 0.140625 7.71875 1.70312
L7.71875 11.625
Q12.1094 9.23438 16.7969 8.0625
Q21.4844 6.89062 26.7031 6.89062
Q35.1562 6.89062 40.0781 11.3281
Q45.0156 15.7656 45.0156 23.3906
Q45.0156 31 40.0781 35.4375
Q35.1562 39.8906 26.7031 39.8906
Q22.75 39.8906 18.8125 39.0156
Q14.8906 38.1406 10.7969 36.2812
z
" id="BitstreamVeraSans-Roman-35"/>
    </defs>
    <g transform="translate(215.8625 35.5652178218)scale(0.2 -0.2)">
     <use xlink:href="#BitstreamVeraSans-Roman-7b"/>
     <use x="63.623046875" xlink:href="#BitstreamVeraSans-Roman-66"/>
     <use x="98.828125" xlink:href="#BitstreamVeraSans-Roman-31"/>
     <use x="162.451171875" xlink:href="#BitstreamVeraSans-Roman-30"/>
     <use x="226.07421875" xlink:href="#BitstreamVeraSans-Roman-2d"/>
     <use x="262.158203125" xlink:href="#BitstreamVeraSans-Roman-66"/>
     <use x="297.36328125" xlink:href="#BitstreamVeraSans-Roman-31"/>
     <use x="360.986328125" xlink:href="#BitstreamVeraSans-Roman-34"/>
     <use x="424.609375" xlink:href="#BitstreamVeraSans-Roman-7d"/>
     <use x="488.232421875" xlink:href="#BitstreamVeraSans-Roman-2c"/>
     <use x="520.01953125" xlink:href="#BitstreamVeraSans-Roman-20"/>
     <use x="551.806640625" xlink:href="#BitstreamVeraSans-Roman-35"/>
     <use x="615.4296875" xlink:href="#BitstreamVeraSans-Roman-2d"/>
     <use x="651.513671875" xlink:href="#BitstreamVeraSans-Roman-44"/>
    </g>
   </g>
   <g id="text_15">
    <!-- absolute targets -->
    <defs>
     <path d="
M56.2031 29.5938
L56.2031 25.2031
L14.8906 25.2031
Q15.4844 15.9219 20.4844 11.0625
Q25.4844 6.20312 34.4219 6.20312
Q39.5938 6.20312 44.4531 7.46875
Q49.3125 8.73438 54.1094 11.2812
L54.1094 2.78125
Q49.2656 0.734375 44.1875 -0.34375
Q39.1094 -1.42188 33.8906 -1.42188
Q20.7969 -1.42188 13.1562 6.1875
Q5.51562 13.8125 5.51562 26.8125
Q5.51562 40.2344 12.7656 48.1094
Q20.0156 56 32.3281 56
Q43.3594 56 49.7812 48.8906
Q56.2031 41.7969 56.2031 29.5938
M47.2188 32.2344
Q47.125 39.5938 43.0938 43.9844
Q39.0625 48.3906 32.4219 48.3906
Q24.9062 48.3906 20.3906 44.1406
Q15.875 39.8906 15.1875 32.1719
z
" id="BitstreamVeraSans-Roman-65"/>
     <path d="
M8.5 21.5781
L8.5 54.6875
L17.4844 54.6875
L17.4844 21.9219
Q17.4844 14.1562 20.5 10.2656
Q23.5312 6.39062 29.5938 6.39062
Q36.8594 6.39062 41.0781 11.0312
Q45.3125 15.6719 45.3125 23.6875
L45.3125 54.6875
L54.2969 54.6875
L54.2969 0
L45.3125 0
L45.3125 8.40625
Q42.0469 3.42188 37.7188 1
Q33.4062 -1.42188 27.6875 -1.42188
Q18.2656 -1.42188 13.375 4.4375
Q8.5 10.2969 8.5 21.5781" id="BitstreamVeraSans-Roman-75"/>
     <path d="
M48.6875 27.2969
Q48.6875 37.2031 44.6094 42.8438
Q40.5312 48.4844 33.4062 48.4844
Q26.2656 48.4844 22.1875 42.8438
Q18.1094 37.2031 18.1094 27.2969
Q18.1094 17.3906 22.1875 11.75
Q26.2656 6.10938 33.4062 6.10938
Q40.5312 6.10938 44.6094 11.75
Q48.6875 17.3906 48.6875 27.2969
M18.1094 46.3906
Q20.9531 51.2656 25.2656 53.625
Q29.5938 56 35.5938 56
Q45.5625 56 51.7812 48.0938
Q58.0156 40.1875 58.0156 27.2969
Q58.0156 14.4062 51.7812 6.48438
Q45.5625 -1.42188 35.5938 -1.42188
Q29.5938 -1.42188 25.2656 0.953125
Q20.9531 3.32812 18.1094 8.20312
L18.1094 0
L9.07812 0
L9.07812 75.9844
L18.1094 75.9844
z
" id="BitstreamVeraSans-Roman-62"/>
    </defs>
    <g transform="translate(64.921875 359.056342822)scale(0.14 -0.14)">
     <use xlink:href="#BitstreamVeraSans-Roman-61"/>
     <use x="61.279296875" xlink:href="#BitstreamVeraSans-Roman-62"/>
     <use x="124.755859375" xlink:href="#BitstreamVeraSans-Roman-73"/>
     <use x="176.85546875" xlink:href="#BitstreamVeraSans-Roman-6f"/>
     <use x="238.037109375" xlink:href="#BitstreamVeraSans-Roman-6c"/>
     <use x="265.8203125" xlink:href="#BitstreamVeraSans-Roman-75"/>
     <use x="329.19921875" xlink:href="#BitstreamVeraSans-Roman-74"/>
     <use x="368.408203125" xlink:href="#BitstreamVeraSans-Roman-65"/>
     <use x="429.931640625" xlink:href="#BitstreamVeraSans-Roman-20"/>
     <use x="461.71875" xlink:href="#BitstreamVeraSans-Roman-74"/>
     <use x="500.927734375" xlink:href="#BitstreamVeraSans-Roman-61"/>
     <use x="562.20703125" xlink:href="#BitstreamVeraSans-Roman-72"/>
     <use x="601.5703125" xlink:href="#BitstreamVeraSans-Roman-67"/>
     <use x="665.046875" xlink:href="#BitstreamVeraSans-Roman-65"/>
     <use x="726.5703125" xlink:href="#BitstreamVeraSans-Roman-74"/>
     <use x="765.779296875" xlink:href="#BitstreamVeraSans-Roman-73"/>
    </g>
   </g>
   <g id="text_16">
    <!-- 0.0.0 -->
    <g style="fill:#808080;" transform="translate(276.06171875 353.520655322)scale(0.1 -0.1)">
     <use xlink:href="#BitstreamVeraSans-Roman-30"/>
     <use x="63.623046875" xlink:href="#BitstreamVeraSans-Roman-2e"/>
     <use x="95.41015625" xlink:href="#BitstreamVeraSans-Roman-30"/>
     <use x="159.033203125" xlink:href="#BitstreamVeraSans-Roman-2e"/>
     <use x="190.8203125" xlink:href="#BitstreamVeraSans-Roman-30"/>
    </g>
   </g>
   <g id="legend_1">
    <g id="patch_7">
     <path d="
M74.9219 146.881
L210.397 146.881
L210.397 23.4563
L74.9219 23.4563
L74.9219 146.881
z
" style="fill:#ffffff;opacity:0.2;stroke:#000000;"/>
    </g>
    <g id="line2d_139">
     <path d="
M88.9219 39.6532
L116.922 39.6532" style="fill:none;stroke:#000000;stroke-linecap:square;"/>
    </g>
    <g id="line2d_140"/>
    <g id="text_17">
     <!-- 1: 5/5 -->
     <defs>
      <path d="
M11.7188 12.4062
L22.0156 12.4062
L22.0156 0
L11.7188 0
z

M11.7188 51.7031
L22.0156 51.7031
L22.0156 39.3125
L11.7188 39.3125
z
" id="BitstreamVeraSans-Roman-3a"/>
     </defs>
     <g transform="translate(138.921875 46.6532178218)scale(0.2 -0.2)">
      <use xlink:href="#BitstreamVeraSans-Roman-31"/>
      <use x="63.623046875" xlink:href="#BitstreamVeraSans-Roman-3a"/>
      <use x="97.314453125" xlink:href="#BitstreamVeraSans-Roman-20"/>
      <use x="129.1015625" xlink:href="#BitstreamVeraSans-Roman-35"/>
      <use x="192.724609375" xlink:href="#BitstreamVeraSans-Roman-2f"/>
      <use x="226.416015625" xlink:href="#BitstreamVeraSans-Roman-35"/>
     </g>
    </g>
    <g id="line2d_141">
     <path d="
M88.9219 69.0095
L116.922 69.0095" style="fill:none;stroke:#00bfbf;stroke-linecap:square;"/>
    </g>
    <g id="line2d_142"/>
    <g id="text_18">
     <!-- -1: 5/5 -->
     <g transform="translate(138.921875 76.0094678218)scale(0.2 -0.2)">
      <use xlink:href="#BitstreamVeraSans-Roman-2d"/>
      <use x="36.083984375" xlink:href="#BitstreamVeraSans-Roman-31"/>
      <use x="99.70703125" xlink:href="#BitstreamVeraSans-Roman-3a"/>
      <use x="133.3984375" xlink:href="#BitstreamVeraSans-Roman-20"/>
      <use x="165.185546875" xlink:href="#BitstreamVeraSans-Roman-35"/>
      <use x="228.80859375" xlink:href="#BitstreamVeraSans-Roman-2f"/>
      <use x="262.5" xlink:href="#BitstreamVeraSans-Roman-35"/>
     </g>
    </g>
    <g id="line2d_143">
     <path d="
M88.9219 98.3657
L116.922 98.3657" style="fill:none;stroke:#bf00bf;stroke-linecap:square;"/>
    </g>
    <g id="line2d_144"/>
    <g id="text_19">
     <!-- -4: 4/5 -->
     <g transform="translate(138.921875 105.365717822)scale(0.2 -0.2)">
      <use xlink:href="#BitstreamVeraSans-Roman-2d"/>
      <use x="36.083984375" xlink:href="#BitstreamVeraSans-Roman-34"/>
      <use x="99.70703125" xlink:href="#BitstreamVeraSans-Roman-3a"/>
      <use x="133.3984375" xlink:href="#BitstreamVeraSans-Roman-20"/>
      <use x="165.185546875" xlink:href="#BitstreamVeraSans-Roman-34"/>
      <use x="228.80859375" xlink:href="#BitstreamVeraSans-Roman-2f"/>
      <use x="262.5" xlink:href="#BitstreamVeraSans-Roman-35"/>
     </g>
    </g>
    <g id="line2d_145">
     <path d="
M88.9219 127.722
L116.922 127.722" style="fill:none;stroke:#ff0000;stroke-linecap:square;stroke-width:3.0;"/>
    </g>
    <g id="line2d_146"/>
    <g id="text_20">
     <!-- -8: 4/5 -->
     <g transform="translate(138.921875 134.721967822)scale(0.2 -0.2)">
      <use xlink:href="#BitstreamVeraSans-Roman-2d"/>
      <use x="36.083984375" xlink:href="#BitstreamVeraSans-Roman-38"/>
      <use x="99.70703125" xlink:href="#BitstreamVeraSans-Roman-3a"/>
      <use x="133.3984375" xlink:href="#BitstreamVeraSans-Roman-20"/>
      <use x="165.185546875" xlink:href="#BitstreamVeraSans-Roman-34"/>
      <use x="228.80859375" xlink:href="#BitstreamVeraSans-Roman-2f"/>
      <use x="262.5" xlink:href="#BitstreamVeraSans-Roman-35"/>
     </g>
    </g>
   </g>
  </g>
 </g>
 <defs>
  <clipPath id="p4b24e7e61f">
   <rect height="345.6" width="446.4" x="64.921875" y="13.4563428218"/>
  </clipPath>
 </defs>
</svg>
