<?xml version="1.0" encoding="utf-8" standalone="no"?>
<!DOCTYPE svg PUBLIC "-//W3C//DTD SVG 1.1//EN"
  "http://www.w3.org/Graphics/SVG/1.1/DTD/svg11.dtd">
<!-- Created with matplotlib (http://matplotlib.org/) -->
<svg height="413pt" version="1.1" viewBox="0 0 518 413" width="518pt" xmlns="http://www.w3.org/2000/svg" xmlns:xlink="http://www.w3.org/1999/xlink">
 <defs>
  <style type="text/css">
*{stroke-linecap:butt;stroke-linejoin:round;}
  </style>
 </defs>
 <g id="figure_1">
  <g id="patch_1">
   <path d="
M0 413.969
L518.522 413.969
L518.522 0
L0 0
z
" style="fill:#ffffff;"/>
  </g>
  <g id="axes_1">
   <g id="patch_2">
    <path d="
M64.9219 359.056
L511.322 359.056
L511.322 13.4563
L64.9219 13.4563
z
" style="fill:#ffffff;"/>
   </g>
   <g id="line2d_1">
    <path clip-path="url(#p4b24e7e61f)" d="
M262.442 359.056
L262.442 354.494
L266.635 354.494
L266.635 349.932
L267.951 349.932
L267.951 345.369
L269.519 345.369
L269.519 340.807
L269.711 340.807
L269.711 336.244
L270.093 336.244
L270.093 331.682
L275.296 331.682
L275.296 327.12
L277.608 327.12
L277.608 322.557
L280.718 322.557
L280.718 317.995
L285.286 317.995
L285.286 313.433
L286.558 313.433
L286.558 308.87
L294.245 308.87
L294.245 304.308
L303.062 304.308
L303.062 299.745
L309.252 299.745
L309.252 295.183
L310.161 295.183
L310.161 290.621
L311.013 290.621
L311.013 286.058
L311.886 286.058
L311.886 281.496
L312.224 281.496
L312.224 276.934
L315.5 276.934
L315.5 272.371
L316.564 272.371
L316.564 267.809
L332.006 267.809
L332.006 263.246
L333.17 263.246
L333.17 258.684
L334.602 258.684
L334.602 254.122
L337.635 254.122
L337.635 249.559
L348.498 249.559
L348.498 244.997
L353.323 244.997
L353.323 240.435
L357.01 240.435
L357.01 235.872
L370.537 235.872
L370.537 231.31
L370.537 231.31
L370.537 231.31
L511.322 231.31" style="fill:none;stroke:#f5deb3;stroke-linecap:square;"/>
   </g>
   <g id="line2d_2">
    <path clip-path="url(#p4b24e7e61f)" d="
M350.49 359.056
L350.49 345.369
L371.64 345.369
L371.64 331.682
L387.43 331.682
L387.43 317.995
L438.026 317.995
L438.026 304.308
L474.761 304.308
L474.761 290.621
L474.761 290.621
L474.761 290.621
L511.322 290.621" style="fill:none;stroke:#f5deb3;stroke-linecap:square;"/>
   </g>
   <g id="line2d_3">
    <path clip-path="url(#p4b24e7e61f)" d="
M217.929 359.056
L217.929 354.494
L223.339 354.494
L223.339 349.932
L265.911 349.932
L265.911 345.369
L267.65 345.369
L267.65 340.807
L270.283 340.807
L270.283 336.244
L277.929 336.244
L277.929 331.682
L282.558 331.682
L282.558 327.12
L286.558 327.12
L286.558 322.557
L289.927 322.557
L289.927 317.995
L290.475 317.995
L290.475 313.433
L295.561 313.433
L295.561 308.87
L298.084 308.87
L298.084 304.308
L305.511 304.308
L305.511 299.745
L307.669 299.745
L307.669 295.183
L315.57 295.183
L315.57 290.621
L325.013 290.621
L325.013 286.058
L335.189 286.058
L335.189 281.496
L347.774 281.496
L347.774 276.934
L348.531 276.934
L348.531 272.371
L350.92 272.371
L350.92 267.809
L355.405 267.809
L355.405 263.246
L360.327 263.246
L360.327 258.684
L361.369 258.684
L361.369 254.122
L376.675 254.122
L376.675 249.559
L380.618 249.559
L380.618 244.997
L415.248 244.997
L415.248 240.435
L418 240.435
L418 235.872
L418.663 235.872
L418.663 231.31
L430.888 231.31
L430.888 226.747
L449.993 226.747
L449.993 222.185
L449.993 222.185
L449.993 222.185
L511.322 222.185" style="fill:none;stroke:#f5deb3;stroke-linecap:square;"/>
   </g>
   <g id="line2d_4">
    <path clip-path="url(#p4b24e7e61f)" d="
M252.804 359.056
L252.804 354.494
L276.219 354.494
L276.219 349.932
L276.302 349.932
L276.302 345.369
L279.5 345.369
L279.5 340.807
L315.152 340.807
L315.152 336.244
L316.462 336.244
L316.462 331.682
L321.323 331.682
L321.323 327.12
L321.627 327.12
L321.627 322.557
L326.152 322.557
L326.152 317.995
L338.933 317.995
L338.933 313.433
L340.616 313.433
L340.616 308.87
L344.171 308.87
L344.171 304.308
L344.3 304.308
L344.3 299.745
L348.83 299.745
L348.83 295.183
L349.684 295.183
L349.684 290.621
L351.361 290.621
L351.361 286.058
L356.899 286.058
L356.899 281.496
L374.176 281.496
L374.176 276.934
L386.26 276.934
L386.26 272.371
L386.785 272.371
L386.785 267.809
L392.913 267.809
L392.913 263.246
L394.96 263.246
L394.96 258.684
L406.484 258.684
L406.484 254.122
L410.286 254.122
L410.286 249.559
L414.686 249.559
L414.686 244.997
L419.035 244.997
L419.035 240.435
L433.404 240.435
L433.404 235.872
L438.967 235.872
L438.967 231.31
L457.07 231.31
L457.07 226.747
L458.107 226.747
L458.107 222.185
L460.099 222.185
L460.099 217.623
L463.751 217.623
L463.751 213.06
L470.808 213.06
L470.808 208.498
L470.808 208.498
L470.808 208.498
L511.322 208.498" style="fill:none;stroke:#f5deb3;stroke-linecap:square;"/>
   </g>
   <g id="line2d_5">
    <path clip-path="url(#p4b24e7e61f)" d="
M263.992 359.056
L263.992 354.494
L274.613 354.494
L274.613 349.932
L315.186 349.932
L315.186 345.369
L330.138 345.369
L330.138 340.807
L358.224 340.807
L358.224 336.244
L376.072 336.244
L376.072 331.682
L382.076 331.682
L382.076 327.12
L383.204 327.12
L383.204 322.557
L383.673 322.557
L383.673 317.995
L393.452 317.995
L393.452 313.433
L396.523 313.433
L396.523 308.87
L396.535 308.87
L396.535 304.308
L399.946 304.308
L399.946 299.745
L403.568 299.745
L403.568 295.183
L406.465 295.183
L406.465 290.621
L409.637 290.621
L409.637 286.058
L409.77 286.058
L409.77 281.496
L411.561 281.496
L411.561 276.934
L415.6 276.934
L415.6 272.371
L420.664 272.371
L420.664 267.809
L426.604 267.809
L426.604 263.246
L430.58 263.246
L430.58 258.684
L431.04 258.684
L431.04 254.122
L445.044 254.122
L445.044 249.559
L445.555 249.559
L445.555 244.997
L446.893 244.997
L446.893 240.435
L450.088 240.435
L450.088 235.872
L452.904 235.872
L452.904 231.31
L454.145 231.31
L454.145 226.747
L459.812 226.747
L459.812 222.185
L519.522 222.185" style="fill:none;stroke:#f5deb3;stroke-linecap:square;"/>
   </g>
   <g id="line2d_6"/>
   <g id="line2d_7">
    <path clip-path="url(#p4b24e7e61f)" d="
M280.113 359.056
L280.113 354.494
L287.987 354.494
L287.987 349.932
L290.293 349.932
L290.293 345.369
L295.072 345.369
L295.072 340.807
L305.032 340.807
L305.032 336.244
L370.022 336.244
L370.022 331.682
L386.699 331.682
L386.699 327.12
L390.813 327.12
L390.813 322.557
L391.802 322.557
L391.802 317.995
L396.764 317.995
L396.764 313.433
L409.24 313.433
L409.24 308.87
L412.053 308.87
L412.053 304.308
L413.51 304.308
L413.51 299.745
L413.769 299.745
L413.769 295.183
L415.494 295.183
L415.494 290.621
L417.609 290.621
L417.609 286.058
L423.167 286.058
L423.167 281.496
L424.59 281.496
L424.59 276.934
L426.069 276.934
L426.069 272.371
L433.389 272.371
L433.389 267.809
L435.233 267.809
L435.233 263.246
L437.053 263.246
L437.053 258.684
L442.107 258.684
L442.107 254.122
L446.284 254.122
L446.284 249.559
L450.618 249.559
L450.618 244.997
L464.236 244.997
L464.236 240.435
L464.397 240.435
L464.397 235.872
L470.474 235.872
L470.474 231.31
L489.222 231.31
L489.222 226.747
L491.847 226.747
L491.847 222.185
L493.887 222.185
L493.887 217.623
L502.503 217.623
L502.503 213.06
L505.413 213.06
L505.413 208.498
L506.229 208.498
L506.229 203.936
L517.215 203.936
L517.215 199.373
L519.522 199.373" style="fill:none;stroke:#f5deb3;stroke-linecap:square;"/>
   </g>
   <g id="line2d_8">
    <path clip-path="url(#p4b24e7e61f)" d="
M430.796 359.056
L430.796 354.494
L438.665 354.494
L438.665 349.932
L441.916 349.932
L441.916 345.369
L444.737 345.369
L444.737 340.807
L445.458 340.807
L445.458 336.244
L446.551 336.244
L446.551 331.682
L451.352 331.682
L451.352 327.12
L479.435 327.12
L479.435 322.557
L479.649 322.557
L479.649 317.995
L479.672 317.995
L479.672 313.433
L480.768 313.433
L480.768 308.87
L481.749 308.87
L481.749 304.308
L482.557 304.308
L482.557 299.745
L514.251 299.745
L514.251 295.183
L514.729 295.183
L514.729 290.621
L514.787 290.621
L514.787 286.058
L515.841 286.058
L515.841 281.496
L516.186 281.496
L516.186 276.934
L519.522 276.934" style="fill:none;stroke:#f5deb3;stroke-linecap:square;"/>
   </g>
   <g id="line2d_9">
    <path clip-path="url(#p4b24e7e61f)" d="
M269.422 359.056
L269.422 354.494
L274.87 354.494
L274.87 349.932
L289.434 349.932
L289.434 345.369
L290.596 345.369
L290.596 340.807
L334.534 340.807
L334.534 336.244
L339.853 336.244
L339.853 331.682
L345.225 331.682
L345.225 327.12
L349.341 327.12
L349.341 322.557
L356.243 322.557
L356.243 317.995
L373.336 317.995
L373.336 313.433
L374.86 313.433
L374.86 308.87
L374.897 308.87
L374.897 304.308
L388.101 304.308
L388.101 299.745
L391.565 299.745
L391.565 295.183
L403.994 295.183
L403.994 290.621
L408.961 290.621
L408.961 286.058
L411.939 286.058
L411.939 281.496
L413.754 281.496
L413.754 276.934
L418.473 276.934
L418.473 272.371
L421.399 272.371
L421.399 267.809
L425.362 267.809
L425.362 263.246
L425.365 263.246
L425.365 258.684
L428.726 258.684
L428.726 254.122
L434.966 254.122
L434.966 249.559
L438.003 249.559
L438.003 244.997
L441.097 244.997
L441.097 240.435
L445.176 240.435
L445.176 235.872
L455.015 235.872
L455.015 231.31
L456.728 231.31
L456.728 226.747
L458.404 226.747
L458.404 222.185
L467.735 222.185
L467.735 217.623
L470.046 217.623
L470.046 213.06
L475.953 213.06
L475.953 208.498
L488.921 208.498
L488.921 203.936
L489.114 203.936
L489.114 199.373
L490.973 199.373
L490.973 194.811
L495.405 194.811
L495.405 190.248
L498.743 190.248
L498.743 185.686
L500.082 185.686
L500.082 181.124
L500.287 181.124
L500.287 176.561
L505.406 176.561
L505.406 171.999
L505.689 171.999
L505.689 167.437
L508.974 167.437
L508.974 162.874
L510.087 162.874
L510.087 158.312
L519.522 158.312" style="fill:none;stroke:#f5deb3;stroke-linecap:square;"/>
   </g>
   <g id="line2d_10">
    <path clip-path="url(#p4b24e7e61f)" d="
M411.351 359.056
L411.351 354.494
L430.906 354.494
L430.906 349.932
L436.262 349.932
L436.262 345.369
L440.429 345.369
L440.429 340.807
L453.616 340.807
L453.616 336.244
L456.424 336.244
L456.424 331.682
L457.92 331.682
L457.92 327.12
L459.046 327.12
L459.046 322.557
L463.191 322.557
L463.191 317.995
L497.354 317.995
L497.354 313.433
L507.386 313.433
L507.386 308.87
L511.495 308.87
L511.495 304.308
L516.658 304.308
L516.658 299.745
L519.522 299.745" style="fill:none;stroke:#f5deb3;stroke-linecap:square;"/>
   </g>
   <g id="line2d_11">
    <path clip-path="url(#p4b24e7e61f)" d="
M346.813 359.056
L346.813 354.494
L384.762 354.494
L384.762 349.932
L401.883 349.932
L401.883 345.369
L410.001 345.369
L410.001 340.807
L413.899 340.807
L413.899 336.244
L417.986 336.244
L417.986 331.682
L419.525 331.682
L419.525 327.12
L420.996 327.12
L420.996 322.557
L432.429 322.557
L432.429 317.995
L434.421 317.995
L434.421 313.433
L434.49 313.433
L434.49 308.87
L437.259 308.87
L437.259 304.308
L444.751 304.308
L444.751 299.745
L445.271 299.745
L445.271 295.183
L448.825 295.183
L448.825 290.621
L449.649 290.621
L449.649 286.058
L450.308 286.058
L450.308 281.496
L450.836 281.496
L450.836 276.934
L451.806 276.934
L451.806 272.371
L457.183 272.371
L457.183 267.809
L471.021 267.809
L471.021 263.246
L471.792 263.246
L471.792 258.684
L474.269 258.684
L474.269 254.122
L479.214 254.122
L479.214 249.559
L480.8 249.559
L480.8 244.997
L483.096 244.997
L483.096 240.435
L494.633 240.435
L494.633 235.872
L496.027 235.872
L496.027 231.31
L496.162 231.31
L496.162 226.747
L499.342 226.747
L499.342 222.185
L504.343 222.185
L504.343 217.623
L519.522 217.623" style="fill:none;stroke:#f5deb3;stroke-linecap:square;"/>
   </g>
   <g id="line2d_12">
    <path clip-path="url(#p4b24e7e61f)" d="
M273.481 359.056
L273.481 354.494
L277.528 354.494
L277.528 349.932
L279.422 349.932
L279.422 345.369
L295.938 345.369
L295.938 340.807
L296.259 340.807
L296.259 336.244
L313.549 336.244
L313.549 331.682
L315.88 331.682
L315.88 327.12
L317.504 327.12
L317.504 322.557
L318.489 322.557
L318.489 317.995
L324.162 317.995
L324.162 313.433
L332.03 313.433
L332.03 308.87
L334.42 308.87
L334.42 304.308
L336.166 304.308
L336.166 299.745
L338.352 299.745
L338.352 295.183
L338.477 295.183
L338.477 290.621
L338.727 290.621
L338.727 286.058
L340.913 286.058
L340.913 281.496
L345.956 281.496
L345.956 276.934
L355.563 276.934
L355.563 272.371
L365.446 272.371
L365.446 267.809
L375.681 267.809
L375.681 263.246
L380.903 263.246
L380.903 258.684
L385.318 258.684
L385.318 254.122
L388.316 254.122
L388.316 249.559
L402.578 249.559
L402.578 244.997
L408.773 244.997
L408.773 240.435
L415.777 240.435
L415.777 235.872
L416.581 235.872
L416.581 231.31
L430.775 231.31
L430.775 226.747
L431.352 226.747
L431.352 222.185
L431.352 222.185
L431.352 222.185
L511.322 222.185" style="fill:none;stroke:#f5deb3;stroke-linecap:square;"/>
   </g>
   <g id="line2d_13">
    <path clip-path="url(#p4b24e7e61f)" d="
M347.003 359.056
L347.003 354.494
L362.595 354.494
L362.595 349.932
L368.505 349.932
L368.505 345.369
L369.846 345.369
L369.846 340.807
L375.945 340.807
L375.945 336.244
L380.855 336.244
L380.855 331.682
L384.896 331.682
L384.896 327.12
L385.215 327.12
L385.215 322.557
L385.215 322.557
L385.215 317.995
L388.08 317.995
L388.08 313.433
L404.45 313.433
L404.45 308.87
L404.45 308.87
L404.45 308.87
L511.322 308.87" style="fill:none;stroke:#f5deb3;stroke-linecap:square;"/>
   </g>
   <g id="line2d_14">
    <path clip-path="url(#p4b24e7e61f)" d="
M232.53 359.056
L232.53 354.494
L245.223 354.494
L245.223 349.932
L312.67 349.932
L312.67 345.369
L355.705 345.369
L355.705 340.807
L366.231 340.807
L366.231 336.244
L371.54 336.244
L371.54 331.682
L372.96 331.682
L372.96 327.12
L381.542 327.12
L381.542 322.557
L382.573 322.557
L382.573 317.995
L388.156 317.995
L388.156 313.433
L391.275 313.433
L391.275 308.87
L391.897 308.87
L391.897 304.308
L392.247 304.308
L392.247 299.745
L394.559 299.745
L394.559 295.183
L398.006 295.183
L398.006 290.621
L402.467 290.621
L402.467 286.058
L406.773 286.058
L406.773 281.496
L428.441 281.496
L428.441 276.934
L429.08 276.934
L429.08 272.371
L430.678 272.371
L430.678 267.809
L431.704 267.809
L431.704 263.246
L444.037 263.246
L444.037 258.684
L448.213 258.684
L448.213 254.122
L453.367 254.122
L453.367 249.559
L456.304 249.559
L456.304 244.997
L460.214 244.997
L460.214 240.435
L472.22 240.435
L472.22 235.872
L472.22 235.872
L472.22 235.872
L511.322 235.872" style="fill:none;stroke:#f5deb3;stroke-linecap:square;"/>
   </g>
   <g id="line2d_15">
    <path clip-path="url(#p4b24e7e61f)" d="
M493.668 359.056
L493.668 354.494
L495.709 354.494
L495.709 349.932
L498.916 349.932
L498.916 345.369
L502.604 345.369
L502.604 340.807
L505.547 340.807
L505.547 336.244
L510.144 336.244
L510.144 331.682
L513.318 331.682
L513.318 327.12
L518.608 327.12
L518.608 322.557
L519.522 322.557" style="fill:none;stroke:#f5deb3;stroke-linecap:square;"/>
   </g>
   <g id="line2d_16">
    <path clip-path="url(#p4b24e7e61f)" d="
M353.727 359.056
L353.727 354.494
L445.6 354.494
L445.6 349.932
L475.304 349.932
L475.304 345.369
L476.322 345.369
L476.322 340.807
L485.491 340.807
L485.491 336.244
L493.816 336.244
L493.816 331.682
L513.507 331.682
L513.507 327.12
L519.522 327.12" style="fill:none;stroke:#f5deb3;stroke-linecap:square;"/>
   </g>
   <g id="line2d_17">
    <path clip-path="url(#p4b24e7e61f)" d="
M364.484 359.056
L364.484 354.494
L367.178 354.494
L367.178 349.932
L388.577 349.932
L388.577 345.369
L470.269 345.369
L470.269 340.807
L513.426 340.807
L513.426 336.244
L513.426 336.244" style="fill:none;stroke:#f5deb3;stroke-linecap:square;"/>
   </g>
   <g id="line2d_18">
    <path clip-path="url(#p4b24e7e61f)" d="
M244.052 359.056
L244.052 354.494
L265.386 354.494
L265.386 349.932
L274.268 349.932
L274.268 345.369
L276.136 345.369
L276.136 340.807
L276.549 340.807
L276.549 336.244
L290.293 336.244
L290.293 331.682
L298.743 331.682
L298.743 327.12
L300.375 327.12
L300.375 322.557
L303.653 322.557
L303.653 317.995
L308.244 317.995
L308.244 313.433
L317.999 313.433
L317.999 308.87
L319.006 308.87
L319.006 304.308
L320.925 304.308
L320.925 299.745
L321.597 299.745
L321.597 295.183
L334.784 295.183
L334.784 290.621
L336.777 290.621
L336.777 286.058
L337.251 286.058
L337.251 281.496
L337.804 281.496
L337.804 276.934
L338.933 276.934
L338.933 272.371
L352.107 272.371
L352.107 267.809
L352.932 267.809
L352.932 263.246
L359.445 263.246
L359.445 258.684
L362.838 258.684
L362.838 254.122
L370.363 254.122
L370.363 249.559
L381.965 249.559
L381.965 244.997
L386.268 244.997
L386.268 240.435
L389.969 240.435
L389.969 235.872
L395.162 235.872
L395.162 231.31
L413.553 231.31
L413.553 226.747
L420.758 226.747
L420.758 222.185
L420.758 222.185
L420.758 222.185
L511.322 222.185" style="fill:none;stroke:#f5deb3;stroke-linecap:square;"/>
   </g>
   <g id="line2d_19">
    <path clip-path="url(#p4b24e7e61f)" d="
M409.196 359.056
L409.196 357.387
L409.196 357.387
L409.196 357.387
L409.196 355.718
L409.196 355.718
L409.196 355.718
L409.196 354.049
L413.308 354.049
L413.308 349.041
L417.243 349.041
L417.243 344.034
L422.122 344.034
L422.122 339.026
L423.316 339.026
L423.316 334.019
L423.689 334.019
L423.689 329.011
L427.362 329.011
L427.362 324.004
L427.533 324.004
L427.533 318.996
L428.367 318.996
L428.367 313.989
L430.219 313.989
L430.219 308.981
L432.551 308.981
L432.551 303.974
L433.346 303.974
L433.346 298.967
L433.541 298.967
L433.541 293.959
L434.024 293.959
L434.024 288.952
L436.417 288.952
L436.417 283.944
L444.265 283.944
L444.265 278.937
L445.986 278.937
L445.986 273.929
L452.382 273.929
L452.382 268.922
L456.973 268.922
L456.973 263.914
L458.408 263.914
L458.408 258.907
L459.269 258.907
L459.269 253.899
L459.693 253.899
L459.696 243.884
L462.768 243.884
L462.854 233.869
L464.482 233.869
L464.482 228.862
L467.942 228.862
L467.942 223.854
L471.482 223.854
L471.482 218.847
L472.954 218.847
L472.954 213.839
L473.145 213.839
L473.145 208.832
L484.018 208.832
L484.018 203.824
L485.929 203.824
L485.966 193.809
L487.452 193.809
L487.452 188.802
L489.163 188.802
L489.163 183.794
L490.868 183.794
L490.868 178.787
L491.27 178.787
L491.27 173.779
L494.315 173.779
L494.315 168.772
L494.802 168.772
L494.802 163.764
L496.14 163.764
L496.14 158.757
L496.385 158.757
L496.385 153.749
L508.588 153.749
L508.588 148.742
L510.183 148.742
L510.183 143.734
L516.657 143.734
L516.657 138.727
L519.522 138.727
L519.522 138.727" style="fill:none;stroke:#f5deb3;stroke-linecap:square;"/>
   </g>
   <g id="line2d_20">
    <path clip-path="url(#p4b24e7e61f)" d="
M238.659 359.056
L238.659 354.494
L238.659 354.494
L238.659 349.932
L243.37 349.932
L243.37 345.369
L245.879 345.369
L245.879 340.807
L260.719 340.807
L260.719 336.244
L281.315 336.244
L281.315 331.682
L286.492 331.682
L286.492 327.12
L294.412 327.12
L294.412 322.557
L304.147 322.557
L304.147 317.995
L315.256 317.995
L315.256 313.433
L316.767 313.433
L316.767 308.87
L319.103 308.87
L319.103 304.308
L320.925 304.308
L320.925 299.745
L324.788 299.745
L324.788 295.183
L324.901 295.183
L324.901 290.621
L332.509 290.621
L332.509 286.058
L336.1 286.058
L336.1 281.496
L336.906 281.496
L336.906 276.934
L337.72 276.934
L337.72 272.371
L338.872 272.371
L338.872 267.809
L342.486 267.809
L342.486 263.246
L346.709 263.246
L346.709 258.684
L353.816 258.684
L353.816 254.122
L353.831 254.122
L353.831 249.559
L355.662 249.559
L355.662 244.997
L368.128 244.997
L368.128 240.435
L369.428 240.435
L369.428 235.872
L371.157 235.872
L371.157 231.31
L393.384 231.31
L393.384 226.747
L395.322 226.747
L395.322 222.185
L507.87 222.185
L507.87 217.623
L507.87 217.623
L507.87 217.623
L511.322 217.623" style="fill:none;stroke:#f5deb3;stroke-linecap:square;"/>
   </g>
   <g id="line2d_21">
    <path clip-path="url(#p4b24e7e61f)" d="
M435.225 359.056
L435.225 354.494
L458.843 354.494
L458.843 349.932
L466.767 349.932
L466.767 345.369
L466.767 345.369
L466.767 345.369
L511.322 345.369" style="fill:none;stroke:#f5deb3;stroke-linecap:square;"/>
   </g>
   <g id="line2d_22">
    <path clip-path="url(#p4b24e7e61f)" d="
M221.977 359.056
L221.977 354.494
L228.886 354.494
L228.886 349.932
L237.888 349.932
L237.888 345.369
L239.039 345.369
L239.039 340.807
L245.879 340.807
L245.879 336.244
L249.624 336.244
L249.624 331.682
L306.285 331.682
L306.285 327.12
L334.602 327.12
L334.602 322.557
L336.906 322.557
L336.906 317.995
L341.169 317.995
L341.169 313.433
L343.858 313.433
L343.858 308.87
L352.337 308.87
L352.337 304.308
L356.201 304.308
L356.201 299.745
L364.916 299.745
L364.916 295.183
L369.866 295.183
L369.866 290.621
L375.166 290.621
L375.166 286.058
L397.474 286.058
L397.474 281.496
L398.129 281.496
L398.129 276.934
L401.878 276.934
L401.878 272.371
L403.351 272.371
L403.351 267.809
L406.938 267.809
L406.938 263.246
L417.435 263.246
L417.435 258.684
L428.83 258.684
L428.83 254.122
L436.15 254.122
L436.15 249.559
L437.102 249.559
L437.102 244.997
L437.941 244.997
L437.941 240.435
L453.548 240.435
L453.548 235.872
L465.372 235.872
L465.372 231.31
L472.825 231.31
L472.825 226.747
L484.24 226.747
L484.24 222.185
L487.824 222.185
L487.824 217.623
L492.842 217.623
L492.842 213.06
L499.649 213.06
L499.649 208.498
L503.564 208.498
L503.564 203.936
L506.571 203.936
L506.571 199.373
L519.522 199.373" style="fill:none;stroke:#f5deb3;stroke-linecap:square;"/>
   </g>
   <g id="line2d_23">
    <path clip-path="url(#p4b24e7e61f)" d="
M356.383 359.056
L356.383 354.494
L363.454 354.494
L363.454 349.932
L366.69 349.932
L366.69 345.369
L367.563 345.369
L367.563 340.807
L369.217 340.807
L369.217 336.244
L372.521 336.244
L372.521 331.682
L389.494 331.682
L389.494 327.12
L393.85 327.12
L393.85 322.557
L394.1 322.557
L394.1 317.995
L395.944 317.995
L395.944 313.433
L404.286 313.433
L404.286 308.87
L407.456 308.87
L407.456 304.308
L414.559 304.308
L414.559 299.745
L421.686 299.745
L421.686 295.183
L424.621 295.183
L424.621 290.621
L430.184 290.621
L430.184 286.058
L445.162 286.058
L445.162 281.496
L445.203 281.496
L445.203 276.934
L448.294 276.934
L448.294 272.371
L453.757 272.371
L453.757 267.809
L472.541 267.809
L472.541 263.246
L472.541 263.246
L472.541 263.246
L511.322 263.246" style="fill:none;stroke:#f5deb3;stroke-linecap:square;"/>
   </g>
   <g id="line2d_24">
    <path clip-path="url(#p4b24e7e61f)" d="
M308.407 359.056
L308.407 354.494
L309.925 354.494
L309.925 349.932
L317.103 349.932
L317.103 345.369
L318.327 345.369
L318.327 340.807
L325.182 340.807
L325.182 336.244
L326.206 336.244
L326.206 331.682
L336.494 331.682
L336.494 327.12
L363.442 327.12
L363.442 322.557
L393.174 322.557
L393.174 317.995
L394.209 317.995
L394.209 313.433
L395.746 313.433
L395.746 308.87
L397.271 308.87
L397.271 304.308
L399.307 304.308
L399.307 299.745
L400.265 299.745
L400.265 295.183
L400.524 295.183
L400.524 290.621
L403.499 290.621
L403.499 286.058
L413.427 286.058
L413.427 281.496
L414.242 281.496
L414.242 276.934
L415.487 276.934
L415.487 272.371
L426.275 272.371
L426.275 267.809
L432.465 267.809
L432.465 263.246
L433.723 263.246
L433.723 258.684
L435.169 258.684
L435.169 254.122
L435.369 254.122
L435.369 249.559
L438.255 249.559
L438.255 244.997
L445.575 244.997
L445.575 240.435
L447.504 240.435
L447.504 235.872
L448.226 235.872
L448.226 231.31
L454.873 231.31
L454.873 226.747
L459.054 226.747
L459.054 222.185
L461.037 222.185
L461.037 217.623
L465.966 217.623
L465.966 213.06
L467.764 213.06
L467.764 208.498
L472.821 208.498
L472.821 203.936
L479.758 203.936
L479.758 199.373
L481.393 199.373
L481.393 194.811
L487.378 194.811
L487.378 190.248
L505.246 190.248
L505.246 185.686
L508.019 185.686
L508.019 181.124
L510.775 181.124
L510.775 176.561
L519.522 176.561" style="fill:none;stroke:#f5deb3;stroke-linecap:square;"/>
   </g>
   <g id="line2d_25">
    <path clip-path="url(#p4b24e7e61f)" d="
M457.495 359.056
L457.495 354.494
L460.566 354.494
L460.566 349.932
L465.089 349.932
L465.089 345.369
L466.269 345.369
L466.269 340.807
L466.305 340.807
L466.305 336.244
L467.265 336.244
L467.265 331.682
L467.447 331.682
L467.447 327.12
L468.141 327.12
L468.141 322.557
L469.417 322.557
L469.417 317.995
L470.761 317.995
L470.761 313.433
L471.276 313.433
L471.276 308.87
L471.347 308.87
L471.347 304.308
L471.411 304.308
L471.411 299.745
L471.486 299.745
L471.486 295.183
L471.926 295.183
L471.926 290.621
L472.53 290.621
L472.53 286.058
L472.823 286.058
L472.823 281.496
L473.528 281.496
L473.528 276.934
L474.766 276.934
L474.766 272.371
L475.221 272.371
L475.221 267.809
L476.614 267.809
L476.614 263.246
L476.728 263.246
L476.728 258.684
L478.856 258.684
L478.856 254.122
L479.083 254.122
L479.083 249.559
L491.827 249.559
L491.827 244.997
L493.093 244.997
L493.093 240.435
L494.23 240.435
L494.23 235.872
L494.609 235.872
L494.609 231.31
L495.184 231.31
L495.184 226.747
L495.802 226.747
L495.802 222.185
L495.83 222.185
L495.83 217.623
L496.163 217.623
L496.163 213.06
L496.967 213.06
L496.967 208.498
L496.977 208.498
L496.977 203.936
L497.086 203.936
L497.086 199.373
L498.755 199.373
L498.755 194.811
L499.126 194.811
L499.126 190.248
L499.126 190.248
L499.126 190.248
L511.322 190.248" style="fill:none;stroke:#f5deb3;stroke-linecap:square;"/>
   </g>
   <g id="line2d_26">
    <path clip-path="url(#p4b24e7e61f)" d="
M326.152 359.056
L326.152 354.494
L327.794 354.494
L327.794 349.932
L328.189 349.932
L328.189 345.369
L328.71 345.369
L328.71 340.807
L328.917 340.807
L328.917 336.244
L330.087 336.244
L330.087 331.682
L330.934 331.682
L330.934 327.12
L331.229 327.12
L331.229 322.557
L334.852 322.557
L334.852 317.995
L345.547 317.995
L345.547 313.433
L346.587 313.433
L346.587 308.87
L347.858 308.87
L347.858 304.308
L348.33 304.308
L348.33 299.745
L351.689 299.745
L351.689 295.183
L360.596 295.183
L360.596 290.621
L361.431 290.621
L361.431 286.058
L361.456 286.058
L361.456 281.496
L362.091 281.496
L362.091 276.934
L364.049 276.934
L364.049 272.371
L364.344 272.371
L364.344 267.809
L365.389 267.809
L365.389 263.246
L378.031 263.246
L378.031 258.684
L381.09 258.684
L381.09 254.122
L381.204 254.122
L381.204 249.559
L382.274 249.559
L382.274 244.997
L384.062 244.997
L384.062 240.435
L390.155 240.435
L390.155 235.872
L390.387 235.872
L390.387 231.31
L394.13 231.31
L394.13 226.747
L395.287 226.747
L395.287 222.185
L406.576 222.185
L406.576 217.623
L407.936 217.623
L407.936 213.06
L412.431 213.06
L412.431 208.498
L415.544 208.498
L415.544 203.936
L437.03 203.936
L437.03 199.373
L439.547 199.373
L439.547 194.811
L469.534 194.811
L469.534 190.248
L469.941 190.248
L469.941 185.686
L487.855 185.686
L487.855 181.124
L493.003 181.124
L493.003 176.561
L496.482 176.561
L496.482 171.999
L497.039 171.999
L497.039 167.437
L500.56 167.437
L500.56 162.874
L501.052 162.874
L501.052 158.312
L501.515 158.312
L501.515 153.749
L504.235 153.749
L504.235 149.187
L506.187 149.187
L506.187 144.625
L506.272 144.625
L506.272 140.062
L506.349 140.062
L506.349 135.5
L513.102 135.5
L513.102 130.938
L513.102 130.938" style="fill:none;stroke:#f5deb3;stroke-linecap:square;"/>
   </g>
   <g id="line2d_27">
    <path clip-path="url(#p4b24e7e61f)" d="
M379.195 359.056
L379.195 354.494
L379.195 354.494
L379.195 354.494
L511.322 354.494" style="fill:none;stroke:#f5deb3;stroke-linecap:square;"/>
   </g>
   <g id="line2d_28">
    <path clip-path="url(#p4b24e7e61f)" d="
M282.414 359.056
L282.414 354.494
L283.131 354.494
L283.131 349.932
L292.544 349.932
L292.544 345.369
L303.29 345.369
L303.29 340.807
L325.069 340.807
L325.069 336.244
L352.245 336.244
L352.245 331.682
L368.43 331.682
L368.43 327.12
L394.697 327.12
L394.697 322.557
L397.339 322.557
L397.339 317.995
L399.652 317.995
L399.652 313.433
L399.69 313.433
L399.69 308.87
L401.765 308.87
L401.765 304.308
L402.193 304.308
L402.193 299.745
L405.059 299.745
L405.059 295.183
L410.834 295.183
L410.834 290.621
L412.407 290.621
L412.407 286.058
L432.033 286.058
L432.033 281.496
L433.389 281.496
L433.389 276.934
L434.067 276.934
L434.067 272.371
L434.451 272.371
L434.451 267.809
L435.218 267.809
L435.218 263.246
L436.424 263.246
L436.424 258.684
L437.639 258.684
L437.639 254.122
L438.211 254.122
L438.211 249.559
L438.951 249.559
L438.951 244.997
L444.267 244.997
L444.267 240.435
L444.367 240.435
L444.367 235.872
L449.334 235.872
L449.334 231.31
L450.576 231.31
L450.576 226.747
L450.735 226.747
L450.735 222.185
L454.774 222.185
L454.774 217.623
L455.096 217.623
L455.096 213.06
L469.301 213.06
L469.301 208.498
L473.937 208.498
L473.937 203.936
L477.865 203.936
L477.865 199.373
L480.029 199.373
L480.029 194.811
L480.89 194.811
L480.89 190.248
L483.87 190.248
L483.87 185.686
L493.53 185.686
L493.53 181.124
L500.625 181.124
L500.625 176.561
L504.109 176.561
L504.109 171.999
L505.694 171.999
L505.694 167.437
L508.642 167.437
L508.642 162.874
L519.522 162.874" style="fill:none;stroke:#f5deb3;stroke-linecap:square;"/>
   </g>
   <g id="line2d_29">
    <path clip-path="url(#p4b24e7e61f)" d="
M277.849 359.056
L277.849 354.494
L277.849 354.494
L277.849 349.932
L277.849 349.932
L277.849 345.369
L309.451 345.369
L309.451 340.807
L309.451 340.807
L309.451 336.244
L309.451 336.244
L309.451 331.682
L316.087 331.682
L316.087 327.12
L316.087 327.12
L316.087 322.557
L316.087 322.557
L316.087 317.995
L355.62 317.995
L355.62 313.433
L355.62 313.433
L355.62 308.87
L355.62 308.87
L355.62 304.308
L398.51 304.308
L398.51 299.745
L398.51 299.745
L398.51 295.183
L398.51 295.183
L398.51 290.621
L415.657 290.621
L415.657 286.058
L415.657 286.058
L415.657 281.496
L415.657 281.496
L415.657 276.934
L424.627 276.934
L424.627 272.371
L424.627 272.371
L424.627 267.809
L424.627 267.809
L424.627 263.246
L427.493 263.246
L427.493 258.684
L428.441 258.684
L428.441 254.122
L440.726 254.122
L440.726 249.559
L441.956 249.559
L441.956 244.997
L442.249 244.997
L442.249 240.435
L451.612 240.435
L451.612 235.872
L454.966 235.872
L454.966 231.31
L459.257 231.31
L459.257 226.747
L476.102 226.747
L476.102 222.185
L476.102 222.185
L476.102 222.185
L511.322 222.185" style="fill:none;stroke:#f5deb3;stroke-linecap:square;"/>
   </g>
   <g id="line2d_30">
    <path clip-path="url(#p4b24e7e61f)" d="
M388.563 359.056
L388.563 354.494
L391.378 354.494
L391.378 349.932
L438.877 349.932
L438.877 345.369
L452.045 345.369
L452.045 340.807
L470.545 340.807
L470.545 336.244
L476.996 336.244
L476.996 331.682
L478.397 331.682
L478.397 327.12
L478.762 327.12
L478.762 322.557
L479.133 322.557
L479.133 317.995
L479.522 317.995
L479.522 313.433
L479.522 313.433
L479.522 313.433
L511.322 313.433" style="fill:none;stroke:#f5deb3;stroke-linecap:square;"/>
   </g>
   <g id="line2d_31">
    <path clip-path="url(#p4b24e7e61f)" d="
M-1 349.932
L41.8964 349.932
L41.8964 331.682
L54.8637 331.682
L54.8637 327.12
L64.9219 327.12
L64.9219 322.557
L80.0884 322.557
L80.0884 304.308
L91.4163 304.308
L91.4163 299.745
L96.1655 299.745
L96.1655 295.183
L100.462 295.183
L100.462 290.621
L104.384 290.621
L104.384 286.058
L107.992 286.058
L107.992 281.496
L111.332 281.496
L111.332 276.934
L117.351 276.934
L117.351 272.371
L120.084 272.371
L120.084 263.246
L127.409 263.246
L127.409 258.684
L131.705 258.684
L131.705 249.559
L133.709 249.559
L133.709 244.997
L142.576 244.997
L142.576 240.435
L147.163 240.435
L147.163 235.872
L148.594 235.872
L148.594 231.31
L149.982 231.31
L149.982 222.185
L152.634 222.185
L152.634 217.623
L155.139 217.623
L155.139 208.498
L157.511 208.498
L157.511 203.936
L161.913 203.936
L161.913 199.373
L162.949 199.373
L162.949 190.248
L166.871 190.248
L166.871 185.686
L168.711 185.686
L168.711 181.124
L172.18 181.124
L172.18 176.561
L176.171 176.561
L176.171 171.999
L179.128 171.999
L179.128 167.437
L181.903 167.437
L181.903 162.874
L185.147 162.874
L185.147 158.312
L186.382 158.312
L186.382 153.749
L186.987 153.749
L186.987 149.187
L193.156 149.187
L193.156 144.625
L196.196 144.625
L196.196 140.062
L198.582 140.062
L198.582 135.5
L202.581 135.5
L202.581 130.938
L207.415 130.938
L207.415 126.375
L209.651 126.375
L209.651 121.813
L215.121 121.813
L215.121 117.25
L224.661 117.25
L224.661 108.126
L225.691 108.126
L225.691 103.563
L238.082 103.563
L238.082 99.0009
L243.541 99.0009
L243.541 94.4385
L331.813 94.4385
L331.813 89.8761
L341.987 89.8761
L341.987 85.3138
L400.724 85.3138
L400.724 80.7514
L402.828 80.7514
L402.828 76.189
L407.157 76.189
L407.157 71.6266
L433.635 71.6266
L433.635 67.0643
L436.009 67.0643
L436.009 62.5019
L480.754 62.5019
L480.754 57.9395
L480.754 57.9395
L511.322 57.9395
L511.322 57.9395" style="fill:none;stroke:#000000;stroke-linecap:square;"/>
   </g>
   <g id="line2d_32"/>
   <g id="line2d_33">
    <path clip-path="url(#p4b24e7e61f)" d="
M226.198 359.056
L226.198 354.494
L247.478 354.494
L247.478 349.932
L280.265 349.932
L280.265 345.369
L289.124 345.369
L289.124 340.807
L291.016 340.807
L291.016 336.244
L324.39 336.244
L324.39 331.682
L350.856 331.682
L350.856 327.12
L467.103 327.12
L467.103 322.557
L480.239 322.557
L480.239 317.995
L500.027 317.995
L500.027 313.433
L502.012 313.433
L502.012 308.87
L504.664 308.87
L504.664 304.308
L504.664 304.308
L504.664 304.308
L511.322 304.308" style="fill:none;stroke:#00bfbf;stroke-linecap:square;"/>
   </g>
   <g id="line2d_34"/>
   <g id="line2d_35">
    <path clip-path="url(#p4b24e7e61f)" d="
M307.254 359.056
L307.254 354.494
L342.083 354.494
L342.083 349.932
L342.256 349.932
L342.256 345.369
L342.448 345.369
L342.448 340.807
L345.512 340.807
L345.512 336.244
L355.42 336.244
L355.42 331.682
L377.569 331.682
L377.569 327.12
L485.842 327.12
L485.842 322.557
L503.718 322.557
L503.718 317.995
L506.472 317.995
L506.472 313.433
L506.472 313.433
L506.472 313.433
L511.322 313.433" style="fill:none;stroke:#bf00bf;stroke-linecap:square;"/>
   </g>
   <g id="line2d_36"/>
   <g id="line2d_37">
    <path clip-path="url(#p4b24e7e61f)" d="
M350.745 359.056
L350.745 354.494
L374.345 354.494
L374.345 349.932
L375.58 349.932
L375.58 345.369
L376.63 345.369
L376.63 340.807
L377.323 340.807
L377.323 336.244
L379.085 336.244
L379.085 331.682
L399.491 331.682
L399.491 327.12
L492.585 327.12
L492.585 322.557
L508.628 322.557
L508.628 317.995
L508.628 317.995
L508.628 317.995
L511.322 317.995" style="fill:none;stroke:#ff0000;stroke-linecap:square;stroke-width:3.0;"/>
   </g>
   <g id="line2d_38"/>
   <g id="line2d_39">
    <path clip-path="url(#p4b24e7e61f)" d="
M511.322 359.056
L511.322 13.4563" style="fill:none;stroke:#000000;stroke-linecap:square;"/>
   </g>
   <g id="matplotlib.axis_1">
    <g id="xtick_1">
     <g id="line2d_40">
      <path clip-path="url(#p4b24e7e61f)" d="
M64.9219 359.056
L64.9219 13.4563" style="fill:none;stroke:#000000;stroke-dasharray:1.000000,3.000000;stroke-dashoffset:0.0;stroke-width:0.5;"/>
     </g>
     <g id="line2d_41">
      <defs>
       <path d="
M0 0
L0 -4" id="m93b0483c22" style="stroke:#000000;stroke-width:0.5;"/>
      </defs>
      <g>
       <use style="stroke:#000000;stroke-width:0.5;" x="64.921875" xlink:href="#m93b0483c22" y="359.056342822"/>
      </g>
     </g>
     <g id="line2d_42">
      <defs>
       <path d="
M0 0
L0 4" id="m741efc42ff" style="stroke:#000000;stroke-width:0.5;"/>
      </defs>
      <g>
       <use style="stroke:#000000;stroke-width:0.5;" x="64.921875" xlink:href="#m741efc42ff" y="13.4563428218"/>
      </g>
     </g>
     <g id="text_1">
      <!-- 0 -->
      <defs>
       <path d="
M31.7812 66.4062
Q24.1719 66.4062 20.3281 58.9062
Q16.5 51.4219 16.5 36.375
Q16.5 21.3906 20.3281 13.8906
Q24.1719 6.39062 31.7812 6.39062
Q39.4531 6.39062 43.2812 13.8906
Q47.125 21.3906 47.125 36.375
Q47.125 51.4219 43.2812 58.9062
Q39.4531 66.4062 31.7812 66.4062
M31.7812 74.2188
Q44.0469 74.2188 50.5156 64.5156
Q56.9844 54.8281 56.9844 36.375
Q56.9844 17.9688 50.5156 8.26562
Q44.0469 -1.42188 31.7812 -1.42188
Q19.5312 -1.42188 13.0625 8.26562
Q6.59375 17.9688 6.59375 36.375
Q6.59375 54.8281 13.0625 64.5156
Q19.5312 74.2188 31.7812 74.2188" id="BitstreamVeraSans-Roman-30"/>
      </defs>
      <g transform="translate(59.8828125 378.253217822)scale(0.2 -0.2)">
       <use xlink:href="#BitstreamVeraSans-Roman-30"/>
      </g>
     </g>
    </g>
    <g id="xtick_2">
     <g id="line2d_43">
      <path clip-path="url(#p4b24e7e61f)" d="
M168.711 359.056
L168.711 13.4563" style="fill:none;stroke:#000000;stroke-dasharray:1.000000,3.000000;stroke-dashoffset:0.0;stroke-width:0.5;"/>
     </g>
     <g id="line2d_44">
      <g>
       <use style="stroke:#000000;stroke-width:0.5;" x="168.710862685" xlink:href="#m93b0483c22" y="359.056342822"/>
      </g>
     </g>
     <g id="line2d_45">
      <g>
       <use style="stroke:#000000;stroke-width:0.5;" x="168.710862685" xlink:href="#m741efc42ff" y="13.4563428218"/>
      </g>
     </g>
     <g id="text_2">
      <!-- 1 -->
      <defs>
       <path d="
M12.4062 8.29688
L28.5156 8.29688
L28.5156 63.9219
L10.9844 60.4062
L10.9844 69.3906
L28.4219 72.9062
L38.2812 72.9062
L38.2812 8.29688
L54.3906 8.29688
L54.3906 0
L12.4062 0
z
" id="BitstreamVeraSans-Roman-31"/>
      </defs>
      <g transform="translate(164.370237685 378.253217822)scale(0.2 -0.2)">
       <use xlink:href="#BitstreamVeraSans-Roman-31"/>
      </g>
     </g>
    </g>
    <g id="xtick_3">
     <g id="line2d_46">
      <path clip-path="url(#p4b24e7e61f)" d="
M272.5 359.056
L272.5 13.4563" style="fill:none;stroke:#000000;stroke-dasharray:1.000000,3.000000;stroke-dashoffset:0.0;stroke-width:0.5;"/>
     </g>
     <g id="line2d_47">
      <g>
       <use style="stroke:#000000;stroke-width:0.5;" x="272.49985037" xlink:href="#m93b0483c22" y="359.056342822"/>
      </g>
     </g>
     <g id="line2d_48">
      <g>
       <use style="stroke:#000000;stroke-width:0.5;" x="272.49985037" xlink:href="#m741efc42ff" y="13.4563428218"/>
      </g>
     </g>
     <g id="text_3">
      <!-- 2 -->
      <defs>
       <path d="
M19.1875 8.29688
L53.6094 8.29688
L53.6094 0
L7.32812 0
L7.32812 8.29688
Q12.9375 14.1094 22.625 23.8906
Q32.3281 33.6875 34.8125 36.5312
Q39.5469 41.8438 41.4219 45.5312
Q43.3125 49.2188 43.3125 52.7812
Q43.3125 58.5938 39.2344 62.25
Q35.1562 65.9219 28.6094 65.9219
Q23.9688 65.9219 18.8125 64.3125
Q13.6719 62.7031 7.8125 59.4219
L7.8125 69.3906
Q13.7656 71.7812 18.9375 73
Q24.125 74.2188 28.4219 74.2188
Q39.75 74.2188 46.4844 68.5469
Q53.2188 62.8906 53.2188 53.4219
Q53.2188 48.9219 51.5312 44.8906
Q49.8594 40.875 45.4062 35.4062
Q44.1875 33.9844 37.6406 27.2188
Q31.1094 20.4531 19.1875 8.29688" id="BitstreamVeraSans-Roman-32"/>
      </defs>
      <g transform="translate(267.87172537 378.253217822)scale(0.2 -0.2)">
       <use xlink:href="#BitstreamVeraSans-Roman-32"/>
      </g>
     </g>
    </g>
    <g id="xtick_4">
     <g id="line2d_49">
      <path clip-path="url(#p4b24e7e61f)" d="
M376.289 359.056
L376.289 13.4563" style="fill:none;stroke:#000000;stroke-dasharray:1.000000,3.000000;stroke-dashoffset:0.0;stroke-width:0.5;"/>
     </g>
     <g id="line2d_50">
      <g>
       <use style="stroke:#000000;stroke-width:0.5;" x="376.288838055" xlink:href="#m93b0483c22" y="359.056342822"/>
      </g>
     </g>
     <g id="line2d_51">
      <g>
       <use style="stroke:#000000;stroke-width:0.5;" x="376.288838055" xlink:href="#m741efc42ff" y="13.4563428218"/>
      </g>
     </g>
     <g id="text_4">
      <!-- 3 -->
      <defs>
       <path d="
M40.5781 39.3125
Q47.6562 37.7969 51.625 33
Q55.6094 28.2188 55.6094 21.1875
Q55.6094 10.4062 48.1875 4.48438
Q40.7656 -1.42188 27.0938 -1.42188
Q22.5156 -1.42188 17.6562 -0.515625
Q12.7969 0.390625 7.625 2.20312
L7.625 11.7188
Q11.7188 9.32812 16.5938 8.10938
Q21.4844 6.89062 26.8125 6.89062
Q36.0781 6.89062 40.9375 10.5469
Q45.7969 14.2031 45.7969 21.1875
Q45.7969 27.6406 41.2812 31.2656
Q36.7656 34.9062 28.7188 34.9062
L20.2188 34.9062
L20.2188 43.0156
L29.1094 43.0156
Q36.375 43.0156 40.2344 45.9219
Q44.0938 48.8281 44.0938 54.2969
Q44.0938 59.9062 40.1094 62.9062
Q36.1406 65.9219 28.7188 65.9219
Q24.6562 65.9219 20.0156 65.0312
Q15.375 64.1562 9.8125 62.3125
L9.8125 71.0938
Q15.4375 72.6562 20.3438 73.4375
Q25.25 74.2188 29.5938 74.2188
Q40.8281 74.2188 47.3594 69.1094
Q53.9062 64.0156 53.9062 55.3281
Q53.9062 49.2656 50.4375 45.0938
Q46.9688 40.9219 40.5781 39.3125" id="BitstreamVeraSans-Roman-33"/>
      </defs>
      <g transform="translate(371.490400555 378.253217822)scale(0.2 -0.2)">
       <use xlink:href="#BitstreamVeraSans-Roman-33"/>
      </g>
     </g>
    </g>
    <g id="xtick_5">
     <g id="line2d_52">
      <path clip-path="url(#p4b24e7e61f)" d="
M480.078 359.056
L480.078 13.4563" style="fill:none;stroke:#000000;stroke-dasharray:1.000000,3.000000;stroke-dashoffset:0.0;stroke-width:0.5;"/>
     </g>
     <g id="line2d_53">
      <g>
       <use style="stroke:#000000;stroke-width:0.5;" x="480.07782574" xlink:href="#m93b0483c22" y="359.056342822"/>
      </g>
     </g>
     <g id="line2d_54">
      <g>
       <use style="stroke:#000000;stroke-width:0.5;" x="480.07782574" xlink:href="#m741efc42ff" y="13.4563428218"/>
      </g>
     </g>
     <g id="text_5">
      <!-- 4 -->
      <defs>
       <path d="
M37.7969 64.3125
L12.8906 25.3906
L37.7969 25.3906
z

M35.2031 72.9062
L47.6094 72.9062
L47.6094 25.3906
L58.0156 25.3906
L58.0156 17.1875
L47.6094 17.1875
L47.6094 0
L37.7969 0
L37.7969 17.1875
L4.89062 17.1875
L4.89062 26.7031
z
" id="BitstreamVeraSans-Roman-34"/>
      </defs>
      <g transform="translate(474.76532574 378.253217822)scale(0.2 -0.2)">
       <use xlink:href="#BitstreamVeraSans-Roman-34"/>
      </g>
     </g>
    </g>
    <g id="xtick_6">
     <g id="line2d_55">
      <defs>
       <path d="
M0 0
L0 -2" id="m177f7580d0" style="stroke:#000000;stroke-width:0.5;"/>
      </defs>
      <g>
       <use style="stroke:#000000;stroke-width:0.5;" x="96.1654735128" xlink:href="#m177f7580d0" y="359.056342822"/>
      </g>
     </g>
     <g id="line2d_56">
      <defs>
       <path d="
M0 0
L0 2" id="m5284c7e2a0" style="stroke:#000000;stroke-width:0.5;"/>
      </defs>
      <g>
       <use style="stroke:#000000;stroke-width:0.5;" x="96.1654735128" xlink:href="#m5284c7e2a0" y="13.4563428218"/>
      </g>
     </g>
    </g>
    <g id="xtick_7">
     <g id="line2d_57">
      <g>
       <use style="stroke:#000000;stroke-width:0.5;" x="114.44180703" xlink:href="#m177f7580d0" y="359.056342822"/>
      </g>
     </g>
     <g id="line2d_58">
      <g>
       <use style="stroke:#000000;stroke-width:0.5;" x="114.44180703" xlink:href="#m5284c7e2a0" y="13.4563428218"/>
      </g>
     </g>
    </g>
    <g id="xtick_8">
     <g id="line2d_59">
      <g>
       <use style="stroke:#000000;stroke-width:0.5;" x="127.409072026" xlink:href="#m177f7580d0" y="359.056342822"/>
      </g>
     </g>
     <g id="line2d_60">
      <g>
       <use style="stroke:#000000;stroke-width:0.5;" x="127.409072026" xlink:href="#m5284c7e2a0" y="13.4563428218"/>
      </g>
     </g>
    </g>
    <g id="xtick_9">
     <g id="line2d_61">
      <g>
       <use style="stroke:#000000;stroke-width:0.5;" x="137.467264172" xlink:href="#m177f7580d0" y="359.056342822"/>
      </g>
     </g>
     <g id="line2d_62">
      <g>
       <use style="stroke:#000000;stroke-width:0.5;" x="137.467264172" xlink:href="#m5284c7e2a0" y="13.4563428218"/>
      </g>
     </g>
    </g>
    <g id="xtick_10">
     <g id="line2d_63">
      <g>
       <use style="stroke:#000000;stroke-width:0.5;" x="145.685405543" xlink:href="#m177f7580d0" y="359.056342822"/>
      </g>
     </g>
     <g id="line2d_64">
      <g>
       <use style="stroke:#000000;stroke-width:0.5;" x="145.685405543" xlink:href="#m5284c7e2a0" y="13.4563428218"/>
      </g>
     </g>
    </g>
    <g id="xtick_11">
     <g id="line2d_65">
      <g>
       <use style="stroke:#000000;stroke-width:0.5;" x="152.633745068" xlink:href="#m177f7580d0" y="359.056342822"/>
      </g>
     </g>
     <g id="line2d_66">
      <g>
       <use style="stroke:#000000;stroke-width:0.5;" x="152.633745068" xlink:href="#m5284c7e2a0" y="13.4563428218"/>
      </g>
     </g>
    </g>
    <g id="xtick_12">
     <g id="line2d_67">
      <g>
       <use style="stroke:#000000;stroke-width:0.5;" x="158.652670538" xlink:href="#m177f7580d0" y="359.056342822"/>
      </g>
     </g>
     <g id="line2d_68">
      <g>
       <use style="stroke:#000000;stroke-width:0.5;" x="158.652670538" xlink:href="#m5284c7e2a0" y="13.4563428218"/>
      </g>
     </g>
    </g>
    <g id="xtick_13">
     <g id="line2d_69">
      <g>
       <use style="stroke:#000000;stroke-width:0.5;" x="163.961739061" xlink:href="#m177f7580d0" y="359.056342822"/>
      </g>
     </g>
     <g id="line2d_70">
      <g>
       <use style="stroke:#000000;stroke-width:0.5;" x="163.961739061" xlink:href="#m5284c7e2a0" y="13.4563428218"/>
      </g>
     </g>
    </g>
    <g id="xtick_14">
     <g id="line2d_71">
      <g>
       <use style="stroke:#000000;stroke-width:0.5;" x="199.954461198" xlink:href="#m177f7580d0" y="359.056342822"/>
      </g>
     </g>
     <g id="line2d_72">
      <g>
       <use style="stroke:#000000;stroke-width:0.5;" x="199.954461198" xlink:href="#m5284c7e2a0" y="13.4563428218"/>
      </g>
     </g>
    </g>
    <g id="xtick_15">
     <g id="line2d_73">
      <g>
       <use style="stroke:#000000;stroke-width:0.5;" x="218.230794715" xlink:href="#m177f7580d0" y="359.056342822"/>
      </g>
     </g>
     <g id="line2d_74">
      <g>
       <use style="stroke:#000000;stroke-width:0.5;" x="218.230794715" xlink:href="#m5284c7e2a0" y="13.4563428218"/>
      </g>
     </g>
    </g>
    <g id="xtick_16">
     <g id="line2d_75">
      <g>
       <use style="stroke:#000000;stroke-width:0.5;" x="231.19805971" xlink:href="#m177f7580d0" y="359.056342822"/>
      </g>
     </g>
     <g id="line2d_76">
      <g>
       <use style="stroke:#000000;stroke-width:0.5;" x="231.19805971" xlink:href="#m5284c7e2a0" y="13.4563428218"/>
      </g>
     </g>
    </g>
    <g id="xtick_17">
     <g id="line2d_77">
      <g>
       <use style="stroke:#000000;stroke-width:0.5;" x="241.256251857" xlink:href="#m177f7580d0" y="359.056342822"/>
      </g>
     </g>
     <g id="line2d_78">
      <g>
       <use style="stroke:#000000;stroke-width:0.5;" x="241.256251857" xlink:href="#m5284c7e2a0" y="13.4563428218"/>
      </g>
     </g>
    </g>
    <g id="xtick_18">
     <g id="line2d_79">
      <g>
       <use style="stroke:#000000;stroke-width:0.5;" x="249.474393228" xlink:href="#m177f7580d0" y="359.056342822"/>
      </g>
     </g>
     <g id="line2d_80">
      <g>
       <use style="stroke:#000000;stroke-width:0.5;" x="249.474393228" xlink:href="#m5284c7e2a0" y="13.4563428218"/>
      </g>
     </g>
    </g>
    <g id="xtick_19">
     <g id="line2d_81">
      <g>
       <use style="stroke:#000000;stroke-width:0.5;" x="256.422732752" xlink:href="#m177f7580d0" y="359.056342822"/>
      </g>
     </g>
     <g id="line2d_82">
      <g>
       <use style="stroke:#000000;stroke-width:0.5;" x="256.422732752" xlink:href="#m5284c7e2a0" y="13.4563428218"/>
      </g>
     </g>
    </g>
    <g id="xtick_20">
     <g id="line2d_83">
      <g>
       <use style="stroke:#000000;stroke-width:0.5;" x="262.441658223" xlink:href="#m177f7580d0" y="359.056342822"/>
      </g>
     </g>
     <g id="line2d_84">
      <g>
       <use style="stroke:#000000;stroke-width:0.5;" x="262.441658223" xlink:href="#m5284c7e2a0" y="13.4563428218"/>
      </g>
     </g>
    </g>
    <g id="xtick_21">
     <g id="line2d_85">
      <g>
       <use style="stroke:#000000;stroke-width:0.5;" x="267.750726746" xlink:href="#m177f7580d0" y="359.056342822"/>
      </g>
     </g>
     <g id="line2d_86">
      <g>
       <use style="stroke:#000000;stroke-width:0.5;" x="267.750726746" xlink:href="#m5284c7e2a0" y="13.4563428218"/>
      </g>
     </g>
    </g>
    <g id="xtick_22">
     <g id="line2d_87">
      <g>
       <use style="stroke:#000000;stroke-width:0.5;" x="303.743448883" xlink:href="#m177f7580d0" y="359.056342822"/>
      </g>
     </g>
     <g id="line2d_88">
      <g>
       <use style="stroke:#000000;stroke-width:0.5;" x="303.743448883" xlink:href="#m5284c7e2a0" y="13.4563428218"/>
      </g>
     </g>
    </g>
    <g id="xtick_23">
     <g id="line2d_89">
      <g>
       <use style="stroke:#000000;stroke-width:0.5;" x="322.0197824" xlink:href="#m177f7580d0" y="359.056342822"/>
      </g>
     </g>
     <g id="line2d_90">
      <g>
       <use style="stroke:#000000;stroke-width:0.5;" x="322.0197824" xlink:href="#m5284c7e2a0" y="13.4563428218"/>
      </g>
     </g>
    </g>
    <g id="xtick_24">
     <g id="line2d_91">
      <g>
       <use style="stroke:#000000;stroke-width:0.5;" x="334.987047395" xlink:href="#m177f7580d0" y="359.056342822"/>
      </g>
     </g>
     <g id="line2d_92">
      <g>
       <use style="stroke:#000000;stroke-width:0.5;" x="334.987047395" xlink:href="#m5284c7e2a0" y="13.4563428218"/>
      </g>
     </g>
    </g>
    <g id="xtick_25">
     <g id="line2d_93">
      <g>
       <use style="stroke:#000000;stroke-width:0.5;" x="345.045239542" xlink:href="#m177f7580d0" y="359.056342822"/>
      </g>
     </g>
     <g id="line2d_94">
      <g>
       <use style="stroke:#000000;stroke-width:0.5;" x="345.045239542" xlink:href="#m5284c7e2a0" y="13.4563428218"/>
      </g>
     </g>
    </g>
    <g id="xtick_26">
     <g id="line2d_95">
      <g>
       <use style="stroke:#000000;stroke-width:0.5;" x="353.263380913" xlink:href="#m177f7580d0" y="359.056342822"/>
      </g>
     </g>
     <g id="line2d_96">
      <g>
       <use style="stroke:#000000;stroke-width:0.5;" x="353.263380913" xlink:href="#m5284c7e2a0" y="13.4563428218"/>
      </g>
     </g>
    </g>
    <g id="xtick_27">
     <g id="line2d_97">
      <g>
       <use style="stroke:#000000;stroke-width:0.5;" x="360.211720437" xlink:href="#m177f7580d0" y="359.056342822"/>
      </g>
     </g>
     <g id="line2d_98">
      <g>
       <use style="stroke:#000000;stroke-width:0.5;" x="360.211720437" xlink:href="#m5284c7e2a0" y="13.4563428218"/>
      </g>
     </g>
    </g>
    <g id="xtick_28">
     <g id="line2d_99">
      <g>
       <use style="stroke:#000000;stroke-width:0.5;" x="366.230645908" xlink:href="#m177f7580d0" y="359.056342822"/>
      </g>
     </g>
     <g id="line2d_100">
      <g>
       <use style="stroke:#000000;stroke-width:0.5;" x="366.230645908" xlink:href="#m5284c7e2a0" y="13.4563428218"/>
      </g>
     </g>
    </g>
    <g id="xtick_29">
     <g id="line2d_101">
      <g>
       <use style="stroke:#000000;stroke-width:0.5;" x="371.53971443" xlink:href="#m177f7580d0" y="359.056342822"/>
      </g>
     </g>
     <g id="line2d_102">
      <g>
       <use style="stroke:#000000;stroke-width:0.5;" x="371.53971443" xlink:href="#m5284c7e2a0" y="13.4563428218"/>
      </g>
     </g>
    </g>
    <g id="xtick_30">
     <g id="line2d_103">
      <g>
       <use style="stroke:#000000;stroke-width:0.5;" x="407.532436567" xlink:href="#m177f7580d0" y="359.056342822"/>
      </g>
     </g>
     <g id="line2d_104">
      <g>
       <use style="stroke:#000000;stroke-width:0.5;" x="407.532436567" xlink:href="#m5284c7e2a0" y="13.4563428218"/>
      </g>
     </g>
    </g>
    <g id="xtick_31">
     <g id="line2d_105">
      <g>
       <use style="stroke:#000000;stroke-width:0.5;" x="425.808770085" xlink:href="#m177f7580d0" y="359.056342822"/>
      </g>
     </g>
     <g id="line2d_106">
      <g>
       <use style="stroke:#000000;stroke-width:0.5;" x="425.808770085" xlink:href="#m5284c7e2a0" y="13.4563428218"/>
      </g>
     </g>
    </g>
    <g id="xtick_32">
     <g id="line2d_107">
      <g>
       <use style="stroke:#000000;stroke-width:0.5;" x="438.77603508" xlink:href="#m177f7580d0" y="359.056342822"/>
      </g>
     </g>
     <g id="line2d_108">
      <g>
       <use style="stroke:#000000;stroke-width:0.5;" x="438.77603508" xlink:href="#m5284c7e2a0" y="13.4563428218"/>
      </g>
     </g>
    </g>
    <g id="xtick_33">
     <g id="line2d_109">
      <g>
       <use style="stroke:#000000;stroke-width:0.5;" x="448.834227227" xlink:href="#m177f7580d0" y="359.056342822"/>
      </g>
     </g>
     <g id="line2d_110">
      <g>
       <use style="stroke:#000000;stroke-width:0.5;" x="448.834227227" xlink:href="#m5284c7e2a0" y="13.4563428218"/>
      </g>
     </g>
    </g>
    <g id="xtick_34">
     <g id="line2d_111">
      <g>
       <use style="stroke:#000000;stroke-width:0.5;" x="457.052368598" xlink:href="#m177f7580d0" y="359.056342822"/>
      </g>
     </g>
     <g id="line2d_112">
      <g>
       <use style="stroke:#000000;stroke-width:0.5;" x="457.052368598" xlink:href="#m5284c7e2a0" y="13.4563428218"/>
      </g>
     </g>
    </g>
    <g id="xtick_35">
     <g id="line2d_113">
      <g>
       <use style="stroke:#000000;stroke-width:0.5;" x="464.000708122" xlink:href="#m177f7580d0" y="359.056342822"/>
      </g>
     </g>
     <g id="line2d_114">
      <g>
       <use style="stroke:#000000;stroke-width:0.5;" x="464.000708122" xlink:href="#m5284c7e2a0" y="13.4563428218"/>
      </g>
     </g>
    </g>
    <g id="xtick_36">
     <g id="line2d_115">
      <g>
       <use style="stroke:#000000;stroke-width:0.5;" x="470.019633593" xlink:href="#m177f7580d0" y="359.056342822"/>
      </g>
     </g>
     <g id="line2d_116">
      <g>
       <use style="stroke:#000000;stroke-width:0.5;" x="470.019633593" xlink:href="#m5284c7e2a0" y="13.4563428218"/>
      </g>
     </g>
    </g>
    <g id="xtick_37">
     <g id="line2d_117">
      <g>
       <use style="stroke:#000000;stroke-width:0.5;" x="475.328702115" xlink:href="#m177f7580d0" y="359.056342822"/>
      </g>
     </g>
     <g id="line2d_118">
      <g>
       <use style="stroke:#000000;stroke-width:0.5;" x="475.328702115" xlink:href="#m5284c7e2a0" y="13.4563428218"/>
      </g>
     </g>
    </g>
    <g id="xtick_38">
     <g id="line2d_119">
      <g>
       <use style="stroke:#000000;stroke-width:0.5;" x="511.321424252" xlink:href="#m177f7580d0" y="359.056342822"/>
      </g>
     </g>
     <g id="line2d_120">
      <g>
       <use style="stroke:#000000;stroke-width:0.5;" x="511.321424252" xlink:href="#m5284c7e2a0" y="13.4563428218"/>
      </g>
     </g>
    </g>
    <g id="text_6">
     <!-- log10 of FEvals / DIM -->
     <defs>
      <path id="BitstreamVeraSans-Roman-20"/>
      <path d="
M9.8125 72.9062
L24.5156 72.9062
L43.1094 23.2969
L61.8125 72.9062
L76.5156 72.9062
L76.5156 0
L66.8906 0
L66.8906 64.0156
L48.0938 14.0156
L38.1875 14.0156
L19.3906 64.0156
L19.3906 0
L9.8125 0
z
" id="BitstreamVeraSans-Roman-4d"/>
      <path d="
M30.6094 48.3906
Q23.3906 48.3906 19.1875 42.75
Q14.9844 37.1094 14.9844 27.2969
Q14.9844 17.4844 19.1562 11.8438
Q23.3438 6.20312 30.6094 6.20312
Q37.7969 6.20312 41.9844 11.8594
Q46.1875 17.5312 46.1875 27.2969
Q46.1875 37.0156 41.9844 42.7031
Q37.7969 48.3906 30.6094 48.3906
M30.6094 56
Q42.3281 56 49.0156 48.375
Q55.7188 40.7656 55.7188 27.2969
Q55.7188 13.875 49.0156 6.21875
Q42.3281 -1.42188 30.6094 -1.42188
Q18.8438 -1.42188 12.1719 6.21875
Q5.51562 13.875 5.51562 27.2969
Q5.51562 40.7656 12.1719 48.375
Q18.8438 56 30.6094 56" id="BitstreamVeraSans-Roman-6f"/>
      <path d="
M9.42188 75.9844
L18.4062 75.9844
L18.4062 0
L9.42188 0
z
" id="BitstreamVeraSans-Roman-6c"/>
      <path d="
M9.8125 72.9062
L51.7031 72.9062
L51.7031 64.5938
L19.6719 64.5938
L19.6719 43.1094
L48.5781 43.1094
L48.5781 34.8125
L19.6719 34.8125
L19.6719 0
L9.8125 0
z
" id="BitstreamVeraSans-Roman-46"/>
      <path d="
M9.8125 72.9062
L55.9062 72.9062
L55.9062 64.5938
L19.6719 64.5938
L19.6719 43.0156
L54.3906 43.0156
L54.3906 34.7188
L19.6719 34.7188
L19.6719 8.29688
L56.7812 8.29688
L56.7812 0
L9.8125 0
z
" id="BitstreamVeraSans-Roman-45"/>
      <path d="
M19.6719 64.7969
L19.6719 8.10938
L31.5938 8.10938
Q46.6875 8.10938 53.6875 14.9375
Q60.6875 21.7812 60.6875 36.5312
Q60.6875 51.1719 53.6875 57.9844
Q46.6875 64.7969 31.5938 64.7969
z

M9.8125 72.9062
L30.0781 72.9062
Q51.2656 72.9062 61.1719 64.0938
Q71.0938 55.2812 71.0938 36.5312
Q71.0938 17.6719 61.125 8.82812
Q51.1719 0 30.0781 0
L9.8125 0
z
" id="BitstreamVeraSans-Roman-44"/>
      <path d="
M25.3906 72.9062
L33.6875 72.9062
L8.29688 -9.28125
L0 -9.28125
z
" id="BitstreamVeraSans-Roman-2f"/>
      <path d="
M2.98438 54.6875
L12.5 54.6875
L29.5938 8.79688
L46.6875 54.6875
L56.2031 54.6875
L35.6875 0
L23.4844 0
z
" id="BitstreamVeraSans-Roman-76"/>
      <path d="
M45.4062 27.9844
Q45.4062 37.75 41.375 43.1094
Q37.3594 48.4844 30.0781 48.4844
Q22.8594 48.4844 18.8281 43.1094
Q14.7969 37.75 14.7969 27.9844
Q14.7969 18.2656 18.8281 12.8906
Q22.8594 7.51562 30.0781 7.51562
Q37.3594 7.51562 41.375 12.8906
Q45.4062 18.2656 45.4062 27.9844
M54.3906 6.78125
Q54.3906 -7.17188 48.1875 -13.9844
Q42 -20.7969 29.2031 -20.7969
Q24.4688 -20.7969 20.2656 -20.0938
Q16.0625 -19.3906 12.1094 -17.9219
L12.1094 -9.1875
Q16.0625 -11.3281 19.9219 -12.3438
Q23.7812 -13.375 27.7812 -13.375
Q36.625 -13.375 41.0156 -8.76562
Q45.4062 -4.15625 45.4062 5.17188
L45.4062 9.625
Q42.625 4.78125 38.2812 2.39062
Q33.9375 0 27.875 0
Q17.8281 0 11.6719 7.65625
Q5.51562 15.3281 5.51562 27.9844
Q5.51562 40.6719 11.6719 48.3281
Q17.8281 56 27.875 56
Q33.9375 56 38.2812 53.6094
Q42.625 51.2188 45.4062 46.3906
L45.4062 54.6875
L54.3906 54.6875
z
" id="BitstreamVeraSans-Roman-67"/>
      <path d="
M37.1094 75.9844
L37.1094 68.5
L28.5156 68.5
Q23.6875 68.5 21.7969 66.5469
Q19.9219 64.5938 19.9219 59.5156
L19.9219 54.6875
L34.7188 54.6875
L34.7188 47.7031
L19.9219 47.7031
L19.9219 0
L10.8906 0
L10.8906 47.7031
L2.29688 47.7031
L2.29688 54.6875
L10.8906 54.6875
L10.8906 58.5
Q10.8906 67.625 15.1406 71.7969
Q19.3906 75.9844 28.6094 75.9844
z
" id="BitstreamVeraSans-Roman-66"/>
      <path d="
M34.2812 27.4844
Q23.3906 27.4844 19.1875 25
Q14.9844 22.5156 14.9844 16.5
Q14.9844 11.7188 18.1406 8.90625
Q21.2969 6.10938 26.7031 6.10938
Q34.1875 6.10938 38.7031 11.4062
Q43.2188 16.7031 43.2188 25.4844
L43.2188 27.4844
z

M52.2031 31.2031
L52.2031 0
L43.2188 0
L43.2188 8.29688
Q40.1406 3.32812 35.5469 0.953125
Q30.9531 -1.42188 24.3125 -1.42188
Q15.9219 -1.42188 10.9531 3.29688
Q6 8.01562 6 15.9219
Q6 25.1406 12.1719 29.8281
Q18.3594 34.5156 30.6094 34.5156
L43.2188 34.5156
L43.2188 35.4062
Q43.2188 41.6094 39.1406 45
Q35.0625 48.3906 27.6875 48.3906
Q23 48.3906 18.5469 47.2656
Q14.1094 46.1406 10.0156 43.8906
L10.0156 52.2031
Q14.9375 54.1094 19.5781 55.0469
Q24.2188 56 28.6094 56
Q40.4844 56 46.3438 49.8438
Q52.2031 43.7031 52.2031 31.2031" id="BitstreamVeraSans-Roman-61"/>
      <path d="
M44.2812 53.0781
L44.2812 44.5781
Q40.4844 46.5312 36.375 47.5
Q32.2812 48.4844 27.875 48.4844
Q21.1875 48.4844 17.8438 46.4375
Q14.5 44.3906 14.5 40.2812
Q14.5 37.1562 16.8906 35.375
Q19.2812 33.5938 26.5156 31.9844
L29.5938 31.2969
Q39.1562 29.25 43.1875 25.5156
Q47.2188 21.7812 47.2188 15.0938
Q47.2188 7.46875 41.1875 3.01562
Q35.1562 -1.42188 24.6094 -1.42188
Q20.2188 -1.42188 15.4531 -0.5625
Q10.6875 0.296875 5.42188 2
L5.42188 11.2812
Q10.4062 8.6875 15.2344 7.39062
Q20.0625 6.10938 24.8125 6.10938
Q31.1562 6.10938 34.5625 8.28125
Q37.9844 10.4531 37.9844 14.4062
Q37.9844 18.0625 35.5156 20.0156
Q33.0625 21.9688 24.7031 23.7812
L21.5781 24.5156
Q13.2344 26.2656 9.51562 29.9062
Q5.8125 33.5469 5.8125 39.8906
Q5.8125 47.6094 11.2812 51.7969
Q16.75 56 26.8125 56
Q31.7812 56 36.1719 55.2656
Q40.5781 54.5469 44.2812 53.0781" id="BitstreamVeraSans-Roman-73"/>
      <path d="
M9.8125 72.9062
L19.6719 72.9062
L19.6719 0
L9.8125 0
z
" id="BitstreamVeraSans-Roman-49"/>
     </defs>
     <g transform="translate(184.025 402.609467822)scale(0.2 -0.2)">
      <use xlink:href="#BitstreamVeraSans-Roman-6c"/>
      <use x="27.783203125" xlink:href="#BitstreamVeraSans-Roman-6f"/>
      <use x="88.96484375" xlink:href="#BitstreamVeraSans-Roman-67"/>
      <use x="152.44140625" xlink:href="#BitstreamVeraSans-Roman-31"/>
      <use x="216.064453125" xlink:href="#BitstreamVeraSans-Roman-30"/>
      <use x="279.6875" xlink:href="#BitstreamVeraSans-Roman-20"/>
      <use x="311.474609375" xlink:href="#BitstreamVeraSans-Roman-6f"/>
      <use x="372.65625" xlink:href="#BitstreamVeraSans-Roman-66"/>
      <use x="407.861328125" xlink:href="#BitstreamVeraSans-Roman-20"/>
      <use x="439.6484375" xlink:href="#BitstreamVeraSans-Roman-46"/>
      <use x="497.16796875" xlink:href="#BitstreamVeraSans-Roman-45"/>
      <use x="560.3515625" xlink:href="#BitstreamVeraSans-Roman-76"/>
      <use x="619.53125" xlink:href="#BitstreamVeraSans-Roman-61"/>
      <use x="680.810546875" xlink:href="#BitstreamVeraSans-Roman-6c"/>
      <use x="708.59375" xlink:href="#BitstreamVeraSans-Roman-73"/>
      <use x="760.693359375" xlink:href="#BitstreamVeraSans-Roman-20"/>
      <use x="792.48046875" xlink:href="#BitstreamVeraSans-Roman-2f"/>
      <use x="826.171875" xlink:href="#BitstreamVeraSans-Roman-20"/>
      <use x="857.958984375" xlink:href="#BitstreamVeraSans-Roman-44"/>
      <use x="934.9609375" xlink:href="#BitstreamVeraSans-Roman-49"/>
      <use x="964.453125" xlink:href="#BitstreamVeraSans-Roman-4d"/>
     </g>
    </g>
   </g>
   <g id="matplotlib.axis_2">
    <g id="ytick_1">
     <g id="line2d_121">
      <path clip-path="url(#p4b24e7e61f)" d="
M64.9219 359.056
L511.322 359.056" style="fill:none;stroke:#000000;stroke-dasharray:1.000000,3.000000;stroke-dashoffset:0.0;stroke-width:0.5;"/>
     </g>
     <g id="line2d_122">
      <defs>
       <path d="
M0 0
L4 0" id="m728421d6d4" style="stroke:#000000;stroke-width:0.5;"/>
      </defs>
      <g>
       <use style="stroke:#000000;stroke-width:0.5;" x="64.921875" xlink:href="#m728421d6d4" y="359.056342822"/>
      </g>
     </g>
     <g id="line2d_123">
      <defs>
       <path d="
M0 0
L-4 0" id="mcb0005524f" style="stroke:#000000;stroke-width:0.5;"/>
      </defs>
      <g>
       <use style="stroke:#000000;stroke-width:0.5;" x="511.321875" xlink:href="#mcb0005524f" y="359.056342822"/>
      </g>
     </g>
     <g id="text_7">
      <!-- 0.0 -->
      <defs>
       <path d="
M10.6875 12.4062
L21 12.4062
L21 0
L10.6875 0
z
" id="BitstreamVeraSans-Roman-2e"/>
      </defs>
      <g transform="translate(31.7625 364.575092822)scale(0.2 -0.2)">
       <use xlink:href="#BitstreamVeraSans-Roman-30"/>
       <use x="63.623046875" xlink:href="#BitstreamVeraSans-Roman-2e"/>
       <use x="95.41015625" xlink:href="#BitstreamVeraSans-Roman-30"/>
      </g>
     </g>
    </g>
    <g id="ytick_2">
     <g id="line2d_124">
      <path clip-path="url(#p4b24e7e61f)" d="
M64.9219 290.621
L511.322 290.621" style="fill:none;stroke:#000000;stroke-dasharray:1.000000,3.000000;stroke-dashoffset:0.0;stroke-width:0.5;"/>
     </g>
     <g id="line2d_125">
      <g>
       <use style="stroke:#000000;stroke-width:0.5;" x="64.921875" xlink:href="#m728421d6d4" y="290.620699257"/>
      </g>
     </g>
     <g id="line2d_126">
      <g>
       <use style="stroke:#000000;stroke-width:0.5;" x="511.321875" xlink:href="#mcb0005524f" y="290.620699257"/>
      </g>
     </g>
     <g id="text_8">
      <!-- 0.2 -->
      <g transform="translate(32.4375 296.139449257)scale(0.2 -0.2)">
       <use xlink:href="#BitstreamVeraSans-Roman-30"/>
       <use x="63.623046875" xlink:href="#BitstreamVeraSans-Roman-2e"/>
       <use x="95.41015625" xlink:href="#BitstreamVeraSans-Roman-32"/>
      </g>
     </g>
    </g>
    <g id="ytick_3">
     <g id="line2d_127">
      <path clip-path="url(#p4b24e7e61f)" d="
M64.9219 222.185
L511.322 222.185" style="fill:none;stroke:#000000;stroke-dasharray:1.000000,3.000000;stroke-dashoffset:0.0;stroke-width:0.5;"/>
     </g>
     <g id="line2d_128">
      <g>
       <use style="stroke:#000000;stroke-width:0.5;" x="64.921875" xlink:href="#m728421d6d4" y="222.185055693"/>
      </g>
     </g>
     <g id="line2d_129">
      <g>
       <use style="stroke:#000000;stroke-width:0.5;" x="511.321875" xlink:href="#mcb0005524f" y="222.185055693"/>
      </g>
     </g>
     <g id="text_9">
      <!-- 0.4 -->
      <g transform="translate(31.55625 227.703805693)scale(0.2 -0.2)">
       <use xlink:href="#BitstreamVeraSans-Roman-30"/>
       <use x="63.623046875" xlink:href="#BitstreamVeraSans-Roman-2e"/>
       <use x="95.41015625" xlink:href="#BitstreamVeraSans-Roman-34"/>
      </g>
     </g>
    </g>
    <g id="ytick_4">
     <g id="line2d_130">
      <path clip-path="url(#p4b24e7e61f)" d="
M64.9219 153.749
L511.322 153.749" style="fill:none;stroke:#000000;stroke-dasharray:1.000000,3.000000;stroke-dashoffset:0.0;stroke-width:0.5;"/>
     </g>
     <g id="line2d_131">
      <g>
       <use style="stroke:#000000;stroke-width:0.5;" x="64.921875" xlink:href="#m728421d6d4" y="153.749412129"/>
      </g>
     </g>
     <g id="line2d_132">
      <g>
       <use style="stroke:#000000;stroke-width:0.5;" x="511.321875" xlink:href="#mcb0005524f" y="153.749412129"/>
      </g>
     </g>
     <g id="text_10">
      <!-- 0.6 -->
      <defs>
       <path d="
M33.0156 40.375
Q26.375 40.375 22.4844 35.8281
Q18.6094 31.2969 18.6094 23.3906
Q18.6094 15.5312 22.4844 10.9531
Q26.375 6.39062 33.0156 6.39062
Q39.6562 6.39062 43.5312 10.9531
Q47.4062 15.5312 47.4062 23.3906
Q47.4062 31.2969 43.5312 35.8281
Q39.6562 40.375 33.0156 40.375
M52.5938 71.2969
L52.5938 62.3125
Q48.875 64.0625 45.0938 64.9844
Q41.3125 65.9219 37.5938 65.9219
Q27.8281 65.9219 22.6719 59.3281
Q17.5312 52.7344 16.7969 39.4062
Q19.6719 43.6562 24.0156 45.9219
Q28.375 48.1875 33.5938 48.1875
Q44.5781 48.1875 50.9531 41.5156
Q57.3281 34.8594 57.3281 23.3906
Q57.3281 12.1562 50.6875 5.35938
Q44.0469 -1.42188 33.0156 -1.42188
Q20.3594 -1.42188 13.6719 8.26562
Q6.98438 17.9688 6.98438 36.375
Q6.98438 53.6562 15.1875 63.9375
Q23.3906 74.2188 37.2031 74.2188
Q40.9219 74.2188 44.7031 73.4844
Q48.4844 72.75 52.5938 71.2969" id="BitstreamVeraSans-Roman-36"/>
      </defs>
      <g transform="translate(31.69375 159.268162129)scale(0.2 -0.2)">
       <use xlink:href="#BitstreamVeraSans-Roman-30"/>
       <use x="63.623046875" xlink:href="#BitstreamVeraSans-Roman-2e"/>
       <use x="95.41015625" xlink:href="#BitstreamVeraSans-Roman-36"/>
      </g>
     </g>
    </g>
    <g id="ytick_5">
     <g id="line2d_133">
      <path clip-path="url(#p4b24e7e61f)" d="
M64.9219 85.3138
L511.322 85.3138" style="fill:none;stroke:#000000;stroke-dasharray:1.000000,3.000000;stroke-dashoffset:0.0;stroke-width:0.5;"/>
     </g>
     <g id="line2d_134">
      <g>
       <use style="stroke:#000000;stroke-width:0.5;" x="64.921875" xlink:href="#m728421d6d4" y="85.3137685644"/>
      </g>
     </g>
     <g id="line2d_135">
      <g>
       <use style="stroke:#000000;stroke-width:0.5;" x="511.321875" xlink:href="#mcb0005524f" y="85.3137685644"/>
      </g>
     </g>
     <g id="text_11">
      <!-- 0.8 -->
      <defs>
       <path d="
M31.7812 34.625
Q24.75 34.625 20.7188 30.8594
Q16.7031 27.0938 16.7031 20.5156
Q16.7031 13.9219 20.7188 10.1562
Q24.75 6.39062 31.7812 6.39062
Q38.8125 6.39062 42.8594 10.1719
Q46.9219 13.9688 46.9219 20.5156
Q46.9219 27.0938 42.8906 30.8594
Q38.875 34.625 31.7812 34.625
M21.9219 38.8125
Q15.5781 40.375 12.0312 44.7188
Q8.5 49.0781 8.5 55.3281
Q8.5 64.0625 14.7188 69.1406
Q20.9531 74.2188 31.7812 74.2188
Q42.6719 74.2188 48.875 69.1406
Q55.0781 64.0625 55.0781 55.3281
Q55.0781 49.0781 51.5312 44.7188
Q48 40.375 41.7031 38.8125
Q48.8281 37.1562 52.7969 32.3125
Q56.7812 27.4844 56.7812 20.5156
Q56.7812 9.90625 50.3125 4.23438
Q43.8438 -1.42188 31.7812 -1.42188
Q19.7344 -1.42188 13.25 4.23438
Q6.78125 9.90625 6.78125 20.5156
Q6.78125 27.4844 10.7812 32.3125
Q14.7969 37.1562 21.9219 38.8125
M18.3125 54.3906
Q18.3125 48.7344 21.8438 45.5625
Q25.3906 42.3906 31.7812 42.3906
Q38.1406 42.3906 41.7188 45.5625
Q45.3125 48.7344 45.3125 54.3906
Q45.3125 60.0625 41.7188 63.2344
Q38.1406 66.4062 31.7812 66.4062
Q25.3906 66.4062 21.8438 63.2344
Q18.3125 60.0625 18.3125 54.3906" id="BitstreamVeraSans-Roman-38"/>
      </defs>
      <g transform="translate(31.803125 90.8325185644)scale(0.2 -0.2)">
       <use xlink:href="#BitstreamVeraSans-Roman-30"/>
       <use x="63.623046875" xlink:href="#BitstreamVeraSans-Roman-2e"/>
       <use x="95.41015625" xlink:href="#BitstreamVeraSans-Roman-38"/>
      </g>
     </g>
    </g>
    <g id="ytick_6">
     <g id="line2d_136">
      <path clip-path="url(#p4b24e7e61f)" d="
M64.9219 16.8781
L511.322 16.8781" style="fill:none;stroke:#000000;stroke-dasharray:1.000000,3.000000;stroke-dashoffset:0.0;stroke-width:0.5;"/>
     </g>
     <g id="line2d_137">
      <g>
       <use style="stroke:#000000;stroke-width:0.5;" x="64.921875" xlink:href="#m728421d6d4" y="16.878125"/>
      </g>
     </g>
     <g id="line2d_138">
      <g>
       <use style="stroke:#000000;stroke-width:0.5;" x="511.321875" xlink:href="#mcb0005524f" y="16.878125"/>
      </g>
     </g>
     <g id="text_12">
      <!-- 1.0 -->
      <g transform="translate(32.640625 22.396875)scale(0.2 -0.2)">
       <use xlink:href="#BitstreamVeraSans-Roman-31"/>
       <use x="63.623046875" xlink:href="#BitstreamVeraSans-Roman-2e"/>
       <use x="95.41015625" xlink:href="#BitstreamVeraSans-Roman-30"/>
      </g>
     </g>
    </g>
    <g id="text_13">
     <!-- proportion of trials -->
     <defs>
      <path d="
M54.8906 33.0156
L54.8906 0
L45.9062 0
L45.9062 32.7188
Q45.9062 40.4844 42.875 44.3281
Q39.8438 48.1875 33.7969 48.1875
Q26.5156 48.1875 22.3125 43.5469
Q18.1094 38.9219 18.1094 30.9062
L18.1094 0
L9.07812 0
L9.07812 54.6875
L18.1094 54.6875
L18.1094 46.1875
Q21.3438 51.125 25.7031 53.5625
Q30.0781 56 35.7969 56
Q45.2188 56 50.0469 50.1719
Q54.8906 44.3438 54.8906 33.0156" id="BitstreamVeraSans-Roman-6e"/>
      <path d="
M9.42188 54.6875
L18.4062 54.6875
L18.4062 0
L9.42188 0
z

M9.42188 75.9844
L18.4062 75.9844
L18.4062 64.5938
L9.42188 64.5938
z
" id="BitstreamVeraSans-Roman-69"/>
      <path d="
M18.3125 70.2188
L18.3125 54.6875
L36.8125 54.6875
L36.8125 47.7031
L18.3125 47.7031
L18.3125 18.0156
Q18.3125 11.3281 20.1406 9.42188
Q21.9688 7.51562 27.5938 7.51562
L36.8125 7.51562
L36.8125 0
L27.5938 0
Q17.1875 0 13.2344 3.875
Q9.28125 7.76562 9.28125 18.0156
L9.28125 47.7031
L2.6875 47.7031
L2.6875 54.6875
L9.28125 54.6875
L9.28125 70.2188
z
" id="BitstreamVeraSans-Roman-74"/>
      <path d="
M41.1094 46.2969
Q39.5938 47.1719 37.8125 47.5781
Q36.0312 48 33.8906 48
Q26.2656 48 22.1875 43.0469
Q18.1094 38.0938 18.1094 28.8125
L18.1094 0
L9.07812 0
L9.07812 54.6875
L18.1094 54.6875
L18.1094 46.1875
Q20.9531 51.1719 25.4844 53.5781
Q30.0312 56 36.5312 56
Q37.4531 56 38.5781 55.875
Q39.7031 55.7656 41.0625 55.5156
z
" id="BitstreamVeraSans-Roman-72"/>
      <path d="
M18.1094 8.20312
L18.1094 -20.7969
L9.07812 -20.7969
L9.07812 54.6875
L18.1094 54.6875
L18.1094 46.3906
Q20.9531 51.2656 25.2656 53.625
Q29.5938 56 35.5938 56
Q45.5625 56 51.7812 48.0938
Q58.0156 40.1875 58.0156 27.2969
Q58.0156 14.4062 51.7812 6.48438
Q45.5625 -1.42188 35.5938 -1.42188
Q29.5938 -1.42188 25.2656 0.953125
Q20.9531 3.32812 18.1094 8.20312
M48.6875 27.2969
Q48.6875 37.2031 44.6094 42.8438
Q40.5312 48.4844 33.4062 48.4844
Q26.2656 48.4844 22.1875 42.8438
Q18.1094 37.2031 18.1094 27.2969
Q18.1094 17.3906 22.1875 11.75
Q26.2656 6.10938 33.4062 6.10938
Q40.5312 6.10938 44.6094 11.75
Q48.6875 17.3906 48.6875 27.2969" id="BitstreamVeraSans-Roman-70"/>
     </defs>
     <g transform="translate(22.396875 278.775092822)rotate(-90.0)scale(0.2 -0.2)">
      <use xlink:href="#BitstreamVeraSans-Roman-70"/>
      <use x="63.4765625" xlink:href="#BitstreamVeraSans-Roman-72"/>
      <use x="102.33984375" xlink:href="#BitstreamVeraSans-Roman-6f"/>
      <use x="163.521484375" xlink:href="#BitstreamVeraSans-Roman-70"/>
      <use x="226.998046875" xlink:href="#BitstreamVeraSans-Roman-6f"/>
      <use x="288.1796875" xlink:href="#BitstreamVeraSans-Roman-72"/>
      <use x="329.29296875" xlink:href="#BitstreamVeraSans-Roman-74"/>
      <use x="368.501953125" xlink:href="#BitstreamVeraSans-Roman-69"/>
      <use x="396.28515625" xlink:href="#BitstreamVeraSans-Roman-6f"/>
      <use x="457.466796875" xlink:href="#BitstreamVeraSans-Roman-6e"/>
      <use x="520.845703125" xlink:href="#BitstreamVeraSans-Roman-20"/>
      <use x="552.6328125" xlink:href="#BitstreamVeraSans-Roman-6f"/>
      <use x="613.814453125" xlink:href="#BitstreamVeraSans-Roman-66"/>
      <use x="649.01953125" xlink:href="#BitstreamVeraSans-Roman-20"/>
      <use x="680.806640625" xlink:href="#BitstreamVeraSans-Roman-74"/>
      <use x="720.015625" xlink:href="#BitstreamVeraSans-Roman-72"/>
      <use x="761.12890625" xlink:href="#BitstreamVeraSans-Roman-69"/>
      <use x="788.912109375" xlink:href="#BitstreamVeraSans-Roman-61"/>
      <use x="850.19140625" xlink:href="#BitstreamVeraSans-Roman-6c"/>
      <use x="877.974609375" xlink:href="#BitstreamVeraSans-Roman-73"/>
     </g>
    </g>
   </g>
   <g id="patch_3">
    <path d="
M64.9219 13.4563
L511.322 13.4563" style="fill:none;stroke:#000000;"/>
   </g>
   <g id="patch_4">
    <path d="
M511.322 359.056
L511.322 13.4563" style="fill:none;stroke:#000000;"/>
   </g>
   <g id="patch_5">
    <path d="
M64.9219 359.056
L511.322 359.056" style="fill:none;stroke:#000000;"/>
   </g>
   <g id="patch_6">
    <path d="
M64.9219 359.056
L64.9219 13.4563" style="fill:none;stroke:#000000;"/>
   </g>
   <g id="text_14">
    <!-- {f20-f24}, 5-D -->
    <defs>
     <path d="
M11.7188 12.4062
L22.0156 12.4062
L22.0156 4
L14.0156 -11.625
L7.71875 -11.625
L11.7188 4
z
" id="BitstreamVeraSans-Roman-2c"/>
     <path d="
M12.5 -9.28125
L15.9219 -9.28125
Q22.75 -9.28125 24.8281 -7.17188
Q26.9062 -5.07812 26.9062 1.90625
L26.9062 14.0156
Q26.9062 21.625 29.0938 25.0938
Q31.2969 28.5625 36.7188 29.8906
Q31.2969 31.1094 29.0938 34.5625
Q26.9062 38.0312 26.9062 45.7031
L26.9062 57.8125
Q26.9062 64.75 24.8281 66.875
Q22.75 69 15.9219 69
L12.5 69
L12.5 75.9844
L15.5781 75.9844
Q27.7344 75.9844 31.8125 72.3906
Q35.8906 68.7969 35.8906 58.0156
L35.8906 46.2969
Q35.8906 39.0156 38.5156 36.2031
Q41.1562 33.4062 48.0938 33.4062
L51.125 33.4062
L51.125 26.4219
L48.0938 26.4219
Q41.1562 26.4219 38.5156 23.5781
Q35.8906 20.75 35.8906 13.375
L35.8906 1.70312
Q35.8906 -9.07812 31.8125 -12.6875
Q27.7344 -16.3125 15.5781 -16.3125
L12.5 -16.3125
z
" id="BitstreamVeraSans-Roman-7d"/>
     <path d="
M51.125 -9.28125
L51.125 -16.3125
L48.0938 -16.3125
Q35.9375 -16.3125 31.8125 -12.6875
Q27.6875 -9.07812 27.6875 1.70312
L27.6875 13.375
Q27.6875 20.75 25.0469 23.5781
Q22.4062 26.4219 15.4844 26.4219
L12.5 26.4219
L12.5 33.4062
L15.4844 33.4062
Q22.4688 33.4062 25.0781 36.2031
Q27.6875 39.0156 27.6875 46.2969
L27.6875 58.0156
Q27.6875 68.7969 31.8125 72.3906
Q35.9375 75.9844 48.0938 75.9844
L51.125 75.9844
L51.125 69
L47.7969 69
Q40.9219 69 38.8125 66.8438
Q36.7188 64.7031 36.7188 57.8125
L36.7188 45.7031
Q36.7188 38.0312 34.5 34.5625
Q32.2812 31.1094 26.9062 29.8906
Q32.3281 28.5625 34.5156 25.0938
Q36.7188 21.625 36.7188 14.0156
L36.7188 1.90625
Q36.7188 -4.98438 38.8125 -7.125
Q40.9219 -9.28125 47.7969 -9.28125
z
" id="BitstreamVeraSans-Roman-7b"/>
     <path d="
M4.89062 31.3906
L31.2031 31.3906
L31.2031 23.3906
L4.89062 23.3906
z
" id="BitstreamVeraSans-Roman-2d"/>
     <path d="
M10.7969 72.9062
L49.5156 72.9062
L49.5156 64.5938
L19.8281 64.5938
L19.8281 46.7344
Q21.9688 47.4688 24.1094 47.8281
Q26.2656 48.1875 28.4219 48.1875
Q40.625 48.1875 47.75 41.5
Q54.8906 34.8125 54.8906 23.3906
Q54.8906 11.625 47.5625 5.09375
Q40.2344 -1.42188 26.9062 -1.42188
Q22.3125 -1.42188 17.5469 -0.640625
Q12.7969 0.140625 7.71875 1.70312
L7.71875 11.625
Q12.1094 9.23438 16.7969 8.0625
Q21.4844 6.89062 26.7031 6.89062
Q35.1562 6.89062 40.0781 11.3281
Q45.0156 15.7656 45.0156 23.3906
Q45.0156 31 40.0781 35.4375
Q35.1562 39.8906 26.7031 39.8906
Q22.75 39.8906 18.8125 39.0156
Q14.8906 38.1406 10.7969 36.2812
z
" id="BitstreamVeraSans-Roman-35"/>
    </defs>
    <g transform="translate(215.8625 35.5652178218)scale(0.2 -0.2)">
     <use xlink:href="#BitstreamVeraSans-Roman-7b"/>
     <use x="63.623046875" xlink:href="#BitstreamVeraSans-Roman-66"/>
     <use x="98.828125" xlink:href="#BitstreamVeraSans-Roman-32"/>
     <use x="162.451171875" xlink:href="#BitstreamVeraSans-Roman-30"/>
     <use x="226.07421875" xlink:href="#BitstreamVeraSans-Roman-2d"/>
     <use x="262.158203125" xlink:href="#BitstreamVeraSans-Roman-66"/>
     <use x="297.36328125" xlink:href="#BitstreamVeraSans-Roman-32"/>
     <use x="360.986328125" xlink:href="#BitstreamVeraSans-Roman-34"/>
     <use x="424.609375" xlink:href="#BitstreamVeraSans-Roman-7d"/>
     <use x="488.232421875" xlink:href="#BitstreamVeraSans-Roman-2c"/>
     <use x="520.01953125" xlink:href="#BitstreamVeraSans-Roman-20"/>
     <use x="551.806640625" xlink:href="#BitstreamVeraSans-Roman-35"/>
     <use x="615.4296875" xlink:href="#BitstreamVeraSans-Roman-2d"/>
     <use x="651.513671875" xlink:href="#BitstreamVeraSans-Roman-44"/>
    </g>
   </g>
   <g id="text_15">
    <!-- absolute targets -->
    <defs>
     <path d="
M56.2031 29.5938
L56.2031 25.2031
L14.8906 25.2031
Q15.4844 15.9219 20.4844 11.0625
Q25.4844 6.20312 34.4219 6.20312
Q39.5938 6.20312 44.4531 7.46875
Q49.3125 8.73438 54.1094 11.2812
L54.1094 2.78125
Q49.2656 0.734375 44.1875 -0.34375
Q39.1094 -1.42188 33.8906 -1.42188
Q20.7969 -1.42188 13.1562 6.1875
Q5.51562 13.8125 5.51562 26.8125
Q5.51562 40.2344 12.7656 48.1094
Q20.0156 56 32.3281 56
Q43.3594 56 49.7812 48.8906
Q56.2031 41.7969 56.2031 29.5938
M47.2188 32.2344
Q47.125 39.5938 43.0938 43.9844
Q39.0625 48.3906 32.4219 48.3906
Q24.9062 48.3906 20.3906 44.1406
Q15.875 39.8906 15.1875 32.1719
z
" id="BitstreamVeraSans-Roman-65"/>
     <path d="
M8.5 21.5781
L8.5 54.6875
L17.4844 54.6875
L17.4844 21.9219
Q17.4844 14.1562 20.5 10.2656
Q23.5312 6.39062 29.5938 6.39062
Q36.8594 6.39062 41.0781 11.0312
Q45.3125 15.6719 45.3125 23.6875
L45.3125 54.6875
L54.2969 54.6875
L54.2969 0
L45.3125 0
L45.3125 8.40625
Q42.0469 3.42188 37.7188 1
Q33.4062 -1.42188 27.6875 -1.42188
Q18.2656 -1.42188 13.375 4.4375
Q8.5 10.2969 8.5 21.5781" id="BitstreamVeraSans-Roman-75"/>
     <path d="
M48.6875 27.2969
Q48.6875 37.2031 44.6094 42.8438
Q40.5312 48.4844 33.4062 48.4844
Q26.2656 48.4844 22.1875 42.8438
Q18.1094 37.2031 18.1094 27.2969
Q18.1094 17.3906 22.1875 11.75
Q26.2656 6.10938 33.4062 6.10938
Q40.5312 6.10938 44.6094 11.75
Q48.6875 17.3906 48.6875 27.2969
M18.1094 46.3906
Q20.9531 51.2656 25.2656 53.625
Q29.5938 56 35.5938 56
Q45.5625 56 51.7812 48.0938
Q58.0156 40.1875 58.0156 27.2969
Q58.0156 14.4062 51.7812 6.48438
Q45.5625 -1.42188 35.5938 -1.42188
Q29.5938 -1.42188 25.2656 0.953125
Q20.9531 3.32812 18.1094 8.20312
L18.1094 0
L9.07812 0
L9.07812 75.9844
L18.1094 75.9844
z
" id="BitstreamVeraSans-Roman-62"/>
    </defs>
    <g transform="translate(64.921875 359.056342822)scale(0.14 -0.14)">
     <use xlink:href="#BitstreamVeraSans-Roman-61"/>
     <use x="61.279296875" xlink:href="#BitstreamVeraSans-Roman-62"/>
     <use x="124.755859375" xlink:href="#BitstreamVeraSans-Roman-73"/>
     <use x="176.85546875" xlink:href="#BitstreamVeraSans-Roman-6f"/>
     <use x="238.037109375" xlink:href="#BitstreamVeraSans-Roman-6c"/>
     <use x="265.8203125" xlink:href="#BitstreamVeraSans-Roman-75"/>
     <use x="329.19921875" xlink:href="#BitstreamVeraSans-Roman-74"/>
     <use x="368.408203125" xlink:href="#BitstreamVeraSans-Roman-65"/>
     <use x="429.931640625" xlink:href="#BitstreamVeraSans-Roman-20"/>
     <use x="461.71875" xlink:href="#BitstreamVeraSans-Roman-74"/>
     <use x="500.927734375" xlink:href="#BitstreamVeraSans-Roman-61"/>
     <use x="562.20703125" xlink:href="#BitstreamVeraSans-Roman-72"/>
     <use x="601.5703125" xlink:href="#BitstreamVeraSans-Roman-67"/>
     <use x="665.046875" xlink:href="#BitstreamVeraSans-Roman-65"/>
     <use x="726.5703125" xlink:href="#BitstreamVeraSans-Roman-74"/>
     <use x="765.779296875" xlink:href="#BitstreamVeraSans-Roman-73"/>
    </g>
   </g>
   <g id="text_16">
    <!-- 0.0.0 -->
    <g style="fill:#808080;" transform="translate(276.06171875 353.520655322)scale(0.1 -0.1)">
     <use xlink:href="#BitstreamVeraSans-Roman-30"/>
     <use x="63.623046875" xlink:href="#BitstreamVeraSans-Roman-2e"/>
     <use x="95.41015625" xlink:href="#BitstreamVeraSans-Roman-30"/>
     <use x="159.033203125" xlink:href="#BitstreamVeraSans-Roman-2e"/>
     <use x="190.8203125" xlink:href="#BitstreamVeraSans-Roman-30"/>
    </g>
   </g>
   <g id="legend_1">
    <g id="patch_7">
     <path d="
M220.384 247.969
L355.859 247.969
L355.859 124.544
L220.384 124.544
L220.384 247.969
z
" style="fill:#ffffff;opacity:0.2;stroke:#000000;"/>
    </g>
    <g id="line2d_139">
     <path d="
M234.384 140.741
L262.384 140.741" style="fill:none;stroke:#000000;stroke-linecap:square;"/>
    </g>
    <g id="line2d_140"/>
    <g id="text_17">
     <!-- 1: 5/5 -->
     <defs>
      <path d="
M11.7188 12.4062
L22.0156 12.4062
L22.0156 0
L11.7188 0
z

M11.7188 51.7031
L22.0156 51.7031
L22.0156 39.3125
L11.7188 39.3125
z
" id="BitstreamVeraSans-Roman-3a"/>
     </defs>
     <g transform="translate(284.384375 147.740717822)scale(0.2 -0.2)">
      <use xlink:href="#BitstreamVeraSans-Roman-31"/>
      <use x="63.623046875" xlink:href="#BitstreamVeraSans-Roman-3a"/>
      <use x="97.314453125" xlink:href="#BitstreamVeraSans-Roman-20"/>
      <use x="129.1015625" xlink:href="#BitstreamVeraSans-Roman-35"/>
      <use x="192.724609375" xlink:href="#BitstreamVeraSans-Roman-2f"/>
      <use x="226.416015625" xlink:href="#BitstreamVeraSans-Roman-35"/>
     </g>
    </g>
    <g id="line2d_141">
     <path d="
M234.384 170.097
L262.384 170.097" style="fill:none;stroke:#00bfbf;stroke-linecap:square;"/>
    </g>
    <g id="line2d_142"/>
    <g id="text_18">
     <!-- -1: 4/5 -->
     <g transform="translate(284.384375 177.096967822)scale(0.2 -0.2)">
      <use xlink:href="#BitstreamVeraSans-Roman-2d"/>
      <use x="36.083984375" xlink:href="#BitstreamVeraSans-Roman-31"/>
      <use x="99.70703125" xlink:href="#BitstreamVeraSans-Roman-3a"/>
      <use x="133.3984375" xlink:href="#BitstreamVeraSans-Roman-20"/>
      <use x="165.185546875" xlink:href="#BitstreamVeraSans-Roman-34"/>
      <use x="228.80859375" xlink:href="#BitstreamVeraSans-Roman-2f"/>
      <use x="262.5" xlink:href="#BitstreamVeraSans-Roman-35"/>
     </g>
    </g>
    <g id="line2d_143">
     <path d="
M234.384 199.453
L262.384 199.453" style="fill:none;stroke:#bf00bf;stroke-linecap:square;"/>
    </g>
    <g id="line2d_144"/>
    <g id="text_19">
     <!-- -4: 4/5 -->
     <g transform="translate(284.384375 206.453217822)scale(0.2 -0.2)">
      <use xlink:href="#BitstreamVeraSans-Roman-2d"/>
      <use x="36.083984375" xlink:href="#BitstreamVeraSans-Roman-34"/>
      <use x="99.70703125" xlink:href="#BitstreamVeraSans-Roman-3a"/>
      <use x="133.3984375" xlink:href="#BitstreamVeraSans-Roman-20"/>
      <use x="165.185546875" xlink:href="#BitstreamVeraSans-Roman-34"/>
      <use x="228.80859375" xlink:href="#BitstreamVeraSans-Roman-2f"/>
      <use x="262.5" xlink:href="#BitstreamVeraSans-Roman-35"/>
     </g>
    </g>
    <g id="line2d_145">
     <path d="
M234.384 228.809
L262.384 228.809" style="fill:none;stroke:#ff0000;stroke-linecap:square;stroke-width:3.0;"/>
    </g>
    <g id="line2d_146"/>
    <g id="text_20">
     <!-- -8: 4/5 -->
     <g transform="translate(284.384375 235.809467822)scale(0.2 -0.2)">
      <use xlink:href="#BitstreamVeraSans-Roman-2d"/>
      <use x="36.083984375" xlink:href="#BitstreamVeraSans-Roman-38"/>
      <use x="99.70703125" xlink:href="#BitstreamVeraSans-Roman-3a"/>
      <use x="133.3984375" xlink:href="#BitstreamVeraSans-Roman-20"/>
      <use x="165.185546875" xlink:href="#BitstreamVeraSans-Roman-34"/>
      <use x="228.80859375" xlink:href="#BitstreamVeraSans-Roman-2f"/>
      <use x="262.5" xlink:href="#BitstreamVeraSans-Roman-35"/>
     </g>
    </g>
   </g>
  </g>
 </g>
 <defs>
  <clipPath id="p4b24e7e61f">
   <rect height="345.6" width="446.4" x="64.921875" y="13.4563428218"/>
  </clipPath>
 </defs>
</svg>
